<svg xmlns="http://www.w3.org/2000/svg" width="400" height="250"><path d="M0 125v125h49l6-14c4-8 7-14 8-13l-4 10c-3 5-6 10-6 13l-2 4h7c7 0 8 0 8-2 0-9 1-10 4-3l2 5h23l-2-3c-3-3-8-14-16-32-5-10-5-11-4-16l1-6 4 7c8 15 19 25 26 25l7 2c8 6 14 3 22-8l2-1c-1 1 0 4 1 7 3 5 2 8-2 10l-11 9-7 6h27l1-6c2-5 4-8 3-3v5l-1 4h9l8-1-3-9-3-10c0-3 3-4 5-1l6 19c0 1 1 2 3 2s2 0-1-7c-4-10-3-11 2-1 3 8 4 8 7 8h3l-5-8-6-11c-2-3-2-6-1-4l11 18 3 5h34a141 141 0 0037-1l42 1h39v-4l-3-5-1-5-1-4-1-1c-1-1-1-1-2 1-2 6-4 2-2-4 3-6 3-12 1-22l-2-10h13l3-4c2-4 4-5 6-3 1 2 2-12 1-15-3-6-9-33-8-33 2-2 2 0 8 14 4 13 7 17 4 8l-1-6c1 0 7 14 7 17 0 7 9-4 12-15 2-6 2-4 1 2l-2 19c-1 17-3 28-6 31-2 3-2 4-2 9 1 6-2 24-4 28-1 2 0 2 21 2h23V0H0v125M71 4l1 2c2-2 3 1 2 5s-1 5 2 13a72 72 0 006 13c1 1 2 2 6 2 4 1 5 1 7 4l3 4v-3l-2-6-1-3c-3 0-7-4-7-7v-5c4-6 3-22-1-22-2 0-2 0-1 4 2 5 1 6-2 1l-3-5c-2 0-2 1 0 7 3 9 2 9-2 1-2-7-3-8-5-8-3 0-3 0-3 3m40 17l-5 6-3 4-4 2 1 7 1 7 4-6c1-4 4-9 6-11 3-4 6-11 4-12l-4 3m9 7c-4 3-6 5-9 12-4 8-6 16-4 15l1-3c0-2 3-8 9-17 6-7 9-9 12-5 1 2 2 2 2 1l-5-6-6 3m96 12l4 4c7 5 5 5-2 1l-8-3 15 27c0 1 12-12 12-14 1-3 0-3-6-7l-15-8m-98 8c-5 5-5 6-5 15v9l-1-7c-1-8-1-8-2-1l-3 9-1-3c0-2 0-2-1 0 0 3 2 8 4 10s2 2 6-5c4-6 4-7 4-13l1-11c2-7 1-7-2-3m44 3l-7 4c-5 3-7 4-9 8-2 3-3 6-1 5l3 1c4 1 3 2 0 1-8-3-6-1 4 7 8 6 9 6 7 0-2-5-1-10 2-17s4-11 1-9m21 5l-8 8-15 12 1 2c1 1 2 1 11-2 5-2 17-21 15-24l-4 4m121 4v5c-1 2 1 5 9 14 7 8 10 10 8 6-1-3-12-23-15-26l-2-2v3M84 68v3c-1-2-3-3-4-2-1 0-2-1 3 9l4 10-11-15c0-2-5-4-7-4l13 21c3 5 4 5 5 3v-4l1-1 2-2c0-3 2-6 4-6 2-1 2-1-1-7s-3-6-6-7c-4 0-4 0-3 2m202 2c-3 4-2 7 3 15l5 9 2 5c4 6 1-4-4-16l-4-11c0-3-1-4-2-2m-155 7c-4 3-6 6-6 10l-2 7c-2 4-3 9-1 9 1 1 1 0 2-5 1-4 7-13 10-15l2-3-4 2-4 2c0-1 5-6 9-8 1-1 1-1-1-1l-5 2m4 15c-6 11-6 12-2 16 8 9 16 18 19 24 5 9 4 4-2-7l-9-15c-6-6-6-10-3-17l2-7c0-3-1-3-5 6m-32 2l-1 5-2 9-3 13-3 10c-2 3-2 11 0 11l7-24 2-11a901 901 0 005-13h-5m46 4l2 11a295 295 0 0111 32c1 1 1 1 1-3l-3-8-4-13c-5-22-9-30-7-19m235 0c-3 1-4 2-3 3l1 10c1 8 1 8 5 10l4 2 3-2 4-3c2 0 2-1 2-5 0-8-2-11-8-10-4 0-5-1-4-3 3-4 2-5-4-2m-52 1l4 11c9 18 19 44 21 53 0 5 2 5 2 0 0-12-8-35-22-59-3-6-4-7-5-5m-190 2v7l8 13c9 16 7 7-2-13-5-9-5-9-6-7m-34 2a458 458 0 00-10 34c-3 6-4 12-4 14l1 3 3-6c2-3 3-8 3-11 1-8 7-27 9-28 3-1 2-3 0-5l-2-1m7 8c0 3 3 9 4 9 5-2 6-2 9 0 2 3 8 6 10 6l-3-5-4-7c-1-2-4-3-6 0-2 2-7 1-9-2l-1-1m102 8c-2 0-3 1-1 4l3 7 4 14c2 8 23 50 24 50l-2-8c-2-9 0-15 5-15 4 0 5-1 4-10-1-11-5-19-16-32-9-10-13-12-21-10m-107 6l-4 8-2 6-3 7c-6 11-6 16-2 21 3 4 4 4 3-3 0-6 6-27 10-35 3-3 3-4 2-6-2-3-3-3-4 2m10 6c-5 6-3 8 5 8l8 1c1 1 1 3-1 3l-5 2-3 1 2 5 2 6 4-2h7c7 2 8-1 3-8l-4-9c-3-6-5-8-9-10-5-2-5-1-9 3m-9 16c-5 13-6 20-3 26 2 3 7 8 9 8l-2-8c-4-12-4-24 1-32v-3l-5 9m-29 1c-1 3 0 9 1 16 4 21 8 33 17 42l6 8c3 6 21-5 18-12l-3-3-8-5-7-5c-7 0-14-6-16-14l-3-12-3-12c0-7-2-8-2-3m123-1c-3 3-2 25 2 41l4 15 8-4c9-6 17-8 21-5 2 1 2 1 1-1l-2-4-1-4-2-6-7-12c-5-8-13-20-15-21-2-2-8-1-9 1m-85 6c-2 7-2 10 1 23 2 8 5 11 3 4-1-6-1-13 1-18v-10c-3-6-3-6-5 1m203 5c-2 0-3 1-2 7l1 5h4c6 1 7 0 5-7-2-6-3-6-8-5m-192 6c-2 1-2 2-1 4 2 4 1 5-1 2l-1-3-1 2c-1 3 0 16 1 16v-2c0-3 3-10 5-12l7-1 5-2c0-4-10-6-14-4m112 44l-1 14v3l4-3c4-5 4-7 0-19l-2-5-1 10m-39 16c-5 0-4 6 1 11 2 3 4 4 5 4 2-3 0-16-2-16l-4 1m-18 6c5 15 6 19 9 19s3 0 1-11c-1-8-1-8-6-10-5-4-5-4-4 2" fill="#d3d3d3" fill-rule="evenodd"/></svg>