<svg xmlns="http://www.w3.org/2000/svg" width="400" height="267"><path d="M0 103c0 99 0 102 2 102l2-1v-2l-1-1 27-16 4-2-3-1-7-1-7-1h-2l2-2c3-1 9-1 14 1l4 1a238 238 0 006-17h5l8-1 12-4 13-6 4-1v-10l1 4v5h7c12 0 17 3 17 13 0 3 0 6-2 9-2 6-4 6-1 1 2-5 1-12-3-15-3-3-4-4-7-1-1 1-3 3-5 3-3 2-4 3-1 3 4-2 2 0-3 3-5 2-5 2-5 0 1-3-2-2-5 2-2 3-2 3-2 1s-4-1-8 2l-8 6c-9 5-17 11-17 13v5l-4 5-1 2 3-2c4-3 11 1 10 5 0 2 0 3 3 5 2 1 2 2 1 2-2 1-2 2 0 5l1 4H41c-14-1-16-1-11-2l4-3c1-1 1-1-3-1-3 0-4 1-4 3-1 2-2 2-8 2l-7-1 2-2 5-4 5-3v-3l-2 1h-1c-1-2-6-2-8-1l-4 1c-8 1-9 2-9 11v8h4c4-1 5-2 1-3-2-2-2-2 4-2 4 0 6 0 5 1-2 0-4 3-2 3l1-1 2-1 1-1h37l-3 2a6762 6762 0 00-31 6H0v36h46c48 0 48 0 45-4v-1c1 1 2 0 3-1v-1l-2-1 5-1c5 0 4-1 2 7-1 4 2 2 4-3l2-4 7-1 7 1h7l2 1c2 2 4 3 6 1l3-2 2-1v-1l1 1 2 1h1c-1 1 0 2 1 2l1-1c0-2 0-2 2-2l1 2c1 2 1 2 2 1v-2c-1-1 0-1 4-1 3 0 5 1 5 2l4 1 3-1h2l2-1 2-2h2l7-5 2-1v-1h-4l-2-1c1-2 0-2-1-2s-2 0-1 1h-3l-5-1-7-2-10-2-9-3-4-1c-3 0-6-3-4-3l1-2-1-1c-2 1-5-1-5-2l-3-3-2-1c0-1-3-5-5-5-1 0-2-1-1-2 0-2 2-2 11-1 13 0 14 1 8 2-7 1-5 2 2 1h13c11 2 23 2 24 1 1-2 5-2 23 0a59 59 0 0016 0l1-2c0-2-2-4-5-4l-5-2h36c34 1 40 1 36-1l-4-3-3-2-2-2-2-3-1-3c0-2 0-2 2-1l3 2 10 8v-1c-1-3 1-2 6 2 4 4 6 5 6 3l-1-2-21-19c-4-4-8-7-10-7a290 290 0 00-45 1l-4-1-68-1c0-2 31-3 69-2l14-1c3-2 4-2 4-1s3 2 16 2a2710 2710 0 0126 0c-2 6-2 7 0 7 1 0 3-1 5-6l3-5c0 4 3 1 3-3 0-2 0-2-1-1v-4l2-2c0 2 2 2 2-1h-1c-1 0-1-1 1-5 0-2 2-3 2-2l1-1 2 2c2 5 3 4 5-2l2-5c1 0 2 5 1 8-1 4 0 7 2 6 2 0 2 0-6 19-8 21-8 19-5 19s5-2 5-4l8-20 9-19v4c0 5-4 17-7 19l-2 3-1 4c-2 1-6 9-5 10l2-4 1-1c0 1 4-3 4-5l2-3 2-3 3-6 2-5 2-2v2c0 3 0 3 4-4 4-8 4-5-1 6l-4 11c0 2 3-2 3-4 0-1 1-2 3-2 3-1 4-5 4-14v-6c1 3 2 1 2-3v-1h2c0-3 9-2 13 1l3 1 2 2h2c3-2 5-1 5 2v2h13c10 0 14 0 15 2l3 1c2 0 2 1 2 3 0 4 2 5 10 5 3 0 4 0 4 2l-18 1c-9 0-12 1-5 2h6l2 1 1 1 1 1-2 2v1h1l1 1 5 5v3c-1 0-2 2-1 3v1c-1-1-3 0-6 1l-11 2-3 1h-19a278 278 0 00-37-1c-2 0-5-2-5-4s0-2-1-1l-6 14 21 1a343 343 0 0127 1l5 2c2 2 2 2 3 1 2-2 7-2 6-1l1 1v2c-1 1 0 1 3 1 2 1 1 1-3 1h-10a681 681 0 01-7 3l16 1c1 1 0 2-3 2-3 1-4 1-3 2l2 1h2l-4 1-5 2c-2 1-2 1 0 2 3 1 5 6 2 4a1252 1252 0 01-4 0c1 1 0 1-2 1h-5l-6 2-6 1h-2l-25-1c-3 1-4 2-2 2 3 1 0 2-7 1-8-1-11 0-13 2h-16c-5 1-9 3-9 5 0 1 2 4 4 4l-1 2c-2 2-2 2-1 3l2 2h-2c-2-2-3-2-3 1l6 1 6-1h1l65 1h65V134l-1-84v50l-3 1c-5 0-5 1-4 3h1l4-1 2-1v15l-1 14c-1-1-3 8-3 13 0 4-2-5-2-12 0-4 0-6-1-5l-1 4-2 11-1-15-1-17-7-1h-6l-1-5c0-6 2-8 5-6 4 2 9 1 9-4 0-2 0-2-7-2h-8v6c0 7-1 9-5 9l-2 1c-1 1-1 0-1-2 0-4 0-4-3-4s-4 0-4 2l-1 7-3-3-3-3-1 3-3 3-8 1c-3 2-5 0-5-2 0-3-1-3-5-3s-5-2-6-8a178 178 0 011-39v-9l-2-24-1-25c0-2 0-2-21-2h-20v12l1 25-1 6v19c0 18-1 28-2 27l-1-2c0-2 0-2-1 0v4c1 1 3 1-31 1l-23 1c-3 2-31 6-33 4h-17c-1 2-13 1-15-1s-2-2-2 0c-1 3-6 3-6 0l-5-8c-5-4-6-5-9-5h-8l-9 1-3 1c-2 0-10 10-11 13l-4 4-4 4c-3 4-4 5-3 2 0-3-1-2-5 1-2 2-3 1-1-1s0-1-4 1l-5 2-3 2c-2 1-3 4 0 3h1l4-2c5-3 6-3 2 2l-6 7-3 1c0-2 0-2-1 0 0 2-1 2-2 2l-2 2-2 3-4 6c-1 3-3 5-4 5-1-1-1 0-1 1l-1 3c-2 1-2 1 1 1 4 0 2 2-2 2-2 0-2 0-1 1s1 1-2 1l-3 1-1 3c-1 1-1 1 1 1s2 0-1 1l-3 2 2 1c2 1 2 1-2 1h-4l7-11 7-11 2-2c1 0 2-1 2-3l3-5 1-4 1-3c2-1 3-6 3-21l1-6 8-1c9 0 9 0 6 4-1 3-1 6 2 5l3 1c3 1 9 0 11-3 4-4 6-9 4-11-1-2-1-10 1-16v-6c-2-1-1-8 3-10 1-1 1-13-1-14l-1-3c0-2 0-2-1 0-2 2-3-8-3-27V0H67v17l-1-7c-1-7-2-7-3-5-3 3-9 4-10 0s-4-2-3 4a308 308 0 00-1 9 512 512 0 00-2-13V0h-4c-4 0-4 0-2 1 1 1 1 1-1 1l-3-1-18-1H0v103m195-66l-3 4-2 4c-1 2-1 2 1 2l2 1-3 1c-1 0-2 3-1 11l2-2 2-2c2 0 1 6-1 9v5c1 2 2 2 2 1l1-2c3 0-1 6-5 7-1 1-2 2-1 3l1 5v3h7c8 0 7 1 8-8 1-2 1-3-1-3l-1-4c0-6 2-7 11-7 7 0 8 0 9-2l2-5c2-4 1-10-2-10l-2 1v2l-5 1c-5-1-5-1-6 1l-2 3-2-3-3-3h2c2 0 3-1 3-2 0-2-1-3-2-1l-5 1c-3 0-3 0-2-1v-2l2-2c3 0 4-2 2-2s-4 2-6 4c0 2-1 2-2 0-2-1-2-3 0-3 1 0 2-1 2-3 1-3 1-3-2-2m-82 8c0 2 0 4-1 3-1-3-2 0-2 6l1 7 1-2v-5c1-3 1 0 1 9l-1 12 1 4 2 4V61a295 295 0 00-2-16m53 11l1 3 1 4c0 4 2 4 7 1 2-2 3-3 5-2 1 0 2 0 3-2s1-2 3-1v-3l-1-1c0 2-4 3-4 1s-1-2-7-2c-7 0-8 0-8 2m183 10c-7 1-6 3 0 5 6 1 7 2 2 3-6 2-2 4 7 4 6 0 7 0 7-2l-3-2-3-1h19c7 1 7 1 5-5v-3h-15l-19 1m-190 41h-4c-1 1-2 2-2 8l-1 9c-1 3 0 4 3 3 2-2 5 1 5 4l2 2 1 2h1c0-2 1-2 1-1l1 6c0 4 2 1 2-4 1-3 0-4-1-4l-1-1 1-2 1-2 2-2 2 2c1 3 2 2 1-1 0-3 1-4 3-2l2 1c3 0 3 2 0 2-1 1-2 2-1 3h1c2-1 3 1 2 3v3c2 1 2 1 0 4l-1 5h2v-3l1-1 1-2c1-2 1-2 1 1l1 5 2 4 1-1 3-2c2 0 2-1 2-3 0-3 2-6 4-5s2-1 3-6l1-8c1 0 4 3 4 5 0 4 2 0 3-6 0-7 2-6 3 1 0 7 1 6 1-2 0-5 0-6 2-6s2 0 2 11l2 6h1l1-6c1-7 3-11 6-11 2-1 2 0 2 6 0 5 2 2 2-3 1-5 2-6 3-5 2 1 1-2-1-3-2-2-2-2-3 0-2 2-2 2-2 0s-6-4-9-2l-3 1h-4l-7-2-7-1h-12l-6 1c-2 1-16 0-17-1-1-2-2-2-3 0m148 27c3 2 2 12-1 12v-1l-1-2c-2 0-2 4 0 6 1 1 2 1 2-1 0-1 7-3 8-1h2c1-1 1-1 2 1 0 2 0 2 2 1l3-2c2-1 2-1 1-2s3-6 5-6h1c4 0-19-7-24-7h-2l2 2m-184 21l4 3c4 1 7 5 8 11l1 5 1-3 1-7-1-3h19l21-1c50 0 89-1 89-2 1-1-25-1-66-1a368 368 0 01-77-2m10 23c-1 3-1 3 1 6 2 4 3 6 1 4-3-2-2 0 2 5l6 8c2 3 2 3 10 2 5 0 6-2 0-2-3 0-3 0-3-3 0-4-3-4-4-1-1 4-3 2-4-4 0-3 0-6-3-11-4-7-4-7-6-4" fill="#d3d3d3" fill-rule="evenodd"/></svg>