<svg xmlns="http://www.w3.org/2000/svg" width="400" height="267"><path d="M0 134v133h61l61-1 3-4c3-3 3-3 2-4-2 0-2 0 0-2 6-4 23 0 35 7 6 4 7 4 10 4l5-1 18 1h16v-3c1-20 1-24 3-27 3-6-1-17-10-25l-6-8c-1-3-1-3-3-2-1 3-3 0-4-6-2-10-6-17-6-9l-1 3v-1h-1l-1-1v-4l1-3c2-1 2-1 0-6l-2-7c1-1 0-5-2-9-1-4-2-7-1-9l-1-7c-1-5 0-7 3-5 4 2 4-6-1-16-5-12-5-19 2-25 4-3 11-4 12-1 0 2 19 2 21 0s-3-11-6-10l-2-1c-1-2-1-2 2-4a288 288 0 0031-26l2-1c1-2 5-1 8 3l5 5 5 7-4 1-6 1-4 1-2 1h4c11-2 15 0 16 9l3 7 3 5c2 6 3 23 1 27-2 3-1 4 2 1s4-3 3 1v36l3 4 1 2 1 4v9c2 0 1 3-1 4v5c-2 1-2 1-1 3v5l-2 2c-2 1-2 1-1 2 2 1 0 3-2 3s-2 0-1 1c1 2 0 3-2 3l-2 1 1 1 1 1-3 1-2 1c0 2-7 6-8 5l-1 1-1 2 2 9c4 24 4 31 2 35s-2 4 5 4c5 0 5 0 5-2-1-3 1-8 4-11l8-8c4-5 6-7 7-6 1 0 5-2 4-3l-6 1c-5 2-6 2-8 0h-7c0 2 0 2-2 0l-2-3-1-2c-3-2-3-9-2-13a190 190 0 0137-31l-6 14c-8 14-8 16-5 15h2l5-8c7-15 17-22 29-23l2-1c0-1 12-4 14-3 7 2 14 8 14 12l1 1 1 2v2l1 6c1 3 1 4-1 4-1 0-1 1 2 2 3 2 4 4 1 4l1 3v2l1 2c5 5 5 12 2 26-2 6-3 11-2 14v4h38V0H0v134m249-52c-3 1-6 3-6 5h2c3-1 3-1 5 2s2 4-2 4c-2 0-1 1 3 1 7 1 12-1 12-4s-2-7-4-7l-1-1h-9m-64 69l3 6c0 3 2 7 3 8l5 8c1 3 3 5 4 5 2 1 2 1 2 3-1 2 4 8 12 16 2 3 4 2 2-1-2-2-3-4-1-4 1 0 6 5 5 6l1 1 2 1 7 8 3-11 2-2-1-2c-2 0-1-2 0-2 2 1 5-3 4-3-1-2-5-2-5-1l2 1 1 1-2 1c-1 0-2 1-2 3-1 3-4 4-5 2h-2l-3-2h-3v-1l-1-3-2-4c1-1 0-2-1-3l-2-4c-1-4 2-5 11-4 9 2 10 2 10 5s1 3 4 0l3-3 2-2 2-2 3-3c1-3 1-3-2-1s-11 4-18 4c-12 0-35-12-40-20-2-3-4-4-3-1m102 29c-4 3-8 14-8 18l1 2 5-3c8-4 15-11 15-15 0-1-5-4-8-4l-5 2m-98 54c-4 1-5 3-4 11l-2 9c-2 3-2 5-1 5l1 1h2l4 2c2 0 6-3 5-5h2l4-8c1 0 4-4 4-8 1-3 1-4-1-4l-2-1c-2-1-9-3-12-2" fill="#d3d3d3" fill-rule="evenodd"/></svg>