<svg xmlns="http://www.w3.org/2000/svg" width="400" height="267"><path d="M0 134v133h73c64 0 73-1 73-2l1-2 2-3v-3c1-1 0-2-2-1-1 0-2 0-1-1 2 0 2 0 0-2v-2c2 0 2-1 1-2-1-2-2-2-4-1-4 1-7 0-6-2 0-2 0-2-2-1-2 2-5 3-5 1-1-1 0-2 2-2 2-1 3-2 2-3l-2-2-5 2h-3l4-2 6-2c1 1 2 0 3-1 1-3 1-3-2-2-3 2-10 3-10 2l5-1 5-2 1-1c1-1 1-1-1-3l-2-2 2-1 8-4c3 0 5-2 6-3l2-1 8-5 7-5c3 0 6-3 4-4-1-1-1-1 1-1l2-1 2-1v-2c0-3 0-3 4-4l7-2c5-2 6-2 6 0h1l1-1v8c0 2 1 4 2 3l1-16 1-11-1 7c-2 10-3 10-5-1-3-11-3-11 1-11l5-2c2-3 8-4 9-2l-2 8-2 10c0 4 0 4 4 4l4-1 11 1 4 1c2 0 3 1 5 3 3 4 4 6 2 5h-2v4l-3 2c-1 1-1 1 2 1 4-1 4 0 0 2l-2 1h3c3 0 3 0 2 1-2 1-2 1 0 1 3 0 10 6 7 6l-2 1c-1 1 0 1 2 1l11 4 10 3c2 0 9 6 7 7-2 0-1 4 1 5 2 2 2 3 2 8 1 5 2 8 6 8 2 0 3 1 1 3-1 1-1 2 1 4 2 1 3 4 3 5v2h119V133l-1-121v12h-4L334 6c-23-8-23-8-28-1l-3 6 9 3a970 970 0 0143 16l17 7c4 1 7 3 7 4l-1 1-5 1-7 2-3 1-3 2a5837 5837 0 01-45 6 1089 1089 0 00-20-1c-9-2-10-2-6 2l3 2h-3c-11-2-18-2-21 0l-6 2-3 1 2 1 4 2 3 1 5 2 11 5 8 3v3c0 4 0 4 2 5 3 0 5 2 4 3l1 1 2-1h2l4-1c3-2 6-2 8-1h2c0-2 8 2 9 5 1 2 2 3 3 2l1 1-4 1-4 2 2 1h2c1 1 0 1-3 1s-4 0-3-1c2 0 1-2-1-2l-3-1h-1l-2 1h-2l-2 1c-2-1-2-1-1-3v-2l-3 6c1 1 0 2-1 2h41l-2 2-2 4c0 2-3 7-5 7-2 1-3 7-1 9v2c-2 0-6-5-6-7 0-3-2-2-3 0 0 2-5 3-17 3-23 0-37 1-36 3 0 2 3 3 5 1s7-2 7-1c1 2 5 1 7-1h4c2-1 6 0 8 2l5 1 5 1 2 2c2 0 2 1 0 3l-1 5c0 2 2 4 2 2 1-2 4 1 6 4l1 9 5 17c3 3 1 5-3 5l-5-1v-4l-4-12-3-8-2 3c-1 3-2 3-2 2l-2-2h-2l-3-1c-2 0-4-3-5-7-2-4 4-3 6 1 1 3 1 3 3 2h4c1 2 2 2 3 0v-2l-5-3c-3-4-7-5-7-3l-3 1c-2 0-3-1-4-3-1-3-2-4-1-1l-1 2-3 1-6 1c-6 0-8 1-8 2h2c2 0 2 0 1 2-1 1-2 2-1 3v2c-3 0-6-3-6-5l-1-2c-1 1-5-1-5-2l-2-1c-1-1-1 0-1 1 0 3 0 4-2 4s-3-1-3-2c-1-4-4-3-4 1l-2 4-2-1-2-1-2-1v2c0 1 1 2 2 1 2 0 2 0 0 2s-2 2 3 3h7c1 1 1 1-2 2-3 0-3 0-2 4l-1 4-1-1c0-2-3-4-4-4l-1 14 1 6c2 3 1 5-2 5-2 0-3-2-3-9 0-4-1-6-3-6v1c1 2 0 5-1 4s-2-10-1-11l3 1h2c-1-1 0-3 1-4v-2l-2 1-2 1c-3 0-5 3-5 6 1 2-1 6-2 4v-3c2-1-2-3-3-1v3c2 0 0 3-2 4s-2 1 0 1 2 0 1 1h-3c-2-1-5-1-5 1 1 1-3 4-4 3l-1-9c0-8 0-9-2-9l-3-2-1-1-1 4 2 10 1 6-2 4c-1 0-2-3-2-7l-1-12c-1-6-2-6-4-6-2 1-2 1-1-1 3-4 4-7 3-11l-1-4v5l-2 8-2 4-8 2-4-1-1 7c-1 4-2 7-1 9l1 5c0 2 0 2-2 1l-4-1h-1l2-1 1-2-1-2-2-1 1-2 1 1 1 1 1-8c0-9-1-9-2-6l-1 4c2 0 1 3-1 3l1 1v1c-3 2-4 0-3-3 0-2 0-4-2-5v-3c1-1 0-2-2-3-3-1-6-4-3-3 1 1 2 0 2-1 0-2-4-1-5 2s-1 3-3 2l-1-4c0-2-1-3-2-3v1c1 1 1 1-1 1-2-1-3 0-5 2-3 2-3 2-5 0-1-1-1-1-1 1 1 2-1 4-2 2-2-1-1-4 1-4l1-1c-2-2-3-1-4 2-2 3-3 3-4 0l-2-4-2-4c-1-6-3-5-3 2 0 5-2 8-5 8-2 0-3-3-1-5 1-1 1-1-1-1h-4c0-1-1-1-2 1h-9c0 2-3 1-3-1-1-2-1-4 1-4v-1h-7c-2 0-3 0-4 2-1 1-2 1-6-1l-2-2h2l15-8h5l3-1c0-2 1-2 4-2l3 1 3 1 2-1c0-2 6-3 8-1 1 2 4 1 4-1s0-2-4-2l-27 2H88l2-3 1-4 2-4v-2l-1-1h2c2 2 2 2 2 0l-2-2 2-1h10c1 1 2 1 3-1l7-1a801 801 0 0047-4c-4-1-7-2-4-2l-1-7-1-6h1l-1-1-1-4c0-3 0-4 1-3 1 2 1 2 2 0s1-2 3-1h2l1 2 1 3 1-2c0-2 0-2 1-1h1l2-3c4-1 4-5 0-5-5 0 21-5 30-5l8-1 11-1c18 0 21-1 22-2 3-2 1-4-2-4l-7-1-15-2c-10 0-11-1-3-3 3-1 3-1-2-1l-5-3-3-1c-3 0-5-2-3-3 1-2 3-1 3 1v1l2-3c0-3 5-4 5-2l2 1 1-1-1-1 3-1c4-1 6-2 7-1h1l4-4c3-1 3-2 3-7 0-7-2-9-9-10-8 0-12-1-13-2h4l64-3h15l2-4 1-6 1-2h-42l-43 1c-1 0-2 1-2 3s0 3-2 2l-1-2V3c-1 0-2 1-1 4 0 2 0 3-1 2s-2 0-3 1c-2 2-2 2-2-3 0-8 3-7-42-7a923 923 0 00-47 1L56 0H0v134M182 16l-7 1c-1 1-5 2-15 2l-20 3 2 1 3 1c2 0 2 0-1 1l-3 1 3 1 2 1 2 1 4 2 6 3 4 2 20 6c11 2 11 3 11 0s-2-4-5-4c-4 0-7-4-7-9 0-7 3-10 8-10l3-1h2c2 0 2 0 1-1l-4-2-9 1m208 31c1 1 1 1-1 1-2-1-7 2-22 12-18 13-20 14-20 17s-1 4-2 4c-3 0-6 3-6 5l-1 1c-1-1-1 0-1 1s0 2-1 1l-3 1c-1 2-1 2 1 2l3-1c0-2 2-1 2 1s2 0 3-3c0-4 4-7 5-5v7c-1 3-1 4 1 4l2 1-1 1c-3 0 2 2 4 2 4 0 7 1 10 4 2 2 2 2 3 1 2-1 2-1 2 1l2 3v8c-1 1 3 9 5 9v-13l4-2h4l3 1c2 0 7 5 6 6 0 2 4 1 5 0s1-2-1-2v-2c2-1 2-12 0-38a1543 1543 0 01-5-29c-1 0-2 0-1 1M30 131c-4 1-6 4-6 10s1 7 5 8c3 1 10-1 10-3h-1c-2 0-2-1-2-4 0-5 1-5 3-5 3 1 3 0-1-3-3-3-3-3-4-1-1 1-2 2-3 1-2 0-3-2-1-2l3-1h-3m47 6l-2 6v6c0 4 0 5-4 8-3 3-4 5-4 7 0 3 0 3 2 2l5-2c3 0 5-1 5-4l1-4c2-1 2-2 0-4-1-2-1-2 3-2l3-1v-3c2 0 1-4 0-4l-2-3c0-3-2-5-4-5l-3 3m189 6c-2 5-1 9 2 11 2 1 3 3 2 3l1 1 1 1c-1 1 0 1 1 1l2-1c1-1 1 0 1 2l3 6 1-3v-8c-1 1-4-1-3-2l-2-1-3-4-3-2c-1 0-2 0-2-2l-1-2m116 9c5 3 8 8 8 14 2 7 5 10 8 7 5-3-11-24-18-24l2 3m-126 1l1 8c0 2 0 2-1 1h-3c-2 1-2 4 0 10 1 2 1 2 2 1l1-3c-1-2 4-1 5 0 2 2 3 2 3 1 2-2 1-5-1-7-3-2-4-5-2-6v-2h-1c1-2-1-5-3-5l-1 2m117 4c1 2 0 2-4 1-4 0-5 0-8 3-4 5-4 10 0 9 9-3 11-3 12-2 2 2 0 5-3 6l-3 2 5-1c5-3 8-4 6-2l2 1c4-1 0-14-5-17h-2m-48 17c0 5 3 11 6 12 3 2 10 2 10 1 2-2 0-6-2-6-3 1-5-2-2-3v-3h-3l-3-1c-3-3-6-3-6 0M85 190c0 2 4 7 6 8l4 2c3 2 5 1 5 0-1-2-1-2 6 1l7 2 2 2h3l2 3 2 1-1-2v-1c2-1-1-4-4-4-4 0-7-2-9-4l-2-1c0 2 0 2-2 1l-6-1c-4-2-7-4-6-6l-1-1h-6m113 26c-2 0-8 4-6 4l-1 3-3 6c0 2-5 9-12 17l-9 14-4 7h24l24-1-1-1-1-1c1-2-3-8-5-7-1 0-3-2-2-3l2-1c2 0 2 0 0-1-3 0-3-1-3-5l-2-11-3-6c0 3-2 0-2-4 0-5 1-8 3-5l1 1 1 2 1-3 1-5h-3m-10 23c-2 0-1 3 1 2 2 0 2 0 2 3l-2 3v-1c2-2 1-3-1-3s-3 1-3 2l-2 3c-2 1-2 1 0 2v1l-2 1h4c5 0 5 1 4 3v1l1-2 2-2c1 0 2-1 2-6s-1-6-2-6l-2-1h-2m-22 10l-10 10-3 5-2 3h4c3 0 4 0 4-2l5-7 2-5 1-3c2-2 2-2-1-1" fill="#d3d3d3" fill-rule="evenodd"/></svg>