<svg xmlns="http://www.w3.org/2000/svg" width="400" height="266"><path d="M0 133v133h37a305 305 0 0030-2c-7 0-8 0-8-2h-2l-3 1-1-1v-1l4-2h2l3-1 3 1c0 2 5 1 6 0v-3l-2-1 1-1 3-3c1-4 2-4 5-1 3 2 3 2 33 1 3 0 4 0 5-2l1-3 7-5c6-6 7-7 10-4 1 2 5 2 5 0l3-1c5-2 0-3-9-3h-12a458 458 0 00-53-2l43-1a756 756 0 0074-1c5 0 6 0 7 2 0 2-2 3-4 2h-5l-10 1 2 3c1 2 1 2-1 4-4 3-3 5 1 5l16-2c2 0 2-1 2-2-1-2-1-2 1-2 1 0 2 0 1 1l1 3c2 4 4 10 5 17v5h32c31 0 40-1 39-4v-8c0-4 1-6 2-7 2-2 1-5-4-9l-3-4c3 1 4-2 3-4-2-2-3-3-3-1l-2 3c-1 2-1 2-4 0l-3-3 3-4c1-1 3-3 5-3l5-5 2-3-3 10-1 2 5 3 5 2v-4c-1-4 0-7 1-6l1-2c0-1 0-2 1-1l1-1v-1c0 1 2 0 3-2l3-4 2-3 1 2c1 2 1 2 1-2l2-4v-1l1-2 1-3 3-6 2-7 2-2 1-1c1-2 3-1 3 3l1 4c2-3-1-24-4-24l-2-3c-2-10-11-18-24-21-2-1 0-1 3-1l10 3c4 2 17 15 17 17l1 10c2 7 2 11 1 17v8c1 0 1 1-2 6v2h2c1-1 1 0 1 1 0 3-3 7-7 10-2 2-6 9-6 12l5-4c5-5 5-5 2 1-3 5-4 7-2 6 1-1 1 0 1 2 0 3-9 13-10 11l-4 2-4 3v3l4 2h3c1 0 2 0 1 2-1 5 1 3 3-4l4-9 1-2v3l-2 8-2 7 3-3a598 598 0 0023-2l12-1 2-1 1-1-7-1h-7l3-1c5 0 8-1 8-2l1-2 1 1c-1 2 4 2 7 1h1c-1 1 0 2 4 1 5 0 5 0 5 2 0 3 1 3 9 3h21c14 1 14 1 14 3l-1 1v1c1 1 1 4-1 4h-4c-4 0-4 0-3 2 2 1 3 2 3 0v-1c2 0 3 3 1 5-2 1-2 1 0 1l3-1 2-1c1 1 1-14 1-132a5881 5881 0 00-2-100l-1 3-2 3c-3 2-4 1-4-4 0-3 0-4-2-4h-2l2-2 1-2 1-3 1-3-1-4-1-5V5l-1-2c0-1 0-2-1-1v8c0 5 1 6 2 7v2l-1 2-1 1-2 2-2 1v1c1 1 0 4-1 5l-2 4-1 4c0 1 2 2 3 1v-1l-1-2h1l2 1 1 3c0 2 0 2-2 2-1-1-2 0-2 1h-1c-2-2-2-2-3-1v2l-1 1h-3l-1 1c0 2-1 2-2 1l-3 1-2 1c-2-1-6 5-4 5v2h-1l-3-1c-2 0-2 0-1 2 2 4 2 4 0 4s-2 1-1 2c2 2 2 2-2 6l-6 5v2l-2 1-2-1h-3v-4l-2-1c-3 0-2 2 0 6l3 10-1 4-1-1v-3c-2-1-4 0-3 1l-6 6h-4c0-2-1-2-3-1l-3-1-1-2c-1 0-2 1-1 2l-1 2-2 2-1 2v2c2 2 2 3 1 3l-2-2c-1-2-1-2-3-1v4l2 1-1 1h-1l2 2v1c-2 2-2 4 0 3l1 1 2 1 2 1 3 2 2 1-4 1c-4 0-6 3-5 5v1c-1 1-2-2-2-4l-1-2-2-10-1-10-1-2c1-1 0-2-1-3l-2-4c0-5-3-9-5-7-1 2-5 2-5 0l-9 1-5 1h-3l-5 5-3 2c-1 2-2 2-4 1h-7c-5-1-6-8-1-8 2 0 2 0 2-2v-3c-1 0-2 0-1-1l-3-5c-3-4-4-4-8-4s-9 2-11 4l-4 2-4 1c-2 1-3 1-5-2-4-4-5-7-2-9l2-3-2-6c-2-6-3-7-1-7l1-1v-1c1-1 0-9-1-10l2-5v-6l2-4 2-10V7l-3 2-6 2-4 3-4 3-4 2c-1 1-1 1-2-1s-1-2 2-4c4-2 7-4 6-6h2V7c-1-1-1-1 2-2l3-3c1-2-4-2-109-2H0v133m332 93c-21 1-23 1-23 4a1047 1047 0 0091-4h-68M26 260l-1 3h13l7 1c6 0 7 0 7-2s-1-2-5-2l-6-1h-2c-2 2-7 2-9 0h-2c-1-1-2-1-2 1" fill="#d3d3d3" fill-rule="evenodd"/></svg>