<svg xmlns="http://www.w3.org/2000/svg" width="400" height="266"><path d="M0 67l1 66a903 903 0 0165-18c3 2 3 1-8-20-7-15-10-21-9-23l-3-8-3-7c1-2 15-4 16-3 2 1 10 0 11-1l3-1h5a348 348 0 0161-5c-2 0-2 1-1 2v3h16a15260 15260 0 0127-4c5 1 6 1 5-1 0-2 0-2 4-2l11 1h6l3 6c3 6 11 15 14 15l4 1a2223 2223 0 01143 4c26 2 22 3-7 4l-22 1-25 1c-63-2-74-2-74 0 1 2-1 4-3 2-5-4-18-7-18-3l14 29h3c2 0 3 1 1 2l-3 9c-3 9-4 9-2 0 2-7 3-7-1-7l-8 3c-7 4-9 2-9-7l-5-11-13-25c-8-15-11-19-14-17-3 0-3 0 3 11a294 294 0 0127 57c2 1 1 2-3 4a274 274 0 00-23 9l-25 10c-19 8-21 9-21 7l10-5c11-5 11-6 0-2-8 3-10 3-10 0l-2-3c-1-2-1-2 1-3v-4l-3-5-4-8-18-35c-15-30-16-31-19-31-8 0-7 12 4 28l3 5c0 2 6 15 8 16l1 4 1 3 1 3 2 3 1 3c-1 3 2 11 3 9 1-3 2-2 5 2l5 10c5 8 5 9 0 9l-6 3c-4 3-8 4-8 2l1-2c2 0 1-4 0-7-3-2-2-3 0-2h3l-3-1-2-2-1-1v2h-3c-2-2-2-4 0-4l4-2v-2l-1-2-1-2-2 3v2h-2l-1-2c1-2 0-2-3-2-4 1-8-3-4-4 1-1 0-1-2-1l-5-1h-1l-2-3c0-2-1-3-2-2h-1v-1c2-1-1-5-2-5l-4-3-4-4c-2 0-4-3-3-4 1-2-2-3-5-2-2 1-2 1-1 3v2l2 2c2 0 3 3 1 3l-2 1c-2 2-2 2 0 6l4 5v1l2 3 1 2 1 4c2 4 6 9 9 9v1l-3 3v3l-2-2c-2-4-3-3-1 0v4l-33 11-23 8-6 1c-6 1-7 2-3 4 2 1 4 0 7-1h5l2-1v-1l-2-1 3-1 2 1v1l2-1h7c1-2 20-2 20 0l6 1 16-2c10 0 14-1 36-11l15-5c3 0 0 2-8 5l-19 8 2 1c2 0 3 1 0 2-1 1 3 2 19 4 18 2 19 2 20 1l2-2c2 0 4-2 3-4-1-1 7-9 8-9l5-3c7-5 9-4 11 1 1 5 1 7-3 8l-6 3h-5c-1-1-1-1-3 1l-5 4c-3 1-3 3 1 3a1921 1921 0 0079 11h4v-6l2 1c1 9-2 18-6 18-2 0-3 1-3 3-2 4-1 5 5 5 7 1 9 3 6 4-6 2-1 8 10 12 24 10 22 9 36 9l15-1c2-1 7 3 5 4-3 4 1 5 15 5 10 0 12 1 12 2v6c-2 1-10 1-20-1a598 598 0 00-65-8 280 280 0 00-34-6 862 862 0 00-67-10 18691 18691 0 00113 21c18 3 29 4 30 3s3-1 9 1l32 7c10 2 11 2 11 4h-1l-8-1-8-2c-2-2-5-1-6 2 0 2-9 5-12 4h-3a1298 1298 0 0090 2l1-133V0h-47a393 393 0 00-49 1l-14-1h-13l2 3c2 4 0 6-3 4-2-1-4 0-3 1l1 5 2 2 4 1h2c1-2 4 0 5 5 0 3 0 3-2 2-2 0-3 0-4 2l-2 4c-1 3-1 3 1 5 2 1 2 3 2 8 0 6 0 7-2 7s-3 1-3 2-1 1-2-1c-2-3-2-6 0-6l2 2c1 2 1 1 1-2l-1-8-1-3v1l-1 2c-2 2-4 0-5-4-1-6-3-8-6-5h-2l-1 1c-1 1-1 1-2-1l-2-3-2 2-3 3-1-3-2-4c-1-2-1-2-1 0s-3 5-4 4l-1 1h-2l-2-2-1-2c0-4-3-7-6-5-2 2-2 2-4 0l-2-1-4 1c-4 0-4-3 0-4 2-1 4-5 3-7l-4 2-2 1V8l1-3 8-2c5 0 5 0 2 2l-2 2 2 1c2 1 2 1 3-1l1-2 1-1 2-2 4-1c1-1-12-1-37-1-37 0-38 0-36 2s2 4-2 5l-3 1-2 1-4 1c-1 1-1 1-1-2 0-2 1-3 3-4 2 0 3-2 3-2 0-2-9-2-81-2H0v67M247 1c2 1 2 6 1 8v1l1-1 1-1v1l1 1c2-1 2 0 2 2s0 2 1 1v-3c-2-3-1-6 1-8h7l2 3 1 3c0 1 0 2 1 1l2 1c1 1 1 1 2-1l-1-3V1c1-1-4-1-11-1-9 0-12 0-11 1m65 3l-2 3c-2 2-7 4-7 3l-3 1-2 2-1 4c-3 4-2 4 1 4 2-1 3 0 4 1 1 2 1 2 2 1 1-2 5-3 5-1 0 3-1 4-5 4-6 1-8 4-4 5l3 1 1 1 3 1 2 2v6c-2 3-3 8-2 10l3 5 1 4 1-4c1-3 2-4 4-4 2 1 3-7 0-10-3-4-5-9-5-12 0-2 0-2 1 1 1 4 2 5 4 2 3-3 4-4 1-7l-2-6c0-3-1-4-3-2l-3-1-4-2-1-2c0-3 2-3 4-1s4 3 4 1c0-4 3-2 3 1 0 2 0 3 1 2h1v-3l1-4c2-1 2-1-1-3l-3-3-1-2-1 2m-31 105l-3 2-1 1c1 2 3 2 17 3a890 890 0 0152 2l6-1c7 1 18 0 14-1-2-1-2-1 1-1 6 0 4-2-2-2-2 0-4 0-3-1l-1-1-2 2c0 2-5 3-6 1s-17-4-41-5a816 816 0 01-31 1M94 129l-1 1h-1l2 2 1 3h-3c-1-2-1-2-2-1-1 2-2 2-3 1-2-2-4-2-4 0l4 2 3 1 1 2c2 3 5 1 5-3 0-3 1-4 3-2h3c1-1 1-2-1-3l-3-3-2-1-2 1m116 4c-6 6-3 15 3 9 3-3 6-9 6-11 0-4-6-2-9 2m-109 7l-1 1-2 2-2 1c-3 0-4 3-2 4 3 2 1 3-2 1l-4-1c-3 1-3 3 0 3l4 3h9c1 1 2-1 1-4l3 2c3 3 6 4 6 1l-1-3v-1l-4-6-5-3m100 5l-6 1-5 2-4 2-3 4c-3 8 7 12 14 6l4-2c1 1 3-2 4-8 0-6 0-7-4-5m113 15c5 12 7 24 6 33-2 12-1 13 9 15 11 3 11 3 15 10 2 4 4 6 5 5l1 1v1c1 1 0 8-2 10v7l4-1c3-1 4-1 3-3l-3-1-1-1c0-2 1-2 5-2l1-2c0-1 1-3 3-3l2-4 1-2 1-1c-1-1 1-2 7-3l4-1h3l2-2 1-1v7c2 0 7-4 5-4v-1c2-2 2-5-1-6l-2-1 2-1c4 1 2 0-3-2s-5-4-2-10c2-5 2-5 0-5-1-1-1-1 1-1s3-2 6-8c3-8 3-10-1-9-3 1-5 4-12 14-3 5-5 7-6 6l-1 1c1 2 0 2-3 2s-5 1-7 3c-3 2-3 2-7 1l-9-1-7-1c-1-1-4-2-6-1-4 0-5-1-2-3 4-3 4-6 4-20l1-14-6-2c-8-2-11-1-11 1m28 3c-1 7 0 24 2 25 2 2 2 1 2-5l1-14c0-7 0-7-2-7l-3 1m-83 26l-5 8-2 4 2 2c2 2 10 4 12 2 2-1 0-13-2-14l-1-3c0-3-1-3-4 1M1 230v36h33c32 0 33 0 32-2 0-1-1-2-3-2l-3-2 5-2 1-1c0-1-1-2-5-2s-5 0-6-2l-1-1-3-2c-4-4-6-6-8-5l-2-1h2l1-1-1-1-2-1h3l3-1-1-1h-3c-3-2-3-2-3 0 0 1-1 1-3-1s-2-2-3 0h-3l-1-1-1-2v-1c1 1 2 0 2-1 1-1 5-2 5 0h1c3-1-5-8-9-7-4 0-4-2 0-3 5 0 5-2 0-2-4 1-6 0-3-1 1-1 0-1-1-1-2 0-3 1-3 2l-3 1v-1c2-1 2-2 0-3-1-2-1-2-2-1h-2l-1-1-1-2c0-1 0-2-2-2l-2-1H5c-1-1 1-5 3-4l1-1-1-1-1-2h11a139 139 0 0019 3l8 2 9 1c20 4 22 4 18 1l-11-3a2377 2377 0 01-58-13c-2 0-2 1-2 36" fill="#d3d3d3" fill-rule="evenodd"/></svg>