<svg xmlns="http://www.w3.org/2000/svg" width="400" height="225"><path d="M0 31v31h163v17h-41c-35 0-41 0-41 2l41 1 40 1 1 13v14h-50l-49 1c0 2 6 2 49 2l49 1v14l1 14H81c-71 0-81 0-81 2l81 1h81v25a2052 2052 0 01-159 1H0v54h400l1-113V0H0v31m26 2l-1 10v9h37V33l-18-1-18 1m59 0v10l1 9h69V33l-35-1-35 1m126 12v7h37V38l-19-1h-18v8M89 39l1 3c2 1 2 2 0 2l5 1 6-1 1-3 1 2c-1 4 1 5 4 3l7-1c4 0 4 0 4-3 0-2 0-2-4-2l-5-1h-1l-6 1c-4 0-5 0-5 2l-1 3v-3c0-2-2-3-2-1h-2v-1l2-1h-5m193 13v6h26V47l-13-1h-13v6M174 69v9h11l-1-4c0-5 2-8 5-6l2 4-1 4-1 1c-1 1 8 1 75 1h76V62l-83-1h-83v8M1 81l28 1 28-1c0-2-4-2-28-2S1 79 1 81m190 0h-17v22h16l17-1v-2l-2-3c-1-7 8-11 14-7 1 1 2 9 0 10-3 1-1 3 3 3 3 0 4 0 3-1-2 0-1-2 1-2 2-1 2-1 0-1l-2-1v-3c-2-1 0-2 4-2h4v4c-1 4-1 5-3 5l54 1h57V92l-1-11H191m165 14c-8 2-9 2-8 7l3 4c1-1 1-1 0 0l-1 2h9l1 4c1 5 4 6 2 1-1-6-1-6 4-7 4-1 4-1 4-3l-2-6c0-5-1-5-12-2m-182 21v11h13c14 0 17-1 14-2-4-3 3-11 10-12h5c1-1 6 0 7 1l1 8v2c1 3 2 3 7 3s8-3 9-8l1-3 2-2c0-1 1-2 3-2 3 0 3 5-1 6l-1 1 1 1-2 1h-2l-2 4-2 2h35v-3l-1-4c-4-3-1-4 19-4h19v-3c0-4 1-5 3-4v3c-2 0-2 1 0 3l15 1h13v-9l-61-1-64 1c-2 0-2 1-2 3v2c-1 0-2-1-2-3l1-2-19-1h-19v10m-161-6c-10 0-12 0-12 2l19 1 20-1c0-2-9-3-27-2m161 31v10h18l18-1-2-10c-2-9-2-9-5-9h-29v10m50-9l1 10 1 9h46v-20h-24l-24 1m-123 3v5h8c8 0 10-2 5-3-2-1-2-1 0-1l2-2c0-2-2-3-2-1h-2c-1-2-2-2-6-2h-5v4m73 27v9h46v12l1 11c1 0 2-3 2-11l1-12h48v-16h-23c-26-1-24-1-24 8 0 5 0 5-3 5h-3v-7c0-11-3-8-3 4 0 4-1 5-3 5h-3v-15l-18-1h-18v8m109-6c-2 3-1 15 0 16l12 1h11v-18c-2-2-23-1-23 1" fill="#d3d3d3" fill-rule="evenodd"/></svg>