<svg xmlns="http://www.w3.org/2000/svg" width="400" height="225"><path d="M0 113v112h401V0H0v113m84-88l-2 2v1l1 85c0 78 0 85 2 86l3-1h36c2 2 6 0 5-2l1-2c2 0 3-2 1-2v-3c0-2 18-2 18 1l2 1 1-1c0-3 4-2 7 1s6 4 3 1v-37h8l8-1-8-1h-8v-6l1-6h5c4 0 5 0 5-2s-1-2-7-4l-5-1 2-1c10 3 14 4 14 1-1-5-19-7-26-4-1 1-2 1-3-1l-3-4-2-3-3 3-3 4-4 2h-3V82l-1-52-1-2h51l53 1 1 17v16l-3 1c-3 2-5 5-6 10l-1 3h19l1-2c0-3-3-8-6-10l-3-1V29a1411 1411 0 01-18-2 435 435 0 01-91-2c-2 2-4 3-4 1l-1-2-2 2-2 1-2-1-1-2-2 2-2 1-2-1-2-2-1 2-1 1-2-1-2-2-2 2-2 1-1-1-1-2-2 2-1 1-2-1c-1-2-4-2-4-1m165 13v32l1 31h25l26-1c0-2-3-2-25-2h-25V88c0-10 0-11 2-11s2 1 2 5l1 5V77h44v3c0 12 2-7 2-23V38l-26-1-27 1m-68 21v26l2-2 5-1 4 1c1 2 4 2 12 2h10V59l-17-1-16 1m6 13v6h18c2 0 3 0 3-6v-7h-21v7m-27 3c-3 2-4 13-2 17 1 1 1 1 1-3v-5h5c4 1 5 1 5 4 0 4-3 7-7 7-2-1-2-1-1 1h5c4-2 4-4 4-12 0-6 0-6-3-9-3-4-4-4-7 0m39 28c-2 0-1 9 1 10l1 7 1 6h33v7h-19l-20-1-1-2c-1 0-3 13-3 20v5h70v31h10l11 1h-11c-9 0-10 0-10 2l11 1h11v-35c2-1 8 1 9 3 0 2 0 2 1 0l1-3-1-4c-1-2-1-2-1 0l-1 3c-1 0-2-2-2-7-1-7 0-8 1-5 3 3 4 0 4-7l-1-6-1-2 1-1v-4l1-5c1-2 1 0 1 18l1 14h8l9 1v-9c1-11 1-11-6-11-4 1-5 1-5-1l-1-5 1-3h2l-1-4-2-4-1 4c-1 4-1 4-1-3s0-7-2-6c-4 1-8 12-9 23l-1 9c-3 0-4-1-4-10s0-9 3-9l2-1c0-1-35-2-42-1-8 1-4 2 6 2h9v16h-4l-12-1h-8v-14l-1-14-1 8-1 7-2-1c0-1-5-2-19-2h-11v-15l4-1 15 1h10v6l1 9c1 1 1-2 1-8v-9l-17-1-18 1m-5 72l1 10 2-2c0-2 1-2 19-2s19 0 19 2l2 2 1-10v-10h-44v10m2-3v3h39v-7h-39v4" fill="#d3d3d3" fill-rule="evenodd"/></svg>