<svg xmlns="http://www.w3.org/2000/svg" width="400" height="225"><path d="M0 113v112h401V0H0v113m127-85c-2 2-2 3-2 10v8h-5c-6 0-7 2-7 13 0 7 0 8 3 9l4 5 2 5c1 3 0 6-4 8-2 1-2 1-1-2 0-2-2-9-5-12l-10 6c0 2 3 9 5 10 3 0 3 1-1 5-2 5-2 6 3 6 4 0 6-2 3-6-2-3-2-3-1-5 3-2 4-1 4 3l1 4 2 4c1 4 1 5-1 7l-1 10v8l-5-4c-5-4-8-9-9-15l-2-6-1-3h-2l-6 1-6 1v28h2c4 0 4 2 1 2-5 0-5 0-5 31l1 30h6l8 1h12c2 4 3-2 3-21 1-22 3-38 4-37l1 6c-1 7 1 10 3 6v-5l-1-5v-3h32v11h-8c-7 0-10 2-7 4 2 0 2 3 2 21s0 21 2 21l1 2v2l2-2c0-1 0-2 4-2h5v-44h3c4 0 4 0 3 3l-2 36v5h8v-22l-1-22h3c2 0 3 1 3 2v22l-1 20h37c37 0 38 0 38 2l1 2c1 0 2-1 1-2 0-1 0-2 2-2 2-1 2-2 2-6v-6h67l2-2v-32l-1-34-38-1-35 1-1 3c0 4-1 4-2 3l-1-3c1-1-8-4-10-3l2 5c2 5 4 6 6 2 1-4 5 3 5 10 0 5 0 6-5 10l-5 3-2 2-2 2-1-9-1-10-1 2h-3l-3-2c-2 0-3-1-3-2l-1-1-2 1-2 2-1-2c0-1 0-2-2-2s-2 0-2 2c1 2 0 2-2 2s-3 0-2 2l-1 1-1-1-1-2-1 10v9h-9c-9 0-10 0-10-2s1-2 7-2h7v-29l-8-1h-7l-3-6c-4-10-9-11-11-1-3 8-3 8-6 0-2-7-2-8-4-7h-2V57l4 2c2 3 7 5 9 5l-1-3c-3-3-3-4 0-4l5-2c2-3 2-4 2-14 0-16 1-15-24-15-19 0-20 0-22 2m113 28c-2 1-1 21 1 21 3 2 18 1 19 0 2-2 1-21-1-21h-19m92 1c-8 3-11 8-11 18 1 12 6 16 18 16 9-1 9-1 9-11v-8h-6c-7 0-7 0-7 2s1 3 3 3c3 0 4 1 4 4s-1 4-4 4c-7 0-10-3-10-12 0-8 8-13 15-10 3 1 3 1 4-2s1-3-4-4h-11m-51 17v17h9c10-1 13-2 15-7 1-4 0-8-3-10-2-1-2-1 1-3 3-4 3-7 0-11-3-2-3-3-12-3h-10v17m29 0v17h7V57h-7v17m-153 2v7l4 5c2 0 2 1 1 2-1 3-1 5 1 5l1-4 2-4c4-1 6-6 5-11-1-3-2-3-7-3s-5 0-7 3m-58 42l-2 8h10l10 1-6-3c-5-4-8-8-10-12l-2 6" fill="#d3d3d3" fill-rule="evenodd"/></svg>