<svg xmlns="http://www.w3.org/2000/svg" width="400" height="225"><path d="M0 113v112h401V0H0v113m104-79a81 81 0 00-58 103l7-2 7-2 4 8c4 8 10 16 16 21l4 3 5-6 4-7 3 2c4 3 13 6 20 7h6v-15l-5-1c-8-1-15-5-19-10-18-18-7-52 18-55h6V33h-6l-12 1m185 50l1 29-1-8-1-15v-7l-3 12c-4 16-4 16-9 3l-4-11v9c0 9 0 9 3 10l2 2h-2c-3-1-7 0-8 3l-1 3v-3l3-4 2-2-1-12c0-11 0-12-2-11l-7 1h-6l-4 6-6 10-5 8-5 10-3 6 12 20 11 20h46l12-20 11-20-3-5-5-11-5-10-7-9c-2-3-4-5-8-6-8-3-8-3-7 2m-24 40l-6 7 20 16 4-3c1-1 2-3 4-3 2-1 2-2 2-3-1-1 0-2 1-3l1-2-20-15-6 6" fill="#d3d3d3" fill-rule="evenodd"/></svg>