<svg xmlns="http://www.w3.org/2000/svg" width="400" height="225"><path d="M298 24c-30 4-31 4-34 6-5 5-5 3-5 84 0 75 0 75 2 80l4 5c2 2 56 9 62 9 3 0 6-3 9-8a2061 2061 0 00-3-176l-4-1c-4-2-4-2-31 1m16 5c0 3-3 5-12 6l-7 1v3l-1 6c-2 3-2 4 1 7l3 3 2-2c2-2 2-3 0-5-2-6-1-11 3-11 3 0 5 4 4 7 0 3 2 5 5 5 4 0 7 2 9 6l1 3 1-3v-5c-4-1-9-10-9-13l2-6v-4l-2 2M66 74v12h7c11 0 18-6 16-14-1-7-5-9-15-10h-8v12m48-9l-1 3-2 3 2 2 1 5c0 6 2 8 7 8 4 0 5 0 4-4l-2-2c-1 0-2 0-2-3s0-4 2-4c3-1 3-4 0-5-1 0-2-1-2-3s0-2-3-2c-4 0-4 0-4 2m-19 3l-2 1v3l4 1 5 1-4 1c-4 0-7 2-7 5 0 4 3 6 11 6h7v-8c0-7 0-8-2-9-2-2-8-2-12-1m34 0l-1 9v9h7V67h-3l-3 1m10 0v10l1 8h6v-5c0-5 2-9 4-8s2 2 2 7v6h7v-7c0-7 0-8-2-10s-7-3-9-1h-9m25 1c-6 6-1 18 7 15 3-1 3-1 3 1 0 1-2 2-5 2-5 0-7 1-7 3s8 3 11 3c6-2 8-5 8-16V67h-3l-4 1h-1c-2-2-7-1-9 1m-91 5v6h3c5 0 6-2 6-6s-1-6-6-6h-3v6m-5 25l1 8c2 12 2 11 6 11 3 0 3-1 8-9 6-11 6-10 2-10s-4 0-6 5c-3 7-4 7-4 1 0-5-1-6-4-6h-3m21 5l-2 9v5h7l1-8 2-9c0-2-1-2-3-2-4 0-4 0-5 5m15-4c-2 0-3 1-3 3s0 2 4 2l5 1-4 1c-6 0-9 2-9 6s2 5 10 5h8l1-6 1-8c0-4-6-6-13-4m25 1l-3 16 3 1c4 0 4 0 4-5 1-6 3-9 5-8s2 3 0 11c0 2 0 2 3 2 4 0 4 0 5-5 2-10 7-11 5-1v6h3c3 0 3-1 5-7 1-6 1-8-1-10-1-2-6-3-8-1s-3 1-5 0h-9l-3-1c-3 0-4 0-4 2m33-1l2 9c2 9 2 10-2 10-3 1-5 4-3 5 2 2 7 1 9-1l15-23-3-1c-3 0-4 0-6 5-3 6-3 6-5 0 0-4-1-5-4-5l-3 1m127 6c-3 2-4 3-4 7v3h-23v37c0 38 0 38 2 40 2 3 4 3 31 6l30 3c5-1 5-3 5-46v-40h-26l-1-4-1-5c-2-1-11-2-13-1m-173 25l-1 2-1 2 1 2 1 4c0 4 1 6 6 6 4 0 5-3 1-4l-2-3c0-2 1-3 2-3l2-2-2-2-2-2-2-2c-2 0-3 1-3 2m43 0l-1 2-1 2 1 2 1 4c0 4 1 6 5 6s5-2 2-4-3-6 0-6l2-2-2-2-2-2-2-2c-2 0-3 1-3 2m-91 3c-6 4-3 13 4 13 4 0 8-3 5-4h-3c-2 0-3 0-3-2-1-3 0-4 2-4 4 1 7-1 5-3-3-2-7-2-10 0m15 0c-5 2-5 9 0 12 6 3 12 0 12-6 0-7-6-10-12-6m14-1v8c0 5 1 6 3 6 3 0 3 0 3-5 0-3 1-4 2-4s2 1 2 4c0 5 0 5 3 5 2 0 3-1 3-3 1-8-3-14-8-11h-8m32 0c-3 1-2 4 2 3l3 1c1 1 0 1-2 1-3 0-6 2-6 5s2 4 9 4h6l-1-6-1-7c-1-2-7-2-10-1m17 0c-4 2-5 7-2 11 2 3 7 4 11 2v-3c-2-2-3-2-4-1-1 2-3 0-3-3 0-2 0-2 3-2 4 1 6-1 3-3s-4-2-8-1m26 0c-4 2-2 7 2 8l4 2h-4c-4-1-6 1-4 3 4 3 12 0 12-3 0-2-3-5-5-5l-2-1 3-1h3c1-3-6-5-9-3m96 24v8c2 1 40 5 52 5 4 0 5-6 2-9a376 376 0 00-54-4" fill="#d3d3d3" fill-rule="evenodd"/></svg>