<svg xmlns="http://www.w3.org/2000/svg" width="400" height="225"><path d="M224 37c0 4 0 5 2 5 1 0 2-1 2-4 0-2 1-3 2-3s2 1 2 3c0 3 1 4 2 4l1-4c1-5 3-5 4 0 0 3 1 4 2 4 1-1 2-6 1-9-1-2-6-3-7-1h-1l-6-1h-4v6m-23 51c-2 2-3 4-3 7 0 5-1 5-4 5h-5c-3-2-8-1-8 1l8 1c8 0 9 0 13 2l4 2 1 1 2 1 1-1 2-2 1-1c-1-2 0-1 2 1l7 1c7 0 14 2 14 4h2c2-2 2-2 2 0 1 1 1-1 1-5 0-6 0-6-2-6-4 2-28 2-28 1l1-2c2-1 0-8-2-10-3-3-6-2-9 0m64 5l-4 4c-2 3-3 4-3 62v59l4-4c3-3 3-4 4-13l2-13c2-6 3-16 1-16-1-1-1-7 1-10s3-1 3 5l1 6 1 3 1 4c1 0 7-10 7-13 0-2 0-2 1-1l4 1c2-1 2-1 1 2l1 11v13c-1 7-1 8 1 4l2-3v5c0 5-1 5-3 6l-5 3c-3 2-4-3-4-11v-8c-2-3-2 6-1 13l1 8c0 2 0 2 2 1 3-2 6-3 6-1l-14 12-5 3h72v-61c0-65 0-66-5-69-3-2-4-3-36-3l-36 1m-76 14l-7 3c-1 0-2 0-1 1 3 0 0 4-3 4l-8 2-9 2c-4 0-3 2 0 3l3 1h-3l-2 1-1 22a145 145 0 001 26v51c0 2 1 2 12 2h13l-4-2-3-2 5-3c3-2 4-2 3-3v-3c2-1 2-2 1-3l-2 1c-1 2-4-1-4-4 0-2-1-3-3-1l-2 1h-1l-2 2c-1 2 0 7 3 7l1 1-4 1-2 1-1 1-1-2c0-2 0-2-2-1s-5-2-3-3v-3c0-4 2-8 4-8v-1l-1-3-1-2v-1l2-1v-2l-1-1h2l1-1 2-3 2-1h1l1 3c0 2 0 2-2 2-4 0-5 5-1 5l3 1c1 1 1 0 1-2l1-3c1 0 2 0 2 2h2c1-2 3 0 3 4h-1c0-3-4-3-4 0 1 2 3 4 4 3 1 0 2 1 1 2 0 3 0 3 2 3s3 2 2 4l1 1-1 2c-2 2-2 2 0 2l2 2-1 2-1 1-2 3c-1 2 1 2 27 2h28v-4l-1-17h-2l-1 2-4 1-4 1-1 2c1 1 0 2-1 2-1 1-3-8-2-9l9-1 8-1v-24c0-31 0-30-5-30-4 1-9 0-9-2s3-2 4-1h4l3 1c2 1 2 1 2-1 0-3 0-3-5-3-3 1-5 0-6-1s-1-1 1-1l2-1 2-1c4 0 6-1 6-3h-5c-5 0-7-1-6-4h3l3-1 3-1c2 0 3-1 3-6 0-6-1-7-4-6-3 0-4 4-1 5h-2c-5 0-9 1-6 3 2 1-1 3-3 2h-8c-1-1-1-2 1-2h4c0-2-3-3-5-2l-2-2-2-2-1 1 1 3 2 5v5c-4 2-5 1-5-2 0-6 0-7-1-6l-2-1c-2-2-3-1-3 1s0 2-1 1l-1-3-2-1-2-2c-1-3-1-2-1 2l-1 3c-3-2-5 1-2 3l2 1c-1-2 0-3 2-1s1 3-1 4c-3 1-4 4-2 6v1l-1-1h-2l1 3 1 2-2-1c-1-1-2 0-3 3-2 2-3 4-5 4l-1 2c0 2-3 3-5 2-3-1-3-2 3-7l7-10 2-5 1-7c1-5 2-7 5-10l4-5c0-2-5-5-7-5l-5 4m176 15c-7 3-7 5-8 23-1 21-1 21 3 21s9 6 7 7c-3 2-2 4 0 5 3 1 4 3 4 5h-1l-3-2-3-3c-1-3-2-4-4-5-3-1-3-1-3 5l2 1c2 0 3 0 2 3h-3c-1-1-1 0-1 1l1 4v2l-1 18v18h7c8 0 13-1 13-3h-1c-2 0-2-1-1-3v-1l-1-1v-1l-2-4c-2-3-1-4 3-3l1-1c0-2 1-1 3 0 2 2 3 5 2 8v8c-1 1 0 1 5 1 4 0 6 0 5-1v-2l1-2 1 2c1 2 6 3 7 2V121h-17l-18 1m-301 9h-6v8c0 6 1 8 2 7l1 3-2 9c-2 11 0 33 3 34s5 1 5-1v-1c1 0 2-1 1-3l1-3 1-2c0-3 4 7 5 12 0 6 2 8 7 8l4 2 3 1 1 2c3 12 3 15 2 16 0 2 2 2 20 2h20v-8c-1-8 0-9 1-7 2 2 4 1 6-3 3-6 3-51 0-53l-1-2 2 1 2-9c0-5-1-7-3-6-2 0-3 1-2 2l-2 1-3-1c-1-3-4-2-4 0h-2c-1 1-14 2-15 1h-1l-1-2c-1-4-4-4-7-1l-2 2-1-3c0-2-1-3-2-3-1 1-1 1 0 0l-1-1h-1c-1-2-7-1-9 1l-4 2c-2 1-2 2-2 4l-1 3-1-2h-1c-1 1-1 2 1 3 2 2 2 3 1 5-1 1-1 1-2-2-2-3-4-4-9-4-4 0-4 0-1-1l3-1h-3l-3-2-2-1-1-1 7-1h5c0-1 1-2 3-2 2-2 2-2 0-2l-2-1H64m159 11l-2 1-2 1c-1 1-2 2-1 3 0 2 0 2-1 1l-3-2-2-1c-2 0-4 3-4 7-1 3-1 3-4 4-10 0-4 7 7 8 8 0 8 0 11-3 2-2 3-4 3-7a104 104 0 011-13l-3 1M1 154l2 8 4 3c5 2 5 2 3-5-1-6-4-11-7-12-2-1-2-1-2 6m104 2c-2 4-5 5-7 3l-3-2v9h2v1c-2 2 1 5 7 7 5 1 5 2 4-8l-1-10v-3l-2 3m80-2l-3 1h-3c-2 0-6 10-7 18 0 4 0 5-3 4l-3-1c-1-1-1 0-1 2 0 3 2 4 2 2l2-2c2 0 2 0 0 2v2h2c1 0 2 1 1 2l1 1 1-3 2-1 1 1 2 1c2-1 8 2 8 4 1 1 0 3-1 4-1 2-1 3 1 4l3 2c2-1 4 3 2 5l1 2c2 1 2 2 0 5h-1v-2l-1 2c-1 2 2 3 4 0l4-1 2-1-2-1c-3 1-3 1-2-2l3-7c0-4 1-5 2-5v-2c-1-1-2-5-1-12l-1-10h-3l-2 2-3 1 2-2-2-3c-3-2-4-3-3-5s2-2 3-1 1 1 1-1-1-3-3-4l-2-1h-3M39 176c0 1-4 7-6 7l-2 2-8 2-5 1h12l-2 3c-1 3-2 3-7 3-14 0-20 1-20 5 0 2 0 2 3 1h3l-3 3-3 4c0 3 3 1 5-4 2-4 3-5 14-6l7-1 4-5c2-1 3-3 2-3v-2l3-2c4 1 6-3 4-7 0-2-2-3-1-1m74 12l2 6 1 6 3 5 2 5 9-3-1-1c-2 1-2 1-1-1l-1-2-2-1-3-1h-2c2-1 2-2-1-5-2-3-2-4-1-6 2-2 0-4-3-4-2 0-2 0-2 2m-73 2v6l3 3-2 3-3 4c0 1-2 2-8 3l-11 2c-4 1-5 1-6-1s-1-1-1 3v5H8l-5-2c-2 0-2 1-2 4v5h14c13 0 14 0 14-2h1c1 2 2 1 1-3l1-3 4-1 7-1c3 0 3 0 3-2s0-3-1-2l-1-9c0-12-1-15-4-12" fill="#d3d3d3" fill-rule="evenodd"/></svg>