<svg xmlns="http://www.w3.org/2000/svg" width="400" height="225"><path d="M0 113v112h401V0h-25c-24 0-26 0-26 2-1 1-2 8-2 17a261 261 0 01-2 24c-1 6-18 10-22 6l-5-3c-2-1-5-7-8-18-3-13-6-18-11-21l-5-5c0-2-1-2-7-2h-7v4l-2 7c-3 3-9 16-10 23 0 5-3 10-7 11l-4 3-3 1-2-21c0-10-1-17-2-14l-1 22c-1 23-2 26-5 26l-4 1c-3 0-5-5-6-15-1-7-2-8-2-4 0 14-1 19-4 20-3 2-5 6-6 12 0 4-1 5-2 5-2 0-2-1-2-5v-5l-2 4c-3 5-5 5-8 0l-2-4v5c0 4 0 5-2 5s-2-1-2-9c0-9 0-9 3-9 2 0 2 1 4 5 3 5 3 5 6 0l3-5c3 0 4-8 1-11l-2-24-1-5-1 15-1 15-2 4c-1 2-51 3-54 0l-6-3-4-1 1-5c0-4-1-11-4-19-1-4-3-5-3-1 0 2 0 2-2 0l-7-3c-5 0-5 0-5-3l-1-3v6h-16v-4c-1-3-1-3-2-2v4c0 2 0 2-4 2h-5V0H0v113m66-83c-5 2-5 2-5 52v47l-4-1-10-2c-7-2-7-2-3 3 3 4 4 6 4 10l1 7h12v23a208 208 0 002 25c0-1 5-1 5 1h-1l-2 1c-2 3 3 3 36 3h33l2-2 3-3v-40l1-80c-1-47 0-44-11-45-6 0-6 0-7 3s-4 4-21 4-21-1-22-4-2-3-6-3l-7 1m251 34l-2 3-1 1-1 2 1 1 1 5c0 5 0 5 2 5s3-1 3-5 1-5 2-5l1-1-1-2-2-1 2-1 1-2c0-2-4-3-6 0m-90 6c-3 3-3 6 0 9 3 2 7 3 9 1 3-2 2-4-2-3l-3-1c-1-1 0-1 3-1 5 0 5 0 5-2 0-6-8-8-12-3m15-2c-2 1 0 3 4 3h4l-4 1c-9 2-7 9 3 9h5v-5c0-4 0-6-2-7-2-2-8-3-10-1m14 0v7c0 5 1 6 3 6s2 0 2-5c0-4 1-4 3-4 1 0 2 0 2 4 0 5 0 5 2 5s3-1 3-4c0-7-2-9-8-10l-7 1m25 6c0 7 0 7 3 7 2 0 2 0 2-5 0-3 0-4 2-5s2 0 3 8l2 2c2 0 2-1 2-6 0-7-1-8-8-8h-6v7m17-5c-3 5 0 12 6 11 2-1 3-1 2 1l-4 1c-5-1-6 3-1 4 7 1 10-2 10-12v-7h-6c-4 0-5 1-7 2m26 3c0 7 1 9 9 9h5v-7c0-7 0-7-2-7-3 0-3 0-3 4l-1 5c-2 1-3 0-3-5 0-4 0-4-2-4-3 0-3 0-3 5M71 80c-7 1-9 8-5 13 6 5 15 1 15-7l-6-7-4 1m214 13l-1 2v2l1 5c0 4 6 8 8 5 1-1 0-3-2-3l-1-3c0-2 1-3 2-3l1-1-1-2-2-2-2-2c-2 0-3 1-3 2m-92 3c-4 5-1 12 5 12 4 0 7-2 6-4l-4-1c-3 0-3 0-3-2s0-2 3-2c4 0 5-2 2-4-2-2-6-1-9 1m14 0c-2 2-3 7 0 10 1 2 1 2-1 2l-3 1c-2 2 1 4 5 4 4-1 5-3 2-4-2-1-2-1 2-1 7 0 11-7 6-12-3-3-8-3-11 0m15 5v7h2c3 0 3 0 3-5 0-3 1-4 2-4s2 1 2 4c0 5 0 5 3 5 2 0 2 0 2-5 0-7-2-9-9-9h-5v7m17 0c0 6 0 7 2 7s2-1 2-4c0-4 2-7 4-6l1 6c0 4 0 4 3 4 2 0 2 0 2-5 0-8-5-12-9-8h-1l-2-1c-2 0-2 1-2 7m18-5c-5 3-2 12 5 12 3 0 5-1 5-3l-3-1c-2 1-3 0-4-1s-1-1 3-1c5 0 5 0 5-2 0-5-6-8-11-4m15 0c-5 5 0 14 7 11 4-1 3-3-1-3-3 0-3-1-3-3s0-2 3-2c4 0 5-2 3-4-3-2-7-1-9 1m33 0c-5 4-2 12 5 12 4 0 7-3 7-7 0-6-7-9-12-5m14-1v7c0 5 1 6 3 6s2 0 2-5c0-4 1-4 3-4 1 0 2 0 2 4 0 5 0 5 2 5 3-1 4-8 2-12-2-2-6-3-8-1h-6m18 1c-2 3-1 6 3 7l2 1-1 1-3-2c-2 0-3 3-2 4l5 1c7 0 8-5 2-8-4-2-4-3 0-2 3 0 5-2 3-3-3-2-8-1-9 1M66 107c-5 5-1 13 7 13 3 0 8-5 8-8s-2-6-4-6l-1-1c0-2-8-1-10 2m92 1c-8 1-8 1-6 5l8 3c10 2 13 1 17-2 4-2 4-2 6-1s2 1 3-1h9c2-2-1-3-10-4a1100 1100 0 01-27 0" fill="#d3d3d3" fill-rule="evenodd"/></svg>