<svg xmlns="http://www.w3.org/2000/svg" width="400" height="225"><path d="M139 2a899 899 0 0076 79l7 8-3 4-4 3-8-7c-8-8-11-10-15-9-3 1-47 43-49 46-1 3-1 7 1 10a729 729 0 0067 71c16 16 18 18 21 18 2 0 1-2-15-19l-18-18 20-20c19-18 20-19 23-18 4 0 7-2 6-6v-4c1-1 7 4 25 23 22 23 24 25 24 28s-1 5-15 19c-15 14-16 15-13 15s5-1 12-8l12-12 5-4 11 2a223 223 0 0029 6l1 1h1v1h1v1h1v1h1v1h1v1h1v1h1v1h1v1h1v1h1v1h1v1h1c-1 1-1 1 0 0h1c-2 2 1 4 5 4 3 0 3 0-17-21l-21-21 20-20c18-18 19-19 22-18 4 1 7-2 7-7-2-7 1-5 17 12l15 15v-19l-1-20-3 2c-4 3-15 8-17 8-1 0-15-13-31-30-36-37-32-35-49-20l-22 20-6-7-4-7 12-12c16-16 18-18 18-23s-1-6-18-23L256 9l-9-9h-8c-7 0-8 0-10 3-3 2-3 2-6 0l-3-2c0-2-14-1-16 1h-4l-1 2c-2 0-7 4-5 4l2-1h3c-1 2 0 3 2 3l3-1 3-2 6-1c2 0 2 0-2 4l-7 8c-2 5-4 7-4 5l-2-3c-2-2-6-2-6 0l1 2 1-1h1c-1 2 4 8 5 7 3-1 3 3 0 5-2 2-7 3-5 1l-1-1c-2 0-3 3-1 4 2 0 1 2-2 5-4 4-4 4-5 2-2-1-2-2-1-2l1-2h-2a275 275 0 01-36-36l2-2c1-2 1-2-5-2-7 0-7 0-6 2m144 1c-4 5-4 10 0 14l3 4 1 1h1v1h1v1h1v1l1 1c0 2 2 3 3 4 3 1 6 4 5 5l1 1h1v1h1v1h1v1h1v1h1v1h1v1h1v1h1v1h1v1h1v1h1v1h1v1h1v1h1v1h1v1h1v1h1v1h1v1h1v1l12 13h1l1 1v1h1v1h1v1h1v1h1v1h1v1h1v1h1v1h1v1h1v1h1v1h1v1h1v1h1v1h1v1h1l5 6 5 6 1 1h1v1h1v1h1v1h1v1h1v1h1v1h1v1h1v1h1v1h1v1h1v1h1v1h1v1h1v1h1v1h1c-1 0 1 3 4 5 4 4 5 5 9 5 6 0 12-5 12-10v-3l-4 4c-8 7-7 8-35-21l-24-25a844 844 0 0142-37c5 0 8-3 7-7-1-5 1-5 8 2 6 6 6 6 6 4 0-5-23-29-28-29h-2l3 4c5 5 5 5-3 5l-10 1h-5c-2-1 1-4 4-4l3 1-8-4-4-1c0-3-3-2-3 0-1 2-5 3-5 1 0-3-2-3-5-1-2 1-3 2-4 1l1-2c2-1-1-1-23-1h-26l-2 3m-40 3v3c2 4-1 7-6 7-3-1-4-1-23 18l-20 20 24 24c22 23 25 25 28 25 2 0 6-3 24-20 23-22 24-24 23-27a721 721 0 00-50-50m65 4l6 6 4 6-7-5-6-5 10 12v1l-7-5-8-7c-2 0-1 3 5 8l5 7c-1 1-2 0-4-2l-6-4-4-2c-1-1-4-2-4 0l17 19 18 18 2-3c2-2 2-2 3-1 1 2 3 3 3 1l1-2 1-1 1-2c2-2 2-2 0-2-3 1-3-5 1-6 6-2 5-14-2-20-4-4-5-5-7-2h-3c-1 1-2 1-4-1-4-1-4-1-3 1l-5-4-7-5m-60 37c-2 2-3 7 0 9 1 2 9 3 8 1l1-1c2-1 3-6 0-9-2-3-6-3-9 0M51 54l-1 9c0 8 0 8 3 8 2 0 2 0 2-3s0-3 4-3c5-1 6-4 0-4-3 0-4 0-4-2s1-2 4-2 4 0 4-2-1-2-6-2l-6 1m23 0l-1 9c0 8 0 8 2 8s3-1 3-5l1-4 3 4c5 8 7 7 7-4 0-8 0-8-2-8-1 0-2 0-2 4v5l-4-5c-4-5-6-6-7-4m19 8v9h4c9 0 14-4 12-11-1-4-5-7-12-7h-4v9m145-5c-3 3-2 13 1 11l1 1c2 2 8-3 8-7s-7-8-10-5m148 8c-2 2-2 9 0 11h3c2 2 2 2 5-1s4-5 1-8c-2-3-6-3-9-2m-159 2c-7 3-4 13 3 13s9-8 4-12c-3-2-3-2-7-1M49 79l3 6 3 8c0 2 0 3 2 3s2-1 2-3l3-8c4-6 4-7 1-7l-4 4-2 3-2-3c-2-4-6-5-6-3m20 2c-4 4-4 9 0 12 5 5 14 3 15-4 3-8-9-15-15-8m18 4c0 8 2 11 7 11 6 0 9-3 9-11 0-6-1-7-3-7s-2 0-2 7c0 6-1 7-3 7-3 0-4-1-4-8 0-5 0-6-2-6s-2 1-2 7m19 2c0 8 0 9 2 9l2-2c0-2 1-3 2-3l3 3 4 2c2 0 3-1 1-3s-2-3 0-4c3-6 0-10-9-11h-5v9m265-7c-4 4-1 12 4 12 6 0 10-8 6-12-3-3-8-3-10 0m-163 20v3c-1 2-3 2-4 0l-3-1c-2 0-2 0-1 1s1 2-1 2c-2 1 0 3 2 3l3 2c1 1 1 1 3-1l3-1-3 3-3 3-7-3-8-3-2-1c0-2-5 3-5 5l1 2 1 1-4 1c-4 0-5 0-5 2l1 2c7 1 6 0 7 5l1 5v4c-1 1-2 1 3 3 2 2 3 3 3 5s0 2 1 1h1c0 1 1 1 3-1l3-1-2 2-3 2 1 1 1 1c0 2-2 4-5 6l-6 5c-2 3-3 3-2 0v-6l-1-5c2-1 2-5 1-7-2-2-2-2-4 0-3 2-5 3-5 1l2-2 2-2-3-2c-3-4-6-2-4 2 1 3 1 3-1 2l-3-3c0-1 0-2-1-1l-2 1-2 1v7l2-2c4-2 6 0 3 3l-3 3-2-3c-2-2-2-2-2 0 0 3 7 8 8 6h2l1 1v-1l-1-2a47 47 0 004-1c2 0 1-2 0-2l-2-1c0-2 3-1 4 1 1 3-2 8-4 8s-2 0-1 1v1l6 8c6 6 6 6 8 5 3-3 3-2 2 1-2 4 4 10 6 8l3-2 3-2 5-4 3-3-6-8c-6-8-6-9-3-9l4-2h7l5 1c1-2-3-5-5-6-4 0-11-10-10-12l1-2-2 1c-1 1-2 2-3 1h-4l-2-1 1-2c1 1 2 0 2-1 1-1 0-2-1-2-2-2-4-1-4 1l-1 2c-2 0-1-6 1-10 3-4 3-4 7-5 3 0 4 0 3 1-3 0-2 2 0 2l2 1h1c2-1 2-1 4 2 2 2 2 4 0 2h-5l1 1 1 1h-7l2 2 3 2h1c1-1 1-1 2 1 0 2 1 3 2 3v-4l-1-4c0-1 3 3 3 5 0 4 4 7 8 7v-1c-2 0-1-3 1-3 1 0 2 0 1-1h-1l-5-2 4-2 3-2c0-2 10-1 11 1 2 1 2 1 3-3s-1-6-6-3c-2 2-3 2-4 1h-2l-4 2c-2 1-2 1-2-3l-2-2c-1-2-1-2 1-2l4-1c2-2 3-2 6 0l5 1-3-3c-2-3-3-3-6-2h-5v-2c2 1 4-3 3-5-2-3-7-5-7-3m-159 5c0 1 1 2 3 2s2 0 2 7c0 6 0 7 2 7s2-1 2-7v-7h3c2 0 3 0 3-2-1-3-15-3-15 0m17-1a489 489 0 002 17c2 0 2 0 2-2 0-4 3-4 5 0l4 2c2 0 2 0 1-3-2-2-2-2 0-5 3-6-1-10-10-10l-4 1m18 0l-1 6c0 7 3 11 8 11 6 0 8-3 8-11 0-6 0-7-2-7s-2 1-2 6c0 7-1 8-4 8-2 0-3-1-3-7s-2-9-4-6m19 0l-1 9v8h7c6 0 7 0 7-2s-1-2-4-2l-5-1c0-2 1-2 4-2s4 0 4-2-1-2-4-2l-4-1c0-2 1-2 5-2 3 0 4 0 4-2s-1-2-6-2l-7 1m130 22l-2 2-1 2c-2 1-2 2 1 6l2 4 3-3c5-5 5-6 2-9l-2-3-3 1m100 2v4l2 4c0 2 0 2-1 1-2-2-2-2-2 0-1 2-1 2-5-1-4-4-7-5-10-2-1 1-1 1 2 1 2-1 3 0 7 3 3 3 4 3 5 2h2l-1 2c-2 1-1 2 1 2 1 0 2 0 1-1 0-2 0-2 3-1l3-1 2-3c3-1 1-5-4-8l-5-2m-282 1l-1 9v8h6c5 0 6 0 6-2s-1-2-3-2h-4v-7c0-6-2-9-4-6m17 0c-5 2-7 10-2 14 8 8 21-3 14-11-3-3-8-5-12-3m15 0l3 9c3 7 3 8 6 8 2 0 2-1 5-8 4-9 4-10 1-10l-4 5c-2 8-3 8-5 1-1-4-2-6-4-6l-2 1m20 0l-1 9v8h7c6 0 7 0 7-2s-1-2-4-2l-5-1c0-2 1-2 4-2s4 0 4-2-1-2-4-2l-4-1c0-2 1-2 5-2 3 0 4 0 4-2s-1-2-6-2l-7 1m278 38c-3 3-3 6 0 9 3 4 9 4 10 0 1-7 1-8-1-9-3-3-6-2-9 0m-127 13c-2 1-3 4-3 7l1 1 2 2c3 6 11 2 10-5l-2-2-1-1c2-2-3-3-7-2m113 1c-3 3-3 6 0 9 2 3 8 4 8 2l1-2c2 0 3-2 3-4 0-3-5-7-7-7l-5 2m-126 11c-3 4 1 12 5 9l1 1c-1 2-1 2 2 1 3-2 4-6 1-9-2-3-7-4-9-2m112 3c-4 5-2 12 4 12 7 0 10-7 6-12-4-3-7-3-10 0m-123 8c-4 4-1 12 5 12 3 0 7-4 7-7 0-6-8-9-12-5m160 12l-9 10h3c5 0 16-12 16-16 0-3-1-3-10 6" fill="#d3d3d3" fill-rule="evenodd"/></svg>