<svg xmlns="http://www.w3.org/2000/svg" width="400" height="225"><path d="M0 113v112h401V0H0v113m71-86c-1 1-2 2-2 5l24 160c1 5 4 8 7 8l52-9c5-1 5-2-9-79l-14-74c-2-5-12-8-12-4 0 3-2 3-16 1-14-1-18-3-19-7-1-1-9-2-11-1m285 38c0 3 0 3-3 2-4-1-7 2-7 7s2 7 6 7h9v-9c0-10 0-10-2-10-3 0-3 0-3 3m-129 7v9h6c8 0 11-3 11-9s-3-8-11-9h-6v9m22-4c-5 3-4 11 1 13s11-1 11-7c0-5-7-9-12-6m12 1c3 9 5 12 8 12 2 0 3 0 4-4l1-3 1 3c0 3 1 4 4 4 2 0 3 0 5-6 3-8 3-8 0-8-2 0-3 1-4 3-1 5-1 6-3 2 0-3-1-5-3-5s-2 0-5 7l-1-2c-1-4-2-5-4-5-3 0-3 0-3 2m27 5c0 7 0 7 2 7 3 0 3 0 3-4 1-7 4-7 4-1 0 4 0 5 2 5 4 1 4 0 4-5 0-7-5-12-9-8h-1l-2-1c-3 0-3 0-3 7m27-5c-5 5-1 12 6 12 5 0 8-2 8-7 0-3-4-7-8-7l-6 2m18-1c-4 1-2 4 2 3l3 1c1 1 0 1-2 1-4 0-6 1-6 5 0 3 3 4 9 3h5v-6c0-7-4-9-11-7m-230 6c-11 4-5 26 8 28 5 0 10-4 10-9s-5-7-6-3c-2 5-8 4-10-1-1-4 0-7 4-7 7 1 8-5 1-8h-7m178 22l2 8c2 5 3 6 5 6 3 0 3-1 6-7 3-8 3-8 0-8-2 0-3 2-4 5l-2 4-1-4c-1-4-2-5-4-5l-2 1m27 0c-3 1-2 4 2 3l3 1c1 1 0 1-2 1-3 0-6 2-6 5 0 2 3 4 8 4h6v-6c0-8-4-11-11-8m14 7c0 7 0 7 2 7 3 0 3 0 3-5 1-7 4-7 4 0 0 4 1 5 3 5s3-1 3-5c1-6 3-6 4 0 0 5 0 5 3 5 2 0 2 0 2-6 0-8-4-12-8-8-1 2-1 2-4 0h-7l-2-1c-3 0-3 0-3 8m25-8l3 8c3 6 3 9 0 8-2-1-4 2-2 3 4 3 8 0 11-9 4-10 4-10 2-10s-3 1-4 4l-2 3-2-4-3-3h-3" fill="#d3d3d3" fill-rule="evenodd"/></svg>