<svg xmlns="http://www.w3.org/2000/svg" width="400" height="225"><path d="M318 1c-4 0-4 1-2 2h2l2 1c0 1 1 2 3 1l4 2c2 2 3 2 3 1h3l3-1 1-1 2-2c1-4 2-4 2 1 0 4 0 5 2 5h9l3-2v5c0 3 1 1 1-4V0h-17l-21 1m44 6c0 5 0 6 1 4s1-2 2-1l5 1h5l3 1h6c5 1 8 2 5 2l-3 1c0 2 7 0 9-1h2c2 3 3 0 3-7V0h-38v7m-85 14l-20 4v30l1 29 13-1 23-1h9V66l-1-31V20l-3-1-22 2m-1 2l-17 2v57l42-2V21h-5l-20 2M0 24l1 3v3L0 42v11h4l6 1 12 1 2 1-10-1-12-1H0v80h9c13-1 16-2 16-4 1-1 1 0 1 1 0 3-3 4-12 4l-10 1h8a2963 2963 0 0129-1l18-3c18-2 22-3 22-4l-16 2a553 553 0 01-21 0 434 434 0 0013-4H44l16-1 4-1 4-1 10-2-15-1a425 425 0 0065-9l1-5c0-2 1-3 1-1s5 2 7 0c3-3 6-2 7 2l1 3 1-3c0-3 0-3 3-3 4 0 4 0 4-12 0-11-1-10-2 1v8h-5l-4 1V92c0-9 0-9-2 3v6h-8V69l-1 14c0 12-1 24-2 18l-1-1c-2 0-2-2-2-12 0-13-2-11-2 3l-1 9-1-12-1-12-1 12v13l-6-1-5 1-5 1c-6 0-9 1-9 3h-1c-2-2-18-2-18 0h-1l-38-3c-3 0-3 0-3-2v-1h-3c-2 0-3-3-1-3l1 1 3 1 2-1 2-2 2 1h1l7-1h6l-2-2-3-2-2-3c-2-7-7-9-10-4-1 3-2 3-5 1-2-1-3-1-2-2v-1l3-1c2 0 2 0 1-1s-1-1 1-2v-1c-3 0-2-2 0-3 3-3 3-4 0-3-5 0-5 0-2-3 2-2 2-2 0-4l-1-2-1-3c-1-1-2-3-1-4 0-3-2-5-4-3l-1-2v-5l-3-4c-2-4-5-2-5 4h-1l-1 2v2l-1-1-1-3c-1 0-2-1-1-3 0-2-2-6-4-5l-1-3-3-6-2-2-1-2H0m285 31c-5 2-5 14-1 18 6 6 13 1 13-8s-5-13-12-10m-17 2c-3 2-6 7-6 12 0 7 8 10 13 5 5-4 0-11-6-10-3 1-3 1-2-1l4-3 3-3c0-3-2-2-6 0m18 3c-4 5-1 12 3 12 6-1 6-13 1-14l-4 2m-3 26v6c0 3 1 4 2 4 2 0 2 1 2 6v6h17l18-1 1-19a456 456 0 00-40-2m-21 1h-6l-1 4c0 6 0 6 13 5h11V86h-6l-11 1M69 92l-2 2c-4-1-5 0-2 1h9l9 1h8l-2-3-5-3-8 3-1 1-1-2c1-4-5-4-5 0m49 32l-2 2c3 6 4 6 8 7 5 2 10 2 10 0l-2-1-4-3c-4-6-6-7-10-5m-33 3c-2 1-3 5-3 6h31v-8H99c-10 0-13 0-14 2m50 14l-1 4c-1 3-2 4-4 4l-4 2c-2 0-2 0-2-3 0-7-2-6-4 2l-2 5H76v3c1 5 6 5 34 5 25-1 29-1 35-5 4-3 3-4-4-5h-5v-5c1-4 0-9-1-7m-85 7a397 397 0 01-50 11 2835 2835 0 0121-1c27-5 35-7 33-10h-4m271 7c0 7 1 9 4 8l1 2 1 2v-2l1-3 1-7v-6h-8v6m25 50c0 2 7 3 15 4a3285 3285 0 0133 0c6 0 6 0 4-2l-6-1h-13c-26-2-33-2-33-1" fill="#d3d3d3" fill-rule="evenodd"/></svg>