<svg xmlns="http://www.w3.org/2000/svg" width="400" height="225"><path d="M352 86c-4 0-5 1-5 3l-13 1-14 1h-53L30 90H0v90h7c3 0 6 0 5 1-2 0-1 2 1 2l1-1v-12c0-12 6-22 16-29l4-4c0-2 6-10 8-9l3-2c2-2 2-2-3-2l-5-1a1602 1602 0 0038-4c18-2 54-1 64 2 9 1 11 2 28 12 17 9 20 11 35 13 18 3 31 10 37 19 3 5 3 8 0 13l-2 4h26a23074 23074 0 0129 3l1 1-2 1-1 4 1 6c0 2 1 3 5 3l6-1c1-1 1-1-1-1s-3-1-3-2l-4-2h-2l2-1h4l5 1c5 1 6 4 2 6-2 1-1 1 7 1h10v-6h39l39 1 1-5-1-7v-1l1-48c0-26 0-47-1-45 0 2 0 2-19 1-21 0-22 0-22-2 1-2-1-4-2-4l-5 1m-41 30c-6 2-13 6-13 8l7-3h13c4 0 7 3 7 6l1 4 1 3c2 5 2 1 0-5-1-8-3-10-9-12-4-2-4-2-7-1m-223 6c-12 0-29 2-29 3-2 1 4 11 7 12 6 3 38 7 61 8l47 4c13 1 7-5-14-16-23-11-37-13-72-11m196 26c-4 8-4 8 0 8l3-2c0-1 1-2 2-1l12 2h1v-9c0-2-1-2-5-2l-7-1c-3-2-3-3-6 5M42 163c-6 2-9 6-11 12-1 3-2 5-3 4l-2 2a1148 1148 0 01-2 3l-9 1H1v8h28l-27 2c-2 0-1 3 1 3 17 0 25 2 29 5 2 2 10 3 18 2h4v-12l1-11h3l3-1h1c1 2 5 3 8 1 3-1-1-11-5-16-6-5-17-7-23-3m147 0c-8 3-13 9-13 16 0 3 0 4 2 4 4 0 7-1 7-3v-2l1 2c1 2 4 3 6 1s1-6-1-7v-1c2-2 4-1 3 1-1 5 8 7 9 2 1-1 1-1 2 1s1 2-1 2c-3 0-4 3-1 3h5l4 1c3 0 3-1 3-4-1-12-15-20-26-16m135 22c-1 2 0 2 37 2 31 0 39 0 38-1 0-2-19-2-22-1h-5l-19-1h-12l-9-1c-6 0-7 0-8 2" fill="#d3d3d3" fill-rule="evenodd"/></svg>