<svg xmlns="http://www.w3.org/2000/svg" width="400" height="225"><path d="M217 58l-1 3h36v-7h-35v4m-90 1v3h34v-7h-34v4m1 5l-1 2c0 2 1 2 17 2h17v-5h-16l-17 1m130 20v3h81v-7h-81v4m0 8v3h38a277 277 0 0140 2c3 0 3 0 3-4v-4h-81v3m-118-1l-8 2c-4 1-6 1-3-1h-1l-18 9 8-3c11-6 11-5 0 1-9 5-12 7-11 9l58-3c16-2 19-3 21-7l2-4-2-1c-6-2-36-3-46-2m141 12l-11 1h-11v44h28a244 244 0 0040-2h9v-9l1-10 1-12v-11h-24l-25-1-1-1v1l-1 1-1-1h-1l-1 1-2-1h-1m-69 14c0 5 0 6-2 7-4 2-4 2-7-1-2-5-9-7-14-5l-6 1v1l-1 1c-1-1-1-1 0 0h-1l-1 1v3h-1c-1-1-1-1-2 1s-2 2-12 2c-7 0-9 0-7 1l3 1h-4c-3 0-4 0-4-3 0-4-1-4-1 1v4h12l-5 1h-29c-4-1-2-1 8-1 12 0 12 0 4-1l-10-1-10-1c-8 0-8 0-8-3l-1-2v2c0 4-2 4-2 0-4-13-23-13-27 0-1 3-2 4-4 4l-4-1c0-1-1-1-1 1-1 3 0 4 6 4 4 0 5 0 6 2s0 2-5 2c-10 2-12 2-9 3 2 2 116 2 131 1 7-1 8-2 2-3s-5-5 1-6c2-1 3-1 2-2v-3h4c2 2 2-10-1-14v3m-103 18c-4 3-1 3 35 3 33 0 41-1 33-3h-34a214 214 0 01-34 0m5 19v3h58v-7h-58v4m0 8v2h58v-5h-11c-9 0-11 0-11 2h-1l-1-2-1 2-6 1-1-1c1-2-1-2-13-2h-13v3" fill="#d3d3d3" fill-rule="evenodd"/></svg>