<svg xmlns="http://www.w3.org/2000/svg" width="400" height="225"><path d="M0 9v9a187 187 0 0017-6c2-1 2-1 1-2V3c3-2 0-3-8-3H0v9m112-8l-3 1-3-1 3 3c4 4 4 4-1 6-3 2-5 2-6 1-4-2-4-1 0 3 12 13 10 41-6 77l-7 13c-2 0-2-3 2-11 5-10 12-30 12-38l1-5-1 4c-4 15-15 44-19 47-1 1-2 1-5-1-5-3-6-4-5-13 1-8 0-19-2-25l-1-3v3c0 2-1 1-3-5-3-9-8-18-13-24l-3-4-4 1-8 2a485 485 0 00-35 7c-5 1-5 2-5 8l1 6c3 0 10 3 13 6 3 2 3 3 1 4-1 1-1 1 1 1l-5 3c-5 2-6 2-5 3l2 2 7 3 1 4c0 2 0 3 2 2v3c-1 4-2 5-4 5-1 0-2 1-2 3 0 3-2 5-6 5-3 0-4 1-2 2 1 1 0 1-1 1l-3 1v124h49a409 409 0 0054-2c4 1 5-2 3-6v-7c1-3 1-4-1-5-1-2-2-8 0-8l3-6c0-3 2-5 2-5l1-2c0-1-5 1-6 4l-2 1-5 3c-7 5-14 8-13 5l1-2 1-1 3-2 2-1 2-1 3-1c2 1 2 0 2-1 0-2 0-2 2-2 1 1 1 0 2-1l1-2 3-3c3-2 3-3 2-11-1-12 0-14 2-20 2-2 4-8 5-12 5-12 8-17 13-20 9-7 8-6 7-12l-4-19a1630 1630 0 018 23c9 41 10 47 6 47l2 4c4 5 6 13 9 24 4 17 7 19 19 12h6l4-1 3-2 5-2c3-1 5-1 7 1l2 1v-2c-2-2-1-2 4-3 5 0 15-4 16-7v-10l1 4v2l4-3c6-4 6-6 0-5-4 0-5 0-7-3l-3-8-2-9c0-4 0-4 2-4s2 0-1-3l-4-6-2-8v-6h3v-1c-2-1-5-8-5-11l-1-2-2-2c-7-29-14-55-16-56-3-4-6-3-31 3a313 313 0 01-18 4l8-3-7-11-1-1-2-2-2-1-1-1-2-1-3-3-2-2-1-3c-1-2-1-2-1 3l-1 8c-1 2-1 2-1 0l-2-9c0-7-3-16-6-21V7l2-4c0-3-1-3-3-3l-4 1m26 1l2 8c4 8 6 15 6 21 0 2 0 2 1 1s1-1 1 1v3l1 2v1l3 7 3 7 13-3c23-7 24-6 29 13l5 15c5 0 8 9 4 14v6c0 4 1 4 4 4s13 3 16 6l2 2c4 0 25 21 26 26l4 15c3 11 4 14 3 15-2 3-1 5 1 7s3 4 3 7l2 8-1 3-2-10c-1-2-1-2-4 0v1l-1 1c-2 1 1 9 4 10 2 0 3 2 0 2-1 0-2 1-2 5-1 5 0 8 1 8 2-2 2 2 0 6l-2 8-1 3h141v-8c0-9 0-10-7-18l-3-3-3 5c-6 10-17 16-34 18-13 2-19 1-37-6-11-4-22-25-18-36 8-29 49-40 76-21 5 3 14 13 14 15s11 15 12 14V0H294l1 5c0 7-1 8-6 11-6 2-9 1-11-7V2l2-2h-33c-27 0-33 0-36 2h-13c0-2-4-2-21-2h-21l2 5 3 8 2 26-7-17-5-11-5-11h-5c-4 0-4 0-3 2m123 2a10152 10152 0 01-40 11c-2 2 1 1 8-1l18-4c13-2 23-5 23-6 0-2-1-2-9 0m-98 65l-29 8 24 103c1 1 58-13 59-13l-12-51a20148 20148 0 01-14-55l-28 8M7 80c-5 2-8 5-5 5v5H1l2 2-1 2c-2 2 1 1 5-1 3-2 7-9 7-13s0-4-7 0m131 58c0 10 0 11 2 14l3 1v-2c2-1 2-14 0-19l-3-4c-2 0-2 0-2 10m188 20c-20 9-27 28-16 43 17 22 63 19 74-6 5-12-6-31-21-37-8-3-10-2-5 1l4 4 1 3 2 2c1 2 6 5 6 3l-4-4c-4-5-5-6 0-4 6 4 14 14 10 14l-2-1-1-1-1 1 1 7c0 9-5 14-10 9-2-1-2-2-1-4 2-4 1-6-3-5l-13 2c-9 1-11 3-7 5h-4c-14-4-17-17-7-30 4-4 3-5-3-2M43 181l-1 3-1 4c-2 2-2 3-1 7v21c2 2 8-2 14-8l6-6-2-2-3-2c-2 1-7-10-6-11v-2l-2-3c0-2-2-2-4-1" fill="#d3d3d3" fill-rule="evenodd"/></svg>