<svg xmlns="http://www.w3.org/2000/svg" width="400" height="225"><path d="M284 96c0 3 0 3-2 2-3-2-6 1-6 7 0 5 3 8 6 5h3c2 2 3 0 3-9 0-7 0-8-2-8s-2 1-2 3m-151 6l1 9h4l5-1c0-2-1-2-3-2-3 0-3 0-3-2 0-3 0-3 3-3 4 0 4-2 0-3-4 0-4-3 0-3l3-1c0-2-1-2-5-2h-5v8m85-5c-1 2-1 2 2 5 5 4 5 6 1 6-4-1-6 1-2 2 7 3 13-6 5-9-4-2-4-4 0-4 5-1 4-2-1-3-4 0-4 0-5 3m-66 1h-4c-2 0-2 0-2 6 0 5 1 7 2 7 2 0 2-1 2-5l1-5c3-1 4 1 4 6 0 3 0 4 2 4s1-12-2-13h-3m12 0c-2 1-3 3-2 6l-1 7c-2 4 6 7 10 3 3-3 2-6-3-6l-3-1 2-1c3 0 6-3 4-5l1-1 1-1c0-1-6-2-9-1m25 0h-7v6c1 8 3 9 4 2 0-8 5-7 5 1 0 3 0 4 2 4s1-12-2-13h-2m12 0c-7 2-4 14 3 13 5-1 5-4 1-4l-4-1 4-1c3 0 4 0 4-2 0-4-4-7-8-5m34 0c-7 1-6 13 1 13 4 0 6-3 6-7 0-5-3-7-7-6m31 0h-3c-2 0-2 0-2 6s0 7 2 7l1-4c0-4 2-8 4-6l1 5c1 7 3 6 4-1 0-4 0-5-2-6-3-2-3-2-5-1m-21 5l2 6c1 2 5 2 6 1h1c2 2 3 1 3-5l-1-7c-2 0-2 1-2 3 0 4-2 8-4 7l-1-6c0-3 0-4-2-4s-2 1-2 5M100 225" fill="#d3d3d3" fill-rule="evenodd"/></svg>