<svg xmlns="http://www.w3.org/2000/svg" width="400" height="225"><path d="M0 113v112h12c10 0 14-1 18-2l15-3 29-4c21-2 24-2 53 0a600 600 0 019 3c-24-3-30-3-40-2l-23 2c-32 2-35 3-37 4-1 2 14 2 182 2h183V0h-4c-4 0-4 0-7 6-5 11-13 22-22 32-11 12-12 13-3 8l11-4 10-3c6-3 7-3 5 1s-8 9-9 8-6 0-10 3c-4 2-4 2-2 3 3 1 3 2-1 4-3 3-2 3 4 5 5 2 9 0 14-4 3-3 5-4 10-2 4 2 4 3-1 9-6 8-11 12-12 11v1l-1 1c0-1-3 0-5 2l-8 4c-2 0-4 1-5 3l-5 9c-5 6-5 7-2 9 2 1 0 3-6 6-5 2-9 6-7 6l1 2-1 4-2 3-5 8-3 5-3 2c-2 3-3 3-25 3-25 1-30 1-37 3h-9l-4-2 2-2 29-12 12-5a85070 85070 0 0129-6c9-1 9-1 7-10-2-13 0-18 10-22 2-1 3-1 2-3l1-2 1-1c-1-1 1-2 8-3l9-1 2-2 5-6c4-3 5-5 3-5h-9c-6 0-7 1-11 4l-17 13c-4 1-7 1-7-2 0-1 5-7 10-11l6-6 4-3 4-2-3-1c-3 0-13 5-13 7l-10 6c-2 0 0-2 3-5 8-5 17-15 17-17h-4l-8 4-6 3-6 4-3 2c-6 6-15 10-11 6 3-4-1-2-5 3l-13 10 6-9 7-14-11 9c-10 11-25 23-26 23v-1c0-2-1-2-4-1-3 2-13 2-13 1 0-2 5-12 13-24 7-11 9-16 5-11a368 368 0 01-27 30c-5 4-6 2-3-4l-1-2-1 1c0-2 12-20 17-27l12-19c9-14 13-19 13-16l2 2 1 1c-1 2 1 6 4 7l2-1 1-1 7-5c5-6 5-6 9-5 3 0 5 1 7 3l3 2c2 0 4-3 2-4s0-9 2-10h2V5l1-2 1-1c0-2-3-2-23-2h-24l-3 4c-5 8-8 12-10 12a446 446 0 01-34 64c-5 6-3 1 7-20a462 462 0 0017-36 172 172 0 0012-21l2-3H0v113m316-42c-9 6-12 8-15 13l-4 3-2 1-5 5a238 238 0 00-12 10c-1 0-1-1 7-9 6-6 7-8 5-8-3 0-24 21-23 23l-7 8-6 9c1 1 18-11 18-12-2-2 23-19 27-19l5-3c3-3 6-4 3-1-3 4 1 4 6-1 6-5 7-6 4-5s-2-1 2-5l3-6 1-4c3-5 2-4-7 1" fill="#d3d3d3" fill-rule="evenodd"/></svg>