<svg xmlns="http://www.w3.org/2000/svg" width="400" height="225"><path d="M0 113v112h401V0H0v113m240-97c1 1 1 1-1 2h-3c0-2-2-1-7 1l-5 3 5 2c6 3 7 3 8 2l2-2c1 0 1-1-1-2v-1h2c-1-2 0-2 1-2 2 0 3-3 1-3h-2m-27 10c-5 3-7 3-9 2h-5l-7 3-6 3c0 2 14 5 14 3l1-7 8 3c5 3 8 4 10 3l3 1h2v-1c-2 0-2-1 1-4l4-3-3 1h-3c0-1 1-2 3-2l3-1-4-2c-6-2-6-2-12 1m-76 2l-9 4 4 3c4 1 5 3 4 5l3 2c3 0 3 0 1 2-1 1-1 1 2 2l2 1c-3 2 1 1 8-2l6-3-7-3-10-4c-2 1-9-2-9-3l8-4 7-3c0-1-1-1-10 3m112-2c2 1 2 1-2 3l-3 2 3 1 4 1h1l2-2h5l3 1-5 3-7 3c-3 1-3 1-2 2s17-6 19-8l-5-2-5-3-1-1h-7m-89 1l-5 2-2 2v6h1l2 1v-1l7 1-1 1h-3l2 1c3 0 10-3 10-4l1-1h4c2-2 2-2-5-5-7-4-9-4-11-3m112 9l-9 4-1 13-1 12V41l-9 5c-10 4-10 5-10 8s0 4-10 8l-10 5v12l-1 12V68l-11 5-10 5v12c0 12 0 13 4 11l3-1-3 3-4 1v11l1 11c1 1 5-1 10-4l9-4v-13c0-7 1-12 2-13v6l-1 12v7l10-5 10-5v-4l-1-3 9-5 10-5 1-12c0-9 1-12 2-13v24l8-4c7-4 8-5 8-8V56c2-2 4-24 2-24l-8 4m-43-2c-1 1 0 1 1 1l-2 2c-5 3-5 3 1 6 6 2 9 3 8 1l1-2c2 0 2 0 0-1v-2c2-1 3-3 1-3l-8-2h-2m-52 2a2143 2143 0 01-20 11l-2 2c-2 1-3 3-2 3v1l3 1 3 1h1l3-1c3 0 3 0 3 3-1 2-1 2 4 0h5c2 2 1 3-1 2l-3 1 2 2h15c1 1 1 1-2 2-4 2-4 4 0 5l3 1c0 2 5 3 7 1l3-1h7c1-1 1-1-1-2-1-1-1-1 1-1 1 1 3 0 4-1l2-2-3-1-1-2h4c2 1 8 0 8-2 2-4-6-7-13-4-3 1-4 1-2 2v2h-2c-2-1-6 0-6 1l-3 1-4-1v-2h3c3-1 2-2-3-5l-3-2h11l3-1v-2l2 2 2 1-2-3-3-5v-4l-2 1-8-2c-9-5-8-4-13-2m-87 3c-10 4-10 4-8 5 1 1 4 2 9 2h8v5c0 4 0 5-2 6s-2 1 0 1 3 2 3 6c0 5 1 5 4 4s8 1 8 4c0 2 2 4 3 2l-1-3v-2c2-1 3-1 3 2v2l-1 1 2-1c1 0 2-2 1-12V49l9 5c11 6 11 6 11 4s-22-14-23-13l-6-2c-5-3-7-3-9-2-3 1-3 1-3-2v-4l-8 4M64 72c-3 2-3 2 4 6s7 4 8 17l1 6-5 2-9 4-5 2-6-4-6-3c-1 1 1 17 2 18l13 9 18-9v-8c-1-11-2-10 4-13 5-2 5-2 5-6 0-9-1-12-3-12-3 0-15-6-16-8 0-2-1-2-5-1m75 4c2 1 2 4 2 13l1 11 3 2 5 4-9 6c-13 6-13 7-7 11l7 4c3 4 10 7 10 6l2 1c3 5 8 7 9 4 2-1 2-1 4 3 3 5 8 8 9 5l3-1c2 0 4-3 4-7 0-2 0-2 1-1l2 1v-2l-2-1 14-7 1-5c0-6 0-6-3-8-5-3-6-3-6 3l-1 4-2-2c-5-1-6-3-6-11v-7l-1 7c0 6 0 7-2 6h-8c-4 3-4 3-4-2 0-3-1-4-2-5-3-2-3-3-3-12l-1-10a184 184 0 00-20-10m128 49l-8 4v12l-1-6v-5l-9 5-8 5-1 6c0 7-1 6 10 6l5 1-8 6c-9 5-9 6 3 4l7-1v-5c0-6 1-7 1-1l1 4h7c8 0 8 0 9-12a764 764 0 011-28l-9 5m25 19c-4 3-5 4-5 11 0 3 0 4 5 6l5 3 5-3c4-3 5-3 5-9v-6l-4-2c-6-2-7-2-11 0m-62 7c-12 7-12 8-1 8 10-1 10-1 10-8v-5l-9 5m-86 1v21l9 5 9 6v-7c0-7 0-8 2-8v-1c-2-1-2-3-2-7 0-3 0-4-1-3v3l-8-5-9-4m182 11c-3 2-4 3-4 5l-1 6c0 3 0 3 6 6l6 3 3-3c6-3 6-4 6-10v-5l-5-2c-6-4-5-4-11 0m-117 32c0 12 0 12-4 9a143 143 0 00-18-10l6 6c4 2 6 4 6 6l1 7 1-4c-1-4 0-5 3-2 5 3 7 4 8 3 1-3 0-25-2-26l-1 11" fill="#d3d3d3" fill-rule="evenodd"/></svg>