<svg xmlns="http://www.w3.org/2000/svg" width="400" height="225"><path d="M0 113v112h401V0H0v113m112-67c-2 3-1 20 0 21l22 1 21 1 1 1v-9l2 2c2 1 3 3 2 3v5l1-2 4-1c6 0 6-1 6-12V45c-2-2-59-1-59 1m135 3c-15 6-11 28 5 28 6 0 11-3 13-7 5-13-6-25-18-21m-47 24l-5 1c-3-1-4-1-4 1-1 1-1 1 1 1h4c1 1 0 1-2 1s-3 0-3 2l-1-1h-2l1 3 1 3c0 3 0 3-5 3l-4 1-1 4c0 6 0 6 8 2 2-1 3-1 4 1 1 1 2 1-5 6l-4 5-1 2c-2 0-2 2-2 10 0 12-1 14-5 12-2-2-5-2-13-1h-10v-3c0-4-3-6-7-4-3 2-5 5-5 6l-3 1-11 4-7 4 6 24 5 27v4h142v-3l6-27 6-25-9-5-8-3h-20l-25 1-4 1v-11l-1-12-6-5-8-6v-2c2-2 2-2 9 1l6 2V88l-6-1c-6 0-8-2-5-6l1-3-2 1h-1c0-1-1-2-3-2l-3-1h3c2 0 3 0 3-2l-1-2-4 1m-44 67l-35 1 5 21 5 22h70l70-1a749 749 0 0110-43H156" fill="#d3d3d3" fill-rule="evenodd"/></svg>