<svg xmlns="http://www.w3.org/2000/svg" width="400" height="225"><path d="M0 113v112h401V0H0v113m111-63v14h45V36h-45v14m140-6l-2 2c-1 0-2 1-2 15v15h30V61c0-14-1-15-2-15l-2-2c0-2-2-3-2 0-1 2-18 2-18-1l-1-1-1 2M104 67c-1 1 9 1 29 1l30-1-29-1-30 1m95 6h-6c-3 0-3 0-3 4 0 1 0 2-1 1-2 0-2 0-1 4l2 4 1 2 2 8 2 9v3h-15v10c-1 12-2 15-7 12l-24-1h-21l-8 4-7 4v70h45v-11l1-10h86v21h46v-71l-8-3-8-4h-25a147 147 0 00-29 2h-3v-23h-17l1-5a39085 39085 0 004-26c-5 0-8 0-7-1h4c2 0 2 0 1-2-1-3-2-3-5-1" fill="#d3d3d3" fill-rule="evenodd"/></svg>