<svg xmlns="http://www.w3.org/2000/svg" width="400" height="225"><path d="M196 71l-7 6-1 4-4-2c-2-2-4-2-8-2-23 2-23 34 0 36 6 0 6 0 6-2s-1-2-4-2c-12 0-19-11-14-21 4-6 12-9 19-6 3 2 3 2 3 0l-3 32c-3 24-3 26-1 26s2-2 4-17l1-10h14c11 0 14 0 13-1l2-1c4 2 12 2 16 0s10-9 9-11c-1-3-3-2-5 2-6 9-19 9-24 1-4-7-4-7 14-7h16l-1-4c-1-11-14-18-25-13-10 5-13 15-7 26l2 4h-11l-12-1c0-7 3-26 5-28 4-8 15-10 22-6s10 2 2-3c-6-4-15-4-21 0m20 12c-2 2-6 6-6 8l14 1c14 0 15 0 11-5-5-6-13-8-19-4" fill="#d3d3d3" fill-rule="evenodd"/></svg>