<svg xmlns="http://www.w3.org/2000/svg" width="400" height="272"><path d="M156 3c-5 2-6 5-6 26l1 20 1-20c0-19 0-22 4-25l63-1h61l2 3 3 3v31l1 31c2 0 1-59 0-63-3-7-1-7-68-7-51 0-60 0-62 2m95 30l-3 9v6l-2-3-5-6c-7-7-9 2-3 14 3 5 3 6 1 6-2 1-1 10 2 16l2 5h-8l-7 1-1 8v8h72V81l-15-1h-15l2-4c3-6 4-17 2-17s-2 0 0-3c2-5 1-8-2-7-3 0-3 0-3-6 1-8-3-9-7-2l-2 3v-6c-1-9-4-11-8-5m-130 0l-2 4c0 3-1 4-7 9-7 6-7 6-10 5-4-3-8-2-12 0l-4 2-5-4c-4-2-6-4-6-5 0-3-2-6-5-6-2-1-7 3-7 5 0 4 7 8 10 5 0-1 3 0 7 3l6 4-1 5c0 4 0 5 2 8l3 3-4 9c-4 8-5 9-8 9-5 1-7 9-2 11 5 3 10-2 8-8-1-2-1-3 4-11 4-9 4-9 8-9l7-2 3-1 5 3c4 3 6 4 5 5-1 5 7 9 10 5 5-4 0-11-6-9-2 1-3 0-7-3l-6-3 1-5-1-6c-2-3 12-14 16-13 7 1 10-6 5-10-3-2-4-2-7 0m131 0l-2 12c0 10 1 14 4 14h3V47c0-15-1-19-5-14m-16 5c-1 3 1 10 4 16 3 5 3 5 7 5 3 0 3 0 2-2-2-10-11-22-13-19m28 1c-2 3-5 10-5 15-1 5-1 5 1 5s3-1 5-7c3-11 3-17-1-13m-98 8c-8 4-10 10-9 21v7l-4 5-5 7-4 3c-7 3-9 6-10 14l4 37c0 2 0 3-3 3-8 0-11 6-7 13 2 4 6 9 14 15l4 3h-5c-5 0-8 3-8 7 1 2 0 2-4 2l-4 1-1 8v8h119v-17h-16l2-3 2-6c0-3-3-10-5-10v-2l2-1c4 2 8-5 5-9l4-8c4-8 5-9 2-9l-12 4-10 2-3-2c-6-6-9-11-14-28-5-19-7-22-15-25l-5-1 4-4c4-5 5-10 5-19l1-8c2-7-15-13-24-8m7 11l-1 4c0 3-2 5-4 3-2-1-5-1-5 1l3 4c4 4 4 6 1 13-3 4-3 6-2 9 1 5 3 6 7 2 3-2 3-2 2-4l-3-4c0-3 0-3 3-2 9 1 14-8 13-23 0-3 0-3-3-2l-6-1h-5m67 5c0 3 5 5 8 3h15l9-1v-2c0-2-2-2-16-2h-16v2m1 5v3c0 1 2 2 15 2s15-1 15-2c1-3-1-4-3-3h-27m1 7l2 3c2 3 22 3 24 0l2-3-14-1-14 1m-65 14c0 3-4 8-7 9l-5 3c-2 6-11 9-17 5-3-3-4-10-1-13l2-3c-1-1-11 5-12 7-2 4 0 33 3 44 1 4 11 9 26 11 13 2 12 2 12 0 0-1-3-4-13-9l-14-7v-18l1 6c0 11 0 11 14 18l18 8c4 0 10 4 10 6l-3-1c-4-3-11-4-11-2 0 1 1 2 3 2l6 4c2 3 2 4-1 1-2-2-6-1-16 3l8 3 9 1a338 338 0 0014-21l-5-5c-5-4-6-5-7-10l-1-5v5c0 4 2 13 5 20l-1 1c-3 0-6-18-5-32 0-7 1-5 4 10 1 6 2 6 7 11 5 4 6 4 9 3 6-1 6-1 0-8l-6-8c0-3-8-30-10-33-4-6-16-10-16-6m100 45c-11 3-24 14-23 19l6 7c15 14 37 14 52-1l6-7-5-7a39 39 0 00-36-11m-3 3c-9 3-18 11-18 15s12 13 19 15c13 4 28 0 37-10 5-6 5-5-2-12a35 35 0 00-36-8m-55 6l-15 4-7 10-6 10 17-3c15-4 16-4 15-6 0-3 2-6 6-6 2 0 3-2 6-7 4-7 5-7-16-2m59 1c-4 5-4 10 0 15 8 10 23-1 17-12-3-7-11-8-17-3m-147 2c-7 3-2 14 11 24 6 5 7 5 11 4l8 1c2 2 2 2 11-1s10-3 5-4c-9-2-11-3-11-5s2-3 5-4l4-1-9-4-17-7c-9-4-14-5-18-3m-59 8c-3 3-2 10 2 10l1 7-1 7c-2 0-5-5-5-8 0-5-6-7-9-2-1 2 1 6 5 6 2 0 10 6 10 8l-6 1c-4 0-5 1-5 2v9l1 7h-7l-6 1v67h4c3 0 4 1 4 2l3 1 3-1c0-2 3-2 19-2 15 0 18 0 18 2l3 1 3-1c0-1 1-2 4-2h5v-67l-4-1h-4v-13c0-12 0-13-2-17-3-5-7-7-8-3l-3 4-1 16v13H86l1-6 1-9v-3H77v-3c0-4 2-7 6-7s6-5 2-7c-2-1-3-1-4 1l-2 3v3c-3 2-2-7 1-10s3-6 0-9c-2-2-6-3-8 0m127 13c-25 7-35 11-36 14v3h62l2-3c3-4 3-9-1-13-4-5-11-5-27-1M98 189v12h10v-25H98v13m187 34v42l-2 3-3 3H157l-3-3c-2-3-2-3-2-27l-1-24-1 25 1 24 3 3 3 3h61c68 0 64 0 68-6a672 672 0 00-1-43M65 187c0 2 1 3 11 3h10v-5H75c-10 0-10 0-10 2m1 8c0 6 0 6 10 6h9v-3l1-4c0-2-1-2-10-2H66v3m-13 24v15h63v-31H53v16m4-12v13l1 11h54v-24l-27-1-28 1m2 12v10h51v-21H59v11m253-8c-3 3-3 6-1 9 3 2 3 2 2 9 0 6-1 6-4 7-10 3-11 17-2 21 8 4 17-1 17-9 0-4 11-7 15-4 5 4 12-1 9-6-2-5-8-5-11 0-1 2-2 3-7 4l-6 1-3-3-4-4c-4-1-2-12 1-15 2-2 3-3 3-5 0-5-5-8-9-5M53 252v15h63v-31H53v16m4-12v13l1 11h54v-24l-27-1-28 1m2 12v10h51v-21H59v11" fill="#d3d3d3" fill-rule="evenodd"/></svg>