<svg xmlns="http://www.w3.org/2000/svg" width="400" height="150"><path d="M0 75v75h151l-8-27a175 175 0 01-8-43c0-5 0-5 2-5 3 1 3 0-1-3-4-4-6-10-5-12l1-2 4 1c2 0 2 0 2-2v-3c1-2 7-5 8-4 3 1 6-1 5-4v-5c-1-2-10-13-13-14l-8-5 2-1 2-1c0-2 6-7 8-7l2-1c-1 0 3-4 4-3l3-1c2-1 4-2 7-1h6l6 4 6 3c2-1-8-9-14-12l-4-2H1L0 75M182 3c17 12 31 39 26 50-1 4 1 5 6 5l4 1 1 1v-1l1-1c2 0 3 4 6 10l4 12a827 827 0 0112 43c-1 1-1 1 1 1l3 3c1 3 1 3-2 4l-3 1h3c4 0 4 0 4 3 0 2 0 2-5 2l-6 1c-1 1 1 1 6 1 6-1 7-1 7 1 0 4-5 6-18 5-8 0-8 0-5-1l3-2h-13c-3 3-9 3-11 2-3-2-5-8-3-11 1-2 0-3-8-3l-8-2-3-2 5 1 5-1c1-1-13-6-17-6l-2-1-10-5c-4 6-4 6 6 15 6 6 10 9 11 8 5-2 11-1 12 1 2 3 3 9 1 10l-2 1 102 1h102V0H178l4 3M53 98c-7 4-5 15 3 15 6 0 10-6 8-12-3-4-7-5-11-3m41 17c-5 6-4 16 2 18 8 3 12-4 9-16-3-7-7-8-11-2m-34 11c-8 3-5 15 4 15 7 0 11-8 6-13-3-4-6-4-10-2" fill="#d3d3d3" fill-rule="evenodd"/></svg>