<svg xmlns="http://www.w3.org/2000/svg" width="400" height="234"><path d="M0 117v117h401V0H0v117m317 21l-1 9-1 9c-2-1-2 0-2 4v5l-7-4c-6-4-7-4-7-2-5 7-11 10-17 7-3-1-3-1-2-4 0-4 0-4-3-6h-5l-4-2-3-3v11l-1 18-2 7h3c3 0 3 2-1 3s-5 1-4-3c0-3-1-4-3-2-2 3-3 1-2-9 0-12-1-18-3-18-1 0-1-9 1-13 2-3-5-5-12-5-7 1-8 2-7 4 1 3 0 6-2 6l-1 1c0 2-2 1-4-2l-1-3-1 2c0 4-2 5-5 4-1-1-2 0-5 2-12 13-10 36 4 40l24 1 21 1c2 2 2 4-2 8-9 11-2 15 24 15 34 0 64-11 73-28 4-7 5-9 2-9l-7-3-5-2v-17l-5-3-5-2v-12c0-2-9-6-10-4-1 1-2 1-4-1h-8m10 16v19l-4-2c-9-5-10-4-10 10v11l5 3 8 3c2 0 3-1 3-10v-10l4 2 7 2h3v-11l-1-13c-3-4-13-6-15-4m-108 1v2l1 6c0 3 1 5 2 5h2c3 2 8 0 8-2l-3-2-2-3h3c1 1 4 0 4-1l-3-1-3-2c-3-2-8-4-9-2M40 182c-6 4-6 15 0 18 3 2 46 1 50 0 6-4 6-12 1-16l-3-3H65l-25 1m69 1c-6 3-7 10-2 15l3 3h24l24-1h-47l-3-3c-3-3-4-5-2-9 2-6 5-6 29-6 22 0 22 1 24 3 3 3 4 8 1 12v2l3-3c2-4 1-9-3-12l-3-3h-23c-18 0-23 0-25 2" fill="#d3d3d3" fill-rule="evenodd"/></svg>