<svg xmlns="http://www.w3.org/2000/svg" width="400" height="234"><path d="M0 53v53l16-19c18-21 18-21 26-15 3 3 4 4 4 6-1 3 3 7 22 22 6 6 7 6 9 5 3-1 3-1 7 3 9 6 15-3-56 81L0 223v11h42l2-3c6-10 14-16 14-11l5 5 4 5c0 4-3 4 168 4h165l1-117V0h-66l-5 6-8 9-2 2-4-3-3-3-3 3c-5 4-5 6-4 8l1 2 1 1c2-1 3 0 2 1l-3 1c-1-1-2 0-3 1s-1 1-3-1c-1-1-1-1-6 4-7 8-7 7-2 11l4 3-13 15c-13 16-16 18-20 16l-51-40c-2-3-1-6 7-16l13-15 4-5h-50l-18 21a24873 24873 0 00-60 69c-3-1-52-41-54-44-1-3-1-5 17-26L89 0H0v53M243 1l10 8c8 7 10 8 11 7l12-15-16-1-17 1m30 10c-6 7-7 9-6 10l19 14 7-8 6-7-2-3-8-7-6-6c-1-2-3-1-10 7M169 29l-48 57c-10 12-12 11-35-8L70 65l-6 6-6 7 17 15c22 19 23 20 12 34a1811 1811 0 01-43 51l-3 4 2 2 17 15c20 17 22 17 30 8l5-5-5-4c-12-11-13-15-4-25a8265 8265 0 0089-106c10-10 14-11 24-3 6 6 6 6 12-1 4-5 5-9 3-13 0-2-34-31-36-31l-9 10m100 2l-2 5c-1 1-2 2-1 3v7c-1 1-2 0-3-1-2-2-2-2-1-5 3-3 2-3-1-1l-3 2-5 3c-3 1-5 2-6 1-2 0-3 0-4 2l-3 2 1 2a195 195 0 0026 19v-4l-1-2c1-1-2-4-4-4s-2 0-2-2l1-2 2-2c2-1 2-1 1 2 0 2 0 3 2 3s7-11 6-14c-1-2 0-3 2-6 3-4 3-5 0-8s-5-3-5 0m-93 42a39236 39236 0 00-92 112c0 2 5 6 36 32 16 14 19 15 22 13l15-17 13-16-4-3-4-4 5-6c5-6 7-7 8-4 0 1 1 1 3-1l2-1h2c2 0 2 0-1-4l-3-3 3-4c5-5 4-5 10 0l3 2 23-28 24-29c1-2 0-7-1-7v2h-1c-2-1-2-2-1-2v-2h-3v-3l-2 1-2 1 1-2v-1l-2 1c-3 1-3 1-17-11-15-12-15-13-15-16 1-2 0-3-4-6-7-6-8-6-18 6m-15 24l-11 16c0 1 46 42 49 42l25-29-49-42c-2-1-3 1-14 13m10-8c-2 2-2 3-1 4h3v1l1 2 1 1 3 2c4 4 4 4 7 1l2-2-6-6c-8-7-7-7-10-3m-12 15v4h1c0 2 5 6 7 6l1 1v1l4-6-1-1-2-1c0-1-5-6-6-5l-1-1c0-2-2-1-3 2m16 1c-2 3-2 3 1 5l5 3v1l1 1h1c1 1 2 1 3-1 2-3 3-5 1-3l-1-1-3-4-4-3c-2-2-2-1-4 2M21 121c-4 1-8 5-8 7l-4-1H3c-3 1-3 5 0 6s3 4 0 9c-3 6-3 8 3 7l3 2 2 1 1 1v1h1v1l1 1c-1 6 6 1 9-6 1-2 2-4 3-3h1c2-1 3 2 1 4l-2 2 3 4c3 3 5 4 4 1l1-2c2 1 3-1 1-3-3-2-4-5-1-11l2-3 1 1c2-2 1-11-1-14l-2-1c1 3-1 5-4 4-1 0-2-1-2-3 0-3 1-4 3-3l1-1c-1-2-6-2-11-1m103 21c-5 4-8 8-8 9l19 16c2 0 14-15 13-16l1-1h1l-9-10-3-2c0-1-2-3-4-3l-3-2-7 9m27 14l-12 14c0 1 18 17 20 17l13-16-18-17-3 2m-9 27c0 2 0 2-1 1h-1c1 1 0 2-1 3v9l-1 2-2-1-1-2c-2 0-1-2 1-4s0-3-3 0l-3 1-4 2-7 2-3 1-2 3c-2 1-2 1 4 6 15 13 26 22 22 17v-4c2-3 2-5 0-3-1 2-1 2-1 0s-2-4-4-4c-3 0-3-3 0-6 3-2 3-2 2 1-1 2-1 3 1 3 3 1 8-10 7-13s-1-4 1-7l3-4-2-3c-3-4-5-4-5 0" fill="#d3d3d3" fill-rule="evenodd"/></svg>