<svg xmlns="http://www.w3.org/2000/svg" width="400" height="234"><path d="M229 6c-6 2-13 10-10 12a5503 5503 0 01-1 177v-20l-12 7a604 604 0 01-33 16c3 1 1 2-4 2s-14 3-15 5l3 6c5 4 8 5 37 5 23 0 24 0 24 2 1 3 8 8 11 9l2 1c-1 2 8 3 18 3h38c30 1 32 1 38-5 3-2 6-9 5-9l23-1c27 0 30-1 33-7 2-4 3-160 1-165l-4-5-3-3-9 11c-6 8-8 12-7 12v2h-2a454 454 0 01-24 24l-10 10-1-30c0-30 0-31 2-33s2-5 0-10c0-2 0-2-1-1s-1 1-1-1c0-4-4-10-9-13l-4-2h-41l-44 1m-12 22v8h-55l-3 3c-5 4-5 5-6 34 0 26 0 33 2 32l1 25-1 25c-1-1-1 0-1 1l1 3c2 0 29-12 33-15l4-2h-4c-4 1-4 1-4-1s1-3 2-3l1 2h2c2-3 3-2 3 0 0 1 0 2 2 1l1-2h2c-1-2-1-2 1-2 1 1 8-2 15-7l4-1a1202 1202 0 000-101" fill="#d3d3d3" fill-rule="evenodd"/></svg>