<svg xmlns="http://www.w3.org/2000/svg" width="400" height="234"><path d="M337 37l5 4 3 2c-1 2 7 3 10 2s2-3-3-4l-5-3c0-2-1-2-3-2-1 1-2 0-3-1l-4-1h-2l2 3m-51 2l-4 3c-4 1-5 2-6 5-2 4-2 13 1 17l2 1c0-2 4-1 5 1s-1 3-3 1c-2-1-3 0-1 2 3 2 5 0 5-6v-7l-4-1c-4 0-4-1-5-3l1-3 1-2h3c2-1 2-1 0-1-2-1-2-1-1-2l5 2c2 2 3 2 1-1-2-2 0-5 3-5 4 1 4 7 1 8l-3 1c1 1 0 3-1 4v3l3-4c1-3 2-4 6-5 7-2 7-6 0-7l-5-1h-4m74 5c-2 1-2 1-1 2 2 2 1 3-1 3-2 1-2 1-1 3 1 1 1 1-1 1l-5-3-4-1-4-2h-4l-4 1c-2-1-2-1-1 1 1 3 7 5 10 5h3l3 2h-2c-10-1-14-1-14 1l2 1 2 4c0 2 0 3 1 2s3-1 3 2l1 1v1h-4l-4 1c-1 1 2 4 4 4l2 1 6 3c4 0 5 1 5 4v3l1-3 2-3 1 2c-1 1 0 1 3 1 3-1 4-1 4 1l2-2c2-4 2-4 6-1l4 1 1 1 1 1c4 0 13 5 18 9l5 5v-7a237 237 0 000-18c0-6-1-7-2-8l-1-1-1-1c-1 0-2 0-1-1h-1l-1-1c1-1 0-1-1-1l-2-2-2-2-1-1c1-1-1-2-5-7-3-3-4-3-6-3-6 2-9 2-10 1-2-2-4-2-6 0M40 77c-2 1-8 10-8 11 0 3 5 9 8 10 4 2 6 1 9-3 7-8 0-23-9-18m112 5v14c-1 1 0 1 5 1 6 0 7 0 7-2s-1-3-2-1c-2 2-5 1-5-1 0-3 1-4 3-2h2c1-3-1-6-2-4-2 2-3 1-3-1 0-3 2-4 4-2 1 2 2 1 2-1s-1-2-5-2l-6 1m89 0l1 1c2 0 1 2-2 3-8 2-6 12 3 12 5 0 7-1 5-2l-1-8v-7h-3l-3 1m-73 4l-2 1 3 1c4 0 4 1 0 3-3 1-4 4-2 6h11l-1-1-1-4c0-6-3-8-8-6m29 0c-2 1-4 4-2 5v5c-1 5 1 7 6 7 7-2 7-8 0-8-2 0-3 0-1-1 2 0 5-3 5-5l1-1 1-1c-1-1-7-2-10-1m14 0c-3 2-4 9-1 11 2 2 6 1 8-1 5-5-1-13-7-10m14 0c-2 1-4 5-4 7s4 5 7 5l4-2c5-5 0-13-7-10m103 2l-8 2c-3 0-4 1-1 3 1 2 0 3-9 16-15 19-15 19-15 25 0 7 2 10 18 22 37 29 40 31 45 31 8 0 11-3 25-21 22-30 22-31-4-50-12-9-15-12-15-14l-1-2h-4l-3-2-5-3-3-3h4c9-2 9-2 1-2-6 0-9 0-11-2l-3-1h-3c0-2-4-1-8 1m11 12l-2 3c-1 3-6 3-6 1-1-2-2-2-5-2-4 0-6 2-2 4v1c-4 1 0 4 5 3l5 1c1 2 0 4-2 4l-2 1-3 1c-3 1-3 0-3-1 0-3-2-5-3-5v6l-2 3-1 2-2 2-1 2v1c1 0 4-1 5-3l3-3v3l-1 5v4h-4l-4-2-1-1h-1l-2-1-2-2-9 12 4 3c3 2 4 2 4 0h3l2 1 4 3c2 3 3 2 0-2l-1-3c1-1 8 1 9 2 2 2 5 3 5 2 1-1-5-4-11-6-5-1-8-4-9-6 0-1 0-2 1-1l1 1 5 2 6 2 3 2 2 2h2v-3c0-2 1-2 3-2 3 1 6-3 6-7l1-3 1-2-2 1-10 1c-2 0-3 0-3-3 0-4 6-7 10-4s4 3 5-1c2-3 2-3 0-4-3-2-1-6 2-5 2 0 2 0 2-2v-7c-1-2-2-3-5 0m-253 4c-7 2-8 3-8 9 0 9 4 13 11 12s9-3 10-9 1-7-4-10c-3-3-4-3-9-2m-70 3l-11 2-5 2v23l3-4c2-2 2-3 1-4s-1-1 1-1l2-2 3-1 5-2 7-3c3-1 2-3-1-3l-2-1 1-1 3-2c4-4 9 0 5 4-1 1-1 1 1 1l8-1c7 0 6-1-1-3l-5-3c0-1-8-2-15-1m191 0l-1 7-1 8c-1 1 1 1 6 1h7l-1-5c-1-5-2-7-5-6-2 0-2 0-2-2 0-3-1-4-3-3m147 4c-4 2-5 3-7 6-2 2-2 2 3 2 10 0 12-2 10-8-1-4-2-4-6 0m-194 1c-1 0-2 1-2 6s1 5 3 5 2 0 2-4 0-5 2-5l1 5-1 4h4c3 0 3 0 2-1l-1-5c0-5-3-7-10-5m12 0l3 6c2 5 2 8 0 8s-2 2 0 3 4-2 6-9c3-6 5-7 7-1 1 5 4 6 6 1v-3l1 3c2 5 5 4 6-1l2-5 1-1-3-1-2 1v4c-1 2-1 2-1-1-1-5-5-6-6-1 0 2 0 3-1 2v-3c0-2-1-2-5-2-5 0-6 0-6 2 1 4 0 6-1 3-1-1-2-3-1-4l-3-1h-3m-144 6l-6 3c-10 4-23 21-19 25h1c1-2 4-1 4 0v2l1 2-2-1c-1-2-6 1-6 4 0 4 1 7 3 7l1 2-1 2v1l1 4 1 2 1-2c-1-2 0-7 1-6l1 1v7c1 2 2 2 3 1 1-2 2 1 0 3-1 2-1 3 1 1 2-1 5 2 4 4h-3v1c2 2 3 2 3 1l2-2v1c-1 1-1 2 1 3 1 1 1 1 1-1-1-3 1-3 4 0 1 3 1 3 3 1l2-3 2-1 1 2c0 3 3 5 5 2 1-2 5-3 5-1l-2 1c-2 0-2 1-2 2l1 2h3c1 0 2 0 1-1v-3c2-3 3-3 3 0s2 3 2 0c1-2 1-2 2-1 2 3 3 2 2 0 0-2 0-2 2-2 1 1 2 1 1-1 0-3 2-4 5-2h1c1-1 0-1-1-2-2 0-2 0-1-2l2-2h2c2 2 2 2 4 0s1-4-1-2h-2c0-3 3-5 4-4 1 2 3-3 4-11a36 36 0 00-45-37m348 13h-3c-2 0-2 1-2 3a288 288 0 012 12c1 2 6 1 7 0l1-2 1-3c2-4 2-6-2-7-2-1-2-1-1-2s1-1-1-1h-2m-345 4c0 2-1 3-2 3v4h-1c-5-1-5-1-4-3l-1-2c-2 0-1 4 1 6l1 3v1l1 1v4l1-1c1-2 1-2 3-1 1 1 2 0 4-1 2-2 2-2 0-2-1 1-3 0-4-1-1-2-1-2 1-2l3-1c0-2 2-1 2 2 1 2 1 3 3 3 1-1 1 0 2 1l3 5c3 2 3 2 3 0l-2-2v-1l2-2 1 2 2 1v1c-2 1-2 2-2 3 1 1 2 0 4-2l4-4 1-1c0-3-1-5-2-5l-4-2-3-3-2-1c1-2-5-5-7-4-3 1-8 1-8-1v2m161 2l-4 1c-4 0-4 0-4 2v3c0 2 0 2-1 0v-4l-3-1h-4l3 6c3 6 3 8 0 8l-1 2h4l4-8c3-7 5-8 5-2 0 4 2 6 5 5 2 0 3-2 1-2s-2-1-2-3c0-3 0-4 2-4l1-1-1-1-2-1-1-2-2 2m-40 1c-3 0-2 2 1 2l3 1-2 1c-2 0-5 4-5 5 1 2 2 2 7 2h4l-2-11h-6m12 0c-2 0-3 2-1 3v7c-1 1 0 1 6 1s7 0 6-1l-1-6-1-4h-9m46 0l-1 6v5h10c8 0 10 0 9-1l-1-5c0-5-2-7-5-5h-12m135 1v4c1 3 1 3-1 3-2-1-3-1-3 1s1 3 3 3c4-1 8 0 8 2 0 1-1 2-7 2h-6v-9l-4 6-1 1-2 3c-2 4-1 5 3 4l5-1h2l4 1c4 3 5 4 2 3l-2 1 3 1 2 2c0 2 0 3 2 3l4 2 4 2h3l1 1-1 2-2 1 1 2c3 0 3 0 3-3l2-5 2-5v-3l-3 2c-4 3-5 1-3-4 2-3-1-6-4-3-2 1-3 6-1 6l1 1 1 4c1 3-3 1-6-4-3-4-3-4-2-5l2-4c0-2 0-2 3-1l3-1-3-6v3l-3 1-2-1 2-1c1 0 2-2 0-3v-1l-2-1-3-3c-2-4-3-4-5-3m-203 43v8h54v-16h-54v8m-83 4l-6 4 2 2 2 2-3 1c-3 1-3 1-3-1s-6 0-8 2l-7 2c-6 2-7 2-12 0l-7-1-1-1 4-2 3-1-5-2-4-2-3 3-7 3-4 1v22l9-4c7-4 7-4 15-4 17 2 30-6 41-24 3-4 0-4-6 0m17-2l-3 5c-3 4-3 4-2 7 2 5 6 6 15 1l9-3c1 0 4-4 4-6l-2-2-4-2c-2-1-2-1-1 2 0 4 0 4-3 4l-5 2 1 1c4-2 9-2 9-1l-3 1-3 1-1 1-2 1-4 2 1-3 1-2-1 1h-5c0-1-1-1-1 1h-2c0-2 0-2-1-1h-1c0-2 0-2 2-2 1 1 2-1 0-1-1-1-1-1 1-2 1 0 2-1 2-3 1-3 1-3-1-2m312 20c-10 1-10 2-1 2 6-1 7-1 6 1h-1l-1 1-1 1h-2c0 3-2 3-3 1-2-1-2-1-2 1-1 2-1 2-3 1l-2-2-3-1c-2 0-2 0 0 1l2 2c0 2-3 1-4-1-2-3-5-3-5 1-1 2 1 4 6 4 2 0 2 0 2 2-1 1 0 1 1 1l2-1c-1-1 0-1 2-1 4 0 9-3 12-7 3-6 3-7-5-6" fill="#d3d3d3" fill-rule="evenodd"/></svg>