<svg xmlns="http://www.w3.org/2000/svg" width="400" height="151"><path d="M0 35c0 28 0 35 2 37v12a7622 7622 0 0010 5c4 1 4-2 4-47V0H0v35M79 2l7 20c7 22 8 24 11 24 4 0 5-3 9-13l4-10v-3c1-2 1-2 2 1l2 3 1 1v1l1 2h1c1-2 1-2 2 1l1 4 2 2 1 2c0 4 0 5 1 3s1-2 1 0v4l-1 3-1 2-2 2h1l3-1c3 0 3 0 2 4l-1 5-1 4-2 5-1 2c2 0 1 3-1 4l-1 3v3l-1 2c2 4-3 6-7 3l-5-1-5-2c-4-5-11-7-17-6-6 0-11 2-11 4h3c2-1 4-1 2 1s-1 3 4 3c4 0 5 0 6 2s-2 3-13 3h-7l1-4c0-6-11-42-14-43-3 0-4 4-4 26v20h-8c-9 0-9 0-9 5 0 2-1 3-2 3-3 0-3 1 0 5 2 3 3 4 6 4l26 11a13703 13703 0 0059 31c4 2 5 2 38 2l35 1c0 2 86 2 86 0v-4l2-5c2-3 3-2 6 3h1c0-3-2-9-3-8l-1-2c0-2 0-3 2-2l2 1 2 5c3 5 2 10 0 9-2 0-4 2-4 3l45 1h45l7-7 10-10 3-3v9c1 9 1 8 1-4 0-10-1-13-2-14v-4l1-59V0H239C95 0 79 0 79 2m14 85c-3 2-5 4-7 9-2 4-2 4-1 17 0 2 1 2 6 2 7 0 7 0 8-3 2-3 2-3 1-4-2-2-2-2 0-3l4-5 3-5c2 0 1-4 0-4l-3-2c-2-2-9-3-11-2m70 8l1 4h39v-3c-2-3-2-3-15-3l-19-2h-6v4m-7 11l9 6c8 3 9 3 6-4-2-6-4-7-11-7h-7l3 5m19-3c1 0 2 1 1 2h-2c-2-2-3-1-1 3l3 5c1 4 2 2 1-2-1-5-1-6 1-2 1 3 2 4 3 3 1 0 2 0 3 2 0 4 9 5 10 2 1-2 2-2 3 0s2 2 4 2c3-1 3-1 3-6v-5c3 0 0-3-3-3l-26-1m32 2c-2 1-1 2 2 2h4l-1 1c-1 0-2 1-2 3s0 2 9 2h9v-3c0-3-1-4-3-4l-18-1m-46 10l1 6 2 11a4927 4927 0 015-5c0 4 0 4 1 1 0-3 2-4 2-1h1c0-1 0-2 1-1v-7l-6-3-6-2-1 1M8 124l-6 2-1 13v12h70l-4-3c-4-2-10-4-11-3l-2-1c-2-2-2-2-3-1 0 1-1 2-3 2s-2 0-2-3c0-4-1-5-12-11-19-10-20-11-26-7" fill="#d3d3d3" fill-rule="evenodd"/></svg>