<svg xmlns="http://www.w3.org/2000/svg" width="155" height="34"><path d="M59 5l-1 14v14h7v-7c0-7 1-7 3-7s3 0 3 7v7h7v-8c0-7-1-9-2-11-3-2-8-3-10-1-1 1-1 0-1-4 0-5 0-5-3-5l-3 1m75 14v14h7v-9l3 4c3 4 3 5 7 5s4 0 0-6c-3-5-3-5-2-7 6-9 6-8 2-8-3 0-4 1-7 4l-3 4V4h-7v15M0 19v14h7V17l3 8c3 7 3 8 6 8s4-1 6-8c3-10 4-10 4 0v8h6V5h-9l-3 8-4 8-4-8-3-7-4-1H0v14m39-5c-8 5-6 16 3 19 13 4 20-14 8-20-3-1-8-1-11 1m44-1c-2 1-2 1-1 4l5 1 4 1c1 1 0 1-3 1-6 0-10 4-8 9 2 4 5 5 13 4h6v-9c-1-7-1-9-3-10-2-2-9-3-13-1m17 1l2 7 2 8c1 4 1 4 5 4s4 0 5-4l1-5c0-3 2 0 3 5 1 3 1 4 5 4h4l2-9c4-12 4-12 0-12s-4 0-5 7l-2 4c-3-12-3-11-6-11s-3 1-5 7l-1 7-2-7c-1-6-2-7-5-7-2 0-3 0-3 2" fill="#d3d3d3" fill-rule="evenodd"/></svg>