<svg xmlns="http://www.w3.org/2000/svg" width="172" height="35"><path d="M5 4c-8 7-5 21 6 23 8 1 14-5 14-14 0-3 0-3 3 4 4 9 4 12 1 12l-2 2c0 2 1 2 4 2h4l3-12c3-6 4-11 5-10v3c1 2 2 3 6 4l5 3c0 2-4 2-6 1l-4-2c-2 0-2 1-1 3 2 4 7 5 12 3 4-2 4-2 4-6 0-3-1-4-5-5l-6-3h11c0-4-10-7-14-3h-2l-2-2c-3 0-3 1-5 6-2 7-2 7-4 0-1-5-2-6-4-6s-3 0-3 2l-2-2C20 1 10-1 5 4m56-2v22c0 2 7 3 7 1l-1-2V7l-1-2c0-3-4-5-5-3m40 1c-2 1-2 3-2 12v11h9c8 0 9 0 9-2s-1-2-6-2h-6V12c-1-11-1-13-4-9m34-1v11c1 11 2 13 10 13 3 0 5 0 6-2 6-8 1-20-8-16-3 1-3 1-3-3-1-4-3-6-5-3M9 7c-4 3-4 11-1 13 6 6 14-1 11-10-2-5-6-6-10-3m62 3c-3 3-3 11 0 14 4 4 12 3 14-1 2-3 1-4-4-2-4 1-7 1-7-1s1-2 6-2c6 0 6 0 6-3 0-5-3-8-8-8-4 0-5 1-7 3m21-2c-3 1-4 4-5 11v7h2c3 0 3 0 3-4 0-7 1-9 4-10 1 0 2-1 2-3s-2-3-6-1m29 0l-2 2c-1 2-1 2 4 2 7-1 9 1 2 2-5 1-7 3-7 7 0 6 9 8 14 3 3-2 3-14 0-16h-11m36 1c-4 4-2 8 4 9l5 3c0 2-4 2-6 1-1-2-6-3-6-1 0 4 8 7 13 5 7-3 6-9-2-11l-5-3h6l3 1c3 0 3-1 0-4s-10-3-12 0" fill="#d3d3d3" fill-rule="evenodd"/></svg>