<svg xmlns="http://www.w3.org/2000/svg" width="285" height="120"><path d="M50 42c-6 4-9 14-5 22 6 10 23 7 26-4 4-14-9-25-21-18m63 13l1 14h4c3 0 4 0 4-2l-1-2c-2 0-2-1-2-7s0-7 2-7l1-2-1-2c-1 0-2-1-2-3s-1-3-3-3h-3v14m46-13l-1 14v13h20v-2c0-3 0-3-7-3h-7V53c0-12 0-12-2-12l-3 1m41 10c0 13 1 15 7 17 10 4 18-8 12-18-3-4-6-5-12-3h-1c1-4-1-7-4-7h-2v11M53 47c-4 3-5 12 0 16 7 6 15-2 12-11-1-4-4-7-7-7l-5 2m19 1l4 11c4 12 4 13 0 14-3 1-2 3 2 4 5 0 5 0 10-15a1545 1545 0 013-15c-4 0-4 1-7 9l-2 7-2-8c-2-8-2-8-5-8l-3 1m23 0c-5 4-3 10 6 13 6 1 6 3 1 4l-4-1c0-2-6-3-6-1 0 7 16 9 19 3 3-5 0-8-8-11-5-1-5-1-4-3h5c6 4 10 1 4-3-3-2-10-3-13-1m31 1c-7 6-4 18 4 21 5 1 12-3 12-7 0-1-4-1-7 1-2 2-4 1-6-2-1-2-1-2 7-2h7v-4c-1-8-11-12-17-7m24 0c-5 2-6 5-6 13v7h6v-6c0-7 1-10 5-10 2 0 2-1 2-3-1-3-2-4-7-1m32 0c-3 4-3 4 5 3 8 0 8 2 0 4-5 1-8 4-8 8 2 5 7 7 14 5 4-2 5-4 5-12 0-6 0-7-2-8-4-3-11-2-14 0m42 0c-4 5-2 9 7 12 6 1 6 3 1 4l-4-1c-1-3-6-3-6 0 0 5 9 7 15 5 8-4 5-12-4-13-4-1-6-3-4-4s4-1 5 1h7c0-6-12-8-17-4m-17 4c-2 2-1 10 1 11 4 2 7 0 7-5 0-6-4-9-8-6" fill="#d3d3d3" fill-rule="evenodd"/></svg>