<svg xmlns="http://www.w3.org/2000/svg" width="123" height="33"><path d="M8 5c-11 7-6 23 6 23 8 0 13-5 13-13 0-4-4-10-7-10s-4 3-1 5c4 5 2 12-5 12-8 0-8-12 1-17l3-2h-3L8 5m59 6c-3 2-2 3 1 2l5 1c1 2 1 2-1 2-6 0-8 2-8 5l1 4h12v-6c0-8-5-11-10-8m19 0h-3c-2 0-2 0-2 7 0 6 0 7 2 7l1-4c0-5 1-7 4-7 2 0 2 0 2 6 0 4 0 5 2 5s2-1 2-5c0-5 1-5 3-5s3 0 3 5c0 4 0 5 2 5s2-1 2-3c0-10-3-14-9-11h-9m-47 1c5 12 6 13 8 13l4-5a1013 1013 0 011-9l-4 5-1 4-2-4-4-5-2 1m67-1l3 8c3 7 3 10-1 10l-2 2c0 1 5 2 7 0l4-10a705 705 0 012-10l-4 5-1 4-2-4-4-5h-2" fill="#d3d3d3" fill-rule="evenodd"/></svg>