<svg xmlns="http://www.w3.org/2000/svg" width="176" height="68"><path d="M57 24c-8 3-6 20 3 20 3 0 8-4 8-6 0-3-4-2-6 0-3 2-5 0-5-5 0-4 3-6 5-3 1 1 6 2 6 0s-1-4-4-6h-7m-44 4l-4 3-1 3 1 2 3 2c0 2 6 6 9 6 2 0 8-4 8-6l3-2 1-2-1-3-2-1c0-3-5-6-9-6s-5 0-8 4m57 6v9h3c3 0 3 0 3-3 0-4 0-4 3-4 2 0 2 0 2 4 0 3 0 3 3 3 2 0 2 0 2-9 0-10 0-10-2-10-3 0-3 0-3 3s0 3-2 3c-3 0-3 0-3-3s0-3-3-3h-3v10m20 0l-3 9h3l3-1h6l3 1h3l-3-10c-3-8-3-9-6-9-2 0-3 1-6 10m16 0c0 9 0 9 2 9 3 0 3 0 3-5l1-4 2 4c2 4 3 5 5 5h3v-9c0-10 0-10-2-10-3 0-3 0-3 5l-1 5-2-5c-2-4-3-5-5-5h-3v10m19 0c0 9 0 9 2 9 3 0 3 0 3-4l1-4 2 4c1 3 2 4 4 4h3v-9c0-10 0-10-2-10-3 0-3 0-3 5v5l-3-5c-2-4-3-5-5-5s-2 0-2 10m18 0v9h8c7 0 7 0 7-2s-1-3-5-3c-6 0-7-2-1-2 4 0 4 0 4-2 0-3 0-3-4-3l-4-1 5-1c4 0 4 0 4-2 0-3 0-3-7-3h-7v10m17 0v9h7c6 0 6 0 6-2 0-3 0-3-4-3h-4v-7c0-7 0-7-2-7-3 0-3 0-3 10" fill="#d3d3d3" fill-rule="evenodd"/></svg>