<svg xmlns="http://www.w3.org/2000/svg" width="198" height="73"><path d="M23 16c10 1 17 8 16 13-2 5-3 6-6 3l-4-4-1-2c0-3 0-3-3-3-1 0-2 0-1-1l-1-1c-3 1-2 6 1 7l1 1-6 5-3 4-2-3c-2-2-2-2-1-4 2-3-1-3-4 0v2h2c0 2 4 6 5 6l4-3c4-4 5-4 5 0 0 7-1 8-8 5s-8-2-3 6c3 6 3 6 0 7-2 1-2 1 1 1 4 0 5-1 3-4l-2-4-1-3 4 2c4 2 13 2 18 0 2 0 2 0 2 2v1c2-2 2-2 6 1l4 4 4 1h5l-4-2c-3 0-6-3-8-4-3-3-3-4-2-10 1-14-8-24-21-24h-5l5 1m66 10c0 2-1 2-3 2l-5 1c-2 2-3 2-3 0h-5c-3 0-3 0-3 5 0 4 0 5 2 5 1 0 2-1 2-4l2-4 2 1c-3 4 2 8 9 7 5 0 5 0 5-4 1-5 4-5 5 0 0 5 4 6 4 2v-2l1 2c2 2 6 3 9 2s2-2-1-2l-4-1 5-1c3 0 4 0 4 2l2 2 1-2 2-5c2-2 3-4 0-4l-3 1-2 2c0 1-1 1-3-1-4-3-8-2-10 2l-1 1c0-3-4-5-6-5-3 1-3 1-3-1 0-4-3-4-3-1m-30 3c-2 1-1 2 3 2 3 0 3 0 1 1-9 3-7 9 2 7 4 0 4 0 4-4 0-5-5-8-10-6m-20 4c-3 5-3 5-6 1l-2-2-1 4-1 6c-1 2-1 2 5 2 8 0 8 0 8-8 0-7-1-8-3-3m19 14c0 5 1 8 3 8l2-1 1-2 1 2c0 2 4 1 4-2v-2l1 2c2 4 8 4 8 0 0-3-3-5-6-3-2 1-2 1-2-1 0-3-2-4-3-1l-2-1h-2c-2 2-2 2-3 1 0-3-2-2-2 0m34 3l-1 3c1 3 7 3 7 0l1-2 1 2c1 2 4 3 5 0l2 1c3 2 7 1 7-2s-1-4-5-4l-6 1h-1c0-1-9-1-10 1" fill="#d3d3d3" fill-rule="evenodd"/></svg>