<svg xmlns="http://www.w3.org/2000/svg" width="100" height="47"><path d="M15 12v1l-1-1c-1-3-8 4-7 6 0 2 0 2-1 1H4c-1 2-3 7-1 7h1c0 3 4 2 4 0s0-2 1 0c0 2 1 2 2-1s1-4 2-3 2 2 1 3h-2l1 2c1 1 1 1 2-1l1 1h1l1-2v2l-1 2-1 1h-1l-2-1-1-1h-1c0 3 2 7 3 5 0-1 1-1 2 1v1c-3-1-2 1 1 2h5l-3-1c-2-1-2-1 1-1l4 1h2c2-1 3-3 0-2v-2l2-1c0 2 2 0 2-3v-2l-1 2v-1c0-5-3-8-9-8-3 0-4-1-4-2l2-1v2l2-2-1-2c-2 0-3-3-1-3 1-1 0-1-1-1-2 0-2 0-2 2m46 14c0 5 0 6 2 6l1-3c0-3 0-3 2-1h3c1-2 1-2 1 1 0 2 0 3 2 3l1-6c0-7-2-8-4-3l-2 2-1-2c-3-5-5-4-5 3" fill="#d3d3d3" fill-rule="evenodd"/></svg>