<svg xmlns="http://www.w3.org/2000/svg" width="400" height="225"><path d="M200 23l103 1 3 2 2 3v82a2225 2225 0 011 65v-16h23c26-1 26-1 22-8-2-6-4-7-7-7l-4-3c-5-8-15-9-20-2l-6 2-6 3-2 2v-26l1-25 2-1 4-2c0-2-4-10-6-11l-1-28V28l-3-3-3-3H98l102 1M93 27c-1 1-2 6-2 23 0 21 0 22-2 22-3 0-8 3-9 5-1 1-2 2-5 2s-9 4-9 7l-2 3c-2 1-2 2-2 4l1 3h28v48a527 527 0 002-32 989 989 0 010-85m13 7v3h190v-6H106v3m0 7l95 1 94-1c0-2-11-2-94-2-84 0-95 0-95 2M17 56l-3 2-3 2c-3 0-7 4-7 6l-2 1-1 3c0 2 1 3 18 3 20 0 21 0 17-7l-5-4-4-3c-3-3-6-4-10-3m326 1l-2 2-3 1c-3 0-8 8-7 10 1 1 24 2 27 0 4-1 2-5-5-10-5-4-6-4-10-3M15 60l-5 2-4 3-2 3-1 2 17 1h16c0-2-4-7-5-8l-5-3c-3-4-7-4-11 0m327 0l-4 2-3 3-2 2-1 1 13 1h13c0-2-2-6-4-6l-3-2c-3-4-6-4-9-1m-92 6c0 2 1 2 15 2 13 0 14 0 14-2s-1-2-14-2c-14 0-15 0-15 2M86 74l-5 4c-1 2-3 2-5 3-5 0-8 2-8 6l-2 3c-2 0-3 3-2 4l14 1h13V84c0-12 0-12-5-10m291 45l-7 5-1 2-1 2c0 2 1 2 14 2l14-1c1-1-2-7-3-7h-2l-2-2c-4-4-6-4-12-1m2 1l-4 2-3 2-2 3c-1 2-1 2 12 2l13-1-4-5-4-2c-2-4-5-4-8-1m-350 2l-7 5-2 3c-3 3 1 4 15 4s15-1 12-6l-3-3-3-2c-4-4-6-4-12-1m2 1l-4 2c-1 0-3 1-3 3l-2 2-1 1 13 1 13-1-4-5-4-2c-2-4-5-4-8-1m296 15l-4 3c-1 2-2 3-4 3-5 0-8 2-9 7-2 8-4 7 21 7 24 0 26 0 23-4l-2-3c0-2-4-5-6-5s-3-1-5-4c-3-4-8-6-14-4m-24 59l-104 1a1917 1917 0 002 2 603 603 0 00102-3" fill="#d3d3d3" fill-rule="evenodd"/></svg>