<svg xmlns="http://www.w3.org/2000/svg" width="400" height="225"><path d="M123 28v11h77l77-1V16H123v12m1 0v10h152V17H124v11m26 53h-6c-4 0-4 0-8 4-5 5-5 5-5 11l1 8v6l3 5c2 6 2 5 1-7s-1-13 1-11l5 1 6 1 4 2v1l-1 1h6l-1-1 1-2 3-1v9c0 9 0 9-4 13-3 3-3 3-9 3-5-1-6 0-5 1 2 1 2 1-7 4-8 4-9 4-9 13l-1 6c-1 1 2 2 6 4 12 6 28 5 40-2 4-2 7-5 5-5l-2 2c-2 2-3 1-3-4 0-8-2-10-9-13-10-4-10-4-6-7 3-2 4-5 5-7l3-6V99c2-11-7-21-14-18m55 33v15h7a70852 70852 0 0096 0h3V98H205v16m1 0v14h104V99H206v15m5-9c0 2 1 2 35 2s35 0 35-2-1-2-35-2-35 0-35 2" fill="#d3d3d3" fill-rule="evenodd"/></svg>