<svg xmlns="http://www.w3.org/2000/svg" width="400" height="225"><path d="M156 103c-3 2-3 66-1 69 1 2 5 2 45 2l45-1c2-2 2-68-1-70-2-3-86-3-88 0m0 32v32l3-12c2-6 3-12 2-13 0-2 1-3 5-4l5-1c1-3 2-2 5 1s4 4 7 3c4 0 3 0 6-2l3-1 7-4h4c4 3 14 2 14-1l2-1c2 0 6-4 7-6l3-2 5-3c2-2 3-3 6-2h4v-16h-88v32m-77-21c-7 1-10 3-8 4v1c-3-1-5 1-4 2l-1 1h-1l-1 1v1l-1 1-1 1-2 2c-2 0-4 8-4 14 0 7 3 16 5 15h1v1l1 3c2 2 3 3 4 2 2 0 2 0 1 1-4 2 13 8 20 6 7-1 19-7 14-7v-1h2l1-1v-1c1 1 3-1 2-4h1c1 2 4-5 5-12 1-18-17-34-34-30m226 2c-7 3-11 7-10 9 0 2 0 2-1 1-1-2-2 0-1 3h-1c-2-3-5 11-4 18l1 6h3l-1 1 4 7c2 2 3 3 4 2 2 0 2-1-1-3-5-6-9-19-6-22v-2c-1-5 1-6 25-5l22 1h-45l22 1 23 1 1 4v10l-1 8h-1l-3 2c-6 8-19 11-28 7-3-1-6-2-7-1-2 1 0 2 2 1 2 0 2 0 1 1-2 1 2 3 9 4 3 0 3 0 1-1s-1-1 3-1 5 0 3 1l-3 1h3c6 0 17-6 15-8h1l1-1v-1c3 2 8-11 8-20-1-7-4-14-5-12-1 1-1 1-1-1 1-2-5-8-7-7l-1 1 2 1c1-1 1-1 0 0l1 1h1v1c3 2-1 3-19 3h-19l2-3c6-6 17-9 26-6 6 2 9 1 4-2-5-2-17-3-23 0m-232 3c-15 7-19 27-7 40 2 3 2 3 4 1l6-4 5-1-3-3-3-5-1-3-2-7c0-7 0-7 3-10s4-4 8-4c7 0 9 1 11 5 2 3 3 14 1 16l-1 2-3 5-3 4 5 1 6 4c3 5 10-8 10-18 0-19-18-31-36-23m3 23c1 8 3 11 8 11 6 0 8-3 8-11l-1-5-1 3c-1 3-3 4-3 2 0-3-4-6-7-6h-4v6" fill="#d3d3d3" fill-rule="evenodd"/></svg>