<svg xmlns="http://www.w3.org/2000/svg" width="400" height="225"><path d="M175 94c1 3 0 3-2 2-4 0-6 2-6 7 0 6 3 9 6 7h5c2 0 2 0 2-3V97c0-6 0-6-3-6-2 0-2 0-2 3m-49 0c-3 3-2 6 3 9 4 3 3 4-2 3-3-1-3-1-3 1 0 6 11 4 13-1 1-2 1-2 1 0 0 5 8 7 11 3 4-3 4-7 1-10-4-5-12-3-12 2l-1 2-1-1-3-3c-5-2-5-3-1-3 2 1 3 0 4-1 2-3-7-4-10-1m59 0c-4 3-4 10-1 14 6 6 16 2 16-7 0-8-9-12-15-7m17 13c0 10 0 10 2 10s3-1 3-4 0-3 2-2c3 1 6-3 6-8 0-6-4-9-8-6h-1l-2-1c-2 0-2 1-2 11m22-4c0 7 0 7 2 7 3 0 3 0 3-5 0-3 1-4 2-4s2 1 2 4c0 5 0 5 3 5 2 0 2 0 2-5l-1-7c-1-2-6-3-8-1h-1l-2-1c-2 0-2 1-2 7m24-5c-2 3-2 8 0 10 5 5 12 2 12-4 0-5-2-8-6-8l-6 2m14 5c0 7 0 7 2 7 3 0 3 0 3-5 0-3 1-5 2-5 2 0 2 1 2 5 0 5 0 5 3 5 2 0 2 0 2-6l-1-7h-9l-2-1c-2 0-2 1-2 7" fill="#d3d3d3" fill-rule="evenodd"/></svg>