<svg xmlns="http://www.w3.org/2000/svg" width="400" height="225"><path d="M189 40c-3 2-2 4 0 7l2 3-2 3c-5 6 2 11 8 6l2-2 1 2c3 2 7 3 9 1s1-5-1-8l-2-2 2-2c2-3 3-6 0-8-2-3-3-2-7 0l-3 3-2-3c-3-2-5-3-7 0m-69 26v5h-14v7l1 7h41l-1-3 2-2 1-1-1-1-1-6v-6h-7c-6 0-7-1-7-3s-1-2-7-2h-7v5m5-1v3l1 8v7h7V63h-3c-3 0-4 1-5 2m96 0c0 3-3 4-4 2-1-1-1-1-1 1 1 3 0 4-2 2h-1l1 2c1 1 1 1-1 1s-2 0-1 1l4 2 2 2-1-2v-4c3-2 4-1 4 2l1 4c1 1 1 1-1 1-3-2-2 0 1 1s5 2 7 1c4-1 8-4 6-4l-1-3c0-3 0-3 2-2 1 1 2 2 1 3h1c3-3-5-9-12-9l-4-1h-1m-82 4v6l1 4c0 4 0 4 3 4h3V67h-3l-4 2m145 1c-8 2-15 12-14 20 2 13 14 21 25 17 5-2 4-2-1-1h-4l-2-1c-1-1 0-1 2-1 3 0 11-4 10-5l-3 2c-4 2-11 2-15 0-8-6-8-19 0-24 6-3 12-3 17 2l4 5c0 3-1 2-3 0l-2-2 1 2c0 2 0 2-2 2h-10c-3 3 1 8 5 5h5c2 0 2 0 2 2l-1 3 2-3c2-3 4-2 2 2l-1 3 3-3 2-4c2 0 2 2 0 6l-2 4c0 1 4-4 4-6h4c6 0 7-1 4-4-2-2-2-3 0-5l2-2-2-1h-5c-3 1-3 1-3-1l-1-3v2c1 4 1 4-1 5l-2-3c-2-6-9-10-15-10-1 0-2 0-1-1l2-1c1-2 8 1 12 5s6 3 1-1c-5-5-12-7-19-5m1 8c-11 6-6 24 7 22 5-1 5-3-1-2h-4l4-2c5-3 5-4 1-3-6 2-10-3-7-8 2-2 3-2 6-2h2l-2-1-1-1-2-1c-1-1 0-1 2-1l5 1 1 1v-1c-2-3-7-3-11-2M165 93l-13 1-15 1 1 1a1504 1504 0 01112-2l-11-1h-1a488 488 0 01-73 0m-30 5c-2 2-1 3 3 3h4v13c0 46 0 49 2 51l3 4c1 2 1-2 4-21l3-19c0-2 0-2-2-1-2 0-2 0-2-2l2-2c2 0 3 0 2 2h2c3-3 3-2 2 2-2 4-3 10-1 10l2-3 2-9c3-8 10-14 8-8 0 2 0 2 1 1s1-1 1 1l3-5 4-6h2c0 1-4 14-8 22-2 7-2 10 1 6l2-5v-1l3-3c2-6 5-9 7-9l1 3v2l1 2-1 2c-1 0-2-1-1-2 0-2 0-1-2 1v7c-1 1-1 1-1-1 0-4-5 10-5 17v4l1-3v-4l1-3 1 1h1v-3c-3-1 0-5 3-5h2l-2 2-2 2 3-1c4-3 6-2 3 2-4 7-7 16-6 19l1 3h16c15 0 19-1 16-2h-1l-15 1h-14l-1-4 1-7 1-3h22l2 4 2 3-6-12 1 2c0 2 0 2-10 2-9 0-10 0-10-2l1-2h9l9-1-8-1c-7 0-7 0-7-2v-3h10c9 0 10 0 10 2v4l3 5 2 1-1-3v-2l2 6v2l1 5c1 2 1 2 1-2 0-5-2-13-7-25l-4-12c0-3 3 0 6 6 3 4 4 6 5 5s1-2-1-7l-3-7c2-1 4 1 8 9l5 8v1c0 3 2 7 3 6s0-6-1-5v-1l-2-7c-5-9-3-11 2-4l3 3h1l1 1-1 1-1-1 5 13c2 2 1-4 0-9-3-8-1-10 2-2 2 5 6 27 6 36l1 4 4-1 3-2h-3c-3 2-4 1-5-10-1-10-1-10 1-12 2-1 2-4-1-4l-2-1 2-2 2-1v-30l-49-1-49 1-1 21c0 22-1 40-2 40-3 0-3-3-3-34v-31h110v32l1 32v-64h4c3 0 4 0 4-2h-1l-64 1c-55 0-63 0-62-1 0-2 0-2-1-1m-34 19l-3 3c-2 0-4 2-5 4l-3 4v1l2 2c0 3 6 7 9 7 9 0 13-12 5-17l-3-4h-2m196 11h2v1c-2 1-2 3-2 8 0 4 0 6 1 5h1l6 1 6 1h1l6-1 5-1 1-1 1 1v1l1-8c0-4 0-7-1-6h-1v-1c1-1-4-1-13-1l-14 1m-32 14c-5 2-8 9-5 14l2 1 1 1v9c-1 2-1 2 1 1l3 1h3c0-1 1-2 2-1l1-1 3-1c2 1 2 1 1-2l1-6 2-4 1-2v-2l-1-3c-2-5-10-8-15-5m1 3c-7 4-2 15 6 13 2 0 3-3 1-4h-1c0 3-3 2-4-1-2-3-2-4-1-5 2-2 5-1 5 1s1 2 3 0c4-3-5-7-9-4m-166 15l-1 6v1l1 5v5h36v-22h-36v5m1 5l1 9 6-4 5-4-2-2-6-4-4-3v8m9-4l7 5c1 1 14-7 14-9h-27l6 4m0 9l-5 4c-1 1 5 1 13 1h14l-5-4c-5-3-6-4-7-3h-4c-1-1-3 0-6 2" fill="#d3d3d3" fill-rule="evenodd"/></svg>