<svg xmlns="http://www.w3.org/2000/svg" width="400" height="225"><path d="M248 69v1c-1-1-3 1-5 4-4 4-4 4-10 4l-6 1-1 14 1 16h40c4-1 1-1-19-1h-21V83h41v11l1 13V79l-7-1c-5 0-6 0-9-5-4-4-7-7-5-4m-109 2c-4 2-2 2 4 1 10-2 19 5 19 16 0 12-13 20-24 14l-4-2 3 3c10 6 23 0 26-11 4-13-11-26-24-21m12 10l-2 2-2 2-2 1-2 1-2 1c-2 0-3 0-3 2l-2 2-2 2c0 3 0 3 11 3h10v-9c0-8 0-9-2-9l-2 2m35 8l1 2c1 2 0 2-3 4l-6 3c-1 2-2 2-2 1-1-3-4-2-5 0v2l1 1v1c2 0 2 1 0 4l-1 9c1 4 5 12 7 12l-1-3c-3-4-2-5 1-1l2 4c-2 1 4 4 10 5 8 0 12-2 17-8 4-5 5-15 3-20-2-3-2-4-1-4 2 2 3-2 1-4s-2-2-4-1c-1 2-2 2-4 1l-5-3c-4-1-4-1-3-4 0-3 0-3-3-3s-4 1-5 2m-3 11c-17 11-2 37 16 27 11-5 10-22 0-27-5-3-12-2-16 0" fill="#d3d3d3" fill-rule="evenodd"/></svg>