<svg xmlns="http://www.w3.org/2000/svg" width="400" height="225"><path d="M70 19l-3 4v67h-4c-4 0-7 1-8 5-2 3-3 9-1 9l1 1 3 4 3 3 3-4 3-3v18c0 16 0 18-2 18l-2 4c0 2-1 3-7 3l-7 1-1 19a118 118 0 01-1 23l-1 2-2 1c0 2 0 2 3 0 4-2 8 0 9 5 0 3 0 3 2 2 2-2 9-2 12 1s6 4 11 4c3 0 4 0 3 1l-25 1H35l-1-3c-1-3-1-3-1-1l-2 4-1 3c1 2 19 2 173 2h173l-1-3 2-5 1-11c0-12-1-15-6-14-3 1-4 0-4-6 0-5-1-6-10-6h-7v-10c0-10 0-10 2-11 4-2 3-6 0-5l-3-1c0-2 3-4 7-4 3 0 4-1 4-3s-1-2-4-2h-4l2-5c1-3 2-4 4-5a2110 2110 0 007-3c0-2-1-2-4-2s0-5 4-8c4-2 6-5 4-8-3-3-7 1-9 7l-3 9c-2 5-2 5-4 3-2-3-4-2-4 3 2 6 1 9-1 18-3 9-3 10-4 5-1-6-1-8 2-10 4-3 4-7 0-6-4 0-3-7 1-11l4-3c1 0 3-5 2-7l-3-1c-5 1-4-3 2-5 6-3 6-9-1-7-3 1-3-1 1-6 3-5 4-6 2-8-4-3-7 0-7 8 0 5 0 5-2 3-1-1-2-2-5-2h-4l-1-6c0-8 0-8-14-8h-11v-9c0-10-1-12-7-13h-4l-1-17V22l-4-3-3-3H74l-4 3m5-1c-2 0-3 2-4 3-2 2-3 4-3 88 0 91 0 90 4 94a2422 2422 0 00186-2c-11 4-27-6-27-19 0-12 13-21 24-15 3 1 11 10 12 13s6 0 7-4c1-8 3-10 2-2 0 4-1 5-3 7l-2 1 2 2c2 1 3 2 3 6l1 6h90v-12l-1-14-45-1-34-1h11v-46l-26-1c-28 0-29 0-29-5 0-4-2-6-7-6-6 0-7-1-7-8 0-5 0-5-3-6-3-2-4-3-1-4h1c-1 1 0 2 2 3s2 2 2 6l1 7c2 2 101 2 103 0V79c-2-2-101-2-103 0l-1 6c0 4-1 5-2 6v-1l1-6c0-7-1-7 36-7h33V24l-3-3-3-3-108-1-109 1m7 11v3h203v-6H82v3m0 7c0 2 1 2 101 2s101 0 101-2-1-2-101-2-101 0-101 2m154 28v2h31v-5h-31v3m-40 11c-14 4-18 21-8 32 9 10 27 5 31-9 4-13-9-27-23-23m12 6c2 2 1 11-1 14-1 1-1 1-1-3 0-5 0-6-2-6-1 0-2 0-1 1 2 0 2 5 0 5l-1 1c1 2-1 4-3 3s0-5 2-5l1-1c1-1-1-3-3-2l-1 3-1 1-1-1c1-1 0-2-1-3s-1-1-1 3c1 6 3 7 8 7 3-1 3-1 2 1-1 1-1 1 1 1v1l-1 2-1 1-1 2 1 2 1-1h2c2 0 2 0 2-2s0-2 1-1c1 2 1 2 3-1 5-6 5-14 0-20l-4-3v1m-18 3c-4 4-5 10-3 15 2 4 5 7 5 5l1 1 2 2h1l2 1 1-2-1-2-1-1-1-2v-1c2-1 2-1 0-2-3-2-4-5-4-11s0-6-2-3M57 95c-3 3-3 6 1 10l3 3 2-2c3-2 3-4 3-8v-6h-3c-3 0-4 1-6 3m162 23c0 1-1 2-3 2-2 1-3 2-1 4 1 1 2 2 1 3l1 2 2 1h5c2 1 2 1 2-1l1-4c2-1 0-5-3-5l-2-1c0-2-2-2-3-1m81 6l-1 24v20h11v-3c0-3-1-4-5-4l-3-1c3 0 2-38 0-39-1 0-2 1-2 3m12-1l-1 23v22h26v-8l1-11c0-1 0-2-3-2-5-1-7-3-5-6l4-1h2l-5-1c-5 0-5-1-5-3s0-2 3-2c4 0 5-1 2-3-1-2-1-2-5 0-5 2-7 1-7-3l4-3 4-1-2-1c-4-3-13-3-13 0M89 135c-5 2-8 5-6 5v1h-1c-1-2-5 5-5 10 0 6 2 10 7 15 9 8 19 7 26-1 4-4 5-6 4-10 0-2 0-2 3-1 1 1 2 2 2 5l1 5c1 1 1 0 1-4s0-5-3-7l-4-2c0 1-4-6-3-7l2-1 1-2c0-1-2-2-5-2l-7-2c-4-3-9-3-13-2m32 4l-2 6c0 3-1 4-2 4l-1 2c2 1 5-2 5-7l1-4h90v25h-46a380 380 0 00-39 2h5v4l1 4c0 2 87 1 89 0v-24l-5-1c-2 0-3 0-3-3v-4l-1-4-2-2h-44c-43 0-44 0-46 2m-34 1c-5 3-7 9-7 13 1 5 5 10 6 8h1c0 2 4 4 5 2l-1-2-1-2c0-1 0-3-2-4-5-6-2-15 6-16l4-1h-4l-7 2m12 1c4 3 3 15-1 15v-1c2-2 1-4-1-3l-2 1h-4c-2-3-3-2-2 0l4 3 5 1c1 2 1 2-2 2-2 0-2 0-1 1v3l1 1h2l2-1 1-1c4 1 7-11 5-17v-2h1l-1-1h-1l-3-1c-3-2-6-3-3 0m243 10h-3v8l1 9h10v-18h-3l-5 1m-102 20c-8 5-7 19 2 23 4 1 4 1 4-1 0-3-2-4-4-2-2 1-2 1-2-6 0-11 2-15 8-15 5 0 7 4 7 13 1 9-1 12-3 8-2-3-4-2-4 1 0 6 8 3 12-4 6-12-8-24-20-17m-127 1l-3 2c-2 0-2 0-1 2l1 4 1 3v1c-1 1-1 1 1 1l3-1 2-1 1 1 1 1 1-1 1-4c1-3 0-6-2-6l-3-2-2-2-1 2m-57 13c0 9 1 13 5 13l1-10v-11h-6v8m212 0v3c-1 3 1 8 4 8l2 2 1 1v2c-3 3-2 3 5 3s7 0 7-3c-1-3-2-4-7-4s-6-2-6-7c0-3-1-4-2-5-3-2-4-2-4 0m-150 26" fill="#d3d3d3" fill-rule="evenodd"/></svg>