<svg xmlns="http://www.w3.org/2000/svg" width="400" height="225"><path d="M193 32c-16 5-20 25-7 35 6 5 18 5 23 1 18-14 5-41-16-36m-1 7c-13 7-9 26 6 26 14 0 19-17 8-25-4-3-10-3-14-1m2 4h-3c-2 0-5 4-5 7 0 4 7 11 11 11 3 0 2-1-1-3l-4-3-2-4c-1-3-1-4 1-5l4-1c4-2 8 0 10 5l1 4 1-3c0-6-8-11-13-8m-1 6c-2 4 0 8 6 8h5l-1-4c0-7-6-10-10-4m-55 6c-2 2-10 20-10 23 0 2 3 2 5 1h1c0 2 3 1 12-2s10-4 8-8c-1-3-2-3-3-3-2 1-3 0-1-1 1-1 0-4-2-4-1 1-1 1 0 0l-1-1h-1l-1-2v2h-3c-1 1-1 0-1-3 0-4-1-5-3-2m115 1c-6 0-6 1-6 13l2 12c3 1 18 0 19-2s0-21-1-22-10-2-14-1m-1 5h-4l1 8c0 12 0 11 9 11h9V61l-5-1-10 1m4 1c-6 3-4 11 2 11s8-6 3-10c-3-2-3-2-5-1m-68 28c-8 1-9 4-10 20-1 15-1 14 6 23l7 6c6 3 4 6-3 5-5-1-6 0-11 15-7 16-6 19 2 17h4v16h-10c-11 0-11 0-11-3v-4c0-2 0-2-3 0l-4 3-1 1-2-1c-3-3-3-4 0-2h1c-1-2 0-3 2-5 3-3 3-4 2-6l-1-1-2 1c-3 0-3 0-3-4l-1-11c0-8 0-8 2-8 1 0 2 0 2-3 0-2 1-3 3-3 4 0 4 8 0 8v1l3 2c2 1 3 0 1-2v-3c0-3 0-3 3 3 3 7 3 18 1 23l-2 4 3-3c2-4 3-13 1-19v-5c2-1 1-42-1-46-8-18-32-17-38 1a187 187 0 001 47c-1 3 0 2 4-4l2-4v3c0 5-2 8-6 8-3 0-4-1-3-2 0-2 0-2-3-2-2 0-3 0-2-1l-6-1c-7 0-6-1 1-1 5-1 7-2 6-3a201 201 0 00-41 1l-2 1v3c-2 1 0 2 4 2 2 0 3 0 2 1l-1 2c1 2 0 3-2 3l-3 1-2 1c-4 0-2 3 2 3 2 0 3 0 2 1l-2 1 1 1h1l-1 1c-3 0-2 3 0 3s2 0 1 1l-2 1c1 1 0 2-1 2-3 1-2 3 1 3s3 0 3 5l-1 5h-8c-7 0-9 1-10 2h1l134-1 127-1h-7v-7l1-10c2-4 3-10 2-12s-1-2-3 0l-2 2-2-4c-3-5-4-5-1 1 1 4 1 13-1 15-1 1-1 0-1-6 0-4 0-7-1-6l-1 2v6l1 4c-1 1-1 1-2-1-1-4-1-10 1-15l1-4h-23c-22 0-23 0-24-2 0-2 0-2-1-1s-1 1-1-1l-1-3-1 1v3c2 1 2 2 1 3l-3 11-3 9-1-21 1-2c0-2 1-3 2-3l-1-1c-3-2-3-3 1-5 5-2 10-7 11-11l1-4v-5l1-5c2-1 2-2 2-6-1-5-3-12-5-11l1 3c3 4 4 12 2 12s-8-4-9-7l-2-2-3 3-3 2-1-2-1-3c-5 3-11 7-10 8 1 3-3 6-6 5-3 0-4 1-5 5v-7l2-12c1-6 0-6-2-2-2 5-2 24 0 26v-1c0-3 0-3 1-2 2 1 3 6 1 5-2-2-1 1 1 2 3 2 3 2 2-2-1-3-1-4 1-5 1-1 1-1-1-1-4 0-3-3 1-3l9 3 5 1 5 1h12v3c-3 12-19 16-28 7l-3-1c0 1 5 6 7 6 3 1 0 4-4 4-5 0-5 1 0 1l4 1h1c0-3 1-2 4 0v3c-1 1-1 1-2-1h-2l2 3c2 2 3 19 1 20l3 2c4 1 5 2 5 3 0 4-1 5-5 4h-3v6l-6 1h-7v-16l3 3 3 3-2-4-4-6-1 9v11h-16v-16h3c4 1 7-1 7-3l-11-29h-10l-1 3-1 3-3-4c-5-4-5-5-1-5 2 0 3 1 2 2 0 2 0 2 1 1l2-2 3-3 3-1h-4c-5 3-9 2-14 0-8-4-9-7-9-21v-11l3-1 6 2c3 3 10 3 15 0l6-2h3v11c0 8 0 12-2 14-1 4-1 5 1 3 4-4 7-11 6-14l-1-13c0-10 0-10-3-13-2-2-4-3-7-3a6589 6589 0 01-22 0m109 16c-10 1-12 1-10 3l1 8c0 7 0 8 4 8 2 0 3 1 3 2 0 3 3 2 4 0l2-2 3 2c1 3 3 3 3 0l3-3h3v-17c1-2-2-2-16-1m-191 3c0 2-1 2-3 2h-3l3-1c2-1 2-1-1-1-5 0-6 1-7 3 0 2 1 2 5 2h5l-5 1c-4 1-4 1-1 1l3 1h-3c-3 0-3 0-2 1v5c0 4 0 5-2 5-1 1 2 1 7 1 6 0 8 0 9-2 3-2 2-4 0-4s-3-1-3-2 0-2 1-1l2-1c1-2 0-3-2-3l-1-3c0-3-2-7-2-4m189 1l1 2c-1 3-6 2-5 0l-1-2v13h1l9-1h9l-7-1-8-1c-1-2 1-4 2-4v2h2v-3l7-5-6-1c-3 0-5 0-4 1m-40 3c-3 2-6 3-6 0 0-2-6 2-7 4l-2 4-2 3 2 1 5-1c2-2 4-3 4-1l2 1 2 1c0 2 5 2 8 0 2-2 2-2 3-1h3c0-1-1-2-3-2s-4-2-2-4l-2-4c-3-3-3-3-5-1m-112 3c-1 2-2 2-4 2-4 0-4 0-4 3s0 4 3 3c2 0 2 0 2 2l-3 1c-4 0-3 9 1 12 6 4 16 4 20 0 3-3 3-3 3-12v-9h-8c-7 0-8 0-9-2l-1-2v2m-7 34c0 3 0 4 2 4s2 0 1 1c-2 0-5 3-5 4l6 1c4 0 5 0 5-2l1-4c0-2 0-2-2-2h-2l-1-3h1c1 1 2 2 3 1 2 0 2 0 0-2-1-2-2-2-2-1h-1l-3-1c-3 0-3 0-3 4m-43 1l9 1H81l8 1c11 1 12 2 1 2-9 0-8 1 7 1l18 1h-14c-12 0-13 0-6 1l7 1h-8c-8 0-8 0-4 1h15c8 0 10-1 6-1-4-1-3-1 5-1l6-1-5-1-8-1c-4 0-5-1-3-1 3 0 4-2 1-2l7-1c5 0 2-1-11-1s-16 1-10 1m168 15l-3 15-2 7h47v-5l-1-8c-2-4-3-10-2-12s1-2 3 0c3 2 3 2 3 0l1-3c1-2 0-2-21-2h-23l-2 8M99 177v15h41l3-3c3-2 3-2 3-15v-13h-11c-11 0-12 0-13 2l-3 2-4-2c-2-2-3-2-9-2h-7v16m205 8v6h5c8 1 8 1 8-6v-6h-13v6m27 9c-1 2-15 2-134 2l-132 1h133a1210 1210 0 00133-3" fill="#d3d3d3" fill-rule="evenodd"/></svg>