<svg xmlns="http://www.w3.org/2000/svg" width="400" height="225"><path d="M0 113v112h215l8-11 15-21 8-10 13-2c13-2 17-4 19-7 1-3 1-2 3 12s3 16 7 19c4 4 7 4 37-2 31-5 31-5 32-7 1-1 1-1-1-1-8 2-52 9-54 8-5-1-8-2-10-5a1524 1524 0 01-22-175c3-3 11-2 14 3l3 3 15 2c16 2 16 2 16 0 0-3 1-3 6-2s8 4 10 11l1 6v-6c-1-3-1-6-3-8-3-4-4-4-13-6l-3-1 3-12 3-12-161-1H0v113m307-53l1 3c0 1 1 2 3 2 8 2 16 13 16 22 0 5 4 10 6 8 3-2-1-18-7-25-6-8-21-16-19-10m-50 44l-9 19 13 6 13 7-7-49-10 17M42 141v9h6c11 0 16-4 12-8-2-1-2-2-1-4 2-4-2-6-10-6h-7v9m52-6c0 4 0 4-3 3-4-2-8 1-9 5 0 5 3 7 10 7l5-1v-8c0-6-1-8-2-9l-1 3m10 3c-5 2-5 9-1 11h6c4-1 5-1 3 2-1 2-7 3-9 1l-2-1c-2 3 8 5 12 2 3-2 3-15 0-15h-9m17 1c-5 4-2 11 4 11 4 0 8-2 7-4l-2 1c-2 2-7 1-9-1-1-1-1-2 5-2 8 0 8-1 5-5-3-3-7-3-10 0m-76 32c-5 9-6 12-2 7 4-4 12-4 14 0 1 2 3 3 3 2l-10-18-5 9m21-3c-3 0-3 0-3 9l1 8 1-4c0-3 0-3 2-2 5 2 10-1 10-5 0-5-4-7-11-6m18 0h-3v9l1 8 1-4c0-3 0-3 2-2 3 2 7 1 9-1 5-6 0-12-10-10m46 0c-1 2-1 2 4 1l5 1c0 2-1 2-4 2-6 0-9 4-6 7h11l2 1c2 0 3-2 1-2-1-1-2-2-2-5 0-6-6-8-11-5m34 0c-7 3-5 12 4 12 4 0 7-2 7-6 0-6-5-8-11-6" fill="#d3d3d3" fill-rule="evenodd"/></svg>