<svg width="18" height="18" viewBox="0 0 18 18" fill="none" xmlns="http://www.w3.org/2000/svg">
<path fill-rule="evenodd" clip-rule="evenodd" d="M5.31818 0C2.38602 0 0 2.38602 0 5.31818V12.6818C0 15.614 2.38602 18 5.31818 18H12.6818C15.614 18 18 15.614 18 12.6818V5.31818C18 2.38602 15.614 0 12.6818 0H5.31818ZM5.31818 0.818182H12.6818C15.1717 0.818182 17.1818 2.82826 17.1818 5.31818V12.6818C17.1818 15.1717 15.1717 17.1818 12.6818 17.1818H5.31818C2.82826 17.1818 0.818182 15.1717 0.818182 12.6818V5.31818C0.818182 2.82826 2.82826 0.818182 5.31818 0.818182ZM13.0909 4.09091C13.0909 3.63904 13.4572 3.27273 13.9091 3.27273C14.361 3.27273 14.7273 3.63904 14.7273 4.09091C14.7273 4.54278 14.361 4.90909 13.9091 4.90909C13.4572 4.90909 13.0909 4.54278 13.0909 4.09091ZM9 4.5C6.51956 4.5 4.5 6.51956 4.5 9C4.5 11.4804 6.51956 13.5 9 13.5C11.4804 13.5 13.5 11.4804 13.5 9C13.5 6.51956 11.4804 4.5 9 4.5ZM12.6818 9C12.6818 6.96174 11.0383 5.31818 9 5.31818C6.96174 5.31818 5.31818 6.96174 5.31818 9C5.31818 11.0383 6.96174 12.6818 9 12.6818C11.0383 12.6818 12.6818 11.0383 12.6818 9Z" fill="white"/>
</svg>
