<svg xmlns="http://www.w3.org/2000/svg" width="400" height="225"><path d="M339 11c-36 6-39 7-42 12-2 5-2 7-7 64l-4 38v3h-36c-35 0-36 0-38 2-3 3-3 49 0 52 4 4 11 5 40 5h28v9c0 19 1 20 29 25 21 4 22 4 46 4h25l2-3 7-173c1-36 1-37-5-41-5-3-8-3-45 3m31 0c-6 1-7 1-8 5l-3 3-21 3c-21 3-23 3-23-1 0-5-14 0-16 5l-4 29c-2 25-2 35-1 31l8-4a1639 1639 0 0078-30c1 2 2-34 1-37l-3-4h-8M25 56c-6 2-7 10-2 15 3 3 4 3 9 3 5-1 9-3 9-5s-3-1-4 1c-2 2-11 2-12-1-4-5-1-11 6-11l5 2h4c0-4-9-6-15-4m37 7c-1 3 0 5 4 5l7 2c0 1-5 2-8 1l-4-1c-1 2 3 4 8 4 7 0 10-7 2-8-5 0-7-1-6-2l5-1c5 1 7 0 3-1-3-2-10-1-11 1m26 0c-5 5-1 11 7 11 6 0 10-8 5-11-3-3-10-2-12 0m17 5c0 7 2 8 3 1 0-8 8-9 8 0 1 6 3 7 3 1 0-4 0-5 3-6 3-2 5 0 6 5 0 6 2 6 3 1 0-6-2-9-7-9l-5 1h-2l-7-1h-5v7m52-5c-3 3-2 8 0 9 4 3 12 2 12-2l-4 1h-5c-4-2-2-3 4-3 7 0 8-1 4-5-3-3-9-3-11 0m40 0c-7 5 2 14 10 10 7-4 4-12-4-12l-6 2m-4 14c-2 1-1 17 1 17l1-1c0-4 3-4 6-2 7 5 10 4 3-1l-3-3 3-2c4-4 0-4-5 0l-4 3v-6c0-6-1-7-2-5M23 82c-5 2-3 7 3 7l5 1c2 1-1 2-7 2-5-1-6 0-2 2 5 2 9 1 11-1 3-3 1-6-3-6l-5-1c-4-1 0-2 5-2 4 1 5 0 3-1s-8-2-10-1m96 0c-10 2-6 14 3 13 4-1 7-3 6-5l-3 1h-8c-1-2 0-2 5-2s6 0 6-2c0-3-5-6-9-5m-64 6c0 5 0 6 2 6l1-4c0-3 0-4 3-5 3-2 5 0 6 5 1 6 2 5 3 0 0-4 0-5 3-6 4-1 5 1 5 5 1 6 2 6 3 0 0-7 0-7-14-7H55v6m30 0l1 6 1-3c0-9 9-10 9-1 1 6 2 6 3 1 0-5 2-7 5-7 2 0 3 1 3 5 1 6 2 6 3 0 0-7 0-7-14-7H85v6m72-4c-6 6 2 13 10 10 5-2 6-8 2-11-3-2-10-1-12 1m18 1c-4 4-1 9 6 10 4 0 9-3 9-7 0-6-11-8-15-3m-84 38l-5 6c0 1 15 3 18 2 2 0 2-5 1-8H91m49 0l2 3 3 3c4 1 4 2 0 7-4 4-6 10-4 15 0 3 0 4-3 6-8 5-7 4-6 11v12l-2 7v3h11c9-1 10-1 12-3 2-3 3-3 3 0-1 2-1 2 4 2s6 0 6-2c1-2 3-3 3-1l2 1c2 0 2 0 1 1s-1 1 1 1 4-2 3-4h-1l-2 1 1-2c1-1 1-1-3-1s-4 0-3-2l1-16 1-16c2-1 3-10 1-12l-4-2c-2 0-3-1-3-3l-3-3-14-4-5-3c-3 0-3 0-2 1m-117 5H0v12c0 11 0 13 2 13v2c-2 2-3 9-1 10v11c-2 0-1 2 1 2l2 1c0 2 0 3 3 4h4l-4 1c-11 2 2 3 35 3h36l3-3c2-3 2-3 2-25l-1-22-1-2c0-6-4-8-19-7l-9 1-1 3-1 4v-4c0-5 1-5-28-4m181 9c0 2-1 2-3 2-3-1-5 1-2 3h1l1 1v3h-7c-1 0-1 1 1 1 2 2 2 3-14 4l-4 2 8 2c3-1 4 0 5 1 0 2 1 2 1 1l2-1v2c-1 1-1 1 1 1 3 0 3 0 3-2v-2l1 2 3 1c4-1 4 0 4-12l-1-9" fill="#d3d3d3" fill-rule="evenodd"/></svg>