<svg xmlns="http://www.w3.org/2000/svg" width="400" height="225"><path d="M365 9l-33 4c-33 3-35 4-38 10-2 3-3 6-9 83l-1 22h-43c-42 0-43 0-45 2-3 4-2 49 1 52s24 4 58 4l23-1v12c0 20 1 21 31 25 29 4 71 4 73 1l1-20v-18l1 16c1 15 1 16 1 6l1-17v-5h6c9 0 8 2 8-34v-23h-13V72l1-57-4-3c-3-4-9-5-19-3m-3 4l-2 3c-1 4 0 4-24 6-22 2-23 2-23-3 0-2-10-1-14 2-4 2-5 7-6 31l-7 85c-6 74-6 70-2 74 3 3 8 4 24 6l45 5c14 3 18 3 21-1 4-4 4-2 5-72a11062 11062 0 011-133l-2-2h-5l2-1c1-1-1-1-4-1l-9 1M25 56c-5 2-7 10-3 15 5 4 19 3 19-2 0-2-3-1-4 1-2 2-10 2-12-1-3-2-2-7 0-9s9-3 11 0h4c0-4-9-6-15-4m37 7c-1 2 1 5 4 5l7 2c0 2-5 2-8 1-4-2-5 0-3 2 4 2 14 0 14-3 0-2-4-4-6-4l-5-1c-2-1 1-2 6-2h4c0-3-11-3-13 0m26 0c-5 5 1 13 8 11 6-2 8-8 4-11-3-3-10-2-12 0m17 5c0 7 2 8 3 1 0-4 2-6 5-6 2 0 3 1 3 5 1 7 3 8 3 2 0-5 1-7 5-7 3 0 4 2 4 7l1 4c2-1 2-9 0-11-1-2-9-3-10-1h-2l-7-1h-5v7m52-5c-3 3-2 8 1 10s10 1 11-2c1-2-1-2-3 0h-6c-4-2-2-3 4-3l6-1c0-5-10-8-13-4m40 0c-7 7 4 15 11 9 6-4 2-11-5-11l-6 2m130 2c-3 1-4 2-3 3l-1 1c-1-1-1-1 0 0l-1 1-1 1v11l-1 12c0 2 8 5 12 5 18 0 26-23 13-33-5-3-12-4-18-1m3 8c-2 1-3 2-4 1-2-2-2 1-1 3 2 2 2 2 0 2-2 1-2 1-1 3l1 5c1 3 1 3 7 3h6l2-5c2-5 2-5 1-6-2-2-2-2 0-3 2-2 1-4-1-2h-2l-5-3-3 2M23 82c-5 2-3 7 3 7l5 1c3 2-3 3-7 2-3-1-5-1-3 1s10 2 12 0c3-3 1-6-3-6l-5-1c-4-1 0-2 5-2 4 1 5 0 3-1s-8-2-10-1m96 0c-10 2-6 14 3 13 4-1 7-3 6-5l-4 1c-3 2-7 2-7-1-1-1 0-1 5-1s6 0 6-2c0-3-5-6-9-5m-64 1c-1 1 0 11 2 11l1-4c0-4 1-6 5-6 3 0 4 2 4 6 0 3 0 4 2 4l1-4c0-4 0-5 2-6 5-1 6 0 6 5 0 4 0 5 2 5s2-8-1-10c-1-2-22-2-24-1m30 5l1 6 1-3c0-5 2-7 6-7 2 0 3 1 3 5 0 7 3 7 3 1 0-4 0-5 2-6 5-1 6 0 6 5 0 4 0 5 2 5 1 0 2-9 0-11l-13-1H85v6m72-4c-6 6 3 14 11 10 3-2 4-3 3-7-1-5-10-7-14-3m18 1c-4 5 0 10 7 10 5 0 8-3 8-7 0-6-11-8-15-3M18 131c-2 3-3 7-2 12l-1 2-1 2-1 1c-1 0-2 1-2 9 1 15 0 17-6 17l-4 1c0 1 1 2 3 1l2 1c-1 1 0 1 1 1 2 0 2 1 2 3l-1 3-2 1h60l5-4v-43c-1-1-1 4-1 13 0 14 0 15-2 15l-4 2c-3 3-4 3-18 4l-16 1 2-8c3-8 4-18 2-19h-2v-2c-2 0-3-2-3-7 0-8-7-12-11-6m95 1l-4 17v6h-5c-11 0-12 3-1 3 6 1 6 0 5 9-1 5-2 6-2 4 0-4-2-5-4-3l-4 2v1c2 1-1 3-4 2h-3c-1 1-1 0-1-2s0-3 1-2l1-2-2-1-1-1v-1h-3c0 1-1 1-1-1-1-1-1 0-1 4 0 2 0 3 1 2l1-2c1 1 0 6-1 6v8c1 3 1 3 13-2 8-4 9-4 9-2l-6 4c-4 1-6 3-5 3l6-1 4-2-2 2h21c3-1 3-2 2-4 0-2 0-3 4-4l7-3 3-1h2c0-1 5-4 9-4l1 1 1 1 1-2h5l13-1h11v-3c-1-3-1-3-5-3l-4-1v-2l-2-2-1-1c0-3 1-5 3-5l1-2-1-2c0-1-1-2-6-2-3 0-7-2-7-4h-2l-3 1h-2l-2 1-1 2-1 2c-1 2-3 3-3 1l-3-1c-4 0-5 1-3 3v1c-2 0-1 2 1 3l3 1h-3l-2 1-1 1h-1l-4 1-2 1h-4c-3 1-6-1-6-5l-1-4-2-2 1-1c2 0 2-5 1-7v-1c2-2 1-6-1-7-3-3-6-2-8 2m134 16l-2 4c0 1-1 3-3 3-3 1-3 2 0 3 2 0 3 1 3 4s1 4 5 4c3-1 1-4-2-4l-2-1 1-1 5-2 5-2c1 0 2-1 2-3l-4-3-5-2h-3m-121 12l-4 1 2 5c1 5 2 5 5 5l3-1-3 1c-3 1-4 3-3 3l14-5c2-1 2-2 0-2-1 0 1-2 6-4 7-3 7-3 4-3l-12 3c-7 3-11 4-8 2v-1c-2 0-1-3 1-4h-5m110 6c0 5 0 5-3 5l-4 2c0 3 1 4 2 1 1-2 1-2 4-1l7 1c4 0 5 1 4 6v4h11l1-4 1-6c1-3-1-5-6-6l-4-1-2 1c0 1-5 3-8 3-2 0-2-1-2-5l-1-4v4m-67 2c-7 1-41 15-38 16l6-2 6-2c2 0 2 0-1 2l-3 2h4l6-1 6-1c2-1 3-1 3 1l11 1c13 0 14-1 15-10v-7h-5l-10 1M30 178l-1 4c0 2 1 2 19 2 19-1 20-1 21-5 1-2 1-2-6-2h-8l-8 1c-6 0-8 0-5-1 2-1 1-1-5-1-7 0-7 0-7 2m269 11c3 0 3 1 1 1l-2 2-1 1c-2 1 2 1 5 1l1 2c0 2-1 2-4 2-2 0-3 0-2 1 2 0-1 4-3 4l32 5c38 4 41 5 44 2 4-3 3-12-2-15a408 408 0 00-69-6" fill="#d3d3d3" fill-rule="evenodd"/></svg>