<svg xmlns="http://www.w3.org/2000/svg" width="400" height="225"><path d="M9 0l4 3a303 303 0 0121 15l6 3-17-1-2-2c0-1 1-1 7 1 5 1 1-2-3-4l-9-4c-2-2-5-3-7-3L2 6H0v36c0 35 0 37 2 37l2-4c0-2 0-3 3-2 3 0 3 0 2-1l-2-3 19 8 9 5 4 1c4 2 5 5 3 6l-6-1-5-2-2 2c-3 3-2 6 1 9 3 2 4 5 2 5-7 1-11 2-6 2 4 0-10 3-16 3-7 0-11 2-6 2l4 1c2 1 1 4-1 4l-2 2-2 5-3 2v22c0 22 0 22 2 22 3-1 4 2 1 3-4 2-4 3-1 2h3l-3 2c-2 3-3 4-1 4s2 0 1 2c-2 1-2 3-2 7l1 6 1-5c2-6 3-3 2 5-1 5 0 9 2 10l1 7-3-4c-2-3-4-4-4-2l3 4 2 4-3-2-2-3v2l1 3 3 4 2 3H3c-3-1-3-1-3 2 0 4 1 4 25 4h20v-9c0-7 0-9 2-12 1-3 4-5 4-3l3 4 8 11c7 11 8 11 3 1-6-12-11-25-11-29v-4h5c7 0 10 2 19 12 7 7 12 16 13 24v5h34l-1-4c-1-6-1-8 2-8 2-1 2-4-1-10l-2-7c0-2 0-3-2-3-4 0-6-9-1-11 4-2 2-8-6-21l-4-10-1-5-2-4-3 5a18879 18879 0 00-14 21l-1-8c-1-9-1-9 10-22 7-8 8-11 5-20-4-11-6-15-7-15-3 0-9-7-9-11 0-6 3-6 6 0 2 5 5 7 5 4h2v2c-1 1 0 2 2 4 4 4 9 13 13 25l4 9c1 2-2-11-5-18-3-9-4-13-1-7 2 4 5 6 4 2l-2-4c0-3 0-3 1-2 3 2 6 8 13 24l6 14-1 5-5 15v4l-3-8-2-7 6 29c1 2 7 5 10 5 4 0 5 3 4 8v4h-4c-4-1-4-1-4 1l1 2 3 1c4-1 4 1 1 3-3 1-3 1-2 4 2 5 3 6 6 6h3l-2 1-3 1c0 1-1 2-2 1l-5 2c-3 3-3 3-3-2-2-8-2-8-4-6l-2 5-1 4c-1 2-1 2 6 2l7-1h2c0 2 82 2 82 0 0-4 3-5 6-2l2 3h61c51 0 61 0 60-1-1-3 6-16 10-17 3-2 1-8-5-15-2-3-2-3-1-9 2-6 6-18 8-18l2 2 5 2c4 1 7 4 7 6s0 2-2 0l-3-1 1 6c0 6 0 7-2 9l-5 3c-2 0-2 5 0 8l4 8 5 6 2 2c1 2 1 2 2 1 1-2 5 3 4 6 0 2 0 2 7 2h8a8026 8026 0 000-93v11l-2-4c-1-2-3-6-3-10l-3-8-2-2v5l2 8c2 3 0 4-7 3-13-2-17-7-19-18a24555 24555 0 00-2-22l2 1c0 1 1 3 3 3l5 4 2 3v-6l-3-4c-2 0-3-3-1-3 2-1 2-5 0-5l-13 4h-1l7-5 7-6-2 1c-3 2-10 5-11 4l1-5c2-4 1-5-7-1-6 3-7 3-8 1-2-2-2-5-1-5v-2h-9l-16 7 3-3 4-3-2-4c-3-4-6-5-10-3l-5 2-7 2c-8 2-9 1-4-3 3-2 4-3 4-5-1-3-1-3 2-2 5 1 31-19 30-23l1-6c2-5 2-6 1-6l-4 4c-3 4-3 4-7 3-4 0-5 0-5 2-1 2-2 2-5 2-5 0-7-3-7-8 0-3 0-5-2-6-1-2-2-2-2-1v6c0 4 0 5-3 6-5 1-6 0-7-6 0-3-2-6-3-7l-2-2v2l-1 2c-3 0-2 2 0 2 2 1 4 8 2 11s-1 13 1 16l2 3h-4c-2 0-3-1-4-3l-1-1v13c2 4-3 16-6 13-2-1-3-11-3-19 0-5 0-8-2-11-3-5-3-9-2-11 2-1 2-1 0-4l-3-10c-2-6-6-10-4-5 1 3-1 11-3 11l-1-1-4-8-2-3c0-2-3-5-3-3h-2l-3-2h-3l-3-2-3-1-1-1h-5l-4 1c-4 1-5-1-2-3 2-1 3-5 1-5l-2 1-5 1-5 1c-3 2-18 2-19 1h-4c-2 0-3 0-4-2l-1-3h-46v3c-1 3-4 5-4 2l1-3c1-2 0-2-27-2H81v5l-1 9c0 4 0 5-2 5l-3-2c0-2-1-3-2-3l-2-2-8-7-6-5H9m162 4l2 8 5 14 9 25c1 0-4-17-7-23-1-2-1-3 1-5l1-2 2 2 3 2v2c-1 4 3 10 7 10l3-9v-2l6-5 8-6c4-1 4-6 1-5l-7 2-7 1c-1 1-4 2-8 1h-7l-4-6c-3-5-7-7-8-4M84 19c-1 5-1 6 1 10 3 4 3 5 0 2-5-4-6-3-4 3 2 2 2 3 5 3s3 0 3-2c-1-1 0-2 1-2 1-1 1-7-1-14-2-4-3-4-5 0m12 3l-1 10v6l5 1 7 3h3c2-2-1-16-2-18l-2-2c0-2-2-1-3 1h-2l-2-3c0-3-2-2-3 2m58-2l6 12a953 953 0 0118 28c-8-19-24-46-24-40M30 26c0 6 13 29 14 27l-3-9-4-11c1-3-2-7-5-8-2-1-2 0-2 1m199 10c-2 1-3 15-3 30 1 15 0 18-3 22-2 2-2 2-1 3s2 2 1 3c0 2 0 2-2 0h-2l6 4c5 1 5 1 7-1s3-5 1-5V81c-1-2-1-6 1-9 3-7 4-35 1-36h-6m-23 1c-4 2-7 10-7 19l-1 3-1 2-1 7v11a2377 2377 0 004 19c1 2 5 3 7 0 3-2 2-6-1-10-4-3-4-6 0-7l2-2c0-1-3-2-3 0-2 2-3 1-4-3-1-7 0-10 6-11l6-2 1-2-1-1c-2 2-2-6 0-8s2-9 0-14c-1-2-2-2-7-1m145 18l-6 5c-3 3-4 3-4 2 0-3-4-2-10 0-4 2-4 2-4 5 1 4 3 6 5 5h4l2-2 7-4c8-5 13-15 6-11m-25 27l-9 5-2 2 2 1h7c6-2 8-1 9 2l1 4v-4c-1-3 0-4 1-5 1-2 2-3 1-6-2-4-1-4-10 1m-160 31c0 2 0 3 3 5 4 3 5 6 3 4l-2 1h-5c-4 0-4 0-3-4 0-3 0-3-1-2h-5c-5 1-6 4-5 12l-1 6c-4 0-10 6-12 11-4 9 0 14 5 7 3-4 4-6 2-8v-1l1-1 3-4c3-3 9-5 9-4h2l15-5-1 2c-2 2 0 2 4 1l9-1 5 1-4 1-6 2-6 2h1c6-2 7-1 3 3s-5 7-2 4c2-2 7-4 9-4s2 0-1 3l-6 5 6-1c7-2 12-2 7 0-3 1-3 1-2 2 3 0 0 5-5 8-4 1-5 2-4 3l4-1c2-2 5-3 5-2l-3 2-1 1v2l-1 2 5-5 5-5-1 8v1c1 1 0 1-2 2l-4 3c0 2 10-4 11-6l1-3c0-1 0-2 2-3s2-1 1 2l1 4 1-3c0-3 1-4 2-3 1 0 1 3-1 7v4l-1 4v1l2-1 2-5 3-6 3-3c1-1 1-1 1 1h2c2-4 2-1-1 4l-2 7 4-6c2-5 2-5 4-3 0 2 1 2 1 1 1-1 1 1 1 4v6l1-6c0-6 0-7 2-7l1 1h1l4-1c3-1 3-1-1-1l-5-1h-2l-2-1-5-2c-17-7-25-20-20-32 2-4 2-5 1-6-2-2-8-4-11-3-2 0-2 0 1 1s3 1-1 1c-2-1-5 0-6 1h1c2 0 2 0 1 1-1 2-5 3-3 1l-1-1c-2 1-10-4-11-6-2-2-4-1-5 2m99 4c-1 2-1 2-2 1s-1-1-1 1c1 3 1 3-2 4s-3 1-2 6c0 3 0 6-2 11-2 6-1 8 1 3l2-6c0-1 1-2 2-1v-2c-2-1-2-1 1-1h4l-2-1-2-1-1-2c-2-2-2-4 1-4 2 0 2 0 1 2v1l2-2c1-1 1-1 3 1h2l1 1v2c-1 1-1 1 1 1l2-1h1l1 1 3 2 4 3 1 2v-3l5 2h4l-4-2-6-3-2-1h4l-3-2v-2h-2c-4 0-6-2-5-5l-1-1-3-2h-4l-3 1 1-1c1 0 2-4 1-5l-1 3" fill="#d3d3d3" fill-rule="evenodd"/></svg>