<svg xmlns="http://www.w3.org/2000/svg" width="400" height="225"><path d="M0 4l1 4v1L0 117v108h158l-5-4c-4-5-13-8-22-9-6 0-6 0-4-1 1-1 1-1-1-1h-1l-2-1h-2l-8-3c-9-4-12-5-8-5h3l-3-2c-6-3-3-5 12-6 11-1 12-1 17 1l10 2c4 0 5 0 5 2 0 3-2 3-13-1-9-2-12-2-5 0 13 5 17 7 14 7h-2l5 2c3 0 3 0 2-1-2-1-2-1 2-1h3c-2-1-2-1 1-1l5 1c1 2 1 2-2 1-2 0-3 0-2 1v1c-3 1 7 5 11 5 5 0 11 4 10 6-1 3-7 2-12-1-5-4-7-4-8-3s-4 0-10-4c-3-1-5-2-7-1l-3-1-1-1-5-2-10-2-2 1c-2 0-2 0-1 1l4 1 6 1 7 3 9 3 9 3 3 1 4 1c3 2 3 2 1 2-3 0-3 0-1 3l1 2h38c38 0 39 0 41-2 2-3 5-5 10-5 2-1 3-1 5 3l3 4h49l49-1 2-3c2-1 3-3 3-5l1-11c4-13 4-15 5-24 0-10 1-10-7-5-4 3-7 3-4 0v-2c-1-1-1-1 1-1l6-3c7-5 8-5 7 0l1 5 1 5c0 6 2 8 5 7l5-1-2 3-2 4-1 2c0 2 0 2 3 2l5 1 3 2-3 2-2 2h2c4 0 4 1 2 3l-2 1 2 1c3 1 3 3 0 3-6 0-9 2-4 3 4 1 4 3 0 3l-5-1c-2-1-2 0 0 2l3 3h-3l-4 1c0 2 4 2 15 2h11V0H50v2c0 2-1 3-5 3s-4 0-4-3c1-2 0-2-4-2s-4 0-4 2l2 4 2 1 2 1c3-1 2 8-1 9-1 1-1 1 2 2 4 0 4 1 3 4-1 1-1 2 1 3 3 2 2 5-1 5s-9-3-9-4l1-2c1-1 1-2-1-4s-2-2-2 0l-3 4c-4 4-12 2-15-3l-4-6c-2-2-2-5-2-10V0H4C0 0 0 0 0 4m251 2l-3 6c-2 3-2 9 0 9v1c-2 1-3 10-3 38-1 28-1 28 2 31 4 6 7 13 9 22 2 7 3 9 4 9l4 2c3 3 5 3 3 0-2-2-2-2 0-2l2-1h-3c-4 0-4 0-5-4-2-2-2-4-1-4l-1-2c-2-3-1-4 2-6 4-1 4-5 1-7l-2-3-1-4 1-4 1-7c0-5 3-7 5-2l2 3 2 2 4 1c2-1 2-1 2 1-1 2 3 2 6 0l5-5v-2l-1-1-2-4c-4-3-4-5 0-10 3-5 6-6 12-6l5-1 4-3c4-3 8-4 8-2l2 1 3 3 3 2c5 0 10 16 6 19-3 1-3 2 2 7l4 7 1 2v10c1 2 1 4-2 6l-2 3c0 4-3 8-6 8l-3 4c0 3-2 6-3 8-4 4-4 6 3 7h3c0-1 3-5 7-8 7-7 8-8 9-13s1-5-2-6c-5-2-3-9 3-9 3 0 4 0 7-5 5-7 6-14 2-18-3-3-13-22-13-24l-2-2h-3l-2-1v-6c0-1 0-2-2-2-3 0-3 0-2 1l1 2-3 1-3-1h-8l5-4 2-1c0-3-2-2-8 0l-8 4-5 2c-1 2-3 1-2-1s-2 0-4 2c-1 3-2 3-6 1-2 0-2 0-2 2l-3 5c-3 3-7 11-7 14 0 2 0 2-3 2-5-1-9-6-8-8 0-2-3-3-3-1-1 2-5 1-6-1 0-1-3-1-3 1l1 1c2 0 4 5 3 6l-2 3-2 4-2 3-1 1 1-21v-3c0-3 2-4 4-1 2 2 4 2 4-1l2-1v-3l-2-3h8c9 1 10 1 8-3-3-6-6-5-4 0 1 3 1 3-4 2-4-1-5-2-2-3 1-1 1-7-1-10-3-4-7-2-9 4l-1 3-1-3c-1-3-2-5-2-11-1-4 0-4 2 0l3 3c2 0 2 0 1-3l-4-4c-2 0-3-5 0-8l1-4 2-5c2-4 2-5 0-5l-4 4M27 8c0 2 0 2-2 1-2 0-2 0-3 3 0 2-1 3-3 3s-2 0-1 1c2 0 2 1 2 3-1 1 0 3 1 5l1 2 5-5 4-5 1-3v-1c-2 0-2-1-2-3l-1-3-2 2m107 10h-2c-2-1-3-1-3 1l-2 1-4 1c-1 2-10 6-12 6-4 0-6 3-4 5 1 2 2 2 11 0 6 0 6 0 3 4l-1 4v1l-1 4-2 4h-13l-3-1c-3-1-6-8-6-16l-2-2-1 1h-3l-4 1h-1l-6-2-5-2h-6l6 2 2 1h-8c-8-1-10 0-12 6-1 4-6 6-12 6-7 0-12 4-7 5 2 1-7 5-11 5-5 0-12 6-12 10 0 3-2 7-4 7-2 1-4 12-2 15v6c-1 7-1 10 1 14s3 5 7 5h4v5c0 5 0 7 2 7 3 0 4 3 3 8 0 5 0 6 2 8v2c-2 2-2 2 2 4l7 7 5 5c2-2 3-8 3-15 0-9 1-13 4-13 2 0 9-4 9-6l4-4 6-3 2-2-3-3-5-8-5-7-1-8-1-8c-1-2 3-7 5-7l4-1c4-3 21 2 19 5-1 3 2 5 7 5s5 0 5 3c0 2 1 4 3 5 3 3 5 7 2 7s-5 2-3 3l1 6c0 8 6 13 13 11 4-2 5-2 6 0 2 2 4 11 4 20 0 6 0 9 2 10v2l-2 1 4 1 3 1c0 2 5 1 6-1v-2l-2-3-4-1c-3 0-4 0-3-1v-2c-1-2-1-2 1-3 3-1 4-4 2-4-1-1 0-1 2-1 5-2 5-2 5-4 0-3 0-3-4-3-3 0-3 0-3 2v2c-2 0-2-9-1-11l-1-1c-2-1-2-1 1-1l3-1-3-1c-3 0-3 0-1-1l3-2c0-2 1-2 3-2 3 0 5-1 5-4 1-2 0-3-2-3-2-1-2-1 1-1s5-2 2-4c-2-2-4-2-4 0v1c-1 0-2-1-1-3 0-3 0-4-2-4-1-1 0-1 1-1l4-1c0-1 1-2 3-2s2 0 1-1c-2-2-1-5 0-5 3 0 4-10 2-11-1 0-1-1 1-3s2-2 1-3c-3-2-5-1-7 2-4 3-4 6 0 7 1 0 2 1 2 3s0 2-1 1l-3-1c-3 0-6-4-4-5 1-1 0-4-1-4l-5-5c-3-5-3-5-2-6l2-3 1-3 1-4 1-3 2 2c3 3 5 3 5-1s-2-7-3-5l-1-3 3-6c3-3 5-3 9-4 3-1 4-4 1-6l-1-2c1-1-1-3-3-3l-4 2m149 3l-2 1c0 2 6 8 8 8l2 3c0 3 4 5 4 1l3-1c4-1 6-5 2-6l-8-4c-2-2-6-3-9-2m-115 7v2l-1 2-1 3-1 4c-1 2-2 2-3 0-2-3-3-4-6-3-2 1-4 5-4 8 1 1 0 2-1 3h-2c0-3-4-2-5 0v2l-1 1-1 2v1l-1 1-1 1-1 2v3c-1 2 1 4 4 2 1-1 3-7 3-11 1-2 2-2 2 1 1 4 3 5 5 4 2-2 2-2 1-5l-2-3h3c5 0 4 0 2 4-1 4-1 4 1 6 2 3 3 3 5 0l2-2v2c-1 2-1 3 2 3 4 1 6 8 5 16l-1 3-1 1-1 1c-1 2-3 1-4-1 0-2-1-3-2-3l-1-3-2-3v-2l1-2 2-2 1-1c0-2-4-2-4 0l-2 1-2-1-3-2-1-2v-2c0-1-3 0-3 2l-1 1c-2 0-2 3 0 5 2 1 2 2 2 9l-1 7h3c2-1 3 0 3 1l1 1c2 0 5 7 5 12 1 7 1 7 5 6 3-1 3-2 3-4-1-4 1-9 3-11l1-4v-2c2 0 7-7 7-9l2-4c2-2 2-4-1-4l-2-1 2-2c1 0 2-3 0-6-1-4-3-2-3 2v3l-2-5-1-3c-1 0-1-1 1-3l1-2 5-2 2-1-3-1h-3l-1-6c0-13 0-12-4-12l-5 2m198 11h-6c-4 0-5 0-3 1l2 1-2 1-5 2v1l2 2 5 8 4 7 4 6 3 7 1 3c2 0 1 3-1 6l-2 6-1 9c-3 9-3 10 1 11 3 0 4 1 4 3 0 3-1 4-4 3-3 0-3-1-2-2v-1c-1 0-1-1 1-1 1-1 1-1-1-1s-4 5-5 13l-4 8c-2 4-3 7 0 7 2 0 1 2-1 5-8 8-10 15-6 18 3 3 4 2 6-1l6-9 4-7 1-3c2-1 6-8 5-9 0-1 2-4 4-3v-1c-1-1-1-1 0 0l1-1v-1l1-1c-1-1 5-4 9-4 6-2 9-4 9-7 0-4-4-4-5 1 0 2-1 3-3 3s-3-1-3-5l-1-5-1-11-1-11-2-3c0-4 10-12 16-14 5 0 5-3 2-4l-3-2-3-5-4-5-1-1c-2 0-13-10-13-12l-7-3-1 1M202 72l-2 3 4 1c4 1 5 3 6 13 1 3 1 4 5 3 4 0 5 0 6 2 2 3 4 2 3-1 0-13-2-20-3-15-1 1-2 1-4-1h-2c0 2-7-6-7-7 0-2-4-1-6 2m-46 44v4l-1 5c-1 2 0 4 1 4l3 4 2 3c1 0 1 9-1 12l-1 1-1-2-1-1-2-2-1 2c2 5 3 11 2 13 0 2 0 2 2 2s3-1 3-2l2-4c5-4 7-16 2-22-2-3-3-4 0-6 2-2 3-2 3 0 0 1 0 2 2 2s2 0 2-3 0-4-2-4-3-1-2-3c1-1 1-1-1-2l-11-1" fill="#d3d3d3" fill-rule="evenodd"/></svg>