<svg xmlns="http://www.w3.org/2000/svg" width="400" height="225"><path d="M6 1L3 5 0 9v31c0 31 0 32 2 32l2 2c0 3 3 3 3 0 1-2 4-3 10-1 2 0 3 1 3 5v10H5l-3-4-2-4v30h7l14 2v1c3 2 0 3-11 2H0v110h401V120L400 7V0H212l-1 4-1 4-2-4-2-3 1 3c1 5 1 10-1 14l-1 3-3-2-2-2 1 2c0 2 0 3-2 5-3 3-4 2-4-5 0-6 1-8 2-6 1 1 2-1 2-6V0h-97L6 1m53 24l-8 10 4-4 5-4c3 2 3 18 1 18l-1 2c0 3-3 8-4 7h-2l-1-2v-2c-2 1-2 1-2-1 0-3-3 8-3 13v4h8l11 2c4 0 4-3 0-4l-1-3h-4c-1-1-1-1 2-2s3-1 2-3v-5l2-5c0-5 12-4 15 0s4 14 2 15c-1 0-2 1-2 4 0 4 0 4 4 4l9 1c5 0 5 0 5-2l-2-2-1-2 1-2 3-1c2 0 2 0 1 5v4h5c7 0 7-1 5 13v8h-4c-6-1-7 2-6 9l1 5h8c13 0 18 0 24-2 8-1 8-1 10 1 2 3 7 2 14-1l4-1-1-6c-1-15-7-29-13-32l-10-9c-3-5-9-11-12-13l-11-11-8-6a104 104 0 0130 1l-11-3c-8-2-18-3-55-5l-6-1-8 8m6-4a324 324 0 01-2 4v2h1l2-1 1 1-1 1c-1 0-2 3-1 6 0 3 0 3 3 2l3-3c1-4 9-9 16-9 2 0 1-2-1-2l-11-1H65m116 12l1 2v1l2 5 3 9c2 6 3 7 8 4 3-2 3-3 3-7l-1-6-1-2c2-2-4-6-8-6l-5-1-2 1m173 14c-8 8-10 10-12 8-2-1-5 2-5 5l-3 5c-3 4-6 5-6 2l-7-7-3-1-5-2c-3 0-3 0-3-2 1-4 0-4-2-1l-2 3v-3c0-5-4-3-4 2l-3 6-5 6c-1 1-1 1-1-1 0-3-1-4-3-2h-5c-2 2-3 1-3-1 0-3-8-7-9-5l-2-2c0-2-1-3-2-3l-4-2c-3-2-4-3-5-2l-3-1c-3-3-5-4-7-2-1 1-1 1-2-1-2-1-2-1-2 1 0 4 2 6 11 16 5 5 6 6 6 4s1-3 3 0c2 2 2 3 0 3v8c0 9 1 10 5 10h5l1 3c0 3 0 3 1 2 2-2 2-2 4 0 2 1 3 4 3 5l2 2c3 0 4 1 3 6l-2 12c0 8-3 14-6 11-1-2-2 1-2 6l-2 3c-5 4-4 12 2 12 2 0 3 1 4 3l1 4v-10c0-1 3-4 6-4 1 0 3-1 3-3l4-6 4-4 1 2 1 7 1 5 1-8 1-8 1-1c1-1 1-1 2 1 1 1 1 2 2 1l1 1v12l1 8v8c0 3 0 3 2 3 2-1 3-5 1-5v-19l-1-8v-8l1-2v2c0 3 0 3 2 2s2-1 2 1 0 2 1 1c1-2 1-2 1 1v3l2-4c1-4 2-4 5-4a247 247 0 006 2h1c1-1 1-1 1 1 0 3 6 2 10-2l3-3c2 0 7-4 7-6l-2-1c-2 0-3-3-1-5 2-3 3-2 3 0 0 3 1 6 2 5l1-2c0-3 2-2 3 1 1 2 1 2 1-4l1-11c0-4 3-10 6-11l1-2c-1-1 0-2 1-3 6-4 6-4 4-10l-6-12-7-12c-3-8-4-8-11 1M16 51c-5 4-6 9-4 11 2 1 7-1 7-3h1c2 0 5-8 4-10-1-3-4-2-8 2m108 4c0 2 0 3-1 2l-2 1-4 1h-2l2 1h5c3-1 7 2 8 7 1 2 6 3 6 1 0-3-4-9-8-13s-4-4-4 0m229 4l-3 8-1 4-3 5c-1 2-1 3-2 2l-2 1-2 5v9l1 4c1 0 4-4 4-6l3-7 3-8c0-6 1-10 4-16 3-9 2-10-2-1M174 75v24c0 20-1 24-3 21l-2-1-1-1c-1-2-1-2-2-1l3 6 3 3v1l-2 3c-2 2-2 3-1 4v1c-1 2 8 17 10 17l1-3 2-3 1-1 1-2 2-3c0-2 5-9 6-10l1-2 6-1v-1c-3-2-3-6 0-6 2-1 2-2 2-4l3-11c2-7 3-20 2-22-2-1-4 2-4 7l-1 6-1-4-1-1-1 1-1 1-2 1-2 2v1c1 2 1 5-1 6l-1 4c0 7-1 8-3 10l-3 3c0 2-2 1-2-1l-1 1-3 2c-2 0-2 0 0 1 1 1 1 1-1 1h-3v-11l1-13 1-4v-7l-1-9c1-6 0-10-2-5M24 78l1 7c0 2 0 3 2 3s2 0 2 2c-2 6-2 10-1 10a204 204 0 0112 2c6-1 8-2 8-5l2-4 2-2-5-2c-6-2-9-2-9 1l-1 2c-2 0-2-1-2-3l-4-7c-1 1-2 0-3-2v-3c2 0 0-2-2-2s-2 0-2 3m13 38l-1 4c-1 2 0 5 2 9l9 21c1 0 4-20 3-22l-2-2c-3-1-2-2 2-2s4 0 5-4c0-3 0-5-2-3l-6-1H37m-9 3l-1 5c0 5 1 7 2 5v3c-1 7 4 17 10 19l3 2-1-4c0-4-7-21-8-23h-2c-1 1-1 0-1-2 1-4 0-6-2-5m300 14c0 2 6 4 8 3s2 0 2 1c0 2 0 2-2 1-4-1-6 0-7 3-2 4-1 4 6 4h7l-1-4c0-10 1-9-6-9l-7 1m-131 1l-1 3-2 14-1 12v15c-2 18 0 19 5 3 6-20 8-29 7-31-2 0-2-3-3-7-1-8-3-11-5-9" fill="#d3d3d3" fill-rule="evenodd"/></svg>