<svg xmlns="http://www.w3.org/2000/svg" width="400" height="225"><path d="M0 48v48h4l5 1c0 2-1 2-4 2l-4 1-1 62v63h104l-1-3v-3l1 3c2 3 2 3 6 3s5-1 2-7l-2-8-2-6c-2 0-2-1-1-1v-3c0-2-1-3-2-3-2 0-2 1-2 8l1 8-1 4c-1 2-1 2-1-3l-1-7-1-4v-3c1-2 1-5-1-7-2 0-2-2-2-3 1-3 3-2 4 2l2 2v-6l-1-3c0-2-5 1-6 4-1 1-1 1-1-1l1-3 1-2c-1-1 0-2 1-3v-2l-2 1-2 2 1-2 1-4 1-2c2 0 2-4 0-9l1-3c3-3 5-15 3-15l-1-3-3-11v-1c2-1 2-2 1-4v-4c0-3-2-6-4-6s-2 2 0 4v2c0 1-2 0-3-2l-3-3v-2h2c1 2 3-3 3-7 0-6 6 0 11 11 5 9 6 24 3 24v11c-2 13-2 25 1 38l6 25 1 7h28v-2c0-6 4-12 5-7v5l1 4h41a207 207 0 0043-1l62 1h63l-1-4 1-5 1 2c-1 4 3 7 9 7 5 0 5 0 6-16l-1-17v-7c3-3 4 11 1 34v6h27V112l-1-84v29l-2-1c-4-2-12-1-17 1l-6 1c0-5-2-12-4-11-1 0-2-1-1-3l-2-6-6-4c-4-4-9-7-12-8-2 0-3-2-3-5 1-2 0-3-1-3h-2c-1-2 1-5 5-7 4-3 4-5 1-9l-2-2H0v48m223-23c-8 6-9 7-8 11 0 3 0 3-3 3l-5 2c-3 3-3 3-3-4s-1-9-5-9l-2-1c0-1-5-2-6-1h-1l-6 2h1l13 4-1 6c-1 7 0 11 4 11 3 1 11 8 11 11l-1 7c-1-1-2 4-2 9 0 6 10 33 12 31l-1-3v-3c2 3 3 2 3 0 0-4-1-6-3-6-1 0-4-4-3-5v-3l-1-23-1-3 5-1 7-2 1-1c0-4 8-4 16-1 3 2 4 6 1 6-2 0-2 0-1 4 0 3 0 3-3 5-4 1-6 5-2 4 3-1 4 1 2 3l-2 8-3 9-3 5c0 3 5 11 7 11 3 0 13 9 13 11l1 2c2 0 0-6-3-9-7-6-8-6-5-5 4 1 7 3 9 7l2 3 1 3 2 5 3 5c2 5 2 3 0-6-1-4-2-7-1-8v-1c-1-1 0-5 3-7l2-7c0-4 1-5 3-5l4-3c1-2 1-2 1 0l2 2c2 0 1-3-1-4s-2-3-2-6-1-4-2-4c-2 0-2 0-2-2v-5c2-3 1-10-1-11l-2-3-3-4c-8-8-10-10-10-12l-2-3c-2 0-3-2-3-3 0-2-5-7-7-8-8-2-10-3-11-7 0-5-2-5-8-1m75 19c-1 1-3 3-3 5-5 8 2 12 9 5l5-3v3c1 4 2 3 2-2 0-2 0-3-2-3-1 0-2-1-2-3-1-3-5-4-9-2m40 6l1 3 2 1c0 2 4 6 6 6v1h1l1 3-1 5-2 2c-2 0-2 7 0 7l1 5v15c3 1 4 0 3-7-1-9-1-19 1-19 1 0 4-3 4-5l-2-5-3-4-2-2c-1-1-2-3-1-4l-1-1h-3c-1-2-4-2-5-1M144 61c-2 3-2 4-3 27l-2 24-2-1-3-3v6c2 2 4 10 6 26 2 17 5 23 3 9 0-8 0-9 2-9l4-3c3-3 11-2 11 2l3 2c2 0 2 0 1-4v-4l4 1 5-1 1-1v3l2-1 2-1c5 2 18-9 17-14v-2c1-1 0-6-2-9s-7-3-11 1c-4 3-6 3-8 0l-1-2c-2 0-5-4-5-6 0-1-1-2-3-2l-3-1 1-6c0-6 0-7-2-9-1-3-2-11-1-18v-2c0 2-1 2-2 1l-2 1c0 3-2 3-5 0l-3-5c0-2-2-2-4 1m-26 19l3 6 2 3v6c0 5 0 6 4 9 3 4 8 6 5 2l-3-9-1-7-1-2c0-3-6-10-9-11h-2l2 3m260 19l-6 2c-3 0-4 0-4 2-1 3-5 4-8 3-4 0-6 4-5 8 2 4 7 7 10 7 5 0 6-2 4-3-3-2-2-3 0-3 1 1 2 0 2-2l7-7c6-4 6-5 3-7-1-2-2-2-3 0M0 163" fill="#d3d3d3" fill-rule="evenodd"/></svg>