<svg xmlns="http://www.w3.org/2000/svg" width="400" height="225"><path d="M0 8l1 8 7 3a480 480 0 0036 14h-5c-4 0 3 3 13 7l8 3c2 1 11 2 13 1l-1-2c-4-3 3-3 15 0l7 2 8-2c9-2 10-2 8 2-2 3-1 3 5 4 10 1 12 1 11 2l-4 2-3 1 4 2c5 2 5 5 0 4h-3a40 40 0 0016 7l7 1c5 1 5 1 5-1 0-1 0-2 7-2s8 0 11 3l5 3s2 1 2 3l2 2-3-1-3 1 8 1c0-2 2 1 2 5l1 3-10-3-16-3-7-2c-4-4-14-8-19-8l-10-2c-13-4-20-4-22-2l-2 2-7-1c-7-2-9-2-12-1l-8 2c-6 2-7 1-2-4s5-5-4-10c-6-3-7-3-27-5L7 46l-7-1v27l1 27 1-3a1616 1616 0 0018-6c4-1 4 1 1 4l-2 4-4 3-9 3-6 2v28l1 29 6 3 8 3c4 0 6 1 6 3 0 4 13 13 19 13 5 0 8 3 6 4-3 2-3 2 3 6 5 4 6 7 4 7l-5 2c-3 1-4 1-14-4-7-4-11-5-14-5-6 0-9-2-7-4 4-4-3-8-9-6l-4 1v39h8l9-1 3-2 2 2 97 1h96v-17a9401 9401 0 001 14v3h80l2-3 2-2v2l-1 3h102V0H0v8m301 3l-6 8-5 6c-7 6-8 11-3 15 5 5 12 4 16-1l4-5 4-3c4-3 4-4 0-4-2 0-5-1-7-3-4-2-4-3-3-7l2-5 1-3c0-3-1-2-3 2M136 21l-1 2-3 5-2 3h2l5-1 9-1c5 0 6-1 4-2l-1-4c0-3 0-3-6-3l-7 1m96 53h-2l-1 1v12l-4 2-5 2c-3 0-5 2-3 3l2 9c0 7 2 11 2 6 0-2 0-3 2-2 2 0 2 0 2-2-2-3-3-9-3-10l8 1c11 3 14 2 14-3 0-2-1-3-6-5-6-2-7-3-4-5 3-1 5-8 4-9h-6m-47 20v10c-1 4-1 5 1 6 3 3 3 2 5 0 1-2 1-5-1-10l-1-9c1-1-1-3-3-3l-1 6m170 7c-6 3-6 3-6 10 1 5 1 6 3 6s3-1 3-2c0-3 2-5 3-4s1 3-2 12c-1 4 11 16 17 17 4 0 5 0 14-5l5-1c2 0 3-4 4-12v-7l-4-4c-6-6-10-7-17-7l-8 2c-2 0-2 0 0-3l3-3c0-2-12-1-15 1m-272 7l-2 6-3 10-2 6h-4l-8 2c-4 2-4 2-4 6s1 4 3 4c12-1 12-1 12 1l-1 15c-2 19-1 33 3 36l2 1a509 509 0 001-61c3 0 4-5 4-17 1-11 0-12-1-9m134 4c0 2 0 26 2 48l1 23-1-31c0-27-1-44-2-40m98 21l2 4c6 9 10 23 12 40 0 11 2 16 5 16 1 0 9 11 9 13 0 0 1 2 3 2l6 4c3 3 4 3 4 2 0-3-4-12-6-12l-4-4c-2-4-2-4 0-4 3-1 7 2 9 8 3 7 6 9 7 7v-4c-2-5-2-5 6-5 11-2 6-4-6-3-4 0-7-1-8-4l-3-4-12-7c1-1 0-3-1-4v-5l-1-5-3-9c-2-12-16-31-19-26m66 9l-20 5c-3 1-3 1 2 2 5 0 29-2 33-4l2-2c0-2-7-3-17-1m-292 4v4l11 3 13 4c3 0 3-3 1-4-4-3-18-9-22-10-3 0-3 0-3 3" fill="#d3d3d3" fill-rule="evenodd"/></svg>