<svg xmlns="http://www.w3.org/2000/svg" width="221" height="300"><path d="M102 78c-3 1-5 4-11 15l-9 8c-12 8-14 14-10 21l3 3-6 16c-6 16-7 19-5 21l1-2c-1-2 1-8 5-18 5-14 6-15 8-15 4 0 10-2 13-5l3-2v12c-1 13 0 20 3 20v-1c-2-3-3-9-2-22 1-16 4-20 10-21 7 0 8 2 6 16l-1 12c0 2 0 3 7 3 19 2 18 2 16 7-1 2-2 3-19 5l-12 2c4 0 5 2 2 5v2l2-2c2-2 5-1 8 3l2 1c0-2-5-6-7-6l-1-2c0-1 2-2 10-3l9-1 2 3 1 3v-3c-1-3 2-5 6-5l3-1h-2c-3 0-3 0-2-3 0-1 1-3 3-3 3-1 3-2-1-1-5 0-5 0-1-6l3-5-4 5-3 5-10-1-10-1c-2-2 1-21 3-23 2-1 2-2 1-2l-2 1c-1 2-3-5-3-9 1-2 2-3 5-4 7-2 12-5 12-6l-4 1c-5 2-5 2-5 0l-3-7-3-7c0-4-6-6-11-3m10 10l-4 3c-2 0-2 1-2 3l-2 8-3 5h5c4 0 4 0 4-3 0-2 0-3-1-2l-2-1 4-1c7-1 8-3 6-8-3-6-3-7-5-4m86 3c-2 1-3 5-1 7s12 1 13-1c3-5-5-9-12-6M35 97l2 3 1 8c0 5 0 5-4 6-2 0-5 2-6 4-4 3-9 4-15 2-5-2-6-2-3 0l8 2h6l-1 11v11h12c15 0 19-2 23-7 6-11 0-23-13-24h-6v-6l-2-8c-1-3-2-4-2-2m129 11c-2 4 1 7 10 7 6 0 9-1 9-4 0-4-2-5-10-5-7 0-8 0-9 2m2 14c-3 2-2 7 1 8h16c13 0 14-1 16-3 1-1 1-2-1-4-1-2-2-2-16-2l-16 1m3 43c-5 4-5 5 0 9 4 5 4 5 8 2l2-2-3-2-2-2 2-3 3-2-3-2c-3-3-3-3-7 2m-57 12c-14 7-28 9-35 6l-4-1 2 2c2 1 0 1-8 1H56v10h54v-10H95l6-2a108 108 0 0016-7v31l-1 31 7 3c10 5 9 5 9 1 0-2-1-4-3-5l-4-3 3-13a2069 2069 0 005-28l7 9 6 10c1 2 17-6 17-7 0-2-5-3-8-2l-3 1-5-11-5-11 6 16 3 6-3 2h-4a2861 2861 0 01-14-20 554 554 0 01-6 46c-1 1-2 0-4-1l-3-1 1-21v-28c1-8 1-8-6-4" fill="#d3d3d3" fill-rule="evenodd"/></svg>