<svg xmlns="http://www.w3.org/2000/svg" width="400" height="151"><path d="M0 21c0 23 0 22 5 17l10-7 1-2 2-2 4-2c3-2 11-5 17-5l7-2a851 851 0 0158-17L52 0H0v21m105-8l-10 4a1055 1055 0 01-82 33C1 55 0 56 0 58c0 5 3 7 9 5 17-6 102-46 102-48l-3-3-3 1m231 38v1l4 1 1 1h4l13 2 7 2c3 2 4 3 4 1-2-2 5-1 12 2 2 0-5 6-7 6s-2 0-1 1l-11 11-11 12 7-5 25-22c6-4 5-4-31-11-14-3-18-3-16-2M60 56v3h1c2 0 2 0 1 1h1c3 0 13 5 11 6v1c1-1 2 0 2 1 1 1 4 2 4 0h-1c-2 0-1-2 0-3 2-2 2-3-5-6-9-4-12-4-14-3m311 43a464 464 0 00-40 41c-1-1-1-1 0 0l-1 1c-1-1-1-1 0 0l-1 1c-1-1-1-1 0 0l-1 1c-1-1-1-1 0 0l-1 1c-1-1-1-1 0 0l-1 1c-1-1-1-1 0 0l-1 1c-1-1-1-1 0 0l-1 1c-1-1-1-1 0 0l-1 1c-1-1-1-1 0 0l-1 1-1 1c0 2 7 1 8-1 0-2 2-3 3-3h1c-1-1 29-31 49-50l18-16V70l-29 29M0 112l7 7a889 889 0 0136 32 882 882 0 00-43-39m0 27v12h26l-13-12-13-12v12" fill="#d3d3d3" fill-rule="evenodd"/></svg>