<svg xmlns="http://www.w3.org/2000/svg" width="312" height="300"><path d="M171 71l-8 3c-2 2-1 9 1 10 1 1 2 3 2 8s0 8 2 9c1 1 1 1 0 0V85l4-2c4-4 6-2 6 8l1 8c2 2-2 4-7 4h-2l2 1c2 0 3 4 3 11 0 6 0 7-2 9l-3 3 3-2 6-4 6-2 4-2 3 2 2 5c0 5 2 10 5 13 2 3 3 5 4 11 2 12 5 23 14 41 7 17-1 24-23 18l-14-4c-7-1-8-2-9-16l-3-19c-3-9-3-9 2-11l4-2h-2c-1 1-2 0-5-5l-3-6 4-2 4-3-6 3c-4 1-5 2-6 1l-2 1-8 6-7 3-10-5c-21-12-20-12-25-22-6-10-9-14-11-12v3l3 8c0 8 3 11 10 16a349 349 0 011-1c-7-5-9-7-10-15l-2-7c-2-2-1-3 1-2l6 11c3 5 5 9 7 10 5 4 29 17 30 17l11-5 9-4 2 5 3 6c0 1-21 10-24 10l-3-1-2-1 2 3c3 1 3 1 13-3l10-4 1 3 4 17-6-3c-15-7-28-9-34-5s-6 6-7 33c-1 30-1 30-11 34-4 2-8 4-9 6-2 2-2 2-10 2h-8l-1-22v-21H73l-10-1 3-5 2-4h10c10 0 10 0 9 2l-1 3 4-6-11-1-11 1-4 5-3 6H36l-4-6-3-6H18c-12 0-12 0-8 7l3 5v21l1 21H8l-6 1c-1 1 51 1 154 1h155v-13l-1-13-3 1c-3 1-3 1-3-4l-1-7c-3-4-3-3-2 1 4 7 2 12-5 16s-9 4-14 1c-3-2-3-2-3-8l-1-6c-1 0-2-1-1-2l-1-2-1 3-2 1c-3 0-4-1-1-8v-6l-10-7c-10-7-10-7-12-5s-2 3 0 1c2-1 4 0 12 6 9 6 10 6 9 8l-2 7-1 4h-19v9h-8l-4-9-3-11c0-2-2-3-2-1l3 11 4 9h-3c-3 0-3 0-5 7s-3 9-6 11c-4 3-3 3-15-7-8-7-10-9-8-9s9-7 11-12l6-7c4-5 4-7-2-21-7-14-9-23-11-33-3-11-3-11 2-11s9-4 9-9-2-8-8-15c-7-7-8-10-8-22 0-24-10-32-30-25M77 83c-17 5-19 6-19 8l10 39 27-7c1-2-2-1-14 2l-12 2-10-37 38-10 5 19a764 764 0 00-4-19c0-2 2-3-21 3m102 23c-4 5-4 14-1 14 4 0 9-4 9-6l-2-6c-1-5-2-5-6-2m-145-1c-5 1-7 7-3 11s11 1 11-5c0-4-4-7-8-6m-5 37a1809 1809 0 01-8 27c2 1 34 10 35 9l8-33-15-5-16-5c-2 0-2 1-4 7m3-4l-5 17 4-2c5-3 6-3 9 2 1 2 2 3 4 3 5-1 5 0 8 4l3 6-2-2-3-5-2-3-8 5-9 3 5-3 5-3-5-8-5 3c-4 2-5 3-7 7l-1 6 31 8 9-30-13-4c-19-6-18-5-18-4m99 35c-6 3-7 7-8 31v21h6l6-1 1-11 2-16v-6l3 2c12 8 23 13 26 13 3-1 3 0-2 2s-6 3-4 1 2-2-1-4a276 276 0 01-20-11c-1 1-3 28-2 29l2-1 2-1-5 5c-7 5-9 10-7 16l2 4h64v-9c0-8 0-8-2-8-9 3-22 5-21 3l7-1c16-3 27-8 31-16 3-5 3-5-5-5l-13-2-19-4h-4c2-1 2-2 1-6l-2-10v-7l-7-3-25-7-6 2M12 199l2 5h20l-3-5-2-5H9l3 5m24 27v20h17v-5l1-4h10v9h18v-40H64v5c0 3-1 4-2 4h-7c-1 0-2-1-2-4v-5H36v20m214 3c0 12 0 12 9 7 6-4 11-5 15-3l3 1v-16h-27v11m-18 2l-2 7h16l3 1v-12l-6-1c-10-2-9-2-11 5" fill="#d3d3d3" fill-rule="evenodd"/></svg>