<svg xmlns="http://www.w3.org/2000/svg" width="400" height="151"><path d="M1 26v26h6l16 1h9l1-3c3-4 2-5-8-10-11-5-12-6-10-12l1-9 3-10c4-9 5-9-7-9H1v26M213 1l-2 3c-1 1-1 1 1 2 3 0 4 0 7-2s3-1 2 2c-2 3-9 3-11 0-1-2-5-1-6 2 0 3 3 5 10 5h7c2-2 3-2 3 1s1 3 6 0c6-4 6-4 8 1 0 2 2 4 3 5l1 4 2 9 1 6-2 2c-1 2-3 1-3-1 0-3-4-5-7-2-3 2-4 5-1 5 2 0 4 2 4 4l2 4c2 1 3 1 5-2l5-3 2-2 2-2 1 3v4l2-3c1-1 2-3 1-5l1-5 2-7 2-7c0-2 0-2-4-1l-6 2c-2 2-5 2-5 0l-1-3 1-3c4-3 5-4 5-6l-2-2c-3-1-3-2-3-5V0h-15l1 3c2 3 1 5-1 5l-2-1-1-3c-1-1-2-2-1-3l-7-1-7 1m54 2c5 3 7 5 9 8l6 6c6 2 9 17 4 17-3 0-2 6 0 6 5 2 4 8-1 10-2 0-2 0 0 1l2 3 1 3c1 1 1 2-1 4-2 4-4 5-19 7a125 125 0 00-34 8c-5 1-6 3-7 10l-2 7c-1 2 5 4 11 4 44 5 78 14 80 23 4 12-47 24-124 30-9 1 0 1 34 1 44 0 45 0 55-2 12-3 16-3 26 0 5 2 12 2 49 2h43V77l-1-75c0-2-7-2-69-2h-68l6 3m-86 8c0 2-1 2-11 2h-10l5 5c15 13 8 39-12 42-5 0-5 0-5 3l-2 4c-3 0-2 4 1 5l14 3 1-4 6-10c6-7 7-11 5-10s-2 1 0-3l2-7c0-3 2-5 5-6 2-1 2-2 2-4v-7c3-10 3-15 1-15l-2 2M43 29l-4 15c-3 10-2 11 3 11 4 0 6-2 4-5l-1-15V21l-2 8m171-3l3 8-4 2c-3 0-4 1-1 3l2 2 2 4c2 1 2 1 2-3s2-8 5-10c3-1 3-1 6 1 4 3 5 3 6 0l1-2 1-1c0-2-8-5-16-6-7 0-7 0-7 2m63 14l-5 17c-2 4-2 4 0 4l3-1 1-2 2-3c1-1 2-2 1-3l1-1v-3l1-2v-7c-2-4-4-4-4 1m-75 7l-1 6v5l-2 3-1 1c-1-1-2 1-2 4l-1 2c-2 0-9 13-8 15v1c-2-1-3 0-5 4l-2 4 12 1c15 1 20 0 21-5v-6l2-9 2-9c0-2 5-5 8-6 4 0 6-1 6-3l-1-3-5-1c-4-1-5-1-3 2l1 4-2-3c-4-8-6-10-13-10-5 0-6 0-6 3m-16 1l-4 10-4 8-1 3c0 2 0 3-1 2-1-2-4 0-7 5l-2 3-1 2v2l-1-1-4-3c-4-3-16-3-19 0l-4 2c-4 0-8 5-10 12-4 9-3 12 4 12 4 0 4 0 3-4 0-5-1-5-1-1 0 5-2 3-3-3 0-7 0-7 8-4 5 1 7 5 4 6v3l-1 2-2 1h32c3-1 5-9 3-13-1-3 0-4 1-9 2-3 3-7 2-8l1-1c1 1 8-5 7-6l1-2 1-1 1-1v-6l1-1c1 1 1 0 1-3l1-5c3-4-2-5-6-1M50 111a518 518 0 01-19 4c23-1 29-2 30-4H50m-4 10l-3 4H32c-13 0-20 0-19 1v2c-1 1 1 1 15 1h16l3-4c3-4 5-9 3-9l-4 5" fill="#d3d3d3" fill-rule="evenodd"/></svg>