<svg xmlns="http://www.w3.org/2000/svg" width="400" height="151"><path d="M0 21v20l3-1h4l-3 2-3 1-1 33v33h2c5 2 4 12-1 12l-1 15v15h20c19 0 20 0 19-2l-1-13v-9c0 1 1 3 3 3 2 2 2 2 2 0l-1-3c-1 0-2-1-2-3l-2-3V70l4 1c3 1 4 2 4 4s0 2 1 0l1-13a403 403 0 01-3-20c0 5-2 6-6 5l-4-1V31L34 8V0H0v21M79 1l2 1c3 0 3 13 0 13H71c0-2-2-1-3 1 0 1-1 2-3 2-2 1-2 1-2 5a497 497 0 013 57v1l2 1 1 2-1 6c0 4 0 5-1 3s-1-2-1 0c0 3-3 4-5 2h-4c-1 0-2 0-2-2-1-2 1-4 3-2l1-2c-1-1 0-2 1-3s2-2 2-5c0-5 0-5-8-3-2 1-3 3-2 6l-1 1-1-5c-1-2-1 13-1 34v37h351V93a1645 1645 0 00-3-57c-5 2-8 3-10 1-3-2-2-3 3-3l3-1 3-1 4 1V20h-5c-4 1-5 1-7-1s-2-2-1-3c3-1 3-4 1-4s0-3 2-3c3-1 6 0 6 2-1 1 1 2 3 2l1-4V5l-6 1c-10 1-13 1-10 2s2 3-2 3-6-3-5-8l-1-3-1 3-1-1c-1-1-2-2-5-2h-3l2 2c4 3 5 6 2 6h-12l4 5c7 8 5 8-4 0-8-8-8-8-5-11 1-2 1-2-2-2-4 0-6 5-6 13 1 5 0 8-2 13-2 8-3 7-1-1 3-9 3-16 0-16l-10 2-10 1c0 1 5 14 7 16l4-1h6v1c-2 0-2 0-1 2 2 2 2 3-5 4l-5-1v-2c-1-1-7 0-7 1a291 291 0 01-1 16c0-4 0-4-2-2-2 1-2 1-2-1 0-3-3-6-4-4v4l1 4-2-2c-1-2-1-3-3-2-2 0-2 0-2-2 0-4-1-6-3-6-1 0-1 4 1 7v2c-1 0-4-2-6-6-2-3-3-3-3 0-1 3-3 2-3-3-1-4-2-5-3-5v-2c2-1 2-1-2-3-5-3-5-3-5 2l1 4-6 2-9 3-5 2 11-6c4-1 6-2 6-4s-3-3-18-5l-13-3-3-1-2-1c-1-2-10 8-10 9l8 3 13 5 7 3 1 1v2c3 3 3 6 1 9-4 4-4 4 1 4 2 0 4 0 6-3 5-4 6-3 3 1-2 4-2 4 4 5h4l2-5 7-9-1 15-7 13c-2 7-2 8 2 8l2 2 2 2 1 3-1 2c-2 0-2 1-2 4l2 4c3 2 1 4-2 4s-4-1-4-6l-1-6v-4c1 0 1-2-1-4l-2-3-2 3c-2 3-5 4-10 1-4-1-7-4-4-4l1-6-1-7v-5c2-1-1-4-3-2l-3 2c-2 0-3 1-3 10 0 8 0 9-2 9s-2-1-2-7c0-7 0-8-2-9-3-2-3-1-1 1l1 9v7h-12v-4c0-4 1-7 4-7l3-1-3-1c-2 1-3 0-4-1-2-2-2-2-2 6v9h-5c-8 1-9 0-9-8l-1-9-1 3c1 5 0 11-3 14l-2 2h3c2 0 2 1 2 3 0 3 1 3 4 4 5 1 7 4 7 8 0 2 0 3-4 3l-5 2c0 1 3 2 5 1 3-2 5 1 2 3s-7 3-10 1l-1-9c0-6 0-8-2-9l-1-1-8-5-11-6-4-2c-2 0-2 0-2 5 0 4 0 4-3 4-1 0-2 0-1-1l-1-8c0-7 0-7-3-8l-3-2h-1c-2 0-1 2 1 2 3 0 4 3 4 11v7h-15c-1 2-2 2-5 1s-3-2-3-7l-1-6-2-3-2-2c-3-1-4 0-1 2 5 4 5 11 1 15-3 4-4 9-1 8 3 0 12 5 13 7v14l-5 1c-7 1-9 0-9-4s4-8 7-8l2-1-2-1c-5 2-5 1-6-2-3-8-5-1-3 12 1 7 1 10-1 7l-3-1c-3-1-3-1-2-3v-10l-3 7c-2 8-4 9-8 4l-3-2v3c0 3 0 3-3 3-6 0-7-4-8-27 0-2-1-2-4-2l-6-2c-2-2 0-3 4-1s6 3 3 0c-2-1-2-2-1-6 0-5 0-6-5-9-3-2-3-3 1-4 6-1 4-7-2-7-3 0-4-1-4-2 0-2 10-3 30-3 13 0 17 1 16 4-1 2 1 4 3 3 1-2 4-2 7-1h9c7-1 8-1 8-4 0-2 1-2 3-2l3-1 18-3c5 1 13-1 15-3l4-2c2 0 8-7 8-10s0-3 6 1c8 3 9 5 9 9s1 5 4 3l2-2v-2c0-2 2-1 4 3 1 3 2 4 4 4s7-5 7-7c0-5-11-11-25-15-10-3-11-3-11 0 2 5-9 9-32 13a662 662 0 01-8-1c23-3 37-8 39-12 2-5-18-13-41-15h-8V9l-1-9-1 9v10l-3 2c-5 2-4 3-5-14V0h-18l-19 1-2 1-3 1h-3l-3-1c-1-1-2-2-5-2h-4v7c0 4 0 6-2 7l1 2v1l-3-1-7-2h-6V8c0-6 0-7 2-7 1-1 0-1-2-1h-5v15l-1-7V0h-5c-3 0-5 0-4 1m177 3c0 4 2 6 4 3l2-1c2 0 0 1-11 8-5 3-5 3 4 3l21 2 15 2 1-9V3h3l16-1 15-1-35-1h-35v4M68 20l-1 2-1 3-1 11v11h8a193 193 0 0118 0c-9-1-8-2 3-2 11-1 11-2 0-2-8 0-10-1-6-2v-4c0-1 4-5 6-5l2-1 2-1 1 1c0 2 1 2 3 1 3-1 3-1 3 1s0 2 2 1l1-1 2 3c2 1 2 1 2-2 0-2 0-2 1-1l1-2 1-4c1-2 23-3 38-3h14l-6-1h-4l5-1 5-1h-6a465 465 0 00-50 0l1 2-3 1c-2 0-3 0-3-2l-1-1c-12 1-21 1-23-1H68m285 15l-6 1c-4 0-6 2-6 5 0 2 21 0 30-2l-3-3h-5l-4 2v-1c2-2 2-2 0-2h-6M15 44l-2 2-3 1c-6 0 1 2 10 3 9 0 10 0 8-4-1-2-6-4-8-4l-5 2m208 10l-11 3-5 2 4 1c4 1 6 1 15-1l11-3-7-5-7 3M10 53l2 2v2l1 2 1 9c0 10 1 11 1 1s1-11 10-12c6 0 7-1 5-3h-9l-7-1c1-1 0-1-1-1l-3 1m241 33l-3 2h-18l-5 1v1c4 0 6 4 6 12l1 7c2 0 3-2 3-8 0-4 1-6 2-6 2 0 2 0 2 6-1 6 0 7 4 7 1 0 2-1 2-7l1-6c1 0 2 1 2 5l1 7 3 2c1 2 2 2 3 2l-1-2-2-5a7836 7836 0 012-7c0 9 1 10 7 9 6-2 7-6 1-5l-4-1c0-1 3-2 7-2s2-8-3-10c-4-2-9-3-11-2m13 0l4 2v8c0 7 0 8 2 8s2-1 2-6 1-7 2-7c2 0 2 0 2 6l-1 6h3c3-1 4-6 2-12-1-4-2-5-13-5l-7-1 4 1m-64 5c-3 0-5 1-5 2-2 2-2 2-6 1-4-3-7-2-9 0s-2 2 1 3c4 2 6 5 4 7v9l5 1c1-1 4 0 7 2 11 7 17 2 17-14 0-8-1-9-3-10-3-1-7-2-11-1m-31 2l-6 2-1 1 1 1c3-1 4 2 4 10 1 8 1 9 3 9s2 0 2-6l1-8c3-2 4 0 4 6-1 5 0 8 3 7 2-1 3-10 1-15 0-2-11-8-12-7" fill="#d3d3d3" fill-rule="evenodd"/></svg>