<svg xmlns="http://www.w3.org/2000/svg" width="400" height="225"><path d="M264 2l11 58 3 22-2 2-2 5c-1 3-2 18-1 19 2 1 0 10-2 11-2 2-3 3-3 6v5h1c3 0 3 0 3 2l-2 4c0 2 0 2-3-1-1-2-2-2-3-1-2 1-4-11-4-19 0-4-2-5-12-6-8 0-13 2-17 8-1 2-2 3-3 2v-3c0-2 0-2 2-1l-1-2c-2-2-2-3-2-8V95c2 1 2 1 1-3l1-4-1-2c-3-2-3-4 0-5l-2-3c-3-2-4-2-5-1-1 2-2-1-2-7 0-5-2-6-8-6l-10-2c-9-3-23-2-30 2-3 3 0 3 7 2 11-3 25-1 29 3 2 2 2 2-5 0-4-2-8-2-13-2-16 0-15 3 1 4 6 1 10 1 14 3 5 3 4 4-2 2l-11-3h-6l2 2c1 2 4 3 7 3 6 1 14 4 12 5l-5-1c-7-2-9-1-5 2 4 2 4 5 1 3-2 0-3 1-1 3 1 1 1 2-1 8l-1 5v4l-1-1-4-2-1-2-2-2c-1-1-1-1 1-1 3 0-6-8-13-10-12-5-31-5-38-1-2 1-1 2 8 2 12 1 21 3 28 6l6 3h-5l-9-1-11-3-6-2-1-1-2 1c0 2-23 1-33-1-14-4-19-3-21 1 0 3 0 3 7 4l11 1 9 2c4 1 4 1 3 3-2 1-3 1-11-1-11-3-17-3-20 0-4 4-2 5 6 6 8 0 16 2 18 4h2c1-1 1 3-1 14l-2 10 6-1h3c3 1 2 1-4 2a687 687 0 00-11 1l1-6c-3 0-4 2-4 5l-2 4v-5c1-2-18-2-21 0a5408 5408 0 00-72-29l-8-4v122h195l195-1a639 639 0 00-26-76l-1-4c0-1-4-9-7-12l-3-7c0-5-3-11-6-13l-4-6c-3-3-4-4-6-4-5 0-6-2-3-4v-1c-2 0-2 0 0-2l3-2h-3l-5 2c-2 0-3-1-1-6 2-4 0-4-2 0l-1 4-2-5-3-3c-2 0-6-4-6-6a668 668 0 00-18-69l-2-10h-30v2M87 112l-2 4c1 5 18 4 23-1 3-3-18-6-21-3m216 11l1 2h2l2 1c2 2-6 5-17 8l-6 1 5-1 5 1-5 1h-4l3 4c4 5 1 4-5-2-5-6-9-8-8-4l2 5 1 3c1-1 1 0 1 3v1c1-4 1-4 2 2 0 4 2 8 3 8v-2l1-2 4-1c1-2 2-1 2 3-1 4 1 5 4 4l1 1h1l6-1h1l1-2h8l1-2 1 1h1l2-1c1 2 3 3 3 0 0-2 3-2 5-1h1l1-1 1 2h1l3 2c4 3 4 2 1-7l-2-11-1-5 4 7c4 7 5 8 7 7l3-1-16-23c-3-2-27-3-27 0m-218 0c-7 3-4 8 4 8h7l2-2v-2l1 2c1 3 4 1 5-3v-3l-8-1-11 1m136 0l-1 4c0 2 0 2-2 1h-3c-2 1-1 3 3 4 2 1 3 2 3 4s-1 3-4 1h-2l1 1 4 3c2 3 3 3 4 2 0-2 1-2 3-1 4 2 5 0 3-3l-2-1c1 2 1 2-2 2-2 0-3-1-3-4s0-3 3-2 3 1 3-1 0-2-1-1c-1 2-5-1-5-4s0-3 3-2h3l-3-1-3-2h-2m52 11a426 426 0 00-1 29l4 1v-14c1-2 0-12-2-17-1-2-1-2-1 1m-52 21l-1 2c-2 1 0 3 13 17s15 16 19 13l4-1 3-1v-2l-2 1h-1l-4 2c-6 3-5-1 2-9l3-5c0-2-5 0-5 2-2 4-10 3-16-3l-8-7c-7-5-5-6 3-3l10 3h3l-3-1c-7-2-17-8-17-9 1-1 0-1-1-1-2 0-3 0-2 2m114 7c0 4 0 5-2 7l-3 4-2 3v5c1 5 1 7-1 5l-1-1c0 3-2 2-3-1s-2-4-1-5v-1l-1-1c0-3 2-2 2 0l3-3c3-5 3-5-4-4-4 1-4 1-2 2 2 0 2 1 1 1l-1 4c0 2 0 2-1 0-2-2-3-3-3 0 0 1 0 2-3 2-4 0-6-2-4-4l1-3h-2l-3 2-1 3c1 3 4 5 10 5l2 1v4h-1l-1 1c-1-1-1 0-1 1l-1 3-1 1 3-1c3-2 4-1 1 2s-1 4 4 2h6l4 1c2 0 2 0 1 2v1l2 1c-1 1 0 1 1 1 4 0 1 2-4 2-5 1-7 2-4 4 2 1 7-1 11-5 2-1 3-1 3 1l3-1c5-2 7-1 3 2l-4 3h6l3 1-5 2-13 1c-4-2-3 2 1 4l2 2c-2 0 1 4 3 4v1h9l10-2h4l-10-21a196 196 0 01-16-38" fill="#d3d3d3" fill-rule="evenodd"/></svg>