<svg xmlns="http://www.w3.org/2000/svg" width="400" height="225"><path d="M0 113v112h206l-1-4c-2-4-2-4-3-2h-1l1-3v-4c-2-3-2-9 0-11l3-6 2-7 1-9-1-15-2-11-2-2-1-6v-3c2 0 1-2-1-2s-3 0-2-1l-3-6c-2-2-2-4-2-8l-1-4-1-1c0-1-4-6-6-6l-4-2-4-2c-1 0-9-2-13-5l-6-2-1-1-1-2-3-2-3-1-2-1v-2l12 5c31 12 30 12 33 10v-2l-17-8-6-2h5c5 0 7-1 6-3l3-8 3-2 5-4c3-3 4-8 2-12-2-3 2-6 4-3h3l3-2 3-5c0-3 0-3-1-2s-1 1-1-1 0-2 2-1c3 1 3 1 4-2 0-2 1-3 3-1h1c0-2 5 2 6 4l1 3c-1 2 0 9 3 13l2 5c0 3 3 7 4 6v2l1-1h1l1-1-1-2v-3c1-1 1-1 1 1l2-1 1-4c0-2 0-2 1-1l1 4c-1 2 0 3 1 4l2 5c0 6 3 9 6 9l5 1c2 1 4 1 9-2l7-2 1-1h2c2 1 2 1-7 6-9 4-9 5-1 2l7-2 1-1v-1h1l1-1c3 0 1 3-4 6l-12 7c-3 3-8 5-9 5l-2 1-3 3c-2 1-2 2-2 4 1 2 1 2-1 2s-2 0-2 12v20c0 6 0 7 3 10 4 4 4 6 1 11-3 3-3 5-3 13l-1 11v8l2 8 1 9c1 1 10 2 79 2h79V0H0v113m212-21l2 6c0 3 0 4 1 3s1-1 1 1c1 3 3 3 4 0l2-2c2 0 3-2 2-5l1-2v-1l-2 1c-1 1-4 1-6-1-2 0-2-1 1-1 2-1 2-1-2-1-5 0-5 0-4 2m-1 54l-1 16c-2 0-1 10 1 11v11l2 8 1 5v-6c0-5 2-7 2-2 0 2 0 3 1 2 0-3 2-2 3 2 0 2 1 3 2 3l1 4-1 3c-2-2-4 4-4 9s-1 8-3 6c-1 0-2 2-2 5 0 2 1 2 7 2 9 0 11-2 6-6-4-3-4-6-1-18l1-4 4 14c4 11 5 14 7 14s2 0 2-4l-1-7c-1-2-1-2-1 0l-2-3c-1-5-2-5-2-3s-1 1-3-4c-1-4-2-8-1-10 0-3 0-3-1-1s-3 4-3 2h-2c-2 0-2 0-2-7v-9a443 443 0 01-1 5l-1 4c-1-1-2-2-2-6a1505 1505 0 00-2 2c-1 0-2-7-3-28l-1-20v10" fill="#d3d3d3" fill-rule="evenodd"/></svg>