<svg xmlns="http://www.w3.org/2000/svg" width="400" height="225"><path d="M0 20c0 18 0 21 2 24l3 2 1 1h1c2-3 3 3 1 12 0 4 0 4-4 4H0v162h28l28-1c0-2-4-3-11-3-9-1-11-2-6-4a468 468 0 0194-20 185 185 0 0035-8c7-1 20-2 18 0l-11 4-11 4-7 2-9 3-44 16c-26 8-42 7 138 7h159V0H222a1843 1843 0 01-17 57l14-55c0-2-6-2-109-2H0v20m32 46c2 1 2 1-3 1h-5v5c1 5 5 17 7 18l6 6 6 6 12 5c5 2 6 3 5 4v3c2 0 2 1 1 2l1 3v6l-1 11-2 9-1 5-1 9v8c2 3 3-1 3-7l1-5 1-1-1-2v-2l3-25 1-4 1-3 4-32c1-7-1-10-13-14l-5-4c0-2 0-2-1-1-1 2-2 2-9 0l-11-2c-2 0-2 0 1 1m108 28l2 12 3 27c2 22 2 25-2 20-3-2-5-3-6 0 0 2 2 4 4 4 4 0 6 2 6 5l2 4c1 1 1 1 1-1 0-3 1-3 4-1 6 3 8 1 3-3l-2-2h2l4 2c2 0 2 0 2-2 0-1 0-2 1-1l1 2c0 2 1 2 4 2 5-1 5-2 6-11l1-9c0-1 0-2-2-2s-2-1 1-4c2-1 3-3 2-4l-1 1h-1l-4-2c-5-1-4-2 2-4l6-1-3-8c-3-11-3-12 11-11 10 1 11 2 12 5a235 235 0 003 14c1 5 4 6 4 2 0-3 0-2 1 2 1 3 1 2 1-7 0-8 0-12 1-10s1 2 1-1v-3h6l6-1c1-1-3-6-6-7-2 0-2 0-1-2l2-3h-3c-2 2-5 1-5-1h-1c0 2-2 3-2 1-1-3-5-2-6 0-2 2-3 2-3-1l-1-2-1 2c0 2-1 2-4 1l-4-1c-1 1 2 4 4 3l1 1h-7l-3-1-3-2-4-2c-2 0-4 3-3 5v2c-1 1-1 1-2-1l-1-2-2 3c-1 4-6 4-8 0-2-3-4-4-4-1s-8-1-8-5c-1-3-7-4-7-1m84 3c-1 2 0 5 2 5v1c-1 0 0 5 2 6 1 1 1 3-3 15a6765 6765 0 00-6 21c0-4 5-14 6-13l1 1 1 1 1-1c0-3 5-1 6 2l4 2 4 2 2 1 3 4c1 6 1 6 6 5 5 0 6-1 6-5l2-16 2-14-6-6c-7-7-8-7-10-3-1 2-2 2-5 2s-5-2-7-7c0-2 0-2-2 2s-2 4-3 3v-4c2-4-3-7-6-4m-113 34l-3 9c-1 4-1 5-1 2 0-6-2 0-2 10v8l1-7 1-6 1 10 1 12 1 1a65507 65507 0 011-39m188 8c-2 1-3 2-4 1l-4 2-6 6-4 3c0 2-5 6-5 4s-2-1-5 2l-5 4c-7 4 3 5 19 3 7-1 8-2 9-4 1-3 1-3 2-1 2 2 6 2 6-1 0-2 1-2 2-2 4 0 5-7 1-14l-3-5-3 2m-104 43c-3 1-3 1 1 1h43c0-2-37-3-44-1" fill="#d3d3d3" fill-rule="evenodd"/></svg>