<svg xmlns="http://www.w3.org/2000/svg" width="400" height="225"><path d="M0 66l1 66c1 0 4-4 4-6l2 2 2 4 5-9c0-2-2-1-3 2l-2 3-1-3c0-2-1-3-2-3l16-2h6l-2-2-2-2 3-1c3-1 4-2 3-3l2-3 2-1v-3l-3-1c-2 0-2 0 0-1h2l-2-1c-2-2-2-2 0-2 1-1 2-2 1-3l1-1 1-1c0-2 2-3 4-3 1 0 2-4 2-12s1-9 3-7c4 4 8 2 8-3l-2-4-3-2 3-2c2-1 3-2 3-4s0-2 1 0l1 2 1-2 2-1 1-1 1-2 6-6a270 270 0 0128-27c2 0 2 0 1-1l1-1h1l2-2 3-1h-3c-2 0-2 0-1-3 0-2 1-2 1-1l2-1 3-1 1-4 4-3c4 0 4 0 2-1h28c27 1 27 1 26 5l1 13c2 21 1 100-1 94-1-2-2-2-5-2l-8-1c-4-1-4-1-3 4l1 6-2-4c-5-25-7-32-3-11v11l-2-8-2-11v22l-1-7v-5l-1 4-1 4v-4a444 444 0 01-4-34c-2 0-2 1-2 8l-2 10-2 3-1-2-2-3-2-5-1-5a3612 3612 0 01-8-4c-1 0-2 4-1 5 2 1 1 2-2 2-3 1-5-1-5-7l-1-4v5l-1 6c-2 2-3 1-2-4v-9l1-4 1 1h2c2 0 2 0 2 2l3 4h3l3-1c2 0 2 0 2-2l1-2c3-2 3-3-1-4l-3-2 2-1c3-2 1-3-3-2-2 0-2 0-1-1l6-2 7-1c2-1 4 0 4 3l1 2c1-1-2-9-3-10l-4-1-5-2c-3-3-5-4-6-1-1 2-6 2-9-2-3-3-2-3 5-5h11c8 4 9 4 9 0s-5-10-11-13c-18-9-43 1-42 17l-1 5-1 5c0 5 2 8 4 8s5 4 5 7l2 5v3l2-1 2-2 1 2c1 2 2 2 6 2 3-1 4-1 4 1l-1 1-4 2-2 1 1-2c1-1 1-1-3-1s-6 2-4 4c2 1 5 9 5 15v3l-2-4v4l-1 11v6h12a417 417 0 0054 2c6 0 10 1 6 2-3 1-4 4-2 5v1l-1 2 2 1 1 1-8 1-9 1h-2l-1 1-2 1h-1l-1 1c1 1 0 1-2 1l-4 1c0 2-2 3-6 4l-4 2-2 2-4 2-4 3-6 4-3 2-1 1c-1 1-2 2-3 1l-2 2-1 3-2 1h-2l-1 1c0 2-1 2-4 2l-2 1h-2l-1-1-3-2c-3-2-5-3-3 0 2 2 3 6 2 6l-1-1h-2c-1 1-1 1-2-1l-2-1 1 3 2 3-1 3c0 1-4 3-7 3a2167 2167 0 00-8 2l-2 1-2 1c-3 0-3 0-3 3l-2 6-2-1h-2l2-2c3-3 3-4-3-3-5 0-6 2-2 2 2 0 2 0-1 2l-2 3h4l5 1h-5c-5 2-5 3 1 3l5 1h-5c-4 0-5 0-5 2-2 5-2-1-1-35l1-37-19-1-19-1v11l1 10 3 1h5l6 1 5 1-1 1h-1l-4 1-3 1-4 2-2 1 12 3c6 0 7 1 5 7l-1 7-1 3-1 3v3c-1-1-6 6-6 7s0 2-1 1l-3 3c0 2-2 4-3 5v2l2 5c1 4 1 4-1 4-3-1-4-3-4-8l-1-4c-2-1-2 1-2 10v11h400l1-113V0h-49a478 478 0 00-51 1l-20-1h-21v3c0 4 0 4 23 5 44 2 47 3 46 5l-4 2-8 3-2 1-1 1-4 2-3 1-2 1c-1 0-2 0-1 1l-1 3c-2 0-2 1-1 2v1l-2 1-3-1-7-2-5-1-1 1h-2l-9 1h-1l-1 1-1 1c-2 0-4 5-4 9l-1 1v3l1 5c0 3-1 3-4 4l-8 3c-2 2-5 3-8 3s-5 0-4 1c2 0 1 2-2 6s-8 13-10 20l1 8c2 9 1 12-4 15l-4 1-3 2-10 2c-5 1-7 1-10 4l-3 3-6 1-6 3-1-2c-2-9-3-20-3-46l5-73 67 2c1 0 2-1 2-4s0-3-2-2a3445 3445 0 00-130-1H0v66m201-44c-5 6-1 14 6 14 4 0 8-3 8-6s3-5 4-4c2 0 3 4 1 6-2 0-1 5 0 5 3 0 7-6 7-9-1-5-5-8-9-8-3 0-5 2-7 7-1 3-3 4-4 4-2 0-3-3-1-5 1-2 1-6-1-6l-4 2m20 22l-4 3-3-3c-3-3-9-3-12 0-3 2-5 14-4 15l14 2h14v-2c0-3-1-3-9-4-2 0-2-1 3-4s6-4 6-7v-3l-5 3m-23 31v8h13l13 1 1-8 1-8-3-1c-3 0-3 0-3 5 0 6 0 6-3 6s-3 0-3-4c1-4 0-4-2-4-3 0-3 0-3 4s0 4-3 4-3 0-3-5c0-6 0-6-2-6-3 0-3 0-3 8m162 7l-1 18v17h4c6 1 8-5 8-23 0-11 0-12-2-12h-9m30 1c-1 0-1 8 1 21 1 10 3 17 3 13l1-2 2-5 2-5 1-12V82h-4l-6 1m-192 7c0 3 1 4 9 7l9 4-9 4c-9 4-10 4-10 7 0 4-2 4 16-2 11-5 12-5 12-8s0-4-5-6l-14-5-8-4v3M81 111l-6 1c-6 0-11 2-14 6l-2 3h4c9 2 18 1 19-1 2-4 1-12-1-9" fill="#d3d3d3" fill-rule="evenodd"/></svg>