<svg xmlns="http://www.w3.org/2000/svg" width="400" height="225"><path d="M0 113v112h120l2-7 2-7v14l1-9 5-23c0-2 0-2-5-2l-6-1c0-3-4 2-6 8-2 8-4 8-4 1s-1-4-2 5l-1 11-1 4v-5c1-3 0-4-1-4l-3 2 1 1c2-1 1 1-1 2v4c-1 1-2-1-2-9l-2-15 1-4c3-1 6 0 6 2h1c0-2 1-2 4-2s3 0 2-1v-2l4-2 1-2 1-3c2-4 1-6-3-6-1 1-2 0-3-1l-4-3-2-1 2-2c4-3 4-4 1-4s-5 2-3 2c1 1 1 1-1 1-1 0-2 0-1-2l-1-1c-1 1-5-2-3-3l1-3 1-2c2 0 5 2 5 4l2 1 4 1 5 2 3 2c1 1 2 0 2-2 2-3 2-3 1-5-2-1-2-2-1-5 2-1 2-2 0-3v-1l1-1c0-1-1-2-2-1v-1l1-3-8 3c-6 4-7 3-3-1 4-3 5-8 3-10l-1-2v-1l-1 4v3l-3 3-3 2-1 2-2 3h-2v-4c1-2 1-3 2-2 2 0 2 0 2-2 0-1 0-2-1-1l-1-1-1-1-1-1 3-4h1l1-2 2-1h5v-4c0-4-1-5-2-3h-1l1-3v-2l-3 1v-8l2-3 3 5 6 6 7 8a152 152 0 0015 19l4 6 4 4 3 6c-1 1 2 4 5 3l1 1v3c1 2 1 2-1 2-3-1-3 0 1 2 2 1 2 1 1 3v3l3 5c1 4 1 4-1 5l-2 1c1 1 8 0 8-1 0-2 3-1 4 1l2 1 20-1c17 0 28-1 22-2h-22v-6c0-5 0-6 2-6l2-2c-1-1 0-1 1-1 6 0-2-2-10-3-12 0-13-2-2-4 4-1 4-1-3-1-6 0-7 0-6 2l-1 4c-1 2 1 3 3 1l4-1c3 1 3 3 0 3l-3 3c-1 4-6 9-9 9s-4-2-2-3l3-3c0-2 1-3 2-3v-1l-1-2-5-5v-2c1-2 1-2 3 0 3 2 3 2 3 0s-6-6-8-6c-1 1-2 0-2-1h7l14-1 14 1-1 1v1l3 1c3 0 3 0 2-1-2-2-1-3 3-3l4 1h1l12-1h13a1103 1103 0 00-72-2h-5v-11c0-12 0-12-5-9-3 1-3 2-2 3 0 2 0 2-1 1l-3-1-3-3-24-36-5-1c-3 0-3-1-3-3s0-2-2-2c-2 1-3-2 0-4v-4c2-1 0-4-4-5-4 0-10 3-12 7l-5 5-3 4c-1 2-3 0-3-3s0-3-1-1h-2c0-2 0-2-2 0l-2 2-2 2-2 4v-1l-1-3-1-5-1-4v-2c0-2 0-3-2-2-1 0-2 0-2-2s-1-2-3-2c-3-1-4-2-2-4s2-2 0-2l-3-3-1-2v-7l-1-5-4-4-1-2c-1-1-2-1-2 4 0 2-1 2-2 1-1-2-2-3-1-5 0-3 0-3-2-2h-2l3-2c1-1 2-2 1-3 0-2 0-2 1-1s1 1 1-1l1-3v-1h-3l1-1 2-1-1-1-2-1c-2 0-2 1-2 7 0 3-1 4-2 3l-2-2-1-3-2-3-1-1-1-2h-1c-2 1-3 0-1-2s1-4-1-4-2 0-1 1v2l-1-1-3-2-1-6-1-5-1 1-1 1c-2-1-1-3 1-3l1-1v-4l1-5 3-3 1-1-1-1-1-1-14-1H0v113M253 1l2 2c0 2 5 4 7 3h2v1c1-1 4 1 4 2l-1 1c-1-1-2 0-2 1l1 1c1-1 1 0 0 0l1 2 2 1 1 3-1 3c-2 1-2 2-1 4l-1 4c-1 1 0 2 1 3 2 2 2 2 0 5v2l1 2-2-1h-3l-2 2 1 3 1 2 2 1-1 1-2-1-1-1c-3 0-2 2 0 3v3c-1 2-1 4 1 4 1 0 2 1 1 2 0 2-1 3-2 2l-2 1 1 2v4l-1 1c-2-1-3 0-1 2v1c-1 1-2 0-2-1h-4l-1 3c1 3 1 4 2 1h3c1 2 1 2 1 0l1-1h1c0-4 7-3 8 1l1 5c0 2 0 3-2 4-2 3-3 4 0 4 1 0 2 0 2 2l-1 2c-3 0-4 2-2 3 2 2 3 4 4 12l2 9v4l-1 13 4 4c3 2 4 3 4 5 0 3 0 3-4 3s-4 0-4 4v3h4c4-1 4-1 4 3l-1 3h-3l-4 2-2 1-2 1h2c2 0 2 0 1 2s-1 2-6 2l-6 1 2 1c2-1 4 1 4 3h-1c-1-2-2-2-2-1v1l1 1-1 1c-2-1-2 0-2 2s0 3-2 3l-2 1 2 1c2 0 2 0 2 5-1 5 0 5 6 5l5-1-3-1c-3-1-3-1-3-4 2-6 6-13 9-14 5-3 5-2 5 3l1 5v2c-2 2-2 2-1 3 3 1 1 4-2 4-2 1-2 1 0 2l2 1-2 8-4 12-2 10-1 5h14l3-9 2-8v8l1 9 1-14 1-17 2-4 17-1h18v10a329 329 0 012 26l1-18-1-18h26v11l2 18v7h42v-41h-3l-4-1h-3c0 2-2 1-2-2 0-4 4-9 5-7 1 1 0 2-1 2v2l2 3 6-3-2-1v-1c2-2 2-7 2-89V0h-39a657 657 0 00-36 3l-2-1c-1-2-2-2-12-2-11 0-11 0-11 2v12c-3-1-5-8-3-8 1 0 1-1-1-1V3l2 1h1l-1-3-4-1c-3 0-4 0-3 1l4 10-2-1-1-1c1-1 0-3-1-4l-2-4c0-1-8-1-10 1-2 1-3 1-4-1l-13-1-9 1m-26 22l-1 7c0 4 0 5-3 3l-4-2c-2 0-3 0-3 3l2 3 2 2c0 2 2 0 2-3 0-2 0-2 1 1s2 4 3 2h2l3-2 3-2c2 0 2 0 1-1l-5-1c-3-1-5-6-2-6l1-2 2-3-3-3-1 4m-8 30c-2 2-3 7-1 7h2l2 2c1 3 2 3 3 0 1-2 1-2 1 0s0 3 3 3c4 0 4-1 4-4 1-6 1-6-3-5l-5-1c-1-2-2-2-2-1h-1c0-3-2-3-3-1m27 50c1 2 0 3-2 1h-1c-2 1-1 2 1 4l2 3 1 1h5c3 1 4 1 4-1l2-2v1l2 5v-3c0-2 0-2 3-2l3 1c1 2 2 1 1-2 0-4-3-5-10-6l-8-1c-3-3-3-2-3 1M91 119a1501 1501 0 01-9 26c-1 3 2 21 3 21l3-4c3-14 4-17 4-26 0-8 1-16 3-21 1-5-2-2-4 4m282 11c-2 9 1 26 5 27 3 1 3-16-1-24-3-8-4-8-4-3m-169 42c-1 2 0 2 2 1l7 1c3 0 3 0 1 2l-1 1 1 5-2 2c0 2 0 2 4 3 2 0 3-1 3-2l3-3c3-1 3-2-1-5l-2-4c1-1 0-1-4-1l-8-1-3 1" fill="#d3d3d3" fill-rule="evenodd"/></svg>