<svg xmlns="http://www.w3.org/2000/svg" width="400" height="225"><path d="M40 17c-6 1-6-4-6 96v91l3 3 3 3h38l39 1c1 2 5 2 34 2h33l3-4 3-3v-73c0-77 0-75-6-78l-10-1h-7V39c0-14-1-20-4-21-1-1-118-2-123-1m-2 71a1699 1699 0 002 48v-4h10c10 0 11 0 11 2 1 2 1-1 1-4l1 15 1 22h48v-38c0-33-1-39-2-39l-2-1 2-1c2 0 2-1 2-4 0-4 0-4-2-4h-2v-1l1-1h-3c0-1 2-3 4-2l2-1c0-1-1-2-3-2l-2-1c0-2 0-2 2-2s3-1 3-6c1-10 2-10 28-10h22V37H38v51m80-28l-2 3v51a649 649 0 004 65h60l3-1v-11l1-10v11l1-48V61l-2-1c-4-3-11-3-13 1l-1 2h-18c-18 0-19-1-19-3-2-3-11-3-14 0m126 27c0 5 1 6 3 6 5 1 9-2 7-5v-4c0-2-1-3-5-3h-5v6" fill="#d3d3d3" fill-rule="evenodd"/></svg>