<svg xmlns="http://www.w3.org/2000/svg" width="400" height="225"><path d="M117 55v4l-1 4h9l9 1h-10c-13 0-12 2 1 2 10 0 11 0 9-3l-1-5v-4h-8l-8 1m168 32l-7 8-4 5-3 5c1 1 0 2-2 3l-2 4-2 5c-2 2-3 4-1 6s0 3-5 3h-5v21c0 22 0 22-2 22-3 1-5 3-3 6l1-1c0-5 6-5 6 0 0 2-1 3-3 3-4 0-5 3-1 3l5-1c-1-1 0-2 1-2v-2c-2-4 0-6 7-6 8 0 12 3 8 7-1 1 5 1 29 1h30v-51h-4l-5-2c-2 0-2-1-1-1 2 0 3-5 1-8l-1-5c0-3-4-7-6-5l-1-2c1-2-1-7-3-7l-4-4c-4-7-15-9-23-5m-180 1h-2c-2-2-11 2-11 4l-2 4c-2 2-2 2 0 7 1 4 1 5-1 6-1 3 0 6 3 6 1 0 4 4 4 10 1 5 0 5-8 8l-7 4-2 2-1-3-2-5v1c2 2 0 4-3 4-1 0-2 0-1 1 2 0 3 4 1 5l-1 3-1 1-1 1-1 1c-1 1 1 1 4 1h5v5c0 6 4 14 7 16 2 1 3 3 3 6l1 3h8c7 0 8 0 9-2 0-2 3-2 3 1l9 1c8 0 8 0 8-2l2-4c7-4 10-17 6-27-3-9-7-13-15-16l-6-2v-4c0-7 1-11 3-12v-6c-3-2-2-6 0-6v-2c-2-1-2-2-1-3 1-2 0-6-3-6l-3-1c-1-2-2-2-4 0m37 45c-6 5-6 5-2 9l4 2 4-5c6-6 6-5 2-8l-4-3-4 5m141 18v4h20v-7l-10-1h-10v4" fill="#d3d3d3" fill-rule="evenodd"/></svg>