<svg xmlns="http://www.w3.org/2000/svg" width="400" height="225"><path d="M293 80l-2 5c0 4 0 4 2 4l3-2c2-3 6-3 9 0 2 2 3 3 4 2s1-8-1-9c-1-2-14-2-15 0M98 81c-4 1-6 4-6 11l-1 8c-1 1-1 3 1 3l1-1c0-3 1-2 4 1s4 3 7-1c2-2 3-2 4 1 2 3 6 4 8 1 1-2 2-2 2-1 0 5 2-3 2-9 1-5 1-6 3-7v-2l-4-2c-2-2-4-2-11-2H98m0 8l-3 9v3l1-3c1-4 3-5 5-5l2 1c-1 2 2 5 4 5l4-1 1-2-1-1c0-2 3-1 4 1 2 2 2 2 2-1 0-4-1-5-5-5-11-2-13-2-14-1m195 19c-4 2-7 6-8 10 0 2-2 5-5 7-4 4-5 5-3 11 1 2 1 3-1 6-4 6-3 10 5 13l3 2 2-4 2-4v13c0 17-2 16 13 16h13v-15c0-15 1-18 3-11 1 3 3 4 7 2 7-4 8-9 5-14-2-2-2-4-2-8v-5l-6-5-6-5c0-3-5-8-9-10-4-1-9-1-13 1m-1 14l-4 2 7 11 6 2h3l-3 2c-5 3-5 4-2 4 6 0 7-1 7-5l2-6 2-4 2-2 1-3c-1-1-6 0-7 1h-2v-1l-4-2-4-2-4 3m-179 13h-12v43h65v-43h-9a861 861 0 01-44 0" fill="#d3d3d3" fill-rule="evenodd"/></svg>