<svg xmlns="http://www.w3.org/2000/svg" width="400" height="225"><path d="M235 66c-7 3-3 14 4 11 3 0 5 2 2 4v1h2c0-2 1-2 3 0 1 2 2 2 3 1l-3-4c-3-3-4-4-3-6 2-4-3-9-8-7m-127 6l-2 4-1 3-2 3-2 2v2c2 1 3 7 2 9v2c1 1 3 0 2-1l1-1 1-5c-1-5 1-8 8-9s11 3 11 10c0 3 0 3 2 2l1-5 1-3c3-2-6-10-10-10-3 0-4-1-5-3-2-3-4-4-7 0m12 16l-1 2-1 2c-3 0-5-1-4-2l-4-2c-2 1-3 8 0 9 2 1 2 1 4-1s4-3 4 0h6c2-2 1-5-2-6l-2-1h2l2-1h-4m111 16c-5 5-4 14 3 17 8 3 17-5 14-13v-4c1-1 1-1-1-1h-3c-2-3-10-2-13 1m32 1l1 2v1c-2 0-2 0-1 2h7c0 2 4 0 5-2 1-1 1-1 1 1 1 3 3 2 4-1 1-2 1-2 1 0 0 3 3 4 5 1 2-2 0-3-8-4-7 0-8 1-8 2-1 1-1 1-2-1-1-3-4-4-5-1m-29 1c-5 4-2 12 4 12 4 0 7-4 7-7 0-6-6-9-11-5m-1 32c-5 4-1 13 5 12 3-1 4 0 7 3l4 4c2 0 1-3-2-6s-4-4-3-7c1-6-6-10-11-6m30 6c0 3 0 3 3 3l3-1h14l2 1c2 0 3-1 3-2 0-2-1-3-3-3l-2 1h-12c-2 1-2 1-2-1s-1-2-3-2c-3 0-3 0-3 4M73 173l44 1 43-1-43-1-44 1" fill="#d3d3d3" fill-rule="evenodd"/></svg>