<svg xmlns="http://www.w3.org/2000/svg" width="400" height="225"><path d="M1 1v7L0 21v13l2-1 3 1 2 1 1-1v-1l-1-2-1-2 1-1v-3l-1-3-1-5c-2-3-2-5-1-6C6 8 3 0 1 0v1m52 2l-2 3-2 2-4 4-2 2-2 5-3 2c-2 0-3 2-3 3l-3 4-2 4c1 1 0 2-1 3l-2 2-2 6c-3 5-3 5 1 5l3-1 7-15 3-5 4-4 1-2 2-3 5-6L62 1c1-1 1-1-2-1s-5 1-7 3m123-1c1 1 1 1-1 2s-2 2-2 3l1 4 5 4c9 5 14 11 14 16l1 4-1 2c-3-1-2 2 1 4 2 1 2 2 2 10 0 5 0 9-1 8l-2-2-2-1h-1l-6 1c-6 0-9 2-6 4 3 3 1 5-3 5h-4l1 3c2 4 3 4 7 3 2 0 3-1 5-4 2-6 7-8 7-3l3 10c3 6 2 8-2 9-6 1-7 1-6 4l1 3-3 2c-7 1-7 1-6-5 2-5 1-5-5 0-5 4-5 5-5 8v5l3-1c3-2 8-3 9-1l-3 4-3 3h2c4 1 4 2 0 4h-3l-3-1c-3 0-5-4-5-7v-2l-2-1c0-1-1-2-3-2h-12c-3 0-7 3-7 5s-3 1-4 0c-2-3-3-2-2 0l-2 2-6 5c-4 5-5 5-7 2-6-7-17-11-21-8-1 1 0 2 3 1l1 2-1 1v1l-1 2c-3 2-4 5-2 9v3c-2 0-3 2-3 9s1 11 8 18l2 4v2l2 3c0 3-6-2-7-5-1-4-2-4-1 2 0 5 0 6-2 9l-3 1-7-14-3-6-1-5v-1c1-1 0-4-4-8-2-3-2-5 1-5 2 0 3-2 5-6l3-8 2-3c-1-1 1-4 4-8l5-6h-4c-5-1-8-4-5-8 3-5-3-2-7 3l-6 6-5 6-5 6c-2 2 0 3 4 1 4-3 5-2 9 1l3 3-2 2c-2 2-2 4 1 4 2 0 1 3-3 5-5 3-7 3-14 0a118 118 0 00-12-5l-8-5c-5-4-6-4-6 0v5c-4 6-4 9-2 13l3 10c2 9 9 14 20 15l4 1v-4l-2-12 3 4c4 6 5 7 4 4 0-3 2-5 3-2 0 2 1 1 1-3l1-6 4 8a48 48 0 015 13c3 8 2 10-2 3l-3-2h-2l-1 9 2 6 2 11c5 9 5 16 1 28l-4 10h15c14 0 15 0 14-2-4-11-5-25 0-24l3-2c3-4 7-1 7 6 0 3 1 4 3 1 1-2 4-3 5-1 0 1 3 2 8 2h9v-3c0-7 1-7 11-7l25 2h16l2-3c1-3 2-4 1-5v-1l1-3 1-1 1-2c0-3 4-5 8-6 5 0 5 1 19-25l20-38c3-6 6-7 14-7h6l-1 6 1 6 22-2c22-3 23-4 23-10 0-3-1-3-6-3h-10c-4 1-4 1-4-2 3-8 4-9 13-11 16-2 17-2 14 7v4c3 2 2 6-4 16-5 8-6 10-3 8l5-3c4-2 12-9 12-12 1-3 4-3 5-1 2 3 2 3 10-8l9-13 2-2 6 2c10 3 10 3 6 9-3 3-4 6-4 7l-2 2-2 3-2 3-8 10-42 54-1-3c-2-3-2-4 0-5v-4l-1-3 6 6 1 1a4057 4057 0 0049-70c-1-2-10-4-11-3a283 283 0 00-15 24l1 1-2 1c-3 0-18 19-18 22l-2 3c-2 1-2 1-2-1 1-3 0-3-2-3-1 1-2 0-2-1-1-1 0-1 2-1s2 0 1-2c-2-3-3-4-5-4v1c1 1 1 1-1 2-1 0-2 1-1 2l-1 2a708 708 0 00-39 57l2-3-3-2c-3-2-10-3-11-1l-4 1-5 4c-3 2-4 2-4-2l2-2v-3c-2-3-6 0-12 9l-11 14c-7 7-5 10 2 3 6-6 7-5 1 3l-3 6h7c9 0 27-6 30-11 1-2 3-3 8-4l8-3 4-1 2-1v-1c3 0 7-2 6-3s0-1 2-1c1 0 2 0 1-1l4-2 5-3c-1-1 4-4 5-3l3-1 7-2c5-1 15-6 15-7l2-1-1-1c-2-1-2-1-1-2l2-1a404 404 0 0151-19c2-2 2-2 0-2l-6-1c-3-1-21 2-23 4l-4 1-10 3c-8 2-14 3-14 1s5-5 10-5c5-1 20-5 21-7l20-6c9-3 11-4 11-6-1-2 2-4 7-5 10-2 14-5 10-7l-2-4c0-5-1-5-4-1-3 3-8 7-10 7s-3-2-2-3l1-6c-1-4 0-6 3-10l3-6c0-1 5-8 7-8 2-1 2-2 2-5l2-4c1-1 2-14 0-16h-6c-4 0-7-2-9-7-1-3-1-3 1-7 3-3 10-8 14-8 1 0 2-12 1-15 0-2-6-3-12-3-2 0-3 0-3-2 0-4-1-5-4-5l-4-1c-2-3-3-2-4 4l-3 4c-1-1-1 1 1 10 1 7 3 12 2 5v-3l1 1 2 1c3 1 2 11-1 12l-3 2c-5 7-6 7-8 1l-4-6-1-4c0-2-1-3-2-1h-4l-4-1c-2 0-3-1-3-2a300 300 0 01-4-10l-1 2c3 10 2 10-1 10-7 0-10 1-13 5s-4 4-5-1l-6-9c-5-5-6-7-1-7l1-4c-1-6-2-6-5-5-6 2-8 2-8 0l4-3c5-1 7-7 4-10l-1-2-1-1V8c0-2 0-2-2-2-1 1-2 0-2-1 0-5-2-5-35-5-17 0-30 0-29 1 5 1 1 6-8 9l-5 2 4 3c3 3 4 4 3 5l-4-2-7-6c-4-2-5-4-3-4V4c0-4 0-4-5-4-4 0-5 0-5 2l-1 3V2c0-2 0-2-6-2h-6l1 3c0 3 0 4-3 5-6 2-7 2-7-3l-1-5c-2 0-2 0-1 5 1 4 1 5-1 7-3 3-5 3-6-2-1-7-2-10-4-10s-2 0 0 2m162 2l-1 5c-2 1 1 5 3 5 1 0 2-1 2-3s3-4 4-2c4 4 9-1 7-6-1-3-1-3-8-3h-7v4M138 2l-11 4c-12 4-13 5-9 7 3 2 6 2 7-1 0-2 1-2 2-1l3-1 6-2c6-1 6-2 5-5 0-2-1-2-3-1m244 5l-16 5c0 1 2 8 4 8l13-2c12-3 15-3 9-1-4 2-4 3-3 8 1 2 3 3 6 2h3c1 0 2-1 2-12l-1-12-17 4M82 11c-1 1 1 7 2 7l3 2 8 1c8 1 12 4 7 5l-2 1 2 2c2 1 2 2 2 4-1 4-3 10-5 12s-1 5 1 7c2 1 2 9 1 9-6-2-14-2-13 1 1 1-3 4-5 4l-7 3 3 1c3 1 5 3 3 4-2 0-1 2 1 4 2 3 8 1 13-3 4-4 6-4 6-1 0 2 0 2 1 1 0-3 3-2 4 1 1 2 6 2 8 0l-4-15v-4c1-8 1-22-2-26-2-4-3-8-1-8 2-1 0-5-2-5l-1-1-3-4c-2-2-5-3-3-1 2 3 0 4-3 2h-1c1 3-1 2-2 0l-1-1h-2c-2-2-8-4-8-2m259 8l-21 6 4 8 10-2 9-1c0 2 3 1 3-1l6-3c4 0 5-1 5-3l3-3c3-2 4-2 3-4-1-3 0-3-22 3M240 46l-1 5-2 7c-2 5-2 13-1 21s2 8 9 5c6-2 6-2 3-10s-4-10-1-7c2 3 3 3 9-5 3-5 6-7 7-7 5 1 10-5 6-8-1 0-5 3-5 5h-2l-6-1c-6 0-10-1-14-5h-2M12 53c-4 1-6 2-5 4l-1 1 1 8 1 2 1 2c2 2 1 3-2 1l-2-1c-1 1 1 6 2 6l1 2c1 1 2 2 4 1l4-1v-5c-2-6-2-13-1-13l1-3 1-4h-5m219 29c-2 2-3 6-3 7 0 4 1 7 2 6 1 0 4 5 5 12l1 5v8c0 7 0 7 1 4 1-5 1-19-1-28a102 102 0 01-2-19l-3 5m132 25l-17 21 4-2c4-3 9-4 10-3h3c2-1 2-1 1-2-2 0-2 0 0-4s2-4 2 0c-2 5 0 3 6-5 7-11 7-12 3-14l-3-2-9 11m-175 37l-1 3a1671 1671 0 002 12c3 2 4 3 1 5v2c-2 2-1 3 1 2 2 0 2 0 2 2-1 3 2 4 4 1l2-2-2-6a211 211 0 01-7-20l-2 1" fill="#d3d3d3" fill-rule="evenodd"/></svg>