<svg xmlns="http://www.w3.org/2000/svg" width="400" height="225"><path d="M37 18c-3 2-3 4-3 95v91l3 3 2 3h39c33 0 38 0 39 2l34 1h34l2-4 3-3V60l-4-3c-3-3-4-3-11-3h-8V40c0-15-1-20-4-22H37m2 20a1347 1347 0 002 97v3h11l10 1v-7l1 14 1 21h48v-38c0-35 0-39-2-39l-2-1 2-1c2 0 2-1 2-4 0-4 0-4-2-4h-2v-1l1-1h-3l3-2c4 0 4-3 0-3l-2-1c0-2 0-2 2-2 3 0 3-1 3-4 0-11 3-12 29-12h21V37h-61l-62 1m79 22l-2 3v49a502 502 0 003 67c2 2 61 2 63 0l1-10v-8l1 7a1393 1393 0 00-1-108c-3-3-11-3-13 0-1 3-4 4-20 4-14 0-17-1-18-4-2-3-10-3-14 0m126 27v6h4c5 0 8-2 6-5v-4c0-2-1-3-5-3h-5v6" fill="#d3d3d3" fill-rule="evenodd"/></svg>