<svg xmlns="http://www.w3.org/2000/svg" width="400" height="225"><path d="M117 58v5l-1 1-1 1 10 1 10-1-1-1c-2 0-2-1-1-4 2-5 1-6-8-6h-8v4m169 29l-6 6-5 6c-2 1-3 4-3 5l-3 4-2 4-2 5c-2 3-2 3-1 5 2 3 1 4-4 4h-6v22c0 18 0 22-1 21-2 0-5 2-5 5 0 2 2 2 2 0s1-3 3-3c3 0 3 0 3 3 0 2-1 3-3 3s-5 2-4 3c3 3 11-2 9-5-2-4 0-5 8-5s9 1 7 6l-1 2h28l30-1c2 0 2-3 2-26v-25h-4l-5-1c-2-1-2-1 0-3 3-3 3-4 0-7-1-1-2-3-1-4 0-4-1-6-5-6-2 0-2 0-1-2 0-2-2-7-4-7l-4-4c-5-7-15-9-22-5M99 88h-1l-6 4-2 3v7c1 4 0 6-1 7-1 3 0 6 3 6 1 0 4 4 4 10l1 5-6 2-7 2-3 3-1 2-2-4c0-3-1-4-3-4h-2l2 1c3 1 2 3-2 4l-1 1c2 0 3 4 1 5l-1 3-1 1-1 1-1 1c-1 1 1 1 4 1h5v5c0 6 4 14 7 17l4 5v3h9c7 0 8 0 8-2 0-1 0-2 2-1l1 2 9 1c8 0 8 0 8-2s1-3 3-5c9-7 9-21 1-34-3-5-4-5-10-7-8-2-9-4-8-10l2-5 2-4v-6l-2-4 2-2c1 0 1-2-1-2v-3c2-2 0-6-3-6-1 1-2 0-2-1H99m42 45l-4 5 2 3c4 4 5 4 10-2 5-5 5-5 1-8l-4-3-5 5m142 18v4h20v-7l-10-1h-10v4" fill="#d3d3d3" fill-rule="evenodd"/></svg>