<svg xmlns="http://www.w3.org/2000/svg" width="400" height="225"><path d="M293 79l-2 6c0 5 2 6 5 2 2-3 6-3 9 0 3 4 5 2 4-3s-2-7-6-5h-10m-181 2h-8c-10 0-12 2-12 11l-1 8c-1 1-1 3 1 3l1-1 1-2 1-4c1-6 4-8 9-8l8 2c4 0 5 1 5 5 0 3 0 3-2 1-1-2-4-3-4-1l1 1-1 2c-4 1-5 1-8-1l-1-2 1-1c0-2-4-1-5 1-5 7 0 13 6 8l3-3 1 3c2 3 6 4 8 1h2c1 2 3-9 3-12-1-3-1-4 1-5s2-1-2-4-7-4-8-2m182 26c-4 2-8 7-9 11 0 2-2 4-5 7-4 5-5 6-3 11 1 2 1 3-1 6-4 6-3 10 5 13l3 2 2-4 2-4v13c0 17-2 16 13 16h13v-15c0-15 1-18 3-11 2 4 5 4 11-2 4-3 4-6 1-10-2-2-2-4-2-8v-5l-6-5-6-5c0-3-5-8-9-10h-12m1 13l-3 2c-4 2-4 2-2 7 5 8 9 10 13 8h2l-4 2c-5 3-5 4 0 4 4 0 5-1 5-4l2-6 2-5 2-3 1-1h-7l-1 1-1-1-4-3-5-1m-194 37v21h65v-43h-65v22" fill="#d3d3d3" fill-rule="evenodd"/></svg>