<svg xmlns="http://www.w3.org/2000/svg" width="400" height="225"><path d="M233 67c-4 5 0 12 6 11 2-1 3 0 3 1v1l-1 2h1c2-2 2-2 4 0l2 2c2 0 1-2-2-5s-3-4-3-5c3-5-6-11-10-7m-124 4l-2 4-2 4-2 4-1 1-2 1 1 1c1 0 3 7 2 8-2 2-1 4 1 4l2-1v-2l1-5c0-5 0-5 3-7l7-2c5 0 9 3 9 8s1 6 2 3l1-4 2-3v-2l-2-2c-2-3-6-6-10-6-3 0-4 0-4-2 0-4-3-5-6-2m1 18c-2 1-2 7 0 8s2 1 4-1 4-3 4 0l4 1c3-1 4-4 1-6-2-2-2-2 0-2 1-1 1-1-1-1l-3 1c1 2-1 4-2 4l-4-3c1-1-1-2-3-1m123 13c-11 7-2 23 9 19 5-2 8-8 6-12v-6h-4c-3-2-8-2-11-1m31 2c-2 5-1 6 5 7 6 0 6 0 6-2v-2l1 2c1 3 3 3 4 0l1-2v2c1 2 4 3 5 0 1-2-1-3-8-4-7 0-8 0-8 2-1 1-1 1-2-1-1-3-4-4-4-2m-30 2c-3 3-3 8 0 10 8 6 15-4 8-10-3-3-5-3-8 0m0 32c-6 4-3 13 4 12 3-1 4 0 7 3s4 4 5 3c1 0 0-2-3-4-3-4-4-5-3-8 0-3 0-4-3-6-3-3-4-3-7 0m29 6v3h11c1-2 2-2 4 0h6c2 1 4 0 4-2-1-3-5-4-5-2h-1l-3-1-2 1h-1c-2-2-5-1-6 1 0 1-1 1-1-1s-1-3-3-3c-3 0-3 0-3 4M73 173l44 1 43-1-43-1-44 1" fill="#d3d3d3" fill-rule="evenodd"/></svg>