<svg xmlns="http://www.w3.org/2000/svg" width="400" height="225"><path d="M2 3l1 3-2 2-1 14c0 12 0 12 2 11l4 1 4 2 3 2 1-1c0-1-3-3-5-2l-1-1v-1l-1-2-1-2 1-1v-5l-2-6c-1-3-2-5-1-6 1-2 1-4-1-9 0-3-2-2-1 1m53-1l-1 1c-2 0-2 1-2 3l-3 2-3 3-4 5-2 2c2 0 1 2-1 2-2 1-6 5-4 5l-2 3-3 5v1l-5 9-2 5h3c2 0 3-1 5-6a132 132 0 0122-32l3-4 1-1 4-2 3-3h-5c-3 0-4 0-4 2m95-1c1 0 2 1 2 3 2 4 12 5 12 1 0-3 11-6 12-2v1c-5 0-3 8 3 11 8 5 14 11 14 16l1 4-1 2c-3-1-2 2 0 4l3 3c0 3 0 16-1 14 0-2 0-2-2-1h-2v-2l-1 1c-1 2-2 2-6 1-7 0-9 2-6 5 3 2 1 4-3 4h-4l2 3c3 6 7 5 12-3 3-5 5-5 6 1l3 8 2 6c0 2-3 4-5 3-3-1-6 1-5 4l1 3-4 2c-6 1-7 1-5-2 3-8 2-9-5-3-4 4-4 4-5 9v5l4-2c4-3 10-2 8 1l-4 3-2 1 2 1c4 2 4 3 0 4h-3l-3-1c-3 0-5-4-5-7v-2l-2-1-1-2h-11l-3 1c-2-1-3 0-5 2-3 3-4 3-5 2-3-1-3-1-3 1l-1 1c-2 0-6 3-8 7-2 3-4 3-7-1-6-6-15-9-19-7l2 2c2 1 2 1 1 2l-1 1c1 0 1 1-1 2-3 3-3 6-2 11v1c-2 0-3 5-3 12 1 5 2 8 8 15l2 3v3l2 3c0 3-5-2-7-5s-2-3-1 3c0 5 0 6-2 8-3 2-3 2-4 0l-7-15c-2-2-2-5-3-13l-3-5c-2-2-3-3-2-4 4-1 5-3 7-7l3-7 2-4 3-6c5-6 5-7 2-8l-4-2c-2-1-2-5-1-7l1-2c-1 0-4 2-7 6l-8 7-5 6-3 5c-3 2-2 3 2 1 6-3 6-2 10 1 3 3 3 3 2 4-2 1-3 5 0 5 2 0 1 3-4 6-4 2-7 2-11-1l-10-3-12-6c-6-5-6-5-6-1v5c-4 8-4 10-1 14l3 10c1 6 1 6 7 10 5 3 14 6 16 5l-1-8c-1-9-1-9 2-4s6 8 5 5v-4c0-1 1-1 2 2 1 2 1 2 1-3 0-6 0-6 2-4a67 67 0 018 18c3 8 2 10-2 3l-3-2h-1c0-2-1 0-2 2v7l2 6 2 11c5 10 5 18 0 31l-3 7h15c14 0 15 0 14-2-4-11-5-25 0-24l3-2c3-4 7-1 7 6 0 3 1 4 3 1 1-2 4-3 5 0l9 1h8v-3c-1-6 2-8 10-7l24 2h18l1-3 3-3v-1c-2-1-2-1-1-2l1-3 1-2 1-1c0-2 5-5 9-5l4-2a599 599 0 0025-48l-1-7c0-11-4-26-6-25-1 1-2-2-2-6 0-2 4-11 6-11l1 10 2 14 1 13v10l5-6c6-13 8-13 22-13v6c0 7-2 7 24 4 21-3 22-3 22-10 0-4-1-4-11-3h-9l4-11 8-1 11-2h5v3l-1 5v4c3 2 2 6-4 16l-5 8 6-2c6-3 13-10 13-11l2-3c1-2 1-2 4 0l2 2 7-11c11-16 9-14 17-12 10 3 10 3 5 10l-3 6-2 2-2 3-2 3-13 17-36 47c-1 0-2-1-2-3-2-3-2-4 0-5v-6l4 3 2 3a937 937 0 0050-69c0-1-11-5-12-4a426 426 0 00-15 24c2 0 1 2-2 3s-17 19-17 21-2 4-3 4l-1-3c1-2 1-2-1-1l-3-1c-1-2 0-2 2-2s2 0 1-2l-1-3-3-1c-2 0-2 0-1 1 1 2 1 2-1 2s-2 0-1 2l-1 2-6 6a400 400 0 00-31 55c-4 2-4 1-2-3l2-4c-6-4-11-5-16-3l-4 2-3 3c-1 3-3 2-4-1l1-3c2 0 2-1 1-3-1-1-6-1-6 1l-10 14c-11 13-15 20-7 12l6-5c3-4 1 3-3 8l-3 5h8c9 0 23-5 29-10 2-3 4-4 9-5l8-3 3-1 2-1c-1-1 0-1 1-1 3 0 7-2 5-3v-1h3v-1l4-2 5-4 5-1 3-1 8-3 8-3 5-3c5-2 5-3 1-3-2 0-2 0 0-1l2-2 11-4a8492 8492 0 0038-14l5-3h-4l-5-1h-6a343 343 0 01-32 8l-13 2c0-3 5-6 9-6l14-4c14-5 20-7 27-8 9-3 12-5 12-8 0-2 1-3 9-5s11-3 8-5c-1-1-2-2-2-5 0-5-1-5-4-1-2 3-8 7-11 7-2 0-3-1-1-3l1-5c-1-5 0-6 2-10a625 625 0 0015-24l1-7c0-9 0-9-7-9-4 0-5-1-8-5-2-5-1-7 3-12 3-2 10-6 11-5 1 0 2-16 0-17l-7-1c-6 0-7-1-7-2 0-4-1-5-4-5s-6-2-5-4c1 0 18-5 19-4l-3 1c-3 1-4 3-3 7 1 3 5 5 6 3h2c3 2 3 0 3-12 0-11 0-12-2-12a12003 12003 0 01-32 9c-1 2 4 9 6 9l3 1-2 5-3 4c-1 0-1 8 2 14 1 4 1 4 1 1v-3l1 1 2 1 2 6c0 6 0 6-3 6l-4 3c-3 6-5 6-7 0l-4-6-1-4c1-3 1-4-1-1h-5l-5-1c-2 0-2-1-3-4-2-8-2-8-3-7v5c1 6 2 6-4 6-7 1-8 2-11 5-2 4-4 4-5-1l-6-9-5-5 2-1c3-1 4-4 2-8-1-3-1-3-6-1-6 1-6 1-6-1l3-3c6-1 8-6 5-10l-1-2-1-1V8c0-2 0-2-2-2-2 1-2 1-2-1 0-5-1-5-34-5-26 0-30 0-29 1 3 4-1 8-9 9l-4 2 4 4c3 2 3 3 2 4l-4-2-7-6-3-3V0h-11l-11 1v3c0 3-3 5-8 5-2 0-2 0-2-4l-1-5c-2 0-2 0-1 6 1 4 1 4-1 6-4 3-5 2-6-2l-1-7-1-3h-15c-8 0-14 0-13 1m188 1c1 2 0 4-1 5-1 4 0 7 3 7 1 0 2-1 2-3s3-4 4-2c4 4 9-1 7-6-1-3-1-3-8-3s-7 0-7 2M127 6c-13 5-13 5-9 7 3 2 6 2 7-1 1-1 2-2 3-1l2-1 5-1c5-1 7-3 6-5 0-3-2-2-14 2m-43 5c-4 1-2 6 3 9 4 2 8 2 8 1h1l4 1 3 1v3c-3 0-3 2-1 4 3 2 3 4-3 15v6c3 3 3 10 2 10l-5-1c-4-1-5-1-7 2l-3 2v1l-2 1-8 3 4 2c3 1 4 2 2 4s1 5 4 5l5-1 5-3c5-4 6-5 6-2h1c1-1 4 0 4 2 1 2 4 3 7 1 2-1-1-17-3-16l-1-3c3-10 2-21 0-26-3-7-4-7-2-9 2-1 1-5-2-5l-1-1c0-1-3-5-5-5v2l-1 1-1-1-1-3-1 1v3l-1 1-1-2h-1l-4-2-5-1m257 8l-21 7 2 4c2 4 4 4 13 1l8-1c0 2 3 1 3 0l5-3c5-1 6-2 6-4s1-3 4-3l3-1-3-6-20 6m-72 18l-2 6c0 5-4 12-5 10s-3-2-7-2c-5 0-12-3-14-5-1-2-2 0-2 5l-2 9c-2 5-2 11 0 22v4h4c9-2 10-3 7-11l-2-7-1-3 2 2 3 3 3-4c8-11 8-11 11-11 5 0 6-2 6-7-1-6 0-10 3-12l4-2h-3c-2 0-4 1-5 3M13 53c-4 1-7 2-6 4l-1 1c-1-1-1-1-1 1l1 3 1 4 1 2v3H5l2 5 1 2c1 2 1 2 3 2 6-1 6-3 4-11v-8l1-4 2-4h-5m348 56l-15 19h2c3-3 11-6 12-5s5 0 5-1l-1-1 1-6c1-1 1 0 1 2-2 5 0 4 6-6 7-10 7-11 3-13l-3-2-11 13m-173 35l-1 3c0 8 0 9 1 8h1l-1 2c-1 2-1 2 1 2s3 3 2 5l-1 2v2c-1 1-1 1 1 1 2-1 2-1 1 1 0 3 0 3 2 3 5-1 6-2 4-8l-5-13c-3-9-3-9-5-8" fill="#d3d3d3" fill-rule="evenodd"/></svg>