<svg width="18" height="11" viewBox="0 0 18 11" fill="none" xmlns="http://www.w3.org/2000/svg">
<path d="M7.26442 4.91776C7.26442 4.91776 8.96784 4.79574 8.96784 2.86828C8.96783 0.9407 7.57422 0 5.80892 0H0V10.7716H5.80892C5.80892 10.7716 9.35506 10.8797 9.35506 7.59234C9.35506 7.59238 9.50966 4.91776 7.26442 4.91776ZM5.3908 1.91454H5.80892C5.80892 1.91454 6.59852 1.91454 6.59852 3.03528C6.59852 4.15589 6.13415 4.31836 5.60743 4.31836H2.55949V1.91454H5.3908ZM5.64477 8.85716H2.55949V5.97858H5.80892C5.80892 5.97858 6.98579 5.9637 6.98579 7.45788C6.98579 8.7178 6.10678 8.84765 5.64477 8.85716ZM14.0844 2.74062C9.79146 2.74062 9.79527 6.8794 9.79527 6.8794C9.79527 6.8794 9.50072 10.9969 14.0844 10.9969C14.0844 10.9969 17.9042 11.2075 17.9042 8.1326H15.9397C15.9397 8.1326 16.0053 9.29056 14.15 9.29056C14.15 9.29056 12.1852 9.41761 12.1852 7.41654H17.9697C17.9697 7.41651 18.6026 2.74062 14.0844 2.74062ZM12.1636 5.97858C12.1636 5.97858 12.4035 4.31832 14.1281 4.31832C15.8523 4.31832 15.8307 5.97858 15.8307 5.97858H12.1636ZM16.2883 1.96103H11.6827V0.634585H16.2883V1.96103Z" fill="white"/>
</svg>
