<svg xmlns="http://www.w3.org/2000/svg" width="400" height="225"><path d="M22 1l8 1c6 0 11 2 11 5h-7c-2 0-2 0 0 1l4 1c3 0 5 4 2 4v1c1 1 2 2 2 5l1 3c2-1 3 14 2 19-1 3-1 3-2 1-1-1-1 0-1 3 0 2 0 3 1 2h1c1 2 0 7-1 7l-1 5v5H23L2 65c-2 0-2 3-2 48v48h17v8l1 9h7v-17h9c5 0 8 0 7 1l1 2h1l-1 1 1 1c1-1 1 0 1 1l-1 2-1 6c-1 6-2 7-4 8l-2-2-2-2-1 4v2l-3 1c-1 1-1 1 1 1h3l-1 1-1 1c0 1 1 2 5 2l4-1 1-1v1c-1 1 2 2 14 2a102 102 0 0126 2h3c4 0 4 0 3-3 0-3 3-3 4 0l4 2a3327 3327 0 0110 0c2-2 2-2 3 0h2c0-2 0-2 2-2h5l3 1h6c4 0 4 0 3 1v4l2 1 2 2 4 1 3 2 2 1h2l3 1 3 1-2 1v1h2c1-1 6-2 8-1l2 1h15l1-1 3-1 3 1-1 1c-1 0-1 1 1 1 1 2 2 2 3 1h1c-1 2 0 2 1 2l2-1h2c3 2 2 4 0 7l-2 2h3l4-2 1-1 1 1 1-2h5l3 1-1 1v3c-2 1-1 2 4 2 13 0 14 0 7-2l-4-3c0-2 1-2 8-2s13 1 11 3l1 1h1v1l2-2 2-2c2 0 4 2 2 2l1 1c1 1 2 0 2-1l1-1 1-1v-1l1 2v1l1-2 2-1v-1l1-2 1 1c0 1 5 1 8-1 3-1 6-1 4 1 0 1 3 2 9 2l4 1 2 1 2 2 1 2v-3l4-1 5-1h3c0-2 5-1 5 1 1 3 4 4 5 1l-1-2v-2l2 1 6 2 5 1 3 1c1-1 1-1-1-2-3-1-3-1 4-1h2l-2 2h9c4 0 5 0 4-1v-1l2-1c-1 0 0-2 2-2l2-1 2 1v3c-4 1-3 3 1 3 2 0 3 0 3-2l-1-1h-1c-1-1 1-3 5-3 3 1 4-1 2-2l-2-1 6 1 1 1v-2h2l1-1v-1l1 1c-1 1 0 2 2 3h2l1-1c5 1 7-1 3-3-2 0-2-1-1-1 2 0 4 1 4 4 1 3 1 3 5 2 2-1 3-2 2-4l2-2 3-1 1 1c-1 1 0 1 1 1l2 2-1 1h-1c-1 1 0 1 3 1l2-1v-1l1-2c1-3 3-2 4 1 2 3 3 4 3 1 1-4 2-97 1-152V0H210C83 0 21 0 22 1m76 28v10l10 2c8 2 15 6 9 6l-2 1a3235 3235 0 011 6l1 1 1 1 1 1 2 3c3 0 3 2 0 3-2 1 0 1 7 1 8 0 9 0 8-2 0-3 1-3 4 0l5 2c3 0 3 0 2-2-3-5-2-5 2-2 4 4 4 4 12 4s9 0 10-3l1-2 1 2c0 3 0 3 4 3l4-2c0-2-6-5-11-6l-5-1c0-2-5-1-9 1l-5 1c-1-1 0-4 1-5 11-6 13-7 12-8l-6 3c-6 3-9 1-4-3 6-5 10-7 11-6h14c1 0 2 0 1-1l-1-2-2-2-3-2-26-1a2358 2358 0 01-50-1M51 47l1 18h17c15 0 18 0 19-2l3-1c4 1 4 1 4-3 1-5-1-7-7-7-3 0-4 0-4-2s-2-4-15-10c-6-3-7-5-7-8 1-2 1-2-2-1h-4c-5-3-5-2-5 16m28 33v5h20v23l1 23h10v-14l1-14 5 11 5 12h9l5-12 6-11v28h11V85h-14l-6 13-7 13-6-13-7-14c-2 0-2-6-1-8 1-1-12-2-25-2h-7v6m81 21c0 20 1 23 10 28 7 3 18 3 23-1 7-5 8-9 8-27V85h-12v15c0 18-1 21-9 21l-6-2c-2-3-2-3-2-18V85h-12v16m49 7v23h12v-6c0-5 1-6 3-9l3-3 6 9 6 9h26l2-5 2-4h19l2 5 2 4h6l6-1-9-22-10-22-6-1h-6l-10 22-10 22-9-13-9-12 9-10 8-9h-14l-8 10-8 9-1-9V85h-12v23m88 48l-1 5v5h17l18-1c1-2 1-2-3-3-3-1-4-2-3-4l-1-2h-27m-240 8c0 2-1 3-5 2-2 0-2 0-2 2l1 2 2-1a927 927 0 0077 2c5-1 7 1 6 10 0 8 1 13 3 10 2-2 3 0 4 6l2 4c2 1 8 0 9-1l2-1c2-1 2-2 2-4-1-2-1-2 1-1 1 1 1 1 1-1l-2-3-1-2-1-1c-3 1-4-1-2-3l2-4v-1h2c1 1 1 1 1-1l-1-2c-1-1 0-1 2-2 12-2 15-5 4-4-7 0-7 0-3-3l4-2h-24c1-1-2-1-8-1l-11 1c-1 1 5 2 7 2h3l-3 1-8 2c-4 0-17-3-16-4l-7-1-7 1v1l1 1-5-1-5-1c-7 0-13-1-13-2h3l3-1h5l3 1 2-1 3-1 3 1c-1 1 1 1 5 1l7-1 3-1c1-1-9-1-23-1H57v3m132 3c-2 3-3 8-1 14 1 5 3 5 2 1l1-4 1 4v4c1-1 1-1 1 1l2 5 1 3v1l1 3 1 2 1 2c0 2 1 2 4 0s5-5 2-4h-1v-4l-1-2v-2c1 0 2-1 1-2 0-2 0-3 2-4v-1l-2-1 7-1c10-1 11-4 1-6-4 0-9-4-9-6l-1-1v-1h1l3-2 2-2h-8c-8 0-9 0-11 3m129 1h-11v3l1 3 1 1c0 2 3 4 3 3l2-1-1 2c-2 2-1 4 1 3h1l1 2 4 3c1 2 4 3 8 2l2-1 1-3c1-3 1-3-1-5-1-1-1-4 1-5l1 2c-1 2 1 3 1 0 2-7 2-10-1-10l-14 1m48 0c-1 10-1 16 3 20l2 1h1c0 2 4 1 5-2l2-1c0 2 0 2 1 1 2-2 0-6-2-4l-1-1c0-2 2-2 3-1 2 1 3-1 3-7l1-4 1 4v4l2-1 1-5c0-3 0-3-3-4h-19m-90 11l-5 1c-2 3-4 25-2 26 2 2 5 2 7 1v-3l1-1 1 1 3-1 6-1c1 1 1 0 1-1l2-4 2-4h1v-4l-2-2h-1l-1-2v-2h3l2-2c6-1-8-3-18-2m67 16l-4 1c-5 1-3 3 3 4 7 2 34 2 36 1 1-1 1-1-1-2-4-2-30-5-34-4m-45 6c0 3 1 4 7 4 6 1 13 0 13-1l-4-4-1-1h-6c-9-2-9-1-9 2" fill="#d3d3d3" fill-rule="evenodd"/></svg>