<svg xmlns="http://www.w3.org/2000/svg" width="400" height="225"><path d="M0 34l1 34c1 0 3-2 3-5l1-2 2 10c1 10 1 11-4 11H0v36h2l10-2 8-1c1-1 16-4 27-5l1-2c0-3 12-2 13 0 0 2-1 2-4 2s-4 0-4 2l4 1c2 0 3 0 3 2s-1 2-3 2c-4 0-4 0-4 3l-1 3v5c0 4 0 4-2 3 0-2-1-2-1-1l-2 1-6 2-8 3-4 2c-2 1-7 2-16 2l-13 1v17c0 17 0 19 3 17 1-1 1-1 1 1l1 3-1 2-2 1c1 1 0 3-1 4l-1 15v14l5 5 5 5h63a850 850 0 0076 0h7l-2-6v-20l2-11c1-8 4-15 5-14l1 3c0 1 0 2 1 1v2l1 3 1 4v2c1-2 2-1 1 2l1 2 1 1v1c1 1 0 1-2 1l-3 2h3c1-1 1 0 1 3l2 1 1 2 1 3c2 2 3 3 1 3h-1l1 2c2 1 1 3-2 6-6 8-15 7 114 7h116v-10l1-113V0H0v34m15 30l-1 9v7h5a541 541 0 0154-2l-1-5c-2-6-3-6-14-6l-9-1-15-3c-18-1-19-1-19 1m47 50v9h4c5 0 7-1 7-3l-4-1-2-6c0-6-1-7-3-7s-2 0-2 8m17-7c-7 4-7 12 0 15 8 3 16-6 10-13-2-2-8-4-10-2m13 0l2 8c2 6 3 7 5 7s2-1 3-5l2-3 2 5c0 2 1 3 3 3s3-1 5-7c2-8 3-9 0-9-1 0-2 1-3 5-2 6-2 6-4 0-1-7-4-7-6-1s-2 7-4 1c-1-5-3-6-5-4m26 7v8h7l6-1c0-2-1-2-4-2l-5-1c0-2 1-2 4-2s4 0 4-2l-4-2-4-1 4-1c4 0 5 0 5-2s-1-2-6-2h-7v8m15 0c0 7 0 8 2 8l3-2 1-2 2 2 4 2c2 0 2 0 1-2-2-3-2-3 0-4v-7c-1-2-3-2-7-3h-6v8m22-7l-1 8v7h6l7-1v-9c1-2 1-2-1-4s-10-3-11-1m16 0l-1 6c0 9 6 13 12 8 4-3 4-15 1-15s-3 0-3 6-1 7-2 7c-2 0-3-1-3-6 0-6-2-9-4-6m15 1l2 2c2 0 2 1 2 6 0 6 1 7 3 7s2 0 2-6v-7h9v6c0 6 1 7 3 7s2 0 2-6 0-7 2-7l3-2c0-1-3-2-14-2-13 0-14 0-14 2m29 7c0 8 0 8 2 8l7-1 4-1c0-2-1-2-4-2l-5-1c0-2 1-2 4-2 5 0 6-3 0-3-5-1-5-3 0-3 4 0 5 0 5-2 0-1-2-2-7-2h-6v9m15-1c0 7 0 8 2 8l2-2 2-2 3 2c0 1 1 2 3 2s2 0 1-2c-2-3-2-3 0-4 4-4-1-10-8-10h-5v8m23-5c-7 6 0 16 9 13 3-1 3-2 2-4h-3c-3 2-6 0-6-4 1-3 3-5 6-3h3c1-2 1-3-1-4-3-2-7-1-10 2m14 5c0 7 0 8 2 8l2-2 1-2 3 2 4 2c2 0 2 0 1-2-2-3-2-3 0-4 4-4-1-10-8-10h-5v8m16 0v8h7l6-1c0-2-1-2-4-2l-4-1c0-2 1-2 4-2 2 0 3 0 3-2s0-2-3-2l-4-1 4-1c3 0 4 0 4-2s-1-2-6-2h-7v8m20-5l-4 8-2 5h3l2-1h9c4 3 4 2 0-7-3-9-6-10-8-5m13 6c0 7 0 8 2 8s2-1 2-4v-4l2 3c2 4 4 4 6-1l2-3v4c0 3 0 4 2 4s2-1 2-8 0-8-2-8c-1 0-3 1-4 4-3 5-3 5-5 0-2-3-3-4-5-4s-2 0-2 9m23-7c-4 2-2 7 4 8l2 2h-4c-4-1-6 1-3 3s8 3 10 0c4-3 1-9-4-9l-2-1h3l4-1c2-4-6-5-10-2m-12 82v5l1 3h8c13 0 18-1 17-4v-3l-7-1-13-1-6 1" fill="#d3d3d3" fill-rule="evenodd"/></svg>