<svg xmlns="http://www.w3.org/2000/svg" width="400" height="225"><path d="M0 4l1 4h5l8 1a1151 1151 0 0140 6c0 2-4 2-12 0h-6a263 263 0 01-32-5H0v21c0 19 0 21 2 21l12 2c9 1 14 3 7 3-2 0-2 0-1 1 2 1 3 4 1 4l-2 8c-2 14-3 12-3-2l1-12-8-1c-9-1-9-1-9 2s0 3 1 2h1l3 1 7-2c1-2 3-1 3 4 0 4 0 4-2 2-1-2-2-2-2-1H4l-2 1-2 1h9l-2 2-1 6-1 5c-2 3-2 17 0 15v-6l1-4c2 1 2 1 2-1l1-1 2-1h3l-2 3c-2 2-2 3-2 5 1 4 1 4-3 6l-4 2H2l-1 1v2l-1 17 1 18 2 2c1 2 1 2-1 2-2-1-2-1-2 43v44h401V112a1156 1156 0 00-4-105l-1 3v2c0 2 0 3-2 4-3 2-10-3-14-8l-3-4-1-2c-1-2-2-2-12-2s-10 0-13 3l-3 4c-1 1-1 1-3-1-4-3-4-3 0-5 2-1 2-1-2-1-3 0-5 1-5 2l-5 2c-3 0-6 2-7 3-3 2-3 2-5 15v5l-4-4c-3-4-5-7-6-14l-1-3-4 2-3 2-1 1h-2l-1 1c-1-1-7 1-9 3l-1 6-1 4v1a98 98 0 014 31c3 1-8 9-13 9-2 0-1-2 1-3v-1c-3 0-1-11 1-11 2-1 2-1 0-1s-2 0-2-15V21h2l3 1-3-2c-2-2-2-3-2-8 0-7 1-11 2-10l1-1-22-1h-21l-14 4c-10 3-15 4-16 3-2 0-1-1 7-4l9-3h-59v4c0 3-1 3-4 4-3 0-3 0-3-4V0h-37a403 403 0 00-42 2l3 1c2 1 2 3-1 2h-2l-1-2c0-2-1-3-2-3l-2 1 1 1c2 0 1 3 0 5h-2c0-1-7-3-11-3l-6-2c-3-1-7-2-30-2H0v4m88 0c-3 2-1 5 3 6a1209 1209 0 0136 6c4 0 5 2 2 3v4c1 1-1 1-4 1h-7l-1-1-2-1 2-1 2-1-2-1h-10c-10-2-12-2-12-1l-2 1c-2 0-2 0-1-1 2-1-1-2-7-2a371 371 0 01-25 0c0 2 6 3 13 3 4 0 6 1 5 2l4 2c5 0 7 1 13 6l7 5 5 5 4 4 11 1c9 1 13 2 8 2-2 0-3 0-2 2l-2 1-3-1-3-2c-2 0-2 0-2 2v1c-3 0-2 4 1 5 2 1 2 1 0 1-3 0-3 0-2 1v1l-2 1h-2l-3 9c-2 9-2 11-1 12s-2 5-10 12l-4 3v-3l1-3h-5l-5 1-5 13-5 12-5-13-4-13h-6c-4 0-5 0-5 2a1173 1173 0 0018 37l3 1 4 2c2 1 2 2 1 2-3 0-2 2 1 2l4 2 3 1 2 2c0 2 3 4 5 6 5 2 8 9 6 11l-1-2-2 1c-2 3 1 8 5 7 3-1 3 2 0 4-2 1-1 2 5 9 7 7 8 8 15 10 10 3 27 6 28 5l1-27v-26h-46v-10h10v-21h8l11 1 8 4c7 2 9 5 6 7-2 2-5 1-11-2l-6-3-2 4c-2 4-2 5 5 8 8 4 21 2 24-3 3-4 3-11 0-14l-2-2h17v10l1 11h10v-8c0-14 0-13 3-13h4V91a2321 2321 0 00-2-65l-1-2c0-2-2-3-7-4l-4-2c0-3-1-3-7-1-7 1-7 1-10-1l-3-1-1 37-1 37c-3 0-3-2-3-12l-1-33c0-13 0-22-1-21l-2 1h-3l-2 1c1 1 0 1-2 1-3 0-4-1-4-5s0-4 3-5c4-1 4-3 0-3-2 0-2 0-2-2l-1-3c-1-2-7-3-7-1 0 4-16 3-37-2l-8-1m170 2l-24 6c-17 4-25 7-25 9l-1 33c-1 32 0 33 2 4l3-22c1-5 3-7 3-3-1 4 2 9 5 9 2 0 2 0 0-4v-5l3 3 3 3c1 4 2 5 7 6l6 1h-5c-6-1-6 0 1 7 7 8 19 15 27 16 5 0 5 0 5-3a11718 11718 0 01-1-53V3l-9 3m-61 20l-1 41v39h3c2 0 2 0 2-4v-5h9v30h10V97h11v-9h-30V69l-2-44c0-1-2-1-2 1M45 69l-1 5v5h28v-5l1-5h-4a301 301 0 01-24 0m130 1l-3 3-2 2 1 1c1 0 3 1 3 3l2 2 2 4c0 2 0 3 2 3l1-4c-1-4-1-4 2-5 2 0 2 0 1-1v-2h2c0 2 5 1 6-1 1-3 1-3-3-5-5-2-12-3-14 0m146 18c-14 5-12 18 2 23 8 2 10 3 8 6-1 3-6 2-12-1l-6-3-2 4-2 4c8 7 27 8 32 1 5-8 0-15-11-19-6-2-9-4-7-6 0-1 7-1 11 1s5 1 6-2c3-4 2-5-2-6-6-3-13-3-17-2m-58 11c-1 17 1 23 8 26 5 3 15 3 19 0 6-5 8-8 8-23V89l-6-1h-5v13c0 15-1 17-7 17s-7-2-7-17V88h-10v11M88 109c-6 15-6 14 6 14 7 1 7 0 6-6-1-1-1-2 2-3 2-1 2-1 1-3-1-1-1-1 2-2s2-2-4-2l-5-1-2-6v-4l-6 13M7 121v4l-1 2 1 1 1 2v3c2 2 2 3 3 7l2 4v2l-1 5-2-2c-2-4-2-4-2-2-1 2 0 3 1 3l1 3 2 3 3 3c0 3 2 3 2 0 0-2-1-3-2-3-1-1-1-1 1-1s3-2 2-4c-2-2-2-5-1-7 1-3 3-1 2 1l1 4c1 1 1 0 1-5-1-10-3-14-6-15-4 0-6-1-6-3l2-1 1 1h1c1-1 0-6-1-6l-2 2-2 1 1-3v-2c-1 0-2 1-2 3m152 37l-1 28c0 8 0 8 8 8 4 0 7-2 7-6 0-3 0-3 1-1 0 3 2 3 5 2l1-26v-26h-21v21m24-3l-1 26c0 8 0 9 4 7 2-1 6-24 8-42v-9h-11v18" fill="#d3d3d3" fill-rule="evenodd"/></svg>