<svg xmlns="http://www.w3.org/2000/svg" width="400" height="225"><path d="M0 11v11l4-1h3l-2 5-4 5v5l-1 96v93h46c47 0 46 0 46-4 1-4 9-10 14-10l4-1h1c1 1 2 2 3 1 2 0 7-4 6-4l3-4 4-6h-1c-1 1-8 5-9 4l1-1c2-1 2-2-1-3h-3l-6 2-7 3c-3 3-4 3-4 0v-2l3-17 4-7 4-5 2-2 2-1 4-6 4-5c-1-2 21-25 26-27l3-2-1 4c0 4 0 4 1 3s1 2 1 15c-1 14-1 17-3 19-1 1-1 1 1 3 1 2 1 2-1 10l-3 14c-1 4-1 4-1-6v-10l-2 9-1 10v-15c-2 0-3 7-3 19v15l-1-14c0-13 0-13-2-11l-2 2-3 7c-4 5-4 6-4 14v9h51v-4a3296 3296 0 00-1-9l2 13h48l-2-7-2-18-1-6-1 5-1-4a2356 2356 0 007-48 1666 1666 0 008 69c0 3 26 11 28 9l-1-1c-2 0-5-4-5-5l10-1c9 0 10 0 9 2-1 3 0 5 2 3l1-2-1-3c0-2 0-2 1-1l6 1c1-2 7 0 8 3s1 1 1-4c0-2 0-2 1-1l3 2v4c-2 1 0 2 2 2 1-1 2-2 1-3 0-2 0-2 1 0 1 1 1 1 1-1 0-3 2-5 2-3s4 1 4-1c1-2 1-2 1 0 0 3 3 3 9 0 11-6 12-7 12-15v-6l1 5c1 9 4 8 4-1v-5l1 4c0 5 0 5 2 4s2-2 2-8 0-6 1-2v5l1 1 1-11c0-7 0-10 1-8l1 9v8l3-4c39-44 36-112-5-155-5-4-8-8-7-8l1-2c0-3-1-3-6-3-4-1-8-2-14-6-8-5-12-6-26-10-13-3-33-1-52 4-1 0-2-1-3-5l-2-6-30-1h-31l-1 12a432 432 0 01-18 95l-2 9c0 7 0 7-2 7-2-1-3 0-5 1l-2 2v-2l-2-11a731 731 0 01-2-37l2 14V80a372 372 0 002-26l1 18v18l1-1 2-7 1-6-1 7v13l-1 6 2-7 2-7 2 9 2 7-2-15c-3-12-4-24-2-15a2120 2120 0 013-23v-4l-1 3-3 12v10l-5-27-6-36-1-9H97l-1 6a232 232 0 00-4 14v-9l3-9V0H0v11m143 5c0 18 3 41 4 36V7l-1 7-1 8V11l-1-11c-2 0-2 2-1 16M35 73c1 7 0 6 23 5h16v-3l1-2 1-1-1-1-1-1c0-2-2-2-20-2H35v5m85 8l-1 13a284 284 0 00-2 46c-1 4 1 7 3 3l2-3c3 0 4-18 1-45a625 625 0 01-3-14m179 100l1 6h15l16-1v-10h-32v5" fill="#d3d3d3" fill-rule="evenodd"/></svg>