<svg xmlns="http://www.w3.org/2000/svg" width="400" height="225"><path d="M0 113v112h401V0H0v113m160 0c0 7 0 8 2 8s2-1 2-5v-5l2 4 4 4 4-4 2-4v5c0 4 0 5 2 5s2-1 2-8c0-9 0-9-3-9-2 0-2 1-4 5l-3 4-3-4c-2-4-2-5-4-5-3 0-3 0-3 9m23-2c0 7 2 10 8 10s8-3 8-11c0-6 0-6-2-6-3 0-3 0-3 6s-1 9-4 7c-2 0-3-8-2-12l-2-1c-3 0-3 0-3 7m20 2c0 7 0 8 2 8l2-2c0-4 3-4 5-1 1 2 2 3 4 3 4 0 4 1-2-8-1-2-1-2 1-5 4-3 4-4 1-4-2 0-4 1-6 4l-3 4v-4c0-3 0-4-2-4s-2 1-2 9m23-6a1302 1302 0 01-6 14l5-1 4-2 4 2 3 1h3l-4-8c-3-8-4-9-6-9l-3 3" fill="#d3d3d3" fill-rule="evenodd"/></svg>