<svg xmlns="http://www.w3.org/2000/svg" width="400" height="225"><path d="M239 6c-13 1-16 1-19 6a2992 2992 0 01-2 176v-19l-13 6a618 618 0 01-31 16c4 1 2 2-3 2l-10 2c-5 2-5 2-4 5 3 7 4 7 34 8 25 0 27 0 28 2 0 3 6 8 10 9l2 1c-1 2 11 2 47 2l40-1c3-3 7-8 7-11 0-2 1-2 23-2 25 0 27-1 31-6 3-4 3-156 1-161-3-5-6-7-8-4l-8 11c-5 5-7 9-6 9v3l-2-1-9 8-24 25-1-29V34l2-3c3-3 3-3 1-7-6-16-8-17-22-18h-64m-49 29l-27 1-3 3-3 3-1 56v56l4-2a395 395 0 0028-15c-3 1-4 1-3-2 0-2 3-2 3 0h2c2-2 2-2 2 0 1 2 4 1 6-1l18-9 2-1V34l-28 1" fill="#d3d3d3" fill-rule="evenodd"/></svg>