<svg xmlns="http://www.w3.org/2000/svg" width="400" height="225"><path d="M394 15a844 844 0 00-46 38l-5 3c-2 0-8 4-8 6l-6 4-9 7-4 3-4 4-9 8c-3 1-7 3-8 5l-3 1-1-1-2-1c-1-1-1-1-2 1l-1 1-3-2h-1l-16 6c-7 4-12 4-22 2l-10-1-5-1-1 4-1 4c-2 0-11-5-11-7v-4l-2-27c-3-32-3-32-6-14-7 36-7 34-12 38-3 2-5 3-7 2l-2-1v-2c-2 0-3-4-2-5v-6c0-2-1-1-5 2-4 5-6 6-6 5l3-3 1-3-5 5-1 1c-1 1-2 0-2-2l2-2 2-1c0-2-3-3-5-1l-1 1-3 1-3 1-2 1c0 1-12 0-15-2l-15-5c-2 0-4-1-5-3l-2-2-1-2c-2-2-6-2-9 0-2 0-2 0-1-1 1-2 1-2-1-2l-1 2-2 2c-2 0-2-1-2-3s0-3-2-2l-1-1-1-2v6l-6-1-8-1h-3l-2-1-2-1c-2 0-4-2-2-3v-1h-3l-1-1-2-1-1-1-1-2c0-2-2-3-5-2-3 0-6-1-10-5l-3-2v5l-1-2c0-2-1-3-2-1v-1c0-2-2-1-3 1 0 2-2 1-5-1-3-3-3-3-4 1 0 3 2 6 4 6l2 2c1 4-3 2-6-2-3-6-7-8-9-5l-1-1-1-2c-1-1-2 0-2 1l-1 1h-2v1l3 1-1 1h-8l2-3c3-2 3-3 2-4-2-1-4 0-3 1l-1 1-1 3-1 3-2 2h-2c-2-1-2-1-3 1v2c2 0 2 0 1 2-1 3-7 6-7 5-1-1-1 35-1 79v80h401v-90l-1-107V11l-6 4M0 145v81l1-64a703 703 0 013-56h4l-1-3-2-6-2-5c-2-2-2-4-2-14V65l-1 80m6-64l3 4 2 4 1 2v2l-2 2h2l1 2c0 3-1 4-2 2l-2-1-1 1v1l1 4 1 4c0 1 14 12 22 15a312 312 0 0114 6l4 1-4-3-10-7c-6-4-8-5-7-7l-3-4-3-4-1-1c-2 0-6-6-5-7l-1-3c-2-2-3-6-2-6v-2l1-1c2 1 1-2 0-3H9c-1-2-3-3-3-1m219 46l1 5v2a787 787 0 003 61v-19l15-1h6v-7h-9l-8 1-2 2c-2 0-2-1-2-12a961 961 0 00-2-37c-2 0-2 1-2 5m153 13l-85 2h-31v19h3l17 1a1611 1611 0 01-1 1h-19v15h55a477 477 0 0073-4 2488 2488 0 016-2l-4-11h-13c0-1 2-2 6-2h6l-4-10c-3-8-4-9-6-9h-3m-132 15c0 3-5 7-9 8-4 0-6 2-4 3l9 1c8-1 8-1 8-4 0-2 1-4 3-5 3-3 3-4-2-4l-5 1" fill="#d3d3d3" fill-rule="evenodd"/></svg>