<svg xmlns="http://www.w3.org/2000/svg" width="400" height="225"><path d="M31 1L6 4H0v11l10-1 10-1 4-2c2 0 3 1 1 3l-1 1c1 1-2 2-5 2h-8l-3 2c2 0 2 0 1 2l-1 3-4 1-4 1v199h59c55 0 72-1 55-2-9-1-11-2-11-4h1l5 2c3 0 4 0 3-1s0-1 4-1c6 0 10 2 4 2l2 1 2 1c-1 0-2 0-1 1l18 1c19 0 20-1 6-2-6-1-7-2-4-2l4-1-13-2h-4l9-2c8 0 8 0 5-2h-8l-10 1c-6 0-6 0-4-2s8-4 8-3l-1 1 6 1 10 1 8 2h14l-5-1-8-3c-4-2-5-2-8-1h-13l-2-1c-1-1 1-1 5-1l5-1-18-1c-3 0-4 0-3-1l3-1c2 0 2 0 0-1h-9l-8-1c-1-1-1-1 1-1l2-1h18l-2-1-3-3c-1-2-2-2-8-2-4 0-6 0-5-1l-2-1c-2 0-2 0-1-1l2-1 9-1 12-3-7-1-5-1c-1-1-4 0-4 2h-2l-4-1c-1 0-2 0-1-1l-1-1c-1 0-2 0-1-1l-2-2 9 1 4-1h-5l3-1a321 321 0 00-22-2c2 0 2 0 1-1-2-1-1-2 2-1h4c-2-1 6-3 13-3l7-1h-7c-4 0-7 0-6-1l-7-1-9-1-5-1c-5 0-11-1-9-2h4c2 1 3 0 1-2v-1l1 1h2c2 0 2 0 1 1s-1 1 2 1 4 0 4-2l-4-1-3-1c1-1 0-2-4-2-4-1-5-1-4-3h-6v-3c-5-3 1-5 11-6a10479 10479 0 0020-2l9-2c11-2 10-2 10-5-1-5-1-5 7-5s8 0 5-3l-3-2c-1 1-1 1-1-1v-2l-1 2c-1 2-1 1-1-3-1-7-1-8 1-6 2 1 2 1 2-3 0-3 0-3-1-1l-3 2h-1l-2 1c-2 0-3 1-3 7-1 4-1 5-1 2s0-3-1-1l-2 2v-8l-1 3c0 2-1 2-3 2-3 0-4 3-1 5h1c0-1 1-2 2-1 1 0 2 1 1 2 0 2 0 2 3 2s2 0-2 1h-8l-4 1h-3l-5-1c-4 1-4 1-4-2-1-2-1-2-1 0 0 3-4 6-5 4-1-1-8-2-7 0l-4 1h-4l12-12c8-9 12-12 13-11l2-1 3-4 2-2v2l-1 3v1c3 2 3 1 3-3s0-5 3-7a5356 5356 0 0034-18c3-1 3-1 3 1 1 2 1 2 1 0 0-3 2-4 16-8a181 181 0 0138-7c7-1 8-1 8 1h1c0-2 5-3 5-1l2 2c1 1 1 0 1-1s1-2 3-2c7-1-43-24-70-32-35-11-60-15-95-15l-19-1 1-1-1-1c-4-1-4-3-1-3 2 0 2 0 1-1-12-2 6-6 31-5 4 0 6-1 7-2l3-1 8 1c6 0 10 2 5 2-6 0-2 1 7 2 8 1 10 0 11-1l2-1 2-2c0-1 1-2 3-2 3 0 4 2 2 5-1 3 0 4 4 4v-1c-1-1-1-1 1-2 2 0 3-1 3-3 0-3 0-3-5-4l-9-1c-7-1-7-1-6 1l-1 4v1c1 1 0 1-2 1l-8-2c7 0 6-8-1-8-2 0-3 0-2 1 2 1 1 4-2 4-4 0-4-4-1-5 2-1 1-1-3-1s-5 0-5 2c-1 3-6 4-6 0 0-2 0-2-3-2-2 0-3 0-3 2l-1 2-2 1c-2 0-2 0-2-2V0H50L31 1m274 0c5 1 8 6 7 11 0 5 1 8 4 8 2 0 2-1 0-7V7c2-2 5-1 6 2l2 22c0 3-2 8-2 5l-1-1c-2 0-4 11-2 13 2 3 3 2 3-1 1-2 1-1 1 2l1 10-1 7h-1c0-3-2-1-2 3v3l-2-2-3-4h-4c-1 2-1 5 1 14 2 7 3 18 1 24-1 4-2 3-2-3 0-4 0-4-3-4l-4 2c-1 3-3-4-3-9 1-4 1-5-1-6l-2-1 1 15c1 27 1 32-2 32-2 0-3-1-3-4s0-3 2-3h2l-2-2c-2-2-2-3-1-10 1-12-2-20-7-20-3 0-4 1-2 2 1 1 0 4-2 5l-1 2 1 1h1l-1 2c-2 0-4 18-2 20 2 5 0 7-6 7s-6 0-5-2l-1-3-1 1-3 1h-3v-10l1-14-1-10c-2-6-2-7-5-7-4 0-4 0-5 3-1 2-2 3-5 4-4 1-4 1-2 2h3l2 14a966 966 0 010 17c-1 4-2 4-5 4l-4-1h-2c-2 2-7 1-6 0l-1-1v-1l2-5c0-4-2-4-2 0 0 2 0 3-1 1 0-3-3-5-4-3h-1l-4-1h-4l-1-17V85l-1 9c0 16 0 16-2 16v-1c2-1 1-4-1-5-2 0-4 9-2 10v3c0 4 2 4 4 0 1-3 1-3 1 4v8h-19v-10l-1-4c-1-1-1-1 2-1s3 0 2-5c0-5-1-7-1-2l-1 4c-2 1-2 1-2-1l-1-2v20h-2a1054 1054 0 00-11 0c-1 0-2-1-2-3l-1-3-1 3c0 4-1 3-1-1l-1-4v4c0 3 0 4-1 3-2 0-3-4-2-8 0-2-2-2-3-1v2c2 1 1 3-1 3-1 0-2 0-2 2 0 4 0 5-1 3l-1-4-1-3-1 2c1 2 0 6-2 5l-2 1h-2l-2-1h-1c-2 3-4-4-2-8 1-3 1-3-2-4l-2-2 1-5c0-5 3-4 3 1l1 5v-5c0-3 0-4 2-3l1-1c0-3 2 0 2 3 0 6 1 4 1-3 1-4 1-5-1-5s-2 0-1 2v1l-2-1-2-1c-2 0-3 0-2 2l-1 1-1-1-2-1c-2 0-2 0-1 1v1c-1 0-2 0-1 1l2 1c1-1 1 0 1 3l-1 3-2 1v1c1-1 2 0 2 3v11c-2 0-3-3-2-7 0-4 0-5-2-5-2-1-2 0-1 4 1 3 0 8-2 8l-1-8c1-10-2-9-3 2l-2 6-1 1 2 1c3 0 3 2 1 2a546 546 0 0176 3 74 74 0 0025 0l8 1h5v23c0 21 0 24-2 24h-2l-1 1c-1 1 0 1 2 1 3 0 3 0 3 4l-2 4v1c1 0 2 1 2 3 2 6 1 7-2 7l-2 1h2l3 1h-5c-5 0-6-2-2-2l2-1c0-1-5 0-6 2-1 1-1 1 1 2s2 1-1 1-3 0-1 1h12l-3 1c-2 0-2 0-1 1h2l1 1-1 1v1c1 1 1 1-1 1s-3-1-3-2l-4-2-6-1c-7-3-22-4-18-1h-5l-6 1 4 1 5 1c1 1 1 1-1 1h-5a41 41 0 00-13-2l2 1h-4c-3-1-13 0-20 2-4 1-4 1-2 2l4-1c4-2 12-2 11 0h-6c-2 0-3 0-2 1 2 0 2 0 1 1s-1 1 2 1h4l15 1c7 1 10 2 10 3l-2 1c-1 1 1 1 4 1s4 0 3-1c-2-1-2-1 1-1 2 0 3 0 2 1l4 1 3-1c-2 0-1-1 3-2 6-1 7-1 4 1-2 1-2 1 1 1h2c-2 1 29 1 80 1h83V0h-49l-46 1M170 16c1 3 1 3-1 4l-1 1 2 2 2 2 1-1h1l4 1a212 212 0 0113 0l-3-1 2-1c4-3 4-6 1-6l-5-1c-1 0-2 0-1 3 0 3 0 3-3 3h-5v-3c2 0 1-4-1-4-5-2-7-1-6 1m76 11v3c0 1 0 2-2 2-3 0-5 1-5 2l2 1 1 1c-1 1 5 2 8 2h1l2 1c2 0 2 0 1-1s6-1 11 1c3 0 3 0 2-2v-1c1 1 4-1 4-3l1-2-7-2c-4 0-4 0-3 3 0 3 0 3-3 3h-7c-2 0-1-2 1-2s1-5-2-6h-5m-16 67l-3 6-2 3c1 1 0 3-1 4l-2 2h2l5 3 5 3 1 2 2 1 2-2 2-2 1-2c0-1 0-2-1-1l-1-2 1-2c2-1 1-6 0-6h-2l-2 2v2c2 0 1 5-1 5h-2l1-3v-4c0-1 0-2-1-1-2 3-3-1-3-6v-5l-1 3m33 46l-1 15v12l9 1a1774 1774 0 0127 3l4 1-1-4v-7c1 0 2-1 2-3l-1-7c0-3 0-4-2-5l-2-1-1-1c-2 0-3 3-3 13v8h-11v-22l-1-5-5-1-4 1c0 1-4 2-5 1-2-3-5-2-5 1m-46 0v1l1 2 3 1c3 0 2 2-2 2-1 1 0 1 3 1h6l-7 4c-3 0-3 0-1 1 3 2 2 3-3 3-8 0-3 1 7 1h8l-1-1v-4c1 0 2-1 2-3s-1-3-2-3c-2 0-1-2 2-3s2-1-11-3l-5 1m-59 79l-5 1h7l14 1c5 0 7 1 8 2h-9l-4 1h37c0-2-6-2-24-4a399 399 0 01-24-1" fill="#d3d3d3" fill-rule="evenodd"/></svg>