<svg xmlns="http://www.w3.org/2000/svg" width="400" height="225"><path d="M0 35v35l3 1 2 3-1 2-2-1v2c-2 1-2 8-2 74v74h118a3488 3488 0 00108-2v-9c1-2 1-2-2-2-5 0-3-1 2-1 3 0 4-1 9-6l5-8 1-1 2-2v-1l1-1-6 1c-1 1-9 0-11-1l-9-1-8-1-3-1-9-2c-6-1-6-1-4-2 4-3 27-2 31 0s11 2 8-1h5l7-1 4-2 2-1 1-2 5-9c2-5 6-11 9-13 4-5 4-6 2-6-3 0-2-2 1-2 4 0 10-11 7-13v-9c2-3 2-4-2-3l-2-1c0-3-9-3-9 0h-3l-1-2-1 1-1 1h-1v-2c-1 0-2 0-1 1l-4 1c-15 0-17 0-19-2h-2l1 1-2 1c-4 1-10 0-10-2l2-1h1l-2-1-2 2h-3c-1-2-9-3-7-1l-1 1-2-1-3-1h-2l2 1c2 1 2 1 1 2l-3-1h-5l-2-1h-5l1-1c2-1-1-1-7-1l-10-1h31l17 1-1-2c0-1 0-2 1-1l1 1 3 1c1 1 5 2 14 2h15a167 167 0 0032-1c3-1 4-4 2-4l-1-2c-1-2-1-2-2-1l1 3v1l-3-2c-2-3-4-4-4-1l-2 1c-2 0-2 0-1 1s1 2-1 2c-4 1-5 0-5-3 0-2 1-3 2-1h2c1-1 0-2-3-2l-4-1 3-1c3-2 7-2 14-1 2 1 3 1 4-2l4-5c4-2 7-5 7-7-1-2-5-3-6 0l-3 2c-2 0-5 4-5 6s-1 2-8 2l-7-1c1-1 0-3-1-3l-1-3-1-1-1-1 8-1c7 1 7 1 7-1 0-3 4-5 9-4s5 1 5-1c0-3 2-5 5-5l2-2 1-2 1 2 1 3v1c-2 0-3 3-1 3l1-1c-2-2 2-1 3 1l11 1c11 1 10 1 10 2-1 1 0 1 2 1l2 1h-7l-7 1-6 1c-4 0-4 0-2 2l2 3 9 1 8-1h12l13-1 24-2h22v14c0 13 0 14-2 13-2 0-2 0-1 1l2 2 1 5v5h-5c-10-2-24-2-24-1l-4 1-4 1h-3l-8-4a173 173 0 01-14-5c0 1 5 5 11 8 8 3 8 8 0 8l-16 4h-7l-3-1 1-5c0-5 0-5-2-5l-5 2c-6 4-14 2-17-5l-3-4c-2 0-6 8-5 11l-1 4c-2 3-3 11-1 11l2-2c1-3 4-3 4 0 1 2 0 3-1 4l-1 1v1c-2 3-2 7 0 8 3 0 5-3 4-5l1-2 1-3v-2c2-1 2-1 1-3-2-4-1-4 3-2 4 1 5 2 3 4-3 2-2 3 1 3s3 2-1 2c-4 1-4 1-7 14l-2 7-1 2c-2 2-3 2-3 0v-2c2-1 3-10 1-12l-2 1c-2 1-3 2-3 6l-2 5v3l-1 1v2l5 1 5 1-2 2c-2 0-2 0-1 1l4 1v-1c-1-1-1-1 2-1 4 0 9 2 9 3l4 1c4 1 6 3 4 4v1l1 1h-3l-7-2c-5-1-6-2-3-2 5 0 5-2-1-2l-7-1-1 1v1l-3 2c-1 1-1 1 4 1 2 0 4 0 3 1-2 0-2 1 0 3 1 1 1 1-1 1l-3-1-3-2c-2 0-2 0-1 1 2 1 1 3-1 2-3 0-4 1-8 8-2 5-3 7-2 8s1 2-1 3l-2 3h3l11-3c13-5 44-11 56-11 4 0 6 0 9-3l19-12v6c-1 2-4 3-8 2-3 0-3 0-6 5-3 6-5 8-11 13l-2 3h51l1-113V0l-4 2c-13 5-35 5-38-1L179 0H0v35m206 16c1 1-1 2-5 2s-7 2-6 5c0 1 1 2 2 1l2 1-1 2h-4c-1 1-2 1-2-1l-3-1-3-1v-2l2-1c2-1 2-1 0-2-5-2-11-1-12 3l-2 2c-1 0-2 1-2 3-1 2-1 2-3 1h-3c-1 1-1 1 1 1l2 1-2 1h-7c-5 2-6 2-6 0 1-1 0-1-3-1-5 1-5 2-1 2h4l-4 1c-4 1-4 1-1 1l3 1-3 1c-4-1-4-1-3 2 0 1 0 2-1 1 0-1-1-1-2 1-1 1-1 1-1-3l1-4-4-1-4-1h4c4 0 4 0 2-1h-12v-7c-3 0-4 1-4 5l-2 6c-2 2-2 3-1 3l2 1 3 4c3 3 2 4-2 4h-8v4l3-1 4-2h4l-3 1c-3 0-4 1-4 3s0 2 1 1l4-2 4-1h2c1-2 1-2 1 1-1 4 0 4 3 4l4-1-1-1c-1 1-2 0-2-2l2-2 2-1c1-2 1 2 1 6 0 3 0 3 3 2 2-1 3-1 4 1h2l3-2v-5c4-2 7 0 4 3v2h3l1-1 1 1 1 1c2 0 2 1 3 4v4l-5-1-6-1c-2-2-4 0-3 3l1 1h16c1-1 2-2 1-4 0-5 4-7 5-2 1 2 1 2 3 2h2c0 3 4 2 7 0 1-1 2-2 1-3v-1l3-1c0-1 1-2 2-1l2-3c0-3 1-4 3-4 1 0 2 0 1 1l-1 4c0 3-1 4-2 5v6l5 1h6c2-1 2-2 1-3v-1h2l2-1c1 0 2 0 1-1 0-3 2-7 3-5h3l3 3 5 2c4 2 13 1 11-2-1-1-1-1 2-1 8 0-2-2-11-2-2 0-3-1-3-2h-1l-2 2c-2 0-2-1-2-4l1-4 1-2c0-2 1-3 2-3l2-2 3-1c2 0 3 0 3 2l-2 2-1 1h-2l-3-1c-1 1 0 2 5 3l6 1c2 1 2 1 4-1l2-2v3l2 3v-3c-1-3-1-3 1-3 3 1 3-1-1-2h3a340 340 0 008 1v2l1 2c-1 1 0 1 1 1l2 1h-3c-4-1-10 0-10 1 0 5 1 6 9 6l8-1 1-2 3-2c1-2 2-2 2-1h3v2c3 0 1-4-2-4-3-1-3-1 0-1 4 0 4 1 5 3l-1 3c-1 1 0 1 1 1 2 0 2 0 2-3-1-3 0-5 4-5 2-1 1-1-2-1h-6l-3 1c-4 0-5-3-1-6 2-1 5-2 5 0-1 1 2 2 4 1v-2l-1-2-1-1-1-1c0-2-5-6-7-6l-3-1c-1-3-7-2-8 0h-5l-11-2-8-1-7-1c-7 0-14-3-13-4 0-1-3-2-4-1l-2-1-1-2-1 1M34 63l1 3c0 2-2 3-5 2l-1 2c0 2 1 2 3 2l8 1h5l-1-2-1-2c0-2 1-2 4-2h4l-2-1c-4 0-5 0-6-2-2-2-7-3-9-1m54 13c-1 1 0 1 3 1 2 1 0 1-4 1-7 0-8 0-8 2l-1 3c-1 1 0 1 1 1l3-1v-1l1 1c0 2 2 2 8 2h7v-4c0-3 0-4-2-4-1 0-2 0-1-1h-7M10 95l1 6 1-1h1c1 1 1 1 3-1 1-2 1-2 2-1 1 2 5-2 5-6 0-2 0-3-2-3-3 0-3 1-3 5l-2 1v-1c1-2-1-5-4-5-2 0-2 0-2 6m116-3c-5 1-7 6-3 6 2 0 2 1 2 3 0 3 0 3 3 3 2 0 2 0 0-1l-2-2 4-2c1 1 8 0 8-1v-4c1-1 0-2-2-2h-10m-89 7c-1 8-2 8-16 8-11 0-12 0-6 1 13 2 32 2 32 1l-3-1c-3 0-3 0-2-2 2-1 2-2 1-3v-2l1-3c0-2 1-2 1 0 0 4 2 4 2 0l1-2v2l1 3 1-1 1-2c1-1 1 0 1 1l1 1c2-2 1-4-2-4l-3-1-5-1h-6v5m206 1l-3 1-2 1 2 1 2 1h-2c-1 0-2 0-2 2 0 3 1 6 3 6 1 0 3-2 2-3l1-1c2-1 5 1 4 2l1 1 1-1c-1-2 1-3 8-4l4-1c1 0-7-3-12-3l-6-2h-1m26 76c-2 2-2 3-2 6 1 2 1 4-1 7s-2 3 0 3c3 0 2 5-1 9l-2 4 2 3c2 4 4 5 6 3l4-19 2-6 2-3-3-3-4-6c-1-1-1-1-3 2" fill="#d3d3d3" fill-rule="evenodd"/></svg>