<svg xmlns="http://www.w3.org/2000/svg" width="400" height="225"><path d="M0 53a703 703 0 003 53c1 1 1 1-1 1l-1 2v3l-1 7c0 6 0 6 3 6h3l-3 2-3 1v97h9c9 0 9 0 9-2 0-3 0-3 3-3s3 0 3 3v2h11c11 0 11 0 10-2l-1-3v-4c1-1-2-6-4-5s-1-4 1-5l1-2c-3 1-3-2 0-3h3c3 0 1-4-2-5l-1-3 1-3 1-1v-1l1-3 2-2h-1c-2 1-4 0-4-2s-1-2-4-2-4 0-4-2 0-2 3-2c5 1 8 0 4-2h-3l-1-1 6-2v2c-1 3 12 4 15 2 2-2 1-3-1-3l-2-2v-2l2-1 3-2v-1l1-4 2-3h2l4 1h3l2 1 1-2c-1-2 1-3 4-3 2 0 3 0 2-1h-5c-6 0-8-1-8-4s3-3 4 0c0 2 1 2 15 2l17 1 1 1c-2 0-5 4-4 4l2 1h1l-2 1-3 1v1l1 2 1 1v-1l1-2 4-2h2l1 1c1 0 2 1 1 3v3h5c5 0 6 0 6 2l2 1c2 0 2 0 2 2-1 2 0 3 1 1l3-2c1 1 1 1 0 0l-1-1h3c2 1 3 2 3 4l1 4v4l-1 2c0 2 0 2 3 2l3-2h2l3 1c2 1 2 1 0 1-3 0-3 0-2 3l1 4 1-2c-1-3 1-3 2 0l1 1c0-2 0-2 1 0l1 2c-1 3-1 7 1 8 2 0 2 0 0 2-1 1-1 1 1 2v2c-1 0-1 1 1 3 3 4 4 1 2-7v-16h-1c-5 1-6 1-7-1l10-1 10 1-2 1 2 3 2 4c0 3 1 3 2 4l1 3 3 5 1 4c-2 1 0 4 4 9 4 4 4 4 2 6-1 1 0 1 6 1 5 0 7 0 6-1l-1-1h2c3 3 8 2 8-1h-4c-3 0-3 0-2-1v-3l3-2c4 0 6 1 6 7 0 2 2 2 21 2h22l1-4 1-3 1 2 1 4 74 1h74V0H0v53m194 62l2 2 1 1-2 1c-4 0-4 1-1 3l3 1h-3c-2 0-2 0-1 2 1 1 1 1-1 1l-2 1 2 1 3 1h-2l-5-1c-1-1-2-2-3-1l-1 1-5 1h-6c0 2-3 1-5-1s-4-3-4-1h-2c-1-2-2-2-2-1l-1 1v-4c0-2-1-2-3-2-4 0-5 1-3 2l1 3 2 4c1 1 1 1-1 1-3 0-4 2-1 4 2 1 3 4 1 6v1l23-6c4 0 7 0 6 1l-1 3c0 2 0 3 1 2h1c1 1-2 3-3 2l-1-4c0-2 0-3-2-3l-4 1-3 2c0 2-2 3-2 1 0-1-1-1-1 1h-1c-1-2-1-2-6 0s-5 2-1 5c2 3 2 3 4 1l1-1h5l2 1c2 3 7 3 7 1l2-2h2c1-1 1 0 1 1 0 2 0 2 2-1l1-4v-4l1-3v6l2-3c2-3 2-3 3-1v3c0 2 2 1 3-1 2-2 4-3 4-1h2l7-1c6 0 8-1 4-4v-2l1-1c0-2-4-1-4 1h-1c0-2-2-3-4-1-1 1-3 2-5 1l-2-1 3-2h2l8-1h10v1l1-1 2-2 1-1h-4c-4 0-4 0-4-2l-2-2c-2 0-2 0-1-4 0-4-2-4-3 0-2 3-3 3-4 0l-2-2-1-1-4-1h-2c1-1 1-1-2-1s-3 0-3 3m40 3l-1 1c-2 1-1 3 1 3v1h-3c-3-1-3-1-3 1h1l2 1-3 1-1 1c0 2 3 3 5 3h4c3-2 3-2 4 0 2 2 2 2 0 2l-2 1c0 1 1 2 3 2 2-1 4 0 4 1 1 1 6 0 7-2l-1-3c-1-2-1-2 1-2l4-1c2-1 2-1 3 2 2 3 4 4 3 1l-1-2c-2 0-1-2 1-4s-10-1-14 1l-3 1h-1l-3-1-3-2c-1 0-2 0-1-1l6-1c9 0 5-1-6-2v-1l-1-2-2 1m72 9l-1 2-1 3c0 3 2 2 3-2 1-2 1-2 1 0v3c0 2 0 2 3 2l4 1h6c2 0 3-2 1-4s0-3 8-2h7c1-1-3-2-5-1l-3-1h-1l-1 1-2-1-2-1-12-1c-2-2-6-1-5 1m-7 9v2l-2 1v2l4 1-4 1h-4l-1-1v2l-4 1c-4-1-8 0-6 2 1 2-2 2-5 1h-3c-1 1-1 1-1-1s-1-2-4-2-3 0-2 1h3l2 1-2 1c-2 0-3 2 0 2v1c-3 1-1 2 3 2 4-1 7 0 7 2l5 1 5-1c3 0 4 0 4-3 0-2 1-3 2-3l2-1 2-2c2 0 2 0 2 3l-2 6c0 3 0 3-4 3l-3-1v5c0 7 0 7-2 8v2l2 1h2c1 2 4 3 4 1s6-2 12-1c5 1 6 0 6-8v-6h-3c-2 0-3 0-3-2v-15l-4-1c-7 0-8-1-5-2v-2l-2-1h-1m43 8l-1 1c-2 0-2 2-2 7l-2 1v-2c0-3-3-3-7-1l-2 2-1 2-1 2 1 1-2 1h-5v10l1 7 1-1 1-1 2-2c-1-5 0-8 2-8l2-1v-2l-1-1c0-1 2-2 8-2l8-1 2-1 2 1c-1 3 4 6 9 5l6 1c1 1 2 0 2-4 0-2 0-2 2-2 4 0 4-2 1-3l-3-1v-1c1 1 2 0 3-1 0-2-1-4-2-3v-1l-1-1h-14c0 1-1 1-2-1h-7m-222 4c0 2-1 3-3 0h-3l-3 2-1 1 2 1c2 0 6 3 4 3-1 0-2 1-2 3 1 2 1 2 3 2 3 0 4-1 2-3-2-1-2-2-1-4 2-1 2-1 2 1 0 1 1 2 4 1l3-1 2-3c5-2 1-5-7-5-3 0-3 0-2 2m129 12l1 1 1 1 2 2 3 1h-3l-3 1c0 2-4 1-4 0l-2-1c-2 0-2 0 0 3l1 2-2 1-10 1h-8l-1-5c-1-6-3-8-3-3v7c1 1 1 2-2 2l-3 2h3c2 0 3 1 1 2-3 1 0 2 6 2 7 1 11 0 9-2-1-1 0-1 3-1h4l2-2c4-1 5 1 3 3-3 1-5 6-4 8 0 1 2 1 4-1l4-1 4-1 2-1 12 1 12 1c1 1 2 0 3-1 2-2 0-3-7-3l-9-2a841 841 0 00-9-7v-2l-1-2v-1l-1-2-1-2-2-1h-3l-1-1-1 1m-95 8c-5 2-7 5-3 6h3l5 1c2 1 1 1-2 1-5 0-5 0-5 3s1 3 3 3c3 0 4-1 2-2-1-1 0-1 2-2 2 0 3-1 3-2s1-2 3-2c4-1 5 1 1 1-4 1-4 3 0 3 2 0 3 1 3 2l-1 1c-2 0 0 1 2 2l3 1h3c3 3 6 3 8 2 2-2 1-3-1-3l-2-1v-2l1-2c4-3 4-4-1-3-4 0-4 0-4-2 0-5-4-7-8-4h-3l-2 1c1 2-1 3-3 1h-1c0 2-3 1-3-1s-1-3-3-2m-54 6l1 1c1 1 0 1-2 1l-5 2H80c0 2-1 2-5 2h-9c-2-3-5-2-6 0 0 1-2 2-4 1-3 0-6 2-6 5l-2 1-1 2c1 2 3 1 3-1 0-4 2 4 3 11 0 6 2 11 2 7 0-2 5-4 7-4v4l1 1 1 3c1 1 1 1-2 1-2-1-3 0-4 1 0 2 1 4 2 3l2 2c0 2 1 2 3 2 3 0 3 0 1-1l-3-1 2-1c2 0 9-2 8-3s-1-1 1-1l2 1h10c1-1 0-1-1-1l-2-2h4c3 1 7 0 7-1s-5-3-6-2h-4l-3-1h-3l1-1 4-1 8-1c8-1 11-2 7-4-2-1-2-1 2-1l5-1c1-1 2 0 2 1l-3 1c-3 0-3 0-1 1 4 0 10-2 10-4-1-1 0-2 5-2 2 0 5-4 5-7l2-3v-3l-2-1-1-2-1-1c0-2-14-2-16 0l-1-2c0-1 0-2-2-2l-2 1m192 27l-4 4c-2 4-3 5-4 3 0-1-1-1-2 1s0 4 4 4l6 2c3 2 7 3 11 1 3-2 3-2 3 0s1 2 2 1v-3l-1-2v-1l-2-5c-2-5-3-6-5-6l-3 1h-5m-164 16l-4 4c-1 2-2 2-2 1l-2-2-1 1v1c-1 1-1 1 1 1l3 1 14 1c13 0 14 0 14-2 0-3-5-5-7-3-1 2-3 1-4-2s-4-4-5-2h-5l-2 1m-24 2l-7 1-2 2-3 1h-1l-1 1h-2 25c1-1-2-6-3-7l-6 2" fill="#d3d3d3" fill-rule="evenodd"/></svg>