<svg xmlns="http://www.w3.org/2000/svg" width="400" height="225"><path d="M91 109l-2 9v2c1 1 0 1-1 1-5 0-8 0-7 1l4 1c2 0 3 0 3 2l1 2v2l-2 6c0 6-6 11-6 5v-2l-1 2c0 2-1 2-1 1 0-2-1-2-3-1s-3 0-4-1l-4-2c-3 0-3 0-4 4 0 4-2 6-2 3l-1-5-2 2c0 4-3 6-7 5-4-2-8 0-8 3l-2 2a45 45 0 00-6 1l-1 1-2 1c-3 1-3 2 1 6 3 3 4 5 2 4h-3l-2-2-4-3-1-1-2-11c0-2-3 1-3 3s-1 3-5 4c-10 2-9 2 3 13l15 11 4 1h3l4 1h15v4a320 320 0 012 10c0 2 0 2 2 2 1 0 2 0 1 2l-1 1-1 1h2l-1 2c-2 2-3 2-2 3s1 1-1 1l-2-1-1-1-1 1v2c-1 1 1 4 2 3l1 1-3 2c-2 0-3 1-3 2l-2 1-3 1s-1 2-3 2c-2 2-2 2 0 2h2l-2 1-6 2 178 1h182v-44c0-42 0-45-2-45l-11 1-6-1c-3-1-10 0-8 1 1 1 0 1-3 1h-5l-4-1-7-1-6 1c-2 0-3 0-3 2s-3 3-4 1h-13c-3-1-6 0-6 2-1 2-3 2-4 0h-1l-1 2-1 2c0 1-6 2-6 0h-2l-5 1c-8 0-10 0-10 2v1l-2-2c0-2 0-2-1-1l-5 1h-3l-3 1c-2 0-2 0-1 2 0 1 0 2-2 2l-4 1c-2 0-2 0-1-2l-1-2-1 2c1 3-1 5-4 5-4 0-11 4-8 4l2 3c0 3-4 3-15 2-1 0-2-1-1-2v-2l2-2c2 0 2 0 1-1-3-2-2-3 2-8 4-4 6-9 4-9l-1-1c0-2-4-5-7-5l-4-2a474 474 0 01-39-1l-6 2a589 589 0 00-17 1h-2l-7 1h-16c0-1-5 0-7 2h-8l-2 2-3 2c-2 1-2 1-2-1l-2-4-3-5-2-4-1 4c-1 3-1 4-2 3s-1-1-2 2l-1 4c-2 2-7-1-8-4l-1-3-1 3c0 3 0 3-5 3s-5 0-5-3l-1-9v-6h10c8 0 9 0 8-1-2-2-8-3-8-1h-2c-2-2-3-2-4-1-3 2-5-1-7-10l-2-7v6m307 7l-48 1a505 505 0 00-68 1h-28a140 140 0 01-30-1l-3 1h-17a123 123 0 01-24 0h-1l-2-1c-2 2-8 2-23 2l-17 1-16-1-2 1h-2c-2 0-2 0-1 1l4 2c6 0 9 1 6 2-11 3 28 3 41 0 2 0 2 0 0-1-1-2 0-2 12-1l17-1 57-1a2147 2147 0 00105-2c39 0 44-1 41-3h-1m-16 6c0 1 1 3 4 3h5c2 2 1 3-3 3l-5-1-1-2v2l-4 1h-4l4 1c6 1 22 0 22-1l-3-1h-2l2-1c3 0 3-1 3-3s0-2-9-2l-9 1M68 183l1 2v2c-2 3-2 10 0 10l2 1c2 1 2 1 4-1s2-2 3-1c1 2 3 0 2-2l-1-3-2-4c-4-3-9-6-9-4" fill="#d3d3d3" fill-rule="evenodd"/></svg>