<svg xmlns="http://www.w3.org/2000/svg" width="400" height="150"><path d="M0 75v75h401V75l-1-57v19l-3 3-3 2-9 6-5 4a479 479 0 00-41 31l-11 8a94 94 0 01-14 9l-2 2-2-3c-5-5-11-17-16-28l-4-10v71l-3 1a3375 3375 0 01-164 10l-8 1-1-66V12l2-3c3-2 4-2 10-2a11998 11998 0 00148-5c-2-2-4-2-3 0a1308 1308 0 00-137-2H0v75m182-52l1 12c0 8 2 4 2-4 1-7 1-8 3-1 2 9 6 6 7-6 0-7 0-8-2-8l-1 8c0 8-1 10-2 3-2-9-3-11-6-11h-2v7m-61-5c-3 0-3 3 0 3 2 0 2 1 2 12s0 12 2 12 2-1 2-12 0-12 2-12l2-2c0-2-3-3-10-1m19 10l1 11 2-3c0-4 6-4 6-1l2 2c1 1 1-1 1-10l-1-10c-2 0-2 1-2 6s0 6-2 6c-4 1-4 0-4-6l-1-6c-2 0-2 1-2 11m22 34l2 2c2 0 2 1 2 10 1 14 2 14 3 0 0-9 0-10 2-11 4-1 2-3-3-3s-6 0-6 2m-41 1c-2 3-2 4-2 13 0 11 1 14 6 14s6-2 6-15c0-10 0-11-2-12-3-3-5-2-8 0m19 6c0 8 0 17 2 18 1 2 7 1 9-1s2-25 0-25-2 2-2 12c0 11-1 12-2 12-2 0-3-1-3-12l-1-12c-1 0-2 2-3 8m-17-3v11c0 8 1 9 3 9s3-20 0-21l-3 1m273 7a1537 1537 0 00-52 48l-4 4 7 5 9 8 4 2 1 1 1 1 1-2 2-1 2-2 2-4h1c0 1 1 1 2-1 2-1 3-3 2-4l1-1 2 2h2l1-3 3-3 3-3h2c0 1 1 1 2-1l3-1v-1c-1-1-1-1 1-1 2 1 2 0 3-2l2-2 1-20-1-21-3 2m-135 32l-4 5c-1-1-1 0-1 2l-2 9-2 6c2 1 4-1 5-5 1-6 2-6 3 0 1 3 3 5 4 4l-1-7c-2-6-2-7-1-12 3-8 2-9-1-2m-142 1c-1 1-1 3 2 4 2 0 2 0 2 12 0 11 0 12 2 12s2-1 2-12c0-12 0-13 2-13l2-2c0-2-1-2-5-2l-7 1m122 9l-1 9c-3 2-4 0-4-6s-1-9-2-9v18c2 2 7 1 8-1 2-2 3-13 1-16-1-4-2-2-2 5m-101 6c0 10 0 12 2 11l1-6c0-6 0-6 3-6h3v6c0 5 0 6 2 6l1-10c0-10-1-13-3-7-1 3-6 3-6 0l-1-4c-2-1-2 0-2 10m73-9l-1 9v8h4c4 0 5-1 7-4v-9c-1-1-2-3-1-4 0-2 0-2-2-1-2 2-5 3-5 1s-2-2-2 0" fill="#d3d3d3" fill-rule="evenodd"/></svg>