<svg xmlns="http://www.w3.org/2000/svg" width="400" height="151"><path d="M0 6c0 6 0 7 3 10s3 4 2 6v4l-3 4-2 4c0 3 0 3 3 2 15-3 20-11 18-25V2h-5c-1-2-7-3-7-2l3 6c0-2 3-1 4 2s0 16-2 19-9 7-10 6l3-5c2-5 3-11 1-10-1 1-3-3-4-7V4c2-4 3-4-1-4H0v6m341 43h-8c-11 0-14 1-15 3l-3 5c-1 2-1 2 3 4l4 3v3l1 5c0 3 1 5 5 5 1 0 2 2 2 5 0 4 1 5 4 5 4 0 4 0 7 4 3 6 6 9 15 14l13 7c10 7 30 30 31 36v-17c0-18 0-20-2-21-2-2-2-3 1-2l1-4c0-3-1-4-4-6-4-3-9-12-15-28l-5-11c-1-2-7 0-8 2 0 3-4 2-6-1l-3-1c0 1-4 0-5-2l-2-3c-1-1-1-1 2-1 4 1 4 1 4-1l-1-3c-1-1-2 0-2 1s-1 2-3 2c-1 0-2 0-1-1v-1c-3-1-3-1-2 1h-2c-2-1-2-1 0-2 1-1 1-1-1-1l-2 1h-3m-16 9v1l-1 1h-1l1 2v1l2 1c1-1 2-1 3 1 0 3 8 8 11 8l3 2h2c0-1 1-1 2 1l3 2-1-2-4-3c-2 0-14-12-15-14h-2c-1-1-2-2-3-1m-45 17c0 2-1 2-8 2h-39l1 6a540 540 0 012-1v-4h44v3l1 3v-6h13l-8-1c-4 0-5 0-5-2h-1m-18 12c-4 1-4 2 1 1h7c6 2 5 3-1 2-7-1-8-1-7 3l-1 3c-1 0-3-3-2-5l-1-2c-2 2-1 6 2 8s11 3 14 0v-1l-10 2-2-1 2-2 4-1 4-1c3-2 3-2 4 0s1 2 1 0c0-6-8-9-15-6m55 5c-2 1-3 2-3 6 0 6-1 9-4 9s-3 3 1 6l2 5v3c2 1 1 2-1 1-2 0-2 0-2 4 1 4 2 5 5 4l2 1 1 5c2 6 1 7-8 7h-8l-1-5v13h30a257 257 0 0038-2c19-2 19-2 19-4s-1-2-14-2l-13-1-1-2-7-14-2-3-1-4-2-7-11-12c-3-5-3-5-1-5a384 384 0 01-19-3M98 131c-4 2-5 2-12 1v-1c0-3-2-2-8 0-5 3-5 3-2 3h4c0 2-6 8-8 8l-1 1-1 2c-2 2-3 3 0 3l4 2c5 2 52 2 57-1 4-1 6-6 2-6l-3-1-7-2-7-1c-1-2-1-2-3-1-1 2-2 2-4 1h-6c-3 0-2-2 0-1 2 0 3-1 1-2-6-3 4-3 20-2 3 1 4-3 1-5-2-1-10 0-16 2l-5 1-1-2c0-2-1-1-5 1m-53 7c-1 4 1 5 5 5 6 0 6 0 2 5l-3 3h3l5-2c0-2 3-4 5-5l4-1-2-3c-3-3-18-4-19-2" fill="#d3d3d3" fill-rule="evenodd"/></svg>