<svg xmlns="http://www.w3.org/2000/svg" width="400" height="225"><path d="M0 113v112h193a11552 11552 0 00188-2l-1-3-2-2h6c-1-1-3-2-4-1-2 0-2 0-2-3 0-2 0-2-1 0-1 1-1 1-1-1l2-2 1-1 1-1 1 1c-2 2 5 2 8 0 3-1 3-1 7 3 3 3 4 4 4 8l1-109V0H0v113M205 12v8l-1-1-2-1v1l-1 1-1-1-2-3c-2-1-2-1-2 1l2 2c1 1 1 1-1 2-4 2-4 2 0 4 2 1 3 2 1 4v2c1 0 2-1 1-2h1c5 4 5 4 4 5l-3-1h-1l-1 1-2 1-3 1c-4 0-1 1 3 2v1l-1 1h-4l-1 1c0 1 3 3 5 3l4 1 4 1c2-1 3 0 3 1l2 1 4 1 5-2c2-2 2-2 3-1 1 2 2 3 1 5 0 3 1 5 3 4v-1c-2-1-2-1-1-2v-5l1-2c1 1 5-4 4-5h-6l-4-1 4-1v-3c-1-1-2-1-3 1l-2 3 1-4c0-3-1-4-2-2-1 1-1 0-2-3 0-3-1-4-3-4l-2-4-1-2c-3 0-2-3 0-4 3-2 3-3 0-5-2-1-3-1-4 1m74 15l-2 3-2 1c-2 2-13 2-13 0 0-1-2-4-4-4l-1 1h-2c-5-2-8 1-9 7l-1 5 1 2 2 1 2 3 2-3 2-2h2c2-1 5 1 4 3-1 1 0 1 2 1 3 0 4 2 1 2-2 0-2 0 0 1l5 1 2 1c-1 2-1 2-5 1h-2c1 2 0 2-3 3-5 1-6 5-2 6h2l-1-1-1-2 2 1 3 2 2 2 3 3v-1c-1-1-1-1 1-1l4-1c0-1 1-1 1 1l3 2v-1c-1-1-2-2-1-6 1-5 0-5-1-4-2 0-3-3 0-4h1l1 1h6c0-1 1-2 3-1 5 1 6 2 6 5-1 2 0 3 2 1l3-2c4 0 9-3 8-4 0-2 0-2 2-2l2-1-2-2-3-2c0-2-1-2-1-1-1 1-4 0-4-1l1-1h3c1-1 1-2-1-2l-3-2h-2c1 1-1 4-2 4l-1-3c0-1 0-2-1-1l-1-1 1-1c2 0 1-5-1-6h-3c-1 2-3 3-2 1l-1-3c-1-1-2-1-2 1-1 1 0 2 1 3v1c-2 0-3-2-3-5-1-4-3-3-3 1M127 51l-4 2c-2 1-2 15-1 15s3-3 3-5c0-1 0-2 1-1l1-2-1-3v-1l5 2c-2 0-1 2 2 3s3 1 4-2c3-8-1-10-10-8m270 4l-2 4c0 2-4 6-4 5l-1 2c-1 1 0 2 1 2l3 2 4 2c2 0 2-1 2-10 0-10-1-10-3-7m-80 19c-2 1-1 2 0 2h3c1 1 1 1-1 1-1 0-3 1-4 4-2 1-3 3-2 3l1 1c0 2 5 4 6 3l3 1 5 2 1 1c-1 1 4 4 4 3 2-1 4-1 4 1s5 4 6 2h2c0-2 0-2 1-1l5 1V88c-2 0-5-3-4-6 0-2 0-2-8-2l-8-1-1-1c-1 1-2 0-2-1h-1v4l-3-3-2-2-1-1c0-2-3-3-4-1m-127 2l-1 1v3l-1-1h-6c-3 2-7 2-6 1l-1-1-1 1-3 1-2 1v3l-2 5c0 2 0 3-2 3l-2-1-2-1-2-1h-2l-1 1-2 6c0 2 0 2 1 0l2-3 1 5a132 132 0 011 12l2-1 2-1 1 2v1l-2 1h-3l3 1c3 0 3 0 1 2l-4 1-2 1 2 1c2 0 2 1 1 5l-1 1-1 1v1h1v2h1c1-2 2-2 2-1l1 1v-5l-1-4c0-2 1-3 2 0h3l5-2 5-2c1-1 1-1 2 1l4 1h2l2 1v1c-2 1-2 1 2 2l5 1c1 0 2 0 1 1l1 1h1c0 1-1 2-6 2-8 0-11 1-11 3v1a984 984 0 0123 1l1-2v-1c0-1-1-2-3-2-2 1-3-1-1-2 1-1 2-2 1-3h1c2 1 2 1 4-1h3c0 3 3 3 5 1 2-3 8-4 9-1 0 1 1 2 2 1l1 1-1 1c-1-1-1 0-1 1 0 2 0 2 1 1l4-2c3 0 3 0 3 3s0 4 2 4l1-1c-1-3 0-3 2-1s3 2 5 1v-3c-1-3-1-3 1-3s1-2-1-3c-1 0-2-1-1-2 0-1 0-2-2-2l-1 2c0 2-4 4-5 3v-1c2-2 0-12-2-12h-1l-1-1c-1 1-5-4-5-5h2l1-2v-3c0-2 0-2-2 0-1 1-1 1-1-2-2-6-4-8-5-2 0 4 2 6 3 4h1c1 3-2 4-6 2-3-1-4-2-4-5v-6l-2-4c-1-2-2-2-2 0-1 1-2 0-7-4-8-7-14-9-12-5m86 6l-3 1c-2 0-2 0-1 1l2 1 1 1 2 1c1 1 1 1-1 1l-2 1-3 2-1 1c1 1 4 0 4-1l2 1 2 4 1 3v1c-2 0-2 1-1 3l-1 3h-2l-1 1-2-1c0-2-3-5-4-5l-1 2c-1 1-1 0-1-1l-1-3v13l-1 1h-1c-2 2-3 1-3-1s0-2 1-1h1l-1-2-2-1 2-1c2 1 2-2 0-2l-2-4c0-5-2-8-4-5-1 2-1 3 1 3v1l1 2v3l-2 3v-3c0-3 0-3-2-2-1 2-1 2-2 1l-1-1h-2l-2-1 1 2c2 0 2 0 1 2-2 2-3 7-2 7v2c0 1-1 2-2 1l2 6 2 4 2 2h1l1-1v4c2 0 3-2 4-4 0-3 0-3 1-2l3 2c0-1 2 0 3 2l5 2c1 0 1-3-1-4h-2l-1-2 1-2v-4h-1c0 1-1 2-2 1v-2c2-3 5-1 6 3l2 2v-6c2-2 5-2 5 0h-1c-2 0-2 1-1 3v2l-1 1h4l2-1c1-1 1-1 1 1 0 3 1 5 2 3v-1l-1-2 2-1 1-2c0-3 2-9 3-8v-3c0-3 0-3 1-2l3 1-1-2-1-2c-1-2-1-2 1-1l2-1v-1h3l1 1v-7c-1-2-1-2-2-1h-1c0-2-4-3-5-2s-1 1-1-1l-1-2-1 2c1 1 0 1-1 1l-1-2-1-3c-1 0-2-2-1-3v-1c-1 1-2 0-2-1h-2M159 98l1 6v3c-1 2 1 1 3-3 2-3 2-3 2-1v3l1-1 2-1v2l-1 1c1 0 2 0 1 1v8l1-2 2-2 1 2 1 1 1-1c-1-1 0-1 1-1v-1l-1-2 2 1 2 1v-2l-2-5c-1-3-1-3-2-2-2 2-4 1-5-2l-2-2c-3 2-5 1-5-3-1-6-3-5-3 2m164 7c0 1 0 2-1 1l-3 1c-1 2 1 4 3 3 3 0 2 1 0 3l-2 2 2 1c2 1 3 4 0 4-1 1-1 1 2 2 4 2 4 2 4 0v-4c0-2 0-2 2 1 1 3 1 3 1 1 0-1 0-2 1-1 1 2 3 1 3-1l-1-3-1-2v-4h-3c1 4 0 6-2 6s-2-1-2-3v-2l-1-1v-3l-2-1m-170 16c-1 2-1 2-2 1l-2-1h-4l-5 1-3 2-2 2h3l1 4-1 6-1-3v-2l-2 2c0 2-2 3-2 3h-2l-3 1-2 1c0 1 4 2 5 1l3-1 4-1h1l3 2c2 0 1 1-2 5l-3 4 10-5c1-1 1-1 1 1 0 1 0 2 2 1 2 0 3-3 1-3l-2-3-1-3-1 1-1 1c-2 0-3-3-1-3v-3c-1-2-1-3 1-3l1 1v1l1-2v-2l1-1c-1-1 2-2 3-1 2 1 1 4-2 6-2 1-3 3-2 3h1l4-1c3 1 4-1 3-5l1-3v-3c0-4-3-4-4-1m197 9l1 2c1 0 2 1 1 2l1 1c1 0 2 1 2 3v2c11 8 20 11 21 8 1-1 0-3-2-4a907 907 0 00-13-2l-3-2c-3 0-2-3 1-4 4-1 3-2-5-5l-4-1m-195 11l-1 5-3 4h-1l-1-3-1 1-1 2c-1 1-1 0-1-1v-2c-1 0-2 1-2 3 0 3-1 4-1 0 0-2 0-2-1-1l-2 2-2 1 1 2v2l2-1h2c0 2 1 2 4 1h2l1 2c1 0 0 3-2 5v1l3-1h1c0 1 0 3 2 3v3l-1 2 2-1h1l3 4c2 2 2 2 0 2-3 2-3 6 1 6l3-1h1l2 1 1-2-1-2-1-1h-1c-1-1 0-2 3-2 5 1 6 1 3 3s-2 3 2 3l3 1-4 1c-4 0-6 3-2 3l3 2-2 1c-2-1-3 0-5 1v2l1 2c0 1 2 2 3 0 0-1 1-1 2 1 3 2 3 3 0 3s-2 2 1 4 5 3 3 0l-1-2 2 1 1 1h2c1 2 7-2 7-4l1-2-1-1-1-1-1-2v-3c-1-1 0-3 2-1v-4l1-3 1-3c2-2 1-3-2-3-4 1-4 0-4-2l-1-2-1 2-1 2-1-2c0-2 0-2-1-1 0 2-1 2-4 2s-4 0-3-1l-3-1c-3 0-4-2-3-4 0-3 2-2 2 0 1 2 1 2 2 1s1-2-1-3c-1-1-1-1 1-1h3l3 1h2c-2 1-3 2-4 1l-2 1c1 2 10 2 12 1l3-1c4-1 6-4 2-4l-2 1-1 1v-5h7l2-1 1-1v-1l-1-3v-3l1 2 1 2c1 1 2 0 5-4l4-3 2-1 2-1 2-1-1-2v1l-2 1-3 1c0 1-3 2-5 1-1-1-3 0-6 2-6 3-6 1-1-3 4-3 5-4 2-4l-5 2c-4 0-9 2-6 2 2 0 2 5 0 6h5l-3 2c-1 1-2 2-1 3 0 1-1 2-5 3l-5 1h-5c-2 0-3-5 0-5v-3c0-3-1-4-1-1 0 2-2 3-2 1h-7l2-1 1-1-1-2v-1l2-1 1-1-2-2c-2 0-3 0-2 2 0 2 0 2-2 2s-2-1-2-3l1-4v1c0 2 0 2 2 1 3-2 4-3 1-3-1 1-2 0-2-1 0-2-3-1-3 1m-72 30c0 2 0 3-2 3-4 2-10 1-11 0l-3-2-1 2v1c-2 1-2 1-2-2l-1-3-1 2-1 4-1 1 1 1c1-1 3 2 3 4 1 3 2 5 2 3h1v3l1-5 1-4c1 0 3 2 3 4 0 4 2 6 4 4l1-3 1-4c1-1 1-1 3 2l1 4v2l2-6v-1c3 1 3 7 0 7v2c1 3 1 3-2 3h5l7 1c0 2 2 1 5-2l3-3-4 1c-4 0-4 0-3-1v-3l-1-2c-2 0-2 0 0-2l2-1-2-1c-3-1-2-4 2-6 5-3 3-5-4-4l-8-1c-2-1-2-1-1 2" fill="#d3d3d3" fill-rule="evenodd"/></svg>