<svg xmlns="http://www.w3.org/2000/svg" width="400" height="225"><path d="M0 9c0 9 1 10 3 10l2 2c1 2 1 2 2 1h3c3 2 5 1 2-1s12-1 16 3c5 3 7 3 4-1l-3-2 8 1 10 1 1-1c0-2 6 0 10 3 1 2 3 3 3 2l1 1h1l1 1v1l1 1c-1 0 1 3 4 5l4 6 2 2c2 0 4 2 5 3s-4 4-6 4l-3-2-3-2c-1 0-1 1 2 3 3 4 4 10 2 9-1-1-4 0-6 1l-14 4-6 1c-2 2-2 2 3 2h5l-5 1H22L0 67c-1 1 2 2 6 2l4 1 1 1h1l5 1-2-1c-1-1 3-1 11-1 7 0 9 1 5 1-8 0-11 2-3 2l4 2 3 1v-2c-2-1-1-1 3-1s5 0 4 1v1h2l4 1c1-1 11-6 12-5v-1c-1-1 0-1 3-1l5-1c2-3 5-3 3 0-2 2 0 3 7 3 6 1 8 3 9 7 0 2 0 2-3 0s-10-2-10-1l2 2 1 2h1c1-1 1-1 2 1l2 3 1 1c-2 0 4 6 6 6v-2c-1-2-1-2 1-2s2 1 2 2c-1 3 1 3 1 0l3-2c2-1 4 1 3 2l1 1h1l-4 2c-1-1-6 0-7 1 0 2 2 3 5 3s2 0-2 1l-2 2 1 1h8l3-1 3-1 3-2c1 0 2 0 1-1l-4 1h-6l-3-1h3l3-1c0-1 1-2 3-2h12l-3 2h3l4-1h3l3-2c2-3 6-4 8-1 2 4 1 7-2 8-2 1-1 1 3 1 5 0 7-1 4-3-2-2-2-4 0-5s2-1 2 2c0 4 1 5 4 5h3l-3-1c-3-1-3-2-3-6l1-5 1-1-2-1c-2 0-2 0-2 2 1 3 0 5-1 2l-4-3-1-1-1-2c-2-1 0-3 2-3l2-1c-1-1 0-1 1-1 2 0 2 0 1 1v2c2 1 4 1 3-2l7-1c11 0 15-2 11-5-2-2-2-2-2 0l1 1 1 1c0 2-6 1-7-1-1-4-4-5-3-2v3l-1 1-3-1v-2l-2-3v-2c2 0 1-3-1-3v-1l4 2 2 2 1-2c1-2 2-2 4-2h4l8-2h11c2 1 4 0 3-1l8-2h3c2-1 2-1-1-1l-4-1-2-2-5 1-3 2-1 1-1-1-2-1c-2 0-2 0-1 1 1 2 1 2-3 2h-4a98 98 0 01-27 0l-2-4-3-4c-15 2-34 7-36 9l1 1 4-1-3 2h-4c-3 2-11 3-14 3l-6 1-3 2v-2c2-1 2-1 0-1l3-1 13-5 11-3 2-1c-1-1 0-1 9-3a123 123 0 0016-3 83 83 0 0015-4l4-2 1-1c2-1 2-1 1-2l-2-1h-1l-1-1-1-1h-3l-3 1h-2l-3-1 1 2c3 2 1 4-5 4l-4 1c-3 1-4 0-3-1l1-2c0-1-4 0-6 2-1 2-2 1-1-2 1-2 0-2-3-4l-5-2c0 1-2 0-3-2-5-4-3 1 2 6l3 3-3-1c-1 0-4-1-5-3l-6-4c-5-3-7-5-6-6l-1-3c-1-1-1-1 1-1l8 1 18 3c9 1 16 2 46 2 23 1 26 1 26 3l6 1 6-1 8 1h3a137 137 0 0138-2h4l11 1h7l3 1 4 2 9 5c2 0-4-7-6-7h7a705 705 0 0044 2c2 3 11 6 9 2h3l-1 2c-2 2-3 3-1 2 1 0 2 0 1 2 0 2 6 5 7 4v-1c-4 0-4-2-3-3 2-2 4-2 7-1h4c1-1 1-1-1-1l-3-1h-4c-4 0-6-1-2-2 1-1 2-1 1-2l3-1c2 0 2 0 1 1-2 2-1 2 3 2h8c4 0 5 0 5-2l3-1c3 1 17-2 24-6l5-2v-9l1-15V0H0v9m393 29l-6 1c-7 0-8 0-5 1 2 1 0 1-6 1l-8 1 10 3c3 0 3 0 1 3-1 2-1 2 2 4l7 1 2 1h10v-4l-1-4h-2l2-2 1-2c0-3-4-6-5-4h-2m-69 13l-3 4c0 2-3 4-6 3-2 0-3 1-3 2 1 2-2 1-9-1-9-3-13-2-5 2l2 2c-2 0-2 0-1 3 2 2 2 2 0 2l-1 1h6c5 0 7 2 6 4l-3 2-2 1-11 1c-13 0-14 0-12 6 1 3 1 4-1 5l-1 1-3 3c-2 2-2 2-1 3v2l-2 1c-2 0-3 1-1 2 2 2-9 26-11 26s-3 3-2 3l1 2c-2 2-4-3-3-8l-1-4-1 1-8-1 1-3c3-3 2-3-2 1l-7 2h-4v10l-3-2-7-2h-4l2 2c3 1 3 3 0 3l-3-3-2-3-1 2c-1 2-1 2-3 0l-2-3-1-1c-2 0-3 0-3-3 1-3 4-4 7-1 2 2 7 4 6 2l-3-1-1-1-2-2c-3-1-6-4-6-6-1-2-2-2-13-2l-7 1h-4c-2 0-4 1-5 3-3 2-9 3-13 1h-8c-1-1-4-2-13-2h-12l-1-1-2-1 1-1 1-1c-1-1-6-1-6 1l-1 1c-1-1-7 1-6 2l-1 1-2-1-4-1c-3 1-4 0-2-2 1-1 1-1-1-1-1 0-2 1-1 2l-2 2-2-1-2-1c-2 0-3 0-2 2 0 1-1 1-3-1h-2l-4 1-2 1-1 1-1-3c0-2 0-3-2-3s-4 3-3 5v1c-2 0-3-6 0-6 1-1 1-1-1-1l-2 1-1 2-1 4 2 2h8l8-1h7l3 3c-2 0-1 2 2 2 2 0 2 0 1 1-2 0-3 1-3 2l-5 1c-8 0-13 1-14 2-3 2-8 3-10 1h-2l-3 1v1c2 1 1 2-6 2-5 1-5 1-5-2 0-2 0-3-2-3l-2 2c1 4-2 5-11 4l-8-1c-1-1 3-2 6-2l4-1c1-1 0-1-6-1s-7 0-6 2c0 1-1 1-4-1-2-2 0-3 4-2 2 0 3 0 5-2 1-1 3-2 7-2l5-1 3-1h8l4-1-6-1h-9l-10 2-8 1-2-1h-3c-2 3-7 3-5 0v-1l-3 1v3c3 4 1 4-3 0l-3-3h-3c-3 0-6 3-5 5l2-1c0-2 0-2 2 0 1 1 3 2 3 0v-1l2 1h1l1 1c0 1-7 2-8 1l-3 1c-1 1-3 2-5 1H0v11c0 9 0 10 1 8 2-3 2-3 3-2l6 2 5 1-4 1-5 1-4 1c-2 0-2 0-2 3v3h8l9 1c2 1-1 3-6 3-3 0-4 1-6 3-4 3-4 3-1 5 4 3 4 6 0 8l-4 1v18l5-1 9-1c7-2 10-2 9-1l-2 1c-2 0-2 0-1 1 2 1-1 5-5 5-3 1-8 5-6 6s-1 5-4 4l-3 1 1 1 1 1-2 1-2 2h4l4-1c-1 1-1 1 1 1 5-2 3 1-3 3-5 2-6 2-6 5 0 2 0 2 11 2 10 0 13-1 5-2l1-2 1-2 3-1h8v-1l-2-2 2-2 1-4c0-2-1-3-2-3l-1 1c1 3-10 7-13 5l-3-2c-2 0-2 0 0-1 1-1 2-1 1-3l2-1c2 1 2 1 2-1s3-3 3-1h2v-2l-1-1 3-2c2-1 2-1 1-2l-1-1h3c1-1 0-2-1-3s-1-2 2-2c3-1 4-2 2-3s0-3 4-3v1c-3 2 3 3 9 2 2-1 3 0 1 1l-1 3c1 1 6-2 5-3l2-1 1 1c-1 1 0 1 2 1 3 0 3 0 2 2-1 1-1 1 1 1s2 0 1 1-1 2 1 2c1 2 1 2-1 3v3c2 1 0 2-2 1h-3v1l1 1-6 1c-7 1-7 2-2 4 4 1 10 0 8-1v-1c3 0 4 5 2 7l-1 1 3 3 2 2 1 2c-1 1 0 1 2 1 3 0 3 0 2 1a1064 1064 0 0099 0c-5-1-5 0 4-4 2-1 2-1 1-2l-2-1c0-2-7-2-8 1-2 2-1 4 1 3h1l-2 2h-4v-1l-1-1c-1 1-4-1-2-2s0-3-6-4c-4-2-6-2-6-1h-1c1-2 0-2-2-1l-3-1-1-1v2l-3 1-5-1-3-2h-2c-2 1-1-2 1-3l3-1h-3c-1 1-2 0-2-1 0-2-1-2-6-2-9 0-11-1-7-3l5-1c3 0 5-2 3-3h-3l-4-1c-2 0-4-2-2-3h3l4 1v-2h3l2-1-2-2-1-1 3-1 4-1 1-1 1 1 2 1h9l-3-2c-2-3-2-3 0-3h1c0-2 3-2 5-1 1 2 2 1 1-1l1-2 3 1v3c1 0 2 0 1-1l5-1h6l2-1h3l1 1 1 1c5 0-3-5-8-6-5 0-6 0-3-1l3-1h-3l-3-1c0-1 1-2 2-1 2 1 1-1-2-3l-4-3h1c2 2 3 1 2-1l-2-1-3-1c-2-2-10-6-15-7l-5-3c-1-1-1-1-2 1l-2 2-2-1 1-1c0-2 0-2-2-2l-3-1h3c3 0 3 0 3-3-1-4 2-5 5-3 3 3 6 3 4 0v-1c2 1 2 0 2-1 0-2 0-2 1 0l3 3v-1h2l3 1c0 2 3-2 3-4l1-3 2-2c1-2 1-2 3-1h3c0-3 4 0 10 10h2c0-3 2-6 3-5s1 1 1-1c0-1 1-2 4-2 3-1 5 0 4 1l1 1c2 0 1 2-1 2-2 1-3 3-1 3s3 0 2 1v6h2l-2 1v2c2 0 2 1 1 1l-1 2c-1 0-1 1 0 0v4c2 1 3-1 2-5l2 1 3 4 2 3c2 1 4-3 2-7v-2l4 1c3 0 3 0 1-2l-3-1h-2c-1-2 0-3 2-2 3 0 2-1 0-3-2-1-2-2-1-2l1-1c-2-4 1-4 4-1l5 4 2 2-2 3v1c3 0 3 3 1 4-2 0-4 1-4 3l-4 2 1 1v1l-2 2h1l2-1 1-2c1-1 1-1 1 1v2l1-2c1-2 1-2 1 0l1 2 1 1 1 1 1-1h1c2 2 3 1 2-1h1l1 3c1 3 2 4 5 4 1 0 2-1 1-2l1-2 1-1c-1-2 0-2 2 0v1l-1 2c-1 1-1 1 0 0l1 1v2c3 2 1 5-3 7l-4 2 4 4 4 3v1c-2 2 0 3 8 2l6 1v1c-1 0-2 0-1 1l8 1 15 1c6 1 6 1 10-2 8-7 8-7 8-5-1 2 0 2 2 3l4 1c2 0 5-1 13-8 6-4 7-7 7-10s-2-5-2-3l-1 1c-2 0-1-2 2-3 3-2 6-2 5 1-1 2 7 2 12 0l5-2 3-2v-3l1 2c-1 2 4 4 7 4s7-5 4-5l-1-1 2-1-1-2c-2-3-2-4 1-2v-2c0-3 0-3 1-1 3 2 3 6 2 9v8c-2 3 0 9 3 12 2 2 2 2 0 4-1 1-2 1-3-3 0-2-1-3-2-3l-7-3c2-1-1-3-4-3-4 0-3 1 2 4 4 2 8 5 10 9l2 1 2 1 2 4c2 1 3 4 1 3h-1l-1-1-4-3c-4-1-4-1-3-2v-1l-4-2c-2-2-4-2-4 1 0 2 0 2 1 1 2-3 2 0 1 3-2 4-2 7-1 7l5 11c-1 1 0 2 1 2 2 0 7 4 7 6l32 1c32 0 32 0 11-1a177 177 0 01-21-2v-1c-1-2-4-3-4-1s-2 1-7-1c-5-3-5-6 1-6 1 0 2 0 1-2h6c1 0 2 0 1-1-2 0-1-2 1-2 1 1 1 1 0 0-4-1 2-5 6-4l1-1 2-2 1 1 3 2h2l-1-2-2-1h1l1-1h2c3 0 3 0-2-5-2-2-3-3-3 0v1l-1-2-3-3-1-2-1-2-1-3h9c2 0 2 0-2-3-4-4-5-5-5-2 1 2-2 4-3 2l-2-1c-1 0-8-5-14-11-1-1-1-1 1-1s3 1 3 2l1 1 3 1 3 2h2c-1-2-1-2 1-2l3 1h1l1 1c-1 1 4 2 7 2h3l1 2c-1 1 0 2 2 3l3 3 1 1h1l-1 3c-2 1 0 2 3 1 2 0 3 0 2 1l2 1a55 55 0 0110-2c2 0 3 0 3 3v-12c0-15 0-15-2-15l-3-1h-2l-6-3c-5-4-7-5-5-2 2 2 2 2 0 2-1 1-2 0-2-1l-1-1-1 3c1 3 1 3-2 3h-5c-2 0-1-2 1-2 1 0 1-1-1-2l-4-1h-3c-1-1-1-1-1 1 1 3 1 3-1 3s-2-2 0-5c2-2-2-2-5 1-2 1-2 1 0 3v3c0 1-1 1-1-1-1-2-1-2-2-1-2 1-3 1-3-1l-2 1c-2 1-2 1-2-1l2-2c1 0 2 0 1-1l-1-2-1 1-2 1-1-1v-5l1-1v-1l1-2-2-1c-1 1-2 0-2-1l-2-2c-2-2-2-2-1-3 2-2 2-2 2 0h2c1-1 2-2 3-1s1 1-1 1l-1 2 3-1c3-2 4-2 4 1 0 2 0 2 2 1 3 0 5-2 5-3h-3c-1-2 0-5 2-5h1c1-1-4-3-8-2-4 0-10-3-10-6 0-2-1-2-2 0v2l-4-4 2-1c2-1-3-3-7-3-1 0-2 0-1 1 1 0 1 1-1 1-1 2-1 2 2 2l3 2-6 3 2-2c2 0 2 0 1-1-2-2-5-1-7 1l-2 1c-1-1-1-1-3 1-1 1-2 2-3 0-1-1-1-1 1-1l2-1 2-1c2 0 2 0 1-1-2-1 0-3 3-2 3 0 3 0 2-1l-3-1c-2 0-2 0-1-3l4-2c1 0 2 0 1-1h-2c-2 0-2 0-1-1l-1-1h-2l-2-1c-1 0-2 0-1 1l-4 1c-3 0-3 0-2-1l2-2 2-4 2-4c4 0 7 0 8 2h2l1-1v-4c-2-2 3-1 11 1 5 1 7 2 7 3l5 3c5 2 6 1 4-1v-2l1-1 3-1 4-1h5l5-1 2 1v1h1l1 1-2 1c-2 1 0 2 3 1 3 0 4-1 4-2l-1-2-1-2c0-1 1-2 3-2s2 0 1 1v2c1 1 2 2 1 3l2 1v-1c-1-1-1-1 1-1 1 0 2-1 2-3l1-1 4 1c-1 1 0 1 1 1l1-1v-1c2 0 3-19 1-19h-6a640 640 0 00-61-4h-11l2-3 1-5c0-2 2-2 17-2 9 0 11-1 7-3-2-1-1-2 4-3 5 0 7-1 2-1-6 0-10-1-13-3-5-4-5-2-1 2 6 5 6 6 0 3-4-3-5-4-4-2 0 1-1 1-4-1s-3-1-2-6v-4l-1-1v-2c-1 0-2 0-5 3m58 7l6 2h1c1 1-4 2-10 2-3 0-4 0-5 2l-1 2-5 1 12 1 13 1h7c-1-1-4-2-12-2l-12-1c-2-1 5-3 8-2h4l2 1 5 1 4-1 1-2v-3c0-2 1-2-11-2h-7m-221 9l2 1 2 3c1 3 3 4 5 4 2 1 2 1-1 1-4 0-4 0-5 3-2 3 0 7 2 7l9 6-3 1c-5 1-3 2 4 1 6 0 9-2 4-2-3 0-5-2-3-2v-1h-4c-3-3-2-4 5-3 6 1 13 0 15-2l4-1c4 0 1-1-2-2-4 0-4 0-4 2v3l-1-3-3-2-1-1v-1c-1-1-1-1 1-1l3 1h1c1-2 22-3 22-1l1 1h3c3 2 12 1 10-1h-8c-3 0-5-3-2-3l1 1c0 1 3 2 4 1l10-1c10 0 12 1 2 1-4 0-6 0-5 1h10c12-1 13-2 5-2-7-1-7-3-1-3h14a356 356 0 0032-5l-17 1-13 1a664 664 0 01-83 6l-2-1-2-1-2-2c0-2-5-6-8-6-1 0-2 0-1 1m12 30l-2 2-4 1c-2 0-2 0 0 1l2 1 2 1 1-1h6c1 1-10 7-13 7l-1 1c1 1 13-3 15-6l5-2a366 366 0 008-1h1l-2-3h-3c-2-1-12-2-15-1M12 108c-5 5-7 7-9 7-3 0-3 0-3 5 0 3 1 5 2 5 2 1 4-1 3-3l1-1 1-1H3l4-2c3 0 7-3 5-4l3-5c7-8 4-8-3-1m264-5l-2 5a1417 1417 0 00-13 30c2 2 3 3 5 3l5 1h-2c-7 0-6 2 2 4l5 1c-10 6-15 8-16 7-1-2-14-4-18-4-2 1-2 1-1 2v1l-4 2c-2 2-3 1-3-1 1-2 0-2-7-2l-9-1c-3-2-4 1-4 7-1 6 0 7 4 7l2-1h1c1 1 1 1 4-1l4-1c0 2 1 2 7 4 3 0 3 0 2 2s-1 2 2 1l3-3v-2l1 5c0 1 2 2 10 3 7 0 10-1 10-5l1-4c1-1 1-1 1 2-1 4-1 4 11-4 9-6 10-7 10-10v-4l-2 2-4 1 3-3c7-4 4-7-3-3-4 2-5 3-5 1l-1-1c-1-1-1-1 2-1l4-1-4-1c-6-1-8-3-6-4h1l2 1c1 0 1-2-1-5h-1v2l-1-2c0-3 0-4-2-4-3 1-3 1 0-3 3-3 5-9 4-10v-1c2-1 5-12 4-13l-1 1m24 2c-4 3-4 3-4 8l1 5-1-5c-2-4-2-4-3-2-2 3 0 7 4 7 4 1 3 2 6-7 4-11 4-11-3-6m55 11l4 2 4 1-2 1h-8l-3-1c-3 0-3 0-2-1v-2h-19c-6-1-7-1 6 2l4 1h2l3 1 10 2c3 2 7 2 10 0l2 1-2 2c-2 1-2 1 0 1 6 1 6 0 6-1h4c1-2 1-2 3 0l3 1h1l1 1h2c1 2 7 3 10 1l4-1c1 1 2 0 2-1l-1-1v-1c2-2 1-4-2-4l-3 1 2 1 1 1-3 1-1-1c1-1 0-1-11-2l-8-1-1-1v-1l-2-1h-3c-1-1 0-2 1-2 1-1-2-1-6-1-6 0-8 1-8 2m-38 20l-3 2 1 2c1 3 3 4 3 2 0-3 2-2 3 0l3 2 3 1h-6c-2-1-2-1 0 1l7 2h7v-2l2-2v-3c1-1 1-2-1-2h-4c2 2 0 4-3 4s-5-2-5-4c1-1 0-1-2-1l-3-1c0-2-1-2-2-1m-272 6c-10 0-12 0-12 2l-4 1c-3 0-3 0-2 2 2 2 18 3 20 1l5-1c3-1 10-6 7-6l-14 1m26 65c-3 3-4 8-2 10h1l3 2 3 2 1 1c1 1 1 1 1-1l1-3 1 1v2l1-1 1-1h4c2-1 2 3 0 4s4 1 12 1c7 0 13 0 12-1-2 0 1-3 3-2l2-1-1-1-1-1c0-1-9-2-11-1l2 1 2 1h-1l-2 1c-1 2-3 0-2-2 0-2-1-2-3-2-3 0-4-1 0-1l2-2-1-1c-1 1-6-1-6-2 0-2-7-1-9 1-1 1-5 1-4-1l-1-2h-1l-2 3-2 1v-4c2-3-1-3-3-1" fill="#d3d3d3" fill-rule="evenodd"/></svg>