<svg xmlns="http://www.w3.org/2000/svg" width="400" height="225"><path d="M0 12v12l3 1c3 1 13 10 12 11v2l1 2v5l-1 4c1 4 1 4-1 4-1 0-2 0-1 1 2 0 1 2-1 2l-3 1 1 1c2 0 2 0 0 2l-2 1-2-1-3-1H1L0 70v12h17l1-4 3-5 1-7v-8l1 4c0 1 1 2 3 2 3 1 5 1 5-1s2-3 5-4l9-4c0-3 6-9 8-9 2 1 3 0 4-2 2-4 8-7 14-6 7 0 12 1 13 3l2 1 3 3 3 4c3 4 2 9-2 12l-1 1c2 0 2 1 0 2l-1 4-4 4a740 740 0 00-9 6c-2 0-3 4-4 10-1 5-3 9-4 9l-5 5h-1l-2-1v1l1 3h-1c-1-1-8-2-10 0l-2 3c-1 1-1 2-6 1l-10-2c-7-1-7-1-8-6 0-6 0-6-11-5l-9 2-1 3-1 3-1 57 1 58h10c3-1 4 2 1 4-1 2-1 2 4 2 7 0 9-1 5-3s-5-3-3-4l55-10c2 0 2 10 0 13-1 3-1 3-6 3h-8l168 1h173V85l-4 2h-3c-1-1-2-2-3-1l-2-1-3-1 1 2 2 3h-2l-3-1h-2l-2 1-1 2c0 1-2 2-2 0l-5-1c0 1-6 4-7 3l-6 3c-1 2-7 2-7 1l1-1c2 0 3-3 2-4l-1 1-3 2-1 2-2 1 1-2v-2l-1 1-2 1v-1l-1-1h-2c0-1-1-2-2-1v3c-1 0-1 1 1 2l3 1-3 1c-2 2-2 2 0 2 2-1 4 2 2 3l-1 4c0 3 0 4-2 4s-2 0 0-2c1-1 1-1-1-1h-3l-1-1-2-2c0-2-2-3-3-1-1 1 0 5 2 5 1-1 1 0 1 1l1 1c2 0 3 1 3 2 0 2 0 2-1 1l-3-1h-3l-1-1c-2-1-5 0-5 1l1 1-1 1h-13l5-1h5l1-2v-1l-9 1c0 1-2 0-3-2-2-2-1-3 2-1h4l7-1c1 0 2-1 2-4l-1-3a261 261 0 01-10 6c0 1-1 1-2-1v-1c1 1 2 0 2-1l2-1 2-1 3-2 3-1-1-1v-2l-3 1h-4v2c2 0 1 2-1 2l-1-1c2-2-5-2-7 0l-3 1-1 1-2 1c-3 0-3-4 0-7l3-4h5c3-1 3-1 3 1l-1 1 1 1c2 2 3 1 5-1l3-3 1-1v-1l1 2-1 2-2 1h3l4-2 1-2 1-2c0-2-1-3-2-3v1c1 2 1 2-1 3-1 1-2 1-2-3 0-3 1-4 2-4l1 1h1l3 1h2l2-1 1-1 2-1v4c-2 3 5 2 7-1l3-2c1 1 2 0 3-1v-2h-3l-2 1c-1 1-1 1-3-1l-2-1-3 1c-2 0-1-2 1-3l4-2v-2c1-3 3-4 3-1l2 1 1-1 1-1 2 6 1 2c1-1 3 2 2 2-1 2 3 3 6 1 4-2 4-5 0-4h-6v-1c2-2 1-4 0-4-3 1-2 0 2-4l3-5-6 3h-1l-4-1v-1c0-2-2-1-3 1-1 1-7 1-8-1l-2-1-3-1-1-2 1-1c0-3 3-4 6-3 4 2 5 2 3 0s-2-2-1-3c2-1 2-2 1-2v-2c0-2-7-1-10 1-1 1-1 1-1-1 1-2 1-2-2 1l-4 3-1 1h3l2-1h2c2 2 1 4-3 7-3 3-4 4-3 5s1 1-2 1-3 0-1-2v-2l-2-2c-2-1-4 1-3 3l-1 1-3 4c-1 3-1 3-2 1 0-2-3-4-3-2l-1 1-3 1c-2 2-2 2-3 0-2-2-5-4-5-2v2l-1 1v1h-7l1 1h1l1 2 2 3c-2 2-3 1-2-1l-3 1-3 3 2-1h2l-2 2-3 3h1c3-2 7 0 8 3 1 5 3 5 2 0v-3l1 2c2 3 2 3 2 1 1-1 1-1 2 1v2l-1 3c-1 3-6 7-7 5h-4c-3 1-4 0-1-2 2-1 2-5 0-5l-1 1-1-1c-1-3-3-4-3-1-1 1 0 2 3 3l-1 2-1 2h-1c-2-3-5 2-4 5 0 2 0 2-1 1l-2-3-1-2-1 2h-1l-1-2c1-2-1-2-2 1l-3 2-3 1-2 1c-3-1-3-1-3 1 0 1-1 2-2 1l-4 1h-3c-2-1-5 0-5 1 0 3 6 6 8 3 2-2 5-2 4 1v1l1 1c-1 1 0 1 1 1 4 0 4-2 1-2l-2-1h2c1 0 2 0 1-1l1-2 1 1v1c2 0 1 3-1 4l-4 2-3 1-4 2c-3 0-4-1-3-2l-1-2-1-1c1-1 0-2-1-2h-2l-1-3c0-2 0-3-2-3l-1-3c1-1 0-2-1-2v-1c0-3 2-2 2 0l2-1c3-3 3-3 3 1v2l2-1 1-2c1-1 1-1 1 1h3l1 1c2-2 1-3-1-3l-2-2h2c2 1 4-1 2-2s-3-3 0-2l1-1c0-1 1-2 5-2l4 1 2 1 1 1c-1 1 0 2 1 2 2 1 2 1 1-1v-3l2-3 3 2c2 1 2 2 1 2l-2 2h5l1-3c0-2 0-2 2-2 1 1 1 1 1-2l2-3v-3c-1-2-1-3 1-4 2-2-1-1-3 1h-4l-3 1c-3 3-6 3-7 0 0-3 1-6 3-5l2-1c0-1-11-2-12-1l-2 1c-1-1-3 0-4 2l-3 3-1-3c0-2-1-3-2-2-2 0-2 0-2-2 0-3-1-2-2 1l-1 2-1 2-1 1-1-1h-4l-2-2v-2l-1-2-1-2 2-2 4-1 1 1-1 4 3-4c0-3 2-4 2-1l1 1h3c1-1 7 0 11 2 2 1 3 0 3-2l-1-1c-3 0-2-1 0-3 1-1 2-2 3-1l1 1 4 1c2 2 3 2 3 1 0-2 5-6 6-6v1l-1 2-3 1v2c2 0 2 2 2 5h4l2-2c1-2 8-7 10-7l-1 1v7l3 2c1 0 2 0 1-1-3 0-2-1 0-4l3-4-3-6-1-1 2-1 1 1 2 3c1 1 1 1 1-1v-3l2-4c1-4 2-5 3-4v1l2 1c1 0 2 0 1 1l1 1c1-1 1 2-1 7v2l2-2 1-2c2 0 6-4 5-5l1-1c2 0 2-1 2-7 0-3 0-3 1-2 0 2 1 2 2 0l1-3-1-3 2 2c1 3 4 4 4 2l-1-1c-3 0-3-4-1-9l5-11 2-6-1 4c-1 5-1 5 1 5 1-1 1 0 1 1l1 2 1-2c-1-3 11-6 13-3 2 1 0 7-3 7l-2-1v-1l-2-2-2 2 1 1c2-2 3 3 2 6v2l-5 1-2 2-3 3c-3 1-3 4 0 4l2 2-1 1-1-1-1-1c-3 0-2 2 0 2l1 2 3 1c5 0 5 0 4-2v-2l1 2 4 3c3 1 3 1 3 3-1 4 2 5 4 2 1-2 2-2 3-1h1l1-1v3l2 1c2 0 3-1 1-3-2-1-1-4 1-4l1-1-1-1h-2c0-2 0-3 1-2l2-2 2-2h1v2l1-1c0-1 1-2 3-2 2-2 3-3 0-2l-3-1c-1-1-3-2-4-1l-2-1v-1l3-2c3-4 6-3 4 2v2l2-1c2-4 6 0 5 3h3l1-1v-1l2-2 1-3 2-1c1-1 4-2 4 0v2c1 0 1 1-1 1l-2 2c0 2-1 2-3 2h-2c1 2 6 1 8-1 1-2 4-3 4-1l-7 9c-1 1-2 0-3-1s-2-2-4-1c-3 0-4 2-2 2l1 1c-1 3 1 4 3 3h1l-1 3-1 1h-1l-1 1-3 3v3l2-1 1-2v1l1 3c2 1 2 1 0 3s-3 3-2 4c0 2-2 3-2 1h-2c-2 2-2 2-1 3 2 1 2 2 0 4-1 2 0 4 3 2 1-1 1-1 2 1 0 3 3 3 3 0l-1-3c-1 0-2-1-2-3s0-3 4-3l8-1c3 0 5 1 1 2-1 1 0 1 2 1 3 0 4 1 1 3-2 0-2 1 0 2 1 1 1 1 3-1s7-3 8-1l-2 2-3 2-2 1-2 2c-1 2-1 2 1 2l2-1h1c3 1 5 0 3-2v-2c1-1 2-1 2 1 1 1 1-3 1-9 0-13-1-14-4-15-1 0-2 1-2 5-1 5-5 11-5 8l-1-1c-3 0-3-3-1-5l2-3 2-2 1-1 2-2 3-5 1-6 2-22V0H0v12m318 4l-1 2-1 1c0 3-3 4-20 7-14 3-16 4-18 7-2 2-2 2-3 0 0-3-3-3-5-1-3 2-6 1-5-2 0-4-2-5-4-2v2l1-1c1-1 1-1 1 1l-1 3-1-1h-5l1 1 1 3-1 3c-1-1-1 0-1 2l-2 2c-1 1-1 1 3 1h3l-8 1h-3c-2-1-5 1-4 3 2 3-11 10-14 8-1-2-5 0-7 5l-4 5v-4c-1-2-4 1-5 4 0 4-5 7-7 4h-1l-2 2 2-6 1-3 2 3 1 2 2-3c1-3 2-4 4-5 3 0 4-3 1-3l-2 1-2 1c-2-1-3 0-4 1s-1 1-1-2l2-4c1-1 1-1-1-3-2-3-5-1-5 3l-1 6-2 2v-2c0-2-1-2-2-2h-7c0-2-2-3-4 0v1l1 1h-4c-3 0-6 3-6 6l-2-2c-2-4-1-6 3-9 3-3 3-4-1-4-5 1-5 1-3 3v2c-2-1-4 1-3 2l-1 1c-1 0-1 1 1 2 2 2 2 2 1 3h-6l1-1 1-1-6-2h-4l3 2c3 1 4 3 1 2h-1l-2 2c-2 1-3 0-4-1-1-2-1-2-3 2-2 5-2 7 0 6l1-2c0-2 3-3 4-3l-1 3c-1 1 0 2 1 4s2 2 1-1l4-5-1 6 1 1h1l-1 2c-3 0-7 6-7 10 0 3-2 5-4 5l-2 1c0 3 6 0 7-5 3-6 13-10 15-7h1c-1-1 0-2 3-3l3-2h1l1 1v1c2 1-4 4-6 4l-3 1c0 1-1 1-2-1h-3l-3 2 2 3c2 3 2 4 0 5l-1 2 2-1 7-2-3 2-2 2-1 3h-2c-1-2-4 0-3 3h2c1-2 3 0 4 4l-1 2-1-2c0-2-1-2-3-2s-3 0-2 1l1 1 1 1v1l-1 1h3v1l1 2h3c1 1 7 6 6 7h8c0-1-1-7-2-5h-7c-1-1-1-1 1-3v-2l1-1c1-1 1-1 1 3l1 1 1-6-1-2 2-2 1-2c1-2 1-2 2-1s3 2 4 1l1 2c-1 3-1 3 1 3 2-1 2-1 0 4-2 4-3 6-1 5v2c0 2 0 2 1 1 2-2 3-1 3 1-1 3 1 3 2 0l1-1h1v-2l-1-1 1-3 3-1 2-2c0-2-2-1-5 2l-2 2v-8l2-4c2-2 2-2 0-3-3-2-5-3-5-1 1 1-2 2-4 1h-4c-2 0-2-1 0-3 1-1 1-1-1-2l-2-3-1-1-2-1h1l1-2c-1-2 0-4 1-2h3l1 2c-1 3 1 4 2 1l2 1h1l1-2 1-2c-1-4 1-5 2-1 1 3 1 3 4 1l2-3 5-1 3-1h1c0 3 2 2 3 0v-5c0-1 1-2 2-1l3-1c1-1 2-2 4-1l-1 1c-2 0-2 1-2 3l-1 2-4 5-2 4 3 1c2 0 3 3 0 3v1c1 2-4 1-6-1s-5-1-7 3l-2 3-1 1c0 1 5 0 10-3l4-1-1 2c-2 0-1 2 1 2s1 1-2 2c-3 0-9 2-11 4-4 2-1 2 3 0l10-2 2-1h2v-1c-2-1-2-2-1-2l3 2c2 2 2 2 3 1v-2c-1 0-1-1 1-2 1-2 1-2-1-2l-2-1h6l-1-1 1-2c1-2 1-2 1 0-1 2 1 3 3 0 2-2 1-4-1-4s-2 0-1-1l1-2h-2l-4 1-4 2c-2 2-2 1 0-3 2-5 4-6 6-4s4 1 3-2l-1-4v-1l-1-2c1-1 1-1-1-1-4 2-4-2-1-4l3-4h1v2c0 2 2 3 2 1h2l2 1-1-2 1-2c2-1 2-1 2 1 0 3 0 3 3 2l4-2c0-2 2-1 2 1 0 3 2 3 3 1l1-3-1-1c0-1 2-2 5-2 3-1 4 0 2 2l-1 2c1 0 4-1 5-3l1-2c1 1 2-1 2-3l2-4c1-3 1-5-1-4-3 0-2-3 0-6l2-4 1-1c1 0 2 2 1 4v4l1 2v1l2 1-1 1c-3 0-4 3-2 3v1l-2 1 3 1h4c1 1 1 1 2-1 0-1 1-2 3-2l2-2-2-1c-3 2-4-1-1-4 2-2 3-4 3-7 1-4 2-7 2-4 0 2 1 2 2 2 1-1 1-1 1 1-1 1-1 1 1 1 3-2 8-2 8-1l1 1 1-2c-1-2 0-3 1-3l2-1c0-1 1-1 2 1 2 1 2 1 1 3l-2 2c1 1 0 1-1 2l-3 3 1 1c1-2 5-4 6-4h1c1-1 0-1-1-2l-2-1h2c1 0 2 0 1-1l1-2 1 1c0 2 2 4 4 3 1-1 1-1-1-1-2-1-2-1-2-3v-3l-1-2c-1-1 4-2 5-1l2 1c2 0 3 2 3 6 0 2 0 2 2 1l1-3 2-4c2-3 2-4-1-5-1-1-1-1 1-1 3 0 6-4 4-4-1-1-2 0-2 1l-2 1v-1l-1-1-1-1h-1m29 13l-6 5c-4 2-5 3-5 5l-1 2v1c1 2 7 0 7-2s1-2 3-1c3 2 3 2 4 0 3-3 3-6 1-7l-2-3h-1m-104 5c0 3-3 4-13 6s-15 5-10 5c4 0 4 0 1 4-4 4-4 5 0 4 1-1 3-2 4-1v1l-1 1h4c2-2 2-2 0-2s-2 0-1-1c1 0 1-1-1-2-2-3-3-5 0-5 2-1 2-1 2 1-1 2 4 5 6 4h1c0 2 2 3 3 0h2l2-1c-1-2-1-2-5-1-2 1-3-2 0-2l1-3v-1c2 2 2 2 5 1 3-2 4-2 5 0 1 1 1 1 1-1v-2c2 1 3 0 2-2h-3c-1 0-2 0-2-2-1-3-3-4-3-1m148 3l-2 2c-1 1-2 2-2 5l-2 5v2l2 2c0 3-3 4-7 3h-3v1l1 1c0 1 1 2 2 1l1 1-2 2c-3 0-3 3-1 5l2 1c2-6 5-9 7-9l2-1c-1-1 0-2 1-3v-5c-1-2 0-5 3-5l1-2c1-2 1-2-1-2l-1-3v-3l-1 2M116 67c-3 2 1 9 4 7 1-1 1-1 1 1-1 1 0 4 1 7l1 4c0-4 2 0 2 4s0 4 2 4h3c0-4 3-3 3 1 0 2 0 3 1 2l1-3c3-3 4-8 2-10l-2-5c0-3-1-4-4-5l-4-3h-3l-4-2-3-2h-1m269 25l-4 1-3 1-1 1c-2-1-3 1-1 3v1l-1-1h-15l-4 1c-3 0-4 1-4 3s0 2 1 1c2-1 2-1 3 1l2 1c0-2 1-3 6-4 3-1 7 0 3 1l-3 4-3 3-2 1-2 2-1-1c2-2-1-2-3 0-3 2-3 7 0 6s3-1 2 1l-3 1c-2 0-2 0-1 2 1 1 1 1-1 1l-3-2h-3c-1 1-3 2-4 1-4 0-7-1-7-2 1-1-3-2-4-1v2l4 2v2h-2l-5 3-4 1h4l5-1-3 2-3 1-3 2-2 2-3 1c-2 1-2 1 2 1l5-1c0-2 4-1 4 1 1 2 1 2-1 1h-13v1c1 1 2 2 1 3v1c1-1 2 0 2 1h3v-3l4-1v1c-2 1-2 1 0 2 1 1 1 1-1 1s-2 0-1 2c1 1 0 2-2 3l-4 8 3-3c1-2 1-2 1 0-1 2 0 3 2 1h6l-3-2c-4-1-4-1-2-3s3-2 3 0h1v-3l2-1h3l2-1c2 0 7-5 6-7-2-1-3-1-5 1-1 1-3 2-2 0l-1-1c-2 0 0-2 2-2s2 0 1-1l-1-1 7 1h3l2-2-1-2h9c1 1 2 1 3-1h1c0 2 1 1 3-2 3-3 4-3 3 1l-1 3 4-2 2-1 2-2h-2l-2-1-1-2c-6 0-4-7 2-8h5v-2c0-1-1-2-3-2s-2 0 0-1c1-1 1-1-1-2s-2-1-1-2l3 1 2 1v-2h-1l-1-2 2-1 7-2 3-1 3-2c0-1 1-2 3-2l3-1-3-2-1-1h-3m-143 38v3h2l3 1c2-1 2 0 2 1s0 2 1 1l2 1h6c2 0 2 0 2 2-1 3 0 5 3 4 1-1 1-1-1-2v-2c3 0 2-2 0-2s-2 0-1-1c2-2 2-2 0-2-1-1-2 0-3 1s-1 1-2-1l-2-1-1-1c0-1-1-2-3-2h-8m109 3l-2 1c0 2-3 4-5 4l-1 1c-1 2 0 2 1 2 5-2 7-2 6-1l-1 1v1l-1 3c0 1 1 1 2-1l5-2h3v2l1 1c-1 1 0 1 1 1l3-1c0-1 1-2 3-2 2-1 4-4 3-5l-2 1c-2 2-4 3-3 1l-3-1c-6 0-12-3-8-5l1-1h-3m-218 9c-3 1-3 1-3 8 0 5 0 7 1 6 1-2 1-2 3 0 2 3 1 5-2 4-2 0-2 0-2 6h5c5 0 5 0 5 3s0 3-7 3l-10 2h-3v-28h3l5-1c1-1 0-1-4-1-4 1-6 0-7-1-3-1-24-2-26 0l-1 1-2 1h-2c-5-4-16-1-19 5l-4 3v5l1 5 4-3c2-1 3-4 5-7l1-5h13l-1 3-3 5c-1 4-1 4 4 5h4v-14h8l13-1h5l-1 3v3h-14v6h7c6 0 6 0 6 3l-2 2c-3 0-3 1 1 4l2 4 3 4 3 3 6-2c20-4 24-5 18-5h-3l1-10v-10h-4c-3 0-4 0-3-3v-3h11c13-1 12-1 11 2 0 2-1 3-3 3s-3 1-3 10l-1 11c-2 1 5 2 9 0 3-1 2-1-3-1-3 0-3 0 3-14 5-11 5-12 8-12 5 0 7-1 5-2-1-2-11-2-14 0-1 1-2 0-3-1-3-2-19-1-24 1m-89 3c-2 1-3 3-3 5l5 18v1c0 2 4 8 7 11 3 2 4 2 9 1l6-1H57l-6-15-7-16 3-1c6 1 11 0 11-1h-1l-3-1c-1-2-7-2-10-1m269 3c-2 2-2 2-3 1h-2l-2 1c-3 0-5 1-4 3h-1c-3-3-6-2-10 2l-4 4c1 1 6-2 7-4l2-2v4c2 2 2 3 1 3-2 0-2 2-1 2 1 1 0 1-1 1-2 0-2 0-1 2l1 2 1-2c1-2 3-3 4-1l-1 3-2 2c0 1 2 0 3-2 2-1 10-4 11-3l3-3 1-3-4 3c1 1-5 2-7 1l-1-2h-2c-3 3-1-2 2-5 2-3 3-3 4-2s1 1 4-1l4-1 1-1v-5l-3 3m-130 41l-5 1c-5 1-5 3 0 4 4 0 9 2 10 4v13h3l4-1-1-1c-1-1-2-2-1-3h1l1-1 1-6v-6l-4-1-3-2-6-1" fill="#d3d3d3" fill-rule="evenodd"/></svg>