<svg xmlns="http://www.w3.org/2000/svg" width="400" height="225"><path d="M0 28v27l6 10 12 19a182 182 0 0129 57c2-2 3-1 4 3l2 6c3 4 4 5 3 17-1 4-2 6-4 5l-2 1c-2 1-8-2-9-5 0-1-1-4-3-5l-2-6c1-3 0-4-1-5l-4-6-5-6-1-2-4-5-6-8-4-7c-2-4-7-12-9-19 0-3-1-5-2-5a213 213 0 002 37c4-6 19 2 17 9-1 3-9 11-9 8l-2 1c-4 5-4 6-3 3 0-4 0-4-3 0-2 4-2 5-2 38v35h53a1054 1054 0 0041-2l3-5c1-4 1-4-1-5-2 0-4-2-5-4l-2-1-1 1-1-2h1l1-1 4 1 5 1 2-3c2-2 5-9 7-18a81 81 0 016-19c3-9 4-12 9-21l4-11c0-2 4-9 6-10a1270 1270 0 00-29-92c2-2 3-2 6-2s4 1 5 5l9 20a386 386 0 0121 38l8 15a1110 1110 0 0140 71c3 0 8-8 13-17s6-10 10-7c3 2 3 2 2 4l-5 7-4 4c-3 0-12 10-12 12l-1 4a7244 7244 0 01-12 36c-1 1 0 1 2 1 4 0 4 0 4-3 0-4 5-12 11-19l6-7c1-3 3-4 3-2l1 1c2 0 9 6 9 8l14 16c5 4 5 5 2 5-1 1 7 1 17 1h18l3-6c3-5 4-6 8-6 4-1 5-2 5-3s1-2 5-3l6-1c-3 2-4 3-2 6 1 1 1 1 1-1 0-3 3-4 5-1l2 1h2l1-1c0-1 1-2 2-1l1-2 1-2 4-6c3-6 3-7 5-6s2 1 5-7c4-9 5-25 2-25-1 0-3-1-4-4l-3-5c-1-1-1-1 2-3 4-3 4-3 6-1 4 3 12 16 12 19 0 5-8 22-13 29-7 10-11 18-12 24l-1 5h88v-66l-1-58c-1 12-1 13-3 14l-1-1h-1l-1-1v-1h-1l-2 4c-2 3-2 4-1 7v1l-1 3 1 2v1l-1 4c1 1 0 3-1 4h-2l-6-3c-7 0-7-1-9-5-1-3-3-6-8-9l-5-3-5-4-5-3c-2-2-2-2-3-1h-2l-2-2c-3 0-7-5-5-6v-2c-3-1-4-3-3-5 0-3 1-3 2-3 2 1 2 0 1-1v-3l-1-2v-6c2-6 2-6 19-28 5-7 31-23 35-21l6 6c4 5 5 6 5 12l1-21V0H0v28m254 34c-1 0-2 1-1 2l-1 2c-1 1 0 2 2 2 3 1 4 3 2 3v21h-2l-1-2v3l1 5c-1 1 0 3 2 5l2 5v1l4 2 3 3 3-2c6-3 7-6 4-8s-3-10-1-13 3-8 1-10l-2-5c-1-6-5-11-10-14h-6m-17 13c-3 3-1 26 2 24 1-1 1 0 2 9 0 7 2 10 5 10 1 0 2 1 2 3 1 2 1-1 1-7 0-8-1-11-2-10-1 2-4 1-4-2l-1-2v-2c3-2 3-8 0-8l-2 2c-1 2-1 2-2 0-1-4 0-11 2-12 1-1 1-1 1 3-1 4-1 4 1 2s3-4 1-4v-2c2-2 1-3-1-2h-4l1-2v-2l-2 2M56 128l-1 4v3l1 2 1 2 1 1c0 1 1 2 5 1 4 0 5 0 6-3 2-3 2-4 1-5l-2-1-2-3c-1-2-2-2-2-1l-2 2v-1l-1-2-1 1h-4m300 3h-2c-2 0-7 6-7 8l2 4c2 3 3 4 8 4l5-1 2-3 2-4c0-2-4-8-6-8h-4m-216 18l-4 10-6 14-6 12-5 9-2 5-2 3c-2 2-3 11-2 18 1 3 1 4-1 4a306 306 0 0052 0l-8-25v-10c2 0 2-6-1-10l-2-6-9-18-2-5-1-3-1 2m149 61c-2 1-3 6-1 11 1 4 1 4 5 4s5 0 3-7c-1-6-5-9-7-8" fill="#d3d3d3" fill-rule="evenodd"/></svg>