<svg xmlns="http://www.w3.org/2000/svg" width="400" height="225"><path d="M0 107l1 105 4-30 3-14a727 727 0 00-8 55v2h241l-4-4-8-6c-5-3-4-4 2-4 6 1 6 1 13 10l3 4h29a348 348 0 0024-2l7 1 47 1h47v-32l-1-32-2-6c0-7-1-8-6-6l-3 3h2c1-1 3 2 3 6s1 6 4 6 3 3-1 4l-2 1 2 1c4 1 3 2-1 1-3-1-3-1-2 2l-1 4c-1 1-2-10-2-13 2-5-6-12-16-15-2-1-2-1-1-2 1-2-1-4-5-4-2 0-5-4-4-6l-1-2-8-7c-7-6-8-7-10-6-5 0-5 0-1 5 4 3 7 9 7 12l3 4c1 2 2 3 1 4 0 2-7 7-11 8l-3 3v3l-3-3c-2-2-3-3-5-3-5 0-5 1-2 4l2 8 1 5c2 0 1 2 0 1-1 0-2-1-2-3 0-8-6-13-13-13-4 0-10 5-10 8v3l-2-3c-1-2-4-3-7-1-2 1-2 1 1 3s6 7 6 10l-2-3c-2-4-5-7-9-7-1 0-2 0-1-1 2 0 1-4-1-6-1-2-3-2-8-2-8 0-9 1-10 4-1 2-1 2-2 1-1-3-6-5-8-2 0 1 1 4 2 3l7 2h-3c-4 0-6 1-6 4v2c-2 0-2-1-2-5 0-10-11-14-18-6l-3 3v-3c1-3 3-6 3-4l4-1 3-3 3-6 2-1c2-3 3-3 3 2 2 6 4 4 4-3 0-6 0-7-2-6v2h-12l-2 1v-1c1-1 0-2-3-2-4-1-7 0-7 4l-6 11 4-11c2-3 1-4-2-3-2 0-3 1-3 2 0 2-2 3-2 1h-2c0 2-3 1-3-1l-4-2c-3 0-3 0-1 1l2 1h-2c-2 0-2 0-1 1v2c-1 0-2-1-2-3-1-3-2-4-3-1l1 1c3 0 0 2-4 2h-4l5 1 6 1h-11v5c0 4 0 5 2 5s2 0 2 2l-1 5-2-3c-2-4-3-6-2-10 0-5 0-8-2-7v1c1 2 0 3-2 2-2 0-2 0 0-1 1-1 1-1-1-2-1 0-2-1-2-3-1-3-3-5-6-5l-4-1 1-1c6 3 12-3 12-12l-1-6c-2 0-3-2-2-4 3-4 3-15 1-15s-5 3-6 7v3l-2-2c-4-5-8 3-5 10 2 3 2 4 1 8v12l-1 3c0 2-1 1-2-3-1-5-1-6-3-5-3 1-8 0-14-3-4-3-13-4-9-2v2c-2 1-2 3-2 8l-1 6-1 1-1 2v-4l-1-3c-1 1-2 0-2-1-1-1-1 0-1 2 0 8-3 8-3 0l-1-6-1-2c0-2 2-1 4 1s2 2 1-6l-2-13-2-5 2-2c2-2 3-4 1-3-3 3 0-5 7-16 11-18 32-42 33-38 1 1 0 2-1 4-4 4-1 3 5-2 5-5 6-6 8-4l5 1-2-1c-4-2-5-4-1-5l12-8 15-9 6-3 6 3c7 3 8 6 3 10l-2 3-3 2c-6 3-12 9-9 8l2 1v1l1-2c-2 0 4-5 6-5l-1 2h1c2 0 2 0 1 1l1 1 1-2 1-2h2c0 1 1 1 6-1l1 1 1 7v8l1 1 1 2 1 3 3 7 2 4a201 201 0 012-15c0-1 5-4 6-3l3-1h1l1-1 2-2c-1-1 5-2 7-1l2-1c3-2 12 0 9 3h9l5-1 6-1 3-1h1l-1 2v1h4v-2c-4 0-2-2 3-4l4-2c-3 0-2-3 0-4s2-1-2-1l-11 3c-3 1-1 3 2 2l2 1-2 1-7 3c-2 1-3-1-1-3 1-1 1-1-1-1-1 0-2-1-2-3v-4l9-2c8-2 9-2 12 0l7 6v2l1-1c0-2 1-2 5 0l7 1 7 3c5 3 7 4 17 5 7 0 10 1 17 4l6 2c4 1 4 0 4 50a1066 1066 0 001-30V0H88l-2 3-3 2 1-3 3-2H68L51 1c2 1 2 1-2 2-5 1-14 0-9-2 1-1-8-1-19-1H0v107m250-91l-9 3 7 4c8 3 8 3 8 1l3-4 3-4 1-2c4-2-6 0-13 2m129 20l-1 1c-1 1 0 2 3 5l5 3 6 5 5 4v-2l1-1h2c0-1-7-8-9-8l-1-1c0-1-8-7-10-7l-1 1m-91 96l-1 3h-3c-1-1-2-1-3 1l-2 2 3 3 4 3h-10l-2 1h1v1l2 1c3-1 4 1 4 6 0 4 2 5 6 2v-18 3l1 7 2 5c0 3 2 5 3 5l1-5c0-4 1-5 4-5l3-2v-3l-2-2c-2 1-4 0-7-5-2-3-3-4-4-3m-101 17l-1 4c0 3-4 4-14 4h-9l-1 3 1 3 1-2c0-2 0-2 1-1 1 2 7 3 7 0l2-1h1l2-1 1 1 2 2c2 2 2 2 4 0h1l-1 3-6-1c-2-4-5-2-5 1 0 5 2 7 3 4 2-3 7-3 9 0 1 2 1 2 3 0l2-4c1-4 2-5 2-2l1 2 1-3c0-2 0-3 1-2l1-1h1l1-3v-4c-1-2-9 0-9 1l-1-1c0-3-1-3-1-2m37 3c-3 2-3 2-3 0-1-1-1 1-1 3 0 5 0 5-2 6-2 0-2 1-1 1h2l12 3 6-1 3-1 2-1-2-1-3 1-3 1h-2l-2-2c1 0 0-2-2-3s-2-2-2-5c1-5 1-5-2-1m41 26l-2 1-4 2c-2 2-2 2 8 1 15 0 19 3 19 16 0 6 1 8 2 3 2-8 2-8-1-12-3-6-8-9-14-10a1112 1112 0 01-8-1" fill="#d3d3d3" fill-rule="evenodd"/></svg>