<svg xmlns="http://www.w3.org/2000/svg" width="400" height="225"><path d="M0 113v112h93l-1-4-2-6-4-13c3 0 9 11 9 19v4h20c22 0 20 1 18-8l-3-5-3-1-11-2-2-1 7-1c10 2 14 6 15 15v3h162l-1-3-1-4-3-2c-2-2-3-3-6-3-2 0-3 0-3-2 0-1 4-3 7-3 2 0 6 3 5 4l3 1c4 0 8 5 5 6v3a663 663 0 0081-1c6-4 8-5 12-5 3-1 3-1 3 2s-1 4-3 5l-2 2h6V0H204A3080 3080 0 002 0H0v113m0 1v111l2-1c2 0 2 0 1-1-2 0-2-6-2-110L0 4v110m161-90a140 140 0 00-21 12l-4 4 3 2h-3c-2-1-3 0-10 6-9 8-11 8-4 1 3-2 4-4 3-4l-2 2c-1 1-3 2-4 1-1 0-15 13-15 16l-1 1-8 8-6 8c-3 0-8-3-10-5-7-8-20 3-14 12l2 4 1 4 2 3c0 4 9 16 12 16l2 4c0 5 2 9 4 8 1-1 1 0 1 1h1c1-2 1-2 14 13 6 6 6 6 8 5h4l-1-3c-2-1-7-16-5-16l1 1 3 2c3 2 3 2 3 8l1 6 1-7c0-8 1-9 6-5 6 3 6 4 6 8 0 2 0 3 2 3s4 2 1 2v1h4c2 0 2 0 0-1s-2-1-1-2c3-1 4 1 3 4l1 4 1-2c0-3 0-3 4-3h5v6c1 4 1 5 2 4v-4l-1-6c0-4 0-4 2-4s2 0 1-1c-2-1-2-1 1-1l4 2h3l5-1c3 0 3 0 3 3l-2 3-2 6c-1 5 0 6 2 7h2l-1-2c-2 0-3-3-1-3l2 2 1-1c0-4 2-11 3-9l2 1 2 2c1 1 1 1 1-1 0-3 3-6 3-4 2 4 2 9 1 11-1 3-1 3 1 5l2 3h3l5-1c4 1 4-1 0-1l-2-1 2-1 4-3 2-1c1 1 2 0 3-1 3-5 12-1 11 5v3h14l4 1 6 2c7 0 10 3 10 8v5l1-3c0-4 0-4 3-4 2 0 3 0 4-2 2-3 7-6 9-6l6 4c4 3 4 3 4-2 0-4 3-7 10-6 3 0 3 0 2 2l-2 4c0 2 0 2 1 0 1-3 7-7 10-7 7 0 12 5 13 14 0 5 1 8 1 4l3-5c3-3 10-4 14-2h2c0-2-4-3-8-3-5 0-5-2 0-3h4l2-2c2-4 4-4 3 0v6c0 2 1 2 1-2 1-6 3-8 9-10 4 0 9 4 9 9v3l3-2c4-3 6-3 5 3l1 5c1 1 1 0 1-2 0-6 6-13 12-13 3 0 12 5 12 6h1l5-2c2-1 2-1-2-1h-5c-2-5-10-6-17-4h-3l1-1 1-1 2-3 3-5c4-7 15-21 17-21s2-1 2-4l1-5c1 0 1-6-2-12l-2-8c0-7-9-15-21-22-3-1-6-3-7-5a107 107 0 00-19-18c0-2-5-7-13-13l-6-5c-8-6-14-8-12-4l-1 1c-1 1-1 1 2 2l21 18-3-1c-1-1-2-2-3-1l-10-2c-13-3-20-4-27-4-8 0-10 1-11 4l-1 3-1-3c-1-2-2-2-3-2l-6 1c-5 0-9 5-8 9 0 2 0 3-3 4-5 3-8 2-7-2l1-3c2-1 1-2-1-1l-4-1-5-1h-4v-1c-2-1-5 3-5 5l-6 3-2 2c0 4-5 2-11-4-4-4-6-5-8-5h-1c1-3-3-3-6-2-3 3-4 2 0-1 2-2 3-3 2-4-1-2-6-4-9-4-2 1-2 0-2-1l-5 2c-5 2-6 3-5 1l-2-1-2 1 2-2c3-3 2-3-3 0l-2 3c1 1 0 1-1 2-3 2-5 2-3 0 2 0 2-1 1-1l-4 2c-2 2-2 2 0 2l-1 2c-2 2-2 2-3 1h-2c-2 2-3 1-2-1 2-1 2-2 1-2-1-1 0-1 1-1 2 0 10-5 18-12 3-3 4-4 2-4l-2 1 2-2c4-4 3-9-4-8l-4-1-7 2m4 74c-3 1-3 1-1 2l2 4v7l1 4-2-4c-4-7-10-10-10-4 0 3 4 10 7 13 2 2 3 3 2 7l1 8c2 4 2 4 7 4 6 0 6 0 7-4 3-8 2-13-3-16-3-1-3-1-3-5 1-5-1-14-3-16h-5m71 32h-4l-1 1c0 1 4 3 5 2 2 0 3 2 2 4-1 1-2 1-5-1l-4-2v5c0 3 0 4 1 3l1-1 2 5c1 1 3 2 5 1h3l-1-8c0-9-1-10-4-9M78 154c-2 3-2 7 0 9v6l1 2c2 0 3-2 3-6l1-3 1 3v2l4 1c3 2 3 2 4-1 2-4 1-12-1-12l-4 2c-3 3-4 3-4-1-1-3-3-4-5-2m180 2c-1 0-4 1-5 3-2 3-3 3-11 3-7 0-9 1-8 2h4c2 0 12 2 15 4h2l4-4c4-3 4-3 8-2l4 1c0-2-5-4-8-3-2 0-2 0-1-1 2-2 1-4-1-4l-3 1m-106 6c-3 0-5 4-2 6 2 1 1 2-1 2s-2 0 1 1l4 3 2 2c2 0 1-2-1-4-2-1-3-4-1-2l1-2c0-2 3-2 6 2 2 2 4 3 3 1-2-2 4-1 6 2 2 2 2 2 4 0 1-1 0-2-3-3l-6-1-2-2-1-2h-2l-1 1-2-3-1-2-4 1m55 8l-3 2h5c4-2 9 0 10 4 1 5 1 5 4 6l6 3 5 3c2 0 4 2 4 4l-7-3c-8-4-15-4-8 1 8 7 17 16 21 22l6 8v-13l2-3 6-1c6 0 6 0 6-3-1-2-4-3-6-1-1 2-3 0-3-2-1-4-4-5-7-1-4 3-6 4-6 2l-1-4-2-5-3-3-5-3-7-3-3-2c0-6-7-10-14-8m184 9l-3 1c-8 0-16 5-19 13-1 5-2 6-5 4-6-3-14 4-14 12 1 6 4 7 4 1 0-4 0-6 5-8 5-3 9-3 10 0 2 3 3 2 3-3s3-11 7-13c3-2 12-3 18-1 3 1 3 1 3-1l-3-3-4-2c-1-2-3-3-2 0" fill="#d3d3d3" fill-rule="evenodd"/></svg>