<svg xmlns="http://www.w3.org/2000/svg" width="400" height="225"><path d="M284 38l-3 1-3 1c-3 1-6 7-6 13l1 7 1-2c-1-3 6-4 7-2 0 2-2 5-4 5s-2 1 0 4v-1c0-2 0-2 2-2 2 1 3 4 0 4v1c2 2 3 0 3-6 0-4 0-6 2-8l2-4 3-2 8-4c0-2-2-4-5-4l-5-1h-3m70 4c-2 2-2 2 0 4 1 2 1 2-1 2-3 0-4 1-1 2l1 2-8-4-4-1-3-1h-7c-1 0-2 0-1 2 0 2 3 3 9 4l7 3h-5c-10-2-15-2-10 1l2 4c0 3 0 3 1 2s1-1 3 1c2 3 2 4-4 3l-4 1c0 1 4 4 6 4l1 1 2 1 2 2h1c1-2 6 0 6 3 0 2 0 2 1 1 1-3 9-2 9 0s1 1 2-1c1-4 2-5 5-2l11 5c8 3 9 4 17 12l8 9V85c0-16 0-17-2-19l-4-2-3-1c0-2-2-3-3-3l-1-1-1-2-6-6c1-1-7-9-9-9l-5 1c-3 1-4 1-7-1-2-2-3-2-5 0M43 79l-4 6 5 9 3 1c4 1 4 1 8-3 2-2 3-4 3-7 0-12-9-15-15-6m197 0l1 1c2 1 0 3-2 3-4 0-6 6-4 9 2 2 9 3 11 2V78h-3l-3 1m-85 8v7h5c5 0 6 0 6-2s-1-3-2-1c-2 2-5 1-5-1 0-3 1-4 3-2l1 1 1-3c0-2 0-2-2-2-3 1-3 1-3-1 0-3 0-3 3-2h3c0-2-1-2-5-2h-5v8m41-3l-1 8c0 6 1 7 3 7 5 0 8-1 9-3 0-3-1-4-5-4-3 0-4-2-1-2l3-3 2-2 1-1h-11m13 0v9c3 2 8 1 10-2 3-5-5-11-10-7m14 1c-4 3-2 9 4 9 5 0 8-4 5-9-1-2-7-3-9 0m100 0l-7 2c-3 0-4 2-1 4 1 0-1 4-11 16-13 17-14 20-12 27 1 5 3 7 32 28 23 18 24 18 29 18 7 0 10-3 24-21 21-28 20-28-7-49l-12-11-2-1-2-1c1-1 0-1-1-1-2 0-10-6-9-7l6-1c5-1 5-1-2-1l-11-2h-5c-1-3-5-2-9 0m11 12l-2 3c1 2-6 2-6 0-1-2-1-2-4-1-5 0-5 2 0 5l4 1h-4c-4-1-4-1-2 1l5 1c7-1 7 2 1 5-5 2-6 2-6-1l-2-3v2l-1 3-2 3-1 2c-2 1-3 5-2 5l3-3c4-4 4-4 4 1l-1 7-1 2-5-2-5-3c0-1-1-2-2-1l-1-2-2 3-4 6c-3 2-2 4 2 6 3 2 3 2 3 0h2l3 1 4 3 2 2-1-3-2-4c0-1 7 1 10 3 2 2 4 3 4 1l-3-3-2-1h2c3 1 3 0 3-2 0-3 0-3 2-3 3 1 5-1 6-5l2-4v-2h-1l-7 2c-5 0-6 0-6-2-1-4-1-4 3-5l3-2c0-1 2 0 3 2l4 2 1-2 2-3-1-2c-3-1-4-3-2-3l1-2c0-2 0-2 1-1 2 1 3 1 2-1l1-2v-4c-1-3-3-3-5 0m-247 5c-3 1-4 2-4 8v6l4 2c7 5 15 2 16-7 2-9-7-14-16-9m-74 4l-10 5c-3 3-3 4-3 12 0 9 0 9 3 9h3c2 0 7-10 6-10-2 0-1-2 3-3l10-5c7-3 7-3 4-4l-2-1h1l1-1 3-3c4-1 5 1 3 4-1 2-1 2 1 2l9-1c5 0 5 0 3-1l-7-2-3-2c5-3-16-2-25 1m193 5c0 8 0 8 2 8 3 0 3 0 2-5l1-4 1 5c0 4 0 4 3 4s3 0 2-3c-1-8-1-8-4-8s-3 0-3-2-1-3-2-3c-2 0-2 0-2 8m-46 3c0 5 1 5 3 5 3 0 3 0 2-4 0-4 0-5 2-5l1 5c-1 4-1 4 2 4s3 0 2-3c-1-8-1-8-6-8h-6v6m14-6l2 7c3 5 3 5 1 6-3 0-3 3 0 3 2 0 3-2 5-7 3-7 5-8 6-2 2 4 5 5 6 1l1-2 1 2c1 4 4 3 5-1l2-5c2-1 1-2-1-2-3 0-3 0-2 3l-1 3-1-3c-1-4-4-4-5 0l-1 2-1-3c1-2 1-2-5-2l-5 1v4c-1 2-1 2-1 0l-1-4c1-1 0-1-2-1h-3m-139 6l-5 3c-6 2-8 4-7 5l1 2-2-1c-1-2-3 0-7 7-5 6-6 10-4 11h1l2-1 2 1v2l1 2-2-1h-5l-1 5 2 5c2 1 3 4 1 4v3c1 5 2 4 2 0 0-2 1-3 2-3v1l1 3v4h3c2 1 2 1 0 3v2l1-1h2c2 2 2 4-1 4h-1c0 1 3 2 4 1l2-1v3c0 1 1 1 1-1 1-2 1-2 2-1s2 1 2-1l2-2c2 1 2 3 0 3-1 1-2 2-1 3 0 1 1 1 3-2s5-3 4 0l1 2c2 2 2 2 3 0 1-3 5-4 7-3l2 2 1 1c0 2 0 2 1 0s3-3 3-1l1 1 1-1c-1-2 0-3 2-2v-1c0-3 0-3 3-3h4l-2-1c-2 0-2 0 0-2 1-3 3-4 3-1l2-1 2-3-2 1h-1l1-4h2c0 2 2 1 3-3 5-14-4-33-18-41-6-2-21-4-24-2m333 12h-2c-2 0-2 0-2 4l1 8c0 3 0 4 3 4s7-2 6-3l1-3c2-3 2-6-1-7l-2-2-1-1h-3m-330 4c0 3-2 4-2 1v2l-1 4h-3v5l1 1c-1 1 0 2 3 2 4 0 6-2 5-3h-1l-2-1c-2-2-2-2 0-2l3-1c1-1 1 0 3 4h2l2 1c-1 1 0 4 1 4l3-2c1-2 3-3 2 0l2 1v2h-2l-2-1-1 1 2 1 2 2 3-3c1-3 3-4 4-3l1-2-2-4-4-3-3-2-1-1c0-2-6-5-7-4h-8v1m156 1c-1 1-2 2-5 2-4 0-4 0-4 2v3c0 2 0 2-1 0v-4l-3-1c-4 0-4-1-1 6 3 6 3 6 1 7-3 1-3 3 0 3 2 0 3-1 6-8s5-8 5-2c1 5 4 7 6 4v-1c-2 0-2-1-2-3 0-3 0-4 2-4l1-1-2-1-2-2h-1m19 2l-4 1v5c-1 5 0 5 2 5 3 0 3 0 2-4 0-4 0-5 2-5l1 5c-1 4-1 4 2 4s3 0 2-4c0-4 0-5 2-5l1 5c-1 4-1 4 2 4s3 0 2-4c0-6-2-7-5-7h-9m-48 0v6c0 5 0 5 2 5 3 0 3 0 2-4 0-4 0-5 2-5l1 5c-1 4-1 4 2 4s3 0 2-4c0-7-1-7-6-7h-5m175 1v4c1 3 1 3-2 3-2-1-2-1-2 1l1 2h4l3 1h9l-4 1-3 1c1 1-10 2-11 1v-4c0-4 0-4-1-3l-2 3-1 1c-2 0-5 7-4 8h3c5-1 8-1 12 1s4 3 0 2c-3 0-4 0-5 3s0 7 3 7c2 1 2 0 2-1v-2c2-1 1-3-1-3-3-2-2-3 1-2 4 0 4 0 3 3 0 2 0 2 2 2 1-1 3 0 4 2 2 1 3 2 4 1 2 0 2 0 2 3-1 3-1 4 1 4s3 0 2-3c0-2 0-3 2-5l2-5v-3l-3 2c-3 2-5 1-3-2 2-4 0-7-4-5-1 0-3 5-1 6l3 7c-2 1-7-5-7-7 1-1 0-2-1-2l1-3 1-4h3l2-1c0-3-2-5-3-6-6 0-6 0-4-1 1-1 1-1-1-1l-2-1c1-1-3-6-5-5m-195 35v12c0 2 3 2 26 2h25v-15h-25l-26 1m143 7l2 3 1 2-4-2c-1-2-2-2-2-1-1 1-1 1-1-1l1-2-2 2c-3 3 0 8 7 10 3 0 5 2 6 3 1 2 1 2 3 0 3-1 3-1 1-4l-2-1h-2c-2-2-2-2 0-2v-1c-3 0-2-2 1-2 2-1 1-1-2-1s-4 0-5-2c-1-3-2-4-2-1m-223 3c-6 4-6 4-4 6s2 2-1 3-3 1-3-1h-4l-1 1v1h-2c-3 2-11 3-15 3l-12-3 4-2 3-1-4-1c-5-2-4-2-8 0-2 2-7 4-11 4l-7 2v11c0 13-1 13 15 5 9-5 10-5 17-5 9 1 17-1 24-6 6-4 16-17 15-20v-1l-6 4m31 1l-1 3-2 1-2-1 2-1 2-1-5-1c-4 0-5 0-3 1s2 1-1 1l-4 1-3 1v-1l1-2c0-2-4 3-4 6 0 6 7 8 15 4l8-4c6-2 6-7 0-9-3-1-3-1-3 2" fill="#d3d3d3" fill-rule="evenodd"/></svg>