<svg xmlns="http://www.w3.org/2000/svg" width="400" height="225"><path d="M156 92c0 2-6 4-6 3h-2l-2 1-1 1 1 1 2-1 1-1v1c-2 0 0 2 3 2l2 1c-1 2 2 3 6 3 2 0 2 0-1-2-4-1-5-4-2-5 3-2 5-1 3 1s-2 2 1 3l3 1c1-1 4 0 3 1h2v1l-4 2-4 1-3 2-4 4c-3 3-7 4-6 2l1-1c1 1 5-3 5-4h-2l-4 2v-1c1-1 1-1-1-1-1 0-2 0-1-1l3-1c3 0 4-1 2-4-1-1-4-2-5-1 0 2-2 2-7 2l-6-1 1-2 2-1c2 0 5-3 4-4l2-1c2 0 2 0 1-1l-4-1c-2 0-2 0-1 1 2 1-1 3-3 3h-2l-2 1-4 3-3 3-1 1-1 3v4c3 2 1 7-2 7l-3 2c0 1 4 5 6 5l2 1h1l2-7 2 2c2 1 2 1 3-1 2-1 2-1 3 1 1 1 2 2 4 1l2 1c2 2 3 1 3-1-1-2 9-2 10 1 1 2 4 2 4-1-1-1 0-1 5-1 7 1 11 3 9 4s3 1 9-1l4 1 2-1 1-2v2l-1 3-1 1c-1 2-5 3-14 5-7 1-4 2 6 2h10l1-7 3-9c4-5 2-13-3-15l-4-3-1-2-1 1c1 3-1 4-2 2l-6-7-4-5h-8l-8 1m46 1c-1 3-2 18 0 18l23-19c1-1 0-1-10-1s-11 0-13 2m59 0l-2 2h-1v-1l-1-1-3-1-1 1v1l-3-1h-8l-1 1c-3 0-2 2 0 2 4 0-2 2-7 2s-8 1-8 4h-2c-1 1 0 1 1 2l5 2 3 1h-3l-4 1h3c4 0 4 0 3 1v2c1 1-1 1-3 1l-7 1h-8c-2-1-4 0-3 1h2l1 2c-1 1-1 2 1 2v1c-2 0-2 0-1 1v2c-1 1-2 0-3-1l-2-1c-4 2 0 6 6 6 12 2 29 1 39-2l8-1c4-1 4-1 2 2s1 8 5 8 5-1 6-6l-1-5-3-1-2-1 3-1c5-1 5-1 4-4 0-3-2-5-4-5s-1-2 1-2c4 0 6-4 4-7-1-1-1-1 2-1 4 0 9-1 8-2l2-2c3 0 3-3 0-4-3-2-27-1-28 1m37-1c-1 2-2 3-2 23v21h25c24 0 25 0 23-2-6-2-12-9-14-14-3-7-3-20-1-25l2-3h-33m40 0l-1 3c-3 8-3 18-1 23 5 10 13 14 23 12h8c3 0 4-1 5-5 2-5 6-9 10-9h4v-10c0-8 0-10-2-12l-2-3h-22l-22 1m55 1c-2 1-2 4-2 22v21h9V91h-3l-4 2m-43 2h-3l-4 1-4 3-1 2 2-1 4-1h4c1-1 1-1 2 1l2 2c1 1 1 1-1 1l-2-1-1-1c-2 0-6 5-6 7l-1 2c-1 1-1 1 3 1 3 0 4 0 5-2l2 1c1 1 1 1 2-1l3-3 4-1h-3c-2 0-3 0-2-1h2c2 1 6 0 8-1l3-3c2-1 3-5 0-5h-8c-3 2-7 2-7 1l-1-2-2 1M58 96v3c-4 0-7 1-7 3l-1 1c-3-1-4 2-1 3 2 1 6-2 5-3l1-1c1 1 3 0 4-1 3-3 5-3 9 0l2 2-3 1-4 1c2-3 0-2-7 3-9 7-14 14-14 21 0 3 3 4 10 4 5 0 7 0 8 2 2 1 3 1 12-1 10-2 16-2 21 1 4 2 5-2 1-6l-1-10 3-4c3-2 3-9 1-12l-26-4-5-2c-2-2-7-2-8-1m189 8l-3 1-1 1c-3-1-8 1-9 3s-1 2 1 2h4l2-2 1 1v1l7-4h2l1-1v-1l1 2v2l1-2c0-2 0-2 1-1l6 1 1-1 1-1-3-1h-13m98 84c-1 2 0 4 2 8 2 5 3 6 8 7 7 3 9 2 14-5l3-8v-4h-13c-13 0-14 0-14 2m-203 20v7h52v-14l-26-1h-26v8" fill="#d3d3d3" fill-rule="evenodd"/></svg>