<svg xmlns="http://www.w3.org/2000/svg" width="400" height="225"><path d="M162 25c-3 5-3 8-1 5h7c0 2 8 2 10 0l2-1c1 3 6 2 7 0 1-4-5-7-7-3h-2l-3-2-2-3c0-2 0-2-1 0l-1 6v4l-3-6-3-6-3 6M0 40v18l7 2c13 4 20 13 22 27l1 6 2-5c13-24 37-46 64-59l9-5H69l-52-1H0v17m153 14l-12 7c-8 4-9 4-9 2s-1-2-5 0c-5 2-17 2-19 0-1-1-3-1-4 1v2l-2-2c-1-2-5-3-4-1 1 1 0 2-1 3s-2 2-1 3c0 2 0 2-5 2l-6 1-1 1-2 2 2 3c2 0 1 4-1 7l-2 3-1 1v3c1 3 0 6-3 6-2 0-3 1-3 5 0 3 0 4 2 4l3 2 1 2 1 1c1 1 0 2-4 3-5 2-6 4-4 5s0 4-6 7l-3 3v1h-1c-1-2-4 0-4 2s1 2 4 2c2 0 3 0 3 2l1 3v6c1 1 1 1-1 1s-2 0 1 2l6 4-6-2-7-4-2-1h2c2 0 2 0 0-1h-4c-1 1 3 4 11 8l6 4c1 1 8 7 9 6l5 2 4 1h3l8 1 5 1c-1 2 1 4 5 3 3 0 3 0 1 1H90c-5-2-6-2-2 0 7 4 25 7 25 4h2c2 0 3 0 4-2 1-1 2-2 5-2l3-1-4-3h-2l-1 1-1-1-2-1h17c7 1 24-9 42-25l4-3v-22a178 178 0 00-1-29v-2l-1-6c-1-4-1-4 1-3l1 1-1-3v-1c1 1 1 0 1-2 0-4-5-9-9-9-3 0-3 0-2-3 2-5-2-5-6 0-2 4-4 5-7 6-7 2-7 1 0-4 6-5 7-7 5-10-1-3-2-2-8 2m-10 20l-2 1c-2-1-3 0-1 4 2 3 2 4 0 5-1 1 0 5 2 9 2 3 2 3 5 1l2-3 1-1 1-1h-2l-1-2c1-1 0-2-1-3l-2-2c0-1 3-2 4 0h1l-1-2c-2 0-3-2-2-2l-2-3-2-1M0 98l1 4v3l-1 8v6l3-2c7-5 9-10 2-7-5 2-6 0-1-2 4-2 4-3 1-6-2-1-3-3-3-5l-1-3-1 4m149 16l-8 3c-5 3-5 3-4 6l1 4c1 1-1 5-2 5-2 0 2 3 4 3l1-2 2-3 2-2h-4c0-1 3-2 5-1 2 0 3-2 1-4s-1-5 2-5c1 1 2 0 2-2v-3l-2 1M19 124c-2 5-13 19-16 22-3 2-3 3-3 14v12h8c18 1 34 9 49 22l8 8h42l58-1h15v-22l1-22-9 6c-22 17-45 24-70 23-39-3-50-6-64-19a52 52 0 01-16-38l-1-9-2 4m-14 2l-3 1c-2 0-2 1-2 8v8l4-4 6-9 3-4H5m10 32c-2 2-7 10-7 12l4 1c4 0 5-1 7-5 3-8 1-13-4-8" fill="#d3d3d3" fill-rule="evenodd"/></svg>