<svg xmlns="http://www.w3.org/2000/svg" width="400" height="225"><path d="M101 44c-8 4-9 17-1 21 10 5 21-4 17-14-2-6-10-9-16-7m66 21v7h33l34-1-1-7v-6h-66v7m128-5c-9 4-10 16-2 21 10 6 21-5 17-15-3-5-10-8-15-6M170 76v8c0 8 2 10 5 2l5-7 3-3h-13m25 0l-5 1-2 2-2 1c-3 2-5 7-3 11 3 6 8 7 28 7l19 1v-3c0-2-1-2-6-2h-6l4-4c6-5 7-10 3-12-2-1-2-1-2 1h-1v-3a894 894 0 01-22 1h-2c0-1-1-2-3-1m-36 12c-10 4-13 13-7 19 4 4 13 8 14 7l1-14c-1-14-1-14-8-12M54 96c-4 3-6 8-4 12 6 13 23 10 23-4 0-9-11-15-19-8m158 18v3c2 3 1 6-2 4h-4c-4-2-7-6-4-6l2 2 2 2 2-1v-1l1-2h-10c-2-1-28-2-28 0-2 2 1 3 4 2 3-2 4-1 3 2 0 3-1 3-3 1-4-2-5 0-5 9l1 8h59v-3c0-2-1-2-3-2s-3 0-2-1v-3l1-5-1-5 2 2c2 4 3 4 3-2 0-4 0-4-2-3-1 2-1 2-3 1-3-2-11-3-13-2m-105 20c-8 9 1 24 12 20 13-5 10-23-3-23-5 0-6 0-9 3m218 6c-3 4-3 4-3 9 0 11 12 16 19 8 8-7 2-20-8-20-3 0-5 1-8 3m-132 14l2 1c0 2 3 4 4 4 2 0 4 2 4 3l-3 1c-2 0-3-1-3-3-1-2-1-2-3-1l-6 2c-4 0-4 0-2-1 1-1 0-1-4-1l-5 1 1 1 3 1-7 1-6 1-1 6v6h3l29 1h26l4 4c5 5 8 5 14 2s9-8 10-15c0-6 0-6-3-10-5-4-8-4-16 0-2 1-4 2-5 1h-2l-1-4-6-2-4 1 2 2 4 1c2 0 2 0 1 1v2c0 1-1 2-3 2s-3-1-2-2c0-3-1-5-4-5l-2-1h-14l-4-1c-2 0-3 0-1 1m-47 44l-1 8 1 7h49v-15l-24-1-25 1m57 1v12c1 2 2 2 24 2l25-1v-14l-25-1c-22 0-23 0-24 2" fill="#d3d3d3" fill-rule="evenodd"/></svg>