<svg xmlns="http://www.w3.org/2000/svg" width="400" height="225"><path d="M0 2c0 3-1 2 48 29l23 14c2 2 5 22 4 29v3l-16-8-15-7-1-11-2-11c-3-3-25-15-26-15v22l-2-1-8-3-5-3v62l4 1 4 2v7a437 437 0 01-5 36H0v77h19c14 0 19 0 18-1h2l182 1h180v-39l-1-27c0 12-1 15-2 11l-5-1c-3 1-4 0-6-2-3-3-7-4-10 0h-3c-2-1-2-1-2 7 0 4 0 6 3 9l7 10 5 7c2 2 3 7 2 7l-2-1-3-2-1-1s-3-2-7-2l-8-3c-1-2 0-3 2-3h2l-1-1c-2 0-4-3-4-6l-2-7c-3-7-3-8 0-8l4 2 1 1c0-3-2-5-5-7-2-1-3-4-5-10-2-5-1-5 3-4 3 2 5 2 8 1s4-3 2-3l-3-2-4-2-5-3-6-3c-2-1-2-3 1-3 1-1 2 0 2 1s4 2 4 0v-4c-1-2-1-2-1 0-1 1-2 1-5-1-2-1-2-2-1-3 2-7 2-11 0-12l-2-2c0-2-2-1-2 1l-1 3c-3 0-4 1-3 4s1 3-2 2l-3-1c-1-1-2-1-5 1h-2l1-2c2-1 2-1 1-3-2-1-2-3 3-9l2-4v-3l-1-2c0-3-4-7-5-6s-1 1-2-1c0-1-1-2-3-2s-2 0-1-2h6l3 1h1c0-4-3-6-9-6-5 0-5 0-5-4l-4-1c-4 1-4 1-3-2 1-2 8-4 11-4 1 1 2 0 3-2 2-5 6-7 9-7l3-1v-1l1 1 1 1h1l1 1c2-2 3 3 3 10l1 6 1-1v2c-2 2-2 7 0 6 2 0 11-15 11-17 0-3 3-4 5-3v5l-2 5-2 6c0 2 0 2 4 2 5 0 7 2 5 5-2 1 1 4 3 4l3 2v2h-2l-3 9c0 3 0 3-4 4-5 1-5 2-2 8 2 4 6 6 8 5 4-2 10-1 13 2l6 5 3 2v-39l1-70V0h-15c-12 0-14 0-15 2 0 2-7 1-8-1l-7-1c-6 1-6 1-4 6 0 2-5 9-8 9l-2 1-2 1c-2 0-5 3-3 3h1l2-1 1 5c0 4 0 5-3 2h-2l-1 2c-2 0-2-1-2-4s0-4-1-3-13 5-17 5c-2 0-4 1-6 4l-8 6c-6 3-6 3 1 6 5 2 8 4 5 4v1c0 2-3 2-7 0l-5-2-3-3-3-1c-2 2-3 1-3-2v-1c-1 2-2 2-3 1l-1-3c1-1 0-5-1-5-2 0-5-3-5-5 0-1-1-2-2-1v2l-1 3c-2 3-3 3-2 0 0-1 0-2-2-2v-4l-2 2-1 1v-3c2-5 13-8 19-5h2l4-1 3-2 2-3c2 0 13-10 13-12l-52-1h-52l1 2c1 4 0 8-3 10l-6 7c-2 4-3 5-6 5-4 0-7 3-5 4s-3 2-6 2l-2 1-3 3-4 3c0 1-4 6-6 6h-1l-1 2-2 1-4 2c-2 2-3 3-4 2l-4 1c-1 1-5 1-6-1l1-1h3a1711 1711 0 019-3c0-1-10-9-11-8l-6-3c-6-5-8-5-6-2 3 3 2 4-1 3-2-1-6-1-6 1 0 1 4 2 5 1s5 0 8 2l2 2 1 1h-4c-3-2-3-2-3 0h-1l-1-2-1-1-1 2-1 1-1-1-2-1-2 2c0 3-2 3-3 1s-1-1-1 3l1 5-1-4-2-5c-2-1-1-5 1-5 1 0 2 0 1-1-3-1 2-7 6-7 3 0 3-1 0-3l-2-2 2-5 2-5 5 5 8 6 11 7c11 7 12 7 16-1l7-10 5-8c0-2 2-3 2-1 1 2 10-5 10-7l2-4 1-2H0v2m343 32c0 5 0 5 4 5l4 2-8 1-9 1 18 1c16 0 22-1 16-2-1-1 1-1 3-1 6 0 10-2 10-4v-5l1-2h-10l-10 1h-3c-3-1-3-1-6 2-4 4-7 4-7 0l-1-3c-2 0-2 1-2 4m11 17l-7 1a321 321 0 00-31 6c0 1 11 1 30-2 7 0 8-1 9-2s0-4-1-3m-240 9l-1 1c-1-1-6 3-6 4 1 1 0 2-1 3l-2 4c0 3 0 4 1 3 3-2 5-2 4 0 0 2 0 2 2 1 3-2 5-2 3 0-3 3 2 3 6-1 3-2 2-3-1-3-3-1-4-3-1-3 3 1 5-3 3-5-1-2-1-2-3 0l-4 3-3 1h-1l2-2c2 0 2-1 2-3l1-2 1-1-1-1-1 1m90 22c-2 1-5 6-5 7l1 1c1 0 2 1 1 2h4l-3 2c-3 0-3 1-3 3 0 3 0 3 2 2h3v3c-2 2-2 8 0 8l7-4c10-7 12-19 3-24-4-2-7-3-10 0m38 17c0 4-1 5-2 7-4 3-4 4 1 10 4 7 11 21 12 26 1 4 0 5-1 8-4 8-8 13-11 13-1 1-1 1 1 1 3 0 3 2 1 2-3 1-6 6-6 11 0 3 1 7 8 16l4 9 3 6 2 4 9-1a338 338 0 0025-1c1 1 1 1 1-1 0-3 0-3 3-3 2 1 3 0 4-1 1-2 2-2 4-2 2 1 4-1 2-2-1-1-1-1 1-1h2l2-1 8-3c8-2 11-3 10-5h-8c-1 2-1 2 1 2 1 1 1 1-1 1h-1v1h-3c-5 3-8-2-5-6l3-4 5-3c4-1 6-2 4-4-1-3-1-9 1-10 2 0 2-1 0-5-4-9-7-13-7-8 0 2 0 3-2 2-3 0-4 1-3 5 2 3 4 4 4 1 1-2 1-2 1 0l-2 4c-2 1-3 2-3 4l-1 5c0 2 0 2-2-2-1-5-3-7-5-7l-1-2-3-4c-2-1-2-2-3-11l1-10c2-4 2-7 0-11l-3-12-3-11c-1-4-3-2-3 3s0 5-1 4l-2-4c0-2-1-2-3-2-3 0-19 7-18 8l-1 4c-1 3-1 4 1 5v4c-1 2-5-6-7-11l-2-5v-11c-1-5-2-5-4-3-3 1-3 1-4-1-2-3-3-2-3 2m72 0l-6 20c1 0 4-1 3-2l4-1c3 1 4 0 4-1l2-3c3-3 1-6-3-4-2 1-2 1-2-2 1-7-1-10-2-7m-141 6v9l1 6c-1 1 0 4 1 6l2 4 7-6 10-10c5-4 5-6 0-4l-8 1-4 1-1-6c-1-5-2-6-4-6-3 0-3 0-4 5m-50 11v3l-2 2c-1 2-2 11-1 12l2 1c1 1 7-2 7-4l2-3c4-4 5-9 2-8h-5c-2 1-4-1-3-3v-1l-2 1m-39 4c-6 1-6 21-1 21 2 0 2 0 1-1v-8l2 2 1 2c1 0 1-2-1-4-2-4-1-5 2-5h3l3-1c2 0 3-1 0-4-1-2-6-3-10-2m-29 10l-1 8 4 3c5 4 7 5 13 6 4 0 4 0 3-3l-1-8-1-8-17-6v8m211 16l-3 2 2 3c2 2 3 3 4 2 2 0 2 0 2 2-2 3 10 7 12 4 0-2-2-6-4-6-1 0-3-4-1-5 2 0 1-3-1-3-8-2-9-2-11 1m-163 0l-3 4c-4 1-3 9 1 9 3 1 4 0 2-1s1-3 3-3l2-3c2-5 4-6 4-3h1c2-3 0-4-5-5-5 0-5 0-5 2m27 5l-1 4c-2 3-2 3 2 8 4 6 4 8-2 14l-5 5 22 6-3-34-13-5v2m-77 4v8l9 2 8 2-16-14-1 2m123 4l-1 3v3l3-2c2-1 2-1 2 1-2 3-2 8-1 8h1c0-1 1-1 2 1 2 1 2 1 2-1v-1h2l1-2c1 0-2-7-4-9h-2l-1-1h-4m-64 15l-3 6-3 4-2 3v3c1 2 1 2 2 1 3-4 3-2 0 3-4 6-4 10 0 11l5-1h3v1c-4 2-2 4 3 4s4 2-1 2c-3 0-1 1 4 1 7 0 8 0 8 2l-1 2h-2 4c5-3 5-4 1-9s-7-7-12-7c-3 0-4-1-3-2h2c3 0 4-2 3-4l-1-5c0-4-1-4-3-2-2 1-2 1-3-2v-4c4-3 4-3 3-4v-3c2-2 2-2 0-2-3-2-4-1-4 2m219 29c-8 8-9 10-7 10l12-1 10-2h1l13-1c1-1-14-16-17-16l-12 10" fill="#d3d3d3" fill-rule="evenodd"/></svg>