<svg xmlns="http://www.w3.org/2000/svg" width="400" height="225"><path d="M0 113v112h63l6-14 8-13-4 9-6 13-2 5h13v-5l1-4 3 4 2 5h20l-1-2-13-25-5-12c-1-1 0-12 1-12l3 6c7 13 18 24 24 22l6 2c7 6 14 3 21-8v1l2 6c3 5 3 7-1 9l-10 7-7 6h24l1-5c3-8 3-8 3 0l-1 5h8c8 0 8 0 5-9-4-8-4-11-1-11 2 0 5 6 7 15l3 5c1 0 1-1-1-7-3-8-2-8 2 0 3 6 3 7 6 7h3l-2-4a538 538 0 011-3c3 7 3 7 7 7h4l-2-4-4-18 4 2c3 2 4 2 5 8 2 13 2 12 5 12h3l-1-5v-5l2 1c2 2 2 3 1 7-1 2 0 2 19 2a102 102 0 0024-1l37 1h36v-3l-1-4-2-5-1-4-1-1c-1-1-1-1-2 1l-2 2v-5c2-6 3-12 1-21l-1-9h6l6-1 2-3c2-3 3-3 4-2 2 1 3-9 2-13l-8-30c0-2 3-1 3 0a768 768 0 007 13c0-3 7 13 7 16 0 5 6 0 10-9l2-5v4l-2 16c-1 16-4 29-6 29l-1 8a74 74 0 01-3 24c-1 2 1 2 29 2h30V0h-97v3c-1 4-2 4-4 0-1-3-2-3-6-3l-5 1v4c0 3 0 3-1 2l-2-4V0h-41l-1 3 1 4v7c-2 1-7-12-6-13s-30-1-69-1H99v3c2 5 2 13 1 15-3 5 0 13 4 13l4 11c-1 0-2-1-2-3-2-3-4-4-9-4S84 18 86 10c0-4 0-5-2-5l-1-2 1-3H0v113m118-95l-3 5-3 4c-3 3-3 3-2 10v7l2-5 8-14c2-2 3-4 3-7 0-4 0-4-5 0m96 18l4 3c5 3 3 4-3 1l-6-3 13 24c1 2 11-9 11-12 0-2-1-4-8-7l-11-6m-90 8l-3 4v17l-1-7c0-6-1-6-1-3l-2 5-1 4c0 2-1 1-1-1l-1-3v4c0 4 4 11 5 9 5-7 7-11 8-22l1-11-4 4m36 5c-8 4-14 12-9 12l4 2v1c-8-3-9-2-4 2l8 5 4 3-1-4c-1-7 0-10 3-17 3-8 3-8-5-4m25 1c-2 3-9 9-11 9s-10 8-10 10 0 2 2 2l5-2 4-1c3-2 11-14 12-18s0-4-2 0m108 6c1 5 1 6 4 10 4 6 12 13 12 11l-13-23-3-3v5M95 61c0 2 0 2-1 1-4-3-3 2 0 10 5 10 4 10-2 0-4-7-8-11-10-10l4 7 7 11c3 6 4 6 5 3l1-3 1-2c0-3 3-7 5-7l-2-6c-2-5-3-5-6-6-3 0-3 0-2 2m46 21c-6 12-6 10 6 24l8 11c4 6 4 4 1-3-5-8-3-8 2 0 4 8 1-1-4-13-6-14-6-13-7-10s-1 4 2 9c3 3 4 6 4 7-1 1-1 1-2-1l-6-7c-5-6-5-8-1-17 4-10 2-10-3 0m-30 7l-2 8-3 11c0 4-2 8-3 10s-1 10 1 10v5c0 6 0 6 4 0v1c-3 9-3 12 0 16s3 4 4-3c0-7 4-21 8-30 3-5 3-6 2-7l-2-1a178 178 0 00-10 22c-1 1-1 1-1-1l2-7c0-7 6-24 8-25s1-3-1-5-2-1-4 8c-2 10-8 27-9 27l2-10 3-11 5-22c1-1 1-1-1-1-3 0-3 0-3 5m42 0l5 17a227 227 0 017 21c1 0 0-8-2-13l-4-15-5-13c-1-2-1-2-1 3m212-1c-3 2-4 3-2 6l1 7 1 6c0 2 9 4 9 2l4-3c3-1 3-1 2-5-1-7-2-9-7-9-4 1-5 1-3-4 1-2 0-2-5 0m-46 1l3 9a292 292 0 0120 52c2 0 1-6-1-15-3-12-8-24-16-39l-3-7-1-1-2 1m-104 18c-2 0-2 1-1 2l2 6a498 498 0 0026 60l-2-11c-1-3 2-10 4-10 5 1 5 0 5-8-1-12-8-23-20-34-6-6-8-7-14-5m-87 11c-5 5-3 7 5 7 8 1 9 2 2 4l-4 3 2 5c1 3 2 4 3 3h11c4 2 3-3 0-9l-5-10c-1-2-2-4-5-5-5-3-6-2-9 2m-9 15c-6 14-6 23 3 28 4 3 4 3 0-6-3-9-2-22 2-27v-3c0-2-2 0-5 8m-26 0c-1 3 0 9 1 16 3 18 7 27 16 37 5 7 6 8 9 7 11-1 17-11 9-14l-8-5c-2-3-4-4-7-4-5 0-13-8-13-13l-3-9-3-14-1-5v4m110 1c-2 8 0 24 5 46l1 4 7-5c8-5 15-7 19-5 2 1 2 1 1-1l-2-6-4-8-6-11c-7-13-11-17-16-17-3 0-4 0-5 3m-76 3c-1 6-1 14 2 22 2 8 3 8 2 0-1-6 0-11 1-14 1-2-1-13-3-13l-2 5m185 5c-4 0-4 2-4 6 1 5 1 5 6 5 5 1 6 0 4-7-2-5-2-5-6-4m-175 6v7l-1-3c-2-3-3-1-3 6s2 12 2 6c0-8 3-11 11-11 5-1 5-3 1-5h-10" fill="#d3d3d3" fill-rule="evenodd"/></svg>