<svg xmlns="http://www.w3.org/2000/svg" width="400" height="225"><path d="M358 12l1 11 1 90v89H42c-1 0-2-2-2-8v-9H0v40h180v-17h91c74 0 92-1 93-2s2-17 2-78V51l17-1h17V1h-42v11M99 45v4h6c5 0 6-1 6-2h1c0 2 1 2 5 2s5-1 5-2l1-1 1 2c0 1 3 2 3 0h2l3 1c2 0 2 0 2-3-1-3-7-5-8-1h-1c0-2-2-3-2-1h-1l-3-1-2-1-2-1c-2 0-3 1-3 2s0 2-1 1c0-2-4-1-5 1 0 1-1 1-1-1s-1-3-3-3c-3 0-3 0-3 4m83-3c1 1-2 1-11 1-3 0-3 1-3 3s0 3 5 3 5 0 5-3l1-2v2c0 3 0 3 4 3 3 0 4 0 4-2l1-2v2l1 2 2-2c1-2 1-2 1 0 0 3 8 3 8 0l1-2v2c0 3 9 3 9-1 0-2-1-3-3-3l-4-1h-2c-1 1-2 2-3 1-2 0-3 0-3 2h-1c-1-1-2-2-5-2l-4-1-2-1-1 1m71 1l-3 1-7-1c-6 0-6 0-6 3s1 3 6 3c4 0 5 0 5-2 1-2 1-2 1 0l2 2 2-2 1-2v2l2 2c2 0 3-1 3-2l1-2v2c0 2 2 3 2 1l1-1v3l2 1 4-1c0-1 1-2 2-1 3 0 3 0 3-3s0-3-5-3l-6 1h-1l-3-1-3-1c0-2-1-1-3 1m-41 1l1 3v4c1 0 3-1 3-3 2-3 2-3 2-1 1 3 15 3 15 0l1-3c1-1 0-1-2-1-3 0-4 1-4 2l-1 2-1-2c0-2-9-3-10-1h-4M109 65l-2 1c-3 0-7 4-7 6-1 4 1 8 5 10 4 1 4 2 4 6s0 4-2 3l-2-2-3-1c-5 0-2 6 4 8 2 0 3 1 3 2h3l3-2c3 0 7-4 7-8 0-5-2-8-6-9-3-1-4-1-4-5s1-5 3-2c1 2 7 3 7 2 0-3-3-6-6-7l-4-3-1-1-2 2m23 2c-2 1-5 5-5 7 0 1 6 0 7-2s2-2 4-2c7 1 6 7 0 8-5 1-6 5-1 5 4 0 7 2 7 5 0 4-8 5-10 2l-5-2c-3 0-3 0-2 2 2 6 11 9 18 5 6-3 7-11 1-13l-3-1 3-3c8-7-3-16-14-11m29 0c-9 5-10 22-1 28 5 3 12 2 15-2 9-9-4-22-13-14-2 1-2 1-2-1 0-6 7-10 10-6 2 2 7 2 7-1-1-4-10-7-16-4m28 0c-6 3-9 14-6 22 5 12 23 9 23-4 0-6-11-11-16-7-2 2-2 2-2 0 0-6 7-10 10-6 1 1 7 2 7 0s-3-4-6-6c-4-1-6-1-10 1m39-1c-5 3-7 8-2 12l2 2-2 2c-3 1-5 5-3 9 3 9 22 7 23-2 0-4-2-8-5-8-1 0-1-1 1-3 7-7-3-16-14-12m29 0c-9 5-9 25 0 30 10 5 21-6 16-15-3-5-11-6-15-2-2 1-2 1-2-2 2-6 6-9 10-5l5 1h3l-3-4c-3-4-9-5-14-3m27 1l-5 4c-1 2-1 3 2 3l4-2c4-4 10-2 9 3 0 2-1 3-4 3s-4 0-4 3c0 2 1 2 3 2 3 0 6 2 6 5 0 4-6 6-10 2-2-2-7-3-7-1 0 7 14 10 20 5 4-3 4-9 0-12l-3-2 3-2c7-7-4-16-14-11m-55 87l-1 7v7h23c27 0 25 0 25-7 0-8 1-8-24-8l-23 1m-85 6c-2 3-1 4 2 3l4-1h4l5 1h11c1-1 2-1 2 1h3l6-1 5-1h1l2 2 12-1 11-1h1c1 1 4 1 4-1-1-2-12-3-13 0l-2-1h-3l-3-1h-10a200 200 0 00-27 0h-4c-1-1-11-1-11 1m-6 26l27 1 29-1-28-1-28 1m68 0l28 1 28-1-28-1-28 1m168 13c-2 1-2 3-2 6 0 8 9 11 14 5 6-8-4-18-12-11" fill="#d3d3d3" fill-rule="evenodd"/></svg>