<svg xmlns="http://www.w3.org/2000/svg" width="400" height="225"><path d="M92 33C72 45 66 49 67 53c0 2 1 2 2 1v-2c0-2 4-6 6-5 3 0 2 1 0 4-2 2-3 4-3 12-1 11-2 15-6 17-4 1-4 2 1 5l4 2 4-3c6-2 6-2 6 0l1 2V65l7 3c6 3 6 3 6 8 0 8-2 16-4 18l-2 2 6 4 5 2 5-2 7-2 3-2c2-2 2-2 8 2l6 3 14-8c18-9 17-8 12-11-4-2-6-5-4-6V44l-19-11-20-11-20 11m163 32c0 5 0 5 1 4s2-2 3 0c1 1 3 1 4-1h2c0 2 3 2 5 0 1-1 1-1-1-1-2 1-2 1-2-1l2-2c2 0 3 1 3 3 0 3 6 4 6 0 1-3 3-4 3-1l1 3 1-4-1-5-1 1-2 2c-2 0-3 0-3 3l-1 1-1-3c1-2-1-4-2-2l-3 1h-3c-2 2-2 2-3 0-2-2-4-1-5 1-1 1-1 1-1-1l-1-3-1 5m76-3h-2l-4 1c-1 2-2 2-3 0h-3c-2 1-3 4-1 6 2 1 5 0 5-1h2c2 2 5 1 5-1v-3l1 2 2 3c1 1 1 1 1-3 0-2 0-2 1-1 2 1 2 2 1 2-2 1 1 3 3 2 2 0 2-6 0-7l-2 1h-3c-1-2-3-2-3-1M170 80c0 3-3 5-41 27-19 10-22 13-21 15l26-14a839 839 0 0127-13c0 2 3 6 4 6v-3c-2-4 0-8 5-11 2-1 3-2 3-4l1-3 1-1c-2-2-5-1-5 1m33 3l-3 8c-11 27-13 33-11 34 1 1 3-2 9-20l10-22c1-1 0-2-2-2l-3 2m17 55c-21 12-28 17-24 17a1419 1419 0 0049-30s-12 5-25 13m41-3l-10 5v22h12c1-1 1-1 0 0l-2 3c1 1 0 1-2 1-4 0-6 4-2 5 5 2 10-1 6-3-3-3 0-2 4 0 3 2 4 3 3 4-2 2 1 4 6 4l7 1c1 1 2 0 7-2 5-3 6-4 5-5v-2c2-1 2-1 0-3s-2-2 0-2l4-2 2-2-2-1c-2-1-2-2-2-9s0-8-2-9l-3-3-4-2-8-4c-5-3-8-3-19 4m37 40a993 993 0 01-3 4c23-13 24-14 24-16l-21 12" fill="#d3d3d3" fill-rule="evenodd"/></svg>