<svg xmlns="http://www.w3.org/2000/svg" width="400" height="225"><path d="M145 15c-4 1-3 6 2 8 4 2 4 3-1 2-5 0-5 2-1 4s9 0 9-4c0-2-1-3-4-4l-3-3h7c0-2-6-5-9-3m51 0c-2 1-1 14 1 14l1-2 2-2c5 0 8-6 5-9-2-1-8-2-9-1m-40 4l-1 5c0 3 2 5 5 5 5 0 8-6 4-9-1-2-6-2-8-1m17 1v3c-1 0-2 3-1 5l6 1c4 0 4 0 4-4 0-6-5-10-9-5m35-1l-1 5c0 3 2 5 6 5 5 0 7-6 3-9-1-2-6-2-8-1m58 30l-2 4-2 2c-2 0-4 2-4 5 0 4 1 5 4 5 2 0 2 0 0-1l-2-1-1-3c0-3 4-3 10-2 4 1 5 1 5-1 2-8-3-13-8-8M125 63v3h7c6 0 7-1 7-2h1c1 2 8 2 8 0h1c0 1 1 2 6 2s5 0 5-3 0-3-2-2h-25l-3 1c-3 0-3 0-2-1s1-1-1-1-2 1-2 3m37-2v3l-1 1c1 2 9 1 9-1h1c1 2 7 2 7 0h1l1 2h1l2 1 2-1h2c2 0 2 0 2-2 0-3 0-3-4-3h-7c-2-1-3 0-4 1h-2l-3-1h-7m178 11l-1 1h-3v1c1 1 1 1-1 1h-1v1h-1l-1 1h-2c1 1-5 4-7 3v2h-1l-2 1h-1c1 1-3 3-5 2v1c1 1 1 1-1 1h-1v1h-1l-1 1h-3l-1 1 2 1c1 0 2 1 1 2 0 2 0 2 1 1 1-2 1-2 2-1l2 1 2 1 3 2v2c0 2 0 2 1 1 1-2 3-2 3 1 0 2 2 3 2 1 1-2 5 1 5 3h3v1l-1 2 2-1c1-2 2-1 1 1 0 2 0 2 1 1 2-1 2-1 4 2 1 2 1 3-3 6l-3 6-1 2v-3l-1-4c-3-2-4-1-2 2 1 3 0 4-3 2-3-3-3-2-3 3v7l-1 5-3 5c-3 0-2 1 3 4l5 3 4-2c3-1 4-2 3-3 0-2 0-2 2-2 1 1 1 0 1-7s0-8-2-9c-2 0-2 0 0-2l3-1 1 11 1 11 3-3 5-3v1c-2 2-3 1 6 7 2 1 3 1 17-7l14-8-4-3c-4-2-5-4-3-6V92l-10 5a1301 1301 0 00-11 5c16-9 18-10 15-12l-1-1h-2v-2h-1l-1-1h-3l-1-1h-1v-2l-4-1h-1l-1-1h-1v-2l-4-1h-1l-1-1h-1v-2l-4-1h-1l-1-1h-1v-1c1-1 1-1-1-1-1 0-2 0-1 1m-63 52l-1 42c0 2-7 2-72 2-71 0-72 0-72 2 0 5-1 5 76 4l74-1 2-16 2-14-2-3v-4c1 0 2-13 0-13l-1-17c0-17 0-18-2-20l-3-2-1 40m24-20v4l-1 5c0 8-2 13-5 14-4 2-4 2 1 5l4 2 4-3c4-2 7-2 6 1v-6c-2-1-1-15 1-15 2-1 1-5-1-5-2-1-2-1-2 2v3l-3-3h-2v-1c2-2 2-3 1-5-2-2-3-1-3 2m-165 26c-3 3-1 9 4 9 7 0 9-8 3-11-3-1-4-1-7 2m69-1c-2 2-3 6 0 8 4 4 10 1 10-4 0-3-3-6-6-6l-4 2m163 19c-27 15-33 20-32 21a1539 1539 0 0062-38l-30 17m-140 40v7h47v-14h-47v7" fill="#d3d3d3" fill-rule="evenodd"/></svg>