<svg xmlns="http://www.w3.org/2000/svg" width="400" height="225"><path d="M258 16c-2 3-3 7 0 11 2 3 9 3 10 0 2-3 0-4-2-2-4 2-6 1-6-3s2-6 5-4c2 2 4 2 4 1 0-2-4-5-6-5l-5 2m-145 5l-2 7c0 2 3 1 3 0l3-2c2 0 3 1 3 2l2 1c2 0 2 0 0-7-3-9-6-9-9-1m46 1v7h5l5-1c0-1-1-2-3-2l-3-1c0-2 1-2 3-2 4 0 4-2 0-3-4 0-4-3 0-3l3-1-5-1h-5v7m39-4l-2 1h-8l-1 5 1 4c2 1 7 1 8-1 2-2 0-3-2-1-3 1-4 1-4-3 0-2 0-2 4-2h3c0-3 2 1 2 4s1 4 3 4 3-1 1-2l-1-4 1-2c2 0 1-2-1-4s-2-2-4 1m36-1c-1 1-1 4 1 10 0 1 1 2 3 2s3-1 1-2v-7c1-1 2 0 3 4 2 5 2 6 0 6l-1 2c0 2 4 1 5-1 2-2 5-12 5-13-2-1-4 1-4 4l-1 4-1-4c-1-3-2-4-4-4l-3-1c-1-3-3-2-4 0m38 3c-4 3-1 9 4 9 3 0 5-2 5-5 0-6-6-8-9-4M91 59l-1 4c0 2 1 3 5 3l6-1h1l4 1c3 0 3 0 3-3 0-2-1-2-2-2l-4-2c-1-1-1-1-1 1s0 2-1 1l-3-1c-1 1-2 0-3-1h-4m25 0l-1 4c1 4 11 4 11 1v-2l1 2c2 3 3 3 4-1l1-2v2c0 3 4 4 4 1 0-2 0-2 1 0s1 2 2 1 1-1 1 1c0 1 1 2 4 1l1-3c0-4-2-5-5-3h-1l-3-1c-2 1-3 0-3-1l-2 1-3 1-4-1c-2 1-4 0-4-1h-4m194 70v51H209c-98 0-100 0-100-2l-1-2c-1-1-1 2-1 8l-2 7c-2 4-2 5 0 2 1-1 3-4 3-7l1-4h53l102 1h49v-52c0-41-1-52-2-53l-1 51M40 103L3 124c-3 1-3 1-3 8l1 7 16 10 32 19 17 9 12-7c10-6 12-7 12-9l-1-4v-1l1-12-1-12c-1 1-2 0-2-1l2-1c1 1 1-1 1-17 0-20 0-22-4-19-3 3-3 3-3 0 0-6-5-11-9-11l-34 20m82-7c-1 2 1 5 3 3h2c1 1 5 1 6-1 1-1 1-1 1 1v2l1-2 1-1c0 2 2 2 3 0 1-1 1-1 1 1h2l1-1c0 1 1 2 4 2 2 0 3-1 3-2h1l6 2c6 0 6 0 6-3l-1-3-1 1h-1l-2 1h-1c0-2-1-2-1-1h-14c-10 0-14 1-15 2-3 1-4 1-4-1l2-1h1c0-2-4-1-4 1m66-1h-23v3c0 3 0 3 2 2h3l1-2h1c1 1 2 2 3 1l2 1h2l5-1c2 1 3 0 3-1 0-2 0-2 1 0l1 3 1-3c1-2 1-2 1 0 0 1 1 2 5 2l4-1v-3l-4-1h-8m23 0l1 4c1 1 1 1 1-1l1-3 1 3c0 1 0 2 1 1 0-2 2-3 2-1s3 2 5 1h1c3 1 14 1 14-1h1l3 2c3 0 3 0 3-3s0-3-2-2h-6l-4 1h-1c-2-1-5-1-6 1h-1c0-1-1-2-3-2l-8-1c-4 0-4 0-3 1m-1 11c-1 2 2 4 3 2 2-2 2-2 2 0h3c2 1 6 1 6-1h1c1 2 2 2 3 2h8l2-2c0-2-1-3-6-3l-6 1h-1c-1-1-14-1-15 1m-170 3l-3 2-3 3-1 1c-2 0-1 2 1 4v3c-4 3-6 2-9-1-4-3-5-4-5-1 0 2-2 4-5 4s-3 1 1 5l1 3-4 3-4 3 3 1c3 2 3 2 6 0s4-3 3-4h1l1-1v-2l-1-2h7l2 1c2-2 0-3-6-3l-5-1 1-2 1 1 1 1 1-1c-1-1 0-1 3-1s4 0 4 2h1c0-3 7-3 8 0 1 1 0 1-4 1-2 0-3 0-2 1 3 0 5 4 4 7-1 4 2 3 13-4a154 154 0 0115-8c2-2 2-2-1-4l-5-2-9-5-4-3c-3-2-7-3-7-1m45 17l-1 2c0 2-1 3-3 2-2-2-4 0-4 2 1 2-1 4-3 2h-3l-4-3c-2-5-3-5-4 1-1 4-2 5-5 6l-3 3h-3c1 3 4 3 6 2 3-2 2 0-1 2l-4 1-2 1 6 4c2-1 12 4 10 5-1 1-1 1 1 1 2 1 11-3 10-5l6-3h2l-1-1-1-2 1-2h3c0-1-4-7-6-7-2 1-1-1 1-2s3-2 2-3l2-3c2-2 1-4-2-3m-52 15c-3 2-5 2-9 2-8-1-9-2 18 14 22 13 23 13 26 12l3-1-2-1-21-12-18-10 3-2 4-3c0-1-1-1-4 1m228 50v13h46v-14h-23l-23 1" fill="#d3d3d3" fill-rule="evenodd"/></svg>