<svg xmlns="http://www.w3.org/2000/svg" width="400" height="225"><path d="M291 17c-3 0-1 1 12 9l15 9-15 17-16-9c-14-8-16-9-16-7l2 4 31 18 29-18c3-3 1-5-15-15-17-9-19-10-27-8M128 32c-10 6-14 8-14 10v35c1 6 3 5 18-3a384 384 0 0115-10h-3l-25 15c-2 0-1-3 1-4l1-2-1-1c-2 1-2 0-2-1l2-2 1-2-1-1c-2 1-2 0-2-1l2-2 1-2-1-1c-2 1-2 0-2-1l2-3 1-2-1-1c-1 1-2 0-2-1l2-3v-3h-2c-1-2 25-17 26-16 2 0 1-5-1-5-1-1 1-2-15 7m0 12c-4 2-6 3-6 5l1 3v4l-1 2c1 2 11-5 12-8 0-2 0-3-2-2l1-2v-3l1-2-6 3m144-1v6c0 6 0 7-2 8l-3 3 37 22 16-8c20-11 19-10 14-13l-3-2V46a17315 17315 0 00-26 15 350 350 0 01-33-18M139 57c-5 3-6 4-5 1l-6 2c-6 3-6 4-6 8l1 4v1l-1 2 12-7-1-1 4-3c5-3 6-4 6-6v-3l-4 2m125 7l1 2 41 24c2 0 35-21 35-22-1-3-4-2-20 7l-16 9-19-11c-20-12-21-12-22-9m-52 18l2 5c5 14-1 29-13 31-4 0-13 0-16-2-4-1 0 3 3 5 4 2 18 2 22 0 10-6 12-20 6-33l-4-6M92 111v4c1 2 0 3-1 6l-3 3 2 4c3 6 2 15-3 22-4 6-4 8 4 11l6 3c2 0 1 2-2 4l-3 1 17 10c16 9 18 10 20 9 1-2 2-2 6 0l9 2h5l-1-6a486 486 0 001-29c2-8 2-9-1-10-2 0-2 0-1-2 2-3 0-5-18-15-20-11-19-11-24-8l-3 2-1-2-1-2-1-4c0-3-1-4-3-4l-4 1m170 19l-9 6v14l1 19 1 4h5c6 0 12 3 12 6-1 4 8 4 9 0 2-2 5-4 9-4 6 0 6 0 6-19v-16l-6-4-12-7-6-4-10 5m-157 10c-2 0-1 19 0 20h3c1-1 4 1 14 7l13 7v-5l1-8v-4l-3 4c0 1-1 2-3 2l-3 1v-13l-10-6c-10-6-11-6-12-5" fill="#d3d3d3" fill-rule="evenodd"/></svg>