<svg xmlns="http://www.w3.org/2000/svg" width="400" height="225"><path d="M0 28v26h4c4 0 4 0 4-4 2-8 8-15 16-17l4-1V2H0v26m98-11v15l4 1c8 2 14 8 15 17l1 4h35v-3c0-8 6-15 14-18l5-1V2H98v15m144 0v15l5 1c8 2 15 11 15 19 0 2 1 2 13 2h13v-4c2-8 8-15 16-17l4-1V2h-66v15m136 0v15l4 1c8 2 15 10 15 18 0 2 0 3 2 3l1-26V2h-22v15M0 76c0 13-1 11 7 21 19 23 48 60 49 63 2 3 2 6 2 21 0 18 0 18-2 18-4 0-3 1-26-29L4 137l-4-5v68h13l13 1H0v11c0 9 0 10 1 7l1-8-1-4h5l31-1h27V64H0v12m340 49v61l3-2c3-3 13-5 15-4l-1 1-2 2a5172 5172 0 00-2 40c-1 1 16 2 29 2h7l2-4 1-9c0-4 0-5 2-5 5 0 6-1 6-5s2-1-32-45c-10-13-19-24-19-26V96a353 353 0 0150 62l1-44V70h-21l-20-1h41v-5h-60v61M96 100l-3 4c-3 2-6 11-6 16 0 3 1 4 4 4 5 0 11 11 6 11l-1 2h4l1-9c0-5 1-8 2-9l1-4 1-6v-4l-2-4c-1-3-7-4-7-1m202 9v11h6V98h-6v11m-187 6c-8 6-8 10 1 16 5 3 5 3 2-4-2-5-3-6-2-8 1-3 2-4 4-1 1 1 1 1 1-1l2-4c3-4-1-2-8 2m-4 24c-5 4-14 26-14 34l6 12c3 3 3 3 5 2l4-2c2 0 1-1-2-5-3-5-3-7-3-10l7-16c1 0 6 13 6 16l-2 8c-2 5-3 8-2 12l-1 5c-2 0-1 9 3 20l3 10h23l1-3c2-4 6-24 6-27l-1-7c-2-5-2-5 0-5s2 0 2-12v-12l-4-5-7-10c-3-5-4-6-17-6-9-1-11 0-13 1m68 16c-4 1-5 4-5 16 0 10 0 11 2 13 3 2 9 3 10 1s0-2-3-2c-5 0-6-2-6-12 0-13 0-13 10-13s15-2 7-3h-15m11 60l2 6v4h19l19-1 1-4 1-3-10-1c-10 0-26-2-30-4-2 0-2 0-2 3" fill="#d3d3d3" fill-rule="evenodd"/></svg>