<svg xmlns="http://www.w3.org/2000/svg" width="400" height="225"><path d="M0 11c0 10 0 10 2 10 1-1 2 0 3 2 2 3 1 4-2 4H1l-1 7 1 7 3-2c0-2 3 1 3 3-1 4-2 5-4 4H1v3c-1 0-1 3 1 5v8c-2 1-2 4-2 17l1 15 1 3c0 4 1 5 3 5 3 0 3 0 3-2-1-2 0-3 1-3a123 123 0 003 11l-2 3v2l1 5c0 3-1 4-2 4l-2 2-1 2-1 4-1 3-2-1-1-1-1 19c0 11 0 19 1 18h2c1 2 1 2-1 2-3 0-3 2 0 4l3 1H2l-2 1v49h62a1164 1164 0 0059-3l-1-3v-4l4-6-1-3 3-6 2-4 2-6c2-4 1-7-1-8l-2-3-3-2c-4-2-5-5-3-5s4-7 3-10v-4c0-2 0-3 2-4s3-3 3-6c0-8 0-8 3-8 2 1 7-3 8-7l4-3c2 0 3 0 2-1s-1-2 3-6c3-2 2-5-1-5s-3-1-3-2c0-2 0-2-1-1-1 2-2 1-1-2 1-4 3-6 3-4h3l1 1 1-2h-1v-1c1-2 0-3-2-1h-1l5-4c5-3 8-2 8 3 0 2 1 3 5 5l4 2-1-6c0-4 0-5 2-4v1l2 1v1l3 1 4 2c2 1 4 1 4-1h2c1 1 1 1 1-3v-3l2 2c1 2 3 3 5 3l3 2 1 1h2l1 1h2c2 2 4 2 5 1 1-2 4-1 4 2 0 2 0 3 1 2v-2l1-2h2c3-2 4-1 6 4l2 5v-5c0-6 3-7 5-3l2 2v-2l2-2c2 0 2 1 2 6 0 7-3 8-5 3l-2-2v2l-1 3c-1 1 1 1 3 1 4 0 5 0 5 2s-1 2-4 2c-2 0-3 0-1 1l3 2c0 2 1 2 3 2l4 3 4 4 2 2 3 3 2 3 1 1 1-1h2l1 5 1 5v1c0 2 4 8 6 8v1l1 2c2 0 3 1 3 2l-4 7-2 4c-1 3-1 4 1 6l1 3 8 8c2 1 3 4 1 4v1c1 2 0 8-1 8l-1 2v2l1 2 1 2v3c1 2 1 2 45 2a339 339 0 0048 0h3l-3-2c-3-3-4-4-2-4l4 3 2 3h33V0H0v11" fill="#d3d3d3" fill-rule="evenodd"/></svg>