<svg xmlns="http://www.w3.org/2000/svg" width="400" height="225"><path d="M0 42v43l4 2 5 2c0 1-1 1-5-1l-4-1v13c0 12 0 13 2 14l2 1-2 1c-2-1-2-1-2 54v55h401v-22l-1-15v7h-18l-25-1h-8l-1-10-3-16c-1-8-1-8-5-6-3 2-3 2-5 0-2-3-3-7-2-7 1-2 8-1 9 1s1 2 1-2v-4h-6l-15-3c-11-2-12-2-12 1 0 2-1 3-5 3-6 1-6 1-6-11l-1-11 5-1c6 0 6 0 7 7v5h7l10-2h3v-13l19-3 48-6c3 0 3 0 3 3 0 2-1 3-2 3l-2 1h4v29l1-61V0H0v42m184 15l-23 12c0 2 3 1 10-2l8-2 2 1c1 0-1 2-5 3l-7 4-12 6c-10 4-14 6-11 6l13-5c12-5 16-6 14-4h3c2 0 2 0 1 1s0 1 3 2c3 0 3 0 1 1-1 1-1 1 1 1v1c-1 1-1 1 1 1l-2 3c-4 4-6 9-3 13 7 7 17 4 18-5 1-4 0-5-2-6-3-2-2-3 7-6 18-6 16-7-2-1l-13 3 2-1c4-1 4-2 1-2h-1c1-1 2-2 1-3l1-3v-3c-2 0-2 0 0-1l2-2v-2l-1-1c-1 0-2 0-1-1l-3-1-2 1 2-2 3-2-3 1c-3 0-3 0 1-2 7-5 5-6-4-3m28 42c-2 0-4 2-5 3l-2 1c-1-1-5 4-6 6 0 4-2 7-5 8-2 0-3 1-3 2l-3 1h-2l-3 1c-1 0-2 0-1 1l-3 4c-4 4-7 8-6 10l-1 3c-1 1 0 2 1 0l3-1c2 0 2 0 0 2-1 3 0 7 5 11l4 3h2c1-3 3-2 6 6 5 10 9 17 10 16l4 5c5 6 7 7 10 7l3 1h-2c-2 0-2 0-1 2l6 2 15 4c11 4 13 4 4-1l-11-7-7-5c-4-2-18-18-20-22l-2-6a470 470 0 00-7-19c-3-3-3-7 0-4h2c1-2-1-4-3-3l-2-1 1-1 4-2c1-2 3-3 5-3l2-2 2-1c1 1 2 0 2-1l1 1 1 3v-3l2-6 4-7c1-5 3-6 4-1 0 2 0 2-1 1s-1-1-2 1l-1 3v11c0 2 2 3 3 1l1-2 1 1c-1 1 1 6 5 11 3 4 5 2 5-4l1-4c2 1 5-2 5-5l1-4v-7l-3 2-2 1-1-1 2-2 2-1c0-3 3-3 5-1l3 2 1 1h1c0-8-25-16-34-11m78 32l-6 1-3 1h-1c-1-2-3 0-3 3 0 7 1 8 5 8h4l-4 1c-3 0-3 1-4 4v4h3l4-1 1-2c0-1-1-2-2-1l-2-1c-1-1 0-1 2-1l3-1v-5c1-2 1-2 1 0l2 2v1l-2 1 2 2v1l-1 2c0 3 6 2 7-1 0-1 0-2-2-2v-1c5-3 1-17-4-15m-32 5c-2 1-2 2-1 6l1 5v1l-1 4 1 3h4l6-1 1-3c0-4 0-4-4-4h-4l4-1c3 0 4-1 4-4 0-6-4-8-11-6m-123 24c-2 0-4 11-2 13l9-5 1-5c0-4 0-4-3-4l-5 1m178 6l-11 1c-8 0-15 2-22 4-2 1-2 1-2-1 0-4-4-4-4 0l-4 5c-3 3-4 7 0 8 4 2 12 0 13-4 1-3 2-3 4-3l1-2c0-2 1-2 3 0 4 3 17 1 15-3l3-1 5-3c1-1 0-2-1-1m-1 14c-3 6-5 9-9 12l-15 13c-2 3 4 6 8 4 5-4 19-26 21-34 2-6-1-4-5 5m-28 4l-10 2c-7 0-10 2-10 5 0 2 6 5 8 4l7-1c4-1 4-1 3 1l1 2 3-6 2-6c2-3 0-3-4-1m-143 13l-5 1 8 2 16 1c8 0 8-1 6-2-4-2-18-3-25-2m123 11c-1 3-1 3 1 3l4 1a96 96 0 0040 3l2-1-18-3-5 1c0 1-2 1-5-1l-11-3-5-1c-1-1-2-1-3 1" fill="#d3d3d3" fill-rule="evenodd"/></svg>