<svg xmlns="http://www.w3.org/2000/svg" width="400" height="225"><path d="M0 113v112h53l53-1 2-3 1-1c-2 0-1-2 1-4s2-2 1-3l3-2c5-1 12-9 8-9l2-1 1-2-2-1h4l9-1c8-1 14-3 9-3l-3-1h-15l2-1v-1c-2-1-2-1-1-2 1 0 5-3 8-7l9-10 3-3h7l89-2h27l4 2 5 3 1 1 1 1 3 2 3 2 2 2 3 1c3 0 5 1 4 2l2 1c4 1 4 1 3 3-1 3-1 3-6 3l-5 1 4 1c8 0 21 4 21 7l3 2 3 1 5 2c4 2 5 2 3 2-4 0-1 2 3 2l5 1c6 6 7 7 7 9-1 1-1 1 3 1l5 3c4 3 4 3 18 3s17-1 8-3l-8-2a394 394 0 00-10-6v-2l-2-2c1-1-2-2-3-1-1 2-6-2-6-4 1-1 0-1-2-1s-2 0 0-1c1-1 0-1-4-2s-7-2-9-4l-5-3-2-1 6-1h6l1-1c2 1 0 3-3 3-2 0-2 0 1 1h4c0-2 6-1 10 1 2 1 3 1 2 2s0 1 2 1c4 0 6 2 2 2l2 1 4 1 6 3c-1 1 0 1 3 2l5 2 5 2c4 1 4 1 3 2-2 1-2 1 1 2l8 3c6 2 5 3-3 2l-6 1c1 1 12 3 13 2l1-112V0h-29a125 125 0 00-37 3c-2 0-1-1 2-1 3-2 3-2-5-2l-11 1h-3c0-2-10-1-11 1-1 1-1 1 2 1h3l-3 1c-4 2-9 3-9 2l3-2c3-1 3-1 1-1l-5 1c-2 1-5 2-6 1-2 0-2 0 0 1l7 2h5l-4 2h-5c-2 0-2 0-1 1 2 2 11 0 18-4l8-2c5 0 5 1-1 2-3 0-5 1-5 2l-3 1c-3 0-8 2-7 3l-3 2c-2 0-4 2-5 3l-6 2c-2 0-3 0-2-1l1-1 1-1 1-2c0-3 0-3-4 1-3 3-5 4-10 5l-7 2 13-1c10 0 13 0 12 1l-6 1-9 1-14 2-9 1-1 1-9 1h-5l-5 1c-4 1-7-1-3-1h-2l-7 1h-6a172 172 0 00-48 2l-3 1-10-1c-6 0-10-1-11-2l-1-1h-2l2-1 3 1 2 1v-1l1-1h1c1-1-1-3-4-4-5-3-5-3-3-3l4-1-3-1c-4 0-6-1-5-2l-3-1-3-1 3-1 5 1c2 0 2 0 1 1s0 1 3 1c4 0 5-1 2-2l-5-1c-4 0-4 0-2-1 1-1 1-1-1-1a252 252 0 0132-4c0-1 3-2 10-2l13-2h-10l-10-1V3l4-1c1-2-9-2-90-2H0v113m151-69c-2 1-1 2 9 3 12 2 24 2 33 1l8-1-18-1a34340 34340 0 01-32-2m4 72l3 3 4 6c0 2 2 4 4 5l4 2h5c3 1 2-2-2-5l-5-4c0-1-10-9-12-9l-1 2m129 52l2 1 1 2 2 1c4 0 7 3 6 4-2 3-1 3 9 5 2 0 3 0 2 1s-1 1 1 1l6 3 15 4c6 0 7 0 6-2 0-2-4-4-7-4l-5-2c-1-2-4-3-5-3-2 0-3 0-2-1l-1-1-2-1-2-2-2-1-5-3-6-2-7-1-6 1" fill="#d3d3d3" fill-rule="evenodd"/></svg>