<svg xmlns="http://www.w3.org/2000/svg" width="400" height="225"><path d="M252 23l-3 1c-2-1-5 0-5 1s3 2 4 1h2v3c-2 0-3 4-1 4v1l-1 4c0 3 0 3-2 3h-2c0 2-6 3-8 2l-3-2-2-1 1-1c1-2 1-2-1-2l-2 2-2 1c-2 0-2 0-1-1l1-2c-1-1 1-2 6-1l4-1h-28c-1 1-1 1 2 1l4 1c0 2-6 2-9 0-2 0-2 0 0-1 1-1 1-1-1-1l-3 1h-1l-2 1-2 4-3 2-1-3c-2-1-2-2-3-1-2 1-7 1-7-1v-1l-1 2c0 1-1 1-2-1l-4-3h-4c-1-1-2-1-2 1h-2c-1-2-4-2-5 0-1 1-4 2-5 1l-6-1-5-1-1-1v1l-1 1-3 2c-1 1-1 1-1-1v-2l-2-2c-1-4-4-3-5 1 0 2 0 2 1 0 0-3 3-3 3 0 0 4-5 8-8 7h-9l-2-1-5-1c-3 0-5 0-4 1l-1 2c-2 0-6-2-5-3h1l1-1-11-1c-12 0-13 0-12 3l-3 1-1 1H69l2-1c1 0 2 0 1-2l-1-1c0 2-4 1-4 0 0-3-3-2-3 0s0 2-1 1l-1-2v2h-1c-2-2-8-2-8 0h-1l-5-1c-3 0-4-1-4-2l-1-3h-1v4l-1 2-2-3v-3l-3-1c-5 1-5 1-3 4v6l-1-1-6-1h-7v4c0 3 0 4 2 4l1-1h2l2 1H14c-2 0-2 1-1 1 2 0 0 3-2 3s-2 0 0-2c1-1 1-1-1-1-2 1-3 0-4-1l-3-1H0v18l1 17c1 0 2 1 1 2H1c-1-1-1 0-1 3s0 4 2 4a654 654 0 00104 6c-3-3-2-4 1-1l2 3c0 3-53 0-93-5-17-2-16-2-16 5l1 6 26 5 1 5c0 2 0 2 1 1 1-2 1-2 2 0l2 1 1 2a307 307 0 0029 6l1-5 1-5v5l1 6 31 6 1 7c0 6 0 6-2 5a6537 6537 0 00-29-5c-2 0-1 18 0 19l16 4c15 4 16 4 16 7 0 2 0 3 4 2 3 0 4 0 4 11l1 8 46-12a362 362 0 0136-9l-67 26-9 3 1 4c0 5-1 5-7 3h-6l-2-1c1-1 0-1-1-2l-2-2-2-2-2-2-2-3c-1-2-1-2 2-2h1c-2-2-2-2-1-3v-3l1-3c1-2 0-3-5-2l-2-1h-2c-6 2-8 2-8 1 0-2-1-2-3-1l-2-1v-3l-3-4c-2-3-2-3-6-3h-5l-2 1h-2l1 1c2 0 1 3-1 3s-3 0-2-2h-2c-2 2-4 3-3 1l1-1v-3l-2-1h-5l-1-2-3-1-2-1-1-1h-1c-1 1-2 2-3 1l-1 1c1 1 0 2-1 2l-2-1-2-1-1-2-1-2-1 3c0 2 0 2-2 2l-5-2c-3 0-3-1-2-2v-1l-1-1v-1l-1 1v-3c-2 1-2 1-4-1-4-4-6-2-6 5l1 7 1 1-1 1-1 8 1 9 1 1-1 1-1 18v19h7l8-1h1l6 1 6-1v-1l1 1 176 1h176v-7l1-10v17h19v-26c0-15 0-26-1-25l-3 1h-3l2-2 3-2h2l-1-4v-2l1-7-1-7v-6a416 416 0 00-1-53c0 3-3 6-6 6-2 0-3-1-3-2l-6-1c-7 0-9 1-10 5h-2c-1-2-9-3-9-1h-1l-2-1h-4c-8-2-10-2-12-1l-23-1-23-2 4 6c6 8 6 8 3 8a411 411 0 01-48-7l-15-2c-5 0-5 0-9 4l-3 5-8-1-19-2c-13-1-15-2-12-9l2-4h-3l-18 2a368 368 0 01-41 1v-2l-1-1h-10c-6 2-7 1-7-2 0-4-2-3-2 1-1 4-2 4-5 1-1-2-2-2-6-2l-4-1h-1c-2 2-11 1-10 0 0-2 0-3-1-2-1 2-2 2-3 1s-2-1-3 1h-7l-1-1c0-2-2-2-3 0l-1 1v-1l-1-1-1-2v-3c-2-1-5 2-5 4s0 2-1 1-1-1-1 1c-1 2-1 2-1 0 0-3-5-3-5 0v3l1 2-2-1-2-1-3-6c-2-7-3-8-4-3-2 4-5 4-5 0-1-3-3-4-6-4-5 0-6 1-6 5s-1 5-3 4l-1-5c0-3 0-4 3-5l2-2-2-5v-4h12l19 2h6v5c0 4 0 4 1 1 0-4 0-4 4-4 2 0 3 0 2 1l-1 2c0 3-2 2-3 0 0-2 0-2-1 0v3a118 118 0 0018-2l1-2h-2l-1-2v-2c-2 0-2 0-1-1l1-6c0-6 0-6 3-6 2 0 2 0 2 5 0 10 1 13 4 13 2 0 3-3 3-11 0-3 0-5 1-4l1 6c0 9 0 20 1 18l2-1v1c-2 1 2 2 9 2 4 0 4 0 2-1h-3l1-5c2-4 2-4 2-1s0 3 2 3c2-1 2 0 2 2v3h9c14 2 15 2 14 0l1-1 1 1 6 1h5v-5l1-5v-1c-2 0-2-1-2-3 0-4 2-5 6-3 3 2 7 0 7-3 0-2 0-2 6-1 7 0 8 1 8 2 0 2-6 3-8 1h-4c-2 1-2 1 2 2 7 1 55 3 56 2 2-2 7-4 7-2l-1 1-1 1 5 1c7 0 9-1 6-2-2 0 2-3 5-3h2l-2 1c-3 1-1 1 2 1v2c-3 3-2 3 10 3 11 0 11 0 7-1l-6-2h-2l-1 1-2-1h-2c-1 2-2 1-2-1 1-1 0-2-1-2l-1-2 3 1c2 1 2 1 2-1 0-3 0-3 3-3l6-1c1-1 2-1 5 1l4 1-1-2-1-1c0-2 5-1 6 1v1c-2 0 1 2 3 2v-1c-1-2-2-2 6-3 7 0 8 0 6-3-1-1 0-1 10-1l12 2c1 1 0 1-9 1l-4 2h3c2 0 2 0 2 2l-3 2c-5 0-6 1-8 3l-5 1c-3 0-2-2 1-2l2-1h-2c-2 0-3 0 0-2 1-2 1-2-2-2s-4 3-2 7c1 2 0 2-4 2-1 0-2 2-1 4 0 1 2 3 5 4l11 7c7 5 9 6 14 3h8a370 370 0 0114-2c0-2 3-4 4-4h8l10-1c4 1 6 0 4-1v-1l4-1h8l7-1 2-1 2 1h2l6-1h5l6-1h3c3 0 4-1 2-2v-1c1 0 2 1 2 3 1 2 1-6 1-17V40l-4-1c-4 0-4 0-3 2l-1 2v2l-1 1-1 3c0 3 0 3 4 3 4-1 6 1 4 2v1l1 2-1 1h-8l-1-2-1 2-1 1-1-2c1-1 0-1-4-1s-4 0-3-2l5-1c4 0 5-1 4-7l-1-5v11l-1-5c0-4 0-5-1-4h-1c0-2 0-2-1-1h-1c1-1 0-2-1-2l-12-3h-3c-2 1-2 1-2-1 0-4-8-7-10-3-1 3-10 5-11 3l-2-1-1-1h-1l-3 1-4 2c-1 2-2 2-4 1-1-1-1-1 1-2l2-2h-2c-2 0-3 1-3 2l-3 1c-2 0-2 0 0 1 2 0 4 3 1 3l-4-1c-3-2-4-2-5 0-1 1-2 1-7-2l-6-3-5-1c-3 1-4 1-4-1s-2-4-5-5c-3 0-3 0-4 4l-2 5-2 3c-1 2-3 2-7 2-7 0-8 0-8-4 0-3-1-4-2-4v-1l2-1c-2-2-4 0-4 3l1 3h1l-1 1c-2 0-2-1-2-6 0-3 0-5 1-4l1 1v-2c-2-3-1-3 1-2 1 2 2 2 3 1l3-1c7-1 8-1 7-2h-4l-4-1h-17M146 40c1 1 1 1-1 1-6-2-7 5-2 7 3 1 4 2 3 4l2 2c2 1 8 0 8-1l1-1h2l1 1c2 0 2 0 1 1v1c5 0 2-7-3-7-3 0-3 0-1-1 5 0 3-2-2-2s-5 0-6-2c-1-1 0-2 1-2 2-1 1-3-2-3-2 0-2 0-2 2m79 10v5h-5c-1 1-2 2-1 3v1l-2 2 1 2 1-1c0-1 1-2 2-1l1-2 2 1h3c1-2 1-2 3 0h3l4-2h4c2-1 4 0 4 2l1-1c1-1 2-2 5-2l4-1h-9l-9 1v-4c1-2 0-3-2-3-3-1-5 1-5 4l-1 2-1-3c1-2-2-5-3-3m-49 2l4 1h-4c-3 0-3 0-3 3 0 2 2 3 3 1 1-1 1-1 2 1l2 2c2 0 3-2 1-2-1-1 1-1 4-1h8c3-1 4 0 4 1 1 2 1 2 2 1 3-2-1-5-8-5h-6l7-1h7l-10-1-13-1h-3l3 1m19 58l-1 5-1 4c-2 1-3 0-3-5 0-3 0-4-2-4s-2 1-2 5c0 6 2 8 6 8s6-2 6-8c0-5-2-7-3-5m22 3c-3 8-4 10-1 10l2-1 3-1 2 1 5 1c4 0 4 0 4-3v-2l2 2c1 2 2 3 4 3s2 0 2-7c0-6-1-7-3-7s-2 0-2 3v3l-2-3c-3-5-6-2-6 7 0 2-1 1-2-3-3-8-5-9-8-3m-55-2l1 2 1 1-1 1v2c0 3-1 7-3 7v-1c2-2 1-3-1-2-1 2-3 2-4 1l-2 1h-5l-1-1c0 6 10 9 15 5 3-2 4-5 2-3l-1-1 1-5 1-3v5c0 3 0 3 1 2v-6c-1-4-4-7-4-5m11 6c0 5 0 6 2 6l2-2c0-2 1-3 2-3s2 1 2 3l2 2c2 0 2-1 2-6 0-6 0-7-2-7l-2 2-2 2-2-2-2-2c-2 0-2 1-2 7m26 0c0 5 0 6 2 6s2-1 2-4 0-3 1-1c2 2 3 3 4 0 1-1 1-1 1 2 0 2 0 3 2 3s2-1 2-6c0-6 0-7-2-7l-3 2-2 2-1-2-4-2c-2 0-2 0-2 7m157 5c1 2-1 4-3 3-1-1-3-1-6 1l-8 2c-3 0-3 0-3 5s0 5 3 5c18 4 20 4 16-1v-4c1-3 1-3-1-3l-1-1 1-1c3 2 5-5 3-7l-1 1M36 142l1 9 26 6c2 1 2 0 2-9v-10l-14-2-15-3v9m185 42c-7 3-8 4-6 5 3 1 22-2 24-5l6-3c6-1 4-1-6-2-8 0-9 0-18 5m100 14c-3 1 1 3 5 2 3-1 9 0 6 1-7 3-14 3-17 1-1-1-4 0-4 1l2 1 1 2c-1 3 0 3 1 1h4l4 1 5-1 6-3c3-3 4-6 1-5l-4-1h-10m-145 7l-4 2-3 1c-1 0-2 0-1 1l1 1 2 1c2 2 2 2 3 1h1c2 1 10 3 11 2l2-1v1c-3 2-1 3 3 2 4-2 6-4 4-4v-1c2-1 1-2-6-2l-11-1-2-1 3-1c4-2 2-2-3-1" fill="#d3d3d3" fill-rule="evenodd"/></svg>