<svg xmlns="http://www.w3.org/2000/svg" width="400" height="225"><path d="M6 18v12c-1 2-1 2-4 1-2-1-2-1-2 2s0 3 2 3a1291 1291 0 01116-14c13 0 17-1 12-2l-5-2c-1-1-4 0-4 2l-2 1c-2 0-3-1-3-2 0-2-2-3-3-1h-6c-4 0-5 1-6 2 0 3-10 1-12-3h-2l-4 2h-2l-3 1-3 1h-4c-1 0-3 0-4-2h-2l-1 1-1 2c-1 2-3 3-5 0h-4l-5 1h-5c-3 1-8 0-8-1l-1-2-3-1c-1 1-1 1-1-1s0-2-5 0l-5 1c-3-1-5 1-3 2v3c-1 2-3 3-3 1v-4l-1-2-1-1c0-2-1-2-3-2l-4 2m14 58l-2 2c1 1 0 1-2 1-1 0-2 0-1 1l1 2 1 2 1-1 1-1v-2c0-1 1-1 2 1 2 1 2 2 1 2l-1 1-1 1v2c0 2-1 1-3-1-1-1-1-1-1 2 1 4 1 4-3 4l-2-1-2-1c-1 1-2 1-2-1l-2-2v2c1 1 1 2-1 2H3v-2c-3 0-3 1 0 4 2 2 2 2 1 4v6c-1-1-2 0-2 1l-1 1c-1-1-1 0-1 1l2 2 1 2H0l3 3c2 2 2 2 0 2-1 0-2 0-1 1l-1 1-1 4 2 4v-3l1-2 1 4c0 2-1 2-3 2l-1 2c0 2 0 2 1 1 2-1 5 1 4 3l-2-1c-2-3-3 0-3 6l1 6v27l2 1-1 1c-2-1-3 22-1 23v1l-1 8c0 6 0 7 2 7l1 1-2 1c-1-1-1 0-1 4l2 4 1 2c1 2 4 3 4 1l2-1 2 1 6 1 6-1 1-1 1 1a2496 2496 0 00175 0 603 603 0 0087 0 806 806 0 00107 1l7-1v-27l-1-27-1 1-1 1c-1-1 0-4 2-3l1-8v-9l-3 1c-4 0-4 2-1 2 2 0 3 1 3 3h-1l-2-2-6-1 2-1 1-1 2-1c2 0 2 0 1-1v-3l1-1 1 3 1 2v-7h-3l2-2c3-2 3-13 0-12v-3h1c1 1 1 1 1-1s0-2-2-1-2 1-2-3c0-3-1-4-2-1l-2 4-2-2v-3l1-1h-3l-4-1 1-1 3-1c2-1 3-2 4-1v1l-1 2h5c1 2 4-1 4-4-1-1-1-1-3 1h-1c1-1 0-2-1-2l-1-2-4 1c-4 2-7 3-7 1l-2-1c-1 1-2 0-3-1-1-2-1-2-1 0v3l-1 1c-3 1-5 0-5-1l2-1c2 0 3-1 3-3s0-2-1-1c-2 2-3 2-3 1l-1-2h-2l1 1v1h-2l-1-2c0-2 0-2-3-2s-4 0-4 2l1 2 1-1 2-2c3 0 3 4 0 4v1l2 1 2 1h1l-1 1v1l2 2h1l2-1v1l-1 2c2 2-2 2-4-1-2-2-2-2-1 0 0 2 0 2-2 2s-2 0-2 2l-1 4-2 2-2 1c-3 0-3 0-2-2l1-1 2-1 2-1h-1c-1 0-5-3-3-4l1 1 2 1c2 0 2 0 1-1-2 0-1-3 2-3v-1l-4-1-3-1 3-1h1v-2c1-1 0-2-1-2l-1 1-1 2h-3l-1-1-1 2c1 2 0 2-1 2l-2-1 1-1c1-2 1-4-1-4v1c1 1 1 1-1 1s-3-2-1-2v-1l-4-1-1-1h-1c-1 2 1 5 2 3 1-1 1-1 1 1l1 3c2 2 2 8 0 8v4c-1 2-3 0-2-3h-2c-2 0-2 0-1 1l1 1-2-1c-2-1-2-1-1-2 2 0 2 0 1-1h1c2 0 2 0 1-1v-1h3v-4l-1-1-3-3c-3-2-5-2-5-1l1 1 1 1c1 2 1 3-1 2l-1 1v1l-3-2h-2c-2 0-2 0-1-1 2-3 0-3-2-1-3 3-7 4-5 2l2-1v-3l-1-3c-2-2-2-2-3 0h-6l-1-1-1 1c-1 1-1 2-2 1-1-2-2-1-2 1l-1 4-1-3 2-4v-2l1-1v-1c-2-2 0-2 2-1 4 4 6 5 5 3v-1c1-1 1-1-1-2s-2-1 0-1c1-1 2 0 2 1l1 1 1-1v-2l1 2 1-1 2-2h1l2-1v-1h-3l-6 1v-1l-2 1-2 1h-1c1 3 0 3-2 1s-2-2-3 0c-1 1-1 1-1-1 0-1 0-2-1-1l-2-1c-1-1-2-1-3 1v4l-1 2v2c2 0 4-4 3-6s-1-2 1-1l2 2 1 2 1 1-2-1c-2-1-2-1-2 1l-1 3v1l2-2 1-1-1 2v7c-1 1-1 1 1 1 3-1 3 0 3 2l1 2c1 1 3-2 2-2l1-1v-2l-2-1-1-1 1-1h3c0 3 2 4 3 3 2 0 2-1 2-3v-1l1 1 1 1c2 1 0 3-2 4h-2c-2 0-1 2 1 2l2 1v2h-2c-1-2-2-3-2-1 1 2 0 6-1 6-1-1-1 0-1 1l-1-1-2-2-1-1-1-3-2-1c1 2 1 2-1 2h-3c-2 3-4 1-4-3 0-3 1-4 2-5v-3l-1-1v-1l-1-1-1 3v3l-1-1-1-3c-2-1-3 0-1 2l1 1v2l-3-1c-1-1-2-2-1-3v-3l2-1h-4l-1 1 1 2-1 2c-2 2-3 2-5 0v-1c3 0 3-3 0-5s-4-3-1-4c2-1 2-1 0-3h-2v2c-1 2-4 1-5-1l-3-1c-1 1-1 1-1-1v-1l-1 2-2 1-1-1h-4c-1 1-4 0-3-1l-1-1c-2 0-1 3 2 4 2 2 2 2 2 0h3l1 1 2 1 1-1 1-1 1 2 2 1h2l-1 1v1l-1 1h-1l1 1v2l-1-1h-1l-1 2-2 1-2 1c-2 0-2 0-1-1 2-1 2-1 1-2s-2 0-3 1l-2 1c1-2 0-3-1-4-1-2-4-3-2-1l-1 1-1-2c0-2 0-2 2-2 2 1 1 0-1-2-2-1-2-1-2 1s0 2-1 1l-2-2-1-2c0-3-1-4-3-3v3l2 3c0 4-5 4-6 1l-1-2v2c-1 1-1 2-3 1l-3 1 8 1 6 2h2c1-1 1-1 2 1h2l4 4 3 3-1-3v-1l1 1h2l1 1-1 1c-1 1-1 1 1 1 1 0 2 0 1-1 0-2 0-2 2-2l2 1v1l4 2 3 2c2 0 1-2-4-4l-4-4 3 1c3 3 4 2 3 0l1-2 1-1h-3l-1-2 1-2h1c1-1 1-1 2 1l3 1-1 2c-2 2-2 3-1 3v3l1 1v-2h2c3 2 4 3 1 3l-2 1 1 1h1l-2 1h-1c0 1-3 1-5-1l-2-1 1 2c2 2 1 5 0 3-2-1-2-1-3 1s0 3 2 1l3 1 2 1-3 1-4 1h-1l-2 1-1-1v-5c0-3 1-4 2-2h2l1-1-2-2v-3l-2 2c0 2 0 2-4 2-1 1-2 0-3-2v-3l-3 3-2 4-1 2v2c1 1-5 4-7 4-1 0 0-2 2-3l1-1-1-1v-3c-1-2-1-2 1-2l3 1c1-1 0-4-2-4v-1h-1v-2c2-1 2-2 1-2v-3l-2 2h-4v5a73 73 0 00-6 1l-1 1-1 5c0 4-1 4-2 2-2 0-2-1-1-1v-3h-2l-2-1-2-2h1l4 1c3 0 3 0 2-2l-2-2h-1c-2-2 0-3 3-2 2 0 2 0 0-1s-2-1 0-1v-1l-1-2c-1-2-1-2-2 0l-2 2h-1l-2-1c-1 0-2 0-1 1l1 2h4l-1 1v2c1 1 0 1-3 1l-1 1v-1c0-3 0-3-3 0l-1 2 2 1 2 1 1 1h-4c-1-1-1-1-1 1l1 2v3c-1 2-2 3-1 4h-6v1l-3-2c-1-2-1-2 3-2 5 1 7-1 3-3-2-2-2-2-1-3v-4c0-2 0-2-2 0l-1 2v1h-3c0-3-3-2-5 0l-1 2v1c-1 1-2 0-2-1h-1c-1 1 0 2 1 4 3 3 2 4-2 2-3-2-4-4-2-4v-2c-2-2-2-2 0-1v-1c-1-2-2-2-2-1h-2c-1-2-1-2 1-1l1-1-2-1c-1 1-2 0-3-1h-4l-6 1h-3l3 1c2 1 2 1 0 1s-3 1-1 3c2 1 3 1 3-1-1-1 5-3 6-2l-2 1-3 1c0 1 2 3 3 2l2 2c1 2 0 2-1 2-1-1-2 0-2 1-1 1-3 1-3-1l1-1 1-1c1-1 1-1-1-1l-2 1v1l-2 2c-2 1-2 1-1-1 3-3 1-5-3-5-2 0-3-1-3-2h-1c-1 1 0 3 3 4 3 2 4 4 2 4l-2-2h-2l-2-1v-1l-2-3c-2-4-5-4-6 0l1 2h1c2 4 1 4-2 1-2-1-2-1-1-2v-1l-2 1h-3c-2-1-2-1-1-2v-1l-1-1 2-2c2 0 2 0 1 1-1 0 0 2 2 2v-2h1c2 1 2 1 2-1 0-1-1-2-3-2l-3-3c0-2-1-3-2-1l1 2 1 2h-1c-2-2-3-3-3 0v1l-3-7-1-2-1 3c1 4 0 4-2 1-1-2-1-2-1 0 0 3 0 3-1 2h-2l1 1v3l1 1 1-1v-1c2 0 2 1 0 3h-2l-1-1-3-1h1l2-1-1-1-3-1 1-1h2c-1-2-4-2-3 1 0 3-2 3-2-1-1-1-1-2-2-1h-5v1c1 1 0 6-1 5l-1 1v1l-1-1-1-4-1 1-2 1h-1l2 2h-2c-1 0-1 1 1 2s2 2 1 2l-4-3c-2-2-2-2 0-2 1 1 1 1 0 0v-2l1-1c-1-2 0-3 2-3h1c0-2-3-3-3-1h-2c-1-1-1-1-1 2l-1-1-2-3v3c1 5 0 4-1 0-1-2-1-3-2-2l-1-1v-1h-1l-2 1-3 1-4 5-1-2h-1c0 2-3 1-3-1 0-1 0-2 2-1l-1-4-1-3 2 1c0 3 2 2 1 0l-1-2v-1h3l-1-2c-2-1 1-2 4-1h2l-2-3c-2-3-4-4-3-1 1 0 1 1 0 0l-1 1-2 3-2 3-1 2-1 2c-1 2 1 3 1 1h1l-1 2-1 3v2l-1-2c0-3 0-3-4-3l-3-1v-3l-1-2 2 1h1v-3c-3-2-2-3 0-2l2-1c-1-1 2-2 3-1s5 1 5-1c1-1 0-1-2-1h-3l2-1 1-1-2-1h-2v-2l-2-2-1 1-1 2v2l1-1h1c2 2 1 3-1 2-2 0-2 0-1 1 1 2 1 2-2 2h-5c-1 0-1-1 1-2l2-1v-1c3 0 2-4-1-5l-2 1 2 1 2 1h-1l-2 1-3 1c-3-1-4-1-3 1h-1c-1-2-2-2-2-1l1 2c2 1-2 2-4 2-1-1-2 0-3 1-2 3 0 4 1 1h4c2 1 2 1 2-1 1-2 1-2 3 0l2 2h-3l1 2c2 0 2 1 1 1v3h2l1-3v-1l2 2 2 3h-4c-3 0-1 2 1 1l2 1-2 1c-1 1 0 1 2 1h6l-5 1-4 2h-1l-2-1v-1l1-3h-2l-1 1-1 1v1h-1c-2-3-6-3-6-1l1 1-1 2c-2 2-3 2-4 0h-1c0 2 4 5 5 3l2-1v2l-1 1c1 0 2 1 1 2l1 1 1 1c0 2-4 0-4-2s-3-2-4-1h-3v-1l1-3-1-3v-1c2-2 2-5 0-4l-2 2-2 2-2-1-1-1h-1l-2 1h-2c1-2-2-5-3-5-1 1-1 5 1 9v4l-2-3-2-5-3-2c-2-2-3-2-3-1-1 1-2-1-2-3 1-2 0-2-1 1l-2 1-2-2-2-1-1-3h-3l-1-1c0-2 1-2 5-1l1 2c-1 0-1 1 0 0l1 1c0 2 3 2 3 1v-2l1-2c3-3 3-3 2 1l1 2 1-1v-1l1-1c-2-2 1-1 2 1 2 3 3 2 3-1 1-4 3-4 5-2l2 1 2-1c3 0 3-2 1-2h-1l-1 1-3-1c-1-3-6-3-5-1 0 2-1 2-2 2-2 0-2 0-1-1 2 0 2-1-1-2-2-1-2-1-1 1 0 2 0 2-1 1h-2l-2 1 1-2 1-3-2 1-2 1v1c0 2 0 2-2 1l-1-1c2 0-1-3-3-3v-1h2c2 1 2 1 3-1h4v-2h-1c-1-1-8-3-8-1v1c-2 0-2-2-1-3 2-2 2-2 0-4h-3l-1-1 1 2 1 2v2l-2-3-1-1v-1l-1-2-1 1h-1v-4l-2 1m359 16l-1 6-1 5v5h3l2 1v2l2-2 2-1h1l-2-1v-2c2-3 3-3 2 0l1 2h1l3 1 4 2h1l2-3v-6l1-1c1 1 1 0 1-2s0-2-1 0l-2 2c-2 1-3 5-2 5l1 1-7-3c0-2-3-2-6-1-4 2-5 1-4-5v-6l-1 1m-1 25c-2 3-2 8 0 8l1 1c-2 2-8 1-8 0v-2c-1 0-3 4-2 5l-1 2c-3 0-2 2 0 2l1-2c0-2 5-3 7-1h1c-1-3 0-2 4 2l4 3-1-2v-2c1-1 1-1-1-1-4 0-3-5 2-6 3 0 5-1 3-2h-2c0 1-1 1-2-1l-2-2v3l-2 2c-2-1-1-4 1-5 2-2 2-2 0-2h-3" fill="#d3d3d3" fill-rule="evenodd"/></svg>