<svg xmlns="http://www.w3.org/2000/svg" width="400" height="225"><path d="M297 16c-7 3-12 6-14 9l-4 5c-3 4-5 8-6 17 0 6-1 7-2 5-3-4-6 14-4 22l2 4c1 0 2 3 2 10 0 8 0 12 2 15l2 5 13 1h42v-6c0-7 1-7 5-1 2 4 3 5 5 5s5 3 5 5 9 10 11 10l5 1c3 1 6 2 9 1 5 0 20 4 28 8 2 1 2 1 2-5v-5l-4-1-5 1c-4 3-53-41-52-45l2-9 2-8c0-3-2-5-5-4-1 1-2 0-2-10s0-11-3-17c-5-8-12-12-21-12l-6-1h-9m-167 97l-12 2-19 1-5-1v3c0 3 0 3 4 2 4 0 5 1 3 3-2 1 1 6 4 6l3 2c3 2 15 2 16 0 1-4 7-5 7-1l1 1c1 1 7-1 8-2l4-2c3-1 4-2 5-6s5-6 5-3h1c3-2-1-4-8-4l-8-1h-9m195 0l-16 1c-10 0-12 1-14 2-4 2-3 3 4 4 7 0 4 2-5 2a274 274 0 0055-3h-8c-6 0-7 0-5-1s3-2 3-4c1-2 1-2-5-2l-9 1m-88 1l-13 1c-8 0-10 1-12 2-2 2-5 2-6 0h-3l-7 1h-5l1 1 3 2 4 2 4 1 6 1c7 0 11 2 11 6 0 3-11 4-71 4l-59 2-88 2H0v86h186l-5-4-4-5 2-6 6-11 3-6 1-4 2-7c4-14 8-21 18-32 6-7 12-11 24-16 18-7 28-12 29-15 1-4-18-7-25-5m-174 1c-3 0 0 3 5 5l3 3c0 2 1 3 7 1l3-3c0-2 1-3 2-3l1-1c1-2 0-2-4-2a241 241 0 01-17 0m242 16l8 5 5 2 5 2 4 1 5 1c4 1 5 1 5 3v3l-3-1h-2l-5 1c-9-2-14-3-14-5h-6l1 1c2-1 2 0 2 2l-1 3-2-1 1-1 1-1h-5l-4-1c1-1-4-3-6-2l-1 2-2 1-3 1c-1 1-1 1-1-1s0-2-8-2h-9c-1-1-5 0-5 1l2 1c1-1 1 0 1 2 0 3 4 6 6 3l5-1h6c3-2 3 3 0 4l-3 2-3 2c-2 0-3 1-1 2v3c0 2 0 2-2 2l-5 2c-2 2-4 3-4 1h-9l-3-1c2-2-2-4-7-3l-8 1c-2-1-2 0-3 2l-2 2-1 2-2 4c-1 1-1 1-1-1 1-3-1-3-3 0-2 1-2 4-2 10l-1 10c-1 1-1 1-1-2l-3-19v1l-1 2-2 7c0 5-1 6-2 5l-1-3c0-3-2-7-4-7-1 0-1 1 1 4 1 4 1 5-2 2-2-3-3-2-1 3 2 3 1 4-2 0-2-4-3-2-1 2 1 1 0 2-1 3l-5 5a968 968 0 01-5 7l-5 5c0 2 6 6 11 8l6 4-16-6c-5-2-4 1 1 4 2 1 2 1 0 3l-1 2 105 1h104v-54l-6-5-14-10c-6-3-10-5-10-7-1-2-8-4-12-3-3 1-8 0-10-2l-5-2c-2 0-2 0-2-2s-1-3-3-3l-4-3-5-1-6-1h-1c0 2-3 2-4 1l-3-1h-2c0-1-1-2-4-2l-4 1m63 2c1 2 9 6 19 11l9 4c3 2 3 0 1-4-3-4-4-5-15-9-10-3-14-4-14-2m4 13c-3 0-2 1 5 5 8 4 14 9 19 14 3 4 4 4 4-2 0-8 0-8-7-12-9-5-17-7-21-5" fill="#d3d3d3" fill-rule="evenodd"/></svg>