<svg xmlns="http://www.w3.org/2000/svg" width="400" height="225"><path d="M95 26l-1 4v4a190 190 0 01-43-1h-2l-3-1-28 1c-2-1-4 0-5 3-1 1-1 1-2-1l-1-2H2l-2 1v57c0 53 0 57 2 57v1c-2 0-2 3-2 38v38h401v-96a2903 2903 0 00-3-94l-1 5h-5c-6 0-6 0-6-3 1-5-4-5-5 0-2 4-6 5-8 1l-1-3-1 3-2 3-6-1c-7-1-7-2-8-9 0-4-2-2-2 2 0 6-2 7-16 7l-17 1c-4 0-4 0-4-2l-1-2v-2l-1-3v2h-1c-1-2-2 2-2 6 1 2-6 3-9 1h-18l-3-1c-3 0-3-1-3-4l-1-3-1-3c1-4-1-6-2-2l-1 5-1 6-1 2c-2 0-5-5-5-11v-4l-2 4-1 7c0 3-2 5-3 3h-27l-4-1-3 1h-11l-14-2v-3l-1-5c-1-2-1-2-1 2 0 3 0 3-1 2-1-2-1-2-1 1l-4 4c-2 0-5-1-4-2l-3-9-2 3c0 5-2 9-4 9s-4-3-5-8c0-5-2-8-2-4 0 6-1 9-3 9-3 0-3 0-3-7 0-4 0-5-3-3v5c0 3 0 4-2 5-4 3-4 2-4 0l-1-3-1 3-1 2h-3l-1-2-1 1h-7l-2-3h-1l-1-2c0-4-3-5-4-1v5l-2-2h-2l-7 1c-8-1-9-2-9-5v-3c-1 0-4 3-4 5 0 4-2 2-2-1l-1-4h-1l-5 6-1-3v-2c-2 1-2 0-3-2s-1-2-3-1m123 61l-6 1-5 1c-2 1-3 12-1 12 1 0 5-4 4-6 0-3-2-2-2 1-1 2-1 2-1-1 0-4 1-5 3-3h1c1-2 6-2 6-1s2 3 4 3c4 2 4 2 4-1 0-2 1-3 7-3s6 0 2 1l-4 1 2 1 4 2h5l10-1c6 0 7-2 1-2-4-1-5-2-3-3 1-1 0-1-2-1-4 0-4 0-2 1l-9-1c-13-2-15-2-18-1" fill="#d3d3d3" fill-rule="evenodd"/></svg>