<svg xmlns="http://www.w3.org/2000/svg" width="400" height="225"><path d="M390 16l6 1a893 893 0 01-90 2l3 1c1 1-4 1-13 1l-31 1c0 1 3 2 12 3 10 0 11 2 1 2-9 0-11 0-11 2l7 1 22 3h-5c-5 0-8 1-7 2l-10 1-6 1-2 1-2-1h-9c-1 2 0 4 3 4l4 2c3 2 8 3 12 2 3-1 4-1 5 1l4 2c1 1-3 1-11 1l-4 2-2 1c-1 0-2 3 0 3l1 3-2 1c-3 0-4 2-1 2 3 1 3 2 0 3-3 0-7 2-7 4l3 2 4 1-3 1c-4 2-6 2-9 1h-4v7c1 1 0 1-2 1-5 0-4 2 0 2l4 1-2 1c-1-1-2 0-2 1l-1 1c-2 0-2 2-1 2v1l-2-2h-3c-2 1-5 0-6-2-1-1-2-1-3 1-1 3-1 3 5 3 5 1 9 4 6 5h-2c-1-1-1 0-2 3-1 4-2 5-5 4l-2 2-2 4c-6 4-6 4-2 4l10 1 36 4c3 0 4 0 5-3l1-3-1 5 1 2c2 0 2 1 1 3-1 3-1 4-1 1 0-4-2-1-3 6-2 5-2 6 0 7s1 4-1 4-2 0-1 1l2 2c-4 11-7 29-11 51-1 7-1 7-5 5l-10-2-8-2h-4l-2-1v1c1 2 1 2-1 3l-2 1h7l7 3c6 3 4 2-12-1a160 160 0 00-19-4c-3-2-18-5-24-5-7 0-10-1-9-2l-1-1h-3c-4-2-9-3-11-2l-2-1-27-6a810 810 0 01-53-12l3-2c1-2 0-2-5-3a133 133 0 00-12-2L0 145v80h401V122a2621 2621 0 00-1-106l-9-1h-8l7 1M3 22l-2 2 11 1a497 497 0 00-8 2H1v55l1 55 20 4c29 6 30 6 33 3l3-2-2 3c-2 2-2 2 7 3a1573 1573 0 0131 5c-1 0-2-1-1-2l-1-1v-1l2-1c2 1 9-6 7-6a496 496 0 00-52-9 1474 1474 0 00-39-6 2125 2125 0 0052-21l22-8 28 2 32 4c5 0 6-1 3-4l-1-3-1-2-1-2c1-1 0-2-1-2l-5-2-5-1c-2 1-6 0-6-2l1-1c2 0 0-2-3-3h18l-1-2c-2-1-3-2-4-1-2 1-6 0-5-1l3-1 3-1c0-2-2-2-4-1-1 1-2 1-2-1h-5l-3-2c-2 0-6-4-7-6-1-1-7-2-15-2l-6-1-9-3c-2 0-2 0 0-1h4l4-1c2-1 5-2 7-1 3 0 4 0 3-1l4-3c11-3 13-4 11-7-1-2-5-2-5 0l-3 1h-5c-2 1-2 1-3-1-1-4 2-7 8-8 5 0 7-1 5-2l-9-1c-11 0-12-2-3-2 7-1 7-3-1-3H91l-3-1h-3l6-1c6 0 10-1 10-2h-6c-11 2-16 2-18-1a536 536 0 00-34-2H26L9 22H3m43 5a193 193 0 01-22 2c-6 1-2 1 7 1h29l5 1 6-1h3l-3-1-3-3c-1-1-1-1-22 1m299 5l-17 3c-2 0-3 1-3 2l-1 1v1h6l7-2c2 0 2 0 2-2-1-1 0-1 4-1 3 1 5 1 7-1l3-1c1 1 4 0 7-1l5-1h-7l-13 2M120 141c-4 3-4 4 0 4 1 0 2 0 1 1l-2 1h-1l-1 1-1-2c0-2-1-2-5-3-6 0-7 0-6 3 0 2 0 2-1 1s-1-1-1 1c0 3 11 4 18 0l4-1v-1c-2-1-2-1 1-1 2 0 2 0 0-1-2 0-3-3-1-4 1-2 1-2-1-2l-4 3m97 36l12 3 8 3c-1 1-1 1 3 1l12 4c9 2 9 2 11 0 1-2 2-2-24-7-21-5-28-6-22-4" fill="#d3d3d3" fill-rule="evenodd"/></svg>