<svg xmlns="http://www.w3.org/2000/svg" width="400" height="225"><path d="M213 2l-1 2c-1 0-2 0-1 1l-1 1-1 3 2 7 1 4v-4c0-3 0-3 2-2v9l-2 4-4 8c-2 1-2 2-1 3l-1 2h-1l-6 3-6 2h11l4 1c1 0 2 1 2 3v6c0 1 0 2-2 2l-2 1 1 1c3-2 26-2 24-1l-3 1-2 2-1 1-4 2-4 3c-1 1-2 3-2 13 0 4 0 4-2 3-2 0-2 0-2 4 1 3 0 4-1 5l-2 2-1 4-1 7-1 5-1 2v1l-3 2-3 2v7l-1 3-1 3c-1 3 0 4 7 4 11 0 15 1 15 3 0 1 0 2 2 1l-1 3c-1 2-3 3-5 3h-4l-3-3c-2-5-3-4-4 1 0 4-1 5-3 5l-3 1c-2 2-4 1-4 0l-2-2-5-2-4-2v3l-2 2c-1 0-2 1-2 4v4h-6c-4 0-5 0-6-2l-1-1-1 2h-3l-2 3-1 1-4-1c-3 0-4 0-5 3-2 3-2 3-2 1 1-3 1-3-3-3-2 1-4 0-5-1-2-2-3-1-1 7 2 4 2 5 0 6s-4-1-5-7l-1-6v14l-4 3c-2 2-5 3-5 2l-6-1c-6 1-6-1-3-9l1-5-6 12-6 1c-7 0-10-1-6-4l1-2-2 1h-1v-1l-1-1h-2l-4-1c-1-1-1-1 2-1 5-1 5-3 1-4l-5-1-9-2-5-1c1-2-1-4-4-4-2 0-2 0-2-2 1-1 1-1-1-1l-2 1v1l-1 2-2 3-9 1a2513 2513 0 00-51-1c0 3-1 3 30 5h12v3c0 2-1 2-2 2l-4 2c-1 2-2 2-17 2-14-1-17-1-18-3-1-1-1 4-1 28v29h401l-1-36V78l-1-76c0-2-11-2-94-2-92 0-93 0-92 2" fill="#d3d3d3" fill-rule="evenodd"/></svg>