<svg xmlns="http://www.w3.org/2000/svg" width="400" height="225"><path d="M49 0l16 10 1-3c0-1 1-3 3-3 4-2 1-4-9-4H49m255 29v30l8 8c7 7 15 19 18 27 2 3 2 4 5 3 5-1 6-4 4-9l-2-6c0-1-1-2-3-2l-2-1-3-1c-2 0-2-3-2-21 0-4-1-6-2-7v-3c2-3 2-3 0-3-2-1-3-3 0-5v-1c-1 0-2-3 0-3l1-8-1-9V9c1 0 2-4 1-8l-11-1h-11v29M112 10l13 8a61145 61145 0 0133 16c0-4-6-8-29-19-13-7-17-8-17-5m220-1c-3 4-1 13 3 13 5 0 8-7 5-11-2-3-6-4-8-2M6 10l-2 1-2 1c-2-1-2-1-2 36l1 37 4-2c6-2 7-1 6 3v13l-5 2-5 2-1 19 1 19a3289 3289 0 00124-11c21-2 61-4 63-3l1 3 1 3 1 1c1 2 0 2-1 1-2 0-2 0-1 1 5 4 29 6 71 6 32 0 46-1 48-3v-1c-1 0-1-1 1-2 2-2 4-2 4 2s2 1 3-3l1-6c1-2 3-4 7-5l4-2h72v9a136 136 0 000-28c0 2-1 2-10 2l-14-2c-6-2-14-1-23 3l-17 4-1 5v5l-1-5c-5-26-12-39-29-53-15-13-30-17-52-15-8 1-21 4-21 6l-5 3c-9 4-26 17-26 20l3-1c3-3 3-2-2 4l-4 3c-2-4-10 17-12 32-1 8-1 8-3 6l-1-8c0-4-1-5-3-7s-3-3-3-9l-2-8c0-3-7-3-13-2s-11 0-10-2l4-5 5-3c-1-2-9-1-14 2-8 3-9 2-5-5l2-5h-5c-7 1-8-1-6-6 3-6 3-18 1-21-2-2-2-2-7 0-5 1-46 0-67-1-14-2-14 4 0 7 8 2 9 4 9 7-1 4-4 4-9 1l-12-3-10-3c-3-1-4-1-7 1-5 2-6 3-3 7 3 5 7 7 10 5 3-1 4-1 5 1l10 3c9 2 13 6 13 11-1 4-6 4-14-1-6-5-11-7-24-8l-10-2c-2-2-1-5 3-9l3-6 1-1 1-1 2-4c3-3 3-3 2-4-1 0-3-1-3-3l-5-6-4-5-5-5-2-3c1-1 10-3 16-3l4-1c0-3-19-7-24-5m367 53c-7 2-6 2-2 7 3 5 3 6 3 15 0 10 1 12 4 12l3-1c1-2 2-28 1-32-2-3-2-3-9-1M20 74c-6 4 1 9 15 10h8l-7-4-10-6c-3-2-3-2-6 0m296 7l1 5a309 309 0 0110 16l1 2c1 1 1 0 1-1 0-4-4-14-9-20-4-5-4-5-4-2M43 85l3 1 8 4c8 4 9 4 13 1l2-3-3-1c-3-2-23-3-23-2m77 1l-2 1c1 3-3 4-11 4-29-3-30-3-27 1 1 2 4 2 15 3l21 1c1 2-12 3-25 4-15 0-20 1-20 2s6 2 16 2c31 1 34 2 28 5-4 2-3 2 12 5l25 7 12 4 2-2c5-7-4-20-16-23l-9-4c-2-2-4-3-5-2 0 1-1 1-1-1l-4-5c-3-3-4-3-11-2m-94 1c-4 1-3 8 1 8l9 2c7 3 21 3 21 1l-2-1-9-2c-8-1-10-2-15-6l-5-2m218 71l-1 5c0 2 0 2-1-1l-1-3v7l-1-4-1-3v7l-1-3-1-3v2l-1 3v1l-1 1h-2c-2 0-2 0 0 1s2 1 1 2c-2 1-2 2-1 2s1 1-1 1v4h-4c-11-2-14-2-14 0l3 5c3 1 4 3 4 5s0 3 6 4c12 2 60 0 66-3l-9-1c-11 0-14 0-12-2v-3h1c1 1 1 1 1-1v-2l1-2v-1c1 1 1 1 1-1v-1l1-1-2-2v-1c2 0-2-3-4-3s-2 0-1-1v-1c-1 0-2 1-2 3l-1 4v-4c0-4-2-6-5-6l-2-1-1-1v-1c2-1-2-2-4-1h-2v-1l-1 1h-3l-1 2h-1v-3l-1-1-2 2" fill="#d3d3d3" fill-rule="evenodd"/></svg>