<svg xmlns="http://www.w3.org/2000/svg" width="400" height="225"><path d="M206 4c-1 3-2 4-4 5-4 0-8 6-8 9 1 2 0 5-8 14-5 6-6 8-3 10l2 3c1 2 1 2 2-2v-4l3 3c3 4 5 3 5-3l1-3 1 3 2 6v2l7-4 3-2c2 0 3 0 3-2l2-2 2 1c0 3 3 4 7 3h6c1 2 1 2-2 5l-4 6c-1 2 0 3 2 1s4-2 4-1l2 5c2 4 3 9 0 9l-2-2-1-2-1-2c1-2 1-3-1-3l-3-1h-3c-3 2-10-6-10-10v-3c-2 0-2 3 1 10 2 5 2 7 1 8-2 3 3 4 6 2 3-3 5-2 3 1s-12 2-10 0l-3-1c-5 0-5 5 0 7s11 2 13 1c2-2 4-2 4 1-1 2 2 2 6 0 4-4 6-3 7 1l3 5 1 4 2 8c2 5 2 6 0 7l-1 2-1 1-1-2-3-3c-3-1-4-5-1-6 5-2-4-6-15-7-8 0-8 0-7 1l1 6c0 4 0 5-3 5s-4 1-2 2c1 1 3 2 3 4l2 3-7-1-6 1c1 1 0 4-1 6-2 4-2 6-1 6v1l-1 2c0 2 0 2-1 1l-2 1-1 2v2l-1 2c-2 0-9 13-8 15v1c-2-1-8 7-7 9h28c4-1 5-2 6-5v-6l1-8c1-9 2-12 5-13l3-3c0-2 0-2 1-1 0 2 1 2 5 1 4-2 4-5 0-6l-6-2c-2-1-2-1-2 1 3 5 2 5-1 0l-3-6 1-2c0-5 2-9 6-11 3-1 3-1 5 1l4 3c2 1 2 1 0 2-3 2-3 5 1 5 2 1 2 2 2 6l2 1 2 2 1 1 2-3 4-4 4-2c1-3 3-2 3 1s0 3 2 2l1-5c0-3 1-10 4-17l1-5c-1-1-9 2-11 3-2 3-4 2-5-2 0-3 0-4 3-6l4-3-3-2c-3-3-3-4-3-12l-1-9 4-4c4-4 5-4 2 2-2 4-3 9-1 14 1 3 3 4 5 2 2-5 16 0 21 8l6 5c5 3 8 15 3 17-3 2-3 4 0 7 5 4 5 4 4 6l-4 4-1 1 3 4c2 3 2 3 0 7l-4 4-6 1-8 1a144 144 0 00-37 9c-4 1-5 3-6 13-1 6-1 7 16 9 70 8 94 23 56 35a800 800 0 01-156 21c1 1 2 2 3 1l1 1c0 2 1 2 5 2l4 1c0 1-2 2-8 2-7 1-7 1 3 1s39-1 48-3h5v7h6c6 0 7-1 7-6l1-2 16-2c20-3 18-3 18 4v6h20v-3l1-8v-5l10-2c9-2 12-2 21 0 16 5 17 5 16 7 0 2 0 2 8 2 11 0 14 1 18 2l10 2c5 0 8 1 7 3 0 1 6 2 22 2h15v-27a28480 28480 0 010-192V0h-49v4c0 3 0 3-3 3l-18-6-40-1h-37l-4 4-4 4-1-3-1-4c-1-1-7-2-7 0l1 2c2 2 4 11 4 12-1 3-3 2-4-1-1-1-1-2-3-2-8 2-11 3-12 2-2-1-1-2 2-3l2-4V4l2 3 3 3 1-3c2-6 1-7-13-7h-12l-1 4M8 11v14h4c2 0 3 0 3-2 0-3 3-7 6-7s-1-3-5-4l-5-1c-2-3-3-2-3 0M1 64v46h15c14 1 16 1 17-1 3-4 1-6-7-10-11-5-12-7-12-12l1-9 5-14c2-2 2-4 2-8-1-4-3-7-3-3 0 2-1 1-4-1-2-1-3-2-4-1-3 1-5 0-3-2v-9l-3-6c-2-2-2-3-2-7l-1-7c-1-1-1 14-1 44m180 5l-11 1-11 1 4 3c18 12 11 41-10 44-4 0-5 1-5 3l-2 4c-4 2-2 5 8 7l6 2c1 0 2-1 2-3 1-3 3-8 10-16 2-3 3-7 1-5l1-4 1-7c0-2 1-3 4-5 2-2 3-3 3-6l2-8c2-7 1-13-1-13l-2 2M41 91c-5 20-5 21 0 22 5 0 7-1 5-4l-1-17V77l-4 14m235 10l-3 12-2 6c2 1 6-1 6-3l2-3 1-2 1-3v-4c2-1 2-5 0-7-2-5-3-4-5 4m-88 3l-2 3-2 4c-1 5-4 12-6 13l-1 3c0 1 0 2-1 1l-4 3-4 5-1 3-1 2-1-1-3-3c-4-2-17-3-19 0l-5 2c-3 0-8 6-10 11l-1 4-1 5 1 4h9l-1-4c0-5-1-5-1-1 0 5-2 4-2-2-2-8-1-9 8-5 6 3 5 2 4 5l-1 5c0 1 0 2-2 2l3 1c7 2 29 1 31-1l1-10a42 42 0 014-20c0 2 7-6 7-8l1-2 2-1c1-2 1-2-1-3v-3l1-1c1 1 1-1 2-9 0-2 0-3-2-3l-2 1M40 170l-25 2a497 497 0 0045-2v-2l-20 2m6 9l-3 4H28c-14 0-16 0-15 2l-1 1h-1l16 2h16l3-3 5-10c0-2-2-1-5 4" fill="#d3d3d3" fill-rule="evenodd"/></svg>