<svg xmlns="http://www.w3.org/2000/svg" width="400" height="225"><path d="M1 6a5951 5951 0 00-1 215v4h5c4 0 5 0 5-2 0-3 7-8 13-9h6l-1 9v2h33v-6a984 984 0 00-1-27c-2-4 1-13 4-13l2 1v2c0 2 0 2 1 0 2-4 2-7 1-7l-1-1c1-2-1-8-2-7l-1-1 3-4c3-2 3-2 1-2l-5 3c-2 2-2 2-2 0 1-2-2-4-3-2s-2 2-3 0h-2c-1 1-2 2-5 1l-4 1c1 1-3 2-5 2l-10 2a712 712 0 00-1-36c4-3 42-5 41-3v4l1 4 2-5c2-5 2-6 1-8l-1-6v-2l-2 5c-1 3-2 4-4 4h-5a396 396 0 01-31 1c0-6 3-7 14-8h10l-1-3v-4h3c1 0 2 1 2 4l1 3 5-1h5l-1-5c-1-5-1-5 2-5 2 0 3 0 3 2 0 3 2 7 4 7 1 0 3-2 4-6l9-16 1-4-1-23 2 1c2 1 2 4 2 13v11l2-2c1-1 3-2 4-1l1-2c0-2 2-3 2-1 1 2 19 0 20-2 0-2 1-2 7-2 7 0 8 0 11-3 3-4 4-4 4 2 1 8 9 23 11 20h1l2-2 2-1c1 0 6-5 5-6l1-5V76l-1 2-3 3c-2 1-2 1-2 4v4c-2 0-6-3-6-4l-2-3c-4-3-3-24 2-31 1-2 1-2 1 0h1c1-1 2-3 1-4l1-2c2 0 3-5 1-7-1-1-2-1-3 1s-2 2-2 1l5-7c5-5 5-5 3-7-1-1-1-1 3-5l2-3c-2 0-3 0-3-3 0-9-2-15-4-15s-2 0-2 3c2 8 2 17 1 17l-2-10-1-10h-7v6c0 5 0 6-1 5l-1-3c2-2 0-8-2-8-1 0-1 12 1 14l-1 3v2c0 1-2 0-2-2V0h-9v10l-1 9-1-5V9l-1-5c0-4 0-4-2-4h-3v10c0 9 0 10-2 10-1 0-2-2-2-10V0H75v5c2 10 2 9-5 9-6 1-6 0-8-2l-1-1-1-1c-1-2-1-2-1 1l2 2 1 1-2 1c-1 0-2-1-3-5-1-6-1-7 1-5V2c-1-2-2-2-11-2L37 1l2 6 1 7-2-6c-2-8-2-8-5-8s-4 1-2 2l3 11c0 4-5-7-5-11 0-2-1-2-13-2H2L1 6m166-2c0 6 2 14 4 15l1 1h5c13-1 28 9 31 21 3 7 2 10 0 13l-2 2-1-2-3-3 1 2c1 3 1 3-1 4-4 1-3 1-6-1l-1-2-1-1c-3 0-2 3 1 5l2 3 2 1c4-1 4 5 0 13-2 3-2 10 0 7l5-1c3 0 4 1 4 4 1 8 0 8-11 6-2-1-2 3-1 5h2c1-2 8-2 9-1l-1 3c-1 2 0 4 1 2 1-1 1-1 1 2l2 4c1 1 1 1 1-4l1-3 1-3-1-2-1-5v-5h3l4 1-1 6-2 8v2c1 0 2 3 2 9l2 11 1 3c1 4 6 7 10 5 3-2 3-2 3 0h2c1-2 1-2 4 0 2 3 3 2 1-2-1-3-1-3 1-4 4-1 6-4 4-4l-2-1-3-2c-4-2-6-5-5-8 0-3 0-3 5-2 6 0 9-1 4-3l-5-2c0-2 1-2 5-2 3 0 4 0 2-1l-2-1-1-2-2-4c0-4-3-5-5-2l-4 3c-2 0-2 2 0 8s2 10 0 5c-1-4-3-6-4-5v-1c0-4-1-7-2-4-1 1-1 0-1-4-1-7 0-14 2-14l15 4c1 1 2-3 1-6 0-3-6-6-10-6-4 1-5-1-1-2 2 0 4-1 5-3 3-3 4-3 7 1l5 2h3c2-2 2-2 3-1l3 3c2 1 2 1-2 2l-4 1 1 1h6c4 0 5 0 4-1l2-1 3 2 2 1 2 2c2 0 3 2 3 4l3 5c2 2 2 2 0 3l-2 3-2 3-2 4-2 4c-2 3-3 9-5 22 0 8 1 9 3 2 1-4 3-5 6-3h3l6-1 3-3c1-3 2-3 5-2h6l3 1 5 3 6 7c2 3 3 3 9 3h7c2 0 3 8 4 22v15h-5c-6 0-11 1-10 3l-4 23c-2 9-2 10-1 13l1 3 1 1 1 1 3 7 3 6h8c10 0 10 0 8-8-1-4-1-4 1-4a63 63 0 0028 1h6l1 6c2 7 3 6 2-1 0-6 0-6 2-6l22 3h2v-32l-1-29c-1 2-1 2-1 0v-6l1-2 1-73V0h-28v32l-1 32V0h-23v16h-5c-6-1-5-1-6-9 0-7 0-7-3-7-2 0-2 0-1 8l-1 7-1-7c0-7 0-8-2-8s-2 0-2 3v3l-1-3c0-3 0-3-5-3-4 0-5 0-4 2v8l1 6h-3c-4 0-4 0-5-9 0-5-1-7-2-7l-1 2c2 4 2 14 1 14-4 0-6-2-7-9l-1-7-1 5c2 8 1 10-1 10-3-1-4-3-3-9 0-6 0-6-2-6-3 0-3 0-3 2l2 8v6h-8v-6c0-9 0-10-5-10h-4v4l2 8c0 4 0 4-3 4-2 0-3-1-3-3l-1-2-1 3c1 2 1 2-2 2s-3 0-3-3c0-8-1-13-3-13s-3 3 0 5l1 5c0 2 0 2-1 1-1-2-1-2-1 0l2 3-1 1c-4 1-4 1-5-8 0-7 0-7-3-7l-2 2-1 2v1l1 2v1c1 2 2 7 0 8l-1-2-1-3-1 2v3c-2 0-3-4-2-8 1-3 0-7-2-8-1 0-2 1-1 8l-1 8c-2 0-3-5-3-12 0-3 0-4-2-4l-1 8c1 9 0 11-4 9-2-1-2-1 0-1s2 0 2-8V0h-8c-8 0-9 0-9 2a509 509 0 000 17l-19-1v-1c2 0 2-1 1-6-1-2-1-3 1-4 3-2 2-7-1-7-2 0-2 1-2 9l-1 9c-1 0-2-4-2-9V0h-3c-3 0-3 0-2 3l2 14h-10l2-1 1-2a1057 1057 0 01-6-11c2 10 2 16 0 7l-1-3v4c1 5 1 5-2 5-2 0-2-1-3-8s-2-8-3-8c-2 0-2 1-2 4m81 22c-1 1 0 5 2 5l4 2c1 2 3 2 6 1l7 1c2 1 2 1 3-5 1-2 1-3 25-3l25 1 1 10v9l-3 1c-6 1-7 4-2 4 3 0 3 0 2 3l1 3c2-1 4-8 5-18 0-9 0-11 2-12 2-2 2-2-5-2h-73m84 0l2 2 1 1-1 2-1 3v4c-3 1 0 2 8 3 10 0 11 0 11-6 0-4-1-5-8-5-2-1-1-1 2-1 6 0 9-2 3-2l-9-1h-8M14 44c0 12 1 16 2 15l2-16 1-3c2 0 2-8 0-8-5-3-6-2-5 12m118-4l-2 2c-1 0-2 0-2 6l-1 7-2-2v-3l-1-4c1-3 0-5-3-5l-4-1c-2-2-3 1-4 16 0 15 0 15 2 15s2-1 2-5 0-4 1-2v5c0 2 0 2 4 2h9c2-1 2-2 2-12a447 447 0 011-21l-2 2m198 3l-2 1v1l2 2-2 1v3c-1 1 1 1 9 1l11-1 1-2-3-1-5-1h5c5 0 5 0 2-1l-3-1h3c5 0 5-2 1-2h-19m-192 5l-1 3-2 15 1 5 2-1 1-5c1-7 2-18 0-19l-1 2m191 6v3c0 2 0 2-11 2l-13-1h-1l-8 1c-11 0-11 2 0 3h8v7a634 634 0 003 35c2 0 2 0 1 1s-1 1 2 1c1 0 2 0 1-1v-3l1-14-1-15-1 2-1 1c-2 0-2-1-2-6v-7l12-1c10 0 12 0 12 2 0 3 3 5 7 5 12 2 14 2 13 1l-1-3c0-2-1-3-8-4l-5-1 5-1c12-4 10-8-3-8l-10 1M178 64l3 4c2 4 3 6 0 4l-3-1-2-2-2 1c-5 2-4 4 3 5 6 0 12 4 14 7h1c0-1 1-2 2-1l1-2c0-3-1-4-2-2h-1l-1-1-2-1h-1c-2 0-4-2-4-3l3-1 3-1-2-1-3-1-7-4M68 70h-5v28h9v-4c0-5 1-6 3-3v3c-2 2-1 4 2 4s3 0 3-2l-1-15V69h-3l-8 1m251 2l-1 2c-1-1-2 3-2 15l1 15h5l-1-10c0-7 0-7-1-4-2 3-2 3-2-4 0-5 0-7 1-6 2 0 2-1 2-4-1-5-2-8-2-4m-26 5l-1 6 1 7v6l-1 5v5h7c5 0 6 0 4-1-3-1-3-2-4-12l-2-12-1-4c-1-5-2-5-3 0m46 10c0 15 1 16 2 15l1 1 1 1c2 0 0-28-2-30-3-2-3-1-2 13m-46 24c1 2 5 2 23 4 8 0 9 0 9 2l-3 1c-4 0-4 1 1 5l4 5c1 2 1 2 20 4 17 3 17 3 16-1-2-4-6-7-10-8-2 0-3-1-3-3 0-1-1-2-3-2l-2-1-1-2c-1 0-2 1-2 3 0 3 0 3-3 3l-3-1c0-2-5-3-7-1-1 2-3 0-2-2 0-2 1-2 2-2h6c3-1 3-1-2-1a541 541 0 01-40-3M21 125c-9 6-12 10-15 20-2 9-3 11 0 11h1l2-5c2-2 4-6 4-9l2-6c8-4 12-8 12-12 1-4 1-4-6 1m310 9c3 6 4 13 3 24v10h32l3-1-1-2-1-4-1-12-2-10c0-2-2-3-12-4-22-3-21-3-21-1m-165 15c-4 14-5 17-6 14-2-2-3-1-2 1s2 3 4 2h1c1 2 0 5-1 5l-1 2c0 4-2 5-4 3l-3-2c-1 2 1 6 3 7l3 3c0 2 7 3 8 2 0-1-3-4-5-4-3 0-3-2-1-5l3-2 1 3 3 5a197 197 0 0035 5c-2 0-3-3-1-5l1-4c1-6 9-6 10 1 2 8 4 10 9 13l9 6c6 5 7 5 5 1s-2-4 4-1l4 2c0-2-5-6-7-6l-2-2-3-2c-2 0-17-10-17-11l1-1 18 8 16 9c1 0-5-6-7-6l-3-2-15-10c-6-3-7-5-5-6 1-1 1-5-1-5h-8c-5 0-5 0-4-7 1-5 0-9-2-10l-3-1-16-4-17-4c-3 0-3 0-4 8m64 22c-1 2 1 4 9 9l9 5 7 3h5l-4-1-4-3-4-4c-18-11-17-11-18-9m104 4c-1 14 0 35 1 36 2 1 16 2 23 1l9-1c3 1 4 0 4-1 1-3-1-33-2-36 0-2-5-3-23-3h-12v4m-123 26l-3 14-1 8c-1 3 21 3 32 0l14-1 6 1-5 1-4 1h7c5 0 7 0 6-1s0-1 3-1 3 0-2-2h-27l-2-1h-2l2-1 2-2-2-1c-1-1 1-1 5-1l7 1-2-3c-2-3-3-3-9-2l-6-1v-1l-1 1h-1c1-2-1-4-4-4-2 0-3-1-5-3-2-4-2-4-2-1l1 3-2-3-2-4c0-5-2-4-3 3m-38 3v4c0 4 0 4-2 3-4-1-11 6-11 12 0 2 0 2 4-2 3-4 7-5 7-3l-1 1h-2v5c-1 1 1 1 10 1 12 0 12 0 8-6-3-5-6-13-5-15h-8m-38 7h-4l-3 1-2 4c-2 2-3 5-1 4h2c0-2 3 0 3 2s0 2 2 0c0-2 1-2 1-1h4c3-1 3-1 2 2 0 2 0 2 1 1h1l2-5 1-7-9-1" fill="#d3d3d3" fill-rule="evenodd"/></svg>