<svg xmlns="http://www.w3.org/2000/svg" width="400" height="225"><path d="M11 15l-1 16-3-1-5-1c-2 0-2 0-2 64v65l5 1 13 1 35-3-2-3c-2-3-2-5-2-8 1-4 1-5-1-9-2-2-3-6-4-9 0-6-2-15-3-17l-3-9c-1-7-1-8 1-11l12-17 4-5c3-4 3-4 3-2 0 5 3 3 8-6l5-4c2 0 3-1 3-3s0-3 3-3c4-1 8-4 8-6 0-1 3-4 5-4l2 1 4 5c5 4 4 7-1 9-2 0-3 1-4 4-2 3-3 4-9 2h-4v12c0 3 2 9 4 8h2c1 1 1 1-1 3-7 5-7 7-3 13 3 5 3 6 0 6h-2l6 5c2 0 9 6 9 8l2 1v-6c2-2 4 0 5 4 1 3 2 3 4 2 4 0 4-1 3-5-3-6-3-7 3-7 5 0 9 2 9 5l1 3c3 2-3 13-10 17-3 2-4 4-1 7l2 2-2 3-6 6c-7 4-5 9 2 7 2 0 3-1 2-4 0-5 2-8 7-7h14l12 2c6 2 44-2 54-6 7-2 8-3 3-5l-7-5c-1-2-3-3-4-2-3 0-9-3-9-5l-2 1c-3 2-6-1-6-7-1-6 1-8 6-8 3 0 4-1 5-2 1-2-2-3-6-2s-6 0-8-6l-3-5-5-4-6-4c-1 0-2-1-2-3l-1-3c-2 0-6-5-6-7 0-3-3-6-5-6l-11-8c-4-4-2-4 3 0l5 2V0H11v15M248 2l-2 5-3 4-4 2c-1 1-3 3-5 3l-3 3c0 2 0 3 6 6l-2 3a141 141 0 00-5 8c-2 3-2 5 1 5 2-1 2 0 2 1-1 3-1 3 4 4 6 0 6 0 4 2-1 1-3 3-5 3-2 1-2 2-2 3 1 2 0 2-2 2s-3-1-3-2-1-1-2 1c-2 0-2 1-1 2 5 2 7 4 7 7l-2 9c0 5 0 6-3 6-3-1-4 2 0 2l5 3 3 1 6-1c7 0 9 7 4 14v3l2 7c3 6 3 6 11 3l2 1 3 6-4 7c-8 13-12 28-9 32l2 6c0 3 1 4 3 4h4c4 1 18 0 18-1l-5-2c-10-3-7-3 16-3a4359 4359 0 0026 3l-7 1c-5-1-12 0-14 2l26 1h15l-8 2 26-3v-1c-2 1-2 0-2-1 0-5 1-5 22-4l23 1h4v-46h-2l-5-1c-6 0-6 2-5-59l-1-56c-2 0-2 6-2 52l-1 52-2 1c-1 0-3 1-4 4s-1 3-2 1V54l1-54h-10v47a3585 3585 0 01-1 59v5l-5-2-9-1-12 2c-9 1-9 1-14-1-5-3-8-4-20-6l-3-1V85a1605 1605 0 00-2-85c-2 0-2 2-2 25-1 27-2 30-6 33-6 3-8 1-7-5l2-6c0-2 1-3 2-3 2 0 2-5 1-8l-5-2-7-2c-4-2-4-2-7-1-2 2-2 2-4 1-1-1-3-2-13-2-2 0-2 0-1-3v-4c-2-2-2-3 0-4v-6l-1-4-1-4-2-4V0l-2 2M118 82l-4 2c-4 1-8 15-4 18 1 1 1 1 2-1l1-2 1-2 5-4c4-1 5-3 5-6 0-4-5-8-6-5M61 96c-1 2 0 2 5 6s6 5 4 7c-2 1 1 2 4 2 4 0 4-1-1-5-5-5-6-7-1-6 3 0 3 0 2-2s-2-3-4-1l-2-1c-3-3-5-3-7 0m63-1c-3 4-1 18 2 16h4l1-5c0-9-4-14-7-11m67 1c-2 1-4 6-5 11-1 2 0 3 3 7 9 10 13 11 18 6 3-2 3-2 7-1 3 1 3 1 6-2l3-3v5c-2 1 0 5 3 9l2 4c0 1-1 1-3-2-4-4-7-4-4 0l2 5v2l1 2 1 4c0 2 0 3-2 4l-1 2c3 0 3 4 0 5h-6l-4 1 12 1h11l-1-4-2-8c-2-3-2-3 0-6l1-5c0-3 3-6 6-6 2-1 3-1 3-3-1-2-3-2-6 1-4 4-4 4-4-4 0-5-1-7-2-9l-1-2-6 3c-9 3-11 3-12-4-2-8-4-10-10-12s-8-2-10-1m105 9c-8 1-20 6-25 11-4 3-4 5 0 2l4-1c1 1 3 0 5-2 6-6 17-8 26-6 8 1 16 4 16 5 0 2 10 6 11 5 0-2-2-4-5-5l-2-2c1-2-12-6-19-7h-11M81 117c-2 4-4 5-9 4-6 0-8 1-5 3l2 2-2 3c-3 4-2 5 2 3 4-3 5-2 8 1s4 2 1-1c-6-9 5-16 13-9 3 3 4 3 6 2l3-1 2-1c0-2-1-3-5-3l-8-3c-3-4-7-4-8 0m-68 45l-9 1c-4 0-4 0-4 2 0 3 0 3 10 3h18c13-2 34-2 37 0 2 1 2 1-2 2a779 779 0 01-56 5l7 1-3 1-3 1 2 1 9-1c4 0 1 1-4 2l-5 1-5 1-5-1v9h8l7-1c-1-2 3-5 6-5l2-1 2-1v2c-2 2 1 1 23-1 18-2 28-2 68 0l23-1h10l-8-2c-7-1-7-1-3-1l-5-1c-13 0-14 0-17-2l-7-1c-7 0-17-1-16-2h14c10 1 30 0 23-1a3052 3052 0 01-39-3l-15-1-6-1-2-1-32-3a402 402 0 01-23-1m330 22c-3 4-5 4-6 4l-8-1c-10 1-12 2-14 3l-2 1-3 1-3 1-6 2c-6 4-17 6-22 6-3 0-4 0-3 1 3 3 53 5 58 2l4-1-3-1-3-1 4-3c4-4 12-15 12-17s-1-1-5 3m-283 4c0 4 0 4 4 4l10-2 7-1v1c-2 0-2 0-1 3l3 2 24-4 23-2-16-2-35-2H60v3m-24 3c0 2-1 2-10 2l-26 3 6 1a997 997 0 0141-4c-5 0-10-2-6-2l1-1c-2-2-6-1-6 1" fill="#d3d3d3" fill-rule="evenodd"/></svg>