<svg xmlns="http://www.w3.org/2000/svg" width="400" height="225"><path d="M146 36l-9 1c-4 0-6 0-5 1l3 4c2 4 2 6 3 24v19h-8l-7 2 25 1h25l5 10 18 41 14 32h-7l-8-1-5-1-4-1v-6l1-5c3 0 3-1 1-8-2-4-3-11-4-19-2-15-3-18-7-14l-2 3v-3c-2-6-3 0-3 21l-2 23-7 1h-8v6c-1 9-2 9-2 1v-7h-33v-6h11c12 0 16-1 12-3l-5-1h-19l2-2 1-3-7-1-9-1-2-1 2-1 5 1 2 1c1-1-3-4-5-4-1 0-1-1 1-4s2-4 0-5c-2-3-1-6 1-4v-3c-3-4-2-6 0-3 3 2 3 1 0-3-2-2-2-3-1-12l1-12 1-4-6-1c-8-1-10 0-13 11-3 7-5 16-6 31v8c-1 3-1 3 1 4 2 0 2 0-1 2-2 0-3 1-3 2h-3c-3 0-3 0-4 4-2 5-4 8-8 8l-3 1-5-10-9-18c-5-11-4-10-3-10l2-4c1-7 3-9 3-3 0 4 1 5 4 3 2-1 2-5 0-13-1-3-1-3 2-3s4-3 3-15c-1-9-5-12-16-12-8 0-12 2-13 7l-1 8v13c0 7-1 9-2 10-3 2-6 8-6 10 0 3 0 5-4 9l-6 9-4 11-6 18c1 1 0 1-2 1H0v54h213l3-6c4-8 7-17 6-17l-1-2 2 1c2 2 8 4 8 3h5c6-3 10-3 10-1 0 1-4 15-7 20 0 2 0 2 6 2 5 0 6 0 7-2 0-2 1-3 2-3l1 3v2h65l-1-2-2-3c-2 0-3-5-1-5 0-1 2 1 3 5l3 5h53v-3c0-2 1-3 5-5l5-3v3c1 4-1 6-4 7-2 1 0 1 9 1h11v-28l-1-22c-1 6-4 14-7 19l-1 3v-3c3-12 2-14-1-14l-2-1h2c2 0 3-1 3-2l-1-1h-1v-1l1-4 1-4c2-1 0-4-2-4-3 0-3 0-3 4l-1 6c-1 1-1 1-1-2l-1-4c0-1-9 5-9 7h-2l-3-1-2-2-1-3-2-5v-2l-1 2c-1 4-5 8-9 8-3 0-4 1-6 7 0 4 0 5 6 4 4 0 7 1 8 4s1 3-2 2c-2-1-2-1 0-1v-2c-2-1-27-2-27 0l2 2v1h-3c-2 2-15-3-15-6 0-1-2-2-9-3-8-1-9-2-9-4s2-3 4 0c2 2 3 1 2-1 0-2-4-4-9-5l-3-1 2 3c2 5 3 6 0 4h-8c-1-1 0-4 2-6l1-6 2-9 3-7 1-2h1v1c1-1 0-5-1-4l-1-1 2-3 4-2c6-4 6-5 1-2-5 2-5 2-1-3 3-4 7-6 11-5 2 0 7 5 7 7l4 5-2-6c-3-5-21-17-22-15l-7 6c-4 4-5 5-8 4-2-1-3-3-1-3l5-4 4-5-4-5c-3-6-4-6-2-5l3-1c1-3 1-2 3 2 3 6 5 4 5-8 0-9-1-11-6-16-6-6-11-6-21-1-8 4-10 6-9 9h2c2-1 5-1 5 1 2 3 1 6-2 7-2 2-2 2-1 3v5c-1 3 0 4 1 5l3 5c1 4 3 6 7 6 3 0 3 0 2 2l-2 5-2 3c-3 3-6 11-6 18l-1 6c-4-2-3 7 3 24l4 15c-1 1-11-1-21-4l-5-3h-2l-6-14-2-3-9 7-2 1v-1c1-1 1-1-1-1s-2-3 1-4c2-2 1-3-13-32l-38-79-8-16-7-1h-8l7 18c11 24 10 22 4 22h-6l-2-6c-3-8-4-8-4 0v6h-14l1-8c0-15 1-21 3-25 1-3 1-3-1-2-3 1-1-9 3-14 3-2 2-3-1 0m196 24c-11 3-24 13-18 15 1 0 2 1 2 3l2 7c3 5 4 6 2 10-1 2-2 4-1 6v6c-2 6-1 7 6 7 6 0 9 2 9 7l1 4v1l2 1c2 0 3-2 2-3-1-2 0-4 2-4 1 1 2 0 3-2l6-10 3-6c-2 0-3-3-1-5l3-17c-1-8-3-12-10-17-7-4-7-4-13-3M93 115v3l-2 4-1 9c0 5 0 8 1 7l3-2v-1c-2 0-2 0 0-2l2-4 1-7v-5l-1-1h-1l-2-1m260 7l-2 6-2 5v1l6-3 3-2 7-7c0-2-11-1-12 0m-73 13c-3 7-4 11-5 21l-2 19h2c1 0 2-1 2-3l1-5v-7c0-5 2-7 3-5l4-7a623 623 0 013-14l-3 4-3 4c-1 2-1 2-1-1l2-4v-4c-1-1-2 0-3 2m39 22l-2 6-3 7c-4 7-4 7-1 7 2 0 7-6 8-11l2-5v-10l-4 6m-178 26l3 1-3 1-3-1-1-1v1l-2 2c-1 1 3 1 9 1 13 0 15 2 2 2-5 0-8 0-6 1l5 4c3 3 7 5 15 6l7 1c3 2-4 2-9 1-8-2-18 0-17 4 3 8 1 10-2 3-1-3-1-3-4-3l-5 2-2 1-1 1v4l1 1h2c3 2 39 7 40 6v-35l-10-1c-7 0-10-1-11-2l-5-1c-5 0-5 0-3 1m48 9l1 2v2c0 2 0 2 1 1 1-2 3 0 3 6l2 6 2 3 1-3 5-17-8-1c-6-1-7-1-7 1" fill="#d3d3d3" fill-rule="evenodd"/></svg>