<svg xmlns="http://www.w3.org/2000/svg" width="400" height="225"><path d="M0 18v18l3 2c5 3 10 5 16 5l93-14A56921 56921 0 01287 1L146 0H0v18M380 1c1 4 12 10 18 10 2 0 2 0 2-5V0h-10c-9 0-11 0-10 1M82 60c-2 3-3 10 0 10l1 2c-1 2 0 4 2 5s2 1 1-1c0-2 0-4 2-5v-2h-2c-1-3 0-4 1-6l3-2v-2c-2-2-5-1-8 1m2 34v8h5c8 0 9-1 9-5v-4h-7l-7 1m-14 37c-5 3-5 3-5 12 0 10 1 11 8 8l5-3v-9c0-11-1-12-8-8m162 11c-6 4-6 13 0 17 2 2 4 2 27 2h24l3-3c6-5 4-14-3-17-4-2-48-1-51 1M0 209v16h28v-5c-2-14-12-24-24-27H0v16" fill="#d3d3d3" fill-rule="evenodd"/></svg>