<svg xmlns="http://www.w3.org/2000/svg" width="400" height="225"><path d="M0 113v112h21l8-25 9-25c1-1 94-8 95-7l-2 13c-2 14-1 19 5 24l3 3-1 7-1 9 132 1h132V0H0v113m225-81l-2 2h-22c-21 0-22 0-23-2-3-4-20-2-21 3a2126 2126 0 00-14 102v4h58l60-1-15-107c-2-4-17-6-21-1m30 24l1 5 2 14c2 15 2 15 6 15 3 0 3 0 2 1-2 1-2 1 0 1h2l-4 1-4 1 2 8 2 7v2c-1 1 3 33 6 47 1 6 3 8 6 6 2-2 1-3-1-3l-2-2-1-5c0-2 0-2 3 2l5 5 3 3 3 1-2 1c-2-1-7 2-6 3l-1 1h-1v1c-3 0-4 2-3 12 2 13 0 21-8 24l-3 3 1 4v3h51l58-1h7l-27-79-26-79a814 814 0 00-71-2M119 68c-22 2-21 2-18 3 2 0 2 1 2 3 0 3-1 4-6 5-7 1-12-4-7-7h-8l-10 1-7 21 1 1c4 0 3 6-2 8-3 1-3 2-8 16l-5 16a636 636 0 0073-4c13 0 14 0 15-2a1231 1231 0 008-61v-3h-4l-24 3m186 11c-4 1-5 2-5 4l2 2 2 1c2 3 8 1 12-2 2-3 2-3 0-4-1-1-2-2-3-1l-1-1c-1-1-1-1-7 1m-83 3l-6 2-2 2c-1 2 0 4 1 4 0-1 2 0 3 2l2 2 6-3c4-1 7-3 7-4l2-1v-2l-3-2-3-1c-1-1-3-1-7 1m3 68c-2 3 0 5 9 5s11-1 9-4c-1-2-16-3-18-1m-73 14c-4 0-5 1-6 3l-4 4c-5 3-6 18-2 22l2 3 6-3c6-3 9-4 10-1 1 2 0 3-2 5-2 1 2 1 16 1l18-1c1-2-3-4-5-3l-2 1c-2-3 9-9 12-7 2 1 6-1 6-3s-4-3-6-2c-1 1-1 1-1-2l1-3v-1l-2-3h3c2 2 2 2 4 0 2-1 2-1 6 1s4 2 2 2c-4 1-4 3 0 3l3-1c0-4 12 0 12 4 0 2 2 3 4 4 5 2 5 3 1 4-3 2-3 2-8-1l-5-3c-1-3-2 0-2 4 1 5 0 8-2 4l-3-1h-3c-1-1-2-1-6 1l-5 3h30c32 0 36 0 40-4 2-3 3-4 3-9l-1-7-8 4c-7 4-10 5-12 3-2-3-1-4 9-10l10-6-1-4v-2h-54l-58 1m184 18c1 2 1 2-1 3-1 2-2 2-3 0-1-1-1-1-1 1 0 7 10 12 14 7 2-2 2-6 1-5-2 1-3-1-2-3v-1l-2-1-4-2c-3 0-3 0-2 1m-286 6l1 1h3l-2 1c-3-1-4 0-4 4l-2 3c-5 2-3 5 3 5l8-4-2-1-1-5c1-5-2-7-4-4" fill="#d3d3d3" fill-rule="evenodd"/></svg>