<svg xmlns="http://www.w3.org/2000/svg" width="400" height="225"><path d="M159 26l40 1a1208 1208 0 00-40-1m5 6l1 1 1 3 1 3 1-3 1-3 1 2c0 3 2 5 3 3h9c2 2 2 1 1-3-1-5-4-5-5 0-1 4-2 3-2-1 0-2-1-3-6-3l-6 1M69 57l1 3c1 1-1 1-4 1-5 0-6 1-4 3 2 1 2 2 1 2v1c2 0 3-2 3-3l1-1 1 2 1-1v-2l1 2 1 3v-3l1-2v3c-1 2-1 2 4 2 4 0 6-1 5-2l2-1v1c-2 1 0 2 4 2 3 0 3 0 2-1l-2-1c-1 1-1 1-1-1s0-2 2-1h1l1 1c1 4 4 4 4 1v-2l1-1-11-1H72l8-1c4 0 7 0 6-1l-2-1h1l1-1c0-4-8-4-9-1l-2 3v-2l1-3-1 1h-1c-3-2-5-1-5 2m52 8c0 1-1 2-3 2l-3 1-1 8c0 4 0 7 1 6h1c1 2 9 5 10 3l1-1 1 1 1 1 1-1-1-2-2-2-1-1v-2l-2-1h-2v1c3 2 2 3-2 3l-3-1v-1c-2 0-2-1-2-5 0-3 0-5 1-4l3 1c3 0 3 0 3 2v3l1-2-2-9M44 89c-5 2-6 3-6 7 0 2-1 3-3 4l-3 2 3 1c2 0 3 1 4 4v4l2-2c3-2 5-3 5-1 1 1 4 0 5-1 1-2 8 0 8 2l1 2-1-5c0-5-2-6-6-2h-2l-2-1 4-2c3 0 6-2 8-3l4-1-4-1c-3 0-4-1-5-3-2-5-6-6-12-4m301 6c-2 2-3 6-2 6l1 6c0 6 1 8 5 10l3 2-3 1c-2 0-3 1-3 2h1c3-2 3 1 2 11 0 8 1 10 4 8l1-9c0-8 1-10 5-11 4 0 8 14 6 20l-2 5 3-4c3-7-1-21-7-23h-3l4-5c5-4 5-5 5-9 0-6-2-10-5-11-3-2-13-1-15 1m9 6l-5 1h-4l2 1 3 1-2 1c-3 0-3 0-3 4 0 7 8 11 13 5l4-3 1-1-1-2c-2 0-2-1-2-4s-1-4-2-4c-2-1-2-1-4 1m-223 8l3 5c3 4 1 7-5 7l-5 1-1 23v23h-10c-9 0-10 1-13 3-3 4-4 10 0 13l2 3H89a7742 7742 0 00227 0h-7l-1-4-1-11v-7l-18-1c-22 0-22 0-22 8v6l-2-4-3-3v-2l-18-1h-18v-10l1-9h35v10l1 10v-21h-37l-1 10v10h-23c-21 0-22 0-22-2s2-3 4-2l3 1-2-2c-2-1-2-2-2-12l1-12v-1c-4 1-4 0-4-8v-8l-5-1c-6 0-9-2-7-5l1-3-2 2c-2 3-29 3-31 0l-3-5-1-2h19c20 0 20 0 19 2l-1 3 4-5-22-1h-21l1 2m-83 8c1 1 1 1-2 2s-4 2-2 12a225 225 0 013 30v17c-2 13-1 14 4 14 4 0 5-1 2-3l-2-2 1-10 2-12 2-2v29h4c6 0 6-2 0-5l1-7c3-16 3-21 2-30l-1-8h6c6 1 9-1 6-3h-2l-4 1c-3 0-3 0-2-1 1-2 0-4-3-4l-2-7c0-8-4-12-10-12-3 0-4 0-3 1m76 6v33l1 31h54v-64l-27-1-28 1m221 2l-1 18v31l1 12-2 2c-3 2-1 3 4 3h3v-19c1-19 3-30 3-14l1 18v11c-3 3-2 4 2 4h4v-20l1-21c2-1 1-3 0-3-2 0-2 0 0-4 2-3 2-5 2-8-1-7-2-7-3 0 0 9 0 9-8 9h-7v-19m-215 5l-1 15c0 13 0 16 3 15s3-31 0-32l-2 2m9-1l-2 9a818 818 0 013 22c2 1 3-2 2-10l1-10v-4l-1-5c-1-3-3-4-3-2m17 8l-8 1-1 5c0 8 0 8 14 8 15 0 15 0 15-8 0-6 0-6-3-6h-17m-6 4l-1 3c0 2 0 2 1 0 1-3 3-3 4 0 0 1 0 2-2 2l-2 1c0 2 5 1 5-1 1-3 3-3 4 0 1 2 1 1 1-2l2-1 1 3 1 2 1-2c-1-1 0-1 1-1 2 0 2 0 2 2-1 1 0 1 3 1l3-1c0-1-3-2-4-1l-1-2 1-3c1 1 4 0 4-1l-3-1-3 1-2 1-2-1c0-2-14-1-14 1m118 27v5l1 4h8l10-1h4c3 1 3 1 3-1 0-1 0-2-2-1l1-2c2-3 4-4 4-1l-2 1 1 1 2 2c0 2 1 2 3 2 3 0 3 0 3-5v-5h-18l-18 1m-138 3l-1 6v5h45v-12h-22l-22 1" fill="#d3d3d3" fill-rule="evenodd"/></svg>