<svg xmlns="http://www.w3.org/2000/svg" width="400" height="225"><path d="M193 38c-2 3-1 4 1 3h2c0 2 2 1 2-1 1-2 1-2 1 0s0 2 1 1h1l3 1 2-1h1l3 2 2-2h1l2 2c2 0 2 0 1-1l-1-3v-2l-1 2-1-1c-1-3-4-3-5 0l-1 2v-2c-1-3-5-3-5 0 0 2 0 2-1 0l-1-1h-5c0-2-2-1-2 1m22 15c2 0 2 7 0 17 0 4-5 4-5-1-1-4-2-5-15-5-8 0-8 0-11 3s-3 3-3 12c1 8 1 9 3 12l4 4-1-2-1-4v-3l3-6c1-5 2-5 5-5l4 1 3 1 2 1v5l2 2 1-2c-1-2 0-3 1-3v13c-1 1-1 1 0 0l2-5c0-2 1-3 2-3l2-2-2-3c-3-1-2-3 1-3h3v6c0 10-1 14-3 14-4 0-7 1-7 3l-2 1c-4 0-4-2 0-3l3-3-3 1c-4 2-9 3-12 0l-3-1 2 3c4 2 4 3 0 3s-6 2-6 6v3h-13c-13-1-16 0-16 3l16 1 15 1-1 9v11l1 11 2 33 1 24h11c11 0 11 0 11-2s0-2-1-1l-2 1 1-2c1-1 1-1-1-2-2 0-2-5 0-36v-9h38v-5c0-4 1-5 3-7 5-2 6-9 1-13-3-3-6-3-10 1-3 2-4 2-13 2s-9 0-9-2 1-3 3-4l4-2v-10c1-13 0-14-3-14s-3-1-3-8c1-5 1-6 4-6 5 1 5-2 1-3-6-1-5-4 1-4 4 0 5-1 5-2 0-2-1-3-5-3h-4V53h4c3 0 1-1-3-1-5 0-8 0-7 1m78 11l-9 51c-2 1-4 1-4-1l2-4c2-3 2-3 1-6-3-4-2-22 1-24l1-4c0-2 0-2-1 0 0 3-3 5-4 3h-14l1 2c-3 0-2 2 0 2 2 1 2 0 2-1-1-1 0-1 3-1l4 1h4v10c-3 7-13 7-17 1l-3-3c-3-1-4-3-1-4 1 0 2-1 2-3l1-5-1-1-1 5c0 2 0 3-2 3l-1-6v-4l-1 11c0 10 0 11-3 14-2 4-2 9 1 9v-1c-2-2-1-5 1-8l2-6c0-4 3-4 5 0l3 3c3 1 4 3 2 3h-4c-3 1-3 3-1 9 0 4-2 4-5 1h-2c0 2 5 4 6 3 2 0 4 7 4 12-1 4 0 20 1 45v23h5c5 0 6-2 1-4-2-1-2-2-2-5a294 294 0 004-47c2 3 3 27 3 40-1 16-1 16 5 16 5 0 5-1 1-4l-2-2 1-12c2-21 2-39-1-46s-3-8 0-7c2 0 2 1 2 3-1 5 3 5 4 1l1-3c3 0-2-2-6-2-7-2-13-5-17-11l-4-7c1-3 3-2 6 3l6 8c5 3 17 7 16 4l1-2c1-1 2-3 0-3v-3a1067 1067 0 016-47l-3 1m-173 6l-4 2-3 2c-4 2-4 19-1 23 3 2 2 8-1 17-4 8-4 17 0 25 5 9 6 18 7 52v5h11c10 0 14-1 11-2h-1l-4 1c-3 0-4 0-4-2l4-1h3l-2-1v-39l1-20h6c6 0 9-2 7-5l-7-1h-6l-1-7 1-7 9-3-5 1c-5 1-5 1-6-1-2-1-2-2 2-2l6-2-2-1c-5 2-13 2-13 1l3-2c4-3 6-7 5-15l1-6v-9c-2-3-12-5-17-3m29 7l-1 8c0 8-1 15-4 17v2c2 0 4-5 5-13s1-9 3-8c1 1 1 5-1 15l-3 6-1 4c6-2 10-32 4-32l-2 1m-29 33l-1 16v13h16v-13l-1-14c-1-4-4-5-7-4h-3c-2-2-4-1-4 2m-8 4c-4 8-4 15 0 23 2 5 3 6 4 5s1-2-1-6c-3-7-3-10-2-14l1-8v-4l-2 4m74-1c2 7 10 9 22 6 6-2 7-3 6-6l-7 1c-8 3-12 3-15 0l-2-3-2-1c-2 0-2 0-2 3m10 36l-1 28v20l2 1 3 1v-13l-3-43c-1-3-1-1-1 6m-70 5c-2 28-2 36 0 37 1 2 1 2-3 1l-4 1c0 2 1 2 4 2l4-1h1c2 0 1-38-1-45-1-4-1-4-1 5" fill="#d3d3d3" fill-rule="evenodd"/></svg>