<svg xmlns="http://www.w3.org/2000/svg" width="400" height="225"><path d="M243 73c-2 2 4 13 7 13s7-9 5-11c-1-1-2-1-3 1l-2 2-2-3c-2-3-3-4-5-2m25 4c-2 1-1 3 1 5v1l-2 1c0 2 3 2 5 1 2-2 2-2 3-1 2 3 4 2 5 0 0-2 0-2 2 0s4 2 5 0l-1-1-2-1 2-2 1-1c0-2-4-1-5 1h-2c-1-3-5-2-6 0 0 2-1 2-3 0-2-1-2-2-1-2h2c1-2-3-2-4-1M90 81c-4 1-8 5-9 9-2 7-2 23-1 27 2 5 9 14 13 16l3 3-11 2c-3 0-5 2-5 9-1 7 0 15 2 20l1 8v4H69c-12 0-14 1-15 2h1l72-1 57-1h-14v-7c0-6 0-8 2-12 4-7 2-14-2-10l-2 2-2-3v4l-1 10c-1 2-1 2-2-5l-1-6-1 2v10c-4-3-1-21 3-18h1c0-2-2-2-25-2h-23l-3-3c-1-2-3-3-5-3-4 0-4-2 0-4h-3c-8 1-12-1-16-5s-6-9-4-12c1-1 1-1-1-1h-2v-1l1-1 2-1 4-3 2-7 2-5h5l8 2 8 2c7 0 8 3 2 3l-4 1c0 1 1 2 4 2h4l-1 7-2 9-1 4c2 1 4-7 5-16l2-13c1-2 2-11 1-13l-3-2-5-1-11-2a224 224 0 01-16 0m50 18h-2l-1 1v1c-1-1-1-1 0 0l-1 1c-1-1-1-1 0 0h-1l-1 1v2c-1-1-2 3-2 7l2 2 1 1c-1 1 1 4 3 4 1-1 1-1 0 0l1 1h1l5 1c3 0 4 0 3-1s-1-1 1-1l2-1h1l1-1v-1l2-1v-10c-1 1-1 0 0 0l-1-2c-1 0-2 1-1 5 0 3 0 5-2 7l-1 3h-4c-8 0-10-1-9-2l-1-2-1-5c0-7 8-11 14-8 2 2 3 2 3 1l-1-1-1-1-5-1h-5m153 13l1 2v4h4c1-1 1-1 1 1l2 2 1-2h1l3-1h6c3-1 3-6-1-6l-3 1c0 2 0 2-2 0-2-3-7-3-7 0 0 1 0 2-2 1v-1l1-1h-5m-50 29c-1 1 5 13 7 13l4-5c3-5 3-5 2-7-2-1-2-1-4 1s-4 2-4-1c0-2-4-3-5-1m105 2l-2 1-3 2h-2c0-2-3-3-5-1h-1l-3-1c-3 0-4 1-2 2v2c-2 2-1 3 2 3s3 0 2-1c-2-2-2-2-1-3 2-1 2-1 2 1s3 4 5 3l1-2 2 1c1 1 3 2 4 1 3 0 3-1 3-5l-1-5-1 2m-81 3c0 5 0 5 3 5l4-1c1-2 1-2 3 0s5 2 5-1h1c2 2 5 3 6 1l-1-1-2-1 2-2 1-1h-7c-2-2-5-1-5 1-1 1-1 1-2-1s-3-3-5-3c-3 0-3 0-3 4m-151 0l-7 28 23 1h23v-5c0-4 0-7-2-10-4-7-2-14 2-10 3 2 3 2 3 0l1-3c1-2 0-2-21-2l-22 1m-34 8c-3 1 1 15 6 20 5 4 8 5 9 3 1-1 2-2 5-2h4l-5-3c-9-4-11-7-12-15-1-4-3-5-7-3m-26 29" fill="#d3d3d3" fill-rule="evenodd"/></svg>