<svg xmlns="http://www.w3.org/2000/svg" width="400" height="225"><path d="M142 24l-1 5c0 4 0 4 3 4l4-2c1-1 1-1 2 1 2 2 6 1 7-2 0-4-3-6-6-3h-2c0-3-6-5-7-3m59 0v2h-2c-2-2-2-2-3-1-1 2-2 2-3 1-2-1-5 0-4 2v2c-2 2 0 3 3 3s3 0 3-3c0-2 0-2 1 0 0 3 3 4 4 2h1l1 1 1-5c0-5-1-6-2-4m-41 2c-2 0-3 7-1 7l1-2 1-3 1 3 1 2 1-2 1-3 1 3 1 2 1-2h1c1 2 5 3 7 1h7l-1-1-2-1 2-2 1-1c0-2-3-2-5-1-1 2-2 2-4 0-2-1-2-1-4 1l-2 1-1-2h-7m82 0c-3 3-2 7 2 7l3-2 2-1v1l-1 1 5 1c5 0 6-1 6-4s-2-4-4-3h-6c-1 2-2 2-4 0h-3m-53 30c-3 4-4 17-2 21 1 3 5 7 5 5l-1-1-1-9v-7h3l5 2h3l5-1h4v6c0 9-3 14-10 13l-6-1-2-1 2 2c3 2 3 3-1 3-1 0-2 0-1 1 2 0 3 5 1 5s-4-2-3-4h-2c-2 2-2 2 1 4l9 2c5 0 5 0 4-1v-2l1 1 2 1c1 0 2 0 1-1v-5c3 0 4 3 2 4v1l4-2 1-2c-1 1-2 0-3-1l-4-1c-4 0-4-1-1-3 4-1 9-9 9-11l-1-9c0-9-2-11-13-11-8 0-9 0-11 2m86 24h-2c-2 0-2 0-1 1l-1 1c-1-1-1-1-1 1v2c-2 0-2 3 0 4l1 2v4l-2-2c-1-2-4-3-4-1 0 3-2 3-3 2-3-2-4 0-3 3 0 3 0 3-2 3-1 0-2 1-2 3-1 2 0 2 1 2 2-1 4 1 2 2-2 2 1 5 3 3 2-1 3 0 3 2l2 2 2-1c0-2 2-3 3-2h2c1-1-3-3-4-2-3 0-2-1 1-3 3-4 3-4 2-1l1 4c2 1 3 0 1-2-1-1-1-1 1-2 3-1 4-4 2-4l-2-1c-1-1 1-5 3-5l1-2h1c2 2 4-1 3-3v-2c2 0 3-3 1-3l-2-1h-2l1-2h2c2-1 0-2-3-2h-2l-1-2-2 2M80 85v8c0 6 1 7 3 7 1 0 2 1 2 3 0 3 0 3-5 3l-5 1v8h5c4 0 5 0 5 2a1942 1942 0 0129 2c11 1 11 1 10-9v-6h-10v13h5l-14 1c-16 0-21-1-18-2h1l6 1h5v-12l-6-1-5 1-1 1-1-4v-2h19c18 0 19 0 5-1-18 0-18-2 0-2 10 0 14-1 15-2l-14-1-15-1 15-1 15 1v12l1 8c0-2 1-3 2-3v-1c-2 0-2-1-2-9v-8l-16-1H96v-7h-8l-8 1m2 1l-1 6v6h14V85h-6l-7 1m133 9l-1 5-1 4h-1l1 1 1 2 1 4 1-8v-9h3c2 0 3 1 3 2l8 1h6v14h-10c-8 0-9 1-5 1h16V96l-7-1-7-1c0-2-8-1-8 1m-114 16v6h10v-13h-10v7m-25 0v3h15v-7H76v4m218 2c-4 2-7 7-7 13l-1 6c-1 2 4 10 8 13l3 2h-3l-5 3-3 1v2l1 2c1-1 3 0 5 1 6 2 13 1 19-1 5-3 7-5 5-5l-2 1-2-1-5-2c-2-1-2-1 0-3h-5l-2-1c-4 1-7 0-8-4-3-4-3-8-1-6s16 2 19 0c2-1 2-1 2 2l-2 5 3-2c5-5 3-20-3-24-4-3-12-3-16-2m0 2c-2 1-5 5-6 9 0 3 0 3 3 3l6-4c3-2 4-3 4 0l2-1h3l7 5-1-8c-2-4-12-6-18-4m-58 7c1 2-5 2-47 2a1128 1128 0 0059 0l-10-1-1-2-1 1m23 6l1 2h-61c-57 0-61 0-61-2h-1c-1 2 0 3 4 3h3v12l-1 13v1l1 17c0 17 1 20 4 20 2 0 2 0 1 3 0 2 0 2 1 1l2-15c2-19 5-33 7-33 1 0 1 1-1 9-2 11-1 11 4-1 3-8 7-14 8-13l-3 10-3 11c2 1 3-2 8-12 4-11 5-13 7-11l-4 12-4 13c1 2 3 0 8-13 5-12 6-14 7-12l-3 15c-3 8-5 17-5 21v4l6-12 1-3-2 1c-1 2-2 1-2-1l3-2c1 0 2 0 1 1h2c3 0 4 2 2 3l-4 9-7 13c-4 5-5 8-2 4 2-2 4-2 22-2 19 0 22 0 19-3l-5-8-3-7h-11c-9 0-10 0-10-2l1-2h8c7 0 9 0 10 2l-1-3c0-3 3-2 5 0 3 3 6 9 7 13 1 2 1 1 1-4l-5-20-4-15c1-2 2 0 6 9l8 16c2 0 1-2-4-15-4-12-5-17-2-14 1 1 4 6 6 13 7 18 10 19 5 2-3-10-3-14-1-11l5 12 4 11c2 1 2-2 1-8s-1-9 1-8c1 2 4 17 5 29s6 30 7 26l-2-5c-2-6-3-8 0-8 4 0 4-1 4-33v-30h4c4 0 6-3 3-5l-1 2m-113 34c0 27 1 31 2 31s2-2 3-11v-11l-1-19 1-17 48-1h48v15c0 12 0 15-2 15-1 0-1 3 1 3v5l-1 8c1 11 2 13 3 13 4 0 4-2 4-32v-30H146v31m-69-28c-14 6-19 23-10 36 4 6 4 5 0-2-7-11-3-25 9-31 21-11 41 13 28 33l-3 5-1-14c0-13-1-15-3-18-5-6-13-8-19-3-5 4-6 7-6 22v14l4 2c13 6 29-2 33-16l3-5v-1c-1 0-2-1-2-4l-3-6-1-5c0-2 0-2-1-1l-3-2c-6-5-18-7-25-4m3 18c-2 1-2 1 0 1l2 2h-4l2 2 1 1-1 1c-3 0-2 5 0 6 3 3 10 2 13 0 2-3 2-6 0-6l-2-1 2-1 1-2h-4l2-2-3-1h-9m184 12c-6 1-6 1 2 1s9 0 9 2c1 2 0 2-7 2s-7 0-7 2 1 3 4 3l3 1h-2l-5 2c-2 3-2 3 0 5v2l-1 3v3h18v-3l-1-3v-1c2 0 1-4-1-6-1-2-3-2-4-2h-2l3-1c3 0 3-1 3-3l2-2c2 0 2 1 2 12l1 13v-13c0-17-2-18-17-17m43 1c-1 1-3 2-3 4l-2 3-1 8c0 6 0 8 1 7l1-7c0-6 0-6 7-7h7v8l1 8v-9l-1-8-1-2c0-1-4-6-6-6l-3 1" fill="#d3d3d3" fill-rule="evenodd"/></svg>