<svg xmlns="http://www.w3.org/2000/svg" width="400" height="225"><path d="M224 21c-3 2-6 6-6 9l-2 2c-1 1-1 1 1 1l3 2c1 4 5 6 10 6h5c-1 0 0-2 2-3 7-9-3-21-13-17M121 35c-3 2-5 7-5 11 2 9 15 10 19 1 3-8-6-16-14-12m49 6c-6 5-7 11-2 18 2 3 3 4 8 4 13 0 18-13 9-21-4-4-11-4-15-1m2 1c-11 6-5 22 7 20 12-3 11-20-1-22l-6 2m4 2l-1 2c0 2-1 2-3 2-3 0-3 0-3 5v4h16v-4c0-5 0-5-3-5-2 0-2 0-2-2 1-3 1-3-1-3l-3 1m100 9c-3 2-5 8-4 11l-1 2-1 1 1 1 4 3c3 2 5 3 9 3l1 1h1l2-1 5-3c10-11-5-28-17-18M89 54c-4 2-5 5-5 9 0 5 4 11 8 11l2 1 8-4-3-3-4-2-4 2-4 2-1-3c-3-6 2-13 9-13s11 6 9 12c-1 4-1 4 2 2l1-1-1-3c0-9-9-15-17-10m189-1v1l-1 1c-3-2-5 7-3 11l1 3 4-2c4-2 9-2 11 1 2 2 3 1 4-2 1-4 0-10-3-12-1-1-10-2-13-1M59 82c-11 5-8 24 4 24 6 0 12-3 13-6l1-5c1-9-9-16-18-13m134 1c-3 0-7 2-10 4l-5 3-2 2-2 7c-2 4-3 7-3 13 0 30 40 41 56 14 7-12 5-27-6-36l-3-4 2-1h-2l-5-1c-6-3-14-3-20-1M59 85c-4 1-5 4-5 9 0 12 19 14 21 2 1-10-8-16-16-11m133-1c-20 8-26 32-12 47l4 4 3-3 6-4 4-1-4-2c-7-5-9-10-9-20 0-15 3-18 18-18 9 0 9 1 12 4s3 4 3 11l1 9c1 2-5 12-10 14l-3 2 4 1 6 4 3 3 4-5c19-21-3-55-30-46M61 85c-6 3-8 10-3 15 8 8 21-3 13-12-3-3-6-4-10-3m222 1c-6 3-8 11-4 16l1 4 1 1h5c6 2 14-4 14-11 0-9-9-15-17-10m1 0c-10 5-6 20 5 20 4 0 10-5 10-9 0-9-8-14-15-11m1 3l-1 7c0 4 0 6 1 5l3 1h1l2-1c2 1 2 0 2-5 0-6 0-7-2-7h-6m55 1c-8 5-7 15 1 19 11 6 21-9 12-17-4-4-8-5-13-2m-150 0c-4 3-5 10-2 10l1-2c0-3 2-3 2 0 0 2 0 2 1 1 0-2 2-3 2-1l2 2 4 1c1 2 1 2 2 0l4-1 2-2c0-2 2-1 2 1 1 1 1 1 1-1 0-3 2-3 2 0l1 2c2 0 1-7-2-9s-19-3-22-1m-1 19c0 11 4 17 12 17s12-6 12-16l1-8-4-1-5 1c-1 1-1 1 2 1s4 1 3 3-5 1-6-1c0-2-1-2-2-1s-1 1-3-1c-1-2-2-2-6-2h-4v8m132 21l-4 4c-2 2-3 3-5 2v1l2 5c0 3 3 9 4 9l1 1c0 1 2 2 5 2 11 0 17-8 13-17-3-7-9-10-16-7m-133 3c-3 3-2 4 4 5 13 4 29-1 21-6-3-2-8-2-10 0l-2 1-2-1c-3-3-8-2-11 1m131 1c-3 2-3 4-3 7 0 6 1 8 5 6 4-3 7-2 11 0l3 2 1-3c5-11-8-20-17-12m-267 1c-4 4-4 10 0 13 9 8 21-4 12-12-4-4-9-4-12-1m39 30c-9 5-10 11-3 18 6 5 10 6 15 4s9-8 8-12c0-4-3-9-4-9v2c6 8 1 18-9 18-4 0-10-3-6-3l4-1 7-1c5 0 6-3 1-4l-3-3c0-3-2-6-5-7l-3-2 2-1 9 1h2c0-2-10-3-15 0m135-1c-7 2-11 11-9 18 5 16 28 12 28-4l-1-6v-4h-3c-1-3-10-5-15-4m70 14c-4 5-2 12 3 14 8 3 15-5 10-13-2-5-9-5-13-1m-101 9l-3 1c-2-1-1 10 1 12 7 9 20 0 16-10-3-5-11-7-14-3" fill="#d3d3d3" fill-rule="evenodd"/></svg>