<svg width="20" height="20" viewBox="0 0 20 20" fill="none" xmlns="http://www.w3.org/2000/svg">
<path d="M13.6281 19.3053C13.6448 19.3006 13.6609 19.2939 13.6776 19.2876C23.8568 15.244 21.0406 0 10 0C4.45938 0 0 4.51596 0 9.99844C0 16.9364 7.02813 21.8872 13.6281 19.3053ZM4.40104 16.7135C5.11094 15.5205 7.40833 12.1544 11.3302 10.9926C12.1505 13.0829 12.7255 15.5215 12.7818 18.2872C9.8099 19.286 6.67604 18.6138 4.40104 16.7135ZM14.0109 17.7655C13.9016 15.1086 13.3594 12.7522 12.5859 10.7108C14.3208 10.44 16.3292 10.6207 18.6068 11.5331C18.1224 14.2504 16.3849 16.5339 14.0109 17.7655ZM18.7375 10.2411C16.2292 9.29855 14.0182 9.18138 12.1047 9.54642C11.8089 8.87986 11.4984 8.23934 11.1688 7.64933C14.1047 6.47711 15.8396 5.04817 16.6161 4.29152C17.9875 5.87721 18.8016 7.93105 18.7375 10.2411ZM15.7292 3.40103C15.0224 4.07332 13.3583 5.43144 10.5125 6.54221C9.11719 4.33578 7.62552 2.77925 6.68073 1.90804C9.70417 0.662917 13.1911 1.19513 15.7292 3.40103ZM5.48594 2.51888C6.19896 3.14638 7.7651 4.65292 9.27604 6.98224C7.20104 7.65037 4.59948 8.14144 1.4349 8.2107C1.93802 5.79909 3.44167 3.75618 5.48594 2.51888ZM1.27656 9.46519C4.81823 9.40738 7.6849 8.84862 9.95052 8.09196C10.2641 8.64136 10.5615 9.23918 10.8474 9.86096C6.90156 11.1175 4.43594 14.3613 3.49167 15.8257C1.96823 14.1264 1.12813 11.908 1.27656 9.46519Z" fill="white"/>
</svg>
