<svg width="20" height="20" viewBox="0 0 20 20" fill="none" xmlns="http://www.w3.org/2000/svg">
<path fill-rule="evenodd" clip-rule="evenodd" d="M0 10.016C0 4.4897 4.48253 0 10 0C15.5175 0 20 4.4897 20 10.016C20 15.0818 16.2338 19.2669 11.3539 19.9298L10.8381 20V12.0941H13.3736L13.6213 10.4917H10.8381V8.66264C10.8381 8.09103 10.9217 7.53009 11.1905 7.06029C11.4593 6.59049 11.9771 6.23777 12.6083 6.23777H13.7207V4.9262C13.6937 4.92288 13.6666 4.91947 13.6391 4.91601C13.344 4.87888 12.9992 4.8355 12.2177 4.8355C11.1491 4.8355 10.3812 5.10857 9.86151 5.65001C9.34181 6.19145 9.02788 7.05444 9.02788 8.36475V10.4926H6.66548V12.095H9.02788V19.9876L8.50586 19.9084C3.69433 19.1845 0 15.0327 0 10.016ZM19.0909 10.016C19.0909 4.9818 15.0262 0.910546 10 0.910546C4.97384 0.910546 0.909091 4.9818 0.909091 10.016C0.909091 14.3978 4.00772 18.0082 8.11878 18.8805V13.0055H5.75639V9.58207H8.11878V8.36475C8.11878 6.90655 8.47829 5.77715 9.20632 5.01867C9.93435 4.26019 10.989 3.92495 12.2177 3.92495C13.3244 3.92495 13.945 4.00913 14.2237 4.04693L14.2356 4.04855L14.6298 4.1019V7.14832H12.6083C12.2645 7.14832 12.1243 7.2587 11.9789 7.51289C11.8334 7.76709 11.7472 8.1903 11.7472 8.66264V9.58118H14.6813L14.1531 13.0046H11.7472V18.9089C15.9254 18.0888 19.0909 14.4457 19.0909 10.016Z" fill="white"/>
</svg>
