<svg width="19" height="14" viewBox="0 0 19 14" fill="none" xmlns="http://www.w3.org/2000/svg">
<path fill-rule="evenodd" clip-rule="evenodd" d="M2.2959 0.524658C3.72555 0.21875 6.41059 0 9.26989 0C12.1275 0 14.7685 0.21875 16.2845 0.4375C17.2387 0.65625 18.061 1.35693 18.2335 2.31909C18.4501 3.41284 18.6667 4.98853 18.6667 6.95728C18.6244 8.92603 18.4078 10.5 18.2335 11.5938C18.061 12.6003 17.2387 13.2566 16.2845 13.4753C14.7685 13.7812 12.1715 14 9.31218 14C6.45288 14 3.85583 13.7812 2.3382 13.4753C1.38566 13.2566 0.563401 12.5559 0.389136 11.5938C0.172573 10.5 0 8.96875 0 7C0 5.03125 0.174265 3.45557 0.346838 2.40625C0.519412 1.39966 1.34336 0.743408 2.2959 0.524658ZM16.1119 1.35522C14.8988 1.13647 12.388 0.875 9.26989 0.875C6.54086 0.875 3.89812 1.09375 2.46847 1.39966C2.44991 1.40713 2.42626 1.41589 2.39846 1.4262L2.39843 1.42621L2.39842 1.42621C2.10181 1.53614 1.33219 1.82137 1.21309 2.58228C1.04051 3.5 0.86625 4.98682 0.86625 7C0.86625 8.61841 0.996525 10.2368 1.34336 11.4622C1.42965 12.0312 1.94906 12.4688 2.59875 12.6448C4.11469 12.9934 6.75573 13.1677 9.35448 13.1677C11.9532 13.1677 14.552 12.9507 16.1119 12.6448L16.1417 12.6347C16.4326 12.5366 17.2432 12.2634 17.3673 11.4622C17.5416 10.3684 17.7581 8.83716 17.8004 6.95728C17.8004 5.42603 17.6278 3.9375 17.3673 2.53784C17.281 1.96875 16.7616 1.53125 16.1119 1.35522ZM6.93 10.5L12.9937 7L6.93 3.5V10.5ZM11.2612 7L7.79625 4.98853V9.01147L11.2612 7Z" fill="white"/>
</svg>
