<svg xmlns="http://www.w3.org/2000/svg" width="400" height="225"><path d="M0 36c0 32 1 39 3 33 0-2 0-2 2-1 3 1 6 0 6-2l3 1c3 2 4 1 2-2-2-4-6-6-6-2l-2 1v-1c1-2 1-2-1-4l-2-2h2c4 0 15 5 15 7l2 1h1l-1 2v1l3 6c0 4 0 4-2 4l-4-3c-2-3-2-3-4-1-3 2-2 2 1 5 3 4 3 5-3 5h-5v6c0 5 0 9-2 12-1 6-1 6-5 6H0c0 2 3 4 4 4 2-1 5 1 3 2l-1 1c0 2 0 2-2 1-2-2-5 1-3 5l2 3v-2c-1-3-1-3 3-4h5l3-1c4-2 7-2 7 0l3 2c1 0 2-1 2-6l1-6-1 19c0 5 0 5-4 5s-6-2-2-2c2 0 2 0 0-1l-2-1h2l3-1h-3c-2-1-3 0-6 3l-3 3-2-2c-3-3-6-5-8-5l-1 50v50h401V0H0v36m29-6l-4 1c-5-1-9 1-6 3l4 1c7-1 7 0 5 4-2 6-1 6 3 4l3-4v-2l2 2c3 3 5 8 2 7v2l4 3c2 0 3 3 1 6v2h1c0-2 3-5 5-4 2 0 1 0-4-7-2-3-3-5-2-6l-1-2-1-1 3-1c1 1 2 0 2-1h2l3-3 4-2c2 1 2 0 1-2s-17-1-18 1c-1 3-3 2-5 0s-4-3-4-1m41 1l-10 1-1 3-1 18-1 14-6 1-11-3-11-2c-1 1 9 6 12 6 6 0 7 1 3 3-3 2-3 2-1 2l4-2c2-1 3 0 1 2v1l1-1h2l4 2c2 0 2 2 2 10 0 9 0 9 3 10 2 1 2 1 2 5-1 4-1 4 1 5l3 2h2c0 1 0 2 1 1l1-6c-1-5-1-5 2-6 1 0 3 0 4 2 2 1 2 1 0 3-3 2-8 15-7 18l-1 5c-2 5-6 5-7 0l-2-3c-2 0-1 6 2 10s3 4 3 1l1-2v5l1 5c2 0 2 2 1 7l1 15 2 8-2 1c-8 5-11 10-14 21v3h19l1-4 3-4 1-4-1-2v-3l-1-2-1-5c-1-3-1-3 2-7 3-3 4-3 4-2 0 3 5 12 7 12v1l3 8 4 9c1 2 1 2 2 1h1c0 2 1 2 2 2 2 0 3-1 3-6 0-7-1-10-2-8h-1l-3-1c-3 0-6-1-4-2v-3c-3 0-2-2 0-4s3-3 1-3v-2c1-2 1-3-1-3l-3-4-2-3 4 1 6-1 4-3 1-1c-2 0-1-2 1-2 2-1 2-1 1-4-2-3-3-4-5-1-1 1-7 1-7-1 0-1 3-4 6-5l3-1h-3l-4-1c-1-1-5 4-7 8l-1 2h-5v-2c-3 0-1 6 3 7l2 1-1 1c-2-1-2 0-2 1 0 6-6-7-6-14l-1-5c-2-1 3-9 4-9l4-3c1-2 1-3 2-2l4 1c8 0 20 8 17 11-1 2-2 24 0 24l3 2 3 2 1 1 2 1v-3c-1-1-1-1 1-1l1-1c-1-1 0-2 1-3l1-2 4-3c5-3 5-4 7-19 1-9 0-12-2-14v-2l1-1c0 2 0 2 2 1l4-1c2 0 3-1 3-2s0-2 1-1v2c-1 4 4 8 7 5s0-11-4-11c-2 0-3-1-1-3v-2c0-2 3-4 6-2l4 1c3 0 6 3 6 6 0 1 0 2 2 1l1 1v1c2 0 2-2 0-3-2 0-3-6 0-8 1-2 2-6 2-24 0-19 0-21 2-21l10-3-3-1a454 454 0 002-3c-2-4-1-6 6-5h8c3 1 8 0 6-1l-5-2-6-2-1-2v-3c0-1 0-2-2-2l1-1c2-1 0-1-5-1h-7l2 2 2 3-1 2c-2 2-6 3-6 2h-2c-2 1-2 1-3-3l-2-2-1 1c1 2-3 5-4 3l-2-1c-3 0-5-1-4-2s1-1-1-1-3 0-2 1l-1 1-1-2-1 2c-2 3-2 3-8 3s-7 0-7 2l-1 34c0 34-1 48-2 48-2 0-2-3-1-8 3-7 2-9-5-10h-6v4c0 5-2 10-4 10l-2 3c-1 2-1 3-4 2l-4-2-3-3c-2 0-3-2-4-5l-3-8-2-5c2 0 4 2 4 4 0 1 1 2 3 2h2V34l-1-3h15a814 814 0 00-40 0m143 40l-2 14v11h-3c-4 0-6 2-3 4l1 2-2 1 3 2 2-2 2-1 1 2 3 3 2 4c0 4 3 4 5-1 1-4 1-4 8-3s8 1 9-4c1-2 3-3 5 0v1l1 4 1 4 1 1 1-4c-1-3 0-4 1-6l2-4c0-2-5-12-7-12l-1-3c0-1-2-4-4-4l-2-1-2-1-2-1-3-1-4-2c-1-2-2-2-5-2-4 1-8 0-5-1l-1-2c-2-1-2-1-2 2m-81 8v2c2 3 2 3 3 10 0 4 0 4-3 7-2 2-2 3-2 7 0 6 1 6 5 2 1-2 4-3 5-3v-2c-1-2-2-6-2-13-1-11-1-12-6-10m50 20l-5 6 6 5 2-3c2-4 6-5 6-2l2 4v6c0 4 1 5 4 2l1-2v-2c3-2 3-1 2 3 0 4 2 10 4 10 1 0 4-6 3-7h-3v-3c1-3-1-5-5-5-3 0-3 0-3-2l1-5c0-1 0-2 1-1 0 1 5 2 5 0 0-1-3-3-5-2-4 1-6 1-6-2s-2-4-4-4l-6 4m-142 3a214 214 0 00-3 11c1 4 3 5 4 3 1-1 1-1 1 1l-1 3c-1-1-10 2-8 3 1 0-2 6-4 6l1 1v1l-3 2h-1l-5-1c-3 0-4 0-2 1 1 1 0 1-4 1-6 0-7 3-3 5 3 1 4 3 1 3l1 1v2h2l3 1c2 0 2 0-1 1l-3 1h3l4 1-5 1c-12 2-11 2-11 6 2 7 4 12 7 12l2 1h-3c-2 0-2 0-2 2l2 4 2 3v2c-2 3 0 6 3 6s3 0 3-2c0-3 1-4 3-1h2l-2-2 1-1 2-4 1-5c1-1 1 1 1 5-1 8 1 10 3 3l1-3c2 0 0-7-1-8v-1l6-2c2-1 3-4 0-11-2-7 0-20 3-24 4-5 4-8 3-13l-2-12-1-8v5m141 30c-2 2-4 5-5 9l-2 7-2 5-1 4-4 9 1-1c2-1 0 7-2 11l-3 6-3 6c-3 4-3 5 0 5l2 1c0 3 3 1 7-4 3-4 5-5 7-5 4-1 5-2 2-3-2-1-3-4-1-4s1-3-1-4l-2-3v-1l-1-1c0-1 4-1 11 1l4-1v-4l-1-3-1-3-1-2c-2 0-2 0 2-6 3-4 7-6 9-5v-1c-1-2-7 0-12 4-5 3-7 2-5-4v-6l5-7 3-1c1-2-4-1-6 1m-66 2c-3 3-3 3-1 10 1 5 1 5 4 5s4-1 6-5c3-8 4-9 1-9l-4-1c-2-3-3-2-6 0" fill="#d3d3d3" fill-rule="evenodd"/></svg>