<svg xmlns="http://www.w3.org/2000/svg" width="400" height="225"><path d="M0 113v112h401V0H0v113m153-83l-11 1c1 0 2 5 0 8v2c1 0 1 11-1 13v2c2 2 3 8 1 8v2l-1 1-1 2v4c-1 0-1 1 1 1 2 1 3 3 1 4l-1 1-1 1v5l1 3 1-2 1 1-1 3v1l2 1v3l1 4v1l1 3v2l-1 14v6l-1 4 1 3v3l1 5 2 5c-1 5-1 6-32 24-14 8-17 9-16 7v-1l-2-3-1-1a1140 1140 0 01-8-125l-1 1c0 2-23 7-31 8l-11 1-4 1v12l9 120 1 7h46l58-1h12l3-8 4-11c0-3 1-5 4-8 4-5 5-5 5-2l2 4c2 2 2 2 1 4-1 1-1 1 1 2s3 0 3-2l-1-4c-4-2-4-5-2-12l3-6 15 2 16 2c2 0 5 5 5 9l1 3 40 6c2 1 3 0 4-5l3-5 18 3c19 4 19 4 19 11 0 4 0 4 6 5l6 1c3 0 6-10 6-18 1-9 2-12 4-7 1 2 2 2 7 3h5v-18c2-2 0-3-5-4-3-1-4 0-9 2-2 2-6 3-7 3l-3 2-1 1-1-1-1-2h-2c-1 1-1 1-1-1-1-1 0-1 2-1l4-1 2-1 1 1c-1 2 1 2 3 1s2-1 1-2v-2h-4l-3 1h-2l-2-2c-5 0-5 0-3-1s-1-2-11-4l-7-1v-4l2-14v-9h-3c-4-1-3-3 1-3 3 0 8-2 5-2l-2-1a3866 3866 0 015-67v-3h-70l-82 1m182 10l-24 19c-7 6-8 8-3 10 4 2 5 2 7-2 2-3 2-3 4-3 5 2 9 2 9 1l5-5c5-3 6-4 7-8 0-2 1-6 3-8 2-4 3-6 0-7-1-1-3 0-8 3m-89 65c-2 2-5 2-5 0h-2l-1 1c2 2-3 11-7 11v1l-1 3v1l9 1 8 2 1-3v-11c0-8-1-8-2-6m130 12c-7 0-8 1-8 6v9c2 2 12 4 15 3 2-1 2-1-1-4-5-5-4-7 1-3l3 2 3-2c3-2 4-2 4-1l-3 3c-5 2-4 5 3 5 6 0 7-1 7-10v-8h-24m-6 22c-4 2-3 3 7 4a895 895 0 0122 3l1-4c0-4 0-4-3-4l-14 1h-2c-1-3-8-3-11 0m-4 18c-1 9 0 14 2 14h3l1-3 3-7 2-7c1-2-1-3-7-3-3 0-3 0-4 6m12 2c-2 11-1 15 4 13l10-2h8v-5l-1-5v-1l1-2c0-1-1-2-7-3-13-2-13-2-15 5m-44 16c0 3-2 6-2 3h-1l-1 2-1 2-1 1-1 2v5c0 4 0 4 1 3l3-3c0-2 0-2 1-1s1 0 3-2c1-4 1-4 6-3 5 0 5-1-1-2l-3-1v-5c0-7-2-8-3-1" fill="#d3d3d3" fill-rule="evenodd"/></svg>