<svg xmlns="http://www.w3.org/2000/svg" width="400" height="225"><path d="M0 15v15h139c151 0 145 0 144 5-2 7-3 7-8 8-6 0-15 4-16 6-1 3 0 2 8-1 3-2 6-2 12-2 9 0 12 2 17 9 4 6 4 7 4 14 0 5 0 6 1 3 0-4 1-5 2-5 3-1 4 0 3 3-2 3-1 4 1 1 2-2 7 0 8 4 1 3 2 2 2-1v-4c1-1 1 0 1 1l1 1 4 2c3 2 3 2 4 0 2-1 2-1 4 2l4 4 4 5c4 6 12 13 13 13v1l3 5 3 5 14 18 3 2a217 217 0 0015 12l1 3v3c0 3 0 3 2 2 3 0 3 0 4 3v4l-1 2-1 2-1 2c0 3-1 4-3 6-2 0-2 1-2 2l-1 2-1-1c0-2-2-1-4 1-1 2-3 2-7 3l-6 1-6 1c-5 0-5-1-5-2 0-2-1-2-2-2h-9l-13 2c-10 1-10 2-12 13-1 6-2 7-4 8-3 0-3 0-4-8a228 228 0 00-2-14c0-3 0-3-2 0v6c2 2-3 6-7 6-2 0-2 0 1 1l4 1h-4c-3 0-3 0-1 1s2 1 0 4l-1 3h-35v-3c0-2 0-3-6-4s-11-4-16-8c-2-2-3-5-5-13-5-18-10-29-15-30h-2l2 3a628 628 0 0112 44l-4 3c-2 2-3 3-3 5v3h-28l-2-7-1-13-1-7-4 1c-4 0-4 1-4 2 0 2-1 2-3 2h-4c-2-2-2-2-2 1-1 2-1 3-2 2l-2 1-2 1c-1 0-2-1-1-2l-1-2-2 1-2 1c-2 0-2 0-1 1s1 2-2 2h-4l-1-1-1-1c-2 2 0 4 2 3l2 1-2 1c0-1-1-1 0 0l-1 1-2 2-1 1-1 2 1 1h4c3 1 7-1 5-2l2-1c1 0 2 0 1 2l1 1c1 0 2 1 1 2a4070 4070 0 01-126 4H0v29h400V112l1-112H0v15" fill="#d3d3d3" fill-rule="evenodd"/></svg>