<svg xmlns="http://www.w3.org/2000/svg" width="400" height="225"><path d="M0 53a227 227 0 003 55c-1 2-2 3-2 1-1-1-1 2-1 6 0 7 0 7 2 7 2-1 2 0 1 2-1 1 0 2 1 4 2 4 1 5-1 6l-3 1v90h401V0H0v53m301-22c-2 0-2 1-3 9 0 7 1 11 2 7l2 3c2 5 3 6 7 4 3-1 3-1 3-5l-1-8-1-6-1-3c0-2-2-3-8-1M79 38c-2 1-2 2 3 6 5 5 7 9 3 6-2-2-2-2-2 0-1 1-1 1-3-1-2-3-3-3-2 0s-1 2-4-3c-3-4-5-5-3 0 2 2 2 8 1 17-1 3 0 6 1 5 2 0 1 15-1 18-1 2-3-4-3-9 0-3 0-3-1-1-1 1-1 1-1-1-2-6-2-12-1-12l1 1h1c2-3 2-9 1-11l-1-3c-1-4-5-8-7-6l-1 16c0 4 2 3 2-1 1-2 1-1 1 2 0 12 5 27 9 29l1 2 2 3 1 7c-1 8-1 8-4 5-2-2-11-4-11-3l7 5c6 3 7 3 6 5v3h2v3l2 2v2l-3-2c-2-2-5-3-3-1 1 2-1 1-3-1l-2-1c0 1 0 2 2 2v5c1 0 2 0 1 1h-1c-2 0-1 2 1 3h1c0-2 0-2 1-1l1 2v2h2c1-1 1-1 2 1l1 3h-3l1 2c2 2 1 3-2 1l-4-2c-2 0-1 3 1 3 2 1 4 4 3 5l2 2 2 3h2c0 2 3 6 4 5l-2-5-3-8-1-1-1-1 1-2 1 1 3 2 2 2h1c2-1 3 0 2 3v4l1 2c2-1 3 1 4 3l1 3c2 0 0-11-2-15l-1-7c0-3 0-3-1-2-1 2-1 2-2 0v-2l-2-2-1-2c1-1 4 0 4 1 0 3 3 5 3 2l1-4-1-3v-3l-1-1 2-1c2-1 2-1 1-2-2-1-2-22 0-23v-2l-2-8c0-5 0-6 3-10l3-3v9l2 12c2 4 4 4 2-1-2-4 0-6 2-3 2 4 2 0-1-6l-1-6v-4l-4-17 3 1 2 1-2-3-3-3-2-3-2-5c-1-6-10-10-14-6m79 20c-7 2-9 4-8 5 0 1-3 5-4 4v1l-1 1c-1-1-2 2-2 6 0 2 0 2 1 0h3c0 2 0 2 2 0 0-2 1-2 1-1s1 1 2-1 1-2 1 0l2 2 1 1 2 4 1 3c-2 0-2 5 0 7l1 6c0 4 0 4-4 5-5 1-4 3 3 4 5 0 8-3 10-9l3-4 1-2c2-4 3 2 3 15 1 12 2 20 4 24l-1 2-3 3c-2 4-4 5-5 3v5c1 4 1 4 7 1 3-2 3-2 3-5s0-3 1-1c4 9 4 34 1 35-2 0-2 0 0 2v2c-1 0 0 2 2 2l4 3c5 6 7 0 2-6-3-4-3-15 0-18l2-6 1-3c1 0 1-12-1-18 0-3 0-3 1-2l1-4c-1-5 0-7 1-4h1c0-2-4-7-5-6l-1-2c0-1 0-2-1-1l-3-1-2-2c-3 0-3-5-4-33-1-11-3-15-11-17-6-2-7-2-12 0M41 60l-2 3v1l1 1-1 4-2 6v20c-1 2 0 8 1 8v3l-1 2c2 2 3 0 5-5 1-4 1-5 2-4h1c0-3 2 0 2 4l1 3 1-4 2-6c-1-8 0-9 2-6l2 2 1 4c1-1 3 3 2 5h1c3-4 3-16-1-22l-3-9c-1-7-2-4-2 5h-1l-1-2v5c2 3 2 4 0 4l-1-2-1-2-1 2c0 2-2 1-2-1h-1c-1 3-2 1-2-4V58l-2 2m237-1l-5 1h-10l-5 2c-3 0-4 2-2 4h6l5 1c1-2 7-2 9-1l2 1h3c1 1 2 0 4-2l4-2-1-1-4-1-3-1c-1-1-2-2-3-1M96 102l-1 5-2 4c0 3 3 10 4 9l-1-3v-3l1-3 1-3 1 1 1 2h1c2 0 6 5 5 7 0 2 2 3 2 1h2c3 2 5 0 2-3l-2-3c0-2-5-5-8-5 0 0-2-1-2-3-1-3-2-3-2-1l-2-1-1-3 1 2m-55 6c-1 2-3 2-7 3l-1 2-5 7c-1 2-1 3 1 3l1 1v3l1 4 2 4v2c-2 2-3 3-1 3 1-1 1 0 1 1l-1 3v1c2 1 2 1 4-5 1-4 2-5 3-5h1l-2-1c-2 1-2 1-2-1l1-3 2-1 1-2v-3l1-4c0-7 6-6 6 1v4l1-3c2-3 2-4 0-5-2-3-1-4 3-6l3-3c-1-1-2 0-4 1-5 3-6 3-6 0 1-4 0-4-3-1m108 3c-9 3-12 5-13 8-1 5-2 10-1 11l1-1 1-1 1 2v1l1 3v4l2-4 1-3v4l-1 4 1-3c2-3 2-3 2-1s2-1 2-4l2-4 4-5c2-2 2-2 2 0v2l1 1-1-7c-2-8-2-8-5-7m-36 10l3 4c2 3 3 4 2 5-2 1 0 4 3 4 2-1 2 0 2 3 0 1-1 2-3 1-2 0-2 0-1 2 1 5 5 5 7 1l3-4c2-2-1-9-4-9l-2-3-1-3-1 3c0 2 0 2-4-1-2-3-4-4-4-3m-92 2c0 2-2 3-2 1l-2-2-2 1 1 2c2 0 1 2-2 5l-4 5-2 2v2c1 1 6 0 6-2l1-1 2-2c1-3 2-5 5-5s4-4 2-6-2-2-3 0" fill="#d3d3d3" fill-rule="evenodd"/></svg>