<svg xmlns="http://www.w3.org/2000/svg" width="400" height="225"><path d="M0 23v22l3 3c3 4 3 5 0 4-3 0-3 0-3 2 0 3 3 4 5 2 0-1 2-1 2 1 1 1 0 2-2 3-1 2-2 3-1 4s1 1-1 3l-3 2v34c0 30 0 33 2 34l-1 1v1l1 1 2 2c2 1 2 1 1 2-2 1-2 1 0 1s3 2 1 2v1l2 1v2l2 7c0 6 0 7-2 7-1 0-2 0-1-2H4c0-2-4 0-4 3l1 2v6c1 1 2 2 3 1l-1-1v-2c0-2 0-2 2 0l2 4c0 2 0 2-1 1l-2-1 1 3 1 2-1-1c0-1-1-1-2 1v1c1-1 2 0 3 1 1 4 0 4-2 2s-2-2-3-1v1l2 1c-1 1 0 1 1 1l1 1 1 2v2H5l-2-1 1 2c2 0 1 2-1 2H0v30h401v-25c0-21-1-26-2-27v-3c2 0 2-7 1-9-1-1-1-1-2 1-2 4-2 1 0-3l2-6v-6l-2 2c-3 3-2 1 0-2 2-2 2-4 2-6v-1c1 1 1 1 1-1-1-3-2-3-4-1 0 2-1 3-2 3l4-7c2-1 2-3 2-14 0-12 0-12-3-15l-6-9-4-5c0 2 0 2-1 1h-2l-3-3-3-3 2-1c2-1 3 0 3 1l1 1c1 0 2-1 2-3l-1-3-1 1-1 1v-4l-1-2-2-1c0-2-1-2-3-1v4c1 3 1 4-1 4v1c1 1 0 1-2 1-4 0-4-1-3-2l1-1-3 1-3 1-1 1c0 2 0 2-2 0l-1-2 1-8v-7c0-11 0-10 2-9h2v5c0 2 0 3 2 3l2 2h-2l-1 2 1 3 2 2h1l2-1 3-3 4-3 2-2 2 2 2 4 2 4v-1c0-3 0-3 1-2 1 2 2 2 2 1h3l2 2h2l-1-2-4-8c1-1 4 1 4 2v4l1 1 1-37V0H0v23m243 11c0 3 0 4-4 5-9 4-15 5-13 3 1-2-2-1-4 1l-1 2c1 0 1 1-1 4-3 6-2 18 1 23 2 2 22 0 23-3 0-1 4-2 4 0l1 3 1 3c-1 1 0 3 1 5l3 5c0 3 2 5 4 5 3 0 3-1 1-4-3-3-4-6-3-6l1 1c0 5 5 2 5-2 0-3 1-3 3-3 3 0 3 0 2-2l-1-10c2 0-1-8-3-10l-1-2-2-2-2-1c-1-5-8-10-12-9-1 1-2 1-1-1l-1-5-1-4v4m134 6l-3 4-2 3h3c4-1 4 3 0 4-3 1-3 2-2 5 0 6 3 8 8 7 8-1 12-12 5-13-5 0-7-4-2-4l2-1-6-6-3 1M94 51c-3 3-3 3-2 5l1 2 1 1c3 0 5 0 3 1h-4c-2-2-2 0-1 3l1 6c0 2 4 6 7 6v1l-4 1c-2-1-2 0-2 5l-1 6-1 6c0 2 0 2-2 1-2 0-3 0-5 2l-3 2-1 2c0 6-3 4-4-2l-1-3 1-3c3-3 3-4-1-3s-5 3-5 5v1l-1 2 1 2 1 2c0 2-2 3-2 0l-3 9 6 1c4 0 5-1 5-2-1 0-1-1 0 0v-1c0-3 1-2 7 0 9 5 10 4 12-2l2-5 1 4c1 4 1 4 5 4s12-3 12-5h1c1 1 1 1-1 2v2c2 0 2 2 1 5-1 2-2 3-3 2l-3 1-3 1-5 2h-2v-2l-1 1h-2c-3-3-5-2-7 3-2 4-4 6-3 1 1-2 1-2-1-2l-3-1h-3l-2-1-2-2-2-3-4-1c-3 0-4 0-4 4-1 2 0 4 1 6v2l2 2 2 3 1 1 1 2h2c1-2 2-2 2-1h4c0 2-5 6-7 5-1 0-5 5-8 13-5 10-8 25-6 24v3c0 3 0 4 2 7l2 3 4-3c3-3 5-4 10-5l10-2c5-2 26 4 34 9l4 3 1-4 2-9c0-4 0-4-2-2-2 1-2 1-4-1l-1-2 2 1 2 1c1-1 0-17-2-20s-2-9-1-13 1-6-1-4l-4 3c-3 1-5-2-6-7 0-1 0-2 1-1l1 1 1-1v-1l1 1 2 1c2 0 2 0 2-3v-3c1 1 2-1 3-3 1-3 1-3 2-2l1 1 1-4a134 134 0 00-1-23c0-2-4-5-7-6l-4-2h-1c-2 2-1 5 1 5l2 3h-1l-1-1v4l-4-2c-1-2-2-2-3-1-2 2-3-2-3-10a1121 1121 0 003-13l3-3c1-3 0-4-2-1v-1c1-6 1-10-1-14-4-6-11-7-16-2m62 0l-3 5 3-1c2-3 3-2 0 2v7c1 1 1 1-1 3-2 3-2 11 1 13 2 2 11 3 15 1 6-3 11-7 8-8l-6-10c0-2 0-2 2-1 2 2 2 2 2 0 0-1 0-2 1-1l1-1 1-1c1 1 1 0 0 0-1-4 1-2 3 1 1 5 1 5-1 5v2l1 2c-1 1 0 5 1 5 1-1 1 0 1 2v3l1-3v-4l-1-4c0-10-7-20-13-19l-3 2-3 1c-7-1-6-1-5-2 2-3-1-2-5 1m82 25c-7 4-10 7-10 13l1 6h4c5 1 8 0 8-3l1-4 2-15-6 3m-57 3v14c1 2 1 2 0 0-1-1-2-2-3-1-3 0-3 1-2 4 2 4-1 7-3 5s-3-2-6-1l-4 1-2-5-3-6-3-5c-2-5-3-7-5-4h-2l-1 4v4l-1 4-1 4v7c2 5 2 6 1 6l-2 1v4l-1-1c-1-4-4-3-5 1 0 4-3 8-5 8l-2 2c-2 3 0 2 4-1 3-3 3-3 5-1l4 4 4 4h2l2-1c4 1 4 0 0-5-3-3-4-5-1-5l1-1 2-4 3-1c0 1 1 1 2-1 1-1 2-2 3-1l3-3c3-5 7-6 7-2 0 2 0 2 1 0s4-3 3 0c-1 2 1 1 4-2 3-2 3-2 4-1h1l-1-2c-2-1-1-3 1-3l1-2 2-2c1 0 2 1 1 2l-1 1c-3 0 0 3 4 5 5 2 7 2 2-1-3-2-3-2-1-2v-1c-2 0-2 0-1-1v-1c-2 0-2 0-1-1l-1-2-3-3-2-5c-2-1-3-4-3-5 1-2 0-4-1-2m43 17l2 4c1 2 1 2-1 4-2 4-2 4-2-1 0-4 0-4-2-4l-3-1-3 1-2 2c0-1-1-1-4 1l-3 3 1 1h2c2-1 3-1 2 1v4c-1 3-1 4-3 4s-5 5-3 5 1 3-2 4l-2 2c0 2 1 1 5-2 2-2 3-2 3-1l-1 2-2 7c1 2 7-3 7-5 0-3-2-6-5-6-3-1-2-2 6-5 7-3 10-4 6-1-2 1-2 1 3 1s6 0 8-2c3-3 3-5-1-13-3-5-6-8-6-5m113 59l-15 1c-32 0-46 2-36 4l1 1-1 3c1 4 6 3 6-1v-3l1 3c0 3 1 3 7 3l6-1c1-1 0-4-2-4h-1l13-1 31-3c1 0-2-2-3-1l-1-1h-1l-2 1-2-1h-1m-197 24l-5 3c-2 2-2 2 11 2 18 0 22-1 12-3l-11-2h-7m-63 9l-5 1c-4 1-6 2-6 5 0 2 2 2 32 2h32l-1-2c-1-2-2-3-5-3l-5-1h-3c-3 2-4 1-2-1l1-3-3 3c-3 2-5 3-3 1 2-3 0-2-3 0s-3 2-5 1c-2-2-2-2-4-1-2 2-2 2-4-1s-4-3-6 0l-2 2-1-2c-2-3-5-4-7-1" fill="#d3d3d3" fill-rule="evenodd"/></svg>