<svg xmlns="http://www.w3.org/2000/svg" width="400" height="225"><path d="M248 1c-7 0-8 0-7 2 0 1 1 2 3 2l2 2 7 1c10 0 14 2 13 4-1 4-2 5-6 6l-7 3-10 3-9 2-6 2c-4 1-4 1-2 3l2 1 1 1 4 1c4 0 5-1 6-3 2-5 8-3 8 3 0 3 1 4 2 4l1 1-2 6c-2 6-8 8-8 3l-1-4c-2-3-3 1-4 10v13l-1 3 31 13 32 13 3-4 2-3c1 1-5 12-6 13v-2c1-2 0-2-10-7a25062 25062 0 01-54-21c-1 2-7 10-11 12-4 4-5 7-3 9v2l-1 3c0 3-2 2-2-1s0-3-1-1c-1 6-6 5-6-1v-4l-1 5c0 3 0 4-2 4s-2 0-1 1c2 0 1 1-3 2h-21c-2-1-3-5-2-7 0-2-4-4-6-2s-1 9 1 9c3 0 1 2-3 2-3 1-4 1-5 6s-1 7 1 11l1 10-1 8 3-6c3-6 10-12 17-15 4-2 6-2 15-2h10v-16l1 3c0 3 0 3 1 2s1 0 1 5l-1 6 4 3 6 4-7-2c-8-5-20-5-28-2-12 4-21 16-22 29-2 23 21 42 44 35 7-2 8-1 1 2-24 7-49-14-46-39v-5l-6-1c-8-2-8-2-8 0l-3 2-1 2h-1c-1-2-1-1-1 3l-1 5-2 3-3 2c-1 0-2 1-1 2 0 2 0 2 10 2 6 1 9 1 12 3 5 3 5 4 0 5l-5 2h-3c-1-1-6 0-8 2s-11 1-15-1h-8l-10 1c-4 0-8 1-15 4-5 3-13 4-20 4s-8 0-9 2l-3 2-1 1c0 1-1 2-3 2l-2 2-3 1-2 3-1 1-2 1c0 1-7 3-8 2h-2l-2 2c-1-1-24 21-24 23l193 1h193V0h-72l-80 1m-23 42l-1 1-2 1h-2l-1 6h-1l2 1 2-1-1 2v1l1 2v2l1 1c0 2-3 1-3-1s0-2-1 0c-2 4-2 7-1 7l2 2 2-2c3-5 5-5 4 0 0 3 0 3 1 2 3-5 2-24-1-22v-3l-1 1m7 4v10l-1 3v2c-1-1-2 5-1 6l-1 1v1l-1 1c-1-1-1 0-1 2l-1 1v1l-1 1c-1-1-1-1 0 0l-1 1h-1l-2 4-2 3c1 1 10-8 12-14 3-5 4-18 2-22l-1-1m100 36c-1 2-1 3 5 3 11 2 20 11 22 21 2 9 2 9 4 7 3-4-2-18-10-24-6-6-18-10-21-7m-9 13c-15 9-11 32 5 36 22 6 35-23 16-36-6-4-15-4-21 0m6-1c-11 3-16 13-13 23 6 19 33 16 36-3 2-12-11-24-23-20m-34 13v15l-9 2a1441 1441 0 00-37 11l-15 5-1-3c-1-4-5-9-6-9l2 4c5 7 7 22 4 29l-1 4c2-1 4-10 4-17l-1-7 13-4 17-3 5-1c0-2 22-9 25-9 1 0 2 1 2 3l2 1-1-3-2-12c0-9-1-10-1-6m8 8c2 14 14 26 27 26 6 1 6-2 0-3-12-2-20-10-23-22 0-4-1-6-2-6-2 0-2 0-2 5m-110 5l-3 1c-3-1-6 1-5 2v1c-2-1-5 1-4 2l-1 1h-1l-1 3-2 2 2-1c4-3 4-2 1 2-6 7-3 9 3 2 5-5 11-8 18-8 6 0 12 2 10 3l-1 2 2-1 2-1c4 0 2-3-2-5-5-2-14-3-20 0-5 1-6 1-1-1 5-3 16-3 20-1 5 2 6 2 6 1-1-2-4-4-6-3l-2-1h-15m2 13c-11 3-16 16-11 26 8 15 29 13 34-4 4-13-9-26-23-22m1 2c-7 1-12 9-12 16 0 13 16 20 26 13 15-10 3-34-14-29m-4 3c-10 7-8 21 3 26 16 7 28-17 13-26-5-3-12-3-16 0m-88 1l-2 11-2 9 2 3c4 4 6 4 10 1 6-4 7-6 5-6l-1-4c0-3-1-5-4-8l-5-6c0-3-2-2-3 0m90 0c-10 4-9 19 1 24 10 4 21-5 18-16-2-8-10-12-19-8m24 27c-6 8-19 11-27 7-3-2-6-2-6 0l4 3c6 3 16 3 23 0 5-3 14-11 12-13-1-2-3-1-6 3" fill="#d3d3d3" fill-rule="evenodd"/></svg>