<svg xmlns="http://www.w3.org/2000/svg" width="400" height="225"><path d="M276 1l-4 1h5c6 1 7 2 7 6 0 3 0 3-4 4a60 60 0 00-8 1l-2 2-4 4c-3 1-3 2-3 4l2 9 2 6c2 3 0 8-4 10l-4 1-3 1-4 2-4 2h6c2-3 9-3 10-1 2 2 2 7 0 11-1 2-2 2-5 1-2 0-4 0-5 2-2 2-3 5-2 5l1 3c0 2-1 3-2 3v3l5 1c2 0 2 0 1 1h-2l-1 1c-1 1-10 0-12-1l-2-2c1-1 0-3-1-4l-1-6-1-8c0-4-2-5-5-2-1 1-2 3-1 8l-1 7c-1 0-2 1-2 3s-1 3-2 3l-2 1-2 2c-2 2-2 4-4 18v7a490 490 0 0029 0c-1 1-5 2-19 3l-12 1c2 0 4 0 3 1l-2 1 4 3h1l-1 2-1 3c0 4-2 2-2-2l-1-4v4c0 3 0 4-2 4s-2 0 0 1v1l-2 3c-1 2-3 3-3 1h-1l-1-1v-1l-2 3-1 2h-1l-1-3v-2l-1 3-1 3v-3c0-2 0-3-1-2l-1-8c-1-5-2-7-2-2 0 2 0 2-1 1-1-2-1-2-1 0l1 2 1 1-2 1c-2 0-4 3-4 5 0 3-3 10-5 10v1l-2 1c-4 0-6-4-6-11l-2-6-1-3-1-3v3c0 2 0 2-1 0l-1-2v2l-1 3-1 1c1 4 0 14-1 15-3 3-5 7-5 12l1 8c2 2 4 7 3 9 0 2-3 4-3 4l-4 2c-3 3-4 3-16 3l-14 1c-1 1-6-1-6-3 0-1-4-1-6 1v7l-1 2h-2c-2-3-9-5-11-4l-4 1c-5 0-14 3-17 6l-3 2-2 2a57 57 0 01-9 14l-3 3-4 2-3 3c-2 0-3 2-3 2l-2 2-2 2c0 2 15 2 174 2h173V0h-60l-64 1m18 10l-3 4-2 2-3 4-3 2h3c9 0 15-5 15-11 0-4 0-4-3-4s-4 0-4 3" fill="#d3d3d3" fill-rule="evenodd"/></svg>