<svg xmlns="http://www.w3.org/2000/svg" width="400" height="225"><path d="M0 113v112h46c44 0 46 0 45-2l-16-19-15-18 3-2 88-74 46 54c57 68 51 61 55 61h4l-34-41-35-42 17-15 17-14 24 28 26 30c9 5 15 4 28-7l10-8 29 35 28 34h35V0h-58c-42 0-57 1-58 2 0 1 32 39 34 39l2-2c2 0 42 48 44 52 3 8 2 10-36 41-43 36-41 35-45 36-8 1-8 1-47-46l-4-5 39-34c44-36 43-36 43-37l-13-16C283 6 279 2 277 2l-42 34-41 34-14-16c-15-18-14-16-11-27l1-7-4 12-1 4-15-18-15-18H0v113m91 28c-31 25-40 33-35 32 2-1 72-60 71-61-1-2-1-2-36 29" fill="#d3d3d3" fill-rule="evenodd"/></svg>