<svg xmlns="http://www.w3.org/2000/svg" width="400" height="225"><path d="M0 17l1 16 12 6 13 6v-3l7 50c1 9 4 10 38 4 35-5 33-5 37-8 2-3 2-4 2-10v-7a701 701 0 0147 10c1-2 1-2 1 2l-1 4v4a689 689 0 017 67l-8 1-18 3c-17 3-16 3-16-3-2-15-3-18-6-21-4-4-6-4-41 0-26 3-28 4-31 6-3 3-5 7-3 8l1 10 1 7 1-3v3l1 7c0 3 0 3-1 2v9l-9 5-22 10-13 6v17h54l-5-36c-6-43-6-43 5-44 4-1 5-1 7 2l2 2 16-1c18-2 20-3 20-6 1-5 13-4 16 0l6 42a858 858 0 008 40h1l89 1h88v-3l-11-71c2-6 13-8 16-4 2 3 4 3 23 0 14-3 15-3 16-7 1-2 2-2 7-2 3 0 5 0 4 1-2 0-2 1-1 1h3c2-2 4 5 9 42a6154 6154 0 009 41h1c0 2 1 2 9 2h9l-1-18-1-19-11-4-11-4-2-13-3-19c-2-10-6-14-12-14-8 0-61 8-63 10-4 2-5 6-4 10v5c0-2-1-2-1-1h-5l-41-4c-2 0-2-1-2-4 0-4 0-4-1-2v-1c0-5-1-21-2-18v-4c0-5 0-7-1-5v-5c0-5 0-7-1-5l-1-4V89l-1-10 12-1c24-2 31-3 31-5l2 10c1 6 2 11 1 12 0 2 6 6 10 6l32-5c38-7 38-7 35-26-3-15-3-14 6-18l33-13c1-1 2-9 2-20V0h-26c-25 0-27 0-27 2h-1c0-2-2-2-22-2-22 0-23 0-22 2l-1 2-1-1c1-3 1-3-102-3H97v2a1444 1444 0 0010 79c0 5-2 7-13 9l-23 3c-30 5-31 5-34 1l-7-48C24 2 23-4 21 1h-1L10 0H0v17m185 42c-2 2-2 2-2 0-1-2-5-1-6 2l-1 3v-3c-1-4-4-3-5 1 0 3 2 5 5 3h3c1 1 2 1 3-1h4c4 2 6-2 3-5-2-3-3-2-4 0m14 50l-35 4c-1 1 8 77 9 79 2 4 5 4 36 0 35-4 34-4 34-14 0-16-8-72-9-73l-35 4m0 29l-28 3 1 8 32-3 31-3v-9h-4l-32 4m133 21l-32 5v9l69-10v-4c-1-6 3-6-37 0M73 192c-1 4 3 10 7 9 2 0 5 3 6 6s6-1 6-4c1-4 0-5-2-4-3 2-7 2-7 1v-3c-1-1-6-7-8-7l-2 2" fill="#d3d3d3" fill-rule="evenodd"/></svg>