<svg xmlns="http://www.w3.org/2000/svg" width="400" height="225"><path d="M17 1v2h4l20 7c7 2 18 8 24 13l7 5 4 2c4 1 5 1 3-2-1-1-1-2 1-2 4-2 12 0 12 2h2l3-2c1 0 2 4 1 5v15c-1 3-1 3 1 4 1 0 6 9 7 14l-3-3c-4-7-8-11-13-11s-4 2 6 10l10 7c1-1 1-1 1 1l1 3 4 7 3 5v-3c1-3 1-3 6-3 11-1 11-1 10 1 0 3 5 5 11 5h5V56l1-41V1l-19-1h-19l-2 3-1 4V4l1-3-18-1H72l-2 2c-2 3-5 3-8 0-1-2-3-2-23-2L17 1m247 1v3h8c8 0 8 0 8 2s0 2 3 3h11v20h-15v5l-1 41-15 1c-12 0-14 1-14 2 0 2-4 3-9 2-4 0-5-2-2-2 2-1 2-1-1-1-2 0-3 0-2 2l-1 1c-17 1-21 1-21-2-1-3-4-3-4 0-1 2-1 2-5 1l-4 1-2 1c-2-1-4 2-3 4h7l2-1 1 3v3l-19 1c-22 1-26 2-28 4-1 2-2 2-11 0s-9-3-9-5l-1-4h-18c-2 1-2 1-4-1-3-2-15-6-16-5-1 0 7 7 9 7l6 4 5 3 2 3 2 2 4 2c2 3 12 6 22 9 4 1 5 2 3 6-1 2 0 5 2 5l3 1 7 3c5 0 7 1 7 2h6c2-3 7-2 9 0l8 2c5 1 13 4 10 5l-2-1c-2-2-9 1-9 3 2 3-1 2-3-2-1-3-2-3-5-2l-5 1c-1 1-4 0-5-2l-2-1-2-1h-2l-2 1c-4-1-4 0-1 3s4 3 8 2l5 1 5 2 7 5c3 4 4 4 4 1 0-2 0-2 2 0l2 1 4 1 7 2 9 1h4l-3-1-3-2 4 1c4 0 7 2 3 2v1c1 0 1 1-1 2-1 1-5 1-11-2-3-1-2 2 2 5l4 3 4-2 2-2c-1-1 0-1 2-1 3 1 6-1 4-3l4-1h6c3-2 10-3 12-2l1 1-2 1-3 1-2 1h-2l2 1 5 4 7 2 4 1-2 1c-2-1-2 0-2 1 0 2 0 2-1 1l-2-1 1 2c3 3 0 3-4 0-3-2-6-3-4-1l1 3c0 2-3 1-4-1s-3-4-10-8h-7c-6 1-5 2 1 3 5 1 12 8 11 10l-1 2-1-1v-2l-1-1-2-2c-2-1-3-1-3 1l-3 1c-3-1-6 1-5 2 3 5 3 7 0 13l-4 6-1-1c1-1-4 0-5 2l-3 2c-3 1-2 4 1 3 3 0 2 2-1 4-4 1-13 2-13 0l3-1c3 0 4-1 5-2l1-3c-3 0 0-3 6-9 9-7 11-11 7-14-2-2-3-1-4 3l-3 3-3 4c-1 5-7 13-10 16-3 2-4 2-10 0-10-1-10-1-7-5 6-8 6-12-1-12-4 0-8-3-8-6 0-2-2-3-9-2l-5-1c-2-1-3-1-5 2l-9 5-9 5h-9l-2-2 2-1 2-5 2-3c1-1 2-2 1-3 0-2 0-3 2-4l2-3v-5l3-3 3-3 1-4v-5c0-2 6-9 10-10s5-2 1-5c-3-2-6-3-9-1-4 4-21 10-29 12-19 3-43 1-56-6-7-3-13-7-13-8l17 4c40 10 47 10 67 0 8-4 9-5 2-3-6 1-8 0-9-3l-4-4c-4-3-3-5 1-5 6 0 13 2 15 4s4 3 7 1 2-3-6-7-9-4-17-3l-14 2c-7 1-22 2-44 1l-13 1c-7 2-9 2-9 1s-1-2-3-2c-3-1-9-6-9-7l-8-5-15-9-6-3v101l11 5a624 624 0 0058 28l10 5h82a2016 2016 0 0087-2c3 2 9 2 43 2 43 0 49-1 48-5l1-2v-1c0-1 2-4 5-4l3-1h2l3 1c2 0 2 0 1-1-2-2-1-4 2-5 2-1 2-1 1-2l-4 1h-3c-2-2-6-1-4 1l-2-1c-4-2-14-2-16 1l-4 2-17 2a797 797 0 01-40 5c-3 0-4 0-5-4-2-7-2-7 1-7a170 170 0 0013 0h6c8 0 17-2 13-2-6 0 13-6 20-6l-1 2-2 2h4l10-1 5-1h-5l-9-3-6-2 1 1-8 2c-11 1-12 1-12-5 0-5 0-5 2-4a523 523 0 01-9-3c5 1 5 5 1 5a2509 2509 0 00-20 2h5l1-6-1-9c-1-2-1-2 3-4l4-3c0-3 1-3 8-1l7 1 8 2c5 2 8 2 10 1 3-1 3-1-4-3l-14-2c-5 0-7-1-7-2l-3-1-4-3c0-4-1-5-4-5l-3 1-2 1-1 1c-1 2-2 2-4 1l-2-1v-26c0-26 0-29 2-26 3 4 24 9 25 5 1-3 3-1 3 3l3 11c2 8 4 10 14 13l5 3 2 1 6 3c5 3 6 3 11 3 7 0 11-1 11-3s1-2 3-1l8 2 4 1-1 9v9h13l7 10 7 10-2 5c-4 5-4 5-11 2-5-1-7-2-9-1-2 0-1 1 6 3l8 4 2 1c3 0 10 2 14 5h6l-5-3c-3 0-6-2-5-2l-1-1c-6 1-7-2-4-7 3-4 3-4 7 1 2 4 3 5 5 5h3l1-14-1-139a592 592 0 00-71 1l-6-2-6-1 2-4c3-4 3-5 0-5s-4 1-2 2v4l-1 3h-6l-11-1h-4V0h-11l-11 1c0 4-7 3-8 0-1-1-1 0-1 1m85 9v12l6 1c6 0 8 2 8 7 0 4 0 4 3 4s3 0 2-2c-1-5 1-7 6-7 8 0 10-1 10-7-1-6 0-6-19-8-15-1-15-2-14-7l-1-4-1 11m40 21c-2 4-4 5-8 4h-9c0 1 2 2 10 2h7c0-3 2-2 4 0l5 3c2 1 2 1 2-5v-5l-5-1c-4 0-5 0-6 2m-181 7c-3 3-3 9 1 12s10 0 10-6c0-7-8-10-11-6m-105 1l-1 5c0 5 2 7 9 7h3v-6c0-5 0-5-3-6h-8m20 0l-3 3c-3 1-4 6-2 9l-1 6c-3 8-3 12 1 13l8 1 5 1-1-7c0-7 0-8-2-8-2-1-2-2-2-6 1-4 1-4-1-4-2 1-2-2 0-6v-3l-2 1m223 13l-1 11c0 10 0 11 2 11l3-1c2 0 2 0 1-1l-2-5c-1-5-1-5 1-8s4-3 9-1c3 0 3 0 3-3 0-2-1-3-2-3h-14M80 55c-13 3-13 7-1 7l8 2c6 4 16 7 15 5L85 54l-5 1m-50 4c-1 1 4 6 8 8 3 2 0 2-4 1l-9-4c-2-1-4-2-5-1s-1 1 20 13l13 8-2 6c-3 6-3 6-1 7l22 8c8 4 19 4 29 2l6-1-2-3-5-2c-3 0-7-4-7-6s1-2 6-2l6-1-7-5-9-9-7-5c-15-10-20-11-23-5-2 5-2 5-13-2-11-8-16-9-16-7m-20 82l4 5 3 5c0 2 3 1 6-2 4-4 3-5-2-7l-6-2c-5-1-5-1-5 1m375 4l-18 1c-7 0-3 2 15 6l18 5v-7l-1-7-14 2m-72 31l22 8a317 317 0 0022 7l-1-2-2-1a76 76 0 01-6-1c-2 0-2 0-1-1 2-1-11-6-15-5l-4-1 1-1-4-2c-7-2-8-2-12-1m-196 18c0 4 1 4 23 13a23656 23656 0 0136 12c8 2 7 1-1-3l-11-6-19-9-19-8c-7-4-9-4-9 1m151 4l-4 2-7 1-6 2 18-1 14-3 1-1h-16m95 4c1 1 0 2-2 2-2 1-4 5-4 8 1 2 12 1 13-1 3-4 2-6-2-6l-4-1h3c5-2 5-3 0-3l-4 1m-114 7c1 1-7 2-16 2l-6 1 2 1 1 3v3h9c16-2 17-2 17-6 1-4 1-4-3-5l-4 1m-133 1v5l3 1c1 3 2 3 7 3 6 0 9-1 5-3l-6-4c-5-3-7-4-9-2" fill="#d3d3d3" fill-rule="evenodd"/></svg>