<svg xmlns="http://www.w3.org/2000/svg" width="400" height="225"><path d="M0 13v12h3l6-2 4-2c2 0 11-6 11-7l-3-2c-2 0-3-2-3-3l-1-2c-2-1-1-4 1-6 1-1 0-1-8-1H0v13m195-9c3 3 6 4 11 5 9 2 10 2 14-4l3-5h-32l4 4m127 4l4 14v7l2-5 2-5 3-4c2-3 9-9 11-9 3 0 1 4-2 7-18 14-9 44 13 44l8 1c1 2 1 2-4 3-5 2-6 2-7 1-2-1-2 0-3 3-2 6 0 7 10 7h8v-5l1-4c3 0 6 3 7 6l2 2 2-4 8-8 6-4v-7c0-6-1-10-2-7-1 1-1 0-1-1 0-4-3-6-5-4-1 2-1 2-1 0 0-1-2 1-3 5l-7 11-5 6-2 1-2-1c0-2 4-6 5-6l4-6c6-11 4-24-5-33l-3-4c1-1-5-2-9-1-2 0-3 0-3-2V2c-1-2-5-1-9 2-6 2-8 3-6 1l1-3c0-2-1-2-9-2h-8l2 4 2 5-4-5c-3-7-4-4-1 4M124 18c-11 3-20 12-27 25-3 7-3 8-3 19 0 17 2 22 20 40 9 8 21 12 30 9 6-2 24-19 28-26 4-8 7-17 5-19v-3c2 1 2-3 1-10l-1-6v5c0 5-1 6-5 5-2 0-3-2-5-8a2051 2051 0 00-2-11l5 1c2 0 3 0 5 4s2 4 3 2c1-6-10-20-20-25-6-3-25-4-34-2m223 5c-5 4-6 6-4 13 1 4 5 9 7 9 1 0-1-5-4-7-1-1-1-1 2-1l5-1c4-4 11-2 12 3 0 1 1 1 2-2 4-13-8-21-20-14M129 49c-10 5-9 20 1 23 11 3 21-15 11-22-4-3-8-3-12-1M0 148v77h3c3 0 4-1 4-6s6-19 10-26c17-24 47-32 70-16 12 8 22 25 24 42v6h29c28 0 34 0 23-1-5-1-8-3-8-6h-4c-1 1-3-2-3-6a106 106 0 00-42-72 72 72 0 00-48-14l-14 1 1-9v-9h-4l-5 1-1-5c-2-5-2-7-1-7l7-3c0-4-12-15-18-17L4 72H0v76m297-65c-10 6-21 10-29 10h-6l2-3 2-2h-5c-5-1-6-1-7 1s-3 2-11 0c-11-3-13-2-5 3l7 5-2 2c-4 5-2 7 2 3 10-9 24-10 35-3 2 2 4 2 5 2l12 11c1 3-1 8-3 8l-2-2-1 4c-2 14-12 28-21 31-12 3-25-1-31-9-3-5-5-15-5-20l1-4-13-9c-14-9-15-9-15-1l-1 19v16h3c3 0 3 0 6-17 1-9 2-10 5-7 4 3 4 2 1-2l-3-5 4 4 4 5-5 8c-6 11-6 12 1 17 9 7 11 9 10 13v4l11 7 15 11c4 3 4 3 7 2 8-3 22-17 31-29l5-6v9c-1 10-1 10 3 10 6 0 6 0 8 25 0 6 2 13 3 17l2 6v-14c1-16 2-20 4-16v37h12c0 3 2 0 2-4 1-5 1-5 5-5 3 0 4 0 4 4s2 6 5 6c2 0 3 0 3-2h1c1 2 3 2 9 2h8v-7l1-11c0-9 1-14 3-14s1 9-1 15v5l1 6v6h10v-5c1-9 1-9 3-10s1-5-1-5l-1-4c2-6 2-7 4-8 3 0 2 5 6-48 1-27 1-30 4-30 1 1 1-1 1-9l-1-10-1 2c0 2-1 2-3 2l-4-2c0-2 0-2-9-2-4 0-5 0-6-2l-1-1-2 2h-5l-2-1-2-2v23h-31l-31-1v-6c0-3 0-5-2-7l-1-2c5-3 6-4 17-3 11 0 13 0 14 2 3 3 9 1 10-4v-4h16l18-2 21-1c5 0 5 0 5-2 0-3 0-3-4-2-6 2-19 2-18 1l-6-1a765 765 0 01-39 2c0-3-3-2-4 1-1 2-1 2-2 1v-2c1-2 1-2-3-2l-4 1h-2l-2-1-5-1c-5 0-6 0-7-2 0-1-1-1-7 3m11 16c-6 2-5 11 1 11 3 0 6-4 6-6s-3-6-5-6l-2 1m-213 4c-3 3-2 8 0 11 8 6 19-2 13-10-3-4-11-4-13-1m160 0c-15 7-19 26-8 38 8 9 19 9 28 1 6-5 8-10 8-18 0-17-15-28-28-21m0 12c-7 4-8 7-4 15 3 5 7 8 12 8 5-1 9-4 6-4l-2-1h-4l-4-1-4-1c-1-1-1-1 1-1l4-2c3-2 3-2 7 0l5 2c1 2 3-3 3-8-1-10-11-13-20-7m-158 7l2 4 1 3c1 1 78 3 79 2l-3-4-3-5h-21l-39-1-17-1 1 2m23 21c9 7 15 13 20 21 4 7 7 10 10 12l7 4 3 1 1 1v1l4 1 4 1 4 1c2 2 10 5 12 5l2 1 4 1c6 0 5-2-3-14a96 96 0 00-43-34l-7-2-13-2-8-1 3 3m97 18l9 13c16 19 17 19 5 1-9-14-13-17-14-14m182 9l-2 12c-2 2-3 12-2 12v2a401 401 0 01-3 25c-1 4-1 4 2 4h3v-9a995 995 0 002-46M29 193c-6 1-13 10-15 18l-2 3-1 1v1l-1 1-1 5c0 3 0 3 1 2h1l4 1c3 0 4 0 4-2l1-2 1-4c-1-5 0-6 4-4 3 1 7-3 7-8l1-3 1-3c0-2 1-3 2-3v-1l-2-1c0-1-2-2-5-1m149 20l1 7 1 5h27l-1-4c0-5-1-5-1-1 0 3 0 3-1 2l-1-4c0-2-2-3-6-2l-2-1-4-2-5-1-6-1c-3-1-3 0-2 2" fill="#d3d3d3" fill-rule="evenodd"/></svg>