<svg xmlns="http://www.w3.org/2000/svg" width="400" height="225"><path d="M0 31v31l5 3c11 6 11 6 10 13l-2 12c-2 7-1 7 5 8 4 1 6 0 4-4-1-5-1-7 1-13 3-6 6-7 14-3l17 5c16 4 29 8 56 19 28 11 41 13 105 13l10 1c5 1 13-2 13-5 0-2 0-3 3-3 4 0 5-1 3-2s-1-4 1-6 2-3 2-10v-8l-5 7c-7 13-11 14-12 3 0-8-2-9-7-4-6 5-8 5-8 1 0-7-3-9-9-6l-4 1c-2 0-6-7-6-10l-1-3c0-3-2 0-3 4-1 2-2 4-4 4l-4 3c-2 3-7 3-7 0 3-8 2-8-3-4s-7 4-10-1c-3-7-1-12 7-18 6-5 5-6-2-6-6 0-17 3-32 10-16 7-25 4-21-7 1-3 1-3-2-3-3-1-4-3 0-8 3-5 2-6-3-6l-6-3a709 709 0 00-13-16c0-4-1-5-6-4-6 2-7 1-4-3 3-3 6-9 6-11s-5-2-44-2H0v31M281 5l-1 18c0 12 1 13 3 13 3 0 3-1 4-20l1-16h-4c-3 0-3 0-3 5m8 0a448 448 0 010 30c3 3 4 1 4-17l1-18h-3c-2 0-2 0-2 5m18 11c-1 18-2 20-4 20v1l4-1h2l1 2 1-1h1c1 2 2 1 3-15 2-24 2-22-3-22h-5v16m11 3c0 18 1 24 2 15 2-9 2-34 1-34l-1 1h-1l-1 18m6-16l-2 14c0 10 0 10 2 12 3 2 3 5 0 5h-2c0 2 4 3 8 3l1-16c1-18 1-20 7-19l41 6c6 0 7 1 10 4l4 3-1 31-1 32h-3l-3-1c-7 0-14-2-15-3l-4-1c-2 0-2 0-3-3 0-3-3-4-3-2l-2 1c-2 1-3 0-5-6l-2-7-1 4-1 12a2404 2404 0 01-7 51l-1-2h-2c-5 2-5 1-5-5v-7c-2 0-2 1-2 6s0 6-1 5c-1-4-1-23 1-39l1-20 1-4-35-4-42-4-6-1-1 19v20l4 1a274 274 0 0036 7l-13-2h-11v2l1 2 1 1 1 1 1 2c1 2 2 3 1 4h2c3-1 13 1 13 3l2-3c3-6 7-8 12-3 3 3 4 8 2 12-2 1-2 1-2-3s-3-9-6-9-5 4-5 7c1 4 0 5-2 2-1-1-1-1-1 1s0 2-5 2l-6-2c-2 0-2 5 0 6v19c-1 7-2 8-4 8l-14 3-17 3c-4 0-5 0-6 2-2 2-8 5-21 8-8 2-14 6-14 9l-7 5-1-2-1-5c-1-3-1-3 2-6l3-4 3-4c4-2 4-4 1-4l-4 2c-1 2-4 4-7 5-13 7-25 16-38 32l-8 8-7 5-3 3-6 3-17 7c-4 1-7 3-10 6-3 2-3 3-5 2h-1c0 2 7 2 86 2h86l-7-3c-7-3-7-4-9-10-3-7-2-11 0-14l5-5c3-5 3-5 9 0 8 6 13 4 9-4-2-5-5-7-11-9s-9-5-8-9c1-2 12-6 19-6 4 0 4-1 5-4 3-10 5-41 3-42-1 0-1-1 1-1a593 593 0 010 43c-1 10-1 11 8 12l7 2c1 1 1 0 1-3 0-4 2-9 2-5s3 1 3-3l1-2h1l4-35c0-2-2-3-2 0h-1c0-4-3-2-3 1l-1 4-2 10c0 6-1 11-2 11l-1 6c0 3 0 4-2 4-5 0-5 2-2 3 6 3 5 4-1 4l-5-2c-2-1-1-3 1-4 2 0 2 0 0-2s-2-11-1-29c1-13 2-13 8-10l6 2h1l6-1c5-1 5-1 5 2l-3 42 1 5 27 9c28 9 34 12 37 17 2 5 1 7-7 6h-8l-1 4c-1 4-2 4-4 2-3-2-3-2 1-4 2-2 2-2 0-2l-3 1h-2l-3-1c-2 0-2 0-1 2 3 2 2 3-1 4s-4 0-4-4c1-2 1-2-5-2-5 0-7 0-8 2s-1 2-9-1c-27-10-40-14-41-13-1 2-1 3 3 5 4 3 5 6 2 6s-2 4 1 6l17 9 14 6h52v-4l1-4 10 7 11 1h12v-7c1-13-1-57-2-57l-13 6-12 5-11-3c-16-4-17-4-16-15 0-10 2-12 7-14 15-4 40-6 42-3 4 4 4 4 4-68V0h-76v3M133 5c-24 1-23 0-24 11-1 9-1 9 8 15l6 5c1 2 3 1 8-1 5-3 9-3 14 0s11 4 17 4h5l-1-4-2-7-1-12c0-10-1-12-6-12l-24 1m72 24l-8 8c-1 3-1 3 3 4l9 7c5 6 10 7 28 7 11 0 11-1 8-7-4-8-11-13-22-16l-11-4c-2-2-3-1-7 1m118 14l-1 5c0 1 4 2 16 2l9 2-1-3c-4-5-9-8-12-8l-5-2c-3-2-5-1-6 4m18 13l-2 5c-1 4 0 4 2 4s3 0 2 7v8l-1 12c-1 9-1 10-3 10-4 1-5 4-1 4h3v12l1-14 3-28c1-20 1-21-1-21l-3 1m24 26c0 3-1 5-6 5-4 1-6 5-2 5 2 0 1 2-1 2-5 2-5 14 1 14l2 2 1 1c1 0 5-5 5-7s7-2 8 0c0 2-4 6-7 6-4 1-9 7-7 8 1 1 2 1 3-1s2-2 3-1c1 2 1 4-2 4-1 0-5 5-4 6l3-1c2-2 3-2 3 0 1 2 6 3 11 2 3 0 4-5 7-17l3-12c0-2-3-6-6-6-2 0-10-7-8-7s1-1-1-3c-3-4-6-4-6 0m-105 32l-1 10c0 4 0 5 2 6 2 0 3 1 3 3 0 3 2 4 4 2 1-2 1-2-1-4s-3-4-3-7c0-7 1-8 5-8 5 0 4-4-1-5-7-2-8-2-8 3m-7 0c-1 1-2 4-2 12l-1 11h3c3-1 5-8 4-17-1-7-2-9-4-6m61 19l-2 15c0 11 0 11 2 10l8 1c12 4 16 2 16-7 1-6 1-6-9-8-7-2-9-5-9-10 0-3-2-5-5-5l-1 4M87 151c-4 1-10 5-13 8-22 17-21 16-26 16l-6 1-2 1c-2-1-4 1-3 3h-1l-4-1-3-2c0-1-6-1-10 1l-6 1-4 3-4 3-3 1-1 19v20h22l23-1-1-1c-3 0-4-2-2-4v-1c-2 0-9-7-8-8l15 7c1 2 0 3-2 2l-2-1v2l1 1 3 2c0 2 1 2 2-2 1-1 0-3-2-6l-3-5-1-5c-1-2-1-3 1-4v-1c-2-1 2-4 4-4 2 1 3 0 4-1l2-2c1 0 8-6 8-8l2-1 2-2 4-3c3-2 4-2 2-4s-2-3 1-2c2 0 2 0 1-1-2-2-2-2 3-7 2-3 5-5 7-5 1-1 8-12 6-12l-6 3" fill="#d3d3d3" fill-rule="evenodd"/></svg>