<svg xmlns="http://www.w3.org/2000/svg" width="400" height="225"><path d="M0 50v51l3-1h3l-4 2c-2 0-2 2-2 33v34l3 1c3 1 3 8 0 10l-3 1v44h50a446 446 0 0068-1l141 1h142V112l-1-80v33h-3l-7 1c-5 0-11 2-7 2 3 0 3 2 0 2-5 1-7-2-6-8l-1-8c-1-1-1-1-1 2v6c-1 2-1 2-2-2l-3-8c-2-3-2-3 0-3l3 1h1s-1-2-3-2l-2-1V23l1-23H255v33l1 34c0 2 0 2 3 0 7-3 3 0-5 5l-8 5h16c7 2 28 5 29 4l1-10v-8h4l17-2a301 301 0 0029-2v-3c-2-5-5-8-10-9-3-1-3-1-1-1 5-2 10 2 13 8l4 5-1 4c-2 2-2 5-2 10l-1 11-1 2c1-12 1-17-1-17l-11 2-9 1 3 9 4 7 6-1c4 0 5 0 2 1-5 1-6 2-3 2s6 2 4 2l-5 1c-5 1-5 1-5-1s0-2-2-2l-4 1-1 8c0 5 0 7-1 6-1-2-1-2-2-1-2 2-2 2-2 0s-2-4-4-4v6l1 3-2-2-3-3-2-2c0-3-1-5-3-5-1 0-1 4 1 7v2c-1 0-5-5-5-7l-2-2-2 2c0 2-2 0-3-3l-2-4v-2c1-1 0-2-3-3-6-3-7-2-5 3 1 3 1 4-5 4l-3 1 3-2c2 0 3-2 3-3 0-2-4-3-17-5a63 63 0 01-18-4l-1-1c-1-2-10 7-10 9 0 1 1 2 3 2l11 4-9-2c-10-3-11-3-11 1-1 5-21 11-39 12l-8 1 9-2c21-3 31-6 35-11 2-2 2-2-1-5-5-5-29-11-42-11h-4l1-39-1-39c-2 0-2 3-2 39v40l-3 1-4 1V10l1-10h-30c-20 0-29 0-28 1l1 1 5 6c0 2-2 1-4-1l-3-2c-2 0-2 0-1-1 2 0 1-2-1-2h-2c-1-2-7-2-54-2H0v50M97 5v1a330 330 0 00-19 3c-4 1-5 1-5-1-1-3-9-3-8 0 0 1-2 2-14 2l-16 1v95l4 1c5 1 6-1 6-9 0-13 2-5 2 8a267 267 0 001 28v2l2 2c0 2 0 2 2 1l5-4 2 1 2 1c1 0 2 0 2 4 0 3 0 4 2 4l3-1 1-1-2-1c-2 0-2 0-1-1v-1c-2 0-2-1-2-14l-1-31V79l2-1h3V48c0-29 1-38 3-29v30l1 27h2c8 0 9-1 9-8 0-5 0-6-2-6-3 0-4-3-3-5l3-2c2 0 2-1 2-5s0-5-2-4c-2 0-4-2-3-5l3-3c2 0 2 0 2-12s1-15 3-12c1 1 2 10 2 31l1 31V44c0-30 0-31 2-31s3 4 3 16c0 7 0 9 2 9l2 1c2 2 0 6-2 5-2 0-2 1-2 5s0 5 2 5c3 0 4 3 3 5l-3 2c-2 0-2 1-2 7v6h6l8 2h2l-1-1-1-1 2-1 1-13c0-13 1-15 5-12 2 1 2 1 2-1l-4-1h-2l-1-10c0-9 2-9 2 0 0 5 2 9 2 5 0-6-2-17-4-19-1-2-1-4 1-5v-1l-1-3c0-3-5-6-8-4-2 1-3 1-3-2l4-1 1-1h-8m258 55c-5 3-5 4 3 12s10 8 4 1l-4-5h14l-2-3c-2-5-10-7-15-5m33 11l1 1c1 0 1 3-1 4-2 0-2 1-1 2 1 3 4 3 9 2 4 0 4 0 4-4 0-2-1-3-2-3l-2-1c0-2-3-3-6-3l-2 2M68 80l-2 3v2l-1 11v11h11l8-1c-1-1 0-1 3-1l7-1c2-1 2-1-1-1-5 1-9 0-7-1v-3l1-2v-1l1-2c2 0 4-3 3-5l2-1 2-1 2-3h1l-1 2v1l4-1c2-1 6 2 4 3-1 1 0 1 2 2 4 0 6-1 6-3-1-1 1-2 5-2l4-1h-3l-5-1c0-2 3-3 21-3s21 1 5 2c-18 0-15 2 6 2l21-1-6-1h-4l4-1 5-1h-6a468 468 0 00-49 1c2 1 1 2-2 2-2 0-3 0-3-2s-1-3-2-1H80c-2-2-10-3-12-1m285 15l-6 1c-4 0-6 1-6 4s4 3 26 0c4-1 5-2 1-3-3-2-3-2-5-1l-4 2v-1c2-2 2-2 0-2h-6m-125 4c0 3-6 10-8 10l-4 2c-2 2-10 4-15 3l-17 3-4 1c-3 0-4 1-4 3s-13 5-16 3c-3-1-6-1-7 1-3 2-3 1-3-2l-1-4c-2-2-46-1-45 1v2h1c7-1 12 6 6 8-3 1-3 3 0 4 2 2 3 5 2 10 0 3 0 4 2 5 4 2 5 2 5-7 0-11 1-10 1 1 0 6 1 8 2 8l5 1 4-1h3c2 0 2 0 0 4-1 5-1 5 1 7 2 3 2 3 1 7-1 2-1 2-4-4-3-7-3-7-1-9 1-2 0-3-3-3h-3l-5-1h-3v13c1 13 2 16 8 16 3 0 3 0 3-3v-3l3 2c4 4 6 4 8-3l3-7v9c-1 2-1 2 2 3l3 1 1 1 1-2c0-4 0-4 2-2h8l5-1v-5l-1-9c-1-3-10-7-12-6-2 0-2 0-2-3s1-4 2-4c4-2 5-14 0-17-3-2-2-3 1-2l2 2 2 3 1 6c0 5 0 6 3 7h5c1-1 2-2 3-1h12v-7c0-7-1-10-5-11-2-1-2-1-1-2h2l3 2c3 1 3 1 3 9s0 8 3 8c2 0 2 0 2-4 0-6 2-7 6-3l11 6 8 5 1 1c2 1 2 3 2 9l1 9c4 2 11 1 11-3 0-2 0-2-2-1-3 1-5 1-6-1l4-2c5 0 5 0 5-3 0-4-2-6-7-8-3-1-4-2-4-4s0-3-2-3h-3l3-3c2-3 2-4 2-10l1-6 1 8c0 9 2 11 9 9l5-1v-16l2 2c1 1 2 2 5 1h3l-4 1c-4 2-5 5-5 9 0 2 1 3 7 3h6v-7l-1-9c-2-1-2-2-1-2 3 0 4 2 4 10 0 6 0 7 2 7s2-1 2-9c0-10 0-10 2-10l4-1 2-2v8c2 2 2 13 1 13-3 0 0 3 3 4 8 3 11 2 13-7 1-4 1-4 2-2 0 2 1 1 4-6l5-8 1-8v-7l-2 2c-2 1-4 4-5 7l-2 5h-9l1 1c2 0 4 3 4 6 0 5-2 4-3 0 0-3-2-5-3-5-1-1-1-2 1-6 4-5 3-6-2-2-2 3-4 3-6 3-5 0-5-1-2-4l3-3-2-4-1-4-1-1-4-1 2 3c4 4 5 6 1 10-2 3-7 4-7 2s-5-8-5-6a517 517 0 00-2 4c-3 2-4 1-4-3s-2-6-9-10c-6-3-6-3-6 0m-213 5l-2 2-3 1c-5 0 1 2 10 3h8v-2c0-2-1-3-3-4-4-2-6-2-10 0m208 10l-11 3-5 2 4 1c4 1 23-2 25-4 1-1-5-5-6-5l-7 3m-213-1l1 2c1 0 2 1 1 2l1 2 1 9c0 10 1 10 1 1 0-10 2-12 10-12 5 0 6 0 5-3h-8l-8-1c1-1 0-1-1-1l-3 1m221 6l-12 3-3 1 4 1 4 1v6c0 6 1 7 3 7 1 0 2-1 2-4 0-4-2-10-4-10l-2-1 14-1c5 0 5 0 5-3l-1-3-10 3M38 132a382 382 0 002 52l2 4 1 3c0 2-5-1-5-4v9c0 11 1 15 3 15l3 2c3 4 2 1 0-3-3-4-4-7-2-7l1 1 1 1 3 3 1 3 1-4a573 573 0 00-4-75c-1 1-3 0-4-1-2-1-3-1-3 1m241 8l3 3v7l1 6c0 5 1 6 4 6s5-2 2-4l-2-4c0-3 0-4 2-4l1-2-1-3-2-2-2-2-4-2-2 1m-28 6l-3 2h-18l-5 1v1c4 0 6 4 6 11s0 8 3 7l1-6c0-5 1-7 2-7 2 0 2 0 2 6-1 4 0 6 1 6 3 2 4 1 4-6 0-5 1-6 2-6s2 1 2 5l1 7 3 2 2 2v-2c-2-1-2-4-2-8l-1-9c-1-2 0-3 2-1l1 6c-1 7 1 10 6 9 7-2 8-6 1-5l-3-1c0-1 3-2 7-2l2-1c0-3-2-8-4-9-4-1-11-3-12-2m11 0c5 2 6 3 6 11 0 6 0 7 2 7s2-1 2-6 1-7 2-7c2 0 2 0 2 6-1 6-1 6 1 6 3 0 4-2 3-9s-2-8-13-8h-5m-62 5c-3 0-5 1-5 2-2 2-2 2-6 1-4-2-6-2-9-1s-3 3 0 4c4 1 7 5 6 7-5 5-2 11 3 10 3-1 5 0 8 2 5 3 8 4 12 1 4-2 5-6 4-16v-8l-4-1-5-2-4 1m-35 3l-4 2 3 1c3 1 3 1 3 10 0 8 1 9 3 9s2 0 2-6l1-8c3-2 4 0 4 6-1 6 0 8 4 6 1 0 2-11 0-14-1-2-10-7-11-7l-5 1" fill="#d3d3d3" fill-rule="evenodd"/></svg>