<svg xmlns="http://www.w3.org/2000/svg" width="400" height="225"><path d="M0 74v75h4a409 409 0 0055 3l17 1 31-11 32-11 2-5 2-10 1-7 7 4c1 2 3 2 8 3l7 2c2 2 2 2-3 2-4 0-6 1-7 2l-2 2h2l7-2c5-1 5-1 7 1 3 3 6 3 6 0 0-1 1-1 2 1 3 2 3 2 5 1 3-2 8 0 10 4 1 2 2 2 7 2 10-2 15-5 15-10 0-2 0-2 1-1 1 2 9 5 10 5l1-4v-3h-5c-4 0-5 0-7-4s-3-6-6-6c-3-1-3-2-3-4 0-3 0-3-2-1-1 2-1 2-2 1l-1-2-3-4-2-3-2-1c-2-1-3-5-4-12-1-4-2-6-10-14a76 76 0 01-12-15c-2-2-5-5-5-7l-3-2v-2l-2-4c-3-1-6 0-12 6-6 5-10 6-12 3-3-2-2-5 1-5s4-1 3-3v-3c2-3 1-3-4 1-4 3-4 3-3 1l-1-3-2-3c0-2 0-2-3-1-5 2-5 1 1-4l5-5-2 1-3 1 2-3c4-5 4-5-2-11l-6-7-1-3H0v74M268 4l-5 6c2 5 2 6 0 6-2 1-2 1 0 2l3 2c2 3 3 2 5 0 1-4 3-4 3 1 0 3 0 3 1 2 1-2 1-2 1 0l-3 6c-2 3-3 4-2 10 0 6 0 6 2 4l2-2 1 1v4c-2 2-1 3 1 2 2-2 2-1 2 6 0 8 0 8-2 7l-1 2c0 2 2 3 7 6 7 4 11 4 20-2l7-3v-9c0-7 0-8 3-11s3-4 4-7v-4l5-1c4 0 5 0 5-2l-3-1c-2 0-3 0-3-2l-2-4c-1 0-2-4 0-4l6 1c7 2 8 3 8 13 0 7 0 8-3 10l-2 2h2c2 0 3 0 2 2h2l7-1c5 0 6 0 10-3 10-7 15-8 17-1l1 4 1 6c0 6 2 16 4 18 1 2 9 6 10 6 2 0 4 3 4 5l5 3 5 2c2 1 2-2 2-42V0H274l-6 4M63 20c5 5 25 8 31 5 4-2 7-6 4-5-6 2-17 2-25 0-10-3-12-3-10 0m82 65l1 10 1 3 5 4 8 5c5 4 8 4 3 0l-3-3h3c8 0 8 0 12 4 3 3 3 3 3 1 2-5-3-9-8-9-6 0-10-2-14-7-4-6-10-10-11-8m74 1v3l-1 4v1l1 3c0 5 6 8 7 5l2-1-1 3c-1 3-1 3 2 3 2 1 2 1 1-4 0-4 1-6 3-3l2 2c2 1 2 1 1 2v2l-2 1c-2 1-3 2-3 5l1 5 3 2 3 1c2 0 2-1 2-6l-1-6-1-5v-5h-8c-6 1-13 0-9-2l1-6c0-5-1-6-3-4m86 14c0 1-1 2-2 1-2 0-3 1-5 3-3 5-3 5 6 6h8l-1-3c-1-7-4-10-6-7m59 9c-1 3-1 3-18 3-19 0-22 0-18 3 2 2 2 2 1 4-2 2-2 2 0 2 1 1 0 1-2 1-4 0-6 1-6 4l-1 3c-2 1 1 2 5 2s4-1 2-3c-3-6-4-5 32-3h10l-1-2v-7l-1-7-2-2-1 2m-114 13c2 2 2 9 0 11-3 3-1 4 8 4h8v-3l2-6c4-7 4-7-8-7-9 0-11 0-10 1m40 13l-1 7v4l11 3a1385 1385 0 0196 34l4 1v-48h-3c-22 4-52 3-90-4-15-2-16-2-17 3m-94 0c-4 1-7 5-5 7 1 2 9 3 12 2l7-3c7-2 8-6 1-6h-15m41 4l-1 1c-2 0-3 7-2 8l9 8c8 8 13 11 21 10l6 1h3c2-1 10 0 10 1l3 2c8 1 22 10 26 15v2h-2c-1 2-9 7-10 7h-8l-5 2c-1 1-3 1-6-1l-4-1-2-1-3-1-6-4-6-4c-4 0-13 3-14 4l-2 1c-1 0-2 0-1 1l-2 1c-2-1-6 2-6 5l-1 1v1l1 3c0 2-1 2-3 2l-3 4-5 2-8 7c-4 3-5 4-8 4-4 0-12-3-12-4 0-3-3-6-8-7-2 0-7-5-9-8l-2-2-1-1-3-5c-3-4-3-5-3-11l2-8 1-2c0-3 1-4 5-12 3-6 4-11 2-11-1-1-1-2 1-3l2-3c-1-1-11 0-17 1h-12c-6-2-7-2-12 0s-8 2-5 0v-1l-16 7a782 782 0 01-76 35v-1h-2l-7 1-15 4-16 2-5 2v32h401v-17l-1-16h-4c-18-5-34-9-34-6s-23-4-54-19a7049 7049 0 00-71-28" fill="#d3d3d3" fill-rule="evenodd"/></svg>