<svg xmlns="http://www.w3.org/2000/svg" width="121" height="33"><path d="M8 5c-11 7-7 23 7 23 6 0 12-6 12-13 0-4-4-9-7-9s-4 2-1 5c4 5 1 11-4 11-8 0-10-9-3-15 3-4 4-4 2-4L8 5m58 6c-3 2-2 3 2 3 5-1 5 2 0 2-5 1-7 4-5 7 1 2 2 2 7 2h6v-6c0-7-5-11-10-8m19 0h-3c-3 0-3 0-3 7 0 6 0 7 2 7s2-1 2-5 0-5 2-6c3-1 4 1 4 6 0 4 0 5 2 5l1-4c0-5 2-8 5-7l1 6c0 4 0 5 2 5s2-1 2-5c0-8-2-11-7-9H85m21 5l3 7c1 3 0 6-3 6l-2 2c0 1 5 2 7 0l8-20h-2l-3 4c-2 6-2 6-4 1-1-3-2-5-4-5h-2l2 5" fill="#d3d3d3" fill-rule="evenodd"/></svg>