<svg xmlns="http://www.w3.org/2000/svg" width="195" height="73"><path d="M23 16c11 2 18 9 14 15-1 4-3 4-5 0l-3-3c-2 1-2 1-2-2 1-3 1-3-4-3-3 0-9 3-5 3l2-1c0-1 1-1 1 1l2 2 2 1-1 1-5 4c-3 3-3 3-5 1l-2-4c1-2 0-3-2-1-1 1 0 2 2 5s2 4 1 4c-3 0-2 4 1 9s3 5 0 6c-2 1-2 1 1 1h4l-2-4c-3-6-3-7 2-5 3 2 13 2 18 0 2 0 2 0 1 2h1c1-1 2 0 6 3 3 3 5 4 8 4h4l-4-2-7-4c-4-4-4-4-3-10 1-14-8-24-21-24-4 0-4 0 1 1m64 10c0 2 0 3-2 2l-5 1h-8c-3 0-3 0-3 5 0 4 0 5 2 5 1 0 2-1 2-4l2-4 2 1c-3 4 2 8 9 7 5 0 5 0 5-4 1-5 4-6 4 0 0 3 0 4 2 4l2-2v-2l1 2c2 2 6 3 9 2 3 0 2-2-1-2-5 0-4-2 1-2 4 0 4 0 4 2l2 2c2 0 2-1 2-4 0-2 0-3 2-4l2-1c0-1-2-2-3-1h-3l-2 2c0 2 0 2-2 0-3-4-6-4-10-1-1 2-2 2-2 1s-4-3-6-2c-2 0-2 0-2-2s-1-3-2-3l-2 2m-29 3c-2 1 0 2 3 2h4l-3 1c-9 3-7 9 2 7 4 0 4 0 4-4 0-5-5-8-10-6m-20 5c-2 4-3 4-6 0l-1-2-2 5-1 6 6 1c7-1 9-3 7-10 0-5-1-5-3 0m19 12c0 5 1 9 3 9l2-1 1-2 1 2c0 2 4 1 4-2v-2l1 2c1 4 6 4 8 1 1-4-4-7-7-4-1 1-1 1-1-1 0-3-2-4-3-1l-2-1h-2l-2 1c-1-2-3-3-3-1m57 0l-1 2c0 2 0 2-1 1h-11l-6-1c-4 0-4 1-4 4s4 5 6 1l1-2 1 2c1 3 4 3 5 0v-2l1 2c1 3 6 3 8 0v-2l1 2c1 4 2 2 2-3s-1-6-2-4" fill="#d3d3d3" fill-rule="evenodd"/></svg>