<svg xmlns="http://www.w3.org/2000/svg" width="169" height="35"><path d="M5 2C2 4 0 7 0 14s1 9 5 11c9 5 18-1 18-12V8l4 9c3 10 3 12 1 12l-2 2c0 2 1 2 3 2 4 0 5-2 9-13 2-9 2-9 4-6 1 2 2 3 6 4l5 3c-1 2-5 2-6 1-2-2-6-2-6-1 0 4 7 7 11 5 8-2 8-9-1-12-4-1-5-3-2-3l4 1h4c0-5-10-7-14-3l-2 2V9c1-2 0-2-2-2s-3 1-5 7l-2 6-1-6c-2-7-2-7-5-7s-4 0-7-3-9-4-14-2m54 0v13l1 11h3c4 0 6-2 3-3-2-1-2-2-2-6 0-5 0-6 2-7l1-2-1-1-2-2c0-2-1-3-2-3h-3m40 0l-1 12v12h9c7 0 8 0 8-2s-1-2-6-2h-5l-1-11c0-10 0-11-4-9m35 9c0 12 1 13 5 15 8 2 13-2 13-10 0-7-8-12-12-8-1 1-1 1-1-2s-2-5-4-5l-1 10M7 7c-2 1-3 6-2 10 1 6 9 7 12 2 4-8-3-17-10-12m63 2c-4 4-4 12 0 16 4 3 14 1 14-4h-4c-2 2-6 1-7-1s-1-2 5-2c8 0 9-1 6-7-3-5-10-6-14-2m21-1c-3 2-5 5-5 12 0 6 0 6 3 6 2 0 2 0 2-6s1-8 4-8l2-2c0-3-2-4-6-2m28 1c-3 3-2 3 4 2 7 0 7 2 0 3-5 1-7 5-6 8 1 6 12 6 15 0 1-3 1-10-1-13s-10-3-12 0m36 0c-4 4-2 7 5 10 3 0 5 2 5 2-1 2-5 2-6 1-2-2-6-2-6-1 0 8 15 7 16 0 0-4-1-5-6-7-4-1-5-3-2-3l4 1h4c0-5-10-7-14-3" fill="#d3d3d3" fill-rule="evenodd"/></svg>