<svg xmlns="http://www.w3.org/2000/svg" width="127" height="25"><path d="M0 11v9h6c8 0 12-5 7-8-2-1-2-2 0-3 3-5 0-8-8-8H0v10m85-2l-4 10c-1 2 4 1 5-1 1-1 2-2 5-2s4 0 5 2l2 2c3 0 3 0-1-9-5-13-7-13-12-2m35-6l-1 2-1 2 1 2 1 5c0 5 2 7 5 7 2-1 3-4 1-4s-2-1-2-4 0-4 2-4V5l-2-2c-1-3-4-3-4 0m-14 4c-8 6 1 18 8 13 3-2 2-4-2-4l-4-1c-2-3 0-6 4-5 4 0 5-2 2-4-2-2-5-1-8 1M38 8c-3 3-2 7 0 9s7 3 9 1c1-1 1-1 1 1 0 3-4 5-8 4l-3-1c-2 3 8 4 10 2 3-2 4-18 2-18l-1 1h-1c-2-2-8-1-9 1" fill="#d3d3d3" fill-rule="evenodd"/></svg>