<svg xmlns="http://www.w3.org/2000/svg" width="153" height="34"><path d="M58 19v14h6v-7c0-7 1-7 3-7s3 0 3 7v7h7v-8c-1-12-4-16-11-12-2 1-2 1-2-4s0-5-3-5h-3v15m75 0v14h3c3 0 3 0 3-5l1-4 2 4c2 4 3 5 7 5h4l-3-5c-5-7-5-6-1-11s4-5 0-5c-3 0-4 1-7 4l-2 4-1-8V4h-6v15M0 19v14h7v-8l1-7 2 7c3 7 3 8 6 8s3-1 6-8l3-8v16h7V6l-5-1h-4l-3 8-4 8-4-8-3-8H0v14m39-6l-3 4c-7 11 7 22 16 13 9-8-1-22-13-17m43 0c-2 1-2 1-1 3 0 2 2 2 5 2 5 0 6 2 0 2-6 1-9 4-7 9 1 3 6 6 8 4h10v-8c0-8 0-9-2-11s-9-3-13-1m16-1l3 11 3 10h4c3 0 4 0 4-2l1-5 2-4 1 5 1 6h4c4 0 4 0 6-6l2-8c2-6 1-7-2-7s-4 1-5 7l-1 7-2-7c-1-6-2-7-5-7s-3 0-4 6c-1 5-3 7-3 3l-1-5c-1-4-1-4-5-4h-3" fill="#d3d3d3" fill-rule="evenodd"/></svg>