<svg xmlns="http://www.w3.org/2000/svg" width="190" height="69"><path d="M21 18l-1 2h-2l-1 1-1 2c-3 2-1 5 4 7 6 2 7 4 5 8s-7 6-13 7c-7 0-8 2-2 2l3 1-4 1c-5 0-7 2-6 4 0 2 5 3 9 2h5c7-1 13-4 17-11 6-9 6-15 0-22-4-4-13-7-13-4m27 17c-3 2-1 4 4 5l4 2c0 2-5 1-7-1-2-1-2-1-2 1s7 4 10 2c2-1 3-5 1-5v-1c2-3 1-4-4-4l-6 1m15 1l-2 3c0 7 13 8 15 1 1-5-8-9-13-4m52-1l1 1v7c-1 1 0 1 2 1s3 0 2-1l-1-3v-3l2 3c2 5 4 5 5 1l2-3v3c-1 3 0 3 2 3 3 0 3 0 2-2v-6l1-1c0-3-6-1-7 2l-2 3-1-3c-2-3-8-5-8-2m38 0l-1 5c0 4 0 4 4 4 4 1 8 0 8-2 1-2-1-4-4-4l-4-1c-2-1 2-2 5-1 3 2 3 2 3 0s-9-3-11-1" fill="#d3d3d3" fill-rule="evenodd"/></svg>