<svg xmlns="http://www.w3.org/2000/svg" width="174" height="68"><path d="M16 17c-18 5-15 34 4 34 4 0 12-4 12-5s-1-1-4 1c-3 3-11 3-16 0-13-9-6-30 10-29 11 2 17 13 12 22-2 5-2 6 0 3 9-13-3-30-18-26m-1 5c-12 6-9 23 4 25 11 1 18-10 13-20-4-6-11-8-17-5m41 2c-8 4-5 20 3 20 3 0 8-4 8-6 0-3-4-3-5 0-4 4-8-3-5-8 2-2 2-2 4-1 2 2 6 2 6 1 0-5-7-8-11-6m13 1v10c0 8 1 9 3 9s3-1 3-4 0-4 3-4c2 0 2 0 2 4s0 4 2 4 3-1 3-10V24h-2c-3 0-3 0-3 3s0 3-2 3c-3 0-3 0-3-3s0-3-3-3l-3 1m20 8l-2 9c-1 2 4 2 5 1 0-2 6-3 6 0 1 1 4 2 5 0l-2-10c-3-8-4-9-6-9-3 0-3 1-6 9m16 1c0 9 1 10 3 10s2 0 2-5v-5l3 5c2 3 3 5 5 5s2 0 2-10V24h-2c-3 0-3 0-3 4v5l-2-5c-2-3-3-4-5-4h-3v10m18 0c0 9 1 10 3 10s2 0 2-5v-5l3 5c2 3 3 5 5 5s3-1 3-10V24h-3c-2 0-2 1-2 4 0 5-1 5-3 0-2-3-3-4-5-4h-3v10m18 0l1 10h7c6 0 7-1 7-3s-1-3-5-3c-5 0-5-2 0-2 3 0 4-1 4-3s0-2-4-2l-4-1 4-1c4 0 4 0 4-2 0-3 0-3-7-3h-7v10m17 0l1 10h12v-3c0-3 0-3-4-3h-3l-1-7c0-7 0-7-3-7h-2v10" fill="#d3d3d3" fill-rule="evenodd"/></svg>