<svg xmlns="http://www.w3.org/2000/svg" width="400" height="229"><path d="M71 17c-6 4-6 4-7 41v34l-2-1c-3 0-9 2-10 5l-1 9 1 3 1 2 4 3 2 1 3-4 2-3v18c0 18 0 19-2 19l-2 3c0 3 0 3-6 3-9 0-9 0-9 15v12h7l8 1-7 1-8-1v17c0 1 0 2 3 2s4 1 5 4 2 3 7 2c4 0 5 0 7 2 2 3 7 5 12 5l3 1-26 1H32v-4l-1-3-1 3-2 4-1 3c1 2 19 2 176 2h176l-1-3 2-4 1-13v-12l-3-1-4-1c-2 1-3-1-3-7 0-4-2-5-10-5h-7v-9l-1-10 2-2c3-1 4-3 3-5l-3-1c-2 1-2 0-1-2 0-1 1-2 4-2 4 0 7-2 5-5l-4-1h-3l2-4c1-4 2-4 6-5 6-2 7-6 2-6h-3l1-3 5-5c5-2 7-9 2-9-2 0-6 4-7 8 0 4-5 14-6 14l-1-2c-1-4-4-2-3 3v7l-2 11-3 10h2c2 0 2 1 2 9v9h-11v-17h3c3-1 3-1 2-7 0-6 0-6 3-9 4-4 4-7 0-6-3 0-3 0-3-3l1-4 4-5c7-4 7-11 1-10-3 1-3-4 1-4 3-1 6-4 6-6 0-3-2-3-5-2-3 2-3-1 0-5 4-5 4-7 2-9-3-4-8 2-7 9 1 3 1 3-1 2-1-2-2-2-6-2h-4v-6c0-8-1-9-15-9h-11v-9c0-11-1-13-8-13h-4V40c0-18 0-20-6-23-4-2-220-2-224 0m-2 4l-3 3v178l2 3 3 3h96l98-1c1-4-2-5-6-3-11 6-27-6-27-18 0-10 6-17 15-18 8 0 15 5 22 15 1 2 1 2 4 1 3-2 3-3 3-6 0-7 1-7 13-7h11v-22l-1-24c0-2-4-2-27-2l-27-1-1-3c0-5-3-7-8-7l-4-1h103c2-1 2-1 2-16V81H232l-1 5c0 5 0 6-3 7-3 2-3 2 1 4 2 1 2 1 2 7 0 5 0 6-1 5l-1-6c1-4 0-4-3-6-4-2-4-2 0-4 3-2 3-2 3-6 0-9-1-9 38-9h33V52c0-28 0-31-5-33l-113-1H72l-3 3m11 9v3h206v-7H80v4m0 7c0 2 1 2 103 2s103 0 103-2-1-2-103-2-103 0-103 2m0 27l44 1 44-1-44-1-44 1m157 1c0 2 1 2 16 2 14 0 16-1 16-2 0-2-1-2-16-2s-16 0-16 2m-43 12c-13 6-16 22-6 32l2 3c1 3 15 2 20 0 12-6 13-25 2-33-5-3-14-4-18-2m15 11l-1 8c-2 2-2 2-1-3l-1-5-1 1c0 4 0 5-2 5v1c0 2-2 4-4 2-1-1 0-4 2-4 1-1 2-1 1-2 0-2-3-2-4 1-1 4-2 2-2-3l-1-1-1 5c1 5 3 7 8 7 3-1 3-1 2 1-1 1-1 1 1 1v1l-1 2-1 1-1 2c0 2 0 2 2 2l3-1 1-2c0-2 0-2 1-1 1 2 1 2 3 0 6-7 6-15 0-22-3-3-4-3-3 4m-19-3c-5 5-5 16 0 21h2l1 1 2 2h1l2 1 1-2-1-2-1-1c0-2-1-2-3-1h-1l3-2 3-1-3-1c-3-2-4-5-4-11 0-7 0-7-2-4M58 94c-6 3-7 9-3 14l3 3 3-3c3-3 3-4 3-9 0-6-2-7-6-5m161 27s-1 2-3 2c-2 1-2 1-1 3l2 4 1 2c6 1 9 0 9-1l1-3v-3l-1-2-4-2c-2-2-3-3-4 0m84 3c-2 1-2 3-2 24v23h11v-3c0-3-1-4-5-4l-3-1c2 0 2-2 2-19 0-20 0-22-3-20m11 1l-1 24v22h27v-9l1-10c0-1-1-2-3-2-7-2-8-8-2-7h3l-4-1c-4 0-8-1-8-3s4-4 6-3c2 0 3-1 1-3s-2-2-4-1c-4 3-9 3-9 0-1-2 1-4 5-4 7 0 1-4-7-5-3 0-5 1-5 2M84 139c-10 6-12 16-6 25 1 2 1 2 2 1h1v1c-4 0 7 8 13 9s12-3 16-8l2-5 1-2v-2c-2-2-1-3 2-1 3 1 3 2 3 6 0 6 1 7 8 7 5 0 5 0 4 3 0 2 0 3 2 5s3 2 44 2l44-1c3-1 3-1 3-13 0-13-1-15-7-14-2 1-2 0-2-4 0-9 4-8-48-8l-47 1-1 6c0 3 0 4-3 5-2 2-4 2-4 0l-1-3c-3-2-2-3 0-3l2-2c0-2-1-2-3-2l-9-2c-6-4-11-4-16-1m0 4c-3 2-6 7-6 11 0 5 5 13 6 9l2-2v5l2 1h2l-1-3-1-3-2-4c-3-4-2-12 1-14s9-1 11 1c4 4 2 15-2 15v-1c2-3 1-4-1-3-4 2-5 2-5 1 1-2 0-2-1-2-4 0-2 5 3 5 3 0 5 2 3 4-2 1-3 5-1 5l1-1h2l1-2c0-2 0-2 1-1 1 4 6-4 6-11 0-9-12-16-21-10m36-1l-1 6c0 3-1 4-2 5l-2 2 2 1c2 1 2 2 2 6s0 5 2 6h90l1-14v-12l-46-1-46 1m121 32l-4 2h-1l-1 1h1l1 2c-2 4-2 9-1 12l1 4v2h5c1 1 1 1 1-1l1 1c1 2 1 2 2 1v-4c1-1 1-1-1-1l-3 2c-1 1-1-1-1-8 0-10 2-14 7-14 6 0 8 4 9 13 0 9-1 11-4 9-2-3-4-2-4 1s0 3 7 1c3-1 6-7 6-11 0-12-12-18-21-12m37-1l-1 6c0 3 0 4-2 5l-2 2-2 1c-2 0-2 0-1 2v1l-1 3c-1 3 3 7 5 7s2 1 2 2v3c-3 3-2 3 5 3h7v-7h-5c-6 0-7-1-7-7l-2-5c-1-2-1-2 1-1 2 0 2 1 2 5l1 6c2 2 89 2 91 0l1-13-1-13c-2-2-89-2-91 0m-166 2l-3 2c-3 0-3 2-1 3v4l1 2 2 1h5c2 2 3 1 3-2l1-4v-2l-2-2-4-2c-2-2-2-2-2 0m-58 13c0 11 1 13 4 13h2v-20l-3-1h-3v8m62 27" fill="#d3d3d3" fill-rule="evenodd"/></svg>