<svg xmlns="http://www.w3.org/2000/svg" width="400" height="229"><path d="M226 8c-5 3-10 10-7 10l1 97a1861 1861 0 01-2 76v-19l-10 6a613 613 0 01-33 16c1 2-2 3-5 2l-8 2c-7 2-7 4-3 9l3 4h28c26 0 27 1 28 2 3 4 8 9 11 10l2 1 3 1a1597 1597 0 0081 1c6 0 14-8 13-13l24-1c22 0 24-1 27-3 6-4 6-1 6-84l-1-80-4-7-3-2-3 3a1758 1758 0 01-14 19l2 2h-3l-12 12-18 18-6 6v57a1462 1462 0 01-1-39 1797 1797 0 012-85c-1 7 0 7 3 3 1-3 2-4 1-7l-2-3-1-3c-1-5-5-9-9-12-5-2-86-2-90 1m-9 20v7h-26c-29 1-30 1-34 7-1 2-2 7-2 59v56l5-2a410 410 0 0030-16v-1l1-1c0-2 0-2 1 0s4 2 3 0h2v-1c-1-1-1-1 1-1l11-4 9-5V73a1377 1377 0 00-1-45" fill="#d3d3d3" fill-rule="evenodd"/></svg>