<svg xmlns="http://www.w3.org/2000/svg" width="400" height="151"><path d="M74 3l-5 2c-1 0-2 4-1 10v8c-1 3-7 6-11 6-6 0-10 4-10 8l-1 5c-2 1-2 3-1 6a34 34 0 010 11c0 2-1 4-5 8-4 3-6 6-6 7 0 3-17 8-22 6l-7 3c-4 4-5 5-5 9l2 5 3 5 5 6c3 2 4 5 3 9 0 5-3 7-7 5-6-4-6-4-6 14v15h221l-1-3c-1-3-1-3 2-3 5 0 6-1 7-7 0-6 2-14 5-17l1-4-4-13-1 12-1 12v-13l-1-13c-1-1-1 5-1 16l-1 19c-2 3-46 3-50 0l-2-2V81c0-62-1-58 7-59 4 0 4 0 5 2 0 3 2 3 16 2 11 0 12-1 13-2 0-3 7-3 10 0 2 2 2 3 2 30a131 131 0 01-1 29l3 5c0 1 2 2 7 2l3 4 3 5c3 3 8 15 7 21l2 10 2 13v8h148l-1-73-1-74h-3c-4 2-12 0-13-2 0-2-6-3-11-1l-2 1 2 2 7 7c3 3 3 3 3 13-1 8-1 10-3 11-3 3-3 2-7-1l-3-2-3 3c-3 4-6 5-10 2-2-1-3-5 0-7 2-2 1-8-2-12-3-2-3-3-2-5l1-4c0-4 2-5 8-5a770 770 0 00-120-4H113l-6 5c-6 4-9 5-12 2-6-7-6-7-12-7-5 0-7 1-10 3m249 19c-3 3-3 13 0 17 2 3 8 3 10-1 5-10-3-25-10-16m-153 4l-1 67v42l1-55V26m63 14c-1 3-1 7 1 18l3 13c3 14 4 16 11 20l8 5 1 1c1-1-1-8-4-15l-5-12-2-8-3-8c-3-14-8-21-10-14m-98 18c-4 1-4 8 0 11 4 4 4 4 8 1 5-6-1-15-8-12m32 0c0 2-1 2-4 1-5-1-13 8-10 13l9 4 4 1c2 2 2 1 2-10l-1-9m-16 25c-3 3-3 3-3 8 0 9 5 14 14 15l6 1V84l-4-1c-7-2-10-2-13 0m128 43c-3 3-3 7 1 10 6 6 12 2 10-5-1-5-2-6-6-7-2 0-3 0-5 2" fill="#d3d3d3" fill-rule="evenodd"/></svg>