<svg xmlns="http://www.w3.org/2000/svg" width="400" height="225"><path d="M240 16l-15 5c-1 1 0 8 1 11 3 2 38-8 37-11l-2-5c-1-5-2-5-21 0m3 15c-15 4-16 4-15 9 2 8 2 8 19 3a646 646 0 0117-7l1-2v-2l-2 2c-5 4-9 0-5-5 3-3 2-3-15 2m-76 14c-2 1-1 2 3 2 3 0 5 1 7 3 8 7 0 20-11 16-3-2-5-1-2 1 11 9 26-8 16-19-4-3-11-5-13-3m-53 11c-5 4-6 9-4 18 3 14 5 18 8 21l2 2-8 2-10 3c-3 2 2 1 8 0 6-2 9-2 10 0s0 2-7 4l-8 2v-1c3 0 2-2 0-2s-4 2-2 3v1l9-1c10-3 10-2 9 1l1 2-15 5-2 1 9-1c10-2 10-2 10 0v2l-8 3-9 3h2c12-3 16-4 16-1l2 2c1 1-14 6-17 6l-1 1 2 1c14-4 15-4 17-2s2 2-8 5c-11 3-11 4 1 1l9-2-1 1 1 3v6l1 1 1 2 1 2v5c3 8 4 10 3 11-1 2 8 34 10 40 5 11 13 12 34 6a1545 1545 0 0182-22c28-7 33-10 32-23 0-3 0-3-3-2a11169 11169 0 00-132 33 4717 4717 0 00-41-145l-4 3m150 14c-2 1 7 33 9 33 4 0 5-1 3-6l-4-16c-3-12-4-13-8-11m-34 7c-3 0-4 2-3 3l2 6c1 11 6 27 8 27 5 0 5-1 0-18-5-19-5-19-7-18m18 3l-2 2 4 14c4 12 4 13 8 11 2 0 1-2-2-14-4-14-4-14-8-13m11 3c-2 0-3 0 1 12 3 11 3 12 8 9l-6-22-3 1m-18 2c-3 1-3 2-3 3a1947 1947 0 018 22c4-1 4-2 2-12-4-14-4-14-7-13m-41 2c-1 0 0 5 7 29l3 4c4 0 4-1 0-18-5-17-5-17-10-15m11 2l-2 1 8 28c1 1 7-1 7-2l-4-15c-4-14-3-13-9-12m10 2c-1 1 0 3 2 13l3 12 3-1 3-2-6-21c0-2-3-3-5-1m-36 6c-3 0-2 1 1 16 4 11 4 11 6 11h4l-8-28-3 1m-34 4c-2 2-2 4-2 7 1 4-1 6-6 6l-1 1h4l4-1 3 9c4 17 8 22 13 22l4 1c0 1 1 1 2-1l10-3a76 76 0 0012-4 1258 1258 0 0079-24l2-3c2-2 3-2-57 14l-53 13-3-9-9-31-2 3m44-1c-2 0-2 1 1 14 3 8 3 8 6 8s3 0 1-8l-3-11c-1-4-2-4-5-3m-20 3l2 13c4 12 4 13 9 10l-2-12c-4-12-5-14-9-11" fill="#d3d3d3" fill-rule="evenodd"/></svg>