<svg xmlns="http://www.w3.org/2000/svg" width="400" height="225"><path d="M292 38c1 3 0 4-1 4v3c1 1 1 1 0 0l-2 2-1 1-3 3-1 4 2-2v1l1 4c3 0 3 3 1 4l-2 2c0 2 1 3 5 3 6 0 8-2 5-5-3-1-3-5 0-5 4 0 5-4 1-8-2-2-3-7-1-9 1-1 1-2-1-3-3-3-3-2-3 1m-98 24c-2 2-3 3-1 7 3 5 2 7-2 5h-2l1 1v1c-3-1-5 5-3 6 3 2 6 1 5-2 0-3 0-4 3-4h3v8l2 12v5l2-7c2-10 1-14-1-13-2 0-2 0-2-3 0-2 0-2 1 0s1 2 3 1c1-2 1-2-1-5l-1-2c1-1-1-9-2-11-2-1-2-1-5 1m41 7c-1 5-1 6 19 6h18v-6l-18-1-19 1m-93 48c-1 2-2 39 0 41l16 1h15v-20l-1-22c-2-1-28-2-30 0m15 13l3 3c4 2 5 6 3 10-4 5-13 2-13-5l-1-2c-4 2 2 12 8 12 9 0 13-11 6-17-2-2-6-3-6-1m155 22h-4c-11 2-18 12-18 23 0 8-1 9-6 7l-3 1 2 1c1 0 1 1-1 1-2 1-3 0-3-1v-1c-4 1-5 1-5 3l-2 2-2 2-1 1v-3c1-1-1-5-3-5l-14 1h-2v1l-4 1-5 1c-1 2-9 3-11 2h-1l-2 2c-3 0-5 4-2 5s18 0 26-1c5-2 9-2 10-1l-6 2c-13 3-13 3-6 4a702 702 0 0075-2c3-2 5-3 6-2 2 2 4 1 4-1l-2-2v-2c12-13 4-36-14-39h-6m-138 28v9l-1 1-1 1c2 3 0 5-5 4l-6-1c-1-2-2-1-2 3l-1 4-1 2c1 2 14 3 14 0l-1-1-1-2 1-1c3 2 9-9 6-11v-3c1-2 1-5-1-5h-1" fill="#d3d3d3" fill-rule="evenodd"/></svg>