<svg xmlns="http://www.w3.org/2000/svg" width="400" height="225"><path d="M332 25a80641 80641 0 00-1 178c-1 3-6 6-10 5a1976 1976 0 01-28-1l30 4 4-2c7-4 7 2 7-96a1758 1758 0 00-2-88m-6 82c-1 89 0 80-3 79l-64-8h-2V46h3c3-1 3-1 0-1l-4 1-1 66 1 67c2 1 69 9 70 8l1-75-1-74v69M94 74c-3 2-2 6 0 7s3 2 2 5v3c0 1 3-3 3-5 0-3 4-1 4 3l2 4v-3c0-3 0-5 3-8 4-4 5-8 3-8s-7 5-7 8l-2 2c-2 0-2-1 0-5v-4c-2-1-7-1-8 1m31 1l-3 7-1 5v-3c0-3-2-4-5-2h-3c-3-2-5 0-5 4v3h12c12 0 13 0 14-2l2-2v2c0 2 2 3 4 1v-2l-1-1 1-3 2-1c2 0 2 0 1-1-4-3-1-8 3-6 2 0-2 12-5 15v2c2 0 5-3 5-5 0-1 1-1 1 1 1 2 2 2 6 2l5-2h1c1 3 13 2 13-1h-1c-2 2-3 1-2-1 3-3-1-6-4-3h-1l-4-1c-3 1-4 1-4 3l-1 3v-3c-1-3-3-4-6-1-2 2-2 2-1-3 1-3 2-4 4-4l2-1c0-2-11-4-13-2h-1c-1-1-2 0-4 2l-3 4 1-4c0-4-1-4-3-1l-2 2v-2c0-3-2-3-4 1m166 14h-5c-9-1-9 12 0 17 7 5 18-11 11-16-3-2-4-2-6-1m-9 3c-3 3 2 13 7 13 3 0 8-7 8-10-1-4-5-5-7-3-1 2-1 2-2 1-1-2-4-2-6-1m-8 26l-1 2v-2l-1-1-1 2 1 2 1 2c0 2 0 2 1 1l1-2 1 1v2l1 1 7-1c7 0 8 0 8-2l1-2v3c-1 2-1 2 3 1l4-1 1 1h5v-2c0-2-1-2-5-2-5 1-7-1-4-2v-2c-2-1-6 0-7 1h-1l-1-1h-1c-1-1-1 0-2 1-1 2-2 3-4 3-3 0-3 0-2-2 2-2 0-4-1-2l-2 1c-1-3-3-2-2 0" fill="#d3d3d3" fill-rule="evenodd"/></svg>