<svg xmlns="http://www.w3.org/2000/svg" width="400" height="225"><path d="M0 20a121 121 0 001 23L0 65v22h3c12 1 15 2 4 2H0v6c0 4 0 6 2 7 2 2 5 3 5 1l-1-1-3-2c-2-2-3-2 6-4 3-1 6-2 8-1l8 1c5 1 5 1 4-1-2-2-1-4 3-4 2 0 2 0 2 2-1 3-1 3 6-3l12-6c5 0 5 0 5 2v2l1-2 2-1 3-1h-2c-3 0-3-1 1-4 2-3 2-3 4-2v6c-1 1-2 4-2 10l1 8-8 4-13 9-6 5-8-1-17-1c-8 0-10 0-12-4-1-2-1 23-1 54v57h401v-82l-1-82c-2 0-14-7-15-9-2-2 0-1 3 1 2 2 3 2 4 1 2-2 8-2 8 1 0 1-1 2-3 1-2 0-2 0-1 1 5 4 5 6 5-27V0H234A1796 1796 0 0066 2v2c0 4-1 4-2 0V1c1-1-13-1-31-1H0v20m0 1c0 11 1 14 1 8 0-12 0-13 3-11 2 2 2 2 1 3l-2 3c0 2 4 3 5 2l4-1 3-1 2-1c1 0 1-1-1-2l-5-1v-1l-1-2-1 1H8l-2-2c0-2 0-2-2-2-3 1-3 1-3-6L0 21m342-8l-3 2c-4 5-29 19-48 27l-15 8-6 4-4-9-7-16c-5-12-10-15-22-12-29 5-57 10-61 12-5 1-8 6-7 10l2 13 1 4 2 4c1 6 3 11 5 13l1 3a2030 2030 0 0119 56c17 53 17 52 22 55 6 3 11 3 29-1l35-9c27-6 30-8 27-17-2-7-3-7-12-4-8 2-22 4-26 3l-2 1c1 1 0 1-2 1h-2v1l2 2c4 3 3 4-1 1l-5-1c-2 1-1-1 1-2 1-1 1-1-1-1l-8 2a365 365 0 0148-13c0-2-5-11-6-10l-80 17-5 2-9-29a367 367 0 01-3-11l4 8 1-1c1 1 7-3 7-4l1-2c2 0 4 1 4 3h5l2-2v-3c1 0 2-1 2-3l3-2h3l3 1 4 1c2 0 2 0 0-1-3-1-4-2-2-3l2 1c1 2 6 0 7-3 1-2 1-2 2-1l-1 4v2c1 0 2-1 2-3l2-3 4-1c1-1 2-1 3 1l3 1-1-2c-2-2-2-3-1-3l3 2c1 3 8 2 8-1 0-1 0-2 1-1v2c0 2 0 2 1 1l3-4c2-2 2-2-4-7l-6-5-5 1a572 572 0 01-26 6c-10 3-24 1-28-3-2-4-2-6 1-7l3-1 2 1c4-2 10-4 11-3l1-2 2-1h6l9-3c5-1 6-2 7-4 0-2 1-3 2-3l2-2c0-2 0-2 1-1h1l2-1 1-1h1c1 1 11 1 15-1l13-4 26-9 12-2a560 560 0 006-2l-3-2h3c5-2 21 2 21 5v1a476 476 0 0141 15l7 2v7c1 5 1 4 1-5l-1-8v4l-6-3-11-5-5-1-2-1c-1 1-5-1-12-5l-3-1a64 64 0 01-19-10c-5-4-6-4-22-3-8 1-4-5 5-6l9-3 8-2c3 0 4 0 6-2l3-2h1l-1-1-1-1 1-1 3-1c1-2 4-2 6-1 2 2 3 1 2-1-5-5-14-7-20-5m23 9l2 3c2 2 2 2 1 3-3 2 4 9 14 15l6 3-1-2-5-4-5-3v-1h4a232 232 0 0014 10c3 0 5 2 5 8 1 6 1 6 1-3l-1-7v3l-6-5c-13-10-29-22-29-20M57 34l-2 1h-1c1 2-4 7-6 7l-1-1c1-2 0-2-1-2l-2 1h-2c-3 2-2 3 0 3l2-1 1-1 1 2c0 2-4 6-7 6l-2 1-1 2-5 2-19 5-3 1h1l3 1 3 1c2-4 11-4 11-1h2l5-1c3 0 3 0 2-1h-4c-4 0-4 0 0-2l3-1c0 2 2 1 3-1s1-2 2-1c2 2 2 2 4 0v-1c-2 0 1-4 4-5l2-3 1-1c2-1 9-7 7-7l1-2c1-2 0-3-2-1m6 18l-2 3c0 2 0 2-2 1-1-1-1-1-1 1 1 2-4 10-7 12l-3 4-7 4-8 3-11 4-8 1c-5 1-5 1 3 1l14-2c10-3 25-12 24-14-1-1 1-4 3-6 3-2 5-4 4-5h1l1-2 1-4c1-2 0-2-2-1M0 169" fill="#d3d3d3" fill-rule="evenodd"/></svg>