<svg xmlns="http://www.w3.org/2000/svg" width="400" height="225"><path d="M201 1c2 0 2 1 2 11a2687 2687 0 00-5 96c0 6-2 12-5 16l-4 7c-1 5-4 9-4 8l-3-9c-1-9-3-12-4-7a2641 2641 0 01-7 29c-2 3-1 3 17 4l15 1-7 1c-7 0-9 1-8 3l1 1c1-2 3-2 3 1l-1 1h-1c-2 2-4 1-4-1l-2 1c-2 2-9 3-9 1l-4-1c-4 0-5 0-5 3-1 4-5 9-6 9l-3 4c-1 4-1 4 1 5l2 1 2 1a1695 1695 0 00128 7c52 0 52 0 49 3a1761 1761 0 01-152-4 354 354 0 01-54-4l5-1v-1l1-4 1-4v-5l-3-7h3l1-1h-1l-1-1v-3c-2-3 1-5 7-5 6-1 8-3 2-4l-3-2c0-3-6-10-7-9-2 1-23 0-25-1l-2-16c-1-13-3-21-5-21s-5 24-3 31c1 4 0 7-1 7-2 0-6 5-6 7l1 4v4c-2 1-13 2-18 1l-12-1-8-1-2-8-1-1-1-2c-1-2-3-3-3-1l-1 1-3 4-2 6h-8l-4-9c-3-10-8-13-10-9s-5 6-6 5l-2 1-1 2c-2 0-6-6-11-16l-3-6-1 37v37h8c5 0 8 0 7-1-2-1-1-2 2-2l4 2c1 2 3 2 7 2 6 0 6 0 6-3v-4c0-2-4-4-6-2l-5 1-4 1c-1 4-11-3-11-9l-3-3c-2-2-2-2-1-3l2-2 4-2 3-3h13c4 0 6 4 6 11v6l5 1 8 1 4 2c2 3 6 3 9 0 3-1 5-2 13-2h14c5-1 11 1 12 3l1 4c1 8 5 10 16 9h7a639 639 0 0140 3 18218 18218 0 00110 10v1c-1 1 0 1 3 1 2 0 4 0 3-1l-2-1 2-1 4 1 3 1c-1 1 0 1 1 1l2 1h1l1-1 1 1c-1 1 0 2 1 2 2 1-1 1-6 1l-11 1v-1l1-3-2 1c-2 3-15 3-15 0h-3v1c1 1-1 1-8 1l-30-2A4982 4982 0 010 207a934 934 0 0188 8l98 8c20 2 30 2 118 2h96v-3l1-64-1-110V0h-48a557 557 0 00-40 2l-2 4-2 11-2 16c0 11-2 35-4 43-2 10-2 10 9-1 9-9 11-10 11-8l-2 4-4 7-5 9a497 497 0 00-23 42l-7 12-7 11 3 2c1 1 0 1-5 1h-6l2-2c6-6 8-19 7-33a2125 2125 0 01-3-119c1-1-4-1-11-1-8 0-13 0-11 1l2 1-2 18a6342 6342 0 00-7 47l-3 20-5 10c-2 2-2 2-4 1l-3-1c-2 0-3-3-4-7l-1-9-1-9c-3-10-4-23-3-30 1-8 1-21-1-32l-1-9h4l-9-1c-7 0-12 0-11 1m142 8c0 8 1 9 3 9 4 0 4-1 4-10l1-7h-8v8m26-2c1 7 1 7 6 8 5 0 6-2 6-9V1h-13l1 6m6 157c0 2 1 2 13 2 11 0 12 0 12-2s-1-2-13-2-13 0-12 2M1 218c0 4 0 4 3 4l8 1a1787 1787 0 0099 0 3125 3125 0 01-99-9c-11-2-11-2-11 4" fill="#d3d3d3" fill-rule="evenodd"/></svg>