<svg xmlns="http://www.w3.org/2000/svg" width="400" height="225"><path d="M214 1l1 10a3279 3279 0 018 91l5-1 5-1-4 2a122 122 0 00-24 8c-2-2-7 9-8 16 0 2 0 3 2 3l2 2c0 2-3 2-5 1l-13-7c-1 0 0 2 2 3l6 4 6 3c3 1 1 3-2 2l-8-3-8-2c-2 0-2 0 0 1 4 1 10 7 8 8l-6-2c-5-2-5-2-8 0s-3 3-1 11c2 9 2 10 1 10s-2-1-2-3 0-2-1-1c-3 5 1 12 8 12s5 4-3 4c-6 1-8-1-8-6 1-7 0-5-4 8-4 11-4 12-4 21l1 10h-17a948 948 0 01-72 3l-35 1-17 2-14 1H0v13h77a1391 1391 0 00123-6l3-1 8-2 10-3h6v3c0 5-3 9-5 6v-2c4-1 0-2-5 0h-5l-2 2-4 1h-12c-9 2-8 2 21 2 18 0 30 0 29-1-2-1 0-3 2-3l5-1c8-4 10-4 12 1l3 4h47l48-1-1-5c-4-20-5-23-5-34 0-10 0-14-2-18-2-7-4-17-2-17v-8c-2-1-3-8-3-16-1-7-2-13-4-16-1-2-12-7-22-9a522 522 0 01-20-4c-5-1-8-3-11-8l-2-4-2 5c-2 7-5 14-8 14-2-1-2 3 0 4v2l-1 4c-1 2-8 12-18 22l-13 15-4 6-2-4c-2-4-2-6-2-17l1-18c1-5 0-11-3-10l1-5c1-4 1-4-1-4s-2-1-2-6l-1-9-2-9c0-6 0-6 2-6l3 1c0 1 1 2 3 1 3 0 3 0 2 3 0 3 0 3 3 2 2 0 2 0 1 1l-6 2c-4 0-4 1-4 3l1 5c2 1 2 1 2-1 0-4 2-4 5-3l1 1-3 1c-2 1 0 4 3 4l4 1 3 1 2-1c1 0 2 0 1 1l1 1h1l-2 1c-8 0-11 2-12 7-2 7 4 19 9 19 1 0 2-1 1-3l-1-1-2-6c-3-6-4-10-2-10 1 0 4 2 5 5s4 3 8 0l4-2 6-6c7-8 9-9 9-4 0 3-1 6-5 10l-4 8 3-3 5-6c6-7 10-19 6-19l-1-4-1-6c-2-1-2-3-2-7 0-9 1-10 5-11s5-3 5-13c0-7-2-11-8-16-12-9-28-12-37-9-4 2-5 3-3 8 1 2 1 2 2 1h1c0 4 5 5 12 2s12-2 14 2c1 5 1 11-1 11l-1 1h2l1 1 1 2 1 4c0 3-2 4-12 3h-12l2-2c3-2 9-3 11 0h2c0-2-6-6-10-5-8 1-13 5-10 8 2 1 1 2-2 2-2 0-3 0-3-2 0-3-2-5-6-5h-3l2 2 2 2-2 1c-3 2-3 2-4 0s1-21 2-23l1-15V0h-4l-4 1a426 426 0 010 54l-3 3c-1 1-1 0-1-4l-1-11-1-14-1-13c-2-9-1-15 3-15 1-1 1-1-2-1l-5 1m15 56c-3 1-3 2-2 4 1 5 3 6 8 6 3-1 4-1 3 1 0 2 0 2 3 2l6-1c2 0 2-1 1-1l-1-3c1-1-2-8-3-8l-3 3c-1 3-6 5-5 2 1-1-3-6-4-6l-3 1m36 2l-1 1-1 1v1l-1 1c0 2-3 4-7 4-3 0-4 0-3 1l2 1-1 1c-2-2-4 2-2 4h1l2 2c1 2 2 3 3 2l2 1v3c1 2 1 2 3 0l2-3 1-1 1 2 2 1 1-1h-1v-4h3v-6c-1-3 0-7 1-7 2 0 2-5 1-5-5-1-7 0-8 1M0 110a357 357 0 006 61l41-2-2-9-7-24c1-2 3-2 12-2 13 0 16-1 14-3l-2-4c0-8-8-28-13-33-3-2-4-2-8-1l-30 1c-2 0-4 0-6-3l-4-3-1 22m186-1l-5 3c-4 2-5 4-3 7 0 1 1 2 4 1 5-1 7 0 10 3 2 1 2 1 2-3 0-5-1-8-3-9-1 0-4 2-4 4h-2c-2-1-2-1 0-3 2 0 3-2 3-3h-2M79 174a889 889 0 01-18 2c0 2 3 2 15 1h16l1 2 1 3 18-1c29 0 35-1 36-3 0-2 0-2-1-1s-25 3-46 3h-6v-3c-1-4 0-4-16-3m-52 29c-25 2-26 3-3 2 29 0 46-1 48-2H27" fill="#d3d3d3" fill-rule="evenodd"/></svg>