<svg xmlns="http://www.w3.org/2000/svg" width="400" height="225"><path d="M102 6c1 9 1 11-3 11l-5 1c-1 1-3 3-5 3-5 2-6 5-6 14 0 6 0 9 4 16 2 2 2 2 2-3l-1-10c-1-7 3-13 7-9l3 2 11-6 3-1c3 0 8 5 9 9 1 5 3 9 4 8h1l1 2-1 19c-1 4 1 8 9 11a5358 5358 0 0113 8l-6 4c-5 4-8 5-15 3-2-1-3 0-6 3l-4 5 3 3c6 6 6 7 0 16-6 10-9 12-9 7 0-3-4-9-6-12-3-3-3-6 0-11 1-2 1-2-1-6l-2-3h-7l-7-1h-1c-1 2-1 2-2 1-2-3-9-6-12-6-4 1-6 5-6 13v6l3 1c3 1 4 2 4 4l2 3v26c0 2 3 6 5 6l2 2c1 2 5-4 6-11l2-5c1 0 8 8 10 12l2 4-5 8-6 10-2 3-2-5-5-8-3-3-1 3-2 3v-5c-3 2-3 7-1 9s2 2 1 6l-1 5v5l1 5 1 6c-1 4 1 8 7 14l4 6c-1 2-3 2-3 1l-1-3-1 3c1 3 0 4-1 6l-2 3-1-4-2-3 1 4v5c1 2-4 0-5-2-1-3-5-7-4-4l2 5 1 5v2h52v-10c1-5 1-5-12-8l-12-2v-3c1-4 6-8 8-8 1 1 3 0 4-1s1-1-1-2l-5-4-3-2 6-10 7-10 6 7c7 11 7 11 11 5 3-6 8-9 15-9 4 0 7-3 6-7 0-3-1-4-2-4-1 1-1 0-2-3l-2-5-4 7c-3 6-5 8-5 6l-6-10-5-8 2-4 6-10 3-5 2 2 5 8 3 6 3-4c4-3 4-3 4-11l-2-12-3-5 3-6 5-6c3-2 3-2-1-8-5-6-4-6 2 0s12 18 21 40l6 14h18l19 1c0 1-5 7-12 13-12 13-16 20-15 26 1 4-3 9-9 10-2 0-6 1-8 3l-4 2-1 3c0 2-1 2-6 2l-5 2-8 1c-11-1-18 4-23 17l-1 2h267v-42c0-42 0-43-2-43l-2-2h1l1-7 1-3 1-57c0-52 0-55-2-55l-3-1c-2-2 0-4 3-3 2 0 2 0 2-6V0h-59l-7 4c-13 7-25 17-32 28-6 7-10 10-15 7-3-2-2-4 3-9l4-5c-1-2-13-2-48 0a472353 472353 0 00-121 8c-1-4-1-4 2-4 2 0 2 0 1-1-1-2-1-2 2-2h3l-4-1-3-2h3l3-1-1-1h-1l1-1c1-1 0-1-2-1-3 0-3 0-1-1 4-2 5-1 5 5v5h14l-1-4c0-4 1-6 4-6 1 0 5 6 5 8-1 1 0 1 3 1l8-1h3l-2-3c-1-4-2-5-3-3-1 1 0 2 1 2v2c-1 1-5 0-5-2h-1c-1 2-1 1-3-5l-3-8 1 1a1534 1534 0 010-6c-1-1-1-1 2-1 4 1 4 0 0-2-5-2-11-1-12 2l-2 2c-2 0-5-3-5-4l-2-1c-2 0-3 1-3 2 0 3-4 3-4 0l-3-2c-2 0-2 0-2 13v13c-2-1-4-7-5-11V0h-17l1 6m81 4l-7 13-1 3h6c6-1 9-2 20-2h8V0h-22l-4 10m38-7l1 11v8h10V3h3c10-2 11-1 11 11v7h4l18-2c13 0 14 0 13-2-1-3 2-3 5 0 2 2 3 3 6 2h4l5-5c3-5 6-6 10-4h5l10-6 8-4h-47l-1 4c-2 7-3 8-8 4-3-4-3-5-3-7l-27-1h-28l1 3M77 55c0 4-1 4-3 1-2-2-2-3-3-2h-2c-2-1-2-1-2 2s-3 4-5 1c-1-1-1-1-1 2-1 2 0 3 1 3l3 1-10 1-12 1c-2 2 5 53 7 53l3-9c6-17 11-23 29-32 12-6 13-8 9-13l-3-6c-1-4-3-5-4-2h-3c0 3-2 2-3-1l-1-3v3m146 27c0 2 0 2-1 1h-3l-1 1c-3 0-4 0-4 3 0 2 2 4 3 4v-1c-1-1 0-2 1-3a482 482 0 010 17l-3-1c-1-1-1 2-1 6 0 11 1 12 10 12 7 0 10 1 4 2l-3 1h3c5 1 5 1 5-6 0-3 0-5 1-4l2 3c2 2 1-8 0-14l-1-5-1-4c-3-5-2-8 1-4 2 1 2 1 2-4 0-4 0-5-2-5l-2 2h-1c-1-3-4-4-4-1 0 2 0 2-1 1 0-3-4-3-4-1M3 123l-1 7v7h44l1-8 2-6H32a390 390 0 01-29 0m187 32l-1 12c0 16 3 20 6 8l5-12c3-6 3-6 1-7l-4-1h-7m-159 7l-18 4 1 3 19 50a447 447 0 01-27-4c-1-1-1 1-1 4l1 6v-6h10c16 1 18 2 19 4 0 2 1 2 15 2h14l-1-4-2-4c-2-1-3-10-2-13s0-5-5-10c-4-3-5-5-5-7l-4-10-4-12-2-4-8 1m116 26l-5 5 4 3c3 3 11 3 11 0l3-4c3-2 3-3 2-5-3-6-8-5-15 1" fill="#d3d3d3" fill-rule="evenodd"/></svg>