<svg xmlns="http://www.w3.org/2000/svg" width="400" height="225"><path d="M143 103v11h3c3 0 3 0 3-4v-5h8v5c0 4 0 4 3 4h2V92h-2c-3 0-3 0-3 4v4h-8v-4c0-4 0-4-3-4h-3v11m23-3c0 11 2 14 10 14 7 0 9-3 9-14v-8h-6v17h-6l-1-9v-8h-6v8m23 3v11h2c3 0 3 0 3-7l1-6 2 3 3 4 3-4 3-3v6c0 7 0 7 3 7h2V92h-3c-2 0-3 1-5 4l-3 4-3-4c-2-3-3-4-5-4h-3v11m29-3c-5 14-5 14-2 14l4-2c0-2 1-2 4-2s4 1 5 2c1 2 6 3 6 1l-4-11c-3-10-3-10-7-10-3 0-3 0-6 8m20 3v11h2c3 0 3 0 3-6l1-6 3 6c4 5 5 6 7 6h3V92h-6v13l-4-7c-3-5-4-6-6-6h-3v11" fill="#d3d3d3" fill-rule="evenodd"/></svg>