<svg xmlns="http://www.w3.org/2000/svg" width="400" height="225"><path d="M146 57v3h54v-7h-54v4m98-1l1 4h48v-7h-49v3m-98 8v2h54v-5h-54v3m98 0v2h49v-5h-49v3m55 26v3h63v-7h-63v4m-148 0c-14 1-30 9-33 15-1 2-1 2 2 2h6l29-3c39-3 49-4 49-7s-4-5-10-6c-11-1-34-2-43-1m148 28v24h18c14 0 17 0 17 2l-1 1-2 2 2 2c1 0 2 2 0 2-2 1 0 4 2 4 1 0 2 0 1 2 0 2 2 3 4 2h2c0 2 4 3 4 1h2c2 1 4 0 4-2s0-2 2-2c2 1 3-1 2-3l1-2c2-1 2-4 0-5v-2c2-2 7-3 9-2s2 1 4-1h2c0 2 3 0 3-3 0-1 0-2 1-1 2 0 4-2 2-3-1-2-1-3 1-3l1-2-1-2c-2 0-3-2-1-3 2 0-1-3-3-3l-1-1c0-2-3-4-4-2h-2c-2-2-4-3-4 0l-1 1-1-12V96l-32-1h-31v23m-151-10c4 2 6 4 5 6 0 2-1 2-3-1-2-2-4-3-5-2v2c2 1 2 1 0 2-2 3-3 2-3 0 1-2 0-3-2 0v1l1 2v4l1 3c-1 1 0 1 1 1 2 0 3-1 1-3-1-1-1-1 1-1l6 1 6 2 3 1h3l-3-1c-3-1-3-3-4-8 0-5-3-9-8-9l-3-1 3 1m-53 6c-8 1-11 4-13 13-1 4-2 5-2 3 0-3-4-6-4-4l-2-1-3-2c-1 0-2 0-1-1l-1-1c-2 0-2 1-2 6l-1 4c-2 2 1 4 9 5 6 0 8 2 3 2l-4 1c-2 2-2 2 0 3s130 2 145 1c14-1 17-3 6-5l-4-3 1-2h4c4 0 9-4 8-6-1-1-6 0-6 1 0 3-3 1-3-2-2-7-8-12-16-12s-14 4-16 13l-2 3c0-2 0-2-1-1h-1l-25-1a247 247 0 00-48 4l-1-3c-2-12-9-17-20-15" fill="#d3d3d3" fill-rule="evenodd"/></svg>