<svg xmlns="http://www.w3.org/2000/svg" width="400" height="225"><path d="M160 2c0 8 18 16 35 16 4 0 5 1 9 4 5 6 7 7 23 7 13 0 14 0 20-3 4-2 6-3 5-4 0-3 2-4 13-5 22-3 36-8 42-15 1-2-1-2-36-2a675 675 0 00-16 1c14 0 19 1 20 2l2 2c1 2 1 2-1 3a314 314 0 01-105-1l-2-2h3a366 366 0 0153-4l-31-1c-34 0-34 0-34 2M0 74v19h7c16 2 31 10 45 23l10 9 3-2c9-5 16 0 16 10 0 5 0 6 2 6l6 4c3 3 3 3 3 7-1 4 0 5 1 7l2 2 1-4 1-5c0-5 3-6 11-6l8 3-6 29c0 2-1 2-5 2-5-1-5-1-5 2l-3 6c-2 1-5 6-8 11-5 9-7 11-16 16-8 4-11 7-11 10v2h57a370 370 0 0057-1c0 2 18 1 18-1l4-16c1 0-1 14-3 17l102 1h103v-11c1-20 2-18-4-18l-2-1-5-1a123 123 0 01-17-1l-4-2-6-2-1-1h-1l-3-1-2-2c-1 0-2 0-1-1l-1-1c-1 1-5-3-6-7l-3-7-2-4c0-14-7-21-23-23-7-1-4 1 4 2 13 2 16 6 17 20 0 7 0 8-1 3l-1-5v4c0 13-4 24-4 12 0-16-1-26-4-28-4-3-16-4-16-1-2 4-1-4 1-20 3-20 3-22-2-22-6-1-33-3-34-2-2 0-4 4-5 10l-1 6-29-2a1091 1091 0 0026 3c3 0 3 0 3 5-2 9-2 9-5 9a555 555 0 00-11 0c11 1 13 2 13 3s-1 2-3 2l-4 1c-1 0-2 6-1 10 1 3 1 3 2 1 1-7 4-6 3 0-1 7-2 11-2 7v-3l-1 3-2 3-2-8-3-7c-1 1-3-1-4-4 0-4-1-5-1-1 0 3-14 18-22 25-5 4-8 4-30 1-23-3-25-3-26-5-2-1 1-12 5-20a972 972 0 00-2-1c-2 5-5 5-5 1 0-6-4-2-7 7-2 4-4 5-4 3l-5-7-14-14c-29-31-74-48-102-38l-6 1 1-1c2 0 3-2 2-4l-2-3c-1-3-7-9-15-16l-7-7c0-5-1-6-3-4-1 1-1 1-5-2l-5-3v18m101-15c0 1 1 2 4 2l4 1 8 2h8l9 1c6 1 6 1 6-1 0-4 0-4-12-4l-25-3c-2 0-2 0-2 2m108 2c-1 2-1 2-4 2-5-2-5-2-6 1 0 2 1 3 3 4 3 2 9 3 8 1-2-2 3-4 5-3 1 1 3 2 4 1l2 1c-1 1 0 1 4 1l3-2c1-3-1-6-2-6l-4-1c-3-2-13-1-13 1M0 111l1 15h2c2 2 3 6 1 5-3 0-4 2-4 8 0 5 0 6 2 5l-1 2-1 16c0 13 0 13 2 13l10 2 7 2 6-9c5-10 11-18 19-26l4-5-3-5-11-14c-2-1-3-3-2-3 2-1 16 16 16 19 0 2 2 1 4-2l3-3-6-7-7-8A94 94 0 004 97l-4-1v15m271 35l-6 34c1 0 40 6 41 5a1955 1955 0 009-69l-34-3h-5l-5 33m46-20a1051 1051 0 0083 7 2022 2022 0 00-83-7m-130 10c-3 1-12 25-10 27 2 1 31 6 44 6h5l9-9c6-5 11-11 12-13 2-3 1-7-2-8-4-2-54-5-58-3M14 194v1l-4 1c-5-1-9 0-9 3l4 1 7 1c1 1 1 1-2 1l-6 1H1v15h3c5 0 11 2 13 5l4 2c2 0 5-3 5-5l7-8 3-4 2-1c4-1 2-4-6-8a65 65 0 00-16-6l-2 1" fill="#d3d3d3" fill-rule="evenodd"/></svg>