<svg xmlns="http://www.w3.org/2000/svg" width="400" height="225"><path d="M0 12c0 11 0 12 1 11l8-1 6-1c0-1-2-2-5-2l-4-1c0-2 10 0 12 2 5 4-2 10-10 9l-7-2c-1-1-1 0-1 6 0 8 0 8 9 4l7-3c2 0 6-1 8-3 3-2 3-2 5-1l4 2c3 0 3 0 2 1-1 2 0 3 4 2 3 0 4 0 3 1 0 2 0 2 2 2 3 0 4-1 4-4 0-2 1-3 10-3 8 0 9-1 9-3 0-3-1-3-15 1l-10 2c-3 0 0-1 10-4 13-4 14-5 15-10l1-10V0H0v12m77-2l1 9 2-1 18-5 9-3-11 2c-5 1-8 1-9-1s-1-2 1-2l4-1 5-3 8-3 3-2H77v10m63-8v15h4l3-2h-3c-2 0-3-1-3-3 0-3 4-5 10-3l4 2V0h-7c-6 0-7 0-8 2m19 0c0 4 1 5 4 5 4 0 8 2 8 3 0 2-2 3-2 1-2-2-6-1-8 1s-2 2-1 3v1c-3 0 0 2 4 2 3 1 4 2 5 4l1 1 3-1 4-1 3-1-3-1c-3-1-4-5-2-5a1670 1670 0 0023-5c5 0 9-1 9-4l3-2c4-2 2-3-7-3-8 0-9 0-9 2l-1 3V2c0-2 0-2-17-2-16 0-17 0-17 2m56-1h3c2 0 3 0 4 2 2 2 2 2 8 2l8-1h2c1 2 11 2 12 0V2c-1-2-38-3-37-1m64 1l1 3c2 1-4 3-13 4-8 2-12 3-12 5s2 2 11-1l11-2c5 0 9-2 9-5 1-3 2-4 4-1 1 2 1 2 6 2l8-1 4-2 3-2c0-1-2-2-8-2l-7 1c1 1-3 3-5 3l-1-2c0-1-2-2-6-2-6 0-6 0-5 2m45 3l-3 2-3 1c-3-1-25 6-28 10l-3 1c-4-2-29 11-32 15l-1 9-1 7v-7l-1-7c-1-1-37 16-35 17l-1 3-1 15 1 13 5-5 7-6 24-16 5-3 7-4 5-2 6-3 4-3 3-2 6-2 5-3c2-2 4-2 8-2 6 0 6 0 7 4 2 3 2 3 8 3l8-1 4-1c2 0 2-1 2-3l2-3c5-1 8-3 8-5s-1-1-4 1l-4 2-3 2c-3 3-8 2-9-2l-2-2v3l1 2v2l1 2h-4c-2 2-2 0-1-2 4-3 3-3-5-3-6 0-7-1-2-5s16-10 19-10c2 0 3-2 3-8-1-5-2-6-6-4m71 6c0 2-7 4-8 2l-4-1c-4 0-2 7 2 8l4-1 4-2c4 0 8-4 6-6-2-3-3-2-4 0m-52 0c-1 2-2 2-1 5 2 9 2 9 7 7l4-2 3-1 3-2c3-1 4-5 1-5l-5-1c-6-2-9-2-12-1m-218 2a734 734 0 01-46 12c3-2 14-2 14-1s12 1 19-1c5-1 7-3 2-3-6 1-4-1 2-2 8-2 13-3 13-1l-3 1-6 2c-2 1-2 1 3 1 13-2 14-2 13-6 0-3 0-4-3-4l-8 2m116 4l-10 2-4 1-7 2c-5 1-7 4-5 5l8-2 21-5c4 0 9-4 7-5s-1-1-10 2m-43 3c-5 2-4 5 1 4l4 1-7 3-1 1-1 5 17-7c0-2 0-2-2-2l-4-1-3-6-4 2m-11 11l-2 1h-5c-2-1-8 0-9 3l-4 2-1 1c0 2 11 1 18-1 7-3 8-4 7-6h-4M25 41c-1 2 0 3 6 4 5 0 6 0 5 3 0 3-4 3-4 0-1-2-7-2-8 1l-3 1c-4 0-1 2 3 3 3 0 5 1 6 3l4 2c2 0 3 0 3 2v1c3 0 5-1 5-3 0-3 5-4 6-2l7 1c5-1 7-3 3-3l-3-1-4-1c-3 0-3 0-4-3l-3-3-1-3-1-1-2-2-2-1c-5 2-8 2-8 1-2-2-4-1-5 1m285 3l-5 3-3 4c-1 3-1 3-4 2-2 0-3 0-5 2-3 3-7 4-9 2-1-2-3-2-7-2-5 0-5 0-4 1 2 2 2 3 1 3-2 0-2 3 0 4s1 7-2 8h-7l-1-2h-2c-1 9 1 10 13 9 9 0 10-1 10-2l-4-2c-4 0-7-2-6-4l7-1c6-1 7-1 5-4-1-2 0-2 4-2 3-1 4-2 5-4s1-2 6-2l1-3c0-2 1-2 7-2 6-1 8-2 4-3-3-1-1-3 3-3l3-3 2-2h-5c-4 0-5 1-7 3m59 3l-5 1-5 1 6 1c7 0 9 2 6 7-2 4-1 8 2 4l5-3c3 0 3 0 2-1-3-2-2-3 2-4 3 0 4 0 3-1s-1-1 2-2c2 0 3-1 3-2l1-1c1-1-1-1-4-1-5 0-6 0-7 2l-1 2-2-2c-2-2-8-3-8-1m-237 2c0 2-1 3-3 1h-4l-2 2-2 1-2 1h-2l-3 1h-4c-3 0-3 0-2 2v2c-1 1-1 0-1-1 0-2-5-3-7-1l-1 4c0 3-1 4-3 1-1-3-3-2-3 2v2l-2-2c-2-3-3-3-3 2 0 4-1 4-2 0-1-3-3-2-4 2l-1 3-1-3-1-5-1-1c-1-1-1 2-1 7 0 4 0 7 1 6h2l3-1c0-1 1-2 2-1l3-2h3c2 1 2 1 3-1 0-2 1-2 2-2 2 1 2 0 3-1 0-2 1-2 3-1l1-2 1-2 2 2 2 2 1-2c0-2 1-2 3-2h2l4-2c5 0 15-4 14-5l1-1c3 0 3-2 2-4-2-3-3-4-3-1m195 2c-1 1-2 2-1 3 0 1 0 2-2 2-6 0-12 6-8 8 2 1 0 3-3 3s-4 2-1 3c2 0 1 5-2 8v3c1 3 0 5-1 3l-3-2v-2c2-2 1-4-2-4l-3 1-3 2-3 1 4 2c5 1 6 4 4 6-2 0-1 5 1 5l1 1c0 1-1 2-2 1-2 0-2 0-2 4 0 5 0 5 2 5s3-1 3-4c0-4 0-4 4-4 5 0 7-2 4-4s-3-6 1-6c2-1 3-5 1-5l-2-1 4-1c5 0 12-4 8-4h-2l2-1 4-1c4-1 4-3 0-3l-3-1c-1-1 1-1 4-1 6 0 6 0 7-3l4-3c2 0 3-1 3-2l1-3c1-2 1-2-1-2s-3-1-3-3c-1-3-2-3-8-3-4 0-6 0-7 2M10 57c-2 3-1 3 3 3 8 0 9 2 1 3-4 1-6 4-3 4l4 1-3 1-3-1-4-1c-2 0-3 0-2 1l-1 2c-3 1-3 15 0 15v3c-2 1-2 1-1 3v3l-1 7c0 3 0 4 1 3 0-2 1-3 3 0 3 2 4 1 5-2s3-4 4-1c1 2 3 1 4-2 0-3 2-4 4-1 2 1 2 1 3-1v-2l1-2c1 0 3 0 4 2s3 0 3-3l1-2 3 2c1 2 3 0 3-3 0-2 1-2 3 0 2 1 4 1 4-2 0-2 2-3 4-1 0 2 2 1 2-1s3-3 4-1c2 1 2 1 3-1 0-3 1-4 3-1 2 2 3 0 3-6v-3l-1 2-2-2c-1-2-3-1-3 2-1 3-3 4-3 2s-2-4-3-3l-1 5-1 4-1-4c-2-4-4-4-4 0s-1 5-3 1c-1-3-2-3-4 1-1 2-3 3-3 1l-2-1-2 2c0 3-2 4-4 1-2-2-1-2 5-4a109 109 0 0016-7l-2-1c-3 0-4 0-3-1s0-2-2-2c-3-1-3-1-2-3 3-1 3-1-1-1-3 0-3-1-3-2 0-2-5-4-10-4-1 0-2 0-1-1l1-2c0-2-14-1-16 1m194 3l-38 24c-3 1-5 1-5-1 0-1 0-2-1-1l-1 6c0 6-2 9-3 4l-2-2v-5c-1-2-4-1-4 1l-2 1c-2 0-3 1-3 2l-3 1c-3 0-3 0-2 2l7 1h4l-3 3c-4 5-12 11-17 12-3 0-4 1-4 3 0 3-2 5-5 6l-3 1h-4l2-1c5-1 2-2-5-2-9 0-11 1-10 6 0 2 0 3 1 2l5-1c4 0 5 0 3 1-3 1-3 3 0 3 2 0 2 0-2 4-3 2-4 4-4 6s0 2-1 0c0-3 0-3-6 3-5 5-7 6-10 4l-6-1c-3-1-4-1-3-3 0-3 2-4 6-4 3 0 3 0 2-1l-6-2h-5v4c0 4-1 5-2 6s-1 1 2 3 4 3 4 5c0 3 0 3-2 2l-5-3c-2-1-2-2-1-8 0-6 0-6-2-5l-3 3-4 2c-3 0-3 0-2-1 2-3 0-2-4 1l-4 2-2 2c-1 1-1 1 1 1l3-1-3 2c-3 2-5 3-3 1 1-2 1-2-1-2l-7-1c-5-1-6 0-7 1-2 2-2 3 3 3 7 2 6 3-1 3l-20-2 4 1c5 1 8 4 5 4-1 1 0 1 2 1 4 0 6 1 4 2-1 1-6 0-11-1H5c1 0 1 1-1 2-1 2-1 2 2 2h3l4 1c8 1 9 2 8 3H0c0 1 1 2 2 1l3 1 4 1c1 0 2 0 1 1-1 3 4 3 9-1l8-4c2 0-1 2-19 15l-8 6v40h34l35-1c1-3 5-3 6-1 0 2 1 2 7 2l8-1c1-1 1-1-2-1-4 0-4 0 1-5l13-16 5-1c3 0 3 0 3-2-1-4 1-6 4-6 3 1 6-1 5-3l1-1 4-3 2-3-3 1c-2 0-3 0-3-2s1-2 3-2c3 0 8-2 5-2s-2-3 2-4l3-3c0-1 3-4 6-4v-1l1-4 1-2c1-1 1-2 2-1l2-1 2-1c2-1 3-3 0-3v-2l2-1 4-1h-1l-1-1 4-2v2c-1 3 2 4 10 4 12 0 13 1 15 5 2 3 2 4 1 5-1 2-1 2 1 4 3 3 3 3-4 2-6 0-6 0-2 1l5 1-8 1-2 1c1 3-2 4-10 4-6 0-7 0-4 1h16c-1 0 1-3 3-3l1 2c-1 3-5 4-13 4h-7l-8 1c-6 0-7 0-6-1s1-2-1-2c-2-2-1-6 2-6l2-1c-2-2-6-1-7 2l-2 4c-2 1-2 1 1 2l3 1h-4c-3 0-9 5-9 8 0 2 6 1 7 0 2-2 3-2 3 0 1 1 2 2 9 2 10 1 12 2 12 4-1 2 0 9 1 11s11-2 11-4l-3-2-4-1c0-1 2-2 11-2 26-3 31-3 36-5 5-1 7-2 7-4 2-3 1-3-2-2-2 1-4 0-4-1 0-2-3-3-14-4h-9v-5c0-5 0-5 3-6l4-2 13-2a2784 2784 0 0019 1c1 2 2 2 4 2l5 1-3 1c-4-1-4 0-4 2l-1 2c-2 0-2-1-1-3v-2c-2-3-3 1-3 7l-1 7c-2 1-3 3-1 3v1l2 1 3-5c2-5 5-7 10-7 2 0 3 0 3-2-1-3 11-2 14 1l6 2c3 1 4 1 4 6 1 7 2 8 5 8 2 0 2 0 3 3l1 3h7c20-2 28-4 26-7 0-2-7-3-11-2l-4-1c0-2-2-3-12-3h-8v-7l12-1c12-2 13-2 12-5 0-2-7-4-18-5-8 0-8 0-8 2s-2 3-3 1c-1-1 3-5 6-6 3 0 2-2-1-4-4-2 0-2 14-3 14 0 17 0 15-2-1-2 0-3 2-3l1 2v1c1 0 2-1 2-3l2-5c0-2 0-2-1 0-2 1-2 1-2-2 0-2 1-3 2-3 1-1 0-1-2-1-4 0-4 0-5 4v4h-15a94 94 0 00-19 1c-1 1-1 1-1-1v-3h-2c-2-2-26-1-27 1l-1-1v1c0 3-1 4-2 1l-2-2v1l-2 2c-1 1-1 1 1 1 3 0 4 1 2 3l-2 3c-1 2-2 2-5 2a451 451 0 00-26-5h1l1-2c0-2 0-2-1-1s-1 1-1-1c0-3 4-4 25-6l13-2 4-2-16-4c-14-1-9-5 8-6l14-2 3-2-2-1-10-3c-7 0-9-1-8-3l12-1c9-1 11-2 11-3 0-2-1-3-2-3l-5-1h-4l5-1c6-1 7-2 7-8v-5l-1-2v-2l3-2c2-1-1-3-4-3l-4 1c-3 1-3 1-3-2l-1-2-6 3-2 1c-2 0-1 7 2 11l2 2-2 5-2 5h-8l-8 1 1 2c2 0 2 0 0 4l-3 4-3 6c-1 5-2 6-2 4-1-2-1-2-2 1l-1 3h-7c-7-1-7-1-9-4-1-3-3-5-4-3-1 3-2 2-2 0 1-3 0-4-2-1-2 2-20 2-20 0l1-2v-2c-1-2-1-2 1-2l2-1 7-7 1-1 2-2 3-2 1-2 2-1 2-2 2-1 2-2 4-3 4-3 3-3 7-5c4-1 4-2 4-6l-1-4c-2 0-2-1-2-6 0-8 1-13 2-12l1-1c-1-3-3-2-10 2M70 64v10l-2 10a2146 2146 0 004-2V69l-1-4-1-1m298 22v3c0 3 0 3 3 2h11c8 0 12-2 9-4 0-1-22-2-23-1M258 99l-1 9-1 8 3 2c4 2 32 3 36 1 3-1 3-1 3-10 0-7 0-9-2-10h-38m-211 1l-6 1c-5 0-11 2-12 5l-2 2c-1-1-9 1-14 4l-8 3-5 1v6c0 5 0 5 2 5l5-2c7-1 8-1 7-2s0-2 4-3l7-4 3-2 12-4 5-2c8-2 12-9 6-9l-4 1m19 4a593 593 0 01-63 27c-3 2-3 3-3 10l1 7 1-1 3-2 4-3h5c0-2 1-2 5-2l3-1 2-1 2-2c0-1 0-2 3-2s6-3 5-5c-1-1-2-1-5 1l-8 3-6 3c-4 2-11 5-11 3l5-3c5-2 6-3 5-4 0-2 1-2 6-3 6 0 7-1 7-3s1-2 6-2c6 0 6 0 4 2-4 1-4 2 0 2h3c2-3 0-6-3-6s-3 0 1-3l6-2 12-6 13-6 3-2c0-2 1-2-6 1m292 7v3l2 6 1 4 7-1a1242 1242 0 0130-1c3 0 3-4 0-4l-2-1c-1-1 0-1 1-1 2 0 3-1 3-2h-30l-4-3c0-1-7-2-8 0m-30 18c-3 6-3 6 11 6 14 1 13 1 13-2-2-5-3-6-13-6l-9-1-2 3m28 0c-3 0-3 0-3 3l2 4c2 1 17 0 19-1 1-2-1-4-5-4l-6-2h-7m1 20l-3 2-1 1c0 2-11 1-12-1 0-2-11-3-27-3h-4v4c0 3 0 4 2 3 2 0 3 1 2 4l2 1c4 0 2 2-2 2l-6 1c-4 0-4 0-1-3l2-5v-3l-2 3-3 6c-1 1-2 4-2 12l-1 11 2 1h7c0 3 54 1 59-2 4-2-3-7-13-8s-10 0-10-7l-1-7c0-1 2-2 12-2 11-1 14-1 15-3 2-2-2-5-8-6-3 0-5-1-5-2-1-1-1-1-2 1m-124 5v3l1-1 2-1-1 2a914 914 0 0126 0c0-2 2-1 3 3 2 4 4 6 2 2v-5c-1-4 1-4-20-4l-13 1m-63 5h-11l-5 1 1 1c2 0 1 2-2 2l2 1c3 1 4 0 5-1s5-2 5 0l-2 1a1130 1130 0 0114 0 259 259 0 01-1-6l-6 1m217 0l-2 1-1 1-1 9v10l8 1 8 1 1-8-1-9-2-1 2-2 1-2c0-2-1-2-6-2l-7 1M72 183c-1 21-1 20 1 18 2-1 3-32 1-35-1-5-2 0-2 17m-34-2a8366 8366 0 00-21 5l3 1h3l12-1c9 0 15-1 15-4 1-1 0-2-6-2l-6 1m197 5l-3 1c-2 0-2 2 0 3s26 2 28 1 3-3 1-5c-3-2-24-2-26 0m-136 4v1c0 2-3 1-3 0-1-1-1 0-1 2 0 3-1 4-3 3l-1 2-2 2v2c0 2 0 2-3 2l-3 2c0 2 0 2-1 0h-2l1 3c1 1 1 1-1 3s-3 3-2 4c1 3 3 3 5 0l2-4 3-3 7-7c4-4 4-4 2-6h1c3 0 8-4 7-6h-6m23 10c-3 5-2 6 8 6h18l8 1-1-4-1-4a92 92 0 00-29-1c0-2-2-1-3 2m94 7c-2 3-1 3 1 2 4-3 5-2 5 2s0 4 11 4l14 2c7 0 7 0 6-6l-1-5h-11l-18-1c-5 0-6 0-7 2m54 2c-2 4-4 5-4 2l-1-2c-3 0-3 2-2 4 2 2 2 4 1 8 0 4 0 4 2 4l10-2c10-1 10-1 10-5 0-3 1-3 4-3 2 0 3 0 3 2 0 3 0 3 3 2 9-3 1-8-14-10l-8-2c-2-1-2-1-4 2" fill="#d3d3d3" fill-rule="evenodd"/></svg>