<svg xmlns="http://www.w3.org/2000/svg" width="400" height="225"><path d="M0 88v87l3-1c6-1 7-2 7-4s0-3 4-4 6-2 6-4c2-4 10-4 10 0 0 3 3 3 3 0l2 4 1 7h4l3-2c0-1 11-5 13-4l7-3 6-4c2 0 2-2 1-6-3-7-1-10 5-13 4-1 4-2 8-11l6-14c1-6 2-7 15-18 12-10 11-10 19-11l7-2v3c-1 3-8 9-9 8l-1 1-2 5c-4 5-6 11-4 14 5 4 6 19 3 31l-1 5-2-2-2-4c0-2 0-2-1-1-4 5-9 6-13 3-3-1-3-1-3 1l-2 2c-3 0-5 4-4 7v3c-2 2-2 2-5-2l-3-4-1-1 6 17c8 19 8 19 4 18-1 0-3-1-4-4-2-5-3-3 0 2 1 5 1 5-1 4l-8-16-4-4-1 2-2 3c-2 2-2 2-1 3 3 3-5 7-9 5-2-1-2-1 0-3 1-1 1-1-1-1l-3-1 2-1-1-1-2-2c0-3-2-3-4-1l-2 3 1 2c0 1-2 2-4 1l-1 3c1 3-2 5-3 2 0-1-1-1-1 1l-2 2 2 7c2 6 2 6 0 6l-16 6 6 2 9 2a509 509 0 0014 8c0 2-2 2-7-1-6-4-11-4-15-1-2 1-1 1-18-3l-10-2-4-1v14h85l1-3c1-5 4-10 8-12s10-1 25 3l8 2 9-2c10-2 12-2 18 3l4 4 5 2 4 3h81v-20c-1-18-1-21-4-33-4-17-4-21 1-7 6 19 6 21 6 41l1 19h149v-14l-1-11-2-8-5-18c-4-11-4-16 2-24 5-6 7-3 2 4-4 5-4 10 0 18l3 7v-4l1-89V0H167l-1 4-2 11c-2 6-4 9-6 9l1-3v-5c0-2 0-2 1-1v-1l1-3v-1h1c1 2 1 2 1-6l1-4H57l-4 3c-5 4-13 5-20 2-5-2-5-4 1-2 5 3 13 2 17 0l3-3a103 103 0 00-25 1l-1 1-1-1-14-1H0v88m156-59l-1 2-1 2-1 1v3l-4 5-8 12v1c1 0 1 1-1 1-2 1-3 4-1 4s13-14 12-16v-1l2-2 1-2c1 0 3-6 2-7l1-1 1-1c1-2 0-2-2-1m145 7v3h59v-7h-59v4m0 9v4h59v-9h-59v5m-98 4a100 100 0 00-18 12l-4 3c-2 1-1 1 0 1h3l2 3c3 2 3 5 0 21l-2 13v5h4c9-1 5 6-4 8-5 0-5 2-1 2 4 1 4 3 0 3-4 1-7 5-7 9s1 4 4 3h4c1 2 4-1 4-4l1-1h2c2-1 3-5 1-5v-3l3-1c1-1 2 0 2 1l1 1 1 1h-1l-1 1v7l-1 2 1 2c1 0 2-1 1-2l1-3v-1c-2 0-1-2 2-3 2-1 3-1 5 1l2 1-4-4-1-1v-2l2 1h2c0-1 1-1 1 1 1 1 1 1 1-1l-1-2-1-1 1-1c1 1 2 0 3-1 0-2 2-3 2-1-1 2 0 3 3 2 2-1 3-4 1-4l-1-2h1c1 1 1 1 2-1 0-2 2-3 3-3 1-1 1-1-1-3l-2-2 2-2 3-4 1-2v-3l1-2c1 1 1-1 1-4l2-1c2 0 2 0 2-2l-2-4 2-4 2-5v-2l-2 2c-3 3-4 2-2-4 2-7 1-10-4-13-8-6-13-6-22-2M68 66c0 12 0 13-2 13-7 1-10-3-14-16-1-7-2-7-8-8-4 0-4 0-3 3l7 24 3 5 10-1h13l3-1V74c0-9 0-11-2-13v-2c3-2 0-6-4-6h-3v13m175 5c-5 4-4 13 0 15 3 1 3 1 2-1 0-3 2-4 3-2l2 1v-3c0-2 0-2 3-2 2 0 2 0 1 1-2 2-2 3 0 3s2-2 2-6l-3-2-3-1-3-1c-2 0-2 0-2-2 1-2 0-3-2 0m-109 6a9895 9895 0 00-15 83l47 9 16-87 1-4-22-4c-28-4-25-4-27 3m171 0c-3 3-3 6 0 9 2 1 3 3 4 7 0 5 3 9 6 9 2 0 1-2-1-2-2-1-4-10-2-11 2-2 4 0 5 4 1 7 3 6 3-1 0-6 0-7 2-6l1 4 1 2c2 0 1-4-1-6-1-2-1-2 1-3 3-1 3-3 0-3l-1 2-1 1-1-1-1-2v-1c1-3-12-5-15-2m-66 17l1 3h37v-6h-38v3m45 20v19l-1-4-1 1c1 1 0 2-1 2-2 0-2 1-2 3l-1 2c-1 1 0 1 2 1h1l-2 3-1 4c-2 3 2 6 6 6 3 0 4 0 4 2 1 4 2 7 4 6h3c2 0-1-36-4-43-1-3-5-4-7-2m53 2a315 315 0 004 37c0 6-4 10-10 11-9 2-10 2-3 2 13-1 14-2 16-8 2-5 0-28-4-40-1-5-3-7-3-2m-152 22c-1 2-6 3-6 1-3-3-7 2-6 6 1 3 1 3 3 2 3-2 4-2 6-1 1 1 2 1 3-1h2c0 2 1 2 2 1 2-2 1-4-1-7-1-2-2-2-3-1M7 199c-5 0-6 2-6 5 0 2 0 2 1 1h2l2 1h5l6 1c1-1-2-8-3-7l-1-1H7" fill="#d3d3d3" fill-rule="evenodd"/></svg>