<svg xmlns="http://www.w3.org/2000/svg" width="400" height="225"><path d="M228 5c-5 4-8 8-12 17-3 6-3 6-4 4s-8-7-10-7l-3-1c-3-1-14 1-13 2l-2 1c-4 0-9 10-9 19 0 5 2 13 5 17 2 2 2 2 2-4 0-9 0-10 5-9 3 1 4 1 6-2 3-2 8-4 14-4 2 0 5 5 7 10l1 1 1 2c1 1 1 1 2-1v-3l-1 1c-1 1-1 0-1-3l-1-7c-1-6 0-7 1-8 1 0 2 0 2 2h1l2-1 2-1c0-1 10-8 12-8l2 4c2 3 3 4 5 3l5 2c2 3 4 3 4 1l2-4 1-3v-2c2-1 7 2 8 5l1 4c2 1 1-3-1-7l-2-6c0-4-8-12-14-13-8-3-14-3-18-1M116 18l-4 2c-2 0-8 6-9 9-1 9 0 19 3 20 2 1 3 3 2 5h-3c-2-2-2-2-4 5l-2 11 2-6 2-5-1 5 1 7 2 6c2 6 6 9 12 8 2-1 3-1 2 1l1 1v2l-1 1v3c-2 4-2 5 0 4l4-5 2-4c1 0 5-4 9-10l6-8c3-2 4-7 1-8-2 0-3 0-2 3 0 1 0 2-2 2-3 0-7-3-6-4l-2-1-7 1-6 1c-2 1-7-3-7-6l2-2c3 0 5-3 8-8l2-5 8 1c8 0 15-1 16-3l1-2c1-4 1-8-1-9l-2-2c0-3-7-9-10-10-5-3-13-2-17 0m117 20l-6 3-5 3c-4-2-3 2 0 4 3 1 4 2 5 5 2 4 4 5 2 1l-1-5-1-3h4c4 1 6 0 7-1 2-1 2-2 1-2v-2c1-2 0-4-2-4l-4 1m27 11c-3 2-5 3-9 0h-6l-6 1c-1 0-2 0-1 1l-3 4-4 3 3 1c6 4 10 8 10 11 0 4 4 12 4 10 1-1 1-2 2-1v-2c0-3 2-4 4-2s9 3 12 2l2-2 1-2 4-8-4-1c-4 1-4 1-4-2 0-7-1-10-2-12l-2-3-1 2m-137 5l3 2c2 0 2 0 1 1-2 1 4 1 9-1l2 1c0 1 1 2 3 2l2-1 2-3c2-3 1-4-3-2h-7c-6-2-12-1-12 1m82 6l2 1 1 1h-13c-1-1-2 0-3 1l-5 1-3 1-1 1c0-1-7 2-9 4l-2 6c0 3 0 3 1 1l2-2v4c2-1 4 2 3 4l-3-2-2-2 1 2c0 4-7 7-10 4h-2l-2 1 3 6 5 5c0 2 3 1 3 0l-3-5c-3-3-3-3-1-3l4-1c2-2 7-3 7-1v1l1-2c0-1 0-2 1-1 0 2 2 1 2-1 1-1 1 0 1 3 0 6-2 10-2 4 0-2 0-4-1-3l-1 1-1 2-1 1-2 1-2 3c-1 1 0 1 1 1l4-2h1l1 1c3-1 6 2 7 7 0 4 1 5 2 5 2 1 2 1 1 2v3c2 3 3 8 2 10l-2 1h-3l-2 2c-3 0-4-1-2-2 2-2 1-4-2-5h-2l3-4c3-4 4-6 2-6-1 0-2 0-2-2-2-2-3-1-6 4-2 4-7 6-6 2l-1-2-1-1 2-2 1-2-1-3-1 1c-1 2-1 2-3 2l-4-1v-1l-1-1c-1 1-7-5-7-6 0-2-2-1-2 1-1 2-13 1-17-2h-8c-2 2-1 4 2 5s6 6 6 10h-5c-1 2-1 2-3 0l-4-3h-2l2 2c4 3 1 5-4 3-6-2-6-2-5 0 0 2-5 5-10 5-4 0-24 7-24 8l5 1c7 0 4 1-5 2-11 1-12 1-11 6l2 4c0 1 4 0 7-2 4-4 4-5 1-5l-2-1 6-1 8-1c3-3 19-3 17-1v2c1 1-3 8-5 8h-1l-1 4-3 2c-1 1-1 1-3-1l-2-2-2 5-4 5v1l-2 2c-1 1-1 0-1-3l1-4-2 3c-2 5-6 6-5 2 2-4 2-5 1-6l-3 4c-2 4-5 5-5 3l-2-2c-2-1-3-4-1-7s0-9-4-9l1 2c3 2 3 8 0 6h-6l2 2c2 0 3 2 1 2s-4-3-5-7c-2-5-4-7-4-2l1 3 1 3H42c-2 1-4 0-4-3 0-2-1-2-2 2l-1 4h9l10 1c3 1 2 2-1 2s-4 1-4 4v3h-8c-10 0-11 1-9 14l2 13 1 13c0 9 1 20 3 26a4023 4023 0 00137 2l-5-6c-2 2 0-3 2-6 3-3 6-6 14-10 12-6 17-7 23-3l3 3v8l-2 11v3h82l-3-9c-3-9-4-12-4-9l-2 2h-3v-28h3c2 0 2 0 2 10 0 8 0 9 2 9 1 0 2-2 2-14v-14h6v13l1 12c2 0 3-2 3-8 0-10 0-10 3-10 2 0 2 0 2 9 0 5 0 6 2 6s2-1 2-10v-11h3c2 0 2 0 2 5l1 4v1l-1 5 1 5h13v-17c0-9 0-9 3-9 2 0 2 1 2 20 0 6 0 7 2 7 2 1 2 0 2-16v-16h6v17l1 18c3 1 3 0 3-12 0-9 0-11-2-11v-1c2 0 2-1 2-3 0-4 0-4 3-4h2v43h-2c-3 0-3 0-3-4 0-7-1-4-4 8l-2 12h45l-1-5c0-3 0-3-1-1-2 2-4 4-6 4s-2 0-2-3c1-4 2-11 2-26l2-11v-38l-1-3-3 10c-3 8-3 9-5 8-2 0-3 1-1 3 4 2 0 8-5 8l-3-1v11l-1 19c0 9 0 9-2 9h-3v-19a756 756 0 01-2-26c-2-1-2-1-1-2 2 0 0-2-3-2-2 0-2 0-1-1s1-1-1-1l-3-2c0-1 5-4 8-3 2 0 3-1 0-3-1-2-1-2 1-4l2-4c0-3 0-3-1-1 0 3-2 5-4 5-3 0-5-3-5-5v-2l-1 3c0 2-1 2-2 1l-4-2h-2c-3-4-8-3-9 2-1 1-1 1-1-1l1-4c1-1 1-1-2-1s-3 0-1-2c1-1 1-1-1-1-3 1-4-1-2-2l1-2h-1l-2 3h-3l-3 1c-2 2-3 1-3-1v-3l-1-2c0-1 1-2 5-1 3 0 5 0 7-2 4-2 3-3-1-1l-3 2c-2 0 0-3 2-5s2-2 0-2c-3 1-4-1-1-3v-2c-2 1-2-1-1-4v-1l-1-3v-4c-2 0-1-3 0-2l2-2v-3c-2 0-4 4-7 11-1 4-3 6-3 5h-10l-2-1c-2 0-2 0 1-3 3-2 3-2-3 0l-5 4-5 2-8 1-5 1-13 2-11 2c-4 0 0 3 5 4h6l2 9 1 8 2-4c1-3 1-4-1-6v-3l-1-2c-1-2-1-2 2-2l3 1h2c3-2 9-1 7 2l2-1 7-3 9-2c6-2 8-1 5 2-4 2-3 3 0 1 2-1 2-1 2 1-1 2-1 3-5 3-8 0-8 0-8 7l-3 7-2 3-2-8-1-6v-1l-9-1c-2 0-3 1-3 3s1 3 3 3l3 1 2 1 2 1c1 2-3 3-7 2-2 0-2 0-1 1 2 2 1 3-1 3-1-1-1-1-1 2 1 4-1 3-3-1l-2-1h-1l-4 2c-2 3-2 3-3 1-1-3-19-10-25-10-2 0-2 0-1-1l6 1c8 2 9 1 8-1l-1-4v-3c0-2-1-3-3-1h-1l2-2c1-1 2-2 1-3 0-1 0-2 2-1l2-1-4-1-4-1c0-2 1-2 3-1 3 0 3 0 2-1-2-1-3-2-5-1-3 0-3 0-1-1 1-2 1-2-5-2l-8-1-16-1-4-1h-3l-1 1c0-2 4-7 4-5 0 1 1 2 6 1l11 1c6 1 8 0 8-1 0-2-7-3-14-3-11-1-10-5 1-5 4 0 4 0 3-3-1-2-2-2-8-1l-7 1c-2 1-11-6-10-8-1 1-2 0-2-2v-3l4 3c5 3 14 3 18-2 4-4 5-3 5 4 0 5 0 6 2 6 1 0 2 0 1 1l3 4 4 1a677 677 0 003-16l2-3c2-3 2-3-1-7l-6-5-6-3c-3-1-4-1-4 2s-2 1-2-1 0-2-1-1l-2 3-2 4c1 2-2 5-7 6-4 0-4 0-6-4-3-4-2-6 1-4l2 4h6v-2l5-5 4-5c-3-2-8-3-8-2M96 84c0 4 1 6 2 7l2 6c0 4 2 13 4 15 2 3 4-4 2-8l-2-9-2-8-2-2-2-3-2-2v4m106 31l-4 1-2 1 4 3c3 4 3 4 1 7v16l-2 9-2 3c-2 2-2 2 0 3v1l-3 1 12-1h-2l-3-1 1-3 1 1 4-2c3-3 4-2 1 1v3l2-2c0-1 1-2 2-1l2 1v9l1 13v13h5v-14l1-15v-1l-1-2h4v32h5v-34c1-7 0-9-3-9l-5-1-7-4-5-4c-7-7-9-11-5-13l4-2 2-2-2-2c-2-2-1-2 10-1 14 0 20-1 15-3h-28l1-2c1-1 1-1-1-1l-3 2m-65 0l1 1c1 1-1 1-4 1-6 0-10 2-10 5-1 3 0 4 2 2l10-2-7 2-2 2-5 1-10 1 7 1c7-1 8-1 10 1l4 2c3 0 5 4 3 7-1 2 0 6 2 6h36v-6h-18l3-6c3-5 4-6 4-4s1 3 2 1v-3l-2-2c0-3 0-3-7-4-2-1-2 0-2 2 0 3-3 9-3 6 0-2-2-1-2 1 0 1 0 2 2 1l1 2-1 4c0 4-7 3-10-1s-4-6-1-6c2-1 2-1 2 1-1 3 0 3 3 1 5-3 4-9-1-10l-3-1v-2l7-3-2-1h-9M17 129c-3 3-2 11 2 11 2 0 1-2-1-2-3-1-2-3 2-4 5-1 5-1 6 2s4 4 4 2c0-4-1-8-3-9-4-2-8-2-10 0m245 26v3h38v-7h-19l-19 1v3m-113 7v18c0 11 0 11 3 11 2 0 2 0 2-12 1-20 0-23-3-23-2 0-2 0-2 6m107 0c-3 4-4 9-1 11l2 3h1c2-3 3 2 3 17v16h2c3 0 3 0 3-16l2-16-4-4 1-3 1-5v-1c1-1 0-1-1-1l-5-1c-1-2-2-1-4 0m-50 0l-1 18v11h5v-15c0-14 0-15-2-15l-2 1m64 9v11l1 17v10h5v-42h-3c-3 0-3 0-3 4m-194 3v10c0 2 0 3-2 3h-2l-2-1h-3v10c0 10 0 10 2 10s3-1 3-4v-3l2 4 2 7c0 1 1 2 3 2l25 3h5l1-10a152 152 0 000-23c0-3-1-3-3-2-4 1-4 1-3 3 0 2 0 2-2 2l-2-1-2-1-3 1-2 1c-1 0-2-1-2-4-1-4-5-6-5-2 0 6-1 7-2 7-3 0-3-1-3-13 0-5 0-5-2-5-3 0-3 0-3 6m82 6v11h3c2 0 2 0 2-8l1-9c2 0-1-4-4-4-2-1-2-1-2 10m20-10l-1 13c0 8 0 8 3 8h2v-21l-2-1-2 1m9 10c0 11 0 11 3 11 2 0 2 0 2-10v-11h-5v10m9 0c0 11 0 11 3 11 2 0 2 0 2-11l1-10h-6v10m-82-6v17c0 15 0 15 2 15s3-1 3-17v-17h-2c-2 0-3 1-3 2m-57 16c0 15 1 15 3 16 2 0 2 0 2-13l1-12v-1l-1-3c0-1-1-2-3-2h-2v15m-9-7v13c0 10 0 10 2 10s3-1 3-12c1-14 1-14-3-14-1 0-2 1-2 3m-10 13v10h6v-20h-6v10" fill="#d3d3d3" fill-rule="evenodd"/></svg>