<svg xmlns="http://www.w3.org/2000/svg" width="400" height="225"><path d="M75 1l12 37c14 42 14 40 2 44l-9 3-24 9c-2 2-15 7-18 7-5 0-6-2-22-51L0 3v222h39l13-5 13-6 3 6c1 4 2 5 4 5l2-1-11-33c-12-37-12-36-2-39l5-2 2 2c2 3 3 3 19-2 19-5 19-5 19-9l3-3h6c-1 2 0 2 3 0 3 0 3 0 18 45 12 36 14 42 16 42s2-1-4-17l-6-18 14-2 17-3h4l3 8c3 10 5 13 9 15 5 2 8 2 62-19l9-6c3-3 4-3 10-3 10 0 35 3 36 4l8 21c6 19 7 20 9 20h3l-11-32-11-34c0-4 3-7 8-8s5-1 7 1l2 2 17-4c17-5 19-6 19-9s7-6 11-5c3 1 4 3 19 47l14 42V114L400 1a488 488 0 01-62 15c-3 0-3 0-6-7-2-7-3-9-5-9s-1 2 14 47c8 22 9 29 7 29-2-1-6 1-6 2h6l-3 1c-7 4-55 22-58 21-4-1-4-2-20-48-18-57-17-52-20-52h-3l2 5 5 14 3 8h-19c-18 0-20 0-24-2A371 371 0 0193 4C80 0 74-1 75 1m-4 17l-5 3h-2c-3-1-10 2-10 4s0 2-1 1h-6c-5 1-5 1-3 4v2l-1 2c0 2 0 2-1-1-2-4-4-4-11-1l-4 1-11 4 3 12 12-5 1-1 6-1c4-1 5-1 5-4 0-2 0-2 1 0l2 2 5-2 5-3c0-2 0-2 1-1h4l5-1 2-3 1-1 1 2 11-3-5-12-5 2m128 11c-2 1-3 2-3 4 0 3 0 3-23 9-15 5-15 5-17 2-3-2-3-2-8-1-3 1-4 1-3 2h5l-2 2c-2 1-3 1-4-1h-2c-3 4-2 8 3 25a75849 75849 0 0145 132l5 2 18-6a197 197 0 0136-14c6-2 8-3 9-6l2-4-24-72-24-73h-4l-3 1 1-2h-7" fill="#d3d3d3" fill-rule="evenodd"/></svg>