<svg xmlns="http://www.w3.org/2000/svg" width="400" height="225"><path d="M16 1l7 40c0 2-2 1-10-3L1 33l-1 87v88l12-5 22-10c12-5 13-5 13 1l1 10 3 14c1 6 1 7 3 7h3l-6-36c-7-42-7-42 4-44 4 0 4 0 6 2l3 3 17-2c19-3 19-3 19-6s1-3 7-4c3 0 5 0 4 1-3 1-2 2 1 2 2-1 3-1 4 2a2372 2372 0 0115 82c2 0 2 0 1-12a3240 3240 0 01-8-46v-3l12-2 29-4 3 17c4 27 2 26 43 20 41-5 40-5 38-26-3-15-3-14 3-14l38 4c3 1 4 1 4 6a315 315 0 008 43c3 18 3 17 5 17 3 0 3 4-4-35l-6-37c0-6 12-10 15-5l3 2 16-2c20-4 20-4 20-7 1-5 14-5 16 1l8 40c8 47 7 43 9 43s3 2-1-18c-4-21-4-26-3-26l10 4 10 4v9a2193 2193 0 000-163c0 4 0 4-9 7l-34 13-4-19c-6-37-6-36-8-36-3 0-3-3 7 53 4 23 5 30 3 32l-1-1h-3l-3 1h3c3 0 3 0 2 1l-60 12c-6 0-6-1-14-48l-9-47c0-2-1-3-3-3l-2 1c2 4 13 72 12 73s-25 4-34 4l-6 1-1-4-3-20c-4-26-4-26-26-24-32 5-49 7-51 9-3 2-5 7-5 11a145 145 0 013 20v6h-7l-36-7A6694 6694 0 0196 0h-2a6373 6373 0 0012 80c0 5-3 8-12 9-22 3-30 4-33 6-8 2-19 3-21 2-4-2-4-5-11-48C21-5 22 0 18 0l-2 1m71 21l-4 1v11l-1-6c-1-4-1-5-3-5l-6 1-4 3h-1c0-2-1-2-4-1-4 0-8 2-6 2v4l-1 3 1 4 5-1c4 0 6-1 7-2h10l3-2h7l6-1-1-4c0-8 0-8-8-7m-39 6c-5 1-5 1-5 4v4l-1-3c0-3 0-3-6-3l-6 2c-1 1 1 12 2 11h6c5-1 5-1 5-4s0-3 1-1c0 3 0 3 5 3l6-1c1 0 1-11-1-12h-6m166 7c-2 0-4 1-4 3 0 3-1 3-19 6l-17 2-3-3c-2-2-2-2-6-2-7 1-9 4-9 9 0 11 19 141 21 143s8 3 17 1 29-5 30-4l17-3c5-2 5-2-5-76-11-81-10-76-14-74-2 1-4 0-1-2h-7m0 54h-6c-10-1-11 1-10 12 0 7 1 8 3 8l2 1c0 2 12 1 16-1 4-3 7-4 10-4 3-1 3-1 3-7-1-6-2-7-3-6l-5 2c-4 1-4 1-6-1l-2-1v-1l-1-2h-1m3 40c0 4 0 5-2 5l-2 2h-1c-2-2-4-2-7 0-2 2-2 2 0 5 4 3 8 2 9-2s6-6 6-3a794 794 0 0110-3l2-1-2-2h-5c0 2-3 3-5 2l-1-4v-3c-2 0-2 1-2 4m3 24c-7 3-9 7-3 7l2 1c-1 2 0 1 2-1h3c2 1 5-2 4-4 0-2 0-2 1 0v7c2 1 0 2-4 2h-5c-2 1-8 0-7-1l-3-1c-1 0-2 0-1 1v4l-1-1c-1-1-1 0-1 1 0 2 3 6 5 6l2-2 2-2 2 2c3 3 5 3 6 0l3-2c3 0 6-2 4-2l-1-1h1c3 3 10 1 10-3l-5-1c-4 0-4 0-5-9-1-2-6-2-11-1" fill="#d3d3d3" fill-rule="evenodd"/></svg>