<svg xmlns="http://www.w3.org/2000/svg" width="400" height="225"><path d="M0 113v112h5V0H0v113m7 0v112h393V0H7v113m246-25c-17 5-23 26-10 39 10 9 24 8 33-2 12-13 5-34-13-37-3-1-3-1-3 2l-1 3-1-3c0-3-1-3-5-2M44 110v22h15v-7l1-6c1 1 2 3 2 7v6h15V89H62v6l-1 6c-2 0-2-1-2-6v-7H44v22m55-17l-7 16-5 10h6c7 0 6 2-1 2l-6 1-3 5-2 5h20l20-1-20-43-2 5m18-4c-2 1-1 18 1 22s8 8 13 8h3v13h15V88h-15v14l-1-7v-6l-8-1-8 1m49 14l-7 15 5 1 5 1-6 1h-5l-2 5-3 5 20 1 20-1-20-43-7 15m50-11l-17 38c-1 2 0 2 9 2h10v-5l1-4v9h10c9 0 9 0 8-2 0-3-18-41-19-42l-2 4" fill="#d3d3d3" fill-rule="evenodd"/></svg>