<svg xmlns="http://www.w3.org/2000/svg" width="400" height="225"><path d="M0 113v112h401V0H0v113m276-14c-13 6-14 22-3 30 3 2 11 4 16 3 14-3 18-23 6-32-4-3-15-4-19-1M95 115v16h9v-7l1-6h12v13h8V98h-8v13h-13V98h-9v17m40-1l-6 16 4 1c4 0 5 0 6-3s1-3 7-3c5 0 6 1 7 3 1 3 2 3 6 3h4a295 295 0 00-10-28l-2-5h-10l-6 16m26-9c2 10 5 14 15 14h5v12h9V98h-9v14h-3c-6 0-8-3-8-9v-5h-9v7m45-6a247 247 0 00-11 27l-2 5h5c4 0 5 0 6-3s1-3 6-3c6 0 6 0 8 3 1 3 2 3 6 3h4l-3-8-6-17-3-8h-5l-5 1m29 10c0 11-1 15-4 15l-1 4c0 3 0 3 3 3 8 0 9-2 10-16l1-10h8v26h9V98h-26v11m44-2c-6 2-6 10-1 15 4 3 8 3 12-1 8-8-1-20-11-14" fill="#d3d3d3" fill-rule="evenodd"/></svg>