<svg xmlns="http://www.w3.org/2000/svg" width="400" height="225"><path d="M0 113v112h401V0H0v113m274-83c-20 0-24 1-21 2a301 301 0 0047-1l-2-2-24 1m22 8l-5 1c-3 0-3 0-3 2l1 5c0 2 0 2 9 2h8v-4c0-5 0-5-3-5l-3-1-2-1-2 1M51 56c-7 5 0 16 8 13 5-2 7-8 3-12-2-3-7-4-11-1m15 3c0 7 2 10 7 10 4 0 6-3 6-10 0-4 0-5-2-5s-2 1-2 6-1 6-2 6c-2 0-3-1-3-6s0-6-2-6-2 1-2 5m23-2c-4 5-1 12 6 12 4 0 7-3 7-5s-3-1-5 1c-3 2-7-1-5-5 0-2 4-3 6-1l2 1c3 0 3-1 0-4s-8-3-11 1m16 5c0 6 0 7 2 7l2-2 1-2 2 2 4 2c2 0 2 0 0-3v-3c3-4 0-9-7-9h-4v8m15 0v7h4l5-1c1-2 0-2-2-2l-3-1c0-1 1-2 3-2 1 0 2 0 2-2l-3-1-2-1 3-1 2-2c0-2-1-2-4-2h-5v8m14-1l-3 7h5l3-1 3 1h4l-8-14-4 7m25 1v7h5l5-1c0-1-1-2-3-2l-3-1c0-1 1-2 3-2 1 0 2 0 2-2l-3-1-2-1 3-1 2-2c0-2-1-2-4-2h-5v8M64 76c-4 2-2 8 3 8l3 1-4 1h-4c0 4 7 5 10 2 4-3 2-7-3-7-2 0-4-2-3-3l3 1c3 1 4 1 4-1l-3-3c-3-1-3-1-6 1m28 0c-4 2-2 8 3 8l3 1-4 1h-4c0 4 7 5 10 2 4-3 2-7-3-7-2 0-4-2-3-3l3 1c3 1 4 1 4-1l-3-3c-3-1-3-1-6 1m48 2l-4 3-2-3c-4-5-5-4-5 5 0 7 0 7 2 7s2-1 2-3c0-3 1-4 3-2h2c2-1 2-1 2 2 0 2 0 3 2 3s2-1 2-8v-8l-4 4m9-2c-3 2-2 6 2 8 5 1 5 2 0 2h-4c0 4 7 5 10 2 4-3 2-7-3-7-2 0-4-2-3-3l4 1c3 1 5 0 3-2-2-3-6-3-9-1m-33 6l1 8h4c4 0 5 0 5-2l-2-2-3-1 3-1 2-2-2-2-3-1 3-1 2-1c0-2-1-2-5-2h-5v7m145-2l-1 8v8h-13l-12 1v10h25v18h67v-22c0-20 0-23-2-23h-64M36 114c0 6 0 7 2 7s2-1 2-4v-3l4 3c5 5 5 5 5-3 0-7 0-8-2-8s-2 1-2 4v3l-4-3c-5-5-5-5-5 4m16 0v7h5c5 0 7-3 2-3-3-1-4-3-1-3 2 0 3-1 3-2 0-2-1-2-2-2h-2l2-2c5 0 4-3-2-3h-5v8m13 0v7h5l5-1c0-1-1-2-3-2l-3-1c0-1 1-2 3-2 3 0 3-3-1-4-3 0-2-2 2-2l2-1c0-2-1-2-5-2h-5v8m13 0v7h4c4 0 5 0 7-3 4-5 1-12-7-12h-4v8m35-6l-2 6 2 5 6 2 5-2 2-5-2-6-5-2-6 2m23 5l-3 7h5l3-1 3 1 2 1h2l-7-15-5 7m14 1v7h4c6 0 9-3 9-8 0-4-4-7-9-7h-4v8m16 0v7h4c4 0 5 0 7-3 4-5 1-12-7-12h-4v8M36 134c0 7 0 8 2 8l1-3c0-3 1-4 3-2h2c2-1 2-1 2 2l2 3c2 0 2-1 2-8v-8l-4 3-3 4-4-4-3-3v8m21-7c-7 3-4 15 4 15 7 0 10-10 4-14-3-2-4-2-8-1m49 1c-4 2-2 8 4 8l2 1-4 1c-4-1-5 0-2 2 2 3 6 2 8 0 3-3 2-6-3-7l-3-2 4-1c4 1 4 1 3-1-2-3-5-4-9-1m69-1c-6 2-7 9-2 13 3 2 6 3 9 0 3-1 3-4 0-4l-2 1-3 1c-2 0-3-1-3-4 0-4 2-5 5-3l3 1c3 0 2-3-2-5h-5m26 1l-2 3c0 2 4 5 6 5l2 1-4 1c-4-1-5 0-2 2 3 4 10 2 10-2 0-3-2-5-5-5l-3-2 4-1c4 1 4 1 3-1-2-3-6-4-9-1m-130 6c0 6 1 8 2 8 2 0 2-1 2-2 0-4 1-4 3 0l4 2c2 0 2 0 0-3v-11l-6-1h-5v7m15 1v7h5c4 0 5 0 5-2s-1-2-3-2l-3-1 3-1 2-2-2-2-3-1 3-1 3-1c0-2-1-2-5-2h-5v8m33 0v7h5c3 0 4 0 4-2l-2-2c-4 0-4-2-1-2 4-1 4-4 1-4l-3-1 3-1 2-1c0-2-1-2-4-2h-5v8m13 0c0 6 0 7 2 7l2-3c0-3 1-3 3 1l3 2c2 0 2 0 1-2v-4l-1-8-6-1h-4v8m55-1l1 8h4c4 0 5 0 5-2s-1-2-3-2l-3-1 3-1 2-2-2-2-3-1 3-1 3-1c0-2-1-2-5-2h-5v7m43 1l-3 5c-4 4-4 6-4 12 0 3 3 7 5 8l3 2 6 1 6 2c2 2 3 1 2-1s0-3 2-6c8-9 0-25-13-23h-4m30 27c0 23 0 26 2 26h63c2 0 2-3 2-26v-25h-67v25" fill="#d3d3d3" fill-rule="evenodd"/></svg>