<svg xmlns="http://www.w3.org/2000/svg" width="400" height="225"><path d="M197 55l1 6 1-2 2-3c1-1 1-1 1 2 0 2 0 3 2 3l1-3c0-4 3-4 3 0 1 5 3 3 4-3 0-6-1-8-4-4-1 1-2 2-3 1-1 0-3 0-4 2-2 1-2 1-2-2l-1-3-1 6m-6 11c0 2 1 2 13 2s13 0 13-2-1-2-13-2-13 0-13 2m-38 8l1 7 5 1c6 1 7 1 8-1s1-3-1-5l-2-4c0-4-2-5-7-5h-4v7m80 8c0 2 1 2 13 2s13 0 13-2-1-2-13-2-13 0-13 2m32 16v8c1 7 0 8-6 8-1 0-2 0-2 2 0 1 2 2 7 2l7 1h2l4-1c4 0 6-1 6-3s-1-2-4-2h-4V97h-4l-6 1m-131 1v9l1 7h-5c-3 0-4 0-4 2s1 2 5 2l6 1h1l7-1c6 0 7 0 7-2s-1-2-4-2h-4v-8l-1-8c-2-2-8-1-9 0m-13 30l-3 1-1 1h-1l-3 2v2l-1 1c-1 1 0 4 2 3l1 1-1 1c-1-1-1 0 0 0 0 3 3 4 5 3h2l3 2c2 0 2-1 2-4 0-7 3-5 7 4l4 8-7 1c-4 0-5 1-5 2 0 3 29 3 30 0 0-2-1-2-4-2-5 0-7-1-4-2s3-3-2-12-4-9-10-5c-4 2-5 2-6 1v-2c2 0 1-3-1-3l-2-1h2c2-1 2-1 0-3-2-1-4-1-7 1m41 4v38h-9l-9 1-2 1c-5 0-6 4-2 8 10 9 10 11 4 11a1745 1745 0 008-1c-1 0-2-1-2-3v-3l11 1h86v-53l-42-1-43 1m-26 4l-4 2 3 6 3 7 8-4-6-13-4 2m48-1h-19v46h80v-46h-61m79 7c-4 6-5 8-3 8l1 1-1 1c-3-1-6 0-6 2s1 2 4 2l4 1v1l1-1 9-1c7 0 8 0 8-2l-2-2h-4l-3-1h-3l3-5c4-6 4-5 0-8-5-3-4-3-8 4m-61 0c-16 4-13 26 3 26 15 0 18-22 3-26l-4-1-2 1m-3 3c-9 4-7 18 3 21 13 4 20-16 7-22-4-1-6-1-10 1m-1 3c-9 9 4 23 13 14 5-4 5-10 0-14-4-4-9-4-13 0m-9 27v2h16l15-1-1-1-1-2-9-1-9 1h-1l-5-1c-4 0-5 1-5 3" fill="#d3d3d3" fill-rule="evenodd"/></svg>