<svg xmlns="http://www.w3.org/2000/svg" width="400" height="225"><path d="M0 113v112h401V0H0v113m132-74l-3 2c-2 0-2 1-2 3l-1 3c-2 0-1 3 1 3l1 3c0 3 0 3 2 2 2 0 3 0 4 2h3c0-2 2-3 3-3l1-2 2-4v-3c-2 0-2-2-2-3 0-2 0-2-2-2h-4c0-2-3-2-3-1m-12 24l-9 5c-5 3-6 3-10 2-18-5-37 7-40 25l-3 6h-2l-1-1-1 2-1 1c-2 0-10 8-11 12l-3 6c-1 3 2 15 5 19 5 6 13 10 21 10l8 1h1c0-2 19-1 19 0h1c0-1 23-2 23 0h1l27-1h26l4-3c18-12 10-41-11-41h-4l1-3c2-5 1-17-2-22-6-14-26-23-39-18m105 15c-8 3-6 14 2 14 4 0 7-3 7-7 0-5-5-9-9-7m12 7c0 6 0 7 2 7l2-2 2-2 5-2c2-5-1-8-7-8h-4v7m34 0c0 6 0 7 2 7 1 0 2-1 2-3s0-2 2-1h3c1-1 1-1 1 1s1 3 2 3c2 0 2-1 2-7 0-8 0-8-4-4l-3 2-3-2c-4-4-4-4-4 4m38 0v7h5l4-1-2-2-3-1c0-1 1-2 3-2l2-1-2-2-3-1 3-1 2-1c0-2-1-2-4-2h-5v7m-127 3v1l-1 1c-2-1-4 3-2 4v1h-1c-1-1-1-1-1 1 0 3 2 7 3 6l1 1v1h1c-1 1 4 3 7 2 3 0 3 0 2-1s-1-1 1-1c3 1 5-2 5-7s-2-9-4-9v11h-1v1c0 2 0 2-1 1h-1v2l-2 1h-3l-1 1v-1l1-2h-1v-1c0-2 0-2-1-1h-1v-4c-2-4 2-9 7-8h-7m53 12c-3 3-3 8 1 11 7 6 15-4 9-11-2-3-7-3-10 0m15 4c0 5 0 6 3 8h5c2-1 3-2 3-8l-1-6c-1 0-2 1-2 5s-1 6-2 6c-2 0-2-1-2-5s-1-6-2-6c-2 0-2 1-2 6m15 1l1 7 2-2 1-2 2 2 4 2c2 0 2 0 0-2v-3l1-4c0-3-2-5-7-5h-4v7m20-6c-2 3-1 6 3 7 4 2 4 3-1 3-3-1-3-1-3 1 1 3 5 4 8 2 5-3 3-8-2-8l-3-1c0-2 3-2 5-1 2 2 4 0 1-2-2-2-6-2-8-1m13 5c0 5 0 6 3 8h5c4-2 5-14 1-14-2 0-2 1-2 6 0 4 0 5-2 5-1 0-2-2-2-6s-1-5-2-5l-1 6m16-4c-5 3-1 12 5 12 4 0 9-4 6-5l-3 1c-2 2-5 1-6-1-2-3 2-7 5-5l3 1h3l-3-3c-2-2-7-3-10 0m16 0c-5 4-2 12 5 12 4 0 9-4 6-5l-3 1c-3 3-8-1-6-4 0-2 3-3 4-2 2 2 5 1 5 0 0-4-7-5-11-2m14 5v7h5c6 0 7-2 2-3-4 0-4-2 0-2l2-2-2-2-3-1 3-1 2-1c0-2-1-2-4-2h-5v7m13-6c-2 3-1 6 3 7 4 2 4 3-1 3-3-1-3-1-3 1 1 3 5 4 8 2 5-3 3-8-2-8l-2-1c-1-2 1-2 3-1 3 2 5 0 2-2-2-2-6-2-8-1m13 0c-2 3-1 6 3 7 4 2 4 3-1 3-3-1-3-1-3 1 1 4 11 3 11-1 0-3-2-5-5-5l-3-1c0-2 3-2 5-1 2 2 4 0 1-2-2-2-6-2-8-1" fill="#d3d3d3" fill-rule="evenodd"/></svg>