<svg xmlns="http://www.w3.org/2000/svg" width="400" height="225"><path d="M290 76c-12 2-22 10-27 21-3 6-3 7-3 16 0 14 2 19 27 49l6 9c0 2 8 4 14 3 5 0 5 0 4-2l-6-1-4-1c-1-1 13-19 15-20l1 1c0 1 2 5 6 9 6 8 6 8 2 8-4 1-3 4 1 3a1016 1016 0 0110-2l-2-1 2-2c9-10 12-21 8-28-2-4-10-7-14-7h-2l3-6c3-8 4-19 0-26-7-16-25-26-41-23m-2 23c-6 4-7 7-7 14 0 9 5 15 14 16 16 1 24-20 11-29-5-4-13-4-18-1m-63 26c-6 3-9 9-9 17 0 6 2 9 11 21 6 8 6 8 2 8h-2l2 1h11l-1-1 1-3c14-14 18-27 13-37-4-5-7-7-14-7l-8-1c-1-1-3 0-6 2m5 11c-6 5-2 14 5 14 4 0 6-1 8-5 4-8-6-16-13-9m97 6c-4 4-1 11 4 11 3 0 7-4 7-7s-3-6-6-6l-5 2m40 5c-7 4-7 11 1 20 3 4 3 4 1 4l-2 2c0 2 1 2 4 2 6 0 11-2 9-2a740 740 0 010-2h3l-4-1c-4 0-4 0 1-6l3-9c0-8-9-13-16-8" fill="#d3d3d3" fill-rule="evenodd"/></svg>