<svg xmlns="http://www.w3.org/2000/svg" width="400" height="225"><path d="M298 42c-14 7-9 28 7 28 15 0 21-20 7-28-4-2-9-3-14 0m7 8c0 2-3 3-6 1l-2-2c-2 0-1 5 1 9 2 2 2 3 0 3s-1 2 1 2c3 1 9-1 11-4l4-10-4-1c-3 0-4 0-5 2m-37 8c-8 4-6 15 2 15 5 0 8-3 8-7 0-6-6-11-10-8m-18 23c-16 6-12 30 5 30 8 0 15-7 15-15 0-7-3-11-9-14-5-2-6-2-11-1m101 0c-18 5-11 33 6 30 16-3 17-26 2-30h-8M40 94v8h6c4 0 5 0 5-2l-3-2c-4 0-4-2 0-2l2-2-2-2c-4 0-4-2 0-2l3-2c0-2-1-2-5-2h-6v8m14 0c0 7 0 8 2 8s2-1 2-3l1-4 4 4c5 4 5 4 5-5 0-7 0-8-2-8s-2 1-2 4c0 4 0 4-5 0-5-5-5-5-5 4m19-6c-3 3-3 9 0 12 5 4 14 2 14-4 0-3 0-3-4-3s-5 2-2 4c1 1 1 1-1 1-4 0-6-3-4-6 1-2 4-3 7-1s5 0 2-3-9-3-12 0m18 6l-3 8 5-1 3-1 4 1h4l-8-15-5 8m17-6c-3 3-3 9 0 12 5 4 13 2 13-4 0-3 0-3-3-3-4 0-6 2-3 4 1 1 1 1-1 1-3 0-3-1-3-4 0-4 3-6 5-3h5c0-5-9-7-13-3m16 6v8h6c4 0 5 0 5-2s-1-2-3-2l-3-1 3-1 2-2-2-2c-4 0-4-2 0-2l3-2c0-2-1-2-5-2h-6v8m126-4c-5 4-6 7-3 6 1-1 1 0 1 3 0 5 4 6 4 1 1-4 4-4 4 0 0 3 0 3 3 3 2 0 2 0 2-3l1-4c1-1 0-3-3-6l-5-4-4 4m52-2l-1 3c0 3-2 8-5 11-1 2-3 2-7 2-5 0-6 0-6 2-2 6 0 18 2 15l2-1v2h-1v3c1 1 8 0 8-1h12c14 0 13 1 15-11 2-11 2-12-6-12h-6l1-4c1-7-5-13-8-9m48 1c-2 1-3 7 0 8l1-2c-1-3 1-6 4-6s5 2 4 6-4 4-4 0l-1-3c-2 0-3 7-3 11l1 3 1-3 3-3c3 0 5-1 6-4 2-7-6-12-12-7m-53 1c-5 1-13 9-13 12 0 2 10 1 11-1 5-5 6-12 2-11m6 2c0 4-4 11-7 14-2 1-2 3-2 8 0 8 0 8 14 8 9 0 10-1 10-2v-6l1-2 1-3v-2c2-3 0-4-7-4h-6l1-4c0-5-1-10-3-10s-2 1-2 3m7-2l1 6v4h5c7 0 8 1 8 6l-2 9c-1 10-3 11-18 11s-18 2-8 6c14 7 32-4 32-21 0-9-7-19-16-22l-2 1m-61 30c-4 2-5 9-2 13 7 6 16-1 13-9-2-4-6-6-11-4m83 21c-11 3-15 19-6 26 13 10 30-4 24-18-3-6-12-10-18-8m-68 2c-10 5-9 20 1 26 9 4 21-3 21-13 0-11-12-18-22-13m2 6c-2 1-3 11-1 13s11 1 13-1 3-8 1-8l-2-1c0-4-8-7-11-3m64 0c0 1-1 2-3 2s-2 0-2 5c0 4 2 8 3 6l7-1 5-1c0-2 2-3 3-1s3-2 3-7v-4l-8-1c-7 0-7 0-8 2m-31 8c-3 4-3 9 0 12s9 3 12-1c6-7-4-18-12-11" fill="#d3d3d3" fill-rule="evenodd"/></svg>