<svg xmlns="http://www.w3.org/2000/svg" width="400" height="225"><path d="M3 2a3670 3670 0 0024 71l-14 4-13 3v15l16-5 17-4 25 70c24 66 25 69 28 69s5 7-25-76L35 77l134-38C315-1 304 1 307 7l13-3 13-3-32-1h-33L168 27 49 59c-22 6-21 5-18 12l-1 1-14-36A485 485 0 003 2m69-1l14 35 69-18 69-18h-76L72 1m317 24l2 5c4 6 4 6-4 9-9 3-9 3-12-3l-4-5c-1 0-1 1 2 6l2 5-3 1a532 532 0 01-4 3c0 1 4 1 7-1l2 1-3 2c-2 0-3 1-3 2h5c3-1 4 2 0 2l-3 2c0 2 1 2 4 1h3l-3 2-2 2 2 5a716 716 0 0021 35c2-1 2-1 2-34 0-28 0-32-1-31-2 1-2 0-5-4l-5-5m-4 100c-8 3-14 5-15 4-2 0-2 0-1 1s1 1-1 1c-3-1-6 0-4 1v1c-2-1-43 15-119 45l-117 47h45l81-33a86413 86413 0 00112-44 1308 1308 0 011-2l16-7 17-7v-6l-1-7-14 6m-120 12c0 2-5 5-12 5l-7 2-4 3c-4 2-17 3-23 1h-2l2 3 2 3h3l-1 1-2 2 1 2 2 1 2-1h2c2 0 2 0 1-1v-1c3 1 7 0 5-1-1-1-1-1 1-1 2 1 9-1 7-2h2c2 0 2 0 1-1h1l2-1c-1-1-1-1 1-1h2l2-1h1c2 0 2 0 1-1h1l2-1c-1-1-1-1 1-1h1c-2-1 5-3 7-2 2 0 2 0 1-1l3-2 5-2-4-1h-4c0 2-2 1-2 0v-2l-1 1m57 80l-16 7 19 1 20-1-7-14-16 7" fill="#d3d3d3" fill-rule="evenodd"/></svg>