<svg xmlns="http://www.w3.org/2000/svg" width="400" height="225"><path d="M44 1l-1 12v11H0v14h42v13l-4 151H0v15h38v4l1 5v-9h322v4l1 4v-8h39v-15h-19l-20-1a68205 68205 0 00-4-154v-9h43V24h-44V12l-1-12-1 12 1 12H45V12L44 1m66 0l90 1a1548 1548 0 000-2l-90 1M44 44a11657 11657 0 01-4 154v4h43c36 0 42 0 42-2-1-1 0-1 1-1l2 2 116 1h116v-7a10267 10267 0 00-4-154v-3H44v6m174 50l-4 7-2 2c-1-1-9 7-9 9l3 1 3-1v-1c2 0 2 3 1 6-2 2-1 3 4 2 3-2 7-8 7-12 0-7 1-7 9 2 9 9 17 20 17 23l-1 3v1c3 0 0 2-3 2-4 0-8 2-3 2l7 1c3 0 3 1-3 1-6 1-4 1 7 1l14-1h-5c-6 0-9-1-9-3l2-3c4-3 1-8-9-19l-11-12c-2-5-11-15-12-15l-3 4m-16 21c0 2-2 3-5 3-5 2-6 3-6 8 0 4-1 5-4 7-4 3-4 3-15 3-11 1-12 1-15 3-6 5-5 5 8 5 11 0 12 0 10-1l-3-2 5-1c7-1 11 0 6 2l-4 1c-1 1 4 1 10 1l13-1c1-1 1-1-1-1l-2-1c1-2-4-7-5-6l-9 5 4-3 3-5c-1-1 0-1 2-1 4 0 10-9 10-14 0-4-2-5-2-2" fill="#d3d3d3" fill-rule="evenodd"/></svg>