<svg xmlns="http://www.w3.org/2000/svg" width="400" height="225"><path d="M0 59v58l19-21c20-25 20-25 26-18 3 4 4 5 3 8 0 3 1 4 10 15l11 12h3c2-1 7 6 7 9l-40 49C2 215 0 217 0 221v4h77l31-38a1060 1060 0 0133-34c0 10 0 12 2 19l4 9c1 0 2 1 2 4-1 4-27 37-30 36l-4 2c-2 1-2 2-1 2l3-1h1l141 1h141l1-113V0h-63c-77 1-72 1-70 2 1 1 0 4-2 4-2 1-3 0-2-2s1-3-1-3l-38-1h-37l-39 46c-41 49-40 48-42 48-3 0-22-15-20-16l-4-5 1 3c5 5 0 1-14-10-12-10-16-13-16-15 0-3 3-7 20-27L94 0H0v59M135 3v3l-5 3c-6 2-9 4-9 6l4 1c3 0 4 0 4 2 0 3 2 2 4-2l2-3c1 1 2-1 3-2l6-5c6-3 6-6-2-6-6 0-6 0-7 3m91 39l-16 19-1-3-7-8-29-24-29 33c-30 37-30 37-35 38s-7 0-37-24l-4-3-5 7c-4 4-6 7-5 8l12 16c10 13 11 15 11 18 0 6 0 6-17 26l-22 26-7 8 5 4a2491 2491 0 0135 27h3v-1c-1-1-1-1 0 0l1-1c-1-1 51-63 55-65 2-2 4-2 6-1s3 0 17-17l15-18 2 6c1 8 2 10 2 5v-4l5-5 5-6 1-1 1-3 3-2a320 320 0 0133-37 121 121 0 0115-20l3-4c4-6 5-8 3-9-1-1-1-1 2-1l2-2h-3l-3-1s-8 7-17 19M23 129c-3 0-5 2-7 4s-2 2-5 1-4-1-6 1c-3 2-3 4 0 6l1 1v1c1 1 1 2-2 8l-3 8c0 3 1 5 2 4l2 1c2 2 5 4 7 3 2 0 1-2-1-2l-7-4 2-3 2-2 3 3 3 4c0 3 7-3 9-7 0-3 2-5 2-3h2v3c-3 2-2 3 0 7l3 2 1-2c2-3 2-3 0-7-1-3-1-4 1-7l2-2 2-10c0-8-5-11-13-8m110 33l-9 9-5 7 3 3c4 4 5 4 5-1l5-10c5-9 5-13 1-8m9 16l-3 5-2 3-1 2h-1l-5 2-5 4-3 2-2 2-2-3-2-3 1 3 5 10 4 6 2-3c1-2 2-3 1-4v-3h1l1 1c1 0 7-9 7-11l3-5c3-4 4-7 2-8h-1m-41 30l-7 6c-3 2-4 3-5 2l-4 2c-6 7-6 7 5 7h11l3-4c7-10 6-10 4-13-3-4-3-4-7 0" fill="#d3d3d3" fill-rule="evenodd"/></svg>