<svg xmlns="http://www.w3.org/2000/svg" width="400" height="225"><path d="M0 56v56l17-20 19-23c3-4 7-4 12 1 4 2 5 4 5 6 0 3 1 4 10 12 17 14 17 15 19 13 3-1 11 5 12 9 0 2-10 15-47 59L0 225h48l2-3 7-8c4-4 7-5 7-2l4 5c3 2 5 4 5 6 0 1 1 2 164 2h163l1-113V0h-71l-7 9-7 8-4-3c-4-3-5-3-9 3-2 3-2 3 1 5 2 3 2 3 1 4h-2l-2 1h-3c-1-2-2-1-7 4-5 6-5 7-1 10l3 3-6 7c-14 17-19 23-21 23-4 0-53-38-54-42 0-2 2-5 12-17l12-15h-48l-34 41c-41 48-39 46-41 46-3 0-33-25-31-26l-4-5 1 3c4 4 1 2-9-6s-11-10-8-14L92 2l2-2H0v56M241 0c0 1 19 17 20 16l12-15c1-1-2-1-15-1h-17m34 7a709 709 0 01-11 12l10 9c9 7 9 7 11 5l6-8 5-6-8-7c-9-8-10-9-13-5M150 53c-32 38-33 39-40 37L92 77 75 63c-1 0-10 11-10 13l14 13c24 20 24 20 8 40a4685 4685 0 00-36 42l-4 5 7 6 18 14c13 12 17 12 25 1l2-3-3-3c-8-7-10-9-10-13 0-6-1-5 28-40a2700 2700 0 0059-69c9-11 10-12 15-12 4 0 6 1 11 5 6 5 6 5 8 3 7-5 9-12 7-17l-33-29c-1-1-6 4-31 34m117-22c0 1 0 2-1 1l-1 1v2l-1 2c1 2 1 8-1 8-3 0-4-3-2-6v-2a6552 6552 0 01-21 11c-3 0-2 1 14 13 9 7 9 7 11 5v-2l-1-2-3-3c-3-2-3-2-2-4 2-3 4-4 3-1 0 3 0 3 2 3 3 0 7-10 6-13-2-2-1-2 3-9 1-2 1-2-2-4-3-4-4-4-4 0m-130 87l-48 60c0 3 1 3 25 24l24 20c3 3 6 0 18-14l13-16 2-2-3-4-4-3 4-5c6-7 7-7 8-5h3c1-2 2-2 2-1h2c2-1 2-1-1-4l-3-3 3-4c4-5 4-5 9-1l4 2 45-55c1-3 0-6-1-4h-2v-2c1-1 1-1-1-2s-3-2-4-1h-1c-1-1 0-1 1-1v-1h-2c-2 2-4 1-18-11-13-11-14-11-14-14 1-3 0-4-3-7-8-6-4-9-58 54m26-24l-12 14 48 42 24-29-47-40c-1-1-7 5-13 13m10-8c-2 2-3 4-1 4l6 4 2 1h1v3c2 1 2 1 5-2 2-2 2-2 0-4l-3-3c-2-1-2-1-4 1h-2l2-2-1-2c-2-3-3-2-5 0m-11 14c-2 4-2 5 0 3 1-1 1-1 1 1-1 1 0 2 2 4l5 4 6 6 4 2 2-2c2-3 2-4 0-4l-3-3-3-3-3 2c-2 3-3 2-1-1 1-2 1-3-1-5l-2-2-3-2-3-3-1 3M30 117c-4 0-6 2-8 4-3 3-3 3-6 1-3-1-3-1-6 1-3 3-3 4 1 5 3 2 3 4 0 10-3 5-2 6 4 6 2 0 2 1 2 2h1l1 1v1c1-1 5 3 4 3l-1 1c1 1 4 0 3-1l1-1c1 0 3-2 4-5l3-3h2c1 0 1 2-1 4-1 2-1 2 2 5l3 4c1 0 2-1 1-4v-2c2 0 2-1 0-3-2-3-2-4 0-8l3-4c1 1 1 1 1-1l1-6c0-2 0-3-2-5-1-2-2-2-2-1 1 2-1 3-4 4-2 0-2-1-2-3 0-3 2-4 4-3h1c0-3-4-4-10-2m97 19l-7 10c0 1 17 15 19 15l7-8 7-8-7-7-7-6-2-2-3-2-7 8m22 20l-7 9 19 15 3-3 4-5 4-4 2-3-2-3-10-8-7-6-6 8m-4 19c0 1 0 2-2 2v3c-1 1-2 2-1 3v6c1 1 1 1-1 1-2 1-3 0-2-1l-1-1c-2 2-1-2 1-4s0-3-3 0l-3 1-4 2c-3 2-5 3-6 2l-4 2-3 3 6 5c16 14 18 15 20 13l2-3h-1c-1 2-2 1-1-1 0-2 0-2-3-3-3-2-4-3-1-6 2-3 3-3 2 1-1 3-1 3 1 3l3-3 3-5v-5c-1-3 0-4 2-7 3-3 3-5 0-8s-5-3-4 0" fill="#d3d3d3" fill-rule="evenodd"/></svg>