<svg xmlns="http://www.w3.org/2000/svg" width="400" height="225"><path d="M59 67v3h283v-6H59v3m-10 6v3c1 1 7 2 152 2h151v-6H201L49 73m73 16H49v2l1 3h302v-5h-69a6088 6088 0 01-161 0m-62 24c0 16 0 17 2 17s2-1 2-17c0-17 0-18-2-18s-2 1-2 18m27 0c0 16 0 17 2 17s2-1 2-17c0-17 0-18-2-18s-2 1-2 18m28 0c0 16 0 17 2 17s2-1 2-17c0-17 0-18-2-18s-2 1-2 18m27 0v17h5V95h-5v18m28 0c0 16 0 17 2 17s2-1 2-17c0-17 0-18-2-18s-2 1-2 18m56 0c0 16 0 17 2 17s2-1 2-17c0-17 0-18-2-18s-2 1-2 18m28 0c0 16 0 17 2 17s2-1 2-17c0-17 0-18-2-18s-2 1-2 18m27 0c0 16 0 17 2 17s2-1 2-17c0-17 0-18-2-18s-2 1-2 18m28 0c0 16 0 17 2 17s2-1 2-17c0-17 0-18-2-18s-2 1-2 18m27 0c0 16 0 17 2 17s2-1 2-17c0-17 0-18-2-18s-2 1-2 18m-157-7v7l9-7 8-8h-17v8m30 3l11 11V98h-22l11 11m-17-5l-4 4 4 5 3 5 1 3c2 2 2 2 0 4-1 2-1 2 1 2s2 0-1 3l-2 2H49v7h302v-7H206l-2-2-2-2 5-6 6-5-8-9-8-8-5 4m-9 8c-4 3-4 3-4 10v6h6c9 0 12-3 10-7l-2-4-3-4-4-4-3 3m-14 32v4h-22v-3c0-4-1-4-3-4s-2 0-2 4v4l-11-1h-11l-1-3c0-6-4-6-4 0v3H92v-4c0-3 0-3-2-3-3 0-3 0-3 4v4l-11-1H64v-4c0-2 0-3-2-3s-2 1-2 13v12h114v-26h-2c-3 0-3 0-3 4m10 9c0 12 0 13 2 13s2-1 2-13 0-13-2-13-2 1-2 13m10 0v13h23v-26h-23v13m28 0c0 12 0 13 2 13s2-1 2-13 0-13-2-13-2 1-2 13m9 0v13h114v-12c0-12 0-13-2-13s-2 1-2 4v3h-18l-5 1v-4c0-6-4-6-4 0l-1 3h-23v-3c0-3 0-4-2-4s-2 1-2 4v3h-22l-1-3c0-6-4-6-4 0v3h-22l-1-4c0-3 0-4-3-4h-2v13m-162 1v7h23v-7H64m28 0v7h23v-7H92m27 0v7h23v-7h-23m28 0v7h22v-7h-22m85 0l-1 4v3h23v-7l-11-1-11 1m53 0v7h24v-7h-24m28 3v4h23v-7h-23v3m-55 1v3h23v-7h-23v4M55 169c-5 2-6 3-5 5s301 2 301-1l-5-4-6-2H199c-129 0-141 0-144 2" fill="#d3d3d3" fill-rule="evenodd"/></svg>