<svg xmlns="http://www.w3.org/2000/svg" width="400" height="225"><path d="M130 32l16 17c13 15 15 17 13 18-1 0-3 0-4-2h-2l1 2-9 2c-10 3-12 3-10 6l12-1 12-2-3 4c-7 7-12 20-14 32l1 6c2 0 2-1 2-4 0-12 12-37 17-36h1v-3a623 623 0 0140 41c0 2-7-2-12-7l-6-6 5 6 3 5c-13-4-12-4-12 3 0 14 14 23 27 17 3-1 3-1 6 1 2 3 3 2 0-1-1-2-1-4 1-4l10 10a17665 17665 0 00-1-4l-8-8 2-3c2-4 1-4-5-6-6-1-6-1-26-23l-20-22 4-1c3-1 4-1 3-3l3-4 4-2c0-2-4-1-8 2-10 5-8 6-26-14-14-15-17-18-17-16m118 37l-19 4c-6 1-8 3-5 7 1 1 38-6 40-7l-2-7-14 3m-7 28l-32 7 21 23c1 0 3-9 3-14 0-4 1-5 3-6 12-2 15-3 16-2 3 1 0 22-5 32l-3 6 3 3 3 4 10-23a9419 9419 0 0114-37l-33 7m-82 17a4405 4405 0 00-12 5c0 2 0 2 12 0s12-3 11-5c0-2 0-2-11 0m94 80c-4 4-8 7-7 8l6 8 5 7 8-6 8-7-12-16-8 6" fill="#d3d3d3" fill-rule="evenodd"/></svg>