<svg xmlns="http://www.w3.org/2000/svg" width="400" height="225"><path d="M151 78v17h-15v36h15v13h17v-7h6c6 0 7-1 7-3v-2l23-1h24v-28h-8v-8h-39l-1-10V75l-3-1h-4V62l-11-1h-11v17m-30 28v11h-21v14h26v-7c0-8 0-8 3-8h2V95h-10v11m21-5v2l1 2-1 1v1l1 4-1 5v2c2 0 1 7-1 8-1 1 10 1 37 1 26 0 37 0 36-1-2-1-3-8-1-8v-2l-1-4 1-5v-1l-1-1 1-2c5-2-4-3-35-3l-36 1m2 11v4h19v-4l1-4v4c0 4 0 4 3 4s3 0 3-4v-5h-26v5m27 0l1 5h12v-10h-13v5m21 0v4h12v-4l1-4v4c0 4 0 4 3 4s3 0 3-4v-5h-19v5m19 35c-4 1-3 9 1 9s5 2 5 4l-5 1c-2-1-3-1-3 1l7 2c5-2 5-9 0-10-4 0-5-2-4-4h4c3 0 4-1 1-3h-6m14 1c-4 3-3 6 4 9 4 1 3 3-1 4-5 0-5 0-4 2l5 1c7 0 7-9 0-10-5-1-4-5 1-4 4 0 5-1 2-3-3-1-4-1-7 1m22 0c-3 3-2 8 2 8 3 0 5 2 4 4l-4 1c-3-1-5 0-2 2 5 3 11-1 9-6 0-2-1-3-4-3-4-1-5-2-3-4h4c3 0 4-1 1-3s-5-1-7 1m61-1c-5 3-3 8 2 10 5 1 5 3 0 4-5 0-5 2 0 3 3 0 5 0 6-2 2-3 0-8-5-8-3 0-4-2-2-4h7c1-2-4-4-8-3m-130 9c0 6 0 8 2 8l1-3c0-4 2-5 4-1 3 5 7 6 4 1v-6c2-5 0-8-7-8h-4v9m15-2c0 7 2 10 6 10s6-3 6-10l-1-7c-2 0-2 1-2 6 0 7-1 9-4 7-1 0-2-2-2-7 0-4 0-6-2-6l-1 7m81 2c0 7 0 8 2 8s2-1 2-3c0-4 0-4 3-4l3 1c-1 3 0 6 2 6l1-9c0-7 0-8-2-8l-2 3c0 4-5 4-5 0 0-2 0-3-2-3s-2 1-2 9m17 0v8h6l5-1c0-2-1-2-4-2s-4 0-4-2 1-2 4-2c2 0 3 0 3-2s-1-2-3-2l-4-1c0-2 1-2 4-2l4-1c0-2-1-2-5-2h-6v9m-66 14c-3 4-1 9 5 9l2 2c0 2-1 2-4 2l-3 1c0 2 8 2 9 0 2-3 0-7-3-8-4 0-5-2-3-4h3c3 2 5 0 2-2-3-3-5-2-8 0m-47 8c0 6 0 8 2 8l1-3c0-4 0-4 3-4s3 0 3 4c0 2 0 3 2 3l1-8-1-9c-2 0-2 1-2 4s0 3-3 3-3 0-3-3l-1-4c-2 0-2 2-2 9m17-1c-2 8-2 10 1 8l4-1 4 1c3 2 3 0 1-8-4-11-6-11-10 0m14-1c0 9 1 10 6 10 4 0 6-3 6-11 0-5 0-6-2-6-1 0-2 2-2 7 0 6-1 7-2 7-2 0-3-1-3-7 0-5 0-7-2-7l-1 7" fill="#d3d3d3" fill-rule="evenodd"/></svg>