<svg xmlns="http://www.w3.org/2000/svg" width="300" height="300"><path d="M87 12c-11 3-16 16-11 26 6 12 22 13 31 2 6-8 3-22-6-27-4-1-11-2-14-1M40 64c-16 4-23 26-11 38 5 5 7 5 7-1l2-5v11h3c10 0 19-12 19-24S50 61 40 64m-17 49c-18 6-20 22-3 30 9 5 25 5 34 1 18-8 16-25-3-31-7-3-21-2-28 0m111 0c-6 2-10 6-12 10-6 13 4 25 20 25 22 0 30-22 12-33-5-3-15-4-20-2m12 61c-20 3-28 18-16 28 18 15 56 6 53-13-2-10-21-18-37-15m113 30l-53 31-48 28-1 5 1 5c1 1 102-56 105-59l1-7v-5l-5 2" fill="#d3d3d3" fill-rule="evenodd"/></svg>