<svg xmlns="http://www.w3.org/2000/svg" width="300" height="300"><path d="M95 15l-6 4v14l-7 4c-8 5-8 5-8 2l-5-4-5-2-5 2c-7 4-8 5-8 13v7l-12 7-12 6v7c0 4 0 6-2 6-2 1-1 17 1 17l1 27 1 26 4 2 5 2 47-27 47-27V73c0-23 0-27 2-27 2-1 2-16 0-16l-2-6c0-4-1-5-5-7l-4-3-5 3c-4 2-4 2-5 1-1-2-9-7-10-7l-7 4m96-1l-4 4c0 2-1 1-6-1l-4-2-4 2c-5 2-5 3-5 7 0 3 0 5-2 6-3 2-3 13 0 15 2 2 2 3 2 29l1 27 30 18 46 27 17 9 5-2 4-2v-26c0-24 0-26 2-27 3-2 3-15 0-17-2-1-2-2-2-7v-6l-11-6-11-7-1-7v-8l-6-3-8-4c-2 0-10 5-10 7 0 1-3 0-7-3l-6-4-1-7c0-7 0-7-8-12l-6-3-5 3M86 70c-17 10-21 38-6 38s30-26 20-37c-3-4-10-4-14-1m112 1c-6 6-3 20 6 30 15 15 30 5 22-15-5-14-21-23-28-15m7 14v10h18l-9-10-9-10v10M81 81v11l1 9 8-10 9-10c0-2-17-1-18 0m95 74c-22 12-24 14-24 16v3a914 914 0 0049-30v-3l-25 14m-73 43l-25 16c-1 4 3 3 26-11 21-12 24-14 24-16l-1-3-24 14m147 0l-25 16c-1 4 3 3 26-11 21-12 24-14 24-16l-1-3-24 14m-74 43c-22 12-24 13-24 16v3l6-3c38-22 43-25 43-27 0-4 0-4-25 11" fill="#d3d3d3" fill-rule="evenodd"/></svg>