<svg xmlns="http://www.w3.org/2000/svg" width="300" height="300"><path d="M158 40c-2 2-2 2 24 17 23 13 27 15 28 14l2-2-51-31-3 2m-33 33c-10 5-16 9-17 11l-1 35 1 32 2 2a226 226 0 0040-21l1-31V71l-3-1-2-2-1-1-2-1c-3-3-2-3-18 7m68 9v4c2 3 2 3 0 4-1 2 0 2 6 6 51 30 50 29 53 28l2-2c0-1-12-9-27-17-25-14-28-16-28-19 0-2-3-6-4-6l-2 2M67 106l-8 5-1 1c0-1-12 5-15 8-2 1-2 4-2 36v34l2 1c3 1 5 0 21-9 13-8 19-12 20-14 2-4 1-59 0-59l-4-2-2-1-2-2c-3-3-2-3-9 2m8 18c-2 0-3 1-3 2l3-1c3-1 3-1 3 2s0 3-6 3c-5 0-5 0-3-2 2 0 3-1 3-2l-10 5-9 6 3-1c3-1 4-1 2 1-2 1-3 4-1 3h1l3-3c2-3 3-4 5-4 1 0 2 0 1-1l5-1h6v3c0 3 0 4-2 3v1c2 1 2 2-1 6l-2 5 3-4 2-3v7l-1 8v1c2-1 3-36 1-36l-3 2m-25 14a161 161 0 00-1 35l4-1 4-3-4 1-3 2v-3c0-3 0-3 5-3s5 0 3 1c-3 3 0 2 9-3l9-6-3 1c-3 1-3 1-3-1v-1h-1c0-1-2 0-3 3l-2 4-3-1c-4-2-5-2-3 0 2 1 2 1-3 1s-5 0-5-3l1-3v-1c-1-1 0-2 1-5l2-4c-1 0-2 1-2 3l-2 3v-4c0-2 1-3 3-5l2-3-2 1-3 2v-2l2-5h-2m68 29c-23 5-25 26-5 34l10 2 4 1v-6l1-8c2-1 2-2-4-2-14 0-19-9-9-14 11-5 24 1 21 9l-1 2 5-1 11-2c9 0 9 0 6-5-5-8-24-13-39-10m89 59l-53 31c-4 2-4 2-4 7l1 5 54-30 53-30v-6l-1-6-50 29" fill="#d3d3d3" fill-rule="evenodd"/></svg>