<svg xmlns="http://www.w3.org/2000/svg" width="300" height="300"><path d="M127 78l-5 3v13l-6 3c-6 3-7 4-7 2l-4-4c-4-2-4-2-7 0-8 4-9 5-9 11v7l-10 5-9 5-1 5-2 6c-2 1-2 14 1 15l1 22v22l4 3 4 2 15-8 15-9 1 17v18l4 2 4 2 13-8 15-8 1 17 1 16 3 2 4 2 40-23 40-23v-23c0-19 0-24 2-24 1-1 2-13 0-14l-1-4c0-7-7-10-13-7-3 2-4 2-4 1l-4-4-4-2-5 3-4 2v-5l-1-6-2-4c0-3 0-4-4-6l-4-3-4 2c-2 1-3 2-4 1l-9-5-6 3-5 3v-6l-1-7-2-4c0-4-1-5-4-6l-4-2-4 2-4 1c0-2-7-6-9-6l-6 3m-8 47c-9 5-14 18-12 26 1 2 1 2 1-2s0-4 4-6c2-1 3-2 4-5v-4h12v-5c0-6 0-6-3-6l-6 2m40 22c-6 2-11 9-13 16-1 4-1 4 4 1 3-2 4-3 4-5 0-3 0-3 7-3 3 0 4-1 4-6 0-6-1-6-6-3m36 21c-14 8-18 33-5 33 8 0 17-9 19-19 3-13-4-19-14-14m-4 18c0 8 0 9 1 8l14-16-7-1h-8v9m15 42l-55 32-1 6v6l111-63v-13l-55 32" fill="#d3d3d3" fill-rule="evenodd"/></svg>