<svg xmlns="http://www.w3.org/2000/svg" width="300" height="300"><path d="M101 67l-1 1-6 3c-2 2-4 3-5 2v1l-1 3-2 2-1 2-1 1-1 1v1l-1 1v2l-1 1v2l-1 1v4c0 3 0 4-1 3s-1-1-1 1 0 3 1 2l1 2 2 4c2 2 3 3 2 4h1l1 1v4c-1-1-2 0-4 2-1 2-3 3-3 2v1l-1 1h-1c1 0 0 2-2 3-2 2-3 3-2 4h-2v2l-1 1-1 1h-1v1l-1 1c0 2 0 3-1 2l-1 1v2l-1 1v1l-1 3-2 3-2 7v2l-1 2v4l-1 3c-1-1-1-1-1 2l1 5 2 2 1 1 1 1h1l1 1h2c1 1 10-4 38-20l38-22-1-5c-2-8-9-17-17-19l-4-2h-1l-1-1h-2l-1-1h-1l1-3c11-17 10-33-4-36l-5-2-2-1-2 1m84 1c-3 3-4 3-6 1-3-2-9 1-9 5l-1 4-1 5 1 5 1 17v18l30 17c30 18 31 18 33 16l3-1v-17c0-13 0-16 2-17l1-6-1-5-2-4c0-4 0-4-7-8l-7-4v-5c0-4 0-4-5-7l-4-3-4 2-3 3-4-2c-5-2-5-2-5-7 0-4 0-5-4-7-5-3-5-3-8 0m4 37c-4 6 3 20 12 23 4 0 8-4 8-8 0-12-15-23-20-15m-14 59l-18 11 10 7c10 6 11 7 11 9 0 4 0 4 20-7 23-14 23-14-2-28l-4-2-17 10m-99 20l-22 14c-1 1 83 50 89 53 2 0 62-33 62-35l-38-22-37-22H98l-22 12m130 6l-17 10 22 13c1 0 33-18 34-20 1-1-19-13-21-13l-18 10m-93 8a2231 2231 0 00-23 16c2 1 5-1 26-13l25-15-3-2-25 14m6 4l-24 15c0 3 6 1 28-12s25-15 23-16 1-3-27 13m-32-6l-12 7 2 3 4 2 12-7 11-7-7-4-10 6m40 10l-24 15c0 3 5 1 18-7 34-19 34-19 33-21-2-2 0-2-27 13m7 4l-25 15 2 2 26-14c27-15 26-14 23-16-1-1-6 2-26 13m72 19l-56 32v13l14-8 56-33 43-24v-13l-57 33m-64-15l-25 15c0 4 6 1 28-12 27-15 26-14 23-16-1-1-6 2-26 13m6 5c-27 15-26 15-23 16 3 0 50-26 50-28 1-3-6-1-27 12m8 4c-26 14-26 15-23 15 2 1 2 1 22-10l22-13c5-3 7-4 6-5-3-2-4-1-27 13m6 4c-28 16-25 14-23 16 1 1 6-1 26-13 28-16 26-15 24-16-2-2-2-2-27 13" fill="#d3d3d3" fill-rule="evenodd"/></svg>