<svg xmlns="http://www.w3.org/2000/svg" width="300" height="300"><path d="M159 72a11232 11232 0 01-25 15l-3 2v75l2 1c2 1 4 2 5 1l-1 2c-2 2-2 2-2 38 0 38 0 38 4 40a313 313 0 0042-23l3-2v-52l7-5 8-4 1 23v23l2 1c3 2 3 2 23-10l22-13v-68c-3 0-6-1-5-2l-1-1h-1l-2-2c-3-1-5 0-18 8-21 12-20 10-20 24v11l-8 4-7 5-1-4c0-3-1-4-7-8l-7-4 3-1c6-4 6-3 6-39l-1-32-2-1-1-1c-1 1-5-1-4-2 0-1-3-3-5-3l-7 4m-65 40a6975 6975 0 01-29 17l-1 39 1 36 2 2c3 1 3 1 21-9a122 122 0 0121-11l1-3a531 531 0 001-68c-2 0-3 0-2-1l-1-1h-1l-1-1c-1 1-2 0-3-1-3-4-2-4-9 1m123 22c-9 5-14 10-11 10s22-12 22-14c0-3 0-3-11 4m-62 39c-8 4-11 7-11 8 0 3 0 3 12-4 9-5 11-7 11-9 0-3 1-3-12 5m17-1c-4 3-3 4 1 2 4-3 4-3 4 2v3h-7c-6 0-6 0-4-2 2 0 3-1 3-2l-8 4-5 4-1 3c-3 2-4 5-2 3h2l3-3c3-6 3-6 7-3 4 2 5 1 1-1-2-2-2-2 4-2h7v4c0 4 0 4-4 1l-4-1 3 3 4 2-1 3c-3 4-2 5 0 2l2-2v3l-1 4v2l1 3-1 4v1c1-1 2-4 2-20 0-21 0-20-6-17m-23 14l-5 3v19l1 19 3-2v-1c-1 1-2 0-2-3l-1-3h6l6 1c-1 2 0 1 6-2l4-4v-1l1-3v-4l-4 6-3 5-6-3c-6-4-8-3-2 0l5 3h-13l1-3c0-3 1-4 2-3v-1c-1-1-2-2-1-3l-1-2v-12c0-2 1-3 5-6l4-3-6 3m-37 19c-20 11-23 13-23 15v3a2321 2321 0 0045-28c0-3-1-2-22 10m134 0c-20 11-23 13-23 16l1 2c5-2 44-25 45-27 2-5-1-4-23 9m-68 39c-19 11-22 13-22 15 0 4-2 5 23-10 19-10 22-13 22-15 0-3-1-3-23 10" fill="#d3d3d3" fill-rule="evenodd"/></svg>