<svg xmlns="http://www.w3.org/2000/svg" width="300" height="300"><path d="M168 41c0 26 1 26 3 26v1c-1 1 72 43 75 44l1-26-1-27a2067 2067 0 00-77-43c-1-1-1 3-1 25M97 78l-53 31v77l6-3 53-30 47-27V48L97 78m32 0l-19 24 1 8c0 7 0 8 2 8 6 2 34 5 35 5V54l-19 24m-31 3l-48 27c1 1 34 6 35 5l4-5c4-5 10-8 15-8l4 1 17-22 17-23c2-2-1-1-44 25m70 25c0 23 0 26 2 27a1479 1479 0 0076 43c1 1 1-3 1-25v-26l-3-2-75-43-1 26M47 145v34l19-23 17-23v-17a807 807 0 01-35-5l-1 34m45-25v10l4-5 8-9 4-5H92v9m16 3c-3 7-14 14-20 12h-3l-34 44 93-53-15-3-17-3c-2 0-3 0-4 3m31 28c-14 8-18 11-17 12l22 12 34-21-21-13-18 10m35 15l-17 10 11 7c9 6 11 7 11 10l1 3 17-10 18-10v-4c0-4 0-4-11-10l-11-6-19 10m-97 19l-23 15 46 27 45 26 31-18 30-18-39-23-38-22h-29l-23 13m130 6l-17 10c-1 1 20 13 22 13l35-20-22-13-18 10m-91 7a8354 8354 0 00-25 17c3 1 52-27 50-29s-2-2-25 12m5 5l-25 15c-1 3 5 1 19-7 33-19 33-19 32-21-2-2 0-2-26 13m-35-5c-11 7-12 7-7 10 3 1 3 1 14-5l11-7c1-1-5-5-6-5l-12 7m43 9c-27 15-27 16-24 16 2 1 8-2 25-12 28-16 27-15 24-17-1-1-6 2-25 13m77 22l-55 32-1 7v6l3-2 56-32 53-30v-7l-1-6-55 32m-72-17c-23 13-26 15-22 16 3 0 51-28 50-29-3-2-5-1-28 13m8 4l-24 14 2 1c2 1 52-27 50-28-3-2-5-1-28 13m7 4c-27 15-26 15-23 16l25-13c28-16 27-15 25-16-2-2-3-1-27 13m7 4c-22 13-25 15-22 16l50-28c-1-3-6-1-28 12m7 4c-27 16-26 15-23 16 1 1 6-2 26-13 28-16 26-15 24-16-2-2-2-2-27 13" fill="#d3d3d3" fill-rule="evenodd"/></svg>