<svg xmlns="http://www.w3.org/2000/svg" width="300" height="300"><path d="M245 29l-2 1 1-2a3616 3616 0 00-89 54l4 1h-9l-1 32c0 29 0 35 2 31h1l21-11 73-43a598 598 0 00-1-63m-64 17l-20 11c-14 8-17 9-16 4v-3l-1-2c0-3-1-3-6 1s-6 5-5 49l1 40 2 2c3 2 3 2 5 1 3-1 3-1 3-8s0-7-2-6l-2-1 2-2 2-2h-2l-2-1 2-2 2-2h-2l-2-1 2-2 2-3h-4l2-3 2-2h-4l2-3 2-2h-2l-2-1 2-2 2-2h-2l-2-1 2-2 2-2h-2l-2-1 2-2 2-3h-4l2-3 2-2h-4l2-3c3-1 3-3 0-2-6 2 1-4 23-16l24-14v-5l-1-4h-1l-6 2M77 73v17l-9 5-12 8-3 2v30l-1 29h-2l2 1 1 14v13l3 1c3 2 3 2 13-4 11-7 11-7 15-6 1 1 1 1 0 0-2-2-1-2 10-9 7-3 13-7 13-8a467 467 0 00-2-79l-1-1h-1l-1-1-4-2c-4-4-3-4-12 2l-7 4-1-16-1-16v16m75-9c-10 6-12 8-12 10 0 3-1 3 14-5 10-6 12-8 12-10 0-3 0-3-14 5m-70 48c-22 13-24 15-23 16 1 0 45-25 46-27 0-2-1-1-23 11m-10-4c-9 6-13 8-13 10l1 2 25-14v-2c0-3-1-3-13 4m10 10c-20 11-25 15-22 15l45-27c0-2 0-2-23 12m115 17a328 328 0 00-45 28h-3v33c0 27 0 32 1 31h2l22-12a2862 2862 0 0169-42c-2-1-2-1 1-1h3v-17c1-27 0-46-2-47l-48 27M82 123c-20 12-25 15-22 15a1226 1226 0 0022-15m2 9c-24 14-25 15-25 16a320 320 0 0046-28l-21 12m-2 6c-22 13-24 15-23 16 1 0 45-25 46-27 0-2-1-1-23 11m0 11l-23 14c0 2 2 1 25-12 24-14 21-13 21-14l-23 12m2 9l-20 13c1 1 41-22 41-24v-1l-21 12m39 0v13l-1 12-9 6c-5 3-9 5-10 4h-3c2 2 3 2-10 9-8 5-9 6-9 8 0 4-3 5 27-12 23-13 25-15 25-17 0-4 0-4-5-1l-3 2-1-12-1-12m140 34c-24 14-26 15-26 18v3l52-30v-6l-26 15m-79 46c-24 14-25 14-25 17l1 3a1771 1771 0 0051-32l-1-3-26 15" fill="#d3d3d3" fill-rule="evenodd"/></svg>