<svg xmlns="http://www.w3.org/2000/svg" width="300" height="300"><path d="M120 20c-17 10-17 9-17 25l1 15v14l1 2-1 2-1 4 1 6 1 2-1 2-1 5 1 4 1 3-1 2-1 5 1 4 1 3-1 2-1 5 1 4c2 0 3 5 2 6s0 3 2 6c4 5 5 6 22 16l23 13c13 8 17 8 37-5 7-4 10-11 8-12s-2-5 0-5c1-1 1-7-1-10v-4c2-2 2-7 0-10v-4c2-1 3-9 1-9-1 0-2-4 0-5 1 0 2-9 0-9-1 0-2-4 0-5 2 0 2-9 0-9-2-1-2-4 0-5l1-11c-1-12-2-16-8-22-5-5-53-32-56-32l-15 7m51 182c-19 11-23 13-23 15v3a1037 1037 0 0045-29l-22 11m38 22l-58 34-1 6 1 7 59-34 59-34v-6l-1-7-59 34" fill="#d3d3d3" fill-rule="evenodd"/></svg>