<svg xmlns="http://www.w3.org/2000/svg" width="400" height="225"><path d="M0 59v58l2-2 46-49 43-47h30l50-2h21v16h9a11856 11856 0 00158-3h8l16 13 17 12v31c0 25 1 21 1-28V0H0v59m97-27c-1 1 0 1 3 1 10 0 19 1 18 3-1 1 0 1 4 1 6 0 9 1 6 2l-2 1 2 1 6 2h27c6-2 7-2 10 0 4 1 4 1 4-1-1-2 0-3 1-3 4 0 3-2-1-2h-3l3-2 3-2h-9c-2-2-3-1-3 2 1 3-6 6-12 7h-6c-2 1-11-1-13-3-2-1-2-2-1-4 2-3 2-3-10-3a361 361 0 01-27 0m-3 6v2c1 2-4 0-6-1l-2-1 1 2c2 1 1 1-3 3l-4 1h3c6 0 6 0 5 2-1 1-1 1 1 1l3-1 2-2c1 0 2 0 1 1l2 1 5-2 3-1h-4c-4 0-5-3 0-3l4-2H94m168 16c-6 2-11 4-11 6s8 2 12 0l9-3c2 0 3 0 2-1-2 0-3-1-3-2h-9m19 3c-3 0-4 1-2 1 7 0 13 7 10 10-1 1 0 2 4 3 4 2 4 2 6 0 5-4 0-10-9-13l-5-2-4 1m55 142a16913 16913 0 01-334 4c-2 0-2 2-2 11v11h401v-23l-1-3h-64" fill="#d3d3d3" fill-rule="evenodd"/></svg>