<svg xmlns="http://www.w3.org/2000/svg" width="400" height="225"><path d="M0 64l1 64A4737 4737 0 0058 3c2-1 103 0 106 1l1 7-1 7h58l90 1h33l18 43 19 43h18v11l1-52V0H0v64m65-36c-1 1 3 2 21 3 16 1 19 2 15 4h-3c-1-1-10-1-11 1 0 1 9 2 10 1s1-1 1 1l1 2c2 0 1 2-2 3h-3l3 1 6 3c6 6 16 6 26 2 7-3 14-3 12-1l1 3c1 1 2 1 2-2 1-2 1-3-1-4l-2-2 3-1 2-1c-5 0-6-2-2-5s2-4-2-1c-2 1-2 1-3-1-1-4-4-5-2-2 3 11-14 21-27 16-7-3-9-10-5-15v-2a180 180 0 00-31-3l-4-1-5 1m0 11l-1 1c-1-1-1 0-1 1 0 3-1 4-2 2-2-2-4-1-4 1 1 1 0 2-4 3l-4 1h11l-2 2c-1 3-1 3 1 3 2 1 2 0 2-2s1-2 3-2 2 0 2 2h2l3-2c2-1 1-1-2-1-4 0-4 0-3-1v-2c-2-1 0-3 3-3s5-1 5-4h-5c-4 0-5 0-4 1m163 19c-4 2-8 7-7 8 1 2 8 2 10-1l6-3c3 0 4 0 3-3 0-4-5-4-12-1m-42 15c0 2 1 2 18 2 16 0 17 0 17-2s-1-2-17-2c-17 0-18 0-18 2" fill="#d3d3d3" fill-rule="evenodd"/></svg>