<svg xmlns="http://www.w3.org/2000/svg" width="400" height="150"><path d="M21 6v6l-1 1-1 5c-2 6-1 9 2 10l16 3c3 0 2-5-2-14 0-2 0-2 1-1l3 1c2-2 0-3-3-3-2 0-3 0-3-6V2l3 1c5 2 9 2 9 0h-1V0l-1 1-1 1-11-2H21v6m66-5c-2 1-2 3-2 6l1 5h7l10 2c3 1 3 1 4-1 1-3 0-11-2-12-2-2-16-1-18 0m44 0l1 1 9 4 1 1 6 1a19783 19783 0 0128 13h-4c-3-1-4 0-3 5 0 2 1 3 2 3v1l-2 1 1 8v1l-1 2 2 2c2 0 3 2 1 2-1 1 1 1 3 1 4 1 5 1 4 2l-4 1c-3-1-7 0-10 2-2 3-3 6-1 5 1-1 7 4 7 7 1 2 0 4-1 6-2 4-4 4-4 1l-1-4c-2-1-2 0-2 7 0 9 0 9 3 10 2 1 2 1 1 2-2 0-2 0-1 2 1 1 1 1-1 1l-2 2-1 1h-1l2 2 2 1-2 1h-3l2 1c4 0 5 2 3 10l-3 8h20c3 0 3 0 3-5s0-5 4-5l3-1-1 4-1 4c-2 1 3 5 6 5l2 2c0 1-10 4-83 24l-25 7h15l19-1 4-2v2c0 2 13 2 13-1l5-3 5-2v7h7c6 0 8 0 9-2l1-2-2 1c-1 2-2 1-2-2v-2l2 1v1l4 1c2 0 2 0 1-1-2-1-2-1 0-2 3 0 1-2-3-2l-3-1 7-4 3-2c1-1 8-4 11-4v3l1 7c1 3 1 4-1 5l-2 1h4l-2 2-2 1h4c0 2 18 1 21-1l-4 1-1-1v-2l-4-16c0-5 1-9 3-9v4l-1 1h1l4-1h1l2-2 2-1-2 2v1l3-1c2-2 1 0-1 3v2l-1 1v1c2 0 1 2-2 3-2 0-2 0 0 2 3 3 16 3 16 0l-1-2v-2l1-1c-1 0-1-1 1-2l1-2v-1l1-1 1 1v1l1-2h1l2-1c-1-1-1-1 0 0l1 1h2l2 1v1l2-1 1-1v3l2-1h3v8l1 8v7h6l7-2 3-3v-11c-1 0-2-1-1-2l1-2 1-1 5-5-1 2-1 3h2l1-2 1 1c-2 2 1 1 3-1s4-2 2 0c-2 3 1 2 3 0l3-2-1 3-1 2 6-6 1-2c1 0 1 2-1 5s-2 3 0 3c2-1 8 2 8 3 0 3 2 0 2-4a244 244 0 014-22c1 1 0 10-1 18v7l-1 2v1l1 2 2 1 2-1 1-4 2-12c0-9 1-10 3-11 5 0 5 0 4 21v19h16l1-10c0-7 1-10 2-10l1-9c0-8 0-10 1-9 1 0 2-1 1-3 0-2 0-2 1-1l1 8c0 4 0 5-1 3-1-5-1-4-2 13l-1 15v2c2 2 3 1 3-4v-6c1-1 1 0 1 4 0 6 1 8 2 6h1l3 1h3v-34l1 17 1 15h1l1 2 1-4-1-4h4a656 656 0 0147 4 851 851 0 01-36-6l-15-1v-10l8 1c39 2 42 3 42 1l-32-3-18-1v-3c-2-7-2-7 7-7a1132 1132 0 002-2h-10v-5c0-4 0-4 3-4l47 1-20-1-26-2c-6-1-7 0-7 5v4l-1-4V78l-1-21c-1 2-1 1-1-3l1-7v-1l-2 2c-1 1-1 1-1-1l1-3-1-43c-1-1-1 1-1 5l-1 7-1-6c1-6 1-7-1-7l-1 5c0 4 0 4-2 4-3 0-3 0-3-4V1l-8-1h-8v11h-4a7744 7744 0 00-76 10c-19 3-46 5-42 3l1-2c0-3 7-4 8-1s3 2 3-1c1-5 0-11-1-10l-1-2c0-1 0-2 1-1l1-2-1-2c-1-1-2 0-2 1l-1 1V4l-2-1-1 2c0 2 0 2-2 1-2 0-2 0-1 1 3 4 1 4-5 1l-6-5V0l-1 2c0 2 0 2-5 0l-8-2-4 1 4 2 4 3 5 3c4 2 4 3 1 3-4 1-12-1-32-9-8-4-13-4-5-1l3 3-7-2c-5-3-8-4-8-2m213 0v17l9-1c9-1 13 0 12 3l1 1v3c-1 1 0 2 1 2 1 1 1 1-1 1l-3-2c0-1-1-2-2-1l-8 1c-9 1-10 2-4 2s6 2 0 4l-4 1h3c3 0 3 0 2 1v3l-1 3c-3 4-3 4 3 4 4 0 5 0 5 2s-1 2-3 2c-7 0-9 2-3 2s6 0 5 3c0 2-1 2-5 2l-5 1 5 1c5 0 5 0 5 3 0 2 0 2-5 2-3 0-5 0-4 1l5 1c4 0 4 0 4 2s-1 3-5 3c-5 0-5 2 1 2 4 0 4 0 4 3s-1 4-4 4h-5c0 1 13 2 16 1l1 3c0 3 0 4-3 4l-3 2h17c19 0 24-1 7-2h-11v-7h20c0-1-4-2-9-2h-10v-6h8l10-1-9-1c-8 0-8 0-8-2l1-3 7-1 7-1-11-1c-2 0-2 0-2-2s1-3 2-3c2 0 1-2-1-2-2-1-2-5 1-5l1-1-1-1-2-2v-2l3-1 2-1 1-4-1-6-2-2-1-3c1-2 1-2-3-2l-4 1-1 1c-1-2 1-5 5-5l3-1h-3l-3-1c0-1 2-3 4-3 1-1 1-1-1-1-1 0-2-1-1-3l-1-3V5l-1 1-1-2c-1-4-4-5-6-1 0 2-2 3-4 2-4 0-4 0-4-2-1-2-11-3-12-2M107 2c0 2 2 4 7 5 6 2 6 3 6 29 0 17 0 18-2 19-3 0-2 2 1 3h3v14c2 0 2-15 0-17l-1-22c0-19 0-20 1-7l1 13V24l1-16-3-3-8-2-6-1m23 6v2h-1c-3 0-3 0-2 1 2 2 3 3 1 2l-2 1 2 2 2 1-2 1c-3-1-3 0 0 1 2 1 2 1 0 1s-2 0-1 2h4v-2l2 2 1 2a47 47 0 011-5h1c1 0 1-1-1-3v-3l8 4c5 1 6 2 7 4 0 3 1 4 1 1s0-3 2-3l6 3c4 1 4 1 5 7v21c1-1 2-4 2-10V26l1-5-5-2c-8-2-23-7-25-9-3-2-7-3-7-2m181 14l-18 1-16 2c-1 2-28 4-32 2-2-1-2-1 1-2l4-2h-4l-5 2c-2 2-3 2-7 1h-7l-3 1h3c7 0 1 2-11 3-23 2-22 2-22 5 0 2 0 2-1 1-2-2-2-2-3 0l-1 1c0-1-1-2-3-2s-3 0-2 2v3h5l2 1-2 2c-3 2-8 3-7 1 1-1 0-2-1-2-1-1-2 3 0 3h-2l-4 1 4 1c2 0 3 0 3 2l-2 2c-2 0-2 0-1 2l3 4 2 2v3c0 2 0 2 1 1 5-1 11 5 16 18l2 6h23c19 0 45 0 32-1-3 0-4-1-5-2-3-5-3-5 6-5h9v3l1 4v-4c0-3 1-3 10-3 6 0 6 0 6 4 0 2 0 3 2 3l1 1c-1 1 0 1 1 1s2 0 1-1l1-1h1l-1-1v-1l1-3c0-4 3-7 6-7 2 0 2 0 0-3-3-6 0-9 5-7 3 1 4 4 1 8l-1 2 4 2c2 0 3 1 3 7l1 3c0-2 0-3 2-2l1-14a1033 1033 0 011-49l-4 1m23 18l1 20v1l-1 3c0 2 0 2 2 2h1l-1 1c-2 0-2 2-1 2v4l1 1 1 1c1 1 1 1-1 1s-2 2-1 4l1 3 2 3 1 2h-2l2 2c2 0 2-1 2-5s0-5-2-5l-2-1v-2l2 1 1 1c2-1 1-18-1-18l-1-1-2-1c-1-1-1-1 1-1 1-1 2 0 2 1l1 1v-7c-2-1-2-1-1-2l1-3-2-1c-1 2-3-3-2-5v-2l-1-4c0-5 0-5 3-5 2 0 3-1 3-4 0-4 0-4-2-4-2 1-3 0-3-1l-1-1-1 19M37 39l2 1c1 1 2 1 1 2l-1 3c0 3-1 4-2 2h-1l2 2 1 1h-7c-6 0-7 2 0 3a54 54 0 0110 1l-3 1c-6 1-8 3-3 3 3 0 5 1 3 2l-4 1h-3l3 2 4 1c2 0 5-1 6-3l-2-1-2-2h1l2 1 1-1h1l2 2 2 2h1l2-2c5 1 6-2 0-4l-4-2-4-3-2-1c1 0 2-1 1-2 0-2 0-2 4-2 3 0 4 0 2 1l-2 2c0 2 3 2 4 1 2-1 2-2 1-2l-1-1h4l4 1c1-1 0-2-2-2l-3-1-13-2v-4h-5m185 16c-1 2 0 3 1 3l1 1c1 1 0 1-2 1s-3-1-3-2c1-1 0-1-2-1-3 0-3 0-1 1 2 0 2 1 2 3l2 2c2 0 3 1 0 2v10c-1 1 0 1 5 1 6 0 6 0 6 3l2 4c1 1 1 0 1-7s0-8-2-8h-4c-3 0-4-1-3-3l1-2 1-5c-2-7-4-8-5-3m175-1c3 0 5 12 2 12v-2l-1-2-1-1-1-2c-2-1-2-1-2 4v6c-1 0-1 2 1 4l2 6 1 3c2 1 3-5 3-17 0-10-1-12-4-12-2 0-2 0 0 1m-257 5c0 1 1 2 2 1 3 0 10 1 11 3h-12c-2-1-2-1-2 2 0 4-2 8-2 5 0-2 0-2-1-1h-1l-2-1-3 1c0 1-1 2-2 1l-1 1c1 1 0 2-1 2-2 0-1 2 1 6l3 10c1 6 1 6-5 7l-6 3h-4l-2 1v4c-2 2-6 3-6 0h-1c-2 2-3 2-3 1 0-2 0-2-2 0l-4 2h-4l2 1 8 1c4 0 5 0 4 1l1 2 15-1h-4l-7-1 3-1c2 0 3 0 2-2l-2-2-1-1h6c8 0 12 1 12 2-1 1 1 2 7 1 4 0 4 0 3-2l-5-3-4-1V88l-1-3v-3l1 1 3 1c1 0 2 0 1-1v-1h1l2-5c0-6 0-6 1-3 1 2 1 2 1 0 0-4 2-5 7-5h5l-5 1c-5 1-6 2-2 3s5 12 1 12l-1 1-2 1c-2 1-2 1 0 4l2 2v-2c-2-1-1-2 2-2 3-1 6-3 5-4h-1c-1 1-1 0-1-2 1-4 2-5 4-4 2 0 2 0 1-7 0-4-1-7-2-7-3-2-1-3 4-3h4l-1-1-2-1-3-1-11-1c-6 0-7 0-6 1m68 13l-3 3c-2 0-2 1-2 3l1 3 1 1c0 2 1 3 11 3 5 0 8 0 6-1-4 0-4 0-4-4s-1-5-3-5-2 0-1-2c1-3 0-5-2-3v3c0 1 0 2-2 2v-6c-1 0-2 1-2 3m83 20c0 1-1 2-4 2l-4-1-1-1v1l-3 1-5 1-7 1c-5 0-5 0 2 1s15 1 20-2c1 0 2 2 3 7v8l1-5a4795 4795 0 01-1-10v-3h-1M72 106c-1 1 0 1 1 1 2 0 2 0 1 1h-5l-5-1 1 1 1 1 4 1c5 0 6 1 6 3 0 3 0 3-5 3-3 0-4 0-2 1 3 1 20-1 20-2h-4l-4-1c1-1-1-6-3-6h2l4-1-4-1-6-1-2 1m-33 26l4 1-3 2H23c0 2-3 4-5 4s-8 5-7 5l5-2c2-1 7-3 12-3 7-1 10-2 16-5 5-2 4-3-3-3h-6l4 1" fill="#d3d3d3" fill-rule="evenodd"/></svg>