<svg xmlns="http://www.w3.org/2000/svg" width="400" height="151"><path d="M0 30l1 29h13l4 2H0v32l3-1 7-3c3-2 5-2 8-2 2 1 4 0 5-1l3-1-1 2-2 2c-1 2-1 3-3 2v2c2 1 2 2 1 2v1c1 1 2 4 2 12l2 11-1 2-2 4c0 2-1 4-3 4l-2 1c0 1-2 2-6 2-12 2-11 1-11 11v8h4l7-2 2-2-1 2-2 2h3c2 0 3-1 3-3s1-3 2-3c2 0 2 1 0 4-1 2-1 2 1 2l2-1h56c1-2 0-2-12-3-9 0-11-1-11-3-1-2-4-5-6-5l-1-1c1-1 0-3-1-4l-2-6c-1-5-1-6-8-5-3 0-5-1-3-2 2-2 1-3-2-3-2 0-2 0 0-1h4l6 2c5 1 7 2 9 8 2 4 3 5 5 4h2l2 3c1 1 1 1-1 2-3 2-3 4 0 4l2-1c-1-2 2-3 3-1h11l-1-1c-1 0-1-1 1-1 1-2 1-2-1-2l-6-1h-2l2-5 2-4 5 1h5c1-1 0-1-3-2-4 0-5-1-5-12l1-8 1-2v-5c1-3 1-3 2-1l1 2v-2l2-5 1-3 1-2 2-3c2-1 5-3 4-4l2-1h22v12l1 18-1 7-2-5c-2-5-5-7-10-5-3 1-4 6-2 6l1-2 1-2c2 0 5 5 3 6v2l-1 1-2-1-1-2-1 1-3 3-4 2-2 1-2 4c0 3 1 4 5 1h2l1-1c1-3 4-4 13-3 4 0 5 0 4 1l-1 1 2 2c0 2-1 2-5 2-9 0-11 1-11 4s0 3 1 1c0-3 3-4 13-4h9c4-1 4-1 6 7 0 3 0 4-2 4-1 1-1 1 1 1l2-2 3-1c2 1 3 1 3-1 1-2 0-6-1-5v2l-1 1c-1 0-2-5-1-6l1 1c1 1 1 1 1-2s0-3 4-5c4-1 5 0 5 6 0 2 0 2 2 1l1-1c0 2 3 2 10 1h6l2 1v4c-1 1-1 0-1-2-1-2-1-2-2-1l-4 1-2 1c1 2-9 2-10 0 0-2-1-2-3-1l-2 2c0 2 3 3 5 3 2-1 3 0 1 2-1 1-2 1-4-1-4-2-8-1-5 2 2 1 2 1 0 1l-4 2-3 2c-1-1-2-1-2 1 0 1 0 2-6 2l-6-1v-2l-1 2c0 2-1 2-4 2l-5 2c-1 1 2 1 26 1l31-2h2c0 1 1 2 4 2 2 0 3 0 2-1l1-2 2 2 67 1a553 553 0 0050-2l-5-1c-3 1-5 0-7-1h-3l-2-1c-2-3 30-5 34-2v2l1 1v2c-1 2 4 2 34 2 26 0 31-1 27-2s-4-1-1-1h3l1-1 2-1c2 1 3-2 2-4-2-3-1-4 2-2l3 1 1 5 1 5h20l1-76V0H0v30m124 17l-12 1-1 8 1 10c1 1 48-1 58-2h6l-7-4c-4-1-7-3-7-4-2-2-5-1-6 3-2 6-8 1-8-7 0-3 0-3-2-2-2 2-5 0-5-2 1-2 0-2-2-2l-15 1m-27 2c-2 4-2 5-2 3 0-1-1-2-3-2s-2 0-1 1 1 1-1 1a730 730 0 00-24 3c2 0 2 0 0 3-1 3-4 5-6 4-2 0-3 2-2 4l26 1h26V48h-7l-6 1m15 43v16h2c2 0 4 1 5 3s2 2 3 1c4-3 19 2 19 6 0 2 1 1 4-1 2-2 2-3 0-6-1-2-2-3-3-2h-5c0-2 4-5 7-5l2-2c0-2 0-2 2-2l2 1v3l3 9 4 2 4 3v-2l2-4h6v1l1-2 1-2 1 1c0 4 3-5 3-10v-5l1 6c0 6 1 6 4 7l3 3 2 2 1-3c-1-2 0-3 2-4s2-1 0-3c-4-3-4-4-1-4 2-1 2-1 1-2l-1-3c0-4-2-7-5-5-2 1-3 1-4-5v-3l-1 4-1 5v-6c0-6-2-8-2-2 0 3 0 3-1 2h-1c0 3-2 2-2 0l2-2-2-3-3-3h-55v16M48 78c-1 1-2 2-7 2l-1 2c0 2 0 2-1 1-2-1-2-1-2 1l1 2 2 4c0 3 1 4 2 4 2 0 4 2 2 3-1 2 1 5 2 4l3 1c2 1 2 1 2-1l1-1c2 1 2 0 2-3s0-3 2-3l2 1 2 1 1 3c0 2 2 3 5 2 2 0 1-12-1-12l-1-2c0-2 0-3-4-5l-5-2c-1-2-6-3-7-2m325 7c-2 3-2 8-3 25v21l4 4c4 3 5 4 5 2v-32c-1-1-2-5-1-6v-2l-1-8c-1-7-2-8-4-4m-101 4l-1 42-1 4 3-2 2-3v-21c0-23 0-25-2-26l-1 6m12 0l-1 1c-1-1-1 2-1 6 0 7 0 8 2 7l1-1c0-1 1-1 1 1v3l-2 1 4 1 5-1 1-1 1-2c2-2 1-5-2-6-2 0-3-1-3-3l-1-3-1 1v4c-1 1-1 1-1-1 0-3-3-10-3-7m-66 24l-2 1c-3-1-3-1-3 1v3l-2-2-3-2-1 2c-1 2-5 3-5 1-1-2-5 0-6 3l-2 4v-7l-2 3c0 2 0 2-2 1h-2c0 2 0 2-2 0-1-1-1-1-1 2s-1 5-3 5h-1c0 3 2 3 5-1s7-5 7-2h2l2-3 2-1 1-1h1c1 3 6 1 7-2h2c2 2 2 2 4 0s2-2 4-1 4 0 2-1l-1-2-1-1" fill="#d3d3d3" fill-rule="evenodd"/></svg>