<svg xmlns="http://www.w3.org/2000/svg" width="400" height="225"><path d="M0 14c0 16 0 16 5 13l5-2 5-3c2-1 2-1 2 1 0 1 1 1 1-1l2-2 6-1 4-3c-1 0-1-2 1-2l1 2c0 2 0 2 2 0l1-2 1-2c3-2 5-1 2 1h4l4-2 5-2 5-1 1-1 14-4 3-1-3 1A625 625 0 011 30L0 50c0 18 0 19 2 19 6 0 19 7 73 36a14119 14119 0 00136 76l-53-27a443 443 0 00-66-34l-1-1h-2l-8-4-5-4-1-1h-2l-1-1h-1l-1-1h-1l-1-1-1-1-22-11-33-18-12-7v60a723 723 0 002 62c0 3 3 5 6 3 2-2 11 2 12 5l3 9 3 7-2 5-3 4h2c2 0 3-1 5-4l4-4c1 0 1 1-1 3l-2 4a104 104 0 0028 0l3 1 3-1 2-1c2-1 2-1 1-2-2-3 1-3 8 1l8 3h99c82 0 98 0 97-1-2-1-2-2-2-4l1-2 3 2c5 3 14 2 14-1l1-1c2 0 1 2-1 5l-2 2h108v-37l1-98V29l-8-3a3558 3558 0 00-70-25h-26v2c-1 2-2 1-3-1 0-2-1-2-22-2h-21v5l-1 6V0h-7c-7 0-8 0-8 2s-3 3-6 3c-2 0-2 0 0-3l3-2h-30l-31 1h-1l-3-1c-3 0-3 0-2 1h-1l-11-1c-7 0-8 0-7 1l-1 2-1-1c0-2-4-2-27-2H90v3c1 2 1 2-1 1-2-2-4-2-4 0v2c-1 1-1-1-1-4 0-2-2-2-42-2H0v14M330 1l5 1 12 3 9 1h1l6 2 6 2h6l1 3c3 2 7 3 7 2h3l1 1-1 2h1c1-2 4-3 6-2 6 3 6 2 7-7V0h-36l2 2c1 2 1 4-1 3l-2-3c0-2-1-2-17-2-11 0-17 0-16 1M183 5c-4 4-4 19-1 23 3 2 4 3 6 0 1-1 1-1-1-3-2-3-3-14-1-15 2-2 3-5 1-6-2-2-2-2-4 1m16-2c-1 2-1 3 1 5s1 6-1 6l-2-2-4-2c-3 0-4 1-3 8 0 5 0 5 3 5l4-2 2-2c3 0 3 4 0 6v4c2 1 2 1 5-1 4-5 5-18 0-23-2-3-3-4-5-2m72 0l-3 21a342 342 0 01-4 23c-1-6-2-8-2-4l2 7c1 3 2 5 1 9 0 5 0 5 1 2a452 452 0 005-58M119 6a951 951 0 007 56c-1-4 1-7 8-19v-2c-2 1-2-1-2-11-1-16-2-21-4-21l-1-1h-3c-3 3-4 2-4-1 0-2-1-3-1-1m214 17l-1 10v2l1 2c1 3 2 3 4 0 1-2 1-2 1 0v2l1-2c1-2 1-2 1 0 0 3 0 3 3 3h2v1l1-1c1-1 1-1 1 1l-6 1-7 1 9 1 9 1 2 1 2 1c1 1 2 1 3-1 1-1 1-1 1 1v2l1-2 1-2v3c0 3 0 3 1 1l1-1h1l1 2v3l2-4 1-5c2-1 1-2-3-2l-4-1h-3l1-2 1-2c-1-1 0-2 1-3 2-1 2-1 2 1-2 3-2 3 2 4 4 0 4 0 4-3l1-6c0-2 0-2-2-2h-2c0-2-2-1-2 1-1 1-1 1-1-1l-1-3-2-3c-2-3-5-4-8-2h-2c-1-2-11-2-12 0-2 1-2 1-2-2 0-2 0-2-1-1-2 3-3 2-2 0 1-1 1-2-1-2v8m-25 2c-1 1-2 2-1 4v6c-1 2-1 2-2 0-2-1-2-1-4 3-4 6-4 6 1 5 3 0 5 2 2 3l-2 4 1 2-1 13a38019 38019 0 006-40M91 26l-3 3 4 27a245 245 0 005 23 2826 2826 0 01-2-21c1 2 2 2 4 1h2v-4l-1-3h-2c0 2 0 2-1 1V41c1 0 3 3 3 6s3 7 5 5c2-3 2-7 0-7-3 0-4-7-1-10 1-2 0-5-2-5l-2 4c-1 2-2 2-4 2s-2 0-3 4c0 5-1 5-2-3-1-5-1-6 2-8 4-5 2-7-2-3m187 14l-1 3v4l-1-3c-1-3-1-3-1 2l1 4c2-1 1 2-1 4s-2 3-1 7l1 1 1-2c3 0 4-3 2-6s0-3 2 0l3 2 1 2c0 2 2 1 3-1s1-2 1 2c-1 5-1 5 2 2l2-2v8l1-1 1-1c1 1 2-3 2-7l1-3c2 0-2-3-3-3l-1 2c-1 1-1 0-1-1 1-4-2-5-3-3-1 1-1 1-1-1 1-2 0-3-1-3l-2 2-1-2c0-4-1-4-2-4l-2-2c1-1-1-2-2 0m-106 2l-1 5c0 3-1 4-2 4l-1-2c1-1 0-2-1-3h-3l-5 1c-3 0-4 0-5 2h-1c-1-1-3-1-3 1s2 3 4 1v1c0 2 0 2 2 1 1-2 2-2 2-1h2c1-2 2-1 1 1l-2 2c-3 1-3 4-1 5 4 1 8 8 4 8v13c-1 0-3-10-2-12l-1-1c-2 1-3 3-2 7 2 3 2 10 1 8-1-1-1-1-1 1s0 2-1 1h-1c0 1-6 2-7 1v-1l1-4 2-2 1-2-1-3c0-2-1 1-3 5l-3 5c0-3-2-1-2 2s0 4 4 5l2 2-3-1h-4c-3 1-8 0-7-1v-8l-2-5v4c0 4 0 5-2 6s-2 1-2-6c0-3 0-3-1-2v11l2 10 2 1 23 14 2-7c1-7 1-8 3-6v8l-1 8c3 2 23 12 24 11s7-2 10-1h1c4-1 6 0 4 4l-1 1c0-2 0-2-1-1l-1 2c-8-1-4 2 26 19 11 6 11 6 18-1 3-2 4-3 4 0l1 1v5c-2 2-2 7 0 7 2 1 3 0 2-1l2-3v-5l1-3 2 2 1 4v6l-1 5 8 4 8 3-1-2c-2 0-2-1-1-3l-1-3-1 3-1 1c-2 0-2 0 0-4l1-5v-2c1-1 0-1-2-1h-3l3-1c2 0 3-1 3-3 0-3 1-3 3 0l1 7c-1 4-1 6 1 11 3 7 3 7 11 3l6-3 3-19c4-25 5-29 6-28v-2l1-4c1-1 2-2 1-3 0-2 0-2 1-1s1 1 1-2v-3l-3 3-3 5c0 2-2 3-2 1h-1l-4 3c-3 0-3 0-2 1v1h-3l-6 1h-4l2-3 1-1 1-2c0-2-2-3-3 0-1 1-1 1-1-2s0-4 1-3h2l-1-2-2-2c-1-2-1-2-1 1l-1 3v3c0 4-2 6-5 5l-2 2c-1 4-1 5 1 5v1c-2 1-2 1 0 2v1c-2 0-4-2-3-3 0-2 0-2-3-1l-3 3-1 2v-2c0-1 0-2-1-1l-1 2-1-1v-2l-2 3-1 4v-7l-1 3c-1 2-1 2-1-2 0-3 0-4-2-4-2 1-1-3 2-6 2-2 2-2 4 0 2 1 2 1 2-3 0-3 0-4 1-3l3 2 1 5c0 5 1 6 3 4v-9c2-4 3-13 1-10-1 1-1 1-1-2l-1-3c-1 0-2 1-1 2 0 2 0 2-2 2-2-1-2 0 0 5l-1 2-1-1-1-1c-1 0-2-1-2-3-1-3-3-4-3-2l-1 1-3 4-2 3-1 3c0 5-2 6-3 0-3-9-3-8 5-17 3-3 4-5 1-6h3c2 1 5-2 3-3l1-1 1-1h-1c-2 1-2 1-3-2-3-4-2-5 1-2 2 3 3 2 0-2-3-3-3-6 0-3 2 3 3 2 0-1-1-2-6-4-6-2v2l-1 4v2l-1-4v-3l-1 3c-2 2-2 2-2 0v-2l-1 2c-1 2-1 2-1-2s0-5-2-5c-1-1-2 0-2 3l-1 9v2h-4l-3-12-1-1-2-3-1-2v5c0 2 0 3-1 2s-1-1-1 1l-1-2v-5l-1-1-1-1c1-1-2-2-4-2l-1 4c1 4 0 4-2 4-2 1-4 0-5-1l-2-2-2 7-1 3-1-2c1-1-2-6-2-5l-2 5v6l-1-2v-7c-1-5-2-6-3-4l-4 2-2 2c-1 1-1 2-2 1l-2 1-1 2-1-2-1-2-1 2c0 2 0 3-2 2l-1-1-2-6-1 2c0 2 0 2-2-1v-6l1-4v-1c1-1-1-13-3-15v-1c3 0 5 1 4 2v1c1 1 2 0 2-1h1c1 1 2 0 1-3 0-4 1-5 3-4l1-1-1-1-2-1 1-1 1-1c0-2-2-2-3 0m46 0l-1 1c-1-1-1 0-1 4v7l2 1v-2c-1-2 1-6 3-5l1 3 3 1 2 1 1 1 2-2 2-2 1-1c0-2-3-3-8-2l-2-1h-1c-2 1-2 1-2-2l-1-3c-2 0-2 0-1 1M70 55c-4 2-4 3-3 4v1l-1 2-1 1-1-1c0-2-1-2-3-1a298 298 0 0022 14l-1-8c-1-6-2-9-4-11l-3-4c0-2-1-1-5 3m152 0v4l-1 3c-1-1-1 0-1 1 0 3-3 3-5 0-1-2-1-2-1 0s1 3 2 3l1 2c-1 1 1 3 3 4s2 0 2-3v-2l1 3 3 11 1-2 2-3 1-4c0-3 0-3-3-4s-4-3-1-4h2c1 1 1 1 2-1s1-2-1-2-2 0-2-3c1-2 0-3-1-3h-4m161 7c-5 5-3 10 2 8l2 1v2l1-1 5-2-1 3v3c2 0 3-9 1-13-3-5-7-5-10-1M3 75l5 16c4 13 7 21 8 19 1-1-9-33-10-35H3m366 6l1 4v4c-4 8-6 10-6 9h-1l-1 2v1h-16l-3 1 17 1h18l-4-2c-4-2-7-7-5-7s6-9 6-11c0-3-3-2-3 0-1 1-1 0-1-2 0-4-2-4-2 0M189 98c-14 0-18 1-14 2v1c-2 0-2 1-2 2 1 1 0 1-1 1l-2 2c0 3 8 6 9 4h5c1-2 30-3 31-1 2 2 3 6 1 6s-5 5-4 9c0 4 4 4 5 0 0-3 3-3 3 0s2 4 4 1 0-6-4-5c-2 0-2 0-1-1 2-2 3-6 1-6-1-1-1-2 1-3l2-2h8c1-1-1-7-3-7l-2-1c-1-2-4 2-4 5h-1c-2-2-3-2-17-2h-14l2-1 1-1 2-2 2 2 4 1 3-1 2-2 1 2 4 1 3-1 1-2c0-2-2-2-26-1m117 8c-1 2 3 7 14 22 13 18 15 20 17 19l2-3 1-1 2-2c1-3 3-4 3-1-1 2-1 2 1 1 3-1 4-5 1-5-2 0-2 0-2-3l1-4h1l1-1c-2-2 1-8 4-11 3-2 4-2 5 3l1 4 1 2v2c1 1 2-4 2-6-1-1 0-3 3-6l5-4h20l1-3 1-3h-49l1 8-1 7-1 1c1 1-1 5-2 5l-1 6c0 4 0 5-2 5-3 0-3-1-1-3v-4l-2 2c0 3-4 0-4-2s0-2 1-1c1 2 1 2 2 0l2-4 1-1c1 0 1-1-1-1-1-2-1-2 1-5l1-4 1-1c1 1 2-2 1-5 0-2-1-2-5-2l-6-1h-1l-6 1c-4 0-5 0-6 2l-1 1c0-2-4-5-4-3s-2 1-2-1h-1m-109 10c-2 2-4 5-4 8l1 2 2 1c2 0 2-1 2-4 0-4 0-5 2-5s2 0 2 2l-1 5c0 3 5 3 6-1 1-3-2-8-4-8l-3-1-3 1m172-1v3l1 5c1 5 1 5 7 1 14-8 15-10 2-10l-10 1m-211 11l1 5 1 5 1 3v3c0 2 0 2-1 1h-1c-1 1 1 2 9 7 5 2 6 3 6 1l1-1 4-1c1 0 2 0 2 2 1 2 2 2 11 2l11-1h1l5 1 5-1-10-5-2-1-7-1-12-3c-2-1-2-1 2-1h5c3 0 2-2-1-3l-4-1h-1l-2 1-3-1c0-2 0-4-1-3l-5 1c1-2-1-3-5-3-2 0-2 0-2 2h-1l-1-4c1-5 1-5-2-6l-3-2-1 4m127 3l1 2h-3l-4 1h-8l2 1 1 1c-2 0-1 2 1 2l1 2c-1 2 1 3 7 4 3 1 3 1 2-3 0-3 1-4 2-4 1-1 1-6-1-7l-1 1m18 11v8l1 2v2c-2 0-5 13-4 15l6-3c3-2 4-3 4-5s0-2 2-1l2 2-8-13v-3h1c0 2 2 4 4 2 1-1 0-2-3-5l-4-4-1 3m90 13a4550 4550 0 01-99 53l1 2c1 2-1 3 63-30 39-21 39-21 39-25 0-2-1-3-4 0m-181 10l16 8 2-4c0-3 0-4-2-4h-1l-7-1-8 1" fill="#d3d3d3" fill-rule="evenodd"/></svg>