<svg xmlns="http://www.w3.org/2000/svg" width="400" height="225"><path d="M0 113v112h47v-54l11-10 10-10v-48l23-22 23-23V0h-3c-2 0-4 1-5 3l-4 2 2-3 2-2H0v113m122-83l1 31-24 23-23 23v48l-10 10-11 10v50h231v-38l23-22 23-23V94l11-10c8-9 10-11 10-13s0-3-1-2c0 2-2 2-2-1l2-1c1 0 2-11 0-11v-1l1-5c0-6 0-6-3-6l-3-1h6V4h8l1 13v13h4c4 0 4 0 4 2-1 4 2 4 3 1 2-4 4-4 6 0l2 4-1 2-3-2h-2c-1 0-1 1 1 3 2 1 2 2 1 3h-1l-1-2-3-2-2-1-4 1-4 1c0 2 1 2 3 2l3-1v-1l2 4h-8v29l5 2c6 2 7 4 0 2l-4-2-11 12-11 11v46l-24 24-23 24v33h67v-2l1-2v2c1 2 7 3 10 1h2c0 2 7 1 7-1h2c2 3 10 3 10 0l-1-2c-1-2-4-2-4-1 0 2-4 0-6-2s-2-2-4-1h-7c-2-1-1-2 1-2l3-1c2-2 2-2 1-4l-4-3-1-1h-2l-2-1v-1l4-2 3-2c1 1 5-1 4-3s2-1 3 1l1 3v-8c1-2 1-2 4 0l5 1c2 0 2 0 1 3l1 4h1l2-2 2 2 1 2v-13h-3l1 1 1 2c0 2 0 2-2 1-1-1-2-3-1-4l-1-1-5-3-6-2-4-2c-1-4-1-5 1-4v-3l-2-1h4l2 1c3 5 12-1 9-6v-3l1-1 1 3c-1 1 0 1 2 1h3v-7l-1-10v-3l-2 3-5 2c-3 0-7 5-5 6 1 1-1 3-2 2-3-2-6-2-6 0-1 1-1 1-1-1 0-3-3-4-6-4-5 1-8 0-8-2 0-4 2-5 4-4 1 2 2 2 2 1 1-1 1 0 2 1 1 3 1 3 5 2 3 0 4 0 4 2l2 2v-4c-1-2-5-6-6-5l-1-1 2-1c2 0 2 0 2-2l-1-2-4-1c-3 0-4 0-5-2l-2-2-3-2v-1h2c0-1-5-2-6-1h-3l-4-1-9-1-2-1h7l10-1c5 0 7 0 6-1l-1-3v-2c-1-1 0-1 2-2 3-2 3-2 1-3-3-2-2-3 1-3l5 1h2l-2-3-2-3-2-2v1c1 1 1 4-1 4v-1c0-2 0-2-2-2l1-2 3-4v-2c1-1 1-1 1 1l1 3 1 2h1c1-1 1-1 1 2v1c1-1 2-3 1-4l1-2 2 2h1v-4l-1-3v-2l1-1c1 0 2-1 2-3l1-2 3 2 3 2 1 2 1 4v3l-1 3c1 2 0 4-1 2h-1l-1 2c-1 1-1 1 1 2 1 0 2 1 2 3 0 1 0 2-1 1-3-1-3 3-1 6v3c-2 0-1 3 1 3l2-1h1l3 1 3 2c1 1 1-1 1-6s0-7-1-6l-1 4c-2 1-6 0-7-1v-1h2l-1-1v-5c0-2 3-5 6-4 2 0 2-5 2-57V0H122v30" fill="#d3d3d3" fill-rule="evenodd"/></svg>