<svg xmlns="http://www.w3.org/2000/svg" width="400" height="225"><path d="M0 52a373 373 0 000 59v3l1-3 2-3v2l2 4 1 2 6 7 10 10c1 2 2 3 4 2l1 1v2l1 3c-1 3-1 3-3 2l-2-2-2-1c0-2-2-4-3-5-2 0-3-2-3-3 0-2 0-2-1-1s-1 1-3-2l-4-2c-1 1-1 1-1-2v-1c-2 2-4 0-2-1l1-4v-2l-1 2c-1 3-2 2-1-2s0-6-2-2l-1 56v54h78l4-22a572 572 0 012 0l-5 22h19c21 0 20 0 20-7l1-3c1-1 1 1-1 8l1 2c2 0 2-1 3-8l1-4h-5c-5 0-10-2-8-4h-2c-1-1 2-1 7-1l9-1-4-1c-6 0-15-2-18-4l-2-1 3-1 22-1h19l29-18a5670 5670 0 0070-42l-1 3c1 0 5-4 6-7a4069 4069 0 0048-34l11-7h11c16 1 15 0 8 8l-4 6h-12c-13 0-18 1-16 5a915 915 0 01-3 0l-54 36-11 7 16 10a1022 1022 0 0023 16l-2 8-1 1-43-29 2-2-12 6-12 7c-1-2-3 1-2 2l-1 1h-1c0 1-42 29-46 30l-12 1h-10l1 1c7 0 13 2 22 9l10 8h156l-1-3 1-4 1 2c0 5-1 5 44 5h42V107l-4-1c-7 0-8-1-2-2h6V0h-39c-36 0-38 0-38 2a318 318 0 0010 18h2c2 2 3 3 3 1l1-2 1 4c0 5-1 6-3 3h-2c-1 3 0 4 3 4 1 0 2 1 2 3l-1 2c-2 0-2 0 0 4 1 3 2 4 4 4h3l-3 1-3 1c0 2 0 2-1 1l-4-2c-2 0-2 0 0-1l2-1c0-4-4-6-6-3-2 2-2 0 0-4l2-4-6-14c-3-10-6-14-6-13l-3-2c-3-3-3-3-13 21-21 46-22 48-27 51l-5 2h-20a1672 1672 0 01-102-4c-6-1-7 0-6 1l-1 3c0 1-1 1-1-1-1-2-1-2-1 0l-1 3c-1 0-1-2 1-16 1-7 1-11-3-35l-3-27h-5c-3 0-4 0-4 2l-8 30c-2 3 2-16 5-25 2-7 2-7-6-7h-8v3l-1 4V0H73L35 1l5 11c6 11 5 11 4 11l-7-11-5-12h-6l-6 1h-1c0-2-3-1-3 1h-2c-1-2-3-2-8-2H0v52m112 8a3232 3232 0 00-15 79c0-6 1-7 3-3l2 2-1-4c-3-4-3-4 6-42a582 582 0 005-32m236 8c11 27 15 39 14 40l-1 2h2c1-2 1-1 2 3a1945 1945 0 007 12 291 291 0 01-11-30l-12-29-1 2m27 18c0 2 23 54 24 53l1 30v30l-3-7a1053 1053 0 01-1 3c5 14 5 15-1 15l-4 1h9v9h-18l-18 1h18c16 0 18 0 18 2a1439 1439 0 000-98c-1 3-3-1-12-22-7-17-7-17-10-18l-3 1M210 96v1l-4 2c-6 3-6 3-2 6 3 2 4 2 4 0 1-4 4-2 4 2 0 3 0 3 1 2h4l1-1v-1l20-10-5-2-5 4-3 1c-3-3-12-6-15-4m-87 9l2 6c1 5 2 5 4 5 6 0 6 0 4 20l-2 18c1 1 1-2 3-16 3-23 2-21 9-21 6 0 7 0 19 8 14 9 12 9 17 6l4-3-11-8-18-11-6-4h-25m209 97c-3 2-3 2-2 3v1h-3l11 1c9 0 11 0 16-2l5-3h-4c-3 0-4 0-3-1l-9-1c-7 0-9 0-11 2m-208 15l-1 6v2h32l-5-4c-7-5-10-7-19-7l-7-1v4" fill="#d3d3d3" fill-rule="evenodd"/></svg>