<svg xmlns="http://www.w3.org/2000/svg" width="400" height="225"><path d="M0 112v113h94a1657 1657 0 0099-1c2 2 54 1 54-1s3-6 5-6c3 0 6 3 6 6v2h143V0h-10l-10 1h-1l-65-1a322 322 0 00-73 1c-6 0-6 2 0 2 2 0 3 1 3 3 0 3 2 3 2 0l2-2c2 0 2 0 1 3l-1 2h-31c-37 0-38 0-38-4V3c-1 0-2 1-1 3 0 2 0 2-1 0V3l-1-1V1L89 0H0v112M328 10c0 4 0 5-2 5-5 0 0 2 6 3 6 0 7 1 7 2 0 2-1 2-2 0-2-2-4-1-3 4 0 3 2 6 2 2h2c3 3 3 2 3-2l1-5 1 1 2 1v1c-1 0-2 1-2 3 0 3 1 3 4 3s5-2 3-3c-3 0-2-3 0-3l2 2c0 5 8 5 9 0 0-1 1-2 4-2l5-1-6-1-10-2-15-2-10-1v-5l-1-5v5m-146 1c-2 1-1 2 1 2l3 1 9 1 9 1h-20l1 4v3h-5a61 61 0 00-10 1l-3 4c0 3-5 6-5 3l-4-1-6-1h-2c-1 1-1 1 4 5 1 1 4 1 4-1l2-1 2 1v1c1 1 0 1-1 1-2 0-3 1-3 2 0 2 0 2-1 1 0-2-6-3-6-1l2 1c3 0 5 2 4 6 0 5 1 5-10 6l-10-1h-1c0 1-3 2-7 2-6 0-6 1-6 3l1 10h1l-1 1h3a202 202 0 0113-1l3-1c2 0 2 0 0 1l-2 2c0 2 6 1 7-1s1-2 3-1c2 2 5 2 7 1 2-2 3 0 3 4 0 5-2 7-8 9-5 1-5 3 0 3h3v10l3-1c2-2 2-2 2 0 0 1 1 2 3 2l2 1 1 2c1-1 1 0 1 2s0 2 1 0c0-3 7-3 7 0l1 1c1-1 4 0 4 2 1 1 1 1 2-1 0-2 3-3 4-1 1 1 0 2-1 3-2 1-3 4-3 6l-2 4v1l-1 1-2-2c0-2 0-2-2-2l-6 2c-3 0-4 1-4 2 0 2 1 3 9 3 6 0 8 0 8 2 1 1-1 1-8 1h-9l-1 4v7c1 3 1 4-2 1-2-2-8-4-8-2l3 2c1 0 3 0 3 2l2 2 1 1c-1 1 2 3 5 2l1-1-2-2c0-3 0-3 8-3 7 0 8 0 8 2l1 2 3 1c2 2 3 1 3-3v-4h8c7 0 8 1 8 3s1 2 4 2c5 0 4 1 0 2-2 1-1 1 1 1 4 0 4 0 4-3 0-5 1-5 9-5h7l1 4 1 2h1c0 2 2 1 3-1 0-3 1-3 8-3h8l1 2c1 2 1 2 2-1 1-4 3-5 9-5 3 0 3 0 2-2-2-3-11-5-23-5-9 0-8-2 2-3 12-1 13-2 4-3-3-1-4-1-4-4 0-2 0-2 1-1 2 2 3 1 3-3 0-1 1-2 2-1l2-1 1-2h2c2-1 2 0 2 3 0 2 0 3 2 3l1-2 2-4 3-1-3-1-3-1 3-3c3 0 4 0 3-1l-1-2c0-2 0-2 1-1l1-6 1-7h7l-2-2-3-2c-1 1-1 0-1-1 0-3 0-3-1-1l-1 3v-3l-3-2c-2 0-3-4-2-7l5-1 4-1c2-2 5-2 5 1 0 1 0 2 3 2l4-1-3-1-3-1c0-1 10-2 11-1h4l3 1h9c1 1 2 0 2-5l1-7a772 772 0 00-37-5l2-2c2-1-1-4-4-5-2-1-2-1 0-2l2-2h-6l-5-3 5 1c1 1 1 1 1-1v-3h-8l-6-1c-2 0-3-1-3-2 0-3-2-3-3 1-2 5-7 3-7-3l2-5c2-1-1-2-7-2-3 0-5 0-4-1l2-1h1l-3-1 5-1c10 0 11-1 2-2-17-1-18-1-19 2l1 2c1 1-1 1-3 1s-4 0-3-1l2-3v-2h-17l-17 1M63 16c-2 2 0 3 8 4s16 1 14-1c-1-1 0-2 4-3s3-1-10-1l-16 1m132 81l-2 5-1 6v2l2 5c1 5 1 6 3 7 2 2 2 1 2-6l1-13-1-5-2-1h-2m7 3l1 1c1 1 2 11 0 18 0 6 1 5 3-1s3-6 4 0c3 6 4 7 4 0l-4-16c-2-2-8-4-8-2m25 4c-1 1-2 2-3 1-2 0-2 1-2 9l1 9c1 0 2-3 2-7 0-3 0-3 1-2l1 5 1 3 1-6-1-7v-2c1-3 1-5-1-3" fill="#d3d3d3" fill-rule="evenodd"/></svg>