<svg xmlns="http://www.w3.org/2000/svg" width="400" height="225"><path d="M0 113v112h401V112a470 470 0 00-4-109c-2-3-3-3-7-3l-5 1 6 6 5 10c0 3-3 3-4-1l-2-3V9h-1c0 1-2 0-5-4l-5-5 1 3 2 3c0 1-2 0-3-2l-3-4h-20l-1 8c0 7-1 8-2 8h-9l-7-1v3l-1 6c-1 3-1-8-1-17 0-7 0-7-2-7s-3 1-3 2l-2 2v1c2 0 2 1 2 2l-1 2h-1l-2 2 1 1c1-1 2 0 2 1 1 1 0 1-2 1l-3-1-2-1-2 1c0 2-3 1-4-1-1-3-2-4-2-1 1 2 0 2-3 2h-4V7c0-6 0-7-2-7s-2 0-2 6c0 5 0 7-1 6l-1-6 1-6h-4c-4 0-4 0-4 3l-2 9V6c0-6 0-6-2-6s-2 1-2 6l-1 7V6c0-5 0-6-2-6-1 0-2 1-2 4l-1 4V0h-17v4l-1 5-1-4c0-6-2-6-2 0l-1 5V5c0-5 0-5-3-5-2 0-2 0-1 2l2 4c0 3-2 3-3 1-1-5-4-7-8-7h-4l1 4c0 4 0 4-1 1l-3-5v2c2 3 3 6 1 6l-1-2c0-3-2-6-3-6v2l2 5h-1c-1-5-4-7-8-7-3 0-3 0-2 1 2 2 1 7-1 7l-2-2c-1-5-2-6-7-6-4 0-5 0-3 3s3 46 1 46-2-3-2-22c0-18 0-18-3-23-2-3-3-4-6-4h-3v22l-1 23c-1 1-1 1-1-1l-1-21 1 10a240 240 0 000-27c0-6 0-6-1 5l-1 11V0h-8v18c1 16 1 18 4 22 3 7 2 7-1 2s-3-6-4-23V0h-8v6c2 14 1 33 0 36l-2 8-1 6v-6l2-8V13c0-12 0-13-2-13s-2 0-1 3a126 126 0 01-1 47c0 4 0 4-1 2l-1-2-1 2c-1 2-1 1-1-3l1-6v5l1-1 2-5c2-4 2-5 1-21l-2-18v17l-1-8c0-7-2-12-5-12v19l-1 20h-2l-1 1h1l1 2-1 7c0 3 0 3-1 2l-1-1-1 1c-2 0-2-10-1-13 1-2 2-4 1-8V14c-1-14-5-20-5-8 0 5 0 5-1 3l-1-7V0H0v113M250 13l-2 2c-2-1-3 5-2 6l6 1c8 0 12 1 12 2 1 1-1 2-5 2-6 0-7 0-7 2 0 4 1 5 7 5l6 1c2 1 4 0 4-1l-1-1c-3 0-2-3 0-3 2-1 2-1 1-2v-2c2-2 1-9-1-9a6178 6178 0 00-16-2l-1-2-1 1m-27 1c-2 1-1 5 1 5a6229 6229 0 0117 0c3-3 1-5-6-5h-12m-1 12c0 2 0 3 2 3l6 1c3 0 4 0 5-2l1-2v2c0 2 1 3 10 3 5 1 6 1 4-4l-2-2-21-2h-5v3m55-1l-1 7c0 5 0 6 2 6l2-1h1c3 4 5 2 5-5 0-6 0-7-2-7l-2 1h-2c-2-2-2-2-3-1m105 0l-4 1-4 1c0 3-4 3-6 0h-2l-5 1c-6-1-6-1-6 1 0 3 0 3 3 3l9 1 6 1 1 1c0 3-3 3-8 1-5-3-7-3-8 0h-2c-1-2-3 6-3 12v7l-1 1v2l-3 25c0 3 3 5 5 3h1l3 1c3 1 3 1 0-4-2-3-1-4 1-2 1 1 1 1 1-1v-3l2 1 2 6c2 5 2 6 6 7h4l1-1c2 1 4-1 4-4s0-3-1-1l-3 2-5-1c-2-1-7-7-5-7l4-1h2c2 2 6 3 5 1l1-2c2-2 2-2 2 0h3c1-1 1-1 1 6l-1 8c-1 2 1 3 11 6l7 2V25h-3l-9-1-6 1m-79 4c-4 5-1 13 5 13 3 0 4-1 5-4l2-4-2-4c-4-4-7-4-10-1m-71 9c0 6 5 11 8 8 1-1 2-1 3 1l4 1h4l5 1 7 2c4 0 6-1 5-6 0-4-1-5-7-5-4 0-4 0-4 3l-1 4v-4c0-3 0-4-4-4-6-1-7-1-7 1h-1c-1-4-6-4-7-1l-1 3-1-3c-1-3-3-4-3-1m43 12l1 7 3-2c0-3 1-3 4-3s3 0 3-4c0-3 0-4-3-4-8-2-8-2-8 6m13 0c-2 9-2 9 4 10h5l3 1c2 1 2 1 4-1s4-2 4 2c0 1 4 2 5 1l-4-15c-3-2-4-1-7 5l-3 5-2-2c-4 0-5-1-5-6 1-5 1-5-1-5s-3 1-3 5m27 1l3 3h2l-3 4c-4 4-4 6 2 7 7 1 7 1 7-1s-1-3-2-3c-3 0-3-1 1-4 5-5 4-6-4-8-6 0-6 0-6 2m-87 1c-1 2 2 3 12 5 9 1 8 1 9-2 1-2 1-2-1-2l-11-2c-8-1-9-1-9 1m141-1l-1 2 2 2c2 1 2 1 1 2-2 2-1 5 2 5h6l1-1 1-3v-1l1-2c1-2 0-2-4-3l-9-1m-38 7l-3 8c0 2 4 1 5 0 2-3 4-2 5 1s5 3 5 0c0-6-4-14-6-15-2 0-3 1-6 6M164 68l-2 1c-2 0-2 0-1 2v5l-1 4c0 3-3 4-3 1l-1-2h-4c-2 0-2 1-2 5v5l-4-5c-3-3-5-5-7-5s-2 0-2 12c0 13 2 16 2 3v-7l1 8 1 8v-7l1-6v6c0 7 2 8 2 1v-4l4 4 3 5 1 2 1 2-2 2-2-1h-2l-6 1h-4v12l1 11 1-5v-5l1 5 1 6v-6l1-5v5c0 6 2 7 2 0v-5h7c6 0 6 0 6-3 0-2 1-3 3-4h3v17h7c7 0 7 0 7 2-1 3 1 4 1 1l1-2 2-1c2-1 2-2 2-4s-1-3-7-3h-6v-5c0-6 1-8 5-6l1-1 3-1 3-1 1-1c3 0 3-2 0-3-4-2-4-4-1-4 2 0 3-1 3-2v-9l2 4c5 9 16 10 22 2 6-10-4-22-15-17h-6c-1-2-3-3-3-1h-8l-3-1-2-2c-5 0-6 0-6-2h-1c0 2-2 0-2-2s1-3 2-1h4c2-1 2-4-1-3h-4m111 9l-1 21 2 3c1 5 2 7 4 6h1v4c1 2 2 1 3-2 0-2 1-3 2-3v3h4c2 1 5-2 3-3-1-1 2-3 4-3s2 0 2 2v2l2-1 2-1 2-2v-4l1-2c1 0 2 9 1 10v5l1-1h8c3 2 3 2 3-1 1-3 0-4-1-2s-3 3-3 1-3-4-5-4l2-2c2-4 4-2 3 2 0 2 0 2 2 1h2l1-1h2l2 1c2 1 2 2 2 5l-1 4h4c2 0 3 0 1-1l-2-1c0-3 7-6 7-3l2 2 2-1 1-2c1-1 2 0 1 3l1 3c0 2 0 2 3-1 3-4 5-10 5-18v-4l-2 2c-2 4-2 4-12 1l-8-4c0-2-3-4-4-2-2 1-27-5-27-7l-1-1-2-1c-1 0-2 0-2 2l-3 1-11-4c0-2-3-3-3-2m21 11l1 3 1 2 2 2 1-2c0-3 6-1 7 3l1 3v-3c0-2 1-3 2-3l1 3c0 2 0 2 1 0 0-2 1-2 3 0 3 1 6 1 7-1 0-2 1-1-14-5-12-4-13-4-13-2m-105 31c-5 11-6 15-3 9l2-2v4c2-2 2-2 2 0 1 1 1 1 2-2 2-5 7-5 9 0 2 3 3 4 2 1v-2l1 2 2 2v-3l-1-3 2 3 2 3-7-17c-2-5-3-6-5-6-3 0-4 0-8 11m24-10l7 1h7l-8 1-7 1h13l-6 1c-7 0-8 2-1 2h4l-4 5-5 8v3h10l9-1h-5l-6-1c-1-1 1-1 5-1h7l-6-1-6-1h5c7 0 9-2 2-2h-5l4-5c3-4 5-6 5-8v-3h-9l-10 1m28 10c-5 11-6 14-3 11l1-1c0 3 4 2 5-1 2-5 6-5 9 0l2 3v-3l-1-3 2 3c1 3 2 3 2 2 0-2 0-2 1 0 3 3 2 0-3-11-4-11-4-11-7-11-4 0-4 0-8 11" fill="#d3d3d3" fill-rule="evenodd"/></svg>