<svg width="20" height="18" viewBox="0 0 20 18" fill="none" xmlns="http://www.w3.org/2000/svg">
<path d="M8.82232 18.0004C8.52173 18.0004 8.25418 17.9664 7.98703 17.8303C6.28261 17.082 5.61453 14.3278 5.14672 12.3216L5.04639 11.8796C4.7458 10.6893 4.47825 9.60105 4.14421 8.5809C4.04388 8.34268 3.97699 8.07083 3.91011 7.83261C3.77633 7.32254 3.60951 6.81247 3.37541 6.37046C3.10826 5.89442 2.84071 5.96248 2.20568 6.16627C1.8382 6.30239 1.40383 6.40449 0.969066 6.33642C0.5343 6.26836 0.334037 5.92845 0.200661 5.69023C0.167218 5.65619 0.167218 5.62216 0.133774 5.58813C0.0668871 5.45241 0 5.31669 0 5.18056C0 4.97637 0.100331 4.77258 0.26715 4.63645C0.668074 4.29654 1.069 3.92219 1.43688 3.54825C2.3725 2.69826 3.34157 1.81384 4.47785 1.09998C5.11288 0.692004 6.11539 0.385717 6.91724 0.62394C7.75253 0.862163 8.35412 1.94997 8.62166 2.80036C8.85577 3.61631 9.02259 4.53476 9.15636 5.38475L9.22325 5.75869C9.29014 6.16667 9.32358 6.57465 9.39047 7.05109C9.52424 8.41115 9.69106 9.94137 10.4599 10.7918C10.694 11.0636 10.9277 11.1997 11.1618 11.1657C11.7299 11.0976 12.2981 10.0094 12.5987 9.4313L12.6321 9.36323C13.033 8.61494 13.4339 7.73092 13.5008 6.949C13.5677 6.23473 13.4674 5.79273 13.2337 5.55491C12.9665 5.28306 12.4318 5.18096 11.4293 5.28306H10.8946L11.0284 4.80702C12.0636 1.64408 15.0046 0.249995 15.9402 0.0798358C16.5418 -0.0222596 18.5468 -0.226045 19.4825 0.997885C19.9503 1.61005 20.1175 2.49407 19.9168 3.61631C19.7162 4.73855 18.2793 9.05735 15.4724 12.9678C14.4365 14.3619 13.033 16.0622 11.0614 17.2866C10.5598 17.5925 9.65762 18.0004 8.82232 18.0004ZM2.87376 5.35072C3.27468 5.35072 3.64216 5.52088 3.9766 6.06498C4.27719 6.57505 4.44441 7.15319 4.57818 7.66326C4.64507 7.90148 4.71196 8.1393 4.77884 8.37752C5.14632 9.4317 5.41387 10.5199 5.68102 11.7102L5.78135 12.1522C6.21572 14.0224 6.81731 16.5727 8.22074 17.1849C8.92266 17.4908 10.092 17.0488 10.6936 16.6748C12.5983 15.5526 13.9352 13.8862 14.9377 12.5602C17.6112 8.81953 19.0481 4.5688 19.2487 3.51462C19.416 2.56254 19.3156 1.91634 18.9482 1.4403C18.2462 0.52225 16.5422 0.692004 16.041 0.794099C15.5397 0.862163 12.9665 1.84828 11.8637 4.5688C12.5656 4.53476 13.2337 4.63686 13.6681 5.07887C14.069 5.48684 14.2028 6.09901 14.1359 7.01706C14.069 7.93511 13.6012 8.88719 13.2002 9.66952L13.1668 9.73758C12.7659 10.5195 12.1308 11.7098 11.2287 11.8459C10.7943 11.914 10.3599 11.7098 9.95861 11.2678C9.02299 10.2477 8.85577 8.58131 8.72199 7.11916C8.68855 6.67715 8.62166 6.26917 8.58822 5.89482L8.52133 5.52088C8.38756 4.70492 8.25418 3.78647 8.02008 3.03858C7.78597 2.29028 7.28472 1.47433 6.75002 1.3382C6.14843 1.16804 5.34659 1.4403 4.84533 1.74618C3.77593 2.35835 2.84031 3.20833 1.90469 4.05872C1.50376 4.43267 1.0694 4.84065 0.634631 5.18096C0.668074 5.24903 0.968668 5.657 1.069 5.657C1.36959 5.69104 1.67058 5.58894 2.00462 5.48684C2.27257 5.45241 2.57316 5.35072 2.87376 5.35072Z" fill="white"/>
</svg>
