<svg xmlns="http://www.w3.org/2000/svg" width="400" height="229"><path d="M0 55v54l18-21c20-24 20-24 28-17 3 3 4 4 3 6 0 3 1 4 17 18 11 9 13 10 15 8 1-2 1-1 6 3l5 6c0 2-15 20-46 58-32 37-46 55-46 57v2h46l6-7c5-7 11-11 9-7 0 1 1 3 4 5 2 2 5 4 5 6l2 3h328l1-115V0h-68l-7 9-8 8-3-2c-5-4-5-4-9 1l-3 4 3 3c3 2 3 3 1 3h-2l-3 2h-2c-2-3-2-3-7 4l-5 6 4 3 3 4-12 15c-12 14-14 15-16 15-5 0-54-38-55-42a6524 6524 0 0024-31c1-2 0-2-23-2h-25l-37 44c-24 29-37 44-39 44-2 1-21-13-18-14l-4-5 1 3-16-12C62 49 58 45 58 43l15-20L90 2l2-2H0v55M242 1l19 16 5-4 7-9 3-4h-17l-17 1m30 10l-7 9 9 7c11 9 11 9 14 5l4-5 4-4 2-3-4-4-9-8-6-5-7 8M150 54c-33 38-33 38-39 38-4 0-6-1-28-20l-10-8c-1 0-12 13-11 14 21 18 33 28 33 30 2 4 1 9-4 15a1473 1473 0 01-46 56l35 29c4 2 8 1 13-5l4-5-6-6c-7-6-9-10-7-15l31-39a6749 6749 0 0059-70c9-9 9-10 14-10 4 0 6 1 13 7l5 4 4-5c9-11 8-13-13-31l-18-14-29 35m119-24l-2 4-2 7c1 5-1 6-4 3-1-1-1-1 1-4s2-4-2-1l-3 1-5 3c-2 2-5 3-6 2l-4 2-3 3 7 5 20 15v-5l-1-2-3-3c-3-1-3-2-2-4 2-3 4-4 4-1-1 2-1 3 1 3h2l3-6c2-4 2-6 1-8s0-3 2-6c3-3 3-4 0-7-3-2-6-3-4-1m-133 90c-30 37-49 59-49 61s3 5 26 24l27 22c3 0 5-2 18-18l13-15-4-4c-4-3-4-4 3-12 3-3 3-3 5-2h4l2-1h2l1-2h-3c1-1 0-2-1-3-1-2-1-2 1-6 4-4 5-5 9-2l4 3a727 727 0 0046-60l-2 1c-2-2-1-3 1-2s0-2-2-3h-2v1l-1-1c1-3-2-5-4-3-3 1-4 1-24-16-7-7-8-7-8-10 1-2 1-3-3-6-8-7-4-10-59 54m26-24l-12 15s45 39 49 41l25-28-50-42-12 14m12-10l-1 2c0 2 0 2-1 1s-1-1-1 1l2 2 1 1h2c-1 1 1 3 6 7l4-2 2-2-2-2-6-5c-5-4-5-4-6-3M26 119l-7 4c-3 3-3 3-6 2-3-2-4-2-6 1-4 2-4 3 0 5 4 1 4 2 0 9-3 6-3 6 3 7l3 1 1 1h1v1h1v1c2-1 5 2 4 3l-1 1c1 1 4 0 4-2l1-1 3-4c1-4 3-5 3-3h1c3-2 3 1 1 3l-2 3 3 3c3 4 6 4 4 1l1-2c3 1 2-1-1-4-1-2-2-4-1-5 1-4 4-9 5-8 2 1 1-10-1-12-1-2-2-2-2-1 0 3 0 4-3 4s-3 0-3-3 2-5 4-3h1l-4-3-7 1m105 14a196 196 0 01-13 15l19 16 5-4c10-13 10-13 9-14a574 574 0 01-15-13l-3-3-2 3m17 26c-8 9-8 8 3 18 8 6 10 7 11 5l6-8 5-6-9-9-9-8-7 8m-4 19c0 1 0 2-2 2v3l-2 6c1 3 0 5-1 5l-1-2h-1c-2 1-1-4 1-5l1-2-3 1-4 3-5 2c-2 1-4 2-5 1-2 0-8 4-6 6l21 19c2 1 6-1 6-4h-1l-1 1-1-2c1-2-1-4-3-4s-3-3 0-5c2-3 2-2 2 1-1 5 2 3 5-3 3-4 3-6 2-8l1-5c4-4 4-7 1-10-4-3-5-3-4 0" fill="#d3d3d3" fill-rule="evenodd"/></svg>