<svg xmlns="http://www.w3.org/2000/svg" width="300" height="300"><path d="M232 45l-1 12 1-1h1c0 2 2 3 2 1 1-1 1 0 1 2l1 3v2c-1 2-3 2-4 2-4-2-13 9-11 14l2 2c2 0 2 0 1 1l-4 2-2-2-1-1c-1 0-2 1-1 2l-2 1h-1c1 2 1 3-1 3l-5 8c-4 8-4 8-2 10 3 3 3 2 5-5s2-8 4-7v11c-1 11-1 12 5 11 3 0 3 0 4 5l1 6h-4c-11 1-11 17 0 17 3 0 8-3 8-5l3 2c5 5 14 3 16-5 0-3-3-8-7-9s-4 0-2-11c0-5 0-6 1-4 1 3 1 3 9-1 5-2 6-3 6-5-1-1 0-2 1-3 2-2 2-2-3-9-3-5-5-7-6-6-2 0-2 0-2-5 0-4-3-11-6-16-1-2-1-3 3-6 4-5 5-8 2-11l-2-3c-2-2-8-4-10-2M54 150c-2 1-2 2-2 8 0 11-6 10 58 10l57-1c2-2 1-15-1-17-3-3-108-3-112 0m165 55c0 3 0 5 2 5v2l1 1-1 2c-2 2-2 2-1 6l2 4v1l-1 3c0 2 0 2-6 2l-6 1 3 1c2 0 3 0 3 4l-1 3-1 1 3 1 3-1-1-1-1-3c0-4 0-4 3-4 2 0 3 4 1 7v1c2 2 3 0 3-4l2-7 2-6 2-6c2-1-2-4-4-4h-2l1-1 1-2h-3c-1-1 0-2 1-3 2-1 3-1 3 1 1 3 5 4 5 2l3-1v1l-1 2 2-1h2c1 0 1-1-1-5-1-2-4-3-6-1h-3c-2-2-9-3-9-1M53 231c-2 3 1 3 41 3l42-1v-2H53" fill="#d3d3d3" fill-rule="evenodd"/></svg>