<svg xmlns="http://www.w3.org/2000/svg" width="300" height="300"><path d="M91 13c-7 3-12 12-11 18 1 2 1 2 1-1l1-3a5404 5404 0 01-1 227v-25l-8 4a674 674 0 01-51 25l2 1c0 2-1 2-5 2l-12 2c-7 2-7 2-7 6s5 9 10 11l37 1h34l1 3c1 3 3 6 10 11h2v1l3 2c4 2 11 2 61 2h58l3-3c5-5 9-14 7-15-1-1 12-1 29-1 36 0 37 0 42-9l2-4V166c0-114 0-107-7-113-3-3-4-3-9 5-13 16-36 43-53 60l-9 9-1-39V49l4-4 3-5-3-8-4-8-3-4-8-7-4-2h-55c-51 0-55 0-59 2m125 19c0 5 0 5 1 2a5605 5605 0 01-1-2M44 50c-32 0-35 1-38 2-6 5-6-2-6 81l1 75 30-13c13-6 17-9 12-9v-2c2-4 4-4 4 0 0 3 0 3 2 2l2-3 1-2v2h1l1-1 1-1c1 1 8-2 18-9l7-3 1-60-1-60-36 1" fill="#d3d3d3" fill-rule="evenodd"/></svg>