<svg xmlns="http://www.w3.org/2000/svg" width="400" height="151"><path d="M0 76v75h110l4-2c3-2 7-3 11-3l15-5 11-5c2 0 9-6 11-9 7-11-3-22-26-28-12-3-12-2-8-17 3-8 3-12 3-23l2-17c2-5 2-11 1-15-2-4-5-7-7-6-2 2-12-12-12-15 0-2 0-2 2-2 6 3 8 2 4-1-1-2-3-2-6-2h-8c-4-1-5-1-8 1l-8 3c-10 1-19 3-22 6-5 2-10 3-10 0-1-2 1-4 4-4l8-2 10-3 4-1-25-1-24 1-2 5c-1 9-2 9-7 2l-5-7-11-1H0v76M306 5l2 15a7725 7725 0 0111 86l-27 10-2-13-3-14-8 3 2 14 1 14c-1 0-2-4-3-13l-3-14c0-1-21 5-23 7l1 14c2 10 2 14 1 15-1 2-2 1-4-14l-2-14c-1-1-25 8-26 9l2 15c3 14 3 15 1 15l-4-15-3-14-14 4c-12 3-14 4-14 6l5 28c0 2 2 2 18 2l16-1 1-1 1 1 6 1c5 0 10-2 39-13a415 415 0 0043-18l7-2v-5c0-4-4-34-6-40v-2h7c15 2 16 4 15 29v19c2 2 20 5 21 4 2-3 1-6-2-8-4-5-4-10 1-15l3-4V85l3-74V0h-63v5m26 121a510 510 0 00-31 12l-31 12 45 1h48l6-3 12-5 6-3-6-2-5-2c1-1-10-6-14-6l-4-1-20-6-6 3" fill="#d3d3d3" fill-rule="evenodd"/></svg>