<svg xmlns="http://www.w3.org/2000/svg" width="400" height="225"><path d="M0 113v112h179l14-26 13-27c0-2 2-1 20 7l18 8 4-1c4-1 5-3 9-9l4-9c-1-1-1-1 0 0l1-1v-1l1-1v-3l1-1v-1h1c1 1 1 1 1-1v-1c1 1 1 1 1-1v-1h1c-1-2 2-10 4-10v2c0 2 1 3 10 8 17 9 17 9 8 25-5 10-5 11-8 10-3 0-3 0-1 1 3 1 5 5 2 5l-3 4c-2 4-3 2-1-1s0-4-3-2l-3 1v1c0 2 0 2-1 1l-1 3c0 4-1 5-2 3-1-1-1-1-1 1v1l-2 1 1 1 1-1-4 8-2 4-2 3h3c2 0 3-1 5-4l3-4-1 4-2 3 10 1 10-1-1-1-1-1c0-1-1-2-2-1l-1-1c0-1-2-7-4-8l1-3 1-2 1 2 1 2 2 4 2 1 1 1v2l1 2c-1 0-1 1 0 0l1 1c0 3 6 3 58 3h53V0H0v113m255-67v2c-1 1-1 1 1 2l2 1 4 2 3 1 5 4 1 1c1 1 8 5 9 4 2-1 1-3-1-4l-2-2-1-1h-2l-3-1-2-2v-1h-2l-2-2-4-2c-3-3-7-4-6-2m-20 39l-5 10c5 4 6 4 7 2l2-2-1 3c-1 1-1 2 2 3l4 1h1c0 1 3 4 8 6l12 6-3-3-4-1 4-7c5-8 5-8 1-10l-3-4c1-2-4-6-6-4l-8-4 1-1c1-2 1-2-2-4-4-3-4-3-10 9m-88 22c-3 2-3 8 0 10 3 3 7 2 9 0 6-6-2-14-9-10" fill="#d3d3d3" fill-rule="evenodd"/></svg>