<svg xmlns="http://www.w3.org/2000/svg" width="400" height="225"><path d="M0 113v112h193l-3-2c-6-4-5-6 13-31a412 412 0 0117-25c-1-2 1-1 13 7 14 10 14 11 19 11 4 1 8-2 6-3l1-1v-1l1-1h1v-2h2a1057 1057 0 0146-65c-8 10-11 15-11 17l-2 5-3 2 7 5c11 7 12 9 8 15-1 2-1 2 2 5 4 3 2 3-4-1s-12-6-15-3c-1 1-2 3-1 4l-1 1h-1c0 2-3 7-4 6l-2 1 1 1h1l-35 50-3 5h7c4 0 6 0 5-1v-1l3 1 33 1h33l3-6 5-5-3 5-3 5 36 1h36V0H0v113m275-62v3l2 1a97 97 0 0017 12c3 2 4 2 4 1 1-2-4-7-5-6l-1-1-2-2c-2 0-3-1-2-2v-1h-3l-1-1-4-2c-4-5-4-5-5-2m-14 7l-3 5-3-3c-5-5-17-6-24-2-10 4-15 11-26 34l-12 21-3 5v2l1 1c2 0 10-11 17-27l12-21c9-14 23-18 33-9l3 2-23 32a561 561 0 0019-25l13-19-4 4m-8 25l-6 9 2 2c2 2 3 2 4 0 2-1 2-1 2 1-1 2 3 6 5 4h1c0 2 5 4 6 3l4 2c1 1 2 2 3 1 1 0 1 1-1 3-1 3-1 3 2 5l3 2 2-4c4-4 4-5 0-7l-3-2 5-7 5-6-3-3c-1-1-3-2-4-1l-4-2h-4c-2 2-2 2-5 0l-3-4c1-1-3-5-5-5l-6 9" fill="#d3d3d3" fill-rule="evenodd"/></svg>