<svg xmlns="http://www.w3.org/2000/svg" width="383" height="300"><path d="M147 2l-11 4c-10 2-18 7-24 12l-8 8-9 7-2 4-1 3-2 4-2 4c1 1 0 3-1 4-3 5-5 9-5 15 0 5-1 6-4 8l-20 9-18 8-20-8-19-8-1 10 1 11 3 2H3c-3 0-3 0-3 4 0 5 0 5 3 0l3-3 1 2v4c-1-1-1 0-1 1s-1 3-3 3c-3 1-4 5-2 6v1l-1 2c0 3 1 3 20 5l9 1-28 4-1 13v12h5l-2 2c-2 2-2 3-3 12v11l3-3 4-3 1-1c1-1 1-1 1 1l1 3 3 5c1 4 1 4 3 2s4-2 4 1 6 1 8-3c3-5 2-6-1-6-2-1-3-2-2-3l-1-1-1-1c1-1 4 0 4 2 1 2 4 3 5 1 1-1-2-2-3-2l-1-1 1-1c2 0 1-2-2-3-3 0-7 2-8 5l-1 2v-1l-1-4c-1-1-1-1 1-1l4-1c3-2 13 0 10 2v1c1 0 2 1 1 2h7c0 3-4 8-6 8-1 0-2 5-1 6l2 1c2 0 2 0 1-3 0-2 0-2 2 1l1 4h-7l-1-1v3h-2l-1-2c1-3 1-3-2 0s-7 3-7 0c1-2-1-3-3-2l-1 3-1 2v4c0 3 0 3-1 2-2 0-2 0-1-1 2-1 0-2-3-1-4 1-6 4-3 5 2 2 4 2 6 0 3-3 4 0 2 4-3 2-2 4 0 2 2-3 5-1 5 3v4l-5-2c-7-2-8-1-8 2 0 2 0 3 4 2h5l-3 2-5 2-1 2-1 2-2-2c-2-2-2-2-1-4 1-1 1-2-1-3-1-1-1 0-1 5 0 6 0 7 2 7 3 0 3 2 1 4-4 2-4 4 0 4l2 1 3 1h10l3-1h6l4-1c-1-1-1-1 1-1l1 3v2l3-2c2-2 2-2 2 0l-2 9c-1 11-2 15-3 15-2 0-2 0-1 1v2l-2 1h-2c1 1 0 1-1 1l-2-1-2-1h-2l1 1c1 0 2 1 1 2-1 3-3 1-3-3h-1l-2 1c-1-1 0-2 1-2l1-1c0-1-2-1-4 1-1 1-1 1 1 3 1 1 1 1-1 1-1-1-3 0-4 1l-3 1H7c-1 1-2-1-2-2l4-1c2-1 3-1 2-2H5l-1-1c-2 0-3-9-2-11v-1l-1-7-1 25v32h5l8-2c1-2 8-6 14-9a86 86 0 0022-15c2 0 2-3 1-5-1-1 0-3 1-5l2-5 2-5 1-3 2 2 1 4c0 2 2 3 2 1s11-9 14-10c4 0 4 0 3 2l-2 2c-1-1-5 3-4 4h-1c-1-1-1-1-1 1 1 2 0 5-2 4h-1l-2 2-1 1-1 1-1-1c0-3-2-2-5 1s-4 6-6 12l-6 21c-1 2 0 2 19 2l20-1h2l1 1v-1h2a6603 6603 0 00191-2c-1-1 2-6 4-6l1-1-2-1-1-1 3-1c2 0 4-1 2-2h-2c0-2-1-2-1-1l-2 1v1c0 2-1 1-3-1s-2-4 1-3l2-1v-1l1 1h1l1-2v-1c-2 0-2 0-1-1 2-1 2-1 1-2l-1-2c1-2 4-1 4 1l2 1 1-2c-1-1-1-1 0 0l1-3-1-6-1-4-1-4-1-5-1-5-1-2v-4c-1 1-2-3-2-4l-1-2v-2l-1-1-4-8-1-1-2-1c-1-2 0-4 1-3l1-1-1-3-2 1h-3l3-2 3-1-3-1c-3-1-3-2-3-3 1-2-1-3-1-1l-2 1v-2c1-1 1-2-1-4-3-4-8-7-9-6l-1-1c0-3-3-2-4 1-2 5-1 31 0 36 3 6 2 13-1 15h-3v-3c-3 0-5 2-4 3v5l-2 3-2 5v2c4 0-6 14-10 15-2 0-2 0-1-1 1-2 1-2-1-2v-6l1-1v-5l1-4c-1-1 0-2 1-3v-3l1-5 1-4v-3c1 0 2-1 1-2l1-3 1-1c-1-1 0-2 1-2v-3h3v-1c-1-1-1-5 1-8v-3l1-1v-2l1-1 1-1 1-2v-3c2-1 4-7 5-13 2-5 2-5 10-2a72 72 0 0135 32c0 3 8 11 12 13l4 3-3-1c-3-2-3-1-1 5 2 7 3 14 2 17l-4 9-7 13-3 5v-6c1-6 0-6-1 0-1 5-4 13-5 12v-1l-1-1-3 3c-2 3-2 3-4 2l-2-1 1 2 1 1 8 1 9-1 2-3v-1c-2 0 2-4 4-4 1 0 3 5 3 8l7 1c4 0 5 0 4-1l-1-2 2 1h5v-2l1 3c-1 1 7 1 17 1 21 0 19 1 13-11l-15-23c-4-5-4-5-1-5 2 1 3 0 4-3l3-3-1 5c-2 3-2 3 1 5h4c1-2 2-8 1-12v-2c2 0 3 10 1 13s-2 3 1 5c11 5 28 21 29 27v-93l-4-1-5 1c-1 2-4 1-12 0a2731 2731 0 00-99-14c-7-1-8-3-1-2h5v-3c0-5-1-6-4-5h-3l2-3c1-2 2-2 2-1l1 2v-3l1-4 2-4-5 5c-2 3-12 8-13 7l2-4c3-4 3-4-4-3l-7-1c-1-2-1-2 2-2 4 0 13-3 15-5s5-1 4 2 3-1 6-6l2-3c0 2 0 2 1 0 2-1 2-1 1 2l1 5 1 4v5l1 8c0 7 0 8 2 8 3 1 3 0 3-4 1-6 3-6 3 0 0 4 0 5 2 5l3-1c-1-2 1-1 3 1l25 4 1-18c1-15 1-18 3-22l3-5 3-2c2-1 2-2 0-5-1-3-3-3-3 0l-2-1c-2-2-2-2-1-4 2-1 2-1 1-2l-1-5c0-5-2-6-6-6-6 0-11 8-7 11v1l-1 1c0 2-4 4-5 2v-2c3-3 0-8-4-6-2 1-2 1 0 2s2 6 0 8-4 7-6 18l-3 8c-3 0-1-19 2-24 1-2 1-2-2-3-2-1-2-1-2-4 1-4 0-6-3-6s-2 3 0 4c2 0 3 2 0 2l1 1c1 1 1 1-1 1-4 0-7 2-7 5-1 2-1 0-1-4l1-8c1 1 2-1 2-5l1-4 1-6 1-3c2 0 3-14 2-15v-2c2 0 0-23-3-27v-3l-3-3c-2-3-3-5-1-5 1-1 1-1-1-3l-3-5-2-4c-2-1-3-2-3-4l-3-5-3-4-1-2c-3 2-5 2-6 0-1-5-6-14-6-14l-1 2c0 2 0 1-7-6l-12-9-4-3h-36c-32 0-36 0-41 2m3 70l-10 5-2 2-2 1-1 1c-2 4-26 17-26 14v-2l-1-3-2-1-3-1h-2l-3 1c-1 0-3 2-4 5l-5 7-2 4c0 2 2 2 2 0 1-2 5-1 7 1s2 2 4 0c1-2 2-2 2 2 2 5 3 6 3 3l1-3c1-2 4-2 4 0h4l2-2h4c3-1 4-2 5-1h2l8-1 12-1h1c3 1 13 3 13 1v-1l2 1 3 1 3 1h3l2 1c-1 2 0 2 4 2v1l2 1 2-2h-2v-1c2-2 2-2 0-3l-2-2h2c3 0 7 3 6 4l1 1v1c-1 1-1 1 1 2 2 0 4 3 1 3v9l-1 1c1 1-1 5-3 5l-1 2h-1c-3 0-10 3-10 4 0 2-3 4-9 6-6 3-21 2-27-1-5-2-8-2-8 0 0 1 0 2-1 1l-1 1c1 1 1 1 0 0l-2 1-1-1-2-1-3 3-2 2 8 4-1 2h-1v1c2 0 2 2 0 4v3c2 5 1 13-2 17-2 4-2 4-1 5l2 3 2 4c2 2 2 2 2 0h1c0 1 0 2 1 1l2 2 2 2h2l2 1h1l3 1c2 0 2 0 2 2h1c2-2 3-3 2-1l1 2h4c-1-3 2-5 4-3h1v-3c-2-1-2-9 0-10l2-3h-3v-1l1-1 1-2 1-3h2l2-1h1l1-1 2-2c2-1 3-2 2-4l1-2 1-1c0-2 2-3 4-2 1 1 1 1 1-1s3-5 5-4c2 0 2 0 1-2-3-3 0-5 4-4h3l1-3c-1-3 0-4 1-2 1 1 2 0 4-2s3-3 4-2c2 0 2 0 1-2l1-1h5l2-1c1-1 3-2 3 0l1 2 2 1v-2l1 1 1 1c2 0 3-4 2-4v-1c2-2 1-10-1-13l-2-3c0-4-1-6-4-9s-5-4-7-3l-2-1c0-2 0-2-1-1h-1l-1-1-3-3-4-3c-2 0-2 0-1-2 1-3 2-3 2-1 1 1 1 1 1-2l2-4 2-7c0-6 0-6-2-5h-1v-3h-5l-1 1h-3c-1 3-6 1-7-2 0-3-1-3-4-4l-3 1h-2c-1-1-2 0-4 1-3 2-3 2-3 0 1-3-1-2-11 2m228 0c-2 2-6 3-12 2-4-1-4-1-4 1s1 2 9 4c13 2 12 2 12-2 0-5-3-8-5-5m-275 45c-1 3-2 7-5 10-3 5-4 6-5 4l-2-2c-1 1-4 0-3-1l-1-1-1-1-1-2 2-1c2-1 2-1-2-1-3 0-4 0-3 1 2 4 1 6-2 6a396 396 0 00-26 1H42v6l8-1h8l3 4c3 2 4 4 4 7 0 2 0 3 2 3 4 0 9 9 9 16 1 6 4 13 6 13l1-1c-1-2 3-7 7-9 4-3 5-6 2-6-2-1-2-1 0-1s3-1 3-2h1c1 1 1 1 1-1 1-1-1-4-3-4v-1l-1-1v-3l2-5c0-3 4-8 7-9l2-2 1-1 1-2 1-2 1-1v-2c1 0 1-5-1-7l-3-4c-1-1-1-1-1 3m149 6c-7 3-8 4-8 7s1 3 11-2c9-5 13-6 16-3h2l-3-3c-4-4-9-4-18 1m82 6l-2 3-1 2-1 5c0 5 2 5 3 0 2-7 2-7 1 0l-1 7v1l1 4-1 7c0 2-1 3-3 4l-1 2c1 1 1 1-1 1s-2 0-1 1c2 0 2 0 1 2-1 0-2 2-1 3h-2v4h2l-2 1v3c-2 2-2 2 0 3l-1 1c-3 1-2 3 1 3 4 0 5-1 6-3 1-1 1 1 1 3 0 4-1 5-2 5h-1l2 1 1 1 5 3 3 1 4 1c6 1 12 1 14-1h1l1 1 1-1c0-2 1-2 4-2l4 1c0 1-4 4-7 4l2 1h19v-11c0-9 0-11-2-12h-2l-2 1c-1 0-2-6 0-8 1-1 1-1 1 1-1 3-1 3 2 3l3-1-1-1-1-4 1-4 1-3c0-2 0-3-2-3l-2-2 2-3c3-1 3-19 0-20-2-1-3 0-4 1l-3 1-3 1c-1 2 0 6 2 6v1h-1c-1 0-3 2-3 4 0 3 3 6 5 6s3 2 0 2h-2c-2-2-7-2-8-1h-3c-1-1-1-2 1-3 3-2 2-7-1-6-2 0-2 0-1-1v-4h2c2 2 2 2 2 0 1-2-2-4-3-3l-1-2c0-3-2-4-7-4l-4-1c-2-4-11-5-15-2M41 140c-5 3-4 7 2 8 3 0 3 1 1 2h-6c-2 3-1 4 1 4s2 0 1 1c-1 2-1 2 1 3 3 2 8 0 9-2h-2c-4 2-5-1-2-3s4-5 2-5-2-1 0-3c3-4-1-7-7-5m191 4v14l1 2 2 3v-1l1-1c1 1 1 0 1-2s2-7 2-4l3 1 2-1v-3c1-2-1-5-4-5-2 1-3 0-3-1-2-3-4-3-5-2M18 201l2 4 2 1h1l1-2 1-1h1c-1 3 12 3 14 1 1-2 1-2 3 0l2 3 1 1 2 1c1 2 1 2-1 1l-4 1c-2 3-3 2-3-1l-1-3-1 5c0 4 0 4 3 3 10-2 12-5 7-9l-3-4c-1-3-10-4-18-2-4 1-5 1-7-1-2-1-2-1-2 2m81 7h-1l-2 1-2 1v1c1 1 1 1-1 2l-1 1c2 0 2 0 0 2l-2 3-3 1-4-1h-1v2c1 2 1 2-1 3-3 1-3 1-1 3v1c-2 0-2 1-2 2 1 2 0 3-2 4-2 3-2 3 0 4s2 2 1 3l-1 1c1 1 2 2 1 3v3l2-3c2-2 2-2 1 0 0 3 1 2 2-1l2-3 1 1v1l1-1c-1-1 0-2 1-2l1-2 1-3 1 2c-1 3-1 3 1 2l2-3v-1l1-2v-3l1-1h-3l1-2 1-2-1-1c1-1-1-2-3-1l-2 1 2-2c2-2 3-3 2-4h3c2-2 2-2 2 1s0 3 1 2l2-2c-1-1 1-5 2-5l1 1h3l-1 2-1 8 1-3c0-2 1-3 2-3l1 2h1c2-1 0-4-1-3l-1-1 2-1h1c0-1 1-1 2 1l1 5v2l1 1c0 2-2 3-2 2-1-1-1 0-1 1l1 2 1 2c0 2 0 2 3-1s5-1 4 4v4l1-3 2-1 1 1v-1l1-2c1-1 1 0 1 1l1 3c1 1 1 1 1-1v-2l1-1c-1-1 0-4 1-3v-1l2-5c2-1 2-2 1-2-1 1-2 0-3-3-1-4-3-6-3-3h-1c-3-1-7-1-6 1l-1 2-2 4-2 1a353 353 0 001-6c1 0-2-6-4-6l-1-2-4-2h-8m11 27l-2 1-2 2v1c-4 0-9 19-6 23 1 1 1 0 1-4v-4c0 3 1 2 3-1l1-2 1 2 1 3v-3l1-5 1-2 1-3c3-2 3-9 1-9l-1 1m-25 40c1 2-1 5-2 5v-1l-1-1-2 3-1 2v-5c-3 2-1 12 3 12v2l1 1 1 1 2 2v-1l1-2c3 0 2-2 0-3s-3-3 0-3h1l-1-2c-1-1 0-1 1-1l2 1v1c3 0 5-7 2-8-2 0-3 1-1 2l1 3c0 1-1 1-2-1l-3-2-1-1h1l2-1v-4h-3c-1-1-1-1-1 1" fill="#d3d3d3" fill-rule="evenodd"/></svg>