<svg xmlns="http://www.w3.org/2000/svg" width="383" height="300"><path d="M41 2L17 3H0v19l1 20v1L0 60c0 12 0 16 1 15l1 1h15l1-1v-1c2-2 2-10 1-10-8-3-10-3-9-4h5l3-1c3 2 6-11 5-22l1-8 1-7 2-1h3c1-2 3 0 4 4l1 8v10l2 14c1 4 1 4 5 4l37 1c2 1 4-2 4-8l1-7 1-11 2-11c0-2 4-3 4-1l2 1c2 0 2 0 1 1v1l1 10 3 27h4c6-1 13 0 14 2l1-1h4v5c-1 4-1 4-4 3-4-1-13-2-15-1-3 1-2 3 1 5 2 1 3 2 2 4 0 2 0 2 4 2l4-1h1l2 1 2-2v-1l1 9c1 8 1 9 3 11 3 3 5 3 5 0 1-2 2-3 3-1v2c0 2 5 3 6 2h1l2 1 2-2 1-2c1 1 5-3 5-4-1-1 0-3 2-4 2-3 3-4 0-6v-1l1-2v-2l2 2c1 2 7 3 7 1l-1-1-1-2-3-3-2-1-2-3c-3-2-2-3 1-2l4-1-5-1-1-2v-3l2-3c0-2 0-3 1-2l1-1c-1-2-1-2 1-1l2-1 1-1h2l8 1h6l10 1c12 0 20 1 24 3h29l7 1 2 6 3 12c0 4 0 5 1 4v-4l1-5 3-16a1202 1202 0 016-37c-1-2 2-3 5-3l2-1 2-1-1 2c-2 3-2 0 1 45 0 8 1 11 4 14 5 4 4 10-1 13s-20 2-22-1c-1-1-1-1-1 3v5l-3-2c-4-2-11-2-16 1l-9 2-3 1-2 1-3 1-1 1v-1l-2-1h-2c0-2-8-4-9-3l-3-1-12-3-5 1h-1l-2 1-6 2-4 2-1 1c-2 0-8 8-8 10s3 6 6 7l3 2h2l4 2 3 2 1 1 3 1c2 0 3 2 1 2v2h3l2 1h2l2-1c1 1 4-1 6-3 3-3 5-4 7-4 3 0 5-2 7-7l3-4h3l4 11h1l6 4c4 4 8 6 11 5 2-1 0-4-3-4l1-1c2 0 4-2 5-4 1-3 3-4 4-3 1 0 6-7 6-10l1-13c2-1 7 1 7 3h5c2 1 5 0 4-1 0-1 2-2 9-2l13-1h6l2 1 4-1c3 1 4 0 4-1l-1-2-4-3c-3-3-6-5-8-3h-4c-2-1-2-2-1-2 1-1 0-1-1-1-2 0-3-3 0-3l1-1 4-1c8 0 14-4 14-9l4-15-1 30-1 19c-3 48-2 44-8 43h-4l4-1 4-1-12-1c-3 1-8 0-8-1 1-2 2-3 6-3l3-1-4-1-4-1-5-2-4-2 3-1c4-2 5-3 2-6-1-2-1-2 1-2a428 428 0 0011 1c0 2 1 3 5 4 6 0 8-4 4-8l-2-3c1-1-5-4-6-4-1 1-2 0-3-1l-9-2h-14v3c0 4 0 4-2 3-4-1-9 0-11 4-2 3-2 14-1 19v5c-2 4-5 4-4 1v-10c-1 3-2 3-4 3l-1 2 2 1v5l-1 2-1 2c0 5-2 10-4 10h-2l-2 1-2 1-6-1c-7-4-8-5-4-7 7-4 5-8-2-7l-8-1h-5l-4 1h-5c-2 1-2 1-2-2 0-2 0-2-1-1-3 3-1 8 7 12l1 1-1 1c0 2-3 3-4 2l-1 1-1 2h-2l-5-1-6 1h-4v-1l-4 2c-1 2-2 2-4 1-1-1-2-2-1-3l-2-1c-2-1-3-6-1-7 3-1 3-5 1-4l-2-1v-3l-1-1-1-3c0-1 0-2-1-1l-2-1-1-1-2 2-1 2-1-2c1-2 1-3-1-2l-2-2-1-2h-2l-3-3-3-1-3-1-2-1-1 1c-2-2-4 2-4 6 1 6-1 8-8 10-4 1-4 1-8-1l-3-5c0-3-4-6-9-6l-5-1h-2c-2-1-2-3 1-3l2-1v-2l-1-1 2-2 2 2h5c0-3-1-5-2-5l-4-2-5-3v-1l-2-1-2 3-2 2c-1 1-1 1 1 1l2 1-1 1h-2l-2-1-2-2a550 550 0 01-17 1l-19 1c-9-1-9-1-17-9l-4-3-1 2v5l1 3c0 3-4 2-5-1l-1-2a377 377 0 00-5 0l-3 1c-2 0-3 1-3 2l-3 1-2 1c0 1-1 2-3 2l-2 1H5l-1-2-2-1-2-1 1 2v1c-2 0-1 32 1 32 3 2 7 2 7 1 0-2 4-1 7 1l8 2a640 640 0 0123-1c2-2 3-2 3-1h3l3 1h1c1 1 7 0 21-1 15-1 16-1 17 1s2 2 5 2l10-2c17-1 18-1 18-7 0-4 3-4 3 0s4 13 5 12v2h1c1-1 1 0 2 3l1 7v7l-1 6-3 4-3 3-3-2-4-3-1-1c-5 6 22 43 45 59 6 5 8 6 8 5 0-2 1-2 4 0l3 1 2 1 4 2c3 0 4 0 3-1v-2l1-2 1-2 1-3c0-3 1-9 3-12 1-2 3-2 2 1 0 2 0 2 1 1l1 1v1l1 2 1 1v5c1 1 0 2-1 4l-1 5-2 2h4l2-2c-1-1 0-4 2-4v3c4 0 11-21 10-31-1-5 0-10 2-10 3 1 6-1 6-3l3-5 3-6c-1-2 0-2 2-3h2l-2-2c-3-2-1-5 3-5h1v-4c-3 0-2-3 0-6l2-5 2-5 2-5 2-4 1-1c-3 0-2-2 0-2 1 0 2 0 1-1l1-2h28c9 1 20 0 20-1l-5-1c-5 0-5-1 0-1l5-1h2c2 1 2 2 2 10-3 33-4 45-6 48v7c2 3 2 4 1 13l-2 10 1 15a319 319 0 011 34c0 3 0 5-2 7l-2 3c0 2 40 1 49-1h14l15 2h11v-12c0-9 0-12-2-14v-2c3 0 3-13 0-15-2-1-2-1 0 0h3v-22c0-18 0-23-1-22l-2-1c-1-1 0-1 1-1a395 395 0 001-83l1-63V1l-39-1c-38 0-39 0-39 2 0 4-20 6-24 2-2-2-4-2-6-2h-6c-2-2-7-2-7-1h-1l-5-1c-3 0-3 1-3 3l-7-1h-8c-2-2-9-2-11 0-3 3-11 3-31 1l-18 1h-5l-5-1a3777 3777 0 01-21 1h-10c-7 0-8 0-10-2-2-3-11-3-13 0l-2 1H97C71 3 64 2 63 1c-2-1-13-1-22 1m-3 68c0 3 0 4 4 7l3 2h29l4-3c3-4 3-7-2-8a2555 2555 0 00-29-2l-9-1v5m3 18c0 1-6 3-13 4l-8-1-1-1-3-1-8-1-6 1-1 3c0 3 1 3 2 3 7-2 15 1 20 6 2 3 15 3 13 1-1-1 3-5 4-5 6 1 10 0 10-2l-2-3-2-2-1-1-2-1h-2m57 2c-2 2-4 2-11 2-10 0-11 0-11 3 0 2 0 3-3 4-5 3-7 8-1 5 2-1 4 0 2 1v1l2-1h1c1 1 3 1 10-1 4-1 4-1 7 2 2 2 3 3 9 3l6-1h1l1 1v4l2 5c0 2 0 2 1 1l1-4c0-6 3-8 5-3l-1 5c-3 6 1 14 5 9h2v2l6 3-2-3c-3-2-1-10 2-10 2 1 2-3 0-5l-3-1-7-6-6-5c-2 0-5 2-5 4l-1 2c-1-1 0-5 2-7v-2l-1 1h-4l1 1v1h-7l-1-2 2-4 1-2-1-1v-4l-4 2m-44 39l-7 1c-7 1-11 3-9 4 2 2 23 2 26 0 2-2 2-3 0-2v-1l-1-1h-2l-7-1m22 50c0 2-2 3-4 4l-5 2h-2l-3-1-2 1-1 1-2 2c-1 2-1 3-3 3h-6c-3 0-4 0-3 2 0 3-1 4-5 4h-2l2-1 1-2c-2 0-1-2 1-3l1-1-5-1 1-1 3-1c1-2-2-5-6-4h-3l-3 1c-1 1 0 4 2 4 1-1 1 1 1 4l2 3c2 1 1 1-7 1l-8-2c-3-3-9-2-13 1l-5 3-1 3c0 2 0 2 1 1 2-1 5-1 10 1l10 1c9 0 9 3 0 3l-4 2h-2l-1 1c0 2-3 2-6-1l-3-2H3c-2-1-3 0 0 2v3c-2 1-2 4-2 11 0 9 0 9 2 8s7 0 7 2l-8 2c-1-1-1 2-1 10v11l4-5c10-18 22-32 35-39 7-5 8-5 6-6-5-1-3-3 2-3 6 1 11-2 26-10 8-5 10-7 6-12-3-5-2-5-4-2m190 1l-3 2c-3 1-3 1-2 3v1l-1 2 2 1 1 1h5c2 0 2 0 0 2v2l1-1 4-3 2-2-1-2h-1l-1-2-2-1c1-3-3-5-4-3m9 11v3c0 1-2 2-4 1l-2 1c-2 1-5 2-7 1l-5-1-6-2-7-1c-2 0 7 5 13 6l9 4c4 1 5 1 5-1h2l5-2c7 0 10-2 8-4l-2-1-2-1-1-1-3-1c-1-2-2-2-3-1m27 19c-3 1-3 1-1 3l4 1 4 1c19 4 34 5 39 3l3-2-2-1c-2-2-13-4-15-3l-3-1h-6l-5 1a1058 1058 0 0123 3c-1 2-11 2-18 1a6047 6047 0 00-20-6l2-1c0-1-2-1-5 1m56 4c-1 2-1 2 1 4 3 2 20 3 23 1 2-2 0-4-4-5l-4-1h-7l3 1c3 0 3 0 2 1l-1 2h-9l-1-1h2l2-1 1-1c-1-2-6-2-8 0m-206 37l7 8c8 8 12 13 12 15l1 2c2 1 5 6 4 6l1 2c2 2 2 3 1 5l-2 2-1 1-2 1-2 2-1 4v1l3-2c1-3 3-3 3 0 0 2 0 2 1-1s4-6 3-3c-2 6-3 6 7 6 5 0 8 0 7-1l-2-1c0-3 0-3-2-1s-3 1-1-2c1-2 1-2-1-3-2 0-2-2-2-5l-1-2-2-1-3-4c-2-2-4-4-4-6l-3-3-2-2c1-2-5-8-8-10l-1-2-2-2-4-2-4-2m-86 21l6 6 12 14c3 5 6 8 7 8 3 0 2-1-1-6-6-8-24-25-24-22m129 6c-7 2-7 3-1 2l7 1c1 1 3 2 5 1 2 0 6 2 6 4l2 5 1 4c-2 0 4 4 5 3l2 1c-2 2 1 1 4-2 2-2 2-2 3-1h2l-1-3-2-3c-3-4-7-7-13-8l-5-3c-1-2-1-2-4-1h-11" fill="#d3d3d3" fill-rule="evenodd"/></svg>