<svg xmlns="http://www.w3.org/2000/svg" width="383" height="300"><path d="M195 1l-9 2-10 3-4 2-3 2-2 1v2c0 2 0 2-1 1-2-1-2-1-2 1 0 1-1 4-3 5l-1 3-1 1c-2-2-4 6-3 9v5l2 3c0 2 3 5 6 8l6 7c-1 1 4 2 10 2h7l22-3h3c-1 0 1 2 6 4 8 3 8 3 6 5-1 2-1 2 1 1 3 0 3 0 2 2-3 3-2 4 0 3 2 0 2 0 2 12 0 17 1 25 6 27l3 5 3 5 1 3v15c1 5-1 16-3 17l-1 2-2 1v1c2 1-1 2-3 1s-6 1-6 4l-2 2c-2 0-2 0-1 1v1c-1 0-2 0-1 1l-1 1c-1-1-1 0-1 1h-2c0 1 0 2-1 1l-1 1c1 2-1 4-5 4v3h-4c-1 2-7 3-8 1-2-1-2-1 0-1v-1l-3 1c-2 3-7 3-7 1l-2-1-4-2-3-2-2-1 1-1c2 0-3-7-7-10l-3-2-2 2-4 2-1 1c0 3-10 3-17 0-3-1-6-1-6 1 1 2 5 4 8 4 2 0 3 0 3 2l3 5 2 4c0 4 2 7 4 6h1l3 4 2 3-7 15-3 8a991 991 0 01-2 12c0 2-2 1-3 0-2-3-3-2-1 1a79 79 0 017 25v5c0 1 2 12 4 15v3l1 1 1 2 4 6 6 7 2 2v1c0 3 3 3 5 0 1-3 3-3 2 0-1 2-1 2 20 2 18 0 22-1 23-2h2l1-2c-1-1 1-2 6-3 3 0 5-2 3-3v-1h2l1-1 2 1 1 1 1-1 12-5c1 1 5-2 5-3-1-1 2-2 7-4 7-2 8-3 17-11a234 234 0 0040-47l1-7c2-10 2-19 0-20s-2-1 0-3v-3l-1-2c-1-3-3-2-3 1-1 17-1 17-3 23l-2 5c1 1-6 8-7 7l-5 2-4 1-2 2-2 1-3 2-2 1h-3l-2 1-2 2v-5l1-2h-1l-2-1v-13l1-7 1-1h-1l-1-2c0-1 0-2-1-1l-1-3v-2l-1-1v-1l3-5c1-2 3-4 2-5l1-1 4-2c2-3 1-5-1-3-3 2-14 1-17-1-3-1-2-6 1-9 2-1 1-2-1-5-3-2-3-2-4 0l-2 3-1 3-1-1c1-1 0-3-1-4-2-1-2-2-1-3v-3c0-4 2-6 4-4l3-3 3-3h5c2 3 1 9-1 10-3 2-2 4 2 4 5 0 8-3 7-6 0-2 0-2 2-1 3 0 4-1 1-4-1-3-1-3 1-3h4c3 1 0-2-4-5-4-2-5-4-2-4s4 0 6-2c3-4 6-4 9 0l2 1c-1-1 0-2 1-2 2 0 1-5-1-5-6-3-22 3-22 9l-1-1v-5l9-7c8-4 15-3 21 5l2 3-3 10-6 16c-2 5-2 15 0 14 1-1 2 4 1 5l1 1 1 1c-1 1 3 5 5 5s11-6 13-8a239 239 0 0029-57 7303 7303 0 018-29 87 87 0 000-43c-4-14-11-29-16-32l-5-4-1-1h-1l-3-4c-2 0-6-4-7-6s-6-2-67-2l-67 1m-35 116c-1 1 0 3 2 5l3 5 5 3c3 1 3 1 1 2-2 0-2 3 1 3l1 1 1 1c1-1 1 0 1 1l1 1 2 1 8 1c6 0 6 2 0 2l-3 1 1 1h12l12-3h-3l-4-1 2-1v-2l-2-2-1-3c1-1-12-7-16-8v-1l-1-1-2-1-3-1-10-3c-7-2-8-3-8-1m183 121l-8 16c-3 6-4 7-5 6-1-3-2-1-1 2v2l-1 2c2 3 0 5-2 2l-1-1 1 4c1 2 1 2-3 0-2 0-2 0-2 2l-2 3c-2 2-2 2-1 4v4l-10 10-5 4-3 1 3 1c3 0 5-1 15-8l11-10 3-1 4-3 3-2c1 1 2 0 2-1l1-2 8-4 7-4 3-1 7-1c5 0 6-1 6-3s0-2-9-2c-8 0-10 1-12 2l-3 2-6 3c-4 2-5 3-6 2v-6c1 0 2-1 2-3l3-2c2 0 3 0 3-8l1-9 1-1h-4m-280 2l-7 2c-4 0-5 1-8 4-5 6-19 13-21 11l-1-3c0-4-6-5-15-2H4c-4-3-4-3-4 3 0 4 0 5 1 4 1-2 5-3 8-1l3 1 2 3 3 11c4 10 4 13 0 14-3 0-6 3-5 4v5c0 4 0 4 3 4l5-2 1-2 1-1 4-2 5-3c4-5 5-5 11-1 5 3 6 3 13 3 13 0 14-3 4-9-10-5-11-6-4-10 6-4 5-5-3-8-6-2-6-3-3-9 1-3 3-4 6-5 5-2 12-9 12-11s-1-2-4 0m106 28c-1 3-1 4 1 10l3 11c0 3 1 4 3 5v-5c1 0 2-1 1-2l1-2 1-1 2-5c1-2 2-5 1-6v-4h-1l-1-1c1-1 1-1-1-1h-3l-2 1c-2 3-3 3-2 0 0-3-1-2-3 0m107 17l-8 4c-2 0-4 2-5 3l-2 2c-2 0-5 5-4 6h36l-4-6-6-9-2-3-5 3" fill="#d3d3d3" fill-rule="evenodd"/></svg>