<svg xmlns="http://www.w3.org/2000/svg" width="383" height="300"><path d="M0 130v130l7-3 8-5h2l4 2c4 1 4 0 0-3-2-3-3-3-3-2 0 2-1 2-2 0s0-2 3-5c5-5 9-5 24-4l13 1 11-5a737 737 0 0121-12c0-4 3-6 11-8h8c1 1 0 2-2 2h-3v8c0 9 1 10 4 4l3-4c3-1 6-6 4-7v-2c3 0 3-3 0-3l1-1 2-2 4-2c3-1 3 0 4 4 4 17 33 38 52 38 2 0 3 0 2-1-7-1-8-2-7-7v-13l1-8 5-3 7-3h1l1-1c1 1 2 0 3-1h4l3-4 1-2h1c1 2 1 2 1-3l2-3c3-2 3-10 2-12l-2-1h-1v-2c3-2 2-4-1-4-4 1-6 2-5 3v9l-1 3-1 2v-4c0-3-2-3-7-2h-1c0-1-1-2-2-1l-3 1c0 3-5-1-5-4s-1-3-4-3-4 1-2 2v3l-1 1h-1c-2 1-2 1-1-2l-1-3-1-1 2-1c1 1 3-1 4-2l4-3c2-1 3-5 1-5v-2c2-2 2-5 0-3h-3v-2h2l1-1c0-2 4-4 6-4l2-1-5-1-1-1c1-2 0-2-1-2-3 0-2-2 2-4 3-2 4-2 8 0h6l2 1c1 2 1 4-2 4l-1 1-1 1h-4c-2 1-2 1 1 2l5 2c2 0 9 9 8 11l2 1 1-3 1-6v-4l-1-1-1-1v-2l-1-1h1c2 1 1-2-2-5l-3-2c0 1-4 1-6-2l-1-2-1-1-4-2-2-1h-2l-2-1-4-1c-3 0-5-2-3-3v-1l-1-5-2-9v-6l3-10c2-13 3-18 5-18 2-1 4 1 4 3h1l1 1 2 1a52 52 0 017 1l-1 2c-3 2-4 8-2 9l2 6 11 4c6 0 6 0 5-1l-1-3v-1c-1-1 0-1 1-1 2 0 4-3 2-4l-1-1c0-1 5 0 7 2l3 1c2-1 2-1-3-3l-5-4-1-1c-2-1-3-2-2-3 0-5 5-7 13-8 3 0 0-2-4-2l-3-1c-5-2-24 2-25 5h-3l-1-1-1-1v-6l-1-7-1-1c1-1 0-2-1-2-2 0-5 6-5 8 1 0 0 3-2 5l-3 4-3-2c-3-2-4-2-4-8l-1-6c-2-1-2-7 0-8l1-3 1-3 1-2c0-2 3-6 6-9 4-4 5-4 5-3l3-1 3-1a2675 2675 0 0127-4c0-2 4-1 8 2l4 2c1 0 8 7 10 11l6 13 3 10 1 3 1 7c2 6 2 5 2 19 0 11 0 11 2 8 0-3 2-5 3-7l2-3c0-1 5-3 6-1 1 1-1 9-5 17l-3 7-3 6-2 6c0 6-1 9-4 11-2 0-3 2-3 3l-5 16c-4 12-8 30-8 36 0 2 4 5 7 5l6 3 10 5 14 7c17 7 18 7 33 10 5 1 6 1 10-1l5-2c3 0 10 4 15 8l10 5c5 1 6 2 9 5l11 12a122 122 0 0118 25c2 7 4 10 8 10h4v-31l1-150V0h-26v2c0 2-1 3-2 3-2 1-2 0-2-1 1-2 0-1-3 2l-2 4V2c1-2-13-2-112-2a5643 5643 0 00-97 2l19 3c8 3 11 3 14 1l6-2 12-1c3-1 4 0 3 2h-2l-1 1h7l5 4c4 2 2 3-5 0-8-3-35-1-44 3-21 8-33 18-39 30-4 8-8 20-8 26l-1 9-6 4-5 4 3-1h3v1l-1 3c-3 2-6 3-4 1h-2l-1 2-3 2-4 2c-2 1-2 1-2-2V0H0v130m0 1" fill="#d3d3d3" fill-rule="evenodd"/></svg>