<svg xmlns="http://www.w3.org/2000/svg" width="400" height="127"><path d="M136 1c0 4 9 7 12 4h3a282 282 0 0044 3h9c6-3 10-3 15-1l9 2c6 0 10 4 7 7-1 2-1 2 5 2l9-2h4c3 1 2 3-2 4l-8 1-11 2-7 1-16 3a1153 1153 0 0056-6c11-3 23 2 19 8-2 1-2 2 0 3v4l-2 2c-1 2-3 0-3-4 0-3 0-3-4-2l-7 2-8 1c-3 0-4 0-4 2s3 5 6 5l2 1 1 1 2 2h-5l-6-2h-2l3 2 1 3-2-1-2-1v6c1 0 2 3 2 7v7h-3c-3 0-3 0-1 1s2 1 0 1-4 3-1 3l18 4 6 1 13 1c22 5 23 5 19 1l-1-2h8l9 1-8-2c-8-1-11-2-7-2l4-2 3-1h5l18 3c2 0 3 0 2 1l3 1 4 2c0 1 1 2 3 2h-14c-6-1-6-1 1 1l8 1v3c0 3 0 4 3 5 2 1 4 5 2 5a1022 1022 0 01-65-8 184 184 0 0033 7c8 0 23 3 24 4l-3 3c-3 3-7 3-17 1l-9-1h-10l1 1 2 1a437 437 0 0027 6v1l1-1c1-2 8 0 8 1l-1 1h-20l-13-1-15-2a457 457 0 00-70-10c-5-1-6-3-3-5 2-1 3-2 3-4 1-3 0-3 14-2 9 1 13 1 13-1 0-1 1-2 3-2l4-1h-4l-8-3c-3-1-3-1-1-3 1-1 2-2 1-3V62h1l-2-1-1-3c0-2 0-3 1-2s5 2 6 0l-4-2-4-2c0-1-2-1-7 1l-6 2c-2 1-2 2-1 8 1 13 1 13-2 14-3 0-3 0-3-2l-1-3-1-4c0-6-5-8-9-4l-3 2-5 2-4 2v20c3 3-7 5-17 2-5-2-7-2-8-1-4 2-7 1-5-3 1-3 4-4 5-1l2 2 2-1 3-2c3-1 3-1 3-5-1-3-1-5 1-7 2-3 1-4-4-4l-7-2v5l-1 3-2-4c-1-4-4-5-11-8l-9-5c-3-3-3-3-4 9 0 10 0 11 2 13l15 8 1 1-14-1c-5-1-7 0-5 2 1 2 16 7 19 7l13 2c14 3 33 7 39 7 5 1 6 1 4-3-2-2-2-5 0-5l2 1 2 3c1 3 3 4 5 2 2-3 6-2 17 0a631 631 0 0075 14c13 2 13 2 11 5-2 2-2 3 3 3 4 0 6-1 5-3h4l-1 1c-2 1 34 2 47 2h9v-22l-1-37V54l-4 2c-3 2-4 2-12 2-10-1-12-2-10-4 4-5 0-8-7-7l-2 1-1 2c-3 1-3 1-1 2l2 1 2 2h3l-3 1c-4 0-11-1-11-3l2-1 1-3c-2-8-2-11-1-13l2-5c1-3 1-3 7-2 7 0 7 1 7 4-1 3 2 6 4 3l1-3c0-3 3-4 5-3 2 2 7 2 11 0l4-1 1-5c0-5 0-5-4-6-2-2-3-2-3-4l1-7 1-6-8-1c-11 0-12 1-11 15 1 4-3 5-12 5-6 0-8-1-11-3l-6-2h-6l-5 1-6 3c-6 2-10 8-10 12 0 2-4 4-7 4 0-1-2 0-2 2l-3 2-4 1-4 1-2 2v4l2 4v1c-4 0-9 2-6 2 1 0 2 1 2 3l-1 2 1 12a103 103 0 01-38-4h2l1-1v-1l3-8v-1l1-2c0-1 1-2 3-2l4 1 2 1 2 2h2l2-2a586 586 0 00-8-6l3-4c2-4 6-4 9-2 1 1 3-1 2-2-1-2 2-4 5-4 2 0 3-1 3-2l-4-1-5-1c0-1 0-2 2-2l2-2c-1-4 2-6 8-6 8 1 8 1 8 5s1 5 4 5c2 0 2 0 0-3-3-3-3-6 1-7 3 0 5-2 4-3V9l-1-8-46-1-48 1h-2l2 1 1 2c-1 1-6 0-7-2a459 459 0 00-77-1m206 23l-2 4c1 1 0 1-2 1l-2 1-1 1v-3l-2-1c-3 0-7 9-5 13v4l-4 2-2 1 3 2c2 1 3 2 2 3 0 2-1 2-3 1-4-5-13-3-11 2h-1c-1-1-1-1-1 3l1 5c0 2 1 2 16 4l8 1c4 0 6-1 4-2V54c0-1-2-2-5-2-7-1-6-1 2-1 8-1 10-2 9-3l-4-2-2-1 2-2c3-1 3-2 3-6l-1-4h4c4 0 7-2 7-5 0-5-9-8-13-4M220 42v1l-1 3c-3 1-2 2 16 3 16 2 17 2 17 1l-9-1c-11-1-13-2-13-4l-1-1-4-1c-2-2-3-2-5-1m-35 3c-2 2 9 9 15 9l3 1 4 4-1-3-2-3 3-1c4-1 7 0 7 2l1 1 1-2-1-2v-3c1-1 0-1-1-1-2 0-3 1-3 2-1 2-9 1-16-2l-10-2m-32 6c0 3 9 10 15 11l6 3c0 2 1 2 2 0v-2l1-2c3-3 2-4-7-7-11-4-17-5-17-3M1 98v29h149a7379 7379 0 00145-2c-8 0-9-1-11-3s-2-2-1-3c1-2 1-2-1-2l-3 1c-1 3-8 4-13 3l-19-2c-18-2-19-2-27-5-12-2-23-2-26 1s-5 2-7-1c-2-4-3-4-22-9a813 813 0 01-68-15A764 764 0 012 69L1 98" fill="#d3d3d3" fill-rule="evenodd"/></svg>