<svg xmlns="http://www.w3.org/2000/svg" width="383" height="300"><path d="M277 2l-1 2-2 3a150 150 0 01-5 21l-2 13 1 3v1l-1 2v4l-1 4c0 1 0 2 1 1l2 1-1 1-1 1 1 1 1 1v1c1 0 1 2-1 4-1 0-1 1 1 2 2 2 2 2 1 3v1h2c1 2 1 2 2 0l1-4c0-2 1-3 2-3v-4c1-1 2-3 1-7l3-37c3-17 3-17-1-17-2 0-3 0-3 2m-78 12c-11 2-23 9-37 21-16 14-26 31-27 45 0 7 0 9-2 12-2 2-3 4-2 5v3l1 2-1 2-1-1h-1v6c-2 1-8 7-8 9l2 1c2 0 1 2-2 3-7 2-9 8-5 15 2 2 2 4 1 4v4c1 3 0 11-1 10l-1 1h-3l-4-3h-1c0 2 3 5 7 6 3 0 4 2 2 5-3 3-3 6 0 10l2 4-5 4c-7 7-8 12-10 49-2 34-4 58-6 67v2h73l74-1-1-2v-5l3-8 1-5v-2l1-2 1-2 1-2v-4l2-6 2-8c2-3 2-5 1-8l1-4h1l-1-2c-1 0-1-1 1-2 2-3 4-25 1-26l-1-2-1-1c-1 0-9-8-8-9l-1-1h-1l2-1h1l-1-1-1-1 2-1c2 1 5 0 3-1l-1-2 2 1 3-1 3-2-2-2-1-2-3-4c-5-6-7-6-4-2s4 5 1 5-4 0-4 2l-1 1c-1 0-3-3-2-4 0-2-8 1-12 4-3 2-3 2-2 4s1 2-1 2-2 0-1-1v-1c-1-1-12 6-11 7v1c-4-1-7 0-6 2l-1 1v-1l-2-1c-2 0-3 0-2 1l-1 1-1-1c1-1 0-2-1-1v-1l-1-1h-1l-2-1c-2 0-4-3-4-5l5-7c4-5 6-9 4-9l-1-1-1-2v-2l-2-2c-4-2-6-6-3-9l1-4c0-5 6-8 14-7h6l-1-3-2-6c-2-4-2-9 0-10 3 0 6-3 5-4 0-2 1-2 4-2 5 0 4-1-3-2l-3-1 2-3 6-6 4-4-1-4c-2-2-2-5-2-6 1-4-2-18-4-20l-2-4c-1-2-4-3-8-5l-6-3-2-1v-2c1-1 2-3 1-5 0-5 2-9 7-13 7-5 8-6 5-6v-2c2 0 2-1 1-1v-2h-2c-2 0-2 0 0-1 1-2 1-2-1-4l-2-2 2-1 1-2-5-1h-3l-1-1 2-2v-1c-1-1-1-1 1-2 3-1 0-3-4-2h-1c1-2 0-2-6-1m-92 6l-2 16-2 11c-1 3-4 23-3 24l-1 2c-1 2-4 16-4 28l-3 19-1 11v14c-1 6 0 6 3 0l2-5 1-3 1-7 1-9 2-9a286 286 0 004-55l1-13 2-8c2-3 2-7 2-11 0-8-1-11-3-5m122 5c2 5 5 11 7 12l15 1-3-1-1-2 1-1-3-1c-2 1-5 0-5-1 0-2 0-3-5-6-5-5-6-5-6-1m14 16l4 1v1c-2 0-2 1 0 4 1 2 3 5 3 9 2 7 3 8 3 2v-4 12l1 10c1 0 2-5 2-18 0-9-1-14-2-15h-3l-5-2h-3m-50 34v4h-2v4c0 2 0 2-1 1s-1 0-1 2v1c-1-2-1-2-1 0l-1 3-2 6-1 5c2-2-1 6-4 9v3c1 2 2 1 8-11 4-8 5-11 6-19 1-10 1-11-1-8m15 13c-2 1-2 1 0 1 1 0 2 0 1 1l-12 5-1 1-2 1c-1 2-1 2 1 4l2 4 2 2 1 1c-1 0-1 1 4 5l2 4 2-1 1-3 1-2 1-4 3-8c3-9 0-14-6-11m46 20v3c-2-1-9 16-9 21l-2 3-6 6-8 8c-3 0-3 10 1 15l2 3 4 3 3 4-1-4c-1-6 0-12 1-13s1 0 1 4v2c0-2 1-3 1-1h3c0 2 2 1 2-1v-1c1 1 8-3 10-5 1-1-2-3-4-2-3 2-3 1 0-3s4-9 1-9v1l1 1h-1c-1 0-4 2-7 6l-5 4 5-7c5-5 6-6 5-7-2-3-1-6 1-6l3 3 1 2 3 2c1 1 1 1 1-1l-2-2-1-1c1-1 0-3-2-4-5-4-6-11-1-16 3-3 5-8 3-8h-3m69 6v7l-1 4c-1-1-2 5-4 17l-2 7c-1 2-3 5-3 9l-2 6h-4c-3 0-3 1-2 1 4 0 6 1 6 3l1 4v13a743 743 0 00-7 50 7784 7784 0 00-8 65 2426 2426 0 0118-111 1005 1005 0 008-75m-149 10v4c2-4 1 7-2 12l-1 5v6l-2 7-1 4 8-11h2v-11c-1-1-2-3-1-6l-1-8-1-4-1 2m5 34c0 9 0 9-1 8-2 0-2 0-2 2 0 4-3 10-5 9v5l-2-2c-2-4-3-3-2 2 0 2 1 3 2 2h1l-3 4-3 4h-1l-1 1c1 1-3 4-4 4l-1 2 1 2 2 1c1 2 1 2-1 5-2 2-2 2 0 2l3-1h1c0 2 0 2 1 0l1-2v-1l1-1 1-5 3-8c0-4 3-7 5-7l1-2 1-3c4-2 7-17 4-24l-2-3v6m0 23c-3 6-4 19-1 20 3 0 4-4 5-11a90 90 0 010-10c0-5-2-4-4 1M0 211v4l8 2h8l-2-1c-2 0-2 0-1-2l-1-2-1-1c1-1-1-2-4-3-7-1-7-1-7 3m382 3a2147 2147 0 01-13 82v4h14v-43a1053 1053 0 00-1-43m-335 4l1 2 1 2 2 2c0 3 4 5 11 6l9 2c1 1 13 3 14 2l1-5 1-3-10-3c-29-6-33-7-30-5m-13 13l-1 1-2 2 1 2 1 1-2 6-1 10-2 13c-1 13-4 29-5 32-1 2-1 2 3 2 3 0 3 0 3-3v-4a978 978 0 005-62m48 12c-1 0-2 5-2 11 0 9-2 24-4 34v6c3 2 4 0 4-9a152 152 0 013-23l2-12c1-8 0-10-3-7m248 39a1978 1978 0 01-2 18l2-1h1l1-7 1-5v-13c1-1 0-4-1-4l-2 12" fill="#d3d3d3" fill-rule="evenodd"/></svg>