<svg xmlns="http://www.w3.org/2000/svg" width="400" height="267"><path d="M0 11c0 10 0 12 3 16s3 5 0 5c-2 0-3 1-3 2l2 1a536 536 0 00-2 118v114h401V38l-1 89v90l-5-5-5-7a277 277 0 000-4l1-14a1446 1446 0 015-75 6456 6456 0 014-112l-2 9 1 2v1a14380 14380 0 01-28 186c-1 7-1 7-4 6h-3a2516 2516 0 01-14-28 3379 3379 0 007-70l-2-1 2-1 2-1-2-1-3-1 2-2 1 1c0 2 3-2 3-4s-1-2-4-2l-4-1h4c4 0 4 0 6-15 2-16 2-17 1-17-1 1-2 0-2-1l2-1c2 0 2-2 4-17a2726 2726 0 013-27l-24 1a672 672 0 0125-3V7c1-7 5-7-37-3a389 389 0 01-7-1l29-3H208A4960 4960 0 0027 0H0v11m355 9l-1 1-7 1h-16l-12 1-2 1-4 1c-5-1-5-1-5 2l-1 3v-3c0-5-3-4-3 1 0 3 0 4 2 4l3 2c1 2 1 2 1-2v-4l3 2 7 2c3 0 3 0 3 4v4l1-4c1-4 1-4 1 1s0 6 1 5l2-1c-1-1 4-3 5-3v3c1 3 0 3-2 3l-6 2h9v3l-1 6c0 3 0 3-3 2l-6 1c-2 2-2 2 4 2 5 0 6 0 6 2-1 2-5 2-6 0 0-2-3-1-3 1h2c-1 2 0 2 3 2s3 0 1 1v2l1 4 1 4c3 0 1 2-3 2-7 0-7 2 1 2 6 0 7 0 6-1-2-2-2-18-1-19l1-9-1 3c-1 1-1 0-1-3v-5h22V19l-2 1m-14 7c-4 0-5 1-5 10 0 5 1 7 2 4h1l5 1 7 1 3 2V26h-5l-8 1m-126 5l-6 1c-6 0-9 1-9 2s8 2 13 1l10 1h19c0-2-12-5-20-5h-7m85 6h-4v10h11c11-1 19-3 9-3-11 0-11 0-10-4l-1-4-5 1m-62 12l-1 15c-2 9-2 16 0 16l1-2c1-1 1 0 1 2l1 5-1 3-2 3h3c5 0 6-2 5-20V52c0-6-1-8-5-8-2 0-2 0-2 6m115 3v5l-1 1c-2 0-2 2 0 3l1 4c0 3 0 3-3 3l-3 1 3 1c2 0 4 3 2 4l-1 1c0 1-2 2-5 2-8 0-9 2-1 2s11 1 9 2c-1 1-1 1 1 1l3-1-1-1V65c0-16 0-16-2-16s-2 1-2 4m-75-1l-8 1-1 5 1 7h23v-5c0-9-1-9-15-8m20 6c1 2 0 3-1 3-2 0-3 13-1 16 1 1 1 1-1 1l-4 1-1-2v-5l-1-3-3-1c-5 0-5 1-5 13 0 9 2 13 8 13l2 2-2 2c-2 0-3 1-1 3 1 1 2 1 3-1h2v-1h7l2-1v-4c-3-2-2-3 2-3s4 0 4-2c0-3 0-3 4-3h4l-2-2c-2-2-3-2-3-1 0 2-2 2-2 0-1-2-1-3 1-3l7-1-8-1c-6 0-7 0-6-1l2-4c1-3 0-3-2-3s-2 0-2-3l1-5 4-1 3-1-4-1-6-2c-1-1-1-1-1 1M184 77v3c0 2 0 2-4 2-3 0-4 0-4 2l3 1 4 2h3c2-1 2-1 0-3s-2-2 0-2c2-1 3-1 2 1l1 2 1-2 2-2c1 0 0 4-2 5-1 1 0 1 2 1 4 0 6-3 6-8 0-3 0-3-1 0 0 2 0 2-1 0-1-3-3-4-3-1h-1c-1-1-6-2-8-1m129 12v1l-1-1c-2-2-3-1-3 5 0 4 1 7 2 7l-1 1c-2 1-2 3 1 3 2 0 2-1 2-5l1-6v-1l3-1c4 1 6 0 6-3 0-2 0-2-2-1l-3 1-3-2c-3 0-3 0-2 2m-77 23c-1 2 3 4 8 4h4l-2 1 1 2 5 1c4-1 5 1 0 2h-15a1639 1639 0 00-13-3c-1-2-1-2-4-1l-23 3a8866 8866 0 00-105 16 2424 2424 0 00115 8c9 1 10 1 24-4l15-4 2-6c1-3 2-5 4-5 7 0 14-2 15-4 0-2 3-1 3 1 1 1 0 2-1 3-2 3-4 10-3 11l8-2 10-3 4-4c1-5 1-5 5-6l4-2-18-1c-22 0-23 0-26-5-3-3-4-4-4-2s-3 2-6 0h-7m-129 33c0 2 1 2 14 3a566412 566412 0 0188 7c2 0 2 1 2 44v44h3l3-1a1025 1025 0 003-87l7-4c5-1 7-3 7-4v-1l1-1-6 2-10 3a28948 28948 0 00-112-5" fill="#d3d3d3" fill-rule="evenodd"/></svg>