<svg xmlns="http://www.w3.org/2000/svg" width="400" height="267"><path d="M0 50v50h2l5-1c2 0 4-1 6-5 4-5 9-7 9-3l1 1c2 0-1 4-2 4-2 0-9 6-10 10v10c1 9 0 11-4 12-7 3-7 1-7 74v65h401V0h-73l1 8c0 8 0 9-2 10-2 2-2 2-4 1-3-1-4-1-4 1 0 1 1 2 3 2 2 1 3 3 1 3l-9 9 3-1c2-2 12-2 13-1v13l-2-2c-6-3-6 2-1 7l5 5c1 2 1 2-4 1l-8 1-1 1c2 0 3 2 0 2l-3 1h-6l-3-2 4-4c5-5 6-8 2-11-3-3-8-3-12 0-2 2-2 2-3 1-2-2-2 0 0 3l1 3c-1 1-3-1-3-3l-7-4c-2 0-3 1-3 2l-3 2-4-1 6-3c1 0 1-1-1-2-2-2-5-3-3-1 0 2-2 3-4 2l-2 1-1 1c-2 0-1-3 2-3 4-1 4-2-1-3-5 0-10 2-10 4s-1 1-4-2l-6-3c-2 0-3-1-3-2l1-2c1 1 5-2 5-4 0-1 1-1 3 1 3 2 4 1 1-2v-5c1-1 3-6 3-10 2-8 3-10 4-9l4-2 2-3H0v50m275-34v4c0 2 0 2-3 4l-4 3-1 4 3-1c3-4 5-4 6 0 3 5 3 5 7 3h5c2 1 2 1 4-1 1-3 1-6-1-6-1 0-2-1-1-2l-2-4-2-3c-2-3-10-3-11-1m-21 27c0 2 5 9 10 13s7 2 2-2l-3-3h4l4 1-1 7-1 6 6 1c3 0 7 2 8 3l3 2h-6l-6-2h-5c0 3 3 4 14 4 10 0 11 0 11-2l2 1 2 3v-4c0-3 1-5 3-2h2v-2l1-1c1 1 2-1 2-3l-4-3-2-3c3 0 2-2 0-2l-3-2c-2-4-9-6-10-3l-1 1c-2 0-2 1-1 2 0 2 0 2-2-1-4-4-12-7-16-5-3 2-3 2-7-2-5-3-6-4-6-2m-7 4c-4 1-1 13 3 13 3 0 9 4 12 7l3 2c2-2 1-5-3-9l-4-5c0-2-6-9-8-9l-3 1M58 94l-10 1c-9 0-11 2-8 7l2 11 1 9c2 3 8 4 17 3 15 0 16-1 17-4l1-3 1 2 2 9a225 225 0 000 18c-2-2-1 0 1 3 3 2 3 2 1 6-2 5-1 6 2 7l3 3c0 2 2 3 5 3s5-2 4-3c-3-4-1-9 4-9l3-2c1-3 2-3 14-5l7-2v-13c-2-4-2-4 0-4l3 1c3 0 5 6 3 8-3 3 1 11 5 11 5 0 12-4 13-6l1-1c0 2 2 0 3-4l-1-3-1 3c0 2-1 1-1-1l-1-5c-1-1-1-2 1-2l4-3c2-3 2-3 0-3l-2 1-2 1c-2 0-2 0-2-4s0-4-3-4c-2 0-3 0-3-2s-4-5-8-5c-2 0-9-9-7-10 2-3-1-9-5-9-3 0-7 4-8 8-1 3-1 4-6 4-6 1-18 8-20 11-1 1-2 0-4-1-3-2-6-2-6 1h-2c-2-1-2-2-2-6l-2-5-5-7-5-6-4 1m207 7l-3 2-7 2c0 2 10 3 13 2 2-2 3-2 4 0 3 2 5 1 5-1 0-4-9-8-12-5m43 20l-8 1h-4l7 3 1 3-6 1c-5 0-7 0-7 3 0 1 7 1 8-1h2l-1 2h9l1-1 1-1c1-1 2-2 1-3l1-1h2c-1-1 0-2 5-2l7-2v-2h-3c-2-2-12-2-16 0m-139 3l-6 6c-3 3-4 5-4 7 0 5 2 6 10 4s13-4 14-9l3-4c2-2 0-3-6-3l-5-1c-2-2-3-2-6 0m211 76c-1 1 0 4 1 6l2 6 2 4 1 5 1 4c2 2 2 2 3 0 2-2 2-2 0-8s-1-7 2-4c3 2 5 0 3-3-1-3-7-6-8-4 0 1-2 0-3-3-2-4-3-5-4-3m-264 19l-4 2c-4 0-5 5-2 10 2 5 5 5 6 0l3-6c2 0 3-3 2-5-2-3-5-4-5-1M4 219c-2 3 0 4 10 10 9 6 11 7 11 5l-4-7-8-4c-7-6-7-6-9-4m32 17c-3 6 2 19 6 16 2-2 0-14-3-16-2-2-2-2-3 0m84 25l2 1h2c0 2 5 3 16 3 12 0 10-3-5-5-10-2-15-1-15 1" fill="#d3d3d3" fill-rule="evenodd"/></svg>