<svg xmlns="http://www.w3.org/2000/svg" width="400" height="267"><path d="M0 13v14l9 4 10 3-5 1c-3 1-5 1-9-1l-5-3v67h3l3 1 1 36 1 35H4c-6 1-6 4 0 4 5-1 5 1 5 16v9l-4-1-5-2v71h6c6 0 6 0 9-4l2-5-3-2-4-2c-6 0-5-5 2-12 9-8 10-12 5-17l-2-7-1-6 1-1c2 0 2 0 2-6l-1-19v-14l7-2c7-1 8-1 9 1l2 2h1c1 1 2 2 1 3l1 2 1 1-1 1-1 1v1l-1 2h2c2-2 1 2-1 5-1 1-2 2-1 3l-1 1-1 1v3l-1-1h-7c-2 1-2 1-1 2l1 2 2 13h12c1 0 2-1 1-5l1-8c1-4 1-4-1-5-2 0-2-1-2-3v-3c1-1 3-7 1-7h-1l2-1c1 1 1 0 1-3a47 47 0 011-9l2-2 1 2v3l1 13c1 14 1 13 4 13l2 1v-10l-1-15 1-5 1 1 2 2c2 0 2 0 2 3 0 4 0 4 3 4 2 0 3 0 2 1-4 1-5 2-5 7 0 8 4 11 12 10 6-1 9-1 6 1s3 1 8-1l5-1-8-1c-7 0-9-1-9-2 0-2 6-4 9-3l1-1c0-1 10-4 11-3l1-1 1-1c4 1 5-1 5-6 0-7 0-7-10-5l-8 2-1-7v-8h5l8-2c3 0 3 0 4 5l2 7 1 6 1 3c0-2 1-2 2 2 0 2 1 3 1 1 0-1 1-2 9-3 4-1 9-2 10-1l1-2h4l1 1 1 1 1-1c0-2 2-2 2-1h1c0-2 1-2 2-2l1 3 1 2c2-1 2-3-1-7-5-6-5-7 0-8l6-2 1 1 1 3 1-3c0-2 0-3-2-3-3 0-2-9 1-9l5-1c1-1 0-1-3-1l-4 1-1-21v-20h5c3 0 4 0 2-1-8-1-8 0-8-10v-8l4 1 7 2h3c1-1 11 0 13 2l1 8v7l-6-1-8-1h-1l-1 1v3l7 1c6 0 6 0 6 19l1 14c2 3 0 2-3 0l-1-3 1-1c-1-2-3-1-3 1l-3 1h-3v-24l-1 13-2 16c-2 3 0 17 2 13l5-2c3 0 4-1 6-3 1-2 1-2 2-1 1 2 2 0 2-3l1-3 1 4 1 5c1 1 0 1-2 1s-3 0-2 1h3c2 0 2 0 2 5-1 5 0 6 2 4l2-1 2-1v-1c2 0 4 3 3 4h-2v-2l-2 2-4 2v1l-1 1-1-1c0-1-1-1-3 1s-13 5-16 3c-2 0-3 1-1 2l11-1c6-1 11-2 12-1 1 0 2 0 1-1 0-2 1-2 3-1l7-1c3-1 3-1 1-1l-3-1c-1-2 0-2 2-1h3c1-1 1-1-1-1s-2 0-1-1c1-2 4-1 5 0l3 2c1 1 2 0 2-3 0-4-1-5-4-4l-6 1h-6c-2-1-3-3 0-2l1-3-1-4h-1l-1-8-2-2 1-2c2-1 3-2 4-1s2 0 4-2l3-3-4-2-3-1-4 4-5 6c-1 3-3 4-3 2v-15l6-1h7v-6l1-5v11h12l-1-17c0-18 0-20 4-15 2 2 3 13 1 12s-2 1 0 2l1 7 1 5v8l-4 1c-4 0-4 0-3 6 1 4-2 6-3 2 0-2-2-2-5 0l-2 2 3 3c3 2 4 7 4 13 1 2 4 2 6 1 3-3 5 1 5 6 0 4 0 5 2 5v-1l4-1c4 1 6-1 5-4l1-1h3c1-1 1-1-1-1l-1-2-1-1-1-1h2l5 1c2-1 4 0 2 1h1l1 1 6-1c5-1 5-2 5-4-1-3 1-4 2-1 0 4 1 4 6 2 3-2 5-3 6-2l1-1-1-2h-1l1-3 2-2c2 0 2 1 2 3-1 4-1 4 2 3h6c3 0 4-1 4-2 0-2-1-2-3-2-3 1-3 1-3-5v-7h5c7-1 7-1 7 5v4l1 1-1 1-2 1 6 1c5 0 6-1 6-2-1-1 0-2 1-2l1 1 3 1 3-1c-1-5 2-5 3 0l1 4 2 1c2 2 1 5-2 4l-8 3-9 2-21 7-38 14-20 6v32l-1 33-20-5c-3-1-9-9-9-11l-2-2c-3-2-3-3 0-3 2 0 2 0 1-1l-2-2-3-5-3-4-1-1c-2 0-10-6-12-9l-10-10c-8-8-9-8-12-7h-4a207 207 0 00-10 0c5 0 5 2 0 1-3 0-3 0-1 1 4 1 3 2-1 4-3 2-4 2-10 0l-11-1-4 1 1 13a3722 3722 0 003 27c2 0 2 2 2 7 0 3 3 4 9 4l8 1 2 1c4 0 6 1 7 2 2 3 26 4 29 1h8l4 2h4l3 1h1l5 1c5 0 5 0 3 2-3 3-2 4 1 1 3-2 6-3 6 0l-1 1h-1l40 1h40l5-5 5-4 3-3c3-3 8-3 9 1l2 4v4l-1 2c-1 1 24 1 60 1h61V0H0v13m70 3l-6 2c-1 2-2 3-4 2-3 0-4 2-1 2v1c-2 0-2 0-1 2v3l-2 1c-5-1-7 0-3 2l4 1-4-1-6-1-2 1 2 1c2 0 3 0 2 1l-1 1-3 1v1c2 0 2 0 2 2v1h2l-2 1 2 1 1 2c-2 0-2 0-1 1h3l2-1 3 1 2 1 2 1h-8c-2 1-1 2 7 5 5 2 9 4 11 3 2 0 2 0 1 1-2 0 20 10 23 10l5 2c7 4 11 4 12 2 0-3 5-3 18 0 8 2 9 2 9 0h1l1 2 1-2c1-1 1-1 1 1 0 1 1 2 4 2l7 2h3V59l-5-4-6-3-2-1h-3l-2-2-2-1v1l-1 1-2-1c0-1-2-2-5-2h-5v4a811 811 0 00-2 4c0-7-1-9-6-9-2 0-2 0-1-1 2-2 2-2-1-3-2-1-2-1 0-2v-2c-2 0-2 0 1-2l1-1-1-1-4-4c-6-3-7-3-9-1h-4c-2-1-2-1 0-1 3 0 6-3 3-3h-3l-2-1h-1l-2 2-2-1-1-1c-2-1 1-4 4-3 2 0 2 0 1-1-2-1-7 0-6 1l-2 1c-2 0-4-2-3-3l-2-1-2 1h-1l-3-1c-3 0-2-2 1-2l4-1h-4l-7 1m149 24c0 1 0 2-1 1 0-3-2-2-1 1l2 2 2 1h2v1c-1 1 0 1 2 1 3 0 4-1 4-3l3-2c2 0 3-3 1-3l-7-1h-6c-1-1-1-1-1 2m-59 36v1a6392 6392 0 01124 28v2l-21-4a4021 4021 0 00-126-17c60 8 79 11 76 13-3 1-3 1-3 6l1 7v1c-2 0-1 20 0 20 1 1 2 2 2 6v5l1 3c0 3 0 3 5 3 4 0 4 0 4-3 0-2 0-3-2-3-4 0 2-2 8-2h5l-5-1-2-1c2 0 2 0 2-14v-14h-4l-4-1h8v-11l22 3c21 3 29 5 24 5-2 0-2 0-2 11 0 13 0 15 4 15 6 0 6 0 6 4l1 4 1-2c0-2 1-3 2-3l3-1c2-2 4-2 13-2h12v-6c0-4 0-6-1-5 0 2 0 2-1 1l-1-4v-5c0-3-1-3-4-3s-3 0-3-2c1-2 0-2-1-2-2 0-2 0 0-1 4-1 2-1-16-5l-23-6a4280 4280 0 00-105-20M14 97c-1 9 1 68 2 71l8-1c8-1 10-2 10-5l-2 1-3 1h-6l2-2 1-2-1-1v-9c-2-4-2-4 0-5 2 0 3-4 1-4l-1 1h-1l-3-1c-3 0-3-1-5-30l-1-15-1 1m219 18c0 5 1 8 2 5h5l4-2c3 0 6-4 6-6h-7l-7-1 1-1h4c5 0 3-1-3-2h-5v7m-2 11l1 2 1 3 1 2h1l-1 2-1 1-1 1-1-1c-1-1-1 0-1 1 0 2 0 2 5 2 4 0 5 0 4-1-2-1-2-6 0-6l2 1v2l1 2 1-1 1-1 1-1c1-4 1-5-2-4-4 2-4 1-2-1 3-2 2-5-2-2h-4c-3-2-4-2-4-1m-164 5h-9c-7 0-8 1-8 3l1 3 2 2-1 2-1 2c0 2 1 3 3 3l3 2h2c1-1 1-1 1 1l1 3c1 0 2-1 1-2h1c3 2 2 5-1 4l-1 1 1 1h4c6 0 6-1 5-13 0-10 0-12-2-12h-2m41 4h-5v5c0 7 1 8 4 8 3-1 3-1 2 1l1 1c1-1 1-1 1 1v5c-2 0-1 4 1 9 2 4 2 4 4 2h1l-1 2-1 1h2l1 2 1-3-1-3c-2 0-1-5 0-6 2-2 0-5-3-5-2 0-3-1-3-2 0-2 0-2 1-1s1 1 1-1 0-2 2-2l1-1h6v-14h-5l-10 1m18 0c-2 0-2 1-2 7s0 7 2 7c1-1 1 0 1 1 0 2 0 2 3 1l3-1c0 1 2 0 3-2l4-2 1-6v-6h-6l-9 1m-43 2h-4v6l1 10v5h6c10-2 10-2 9-5 0-4 0-4 3-4 4-1 4-1 4-6 0-7-2-8-19-6m221 7c-2 0-3 1-3 2 0 2 1 2 5 2 7-1 8 0 4 2h-10v6l9-4c7-2 8-3 8-5 0-3 0-3-3-3h-10M64 163l-5 2-2 3c-1 1 0 1 6 1l7-1v5c0 3 0 4 2 4l2-1 1-7v-7h-3l-8 1" fill="#d3d3d3" fill-rule="evenodd"/></svg>