<svg xmlns="http://www.w3.org/2000/svg" width="200" height="300"><path d="M0 150v150h69a514 514 0 0068-2c2 2 4 2 13 2h11v-3l1-3v6h39V0H0v150m121-95v1l-2 1c-2-1-3 1-1 1 1 1 1 1-1 1l-2-1h-6a670 670 0 01-7 0h-7l-1-1c0 1-1 1-1-1h-4c-1 2-3 3-9 3h-7v12c0 7 0 12-1 10 0-2-4-4-6-4-3 0 0 10 4 10l-2 1-2 2 2 2c2 1 3 2 3 4v4l1-7c1-8 1-7 1 7v17h-3c-3 0-4 1-2 3v1l-1-1h-1c1 1 0 3-1 4v6c-2 2-2 2 1 5 2 4 2 6-1 4-2-3-3-2-3 1 0 2 0 3 2 2v3c-1 3-2 4 0 5v6l-1 3-5 2c-1 2-1 3 1 3l2 1 2 1v2l-3 1-1 2c-1 1 0 2 1 2l3 1c7 3 7 3 8 1h3l7 1c6 0 7 1 7 4 0 2-1 3-7 3h-6v37H30v56h139v-14a757 757 0 00-4-43c-2 0-2-1-2-3 0-5-1-5-18-5-8 0-14 0-13 1 1 0 2 1 2 4s0 3-3 3h-4v-13l-1-14-1-4c0-3 0-3 4-3 2 0 3 0 3-2s-1-2-14-2c-14 0-16-1-4-2 7-1 9-2 9-4 0-1 1-1 3 1h4v2l2-2 1-2 1 2v2l2-2v-6c0-3 2-5 3-2 2 4 2-1 1-5-2-5-2-6 0-6l1 1h1c0-3 8 2 9 6 1 1 2 2 5 2 4 1 6 0 5-3 0-1 2-4 4-4l1-1-3-1c-2 0-3 0-2-2l-1-3c-3 0-2-10 0-11 4-3 4-3 3-4v-2c1 0 2 0 1-1h-1c-2 1-3-2-2-5v-11l-19-1h-16l11-1 13-1h1c1 1 6 0 10-2l3-1c3 1 5 0 5-2v-3c2-2 0-2-2 0s-2 2-3 1 0-2 1-3v-1l-1-2v-3c-1-2 0-3 2-3s2 0 1-1l-1-3c1-2-2-5-3-4-3 1-5 1-6-2 0-2 0-2 1-1l-1-5-4-4-2-2c0-2 1-2 4-2 4 0 8-2 4-3l-2-1-2-2c-2-1-2-1-2 1 1 2 0 3-2 1l-2-2v2c1 2-1 1-4-2s-3-3 0-3c1 1 2 0 2-1h-2c-4 1-7 0-9-2-1-1-3-2-4-1l-2-1c-1-2-4-2-4 0s0 2-1-1-4-4-4-2M83 185l-2 1 2 1 2 3c0 2 1 2 16 2h15v-2l1-4c1-1-2-1-13-1a207 207 0 01-21 0" fill="#d3d3d3" fill-rule="evenodd"/></svg>