<svg xmlns="http://www.w3.org/2000/svg" width="400" height="267"><path d="M0 12c0 10 0 12 1 11h7l-4 2H0v78a1000 1000 0 001 81l-1 3h18c14 0 18-1 19-2h5l4-1v2c-3 1 4 1 23 2l54 2a252 252 0 0082-3l7-1 5-1 7-1h1c0 1-1 3-3 3-2 1 2 1 7 1 10 0 10 0 8-2l-7-3c-5-1-5-1-5-5s0-4 4-5c3 0 4-1 6-4 1-3 1-3 2-2l-1 3c-2 2-1 3 3 2 5-1 8-4 13-12 4-6 4-6-1-6h-3v-20c1-1 1 0 1 1 0 3 1 4 2 1l2-10c0-10 2-9 2 2 0 8 1 11 2 9h2c2 0 3-3 3-9l1-4v-2c-1-3 1-9 4-10l1-2c0-1 2-4 4-4 1 0 3 9 2 10l1 1c2 2 3-4 1-8v-4l1 1c0 1 6 7 9 8 1 0 3 0 3-2 2-2 3-1 3 3 1 3 0 3-1 3l-5 2-4 2-1 1-1 1-5 2c-3 2-3 2-1 2 2-1 3 0 1 2v1l-1 1-1 2-1 3c-1 1-2 2-1 3h-2v1l-1 3-2 3c1 0 1 1-1 2-2 2-2 2 0 2l-1 1-3 1 5 2c7 2 7 2 3 6-6 6-7 9-11 15l-7 9-4 4-23 2a7098 7098 0 00-151 12 2641 2641 0 00-61 3c-13 0-12-3-12 31v30h401V0H127l5 4 11 9 42 33c10 7 22 18 22 19l-3 1c-4 0-10-4-23-14a2468 2468 0 00-65-50l-3-2H0v12m342-4c-2 0-2 1 0 3v3l-1 2-2 3c-2 2 0 5 5 6l3 1c0 2 3 1 6-2s3-4 3-5l-1-4v-1l-1-2c0-3-7-5-12-4m-22 30c-14 2-16 3-16 5l1 12c0 8 0 10 1 8 2-5 3-4 3 2l-1 5h-3l-3 3c-1 2-1 2-2 1 0-2-3-1-3 1l-1 1c-2 0-3 5-5 12 0 4 0 4 3 8 3 3 4 4 4 10 0 7 0 8 6 8l5 2c3 1 5 1 5-2-1-1 0-1 2-2l3-3-1-1h-1l-4-1c-4 0-5-2-4-6 2-6 10-11 19-13 5 0 5 0 10 5 7 6 7 10 5 20s-2 12 0 13c1 1 1 2-2 6-5 5-5 5-2 11 2 6 4 7 6 2l1-2v3c0 3 0 3 4 3l4-1h1c0 2 1 2 5 2s4 0 3-2c-1-4-4-10-7-13-2-3-2-3-1-5 2-2 3-29 1-30l-1-16a78 78 0 00-2-18l-2 4v4l-1-4c-1-3-1-3-1-1s0 2-1 1l-2-3c-1-1 0-16 1-17l1 1c0 1 0 2 1 1 1 0 1-7-1-13 0-2-8-3-28-1m-56 4c-2 2-2 2 5 11l7 10c1 0 0-18-2-20-1-2-6-3-10-1m2 49c-6 5-9 16-6 24l1 2 2-3 2-5 5-4c1-1 1-1-1-1l-2 1h-2c-3-3-2-6 2-11l3-5-4 2m-74 13v7h-4l-14 1c-10-1-11-1-11 1s1 2 6 1a1364 1364 0 0138-4h-3v-6l1-7h-13v7M61 139c-3 0-6 4-5 5 4 3 16 2 16-2s-4-5-11-3m24 9c-3 2-2 12 1 13 2 1 2 1-1 2-3 0-4 3-2 3 1 0 2 1 1 3 0 3 0 3 2 2 2-3 3-2 2 1 0 2 0 3 2 0l5-2c3 0 3 0 2 1-2 0-2 1-1 1v4l-1 1c1 1 9-1 8-2 0-2 1-1 3 0l1 3v1c3 0 5-1 4-2l1-1v-3l1-1c1 0 2-1 1-2l1-1c2 1 3-2 2-5 0-2-1-3-4-3l-7-4c-3-3-3-4 1-4 3 0 3 0 1-1-3 0-3-2 1-3 5-1 2-2-4-2h-6l1 4c0 3 1 6 3 7l1 3c-2 1-6-6-7-10v-4c-1-1-4 1-4 2l1 1 2 2c1 3 0 3-5-1-4-4-4-4-6-3m86 3c-7 7-7 7-2 11 4 5 5 5 5 0 0-4 0-5 3-9 5-5 5-5 0-5-3 0-4 1-6 3m96 26l-6 9 18 1c5-6 2-12-6-12l-6 2" fill="#d3d3d3" fill-rule="evenodd"/></svg>