<svg xmlns="http://www.w3.org/2000/svg" width="400" height="140"><path d="M0 70v70h216l-2-3c-12-12-21-30-27-50-2-8-3-33-1-42 2-15 8-31 15-42l2-3H0v70M286 2v4l1 1c1-2 4-2 4-1l-1 1-3 6h2l-1 2v1l-1 1c-2-1-3 0-1 2 1 1 0 6-1 6-3 0-4 0-4 3s5 3 5 0l2 3 1 2c0-3 2-3 3-1 1 3 0 5-1 3-2-3-2 0 0 4s2 4 0 5-3 2-3 6 1 4 3 2c2-1 2-1 3 1v4l1 5c2 4 2 6 1 9v2l1 1v4h-1l1 2 1 4c0 3 0 3-2 1l-2-2 1 3 2 4 1 1 1 1c-1 1 0 2 1 3v2c-1 2-3 0-2-2h-1v4l1 2 7 1v3h-1c0-2-2-4-3-2l1 4c2 2 2 4 2 6l-1 5-1 2v2c1 1 2 3 0 5l1 4c2 1 2 5 0 4-1-1-2 2-1 4 0 1 1 1 3-1 2-1 2-2 1-3v-1l1 3v3h93V0h-57c-54 0-58 0-57 2" fill="#d3d3d3" fill-rule="evenodd"/></svg>