<svg xmlns="http://www.w3.org/2000/svg" width="383" height="300"><path d="M0 150v150h40a444 444 0 0042-3l3-1-2-2-2-4-1-5c-2-4-1-4 8-7 11-3 10-3 22 11l9 11h11l12-1c3-2 6-5 6-7s2-5 4-5l5 4 5 4 1 3 1 2c1 0 2-1 1-2l-1-15-1-13-1 1c0 3-11 2-16-1-4-3-4-4-3-6 0-2 13-2 18 0 3 1 5 2 8 1h5c-3 2 0 2 4 1s4-2 3-3c-2-1-1-1 4-3a214 214 0 0037-18l4-2c3-2 3-2 1-2h-3l-1-2c1-2 3-3 8-4l4-1v-9a6522 6522 0 018-197c0 3 1 4 3 3h1c0 2 5 3 13 3 8 1 11-1 11-4l1-3 1 2v2c2 0 3-12 2-16-2-4-12-2-12 2l-1 1c-1-1-1 0-1 1a396 396 0 01-3 9h-1c-1 2-3 1-3 0l-1-2-1-2 1-2 1-1-1-7c-1-6-1-7-3-7l-2-2-3-2-2 2h-1c0-2-1-2-7-2h-8v14l-1-6-3-6-5-1h-23l-2 1-2 1 1 2h2l2 1 1 1 2 2c3 0 7 4 7 7l1 3c2 1 0 7-2 8a324 324 0 0119 4l1-4a2034 2034 0 01-3 174l-2 39c-1 2-8-20-11-34-5-26-14-47-20-44l-4 1c-2 0-3 1-4 3l-3 2-4 3-2 2-1-2c-1-2-2-3-4-3h-5c-1 0-2-1-2-3s-1-2-1 0c-1 2 0 3 2 5 3 3 3 5 3 10 0 23-22 24-39 2l-5-5c-2 0-2 0-1-1l-3-6c-8-8-13-15-12-16l-1-1v-2c2-2-1-1-7 2l-10 4a55 55 0 00-21 11l-5 5-3 4-2 4a790 790 0 01-4 40c0-2 2-1 2 1s-1 3-2 3c-3 0-4 1-4 6l-1 5v15c-2 7-3 10-4 8h-2l-2 1-1 1-1 1c-1-1 0-2 1-4 1-3 1-8-1-5-1 2-1 1-1-6l2-14 2-11c0-3 0-3 1-2s1 1 1-2c0-4 1-9 3-12l-1-2h-1l-3 4-2 4c-1-2-5 4-6 9l-4 8c0-4 8-23 14-32l4-8 5-155V0H0v150M284 1l2 3c1 1 2 4 0 4h-4c1 2 0 2-1 2-2 0-2 0-1 3 1 5 1 5 3 1 2-5 4-5 4-1 0 3 1 5 4 7l3 5c-1 1-1 1 3 1l2 2c0 3 2 5 4 5l2 1 3 2 14 3h7c1 1 2 6 1 7-2 1-3 13-2 21l-1 10a3777 3777 0 01-2 58l-1-3c0-3 0-3-1-2l-1 3v5l-1 8-1 4c-2 0 0 10 2 12 1 2 2 7 0 11l1 2c1-1 1 0 1 2 0 1 0 2-1 1a5584 5584 0 010 34c3 1 2 3-1 4-5 0-4 3 1 3s6 1 5 6v7l-1 2c-1 0-2-1-1-3v-2h-6l-5 1c1 2-1 5-3 5s-2 0-2-3c1-4 1-4-2-4l-6-1c-3 0-4 3-1 5 1 1 1 1-1 1s-2 0-1 2v4l1 2c2 1 1 3-4 3h-3l-1 1c0 2-1 2-2-3l-3-5h-2c0-2-3-3-5-2-2 2-1 3 2 3 4-1 4 0 1 2h-3c-1-1-1-1-2 1 0 3 0 3-5 1l-5-1-13 10c-3 3-6 4-10 5l-8 3c-4 4-7 5-8 4h-2v1c3 0 2 1 0 3s-2 2-3 1c-2-4-10-5-12-3l2 1c3-1 7 0 7 1h-3l-4 1c-2 1-3 3-1 3h1l-2 1v1l-1 2-1-4c0-3-1-3-1-1-1 3 1 7 3 6h2l-10 6-4 3c-4 3-5 3-5 0l-2-2c-2 0-3 3-2 3l1 2-3 4h-2l-2 1-3 2-4 3-2 1c-1 1 13 1 39 1a296 296 0 0045-1h21l54 1h48v-21h-6a462 462 0 00-41 1l1 1 1-1 1 1 1 3c-1 1-1 4 1 4l3 1h3c4 0 3 2-1 2-3 0-3 0 1 1l6 1 3 1 3 1c2 0 2 0 1 1h-10l-82-1c-18 0-20-1-18-6 1-3 1-3-2-3l-4 1-5-2-3-4v-1h-2l6-1c5 0 6 0 5-1-2-1 0-1 6-1a362 362 0 0026 0h5l5 1c0 2-4 2-10 0-2 0-2 0-1 1s10 3 13 2c2 0 2-1 1-2l-1-3 2 2c1 3 6 5 12 4h8c6 1 13 0 14-2 0-2-1-3-2-1-2 3-2 0 0-4 1-3 1-4 2-2l4 1h25c23-1 29-1 29-5 0-1-1-2-7-2-7 0-8 0-11-2-3-4-2-4 2-3l10 1h6V0h-18c-20 0-20 0-19 4l-1 1-1-2c0-4-7-4-9-1l-1 3V2c-1-2-7-3-8-1h-2c-1-2-3 0-3 3l-1 4-2 3-1 1c-1 1-2 0-2-1h-4c-2-3-6-6-8-6l-3-1-2-1c-1 1-1 1-1-1l-1-2-1 1c1 2 0 2-2 2l-1 2c0 1-1 1-3-2-3-3-5-4-5-2M166 7c-3 3-5 8-3 9l1 5c0 3 0 4 2 3l1 1h1l2 1c2 2 14 2 15 0h2l1-2-1-4-1-2-1-1 1-1v-3c-2-3-4-5-8-5l-4-2c-1-2-6-2-8 1m-27 29c-4 1-14 7-14 8l-1 1-2 1 1 1-2 3-4 5-1 2v1l-1 1-1 1 3 1c2 0 0 4-3 7l-2 3-3 8-6 8v5c-1 2 1 6 2 6 1-1 1 0 1 1l2-4v-8l1-2 2-1v20c2 6 3 6 2 1 0-4 3-4 5 1l1 2v1c0 2 0 2 2 1 2-2 2-2 0-4-3-2-6-10-4-10v-2l-1 1c-1 1-1 1-1-1l2-4 1 1v1l1-1 1-1v2l1 1 1 1h2c1-1 1 0 1 3s0 4 1 3c6-5 8-6 14-8 7-4 14-7 15-10l4-3c2-2 2-2 0-2l-3 1-4 1c-2 0-3 1-4 3l-2 2-4 2c-2 3-6 5-6 4l1-3c1-3 2-3 4-3l1-1 1-1 2-3h2v-1c-1-1 0-1 2-2h4c0-2 5-4 10-4 4 0 4 0 3 1-2 3 3 4 6 1l1 1c0 1 3 1 7-1l2 1c-1 3 0 5 1 4h2l2-1c0-2 0-2 1-1s1 1 2-1l1-2v2c2 8 0 12-6 11l-3 2-2 3v10c0 2 0 2 1 1h2c0 2 3 1 3-1l1-2v2l1 1 1-1h1c2 0 4-5 4-9l2-4 2-3-1 1c-2 1-2 1-1-3l-1-7c-2-1-3-8-1-8v-2c0-1-1-2-2-1-1 0-6-4-6-6l-1-1-1-1-1-2-7-7-2-1c-3 0-4-2-1-2 1-1-1-1-4-1s-5 0-4-1l-1-2-1-1-1-1v-1c1-1 0-1-5-1l-6-1c2-2-5-2-12-1m-54 6v9c0 6-1 6-1-1l-2-5v3c0 1 0 2-1 1-1-2-2 0-2 5l-1 4c-1 1 0 7 2 6v-2h1l2 7c1 7 6 17 8 18 2 0 7-3 7-5l-2 1c-2 1-3 2-4 1-5-1-10-19-10-29 0-4 0-3 1 3a74 74 0 003 14l6 5 1 1c0 2 3-1 7-7 5-6 5-7 1-4l-2 1c1-2 0-3-2-1l-4 1c-4-1-6-5-7-19l-1-7m4 1c-2 3-1 13 0 16 1 2 2 4 1 5h2c-1 2 4 2 7 1 2-2 3-2 3-1-1 2 0 1 3-1 4-3 5-7 4-10-1-2-5-4-6-2-2 2-4 8-3 9 2 1-3 3-5 3-4-2-5-6-5-14 0-9 0-9-1-6m67 44c-3 2-3 2-3 0l-1 1c-1 4-1 4 3 5h2l1-1c1-1 2 1 1 3l2 2 2 1h3l2-2v-1c4 0 3-5 0-6l-2-2 1-1c-7-1-9-1-11 1m179 6v20a609 609 0 012 27l2-10v-21c0-11-1-14-2-16l-2-2v2M94 123l-1 4-1 2c-1 3-2 6 0 6v3c-1 4-1 5 2 3 2-2 3-2 1 1s0 2 3-1 6-5 5-2v1h1l1-1 1 2c-3 5-3 5-1 3 2-1 2-1 2 1-1 2-1 2 1 1l2-4 1-4v-2l-1 2c-1 2-1 1-1-1l-1-4c-1 1-1 0-2-1l-1-3-1-2c0-1 0-2-1-1l-1-1-1-1c-2 1-5-1-4-2 1-4-2-3-3 1m37 2l17 16c3 3 3 3 2 5-2 4-1 7 0 5l3-1 1-2c1-4 4-7 6-5l5-1 4-1h-4c-8 0-20-5-29-13l-5-3m179 112v12c1 5-14 7-16 3-1-2-1-2-1 1s0 3 5 3l11 2h2c-1-1 0-1 2-1l4-1-4-1c-8 0-7-2 0-2 4 0 6 0 5-1l-2-2-1 1c-2 1-2 1-2-1l1-7v-6c0-1-4-2-4 0" fill="#d3d3d3" fill-rule="evenodd"/></svg>