<svg xmlns="http://www.w3.org/2000/svg" width="383" height="300"><path d="M177 26v1c2 1 1 2-3 3-2 0-3 1-4 3l1 2 1 1c1 1 0 2-2 4-4 4-6 7-6 10l-2 3-2 3 2-1c2-1 6 0 6 1l-2 4a52 52 0 00-9 13c-1 0-1-8 1-12h-1c-2 1-3 8-4 16l-1 8 1 2v3l-1-2h-1c-1 2 0 10 2 14l2 3-3 2c-1 1-2 0-5-2l-2-2 2-2 2-3-3-2c-3-4-5-4-6-1-1 2-2 2-4 1-2 0-2 0-2 2s1 3 2 3l3 1c0 3-3 3-6 1l-3-3-1-4c0-3 0-4-2-4-3 0-3 0-3 3 0 4 0 4-2 4l-9-2c-7 0-10-2-10-5 0-2-1-3-3-2-5 1-6 1-6-2 0-5-10-8-13-4-2 3-9 3-13 1h-3l-9 4-2-2c-2-2-11-5-14-5l-5-2-8-2c-5 0-6 0-8-3-3-3-4-3-4 0l-1 2-1-1c1-2-1-3-8-3l-5-1v44l3 3c3 2 2 6-1 5-2-1-2 0-2 2 0 1 0 2 1 1l2 2c2 2 14 4 24 3h7l6-1c2-2 18-3 20-2h10l8 2c5 1 5 1 6 6 2 5 2 5 0 10-3 5-3 5-6 5-2-1-2-1-2-5 0-5 0-5-2-5s-2 0-1 5 0 7-3 4c-2-2-2-2-3-1-2 2-7 3-9 2l-1-7 1-1c1-1-2-2-15-2l-15 1v3c0 9 2 11 9 11l7 1 19 1 20 2 11 2c9 0 10 1 8 4-1 2 0 10 1 12 5 4 10 3 17-3l4-3 10-7 2-2c12-6 16-9 10-10l-4-3h-3c-1 2-8 6-10 6l-1-4 1-4h-12c-11 0-12-1-13-2-2-3-2-3-8-4l-5-1c1-2 18-2 21 0h10l11 2c3 2 3 2 5 1 2-2 1-5-4-8-8-5-8-4-4-8 4-5 4-7 0-7-3-1-4-4-3-7v-5c1-3 4-3 7 0 2 2 6 2 18 0 4 0 4 0 5 4 1 5 1 7-1 7-5 1-5 6-1 6s6 2 8 7c0 3 2 6 4 8 3 4 3 4-1 9-6 8-10 10-13 8-1-1-1-2 1-3v-2h-3v2c-1 2-2 3-11 9l-10 9-5 3-1 1-6 4c-6 3-14 9-13 10l-3 2c-4 2-7 8-9 20l-2 11-1 5-4-1a415 415 0 00-39-1c7 1 8 5 1 6l-4 3c-2 4-3 5-5 4h-3l-3 2a711 711 0 0134 5l19 3v2l-1 5-2 2c-2 1-2 1-1 2 2 0 3 7 1 9a787 787 0 01-80 7H0v22h191l193-1v-21l-1-21-8-1-10-3h-6l-16-1c-47-6-41-5-42-10l-1-8c-1-5 0-5 11-2 8 2 23 1 24-1l-2-2-2-2 2-6c1-4 1-5 4-3l5-3c2-2 3-3 11-3a396 396 0 0028 0c2-1 2-1 2 1l-1 4-2 3c-3 5-7 6-30 10-11 2-11 4 0 6 7 2 8 3 2 4-8 1-9 5-2 6l9 3h24v-14a146555 146555 0 010-113 1149 1149 0 00-85-3h-5c-5 3-11 2-12 0-2-3-2-5 2-8l3-4h8c1-2 2-2 3-1 1 3 9 5 14 4h20c11-1 15-1 20-3 4-2 8-2 19-2h13v6l1-17-1-16v8l-5 1h-5l-1-17c-1-21-2-25-4-25l-4 1c-2 0-4 1-6 4-6 10-15 15-20 11-2-2-2-2-3 0s-3 3-17 7c-2 0-2 1-2 2 1 3-1 5-3 5v-3c0-5-1-6-4-3-2 1-2 2-1 4 2 3 1 5-5 5l-12 3a123 123 0 01-33 4c-4 0-5-1-5-3 0-5-9-4-11 1-2 4-4 4-6 3l-2-4c0-11-5-27-10-30l-3-4-1-1-4-4c-4-3-4-3-2-4 2-2 0-7-3-9-2-2-6-2-19-2l-9-1c-5-2-6-2-6-1m169 57c-3 0-4 1-4 3s1 3 13 3c9 0 11-1 11-2 1-5-8-6-20-4m-30 4l-5 2c-4 1 0 8 4 8 8 0 11-3 7-9-1-2-2-2-6-1m-25 38l-2 6v3h-37c-15 0-17 0-17 4v4c-3 2-4 0-4-4s0-4-3-5-4 0-4 8c0 5 0 5 6 8 4 3 7 4 10 4l14 5h3c3 0 19 5 17 7l1 1h1c0-2 8 6 9 9s1 3 2 1c1-1 1-1 5 3 6 6 6 11 1 11-4 0-4 0-1 12 3 10 4 12 8 12 3 0 5-2 5-5 0-4 1-6 3-6l7-3c9-4 12-3 16 6l3 7 2-2c1-2 3-3 6-3l7-1c3-2 4-2 7-1 14 5 26-1 21-9l-2-5c0-4-2-5-12-5s-11 1-11 6c0 4-1 4-3-1l-5-4c-7-1-7-4-3-10 4-5 11-10 17-10 13-2-3-6-29-8-11 0-18-1-19-2h-3c-1 1-8 0-10-1v-22c1-11-2-16-6-10M1 153v16h5c5 0 6-1 7-4l2-5c2-2 5-18 3-19l-15-5H1v17m304-6c-8 4-2 11 7 6h16a674 674 0 0042 1c8 0 9 0 6-3-4-3-19-5-49-6h-16c-1-1-3 0-6 2M16 171c-1 3 1 15 3 17l12 6-1-17c-1-4-6-7-10-7l-4 1m63 5l-7 2c-5 0-5 1-8 8-4 6-5 8-8 6-3-1-5 1-5 3 1 2 0 2-1 2l-4-1-4-2c-2-2-3-2-3-1l-4 2c-6 2-3 5 6 6l10 2c5 0 8-1 14-7l5-4h12l14-1c2-2-3-13-7-16s-4-3-10 1M2 210l-1 12c3 0 13-11 11-12H2m63 22l-1 3c0 1-1 3-5 5-8 4-6 6 9 6l14 2h4v-4l1-4 1-3c1-3 0-3-2-3-4 0-3-1 1-2l-9-1-13 1" fill="#d3d3d3" fill-rule="evenodd"/></svg>