<svg xmlns="http://www.w3.org/2000/svg" width="350" height="192"><path d="M0 96v96h351V0h-89a1696 1696 0 00-94 3l-3 1 3-2c3-2 3-2-82-2H0v96m186-76c-4 2-6 3-7 2h-4l-7 3c-6 2-6 2-1 4 5 3 7 2 8-1 0-4 1-4 8-1s7 3 11 1 7-6 3-4l-2-1 3-1 1-1-2-1-2-1c-1-2-4-1-9 1m-68 2l-7 3 4 2c4 2 7 5 5 5v1l2 1 1 2c-1 3 4 3 10 1l6-3-7-3-10-3c-3 0-8-2-7-3l8-3 5-3-10 3m22-1l-5 2c-3 2-3 2-1 2 1 0 2 0 1 1-2 1-1 4 3 3l3 1c0 2 4 2 6 0l7-2c2-1 2-1-4-5-7-3-8-3-10-2m97 8c-6 3-7 4-7 6 0 3 0 3-1 1v-3l-9 4-8 4v9c0 8 0 9-1 4v-6l-9 4-8 4v22l1 21 15-8v-4c0-2 1-2 8-6l9-4V67l1 4v5l7-4c9-4 9-5 9-15V46l1-20-8 3m-87 2c-8 3-12 6-12 7l-3 3c-1 1-2 1-1 2v1l8 1c3 0 3 0 2 1v1h2c0 2 0 2 3 1 2-2 2-2 4-1 2 2 1 3-1 3-2-1-2-1-1 1l7 1c7-1 9 0 5 2s-4 2 2 5c4 2 5 2 6 1l2-1 2-1h1l4 1v-3c1 1 2 0 4-1v-2c-4-2-2-3 3-3 8 1 8-4 0-6-2 0-10 3-8 4v1h-6c-2 2-6 2-6 1-1-2 0-2 1-2 3 0 2-2-2-4l-4-3 3 1c3 1 11 0 11-1h1l2 1-1-3c-2-1-3-3-3-5l-1-2-1 1-6-2c-7-4-9-4-17 0m-73 1c-7 3-7 3-5 5l8 1 6-1 1 4v4l-3 2-3 2 3-1c3 0 3 0 3 3 0 5 1 7 3 6 3-1 8 1 8 4 0 2 0 2 2 2l2-1-1-2c-2-1-2-2-1-2 1-1 3 0 3 2l1 1V41l9 4c8 4 12 5 8 1a102 102 0 00-32-13c-3 1-3 1-3-2s-2-3-9 1m107 29l-8 5-1 10 1 11v1c-1 2-2 21 0 21l9-4 8-5v-9l-1-11v-1l1-11-1-11-8 4M57 61c-4 1-3 2 3 5s6 3 6 13l1 7-6 2c-8 5-10 5-15 2-7-5-7-5-5 7 0 6 0 6 6 9 6 5 7 5 16 0 7-4 7-3 5-14v-6l4-2c5-1 5-2 5-5 0-7-1-11-3-11-2 1-13-5-13-7s-1-2-4 0m66 9c0 13 1 16 5 18l4 3-9 4c-11 5-11 7-5 11l6 3c2 3 8 6 8 5l2 1c3 4 7 6 8 4 1-1 3 0 3 1 0 4 7 7 9 5l1-1c1 1 4-2 4-5 0-1 0-2 2-1v-1c-1-2 0-2 5-5l7-3v-5c0-4 0-5-4-6-4-3-4-3-4 2 0 4-1 4-8 0-5-3-6-3-9-2-4 3-4 3-4-2 1-3 0-3-2-4s-2-2-2-11l-1-9-8-4-8-4v6m102 41l-14 9-1 5c0 7-1 6 9 6h6l-8 5-8 5h7c8-1 9-2 9-7v-4l1 3c0 4 1 5 8 4 6 0 6 0 7-17l1-16c0-2-3-1-17 7m31 13c-4 1-5 4-5 8s1 4 4 7l5 2 4-2 4-2v-6l1-5-4-2c-5-2-6-2-9 0m-55 6l-8 5c1 1 15 2 16 1v-11l-8 5m-75 1v18l8 5 8 5v-7c1-10 0-15-1-14l-6-4c-7-4-9-4-9-3m160 9c-3 1-4 3-4 6-1 6-1 7 4 9l5 2 4-2c3-3 4-4 4-6l1-5-5-4-5-3-4 3m-103 18a458 458 0 00-1 18c-1 1-7-2-7-3l-1-1-5-2-5-3c-2 0-1 2 5 5l5 5 1 7v-4c0-4 0-4 5 0l5 2v-11l-1-12-1-1" fill="#d3d3d3" fill-rule="evenodd"/></svg>