<svg xmlns="http://www.w3.org/2000/svg" width="350" height="192"><path d="M65 12c-1 1 32 1 95 1h96l2 3c2 2 3 2 3 26v23h-14a394 394 0 000 1l35-1h-10v-8c0-9-1-11-6-11h-4V18l-3-3-3-3-95-1-96 1m-5 4c-1 2-2 6-2 31v29h-3c-4 0-8 3-9 8-1 3 0 4 1 4l1 2 2 2 3 3c1 3 1 3 1 1l2-4c2-2 2-2 2 13 0 12 0 16-2 16l-1 3c0 2-1 3-6 3l-6 1-1 17a90 90 0 01-1 20c0 1 1 2 3 2 3 0 5 2 5 5 0 2 0 2 1 1 2-2 8-1 11 1l8 4c5 1 3 1-18 1-23 0-26 0-25 3 1 2 15 2 152 2h151l-1-3 2-4c1-1 2-17 0-20-1-1-2-2-5-2s-3 0-3-5l-1 7v12h-40l-35 1c3 0 4 0 4 3l1 3h-6c-6 0-7-1-5-3 1-1-4-7-6-7v-7l1-1c3 0 5 3 5 7 1 3 1 3 1-1s0-5-2-5l-1-3h-1c-2 0-3-1-5-4l-4-3v-1l-1-1h-1l-2-1 1 3c3 4 4 9 1 14-2 5-3 4-3-5 0-11-5-15-11-10-2 3-2 4-2 11s0 7-2 6c-2-2-2-2-2 0-1 1 0 3 7 7 3 2 10 3 13 1a483 483 0 01-79 3H65l-3-2-2-3V95c0-76 0-77 2-79l1-3-3 3m12 7v3h177v-6H72v3m0 6c0 2 1 2 89 2 83 0 88 0 88-2-1-1-6-2-89-2-87 0-88 0-88 2m134 24c0 2 1 2 14 2s14 0 14-2-1-2-14-2-14 0-14 2m-38 12c-10 5-11 17-3 27 6 7 21 4 25-5 7-15-8-30-22-22m125 14l-1 13a759 759 0 01-86 2c5 0 6 1 6 5 0 5 1 5 25 5 20 0 23 0 23 2l1 20v18h-8c-11 0-13 1-13 6v5l1-4 1-4 40-1a435 435 0 0025-2h-10v-7c0-8 0-8 2-8 3 0 3 0 2-5 0-5 0-6 2-7 3-2 4-2 2 6l-2 6h4c-1-1 0-2 2-3 3-1 3-5 0-5-2 1-3 1-2-1 0-1 1-2 3-2 4 0 7-2 6-5l-4-1c-3 1-3 1-2-3 1-3 3-4 6-4 4-2 5-6 1-5-3 0-2-3 5-8 2-2 3-6 0-7-2-1-6 4-6 7 0 2-1 5-3 7-2 5-2 5-3 3-3-3-5 2-3 6v8l-1-3c0-2-1-2-2-2-4 0-2-7 2-11 5-4 5-8 1-7l-3-1 5-5c5-2 5-6 0-5-4 0-4-1 0-5 2-4 3-8 0-8-2-1-5 2-5 7 0 3 0 3-2 2l-4-1h-4v-5l-1 7m-110-5c0 4 0 5-3 8-2 2-2 3-1 3v1l-1 2-1 1v2h4l1-1 1-1c4 1 7-10 4-15-3-7-5-7-4 0m-18-3c-2 3-3 12 0 15 2 3 2 3 3 2s1-1 1 1 0 2 2 2h1l1 1c2 0 1-3-1-5l-1-2c1 0 2 0 1-1l2-1c3 1 7-3 7-7 0-3-1-4-2-1l-1 3-1 2h-1l-1 1v1c-1 0-2-2-1-3l2-2h1c0-3-3-3-4-1 0 3-2 2-2-1-1-2-1-2-1 1l1 5v2c-2 0-3-4-3-9 0-6 0-6-3-3M50 81c-2 3-2 6 1 9 3 4 7-1 7-7 0-5 0-5-3-5-2 0-4 1-5 3m212 43v20h5c4 0 4 0 4-2s-1-3-3-3h-2v-18c0-16 0-17-2-17s-2 1-2 20m11-19l-1 20v19h23v-7l1-9c0-2 0-2-2-2-4 0-7-2-5-5 1-2 1-2-2-2-4-1-4-4 1-5 3 0 3-1 2-2-2-2-2-2-4-1-3 2-5 2-7 1-2-3 0-5 4-5 3 0 3 0 2-2-2-1-11-2-12 0M77 116v1h-1c-2 0-2 0-1 1s1 1-1 1c-2-1-4 1-3 4h-1c-2-3-4 7-2 13 2 4 3 0 2-6l-1-6 1 2 2-2c2-3 5-5 7-5l-1 2c-3 3-3 8-2 11h2l2-2 1 1v1l2-1 2-1c1 0 2 0 1 2h1c2-1 3-7 1-10s0-2 3 1c4 4 3 11-1 15-1 2-1 2-2 0-1-1-1-1-1 1l-2 2c-2 1-2 0 0-5l-2-2c-1-1-6 1-4 2 1 1 1 5-1 5l-2-1v-2h-3c-2-2-2-2-2 0-1 2 1 4 3 3 2 0 2 0 1 1s-1 1 2 3c5 3 8 3 12 2s11-9 11-11v-4c-1-1-1-1 1-1h1c-1-1-1-1 1-1l1-2-3 1c-1 1-2 0-3-3-2-3-2-3 0-3l1-2c0-2-1-2-3-2l-7-2c-5-2-10-3-12-1m68 3h40v23h-40c-22 0-38 0-37 1 7 1 7 1 7 4l1 4c2 2 76 2 78 0v-22l-4-1c-3 0-3 0-3-3 0-8 3-7-41-7h-40l39 1m-61 63" fill="#d3d3d3" fill-rule="evenodd"/></svg>