<svg xmlns="http://www.w3.org/2000/svg" width="400" height="143"><path d="M0 72c0 70 0 71 2 71s2-1 2-71C4 1 4 0 2 0S0 1 0 72M267 8l-2 4-2 2c-5 0-6 9-1 10l5-1v-2l-1-1-2-2c-2 0-2 0-1 1 2 2 2 4-1 4l-1-2v-4h10c3 0 3 0 2 1-2 2-3 3 0 2l1 2-3 1h-2l4 1c2 0 2-1 3-8 0-6 0-7-2-8-3-2-4-2-7 0M127 22v3h7c6 0 7-1 7-2h1c0 1 2 2 10 2h10v-3c0-3 0-3-2-3-2 1-7 2-8 1h-15a1566 1566 0 00-10 2m37-2c-1 4 0 5 4 5l4-1h4c0 2 4 1 4-1l1 1 1 1h1c1 2 8 0 8-3 0-1-1-2-6-2h-21m157 20l-22 13c-3 3-4 9-2 8l2-3 2-4 2-2 3 2 5 2c3 1 3 3 0 6l-3 4h-1c-2-1-3-6-1-6v-3c0-1-1-1-3 1s-2 3-2 11l-1 10-1 2-4 4-3 3 4 2 5 2 3-2c5-3 6-3 6 0l1 1V71l5 2c5 3 5 3 4-1s2-9 5-7c3 0 2 2 0 5-3 3-4 6-2 6 3 2 0 21-3 24-2 2-2 2 3 5l6 3 4-2 4-3h2c0 1 3 0 5-2 1-2 2-2 3-1l5 4 5 3 14-8 15-8c1-1 0-1-3-3-5-3-6-5-4-7V51l-19-11-19-11-20 11m-43 2l-1 42v42h-72c-79 0-75 0-70 6l3 2 72-1c81 0 75 0 75-9l1-14V95c1-3 1-13-1-15l-1-18c0-15 0-17-2-18-1-2-4-2-4-2M138 87c-4 5 1 13 7 10s4-11-2-11l-5 1m67 1c-3 6 3 12 8 9 6-4 4-10-2-11-3 0-4 0-6 2m171 13c-34 20-39 23-39 25s-1 2 21-11c37-21 41-23 40-25 0-1 3-3-22 11M155 91c0 2 3 3 19 3 15 0 21-1 19-2l-14-1h-5l-7 1h-1c1-2 0-3-1-1l-2 1-8-1m74 50c0 2 1 2 24 2 22 0 23 0 23-2s-1-2-23-2c-23 0-24 0-24 2" fill="#d3d3d3" fill-rule="evenodd"/></svg>