<svg xmlns="http://www.w3.org/2000/svg" width="400" height="143"><path d="M0 34v35h32l1-3c1-3 0-4-10-10-11-5-12-6-10-11l2-9c0-4 1-6 3-11l3-9c0-5-1-7-2-4-1 1-2 1-4-1s-3-2-5-1-4 0-3-3V3c0-3-1-3-4-3H0v34M230 2l-3 3c-3 1-5 5-4 6l2-1h4l2 5c2 5 3 10 1 10l-3-2-1-2-1-3c-1-3-4-4-7-3-2 1-3 1-7-4s-5-4-1 3v6l-1 1c0 1 7 1 8-1h3c0 4-8 7-11 4-2-2-6-2-7 0-1 4 13 9 16 5 2-2 5-1 4 1-1 3 2 3 5 1 5-4 8-4 9 0l3 6 2 7c1 7 3 11 5 11l2 1h-3l-4 1c-1 2-3 2-3-1s-5-4-8-1c-2 3-2 5 1 5 2 0 4 3 3 6l5 3c2-4 4-6 6-6l3-3c1-3 4-2 3 1l1 3 3-6 4-19c1-2 1-2-4-2l-6 3c-2 2-2 2-3 1-3-2-3-6 0-9 4-3 3-6 0-7-2 0-2-1-2-7V9c-1-1 0-3 1-5l3-4h-10c-8 0-10 0-10 2m23 0c-4 4-4 14-1 18h3c3-6 16-1 22 7l6 6c6 2 8 18 3 18-2 0-2 1-2 2l1 2c1-1 5 4 5 6l-2 4c-2 2-2 6 1 8 1 2 1 2-1 5-2 4-5 5-21 7a134 134 0 00-34 9c-4 0-5 2-6 10-1 9-1 9 14 11 32 3 61 10 71 17 5 3 5 3 5 7l-1 4h84V0h-73c-69 0-73 0-74 2m-72 26l-11 1c-7 0-11 0-10 1l4 3c8 6 11 20 7 30-4 7-13 14-21 14l-2 2-2 4c-3 2-2 5 2 6l12 3 3-6 6-9c5-6 6-9 3-9l1-3 2-7c0-3 1-5 4-6 2-1 2-2 2-4l2-8c2-13 2-14 0-14l-2 2M40 53c-4 18-4 18 2 18h4l-1-3-1-16V39l-4 14m175-11c3 7 2 10-1 11-4 1-5 1-2 2l2 2 2 4c2 1 2 1 2-1 0-6 1-9 5-11l3-2 3 2 4 3c1 0 2-4 1-5v-1l2 1h1c3-1-6-5-17-7-5 0-5 0-5 2m61 18l-3 12-2 5c1 2 5-1 6-3l2-3 1-2a844 844 0 001-14c-3-3-4-2-5 5m-72 1l-1 2-1 4c-2 3-2 4-1 6 1 1 0 2-2 4l-3 4-2 4c-4 5-8 13-7 15 1 1 1 1-1 1-1-1-2 0-4 4l-3 4h3c10 2 22 2 26 0 4-1 5-2 6-5s1-4-1-4v-2l2-6c0-6 2-12 4-13l3-3 2-1 7-2c1-1 0-4-1-4l-5-1c-4-2-4-2-3 0 2 5 1 6-2 1l-4-6c-3-2-12-3-12-2m-18 4l-2 4c0 4-3 10-5 13-2 2-2 3-2 6v1l-2-2-7 7c0 1-1 2-2 1v1c2 3 0 4-2 1-5-4-7-4-14-3l-7 1-4 2c-4 1-10 6-10 9l-2 5c-1 3-2 8-1 10l5 1c5 0 5 0 4-3 0-3-1-4-1-1 0 5-3 1-3-4 0-7 1-7 8-5 5 2 7 5 4 7v3c0 1 0 2-2 2v1h31c3-1 5-8 3-13-1-3-1-4 1-9 2-4 3-7 2-8l1-1c1 1 4-2 9-9l1-4c-1-1 0-4 1-4l1-4 1-5c1-3-3-3-6 0M48 128" fill="#d3d3d3" fill-rule="evenodd"/></svg>