<svg xmlns="http://www.w3.org/2000/svg" width="350" height="192"><path d="M45 1v2c1 1 1 1-1 1l-3 2-2 2-1 2-3 4v1c-2 0-4 2-4 3l-3 4-2 4v1l-5 11 2 1c1 0 3-2 5-7 5-9 11-17 19-27 4-5 4-5 2-5l-4 1m67 1c-10 4-11 5-10 7h7l5-2c5-1 10-4 10-6s-4-1-12 1m41-1c-2 1-2 6 1 8l5 3c6 4 11 11 9 12v2c3 2 2 3 0 3s-2 1 1 4c2 3 3 3 2 8 0 6-1 7-9 7-7 0-8 0-6 3s1 4-3 4l-4 1 3 3c3 4 6 3 8-1l4-6 3-2v4l2 8c3 6 2 8-2 9-5 1-5 1-4 4s1 3-3 4c-5 1-5 0-4-4 2-4 1-5-4-1-3 3-4 4-4 7-1 6-1 6 3 3h9l1 1-2 1-6 4 2 1c3 0 3 2 0 2-4 1-8 0-10-4-3-5-4-6-12-6-6 0-7 0-9 3-1 2-2 2-3 1-2-1-2-1-4 1-1 1-2 2 0 2l1 3-2-1c-2-2-2-2-3-1-2 2-2 2 0 4v1l-2-1h-1c-2 3-3 3-8-2l-5-4c-1 1-2 0-2-1l-5-1h-3l2 2 3 3-3 2c-3 2-4 4-1 9l-1 2c-2 0-3 2-3 8s1 9 5 14l3 4v3c-1 0-3-3-3-5l-2-2-1 1c2 6 2 10 0 13l-3 2-1-4-5-9-3-10c0-2-1-5-3-7l-3-4 3-1 3-3h-2c-4 4-8 4-18 0l-14-7c-4-4-5-4-4-1l-2 8c-2 5-2 6 0 10l3 8c1 6 7 11 16 12l4 1v-3l-1-10c3 4 6 8 6 6-1-3 1-3 2-1s1 2 1-1c0-6 2-6 4 0 6 13 8 19 3 15-5-7-6-4-4 11l3 11c3 8 3 15-1 24l-2 4h13c10 0 12 0 11-1-1-2-3-13-2-17 0-2 1-3 2-3 1 1 3 0 4-2s2-2 3-1h1l1 1v3l1 2c0 4 0 5 2 2 2-2 2-2 4-1 1 2 3 2 8 2h7l-1-3c-1-6 3-7 17-5l18 1h11l2-3 2-4v-4l1-1 1-1c-1-1 4-5 8-5 2 0 3-1 5-4l20-39-1-7c0-9-2-17-4-19s-4-9-2-11l3-4c2-3 2-3 2 4 1 9 4 21 5 22l1 5c-1 6-1 6 3-1l5-7c2 0 4-6 4-12 1-4 1-4 4-5h5v4l-2 3v-5l-3 2-2 5c0 7-1 6 4 7l4 1-1 5v5h4l18-3c17-1 18-2 18-8v-3h-9l-9 1 2-4c2-7 2-7 13-8 10-1 11-1 9 5-1 4-1 5 1 5 2 2 1 5-4 13-5 9-5 9 1 6 5-3 11-8 11-10l2-3c1-1 1-1 3 1l2 2 2-4 4-4-4 7-5 7 3 2 2 4c-1 2-3 1-3-1l-2-2c-2 0-11 11-14 17-3 5-6 7-5 3 1-2 1-2-1-2-1 1-2 0-2-1-1-1 0-1 1-1 2 0 2 0 1-1l-1-1v-1l-3-2v1c1 1 1 1-1 1-1 1-2 1-1 2l-1 2a250 250 0 00-29 45c-1 2-2 3-1 4 0 2-2 5-4 5l1-4 1-6-1 1h-1l-1-2h-6l-2 1h-2l-2 1-4 3c-3 3-4 3-5 0-1-1 0-2 1-3 2 0 1-3-1-3l-8 8a751 751 0 01-13 19l5-4c3-4 4-4 4-2l-2 4c-3 4-3 4 6 4 10 0 18-2 22-7 2-2 4-3 7-3 5-1 19-8 20-10l4-2c3-1 5-3 5-4l3-1 4-1 6-2c7-2 17-7 15-8-3-1 0-3 5-5a1367 1367 0 0039-14l3-2h-3l-6-1-3-1-24 6a185 185 0 00-15 4c-2 0-2 0-1-2s3-3 7-3l19-6 13-4c12-3 15-5 15-8-1-1 1-2 8-4 6-1 8-2 6-4l-2-5-1-3-4 4c-7 6-9 6-8-2 0-7 8-21 11-22 2 0 4-4 3-6l1-2c2-2 2-14 0-14h-4c-4 1-9-4-9-9 0-3 5-8 9-10l5-1v-6l-1-8-1-1h-1l-6-1c-4 1-4 1-4-1 0-4-1-5-4-5-1 1-2 1-3-1s-1-2 3-3l8-2 5-1-2 2c-4 0-5 4-4 7 1 2 5 3 6 1h3l1 3c1 1 1-2 1-10l-1-13c-1-1-29 6-30 7l2 4c1 3 2 4 4 4s3 0 2 1l-2 4-2 4c-2-1-2 2 0 9 1 5 2 6 2 4s0-3 1-2l2 1 1 3 1 5c0 2 0 2-2 2s-3 1-3 2l-1 1-1 1-2 3v5c-2 1-2 1-2-2s-3-11-5-12l-1-3c0-2 0-2-2-1l-3-1h-2c-2 1-5-1-5-5-2-6-3-7-3-1l1 6h-3c-4 0-7 1-11 4l-3 3-2-5-6-8c-3-2-4-4-1-4s3-2 2-5c-1-4-3-4-8-3-4 1-4-2 1-3 4-2 6-6 3-9l-2-2c1-3 0-5-1-5l-2-1c0-2-4-2-27-2h-26l-3 3c-2 2-4 3-7 3-5 1-5 2 0 6l2 3c-1 1-3-1-6-4l-6-4-1-2c2-4 0-5-10-5-8 0-9 0-9 2l-3 3c-5 1-5 1-5-2l-1-3c-2 0-2 1-1 3 0 3 0 4-2 5-3 3-4 2-5-4 0-4 0-4-4-3M2 4L1 16c0 10 0 11 2 11l3 2 4 1c2 0 2 0 1-1l-3-1v-1H7l-1-1-1-2v-1c1 0 1-8-1-11V7c0-4-1-5-2-3m70 3v3c1 4 5 6 11 6l7 1c2 1 1 4 0 3l-2 1 2 2c2 2 1 3-1 10-3 6-3 6-1 10 2 6 1 7-5 7-4 0-5 0-5 2l-6 3c-5 2-7 4-4 4s6 3 4 4c-1 1 0 4 2 4 3 0 8-2 10-4 3-2 8-2 10 1l4 1c3 0 3 0 2-4-1-7-2-11-3-10v-5c1-9 1-18-2-22-2-3-2-6 0-6s1-3-3-6c-4-4-8-6-8-4l2 1v1l-2-1h-3c0 1-1 1-3-1-3-2-4-2-6-1m231 6c-26 7-25 6-21 11l3 3 7-2 8-1c0 2 3 1 3 0l4-3c4-1 5-2 5-3 0-2 1-3 3-3l2-2-1-4-13 4m-67 16l-2 6c0 5-4 11-5 8l-6-1-9-2c-4-3-5-3-5 2l-2 7-1 12c1 12 1 13 7 11s6-2 4-9c-2-6-3-10-1-7s3 2 8-4c4-6 5-7 8-7s6-3 4-5 0-8 3-11l1-2-4 2M10 44l-3 2-2 1-1 2c3 6 3 10 1 10-1 0-1 2 1 4l1 3 4 1c3 0 4 0 3-1v-1c1 0 1-2-1-7v-7l1-5c1-3 1-3-4-2m65 32l-7 6-8 11 4-1c3-1 3-1 6 2 4 2 4 2 2 4-2 3-2 3 0 3 2 1 8-7 8-9-1-1 1-3 3-6 4-4 4-5 2-5-4 0-7-4-6-7 2-3-1-2-4 2m232 0l-2 4 11 4-2 3-21 29c-22 31-21 29-23 26-1-2-4-3-2-1l-1 3c-2 2-1 7 1 7l23-29c13-17 14-17 12-14v2l3-2 7-3a291 291 0 005-1v-4c1-3 2-3 2 0-1 4 1 2 6-6 6-9 6-9 2-11-3-1-2-2-16 15-8 9-11 10-4 1 9-11 15-21 14-22l-12-4-3 3m-143 51l2 9 1 2h1l-1 1-2 3-1 2v1l2 1h2l-1 1v1h5c2-2 2-2-2-12l-5-11c-1-1-1 0-1 2" fill="#d3d3d3" fill-rule="evenodd"/></svg>