<svg xmlns="http://www.w3.org/2000/svg" width="350" height="192"><path d="M0 2l1 3v1l-1 5c0 5 0 5 2 5h2l1 3c1 1 1 2-2 2H0v6c0 5 0 6 2 6l1-1h1c2 2 1 6-2 5-2 0-3 6 0 8 1 2 1 3-1 6-1 4-2 28 0 28v2c0 3 2 7 4 6l2-3 1-2 1 4 1 6v2l-1 3c1 1 0 8-2 7l-1 2c0 1 0 2-1 1l-1 3-1 4-1-1-1-1-1 17 1 16h2c1 1 1 1-1 1s-3 2 0 4v1c-2 0-2 2-2 21v20h8c6 0 8 0 9-2h1c0 2 3 2 44 2h44v-4l2-6v-3c-1-1 0-2 1-5 2-3 5-11 5-15 0-2-4-7-6-7s-3-3-1-4l1-6 1-5v-2l2-3 2-4v-4l1-3 2-1 3-1 3-2 1-2 3-3c3-1 3-1 2-2v-1l4-7-3-1c-3 0-3 0-3-3 1-2 1-2 0 0-1 1-1 1-1-1 0-3 5-9 7-9h3v-2c3-1 6 1 3 2-1 1-1 1 1 1h2l-2 1-1 1 4 1c6 3 6 3 6-1-1-3 0-4 1-4l1 1c0 2 0 3 2 3l5 1h5l1-3v-2l2 2 3 1 2 1 4 2 4 1h2c2-2 4-1 4 1l1 3 1-1c-1-1 0-2 1-2l1-1c0-3 4 0 5 4l2 5v-5c0-5 2-6 4-3l2 1 2-2c2 0 2 1 2 5 0 5-3 7-5 3h-1l-1 2c-1 1 0 1 3 1s4 0 4 2l-2 1c-2 0-2 1 0 4l2 1c1 0 5 3 5 5l1 1 6 5 5 4 1 3c0 5 3 10 7 13l3 4-2 3c-4 5-5 8-4 10l2 4 3 3 1 1 2 2c2 1 3 3 2 3v4l-1 4v6l1 4h40a427 427 0 0042-1l16 1h16V0H0v2" fill="#d3d3d3" fill-rule="evenodd"/></svg>