<svg xmlns="http://www.w3.org/2000/svg" width="331" height="200"><path d="M0 100v100h67a551 551 0 0073-1l98 1h94V0H0v100m151-39c-18 2-47 12-55 19-4 3-3 4 2 1l4-2-4 5-5 5-2 2c-1 1-1 1 2 1l4-2c1-1 2-2 4-1s3 0 2-2c-2-2 1-4 4-3 2 1 4-1 2-2l1-2c2-2 2-2 4-1 2 2 3 3 1 3l-1 1 4-1h10v3c2 1 2 1 2-1h1c1 2 18 1 19-1v-4c0-2 0-2 3-2s4 1 4 4 0 4 4 4c5 0 5 0 5-6 0-3 6-3 7 0l1 2v1l-2 1 4 1c7 0 14 2 17 5l3 3v-2c-1-3 0-4 3-1l1 2-3 4c0 5 0 5-3 4l-5-1c-2 0-2 0 2 2l6 2 2-1c-1-2 0-1 4 1s4 2 2 3c-3 0-2 2 1 2 2 0 2 0 1 1v1l2-1h1v1c1-1 5 1 5 2h7l9 1 5 2-1-2h2c4 0 4 0 5-4 13-28-35-53-91-47m-23 27l3 2 4 1-2 1v2l-3-1-2 1h-1l-2 1h-1l-2 1-1 1h-3v1l-1 1h-4v1l-1 1c-3-1-2 1 1 2l1 2h2c2 0 2 0 1 1v1c2-1 11 2 11 3s-3 2-4 1h-5l-1-1h-3c0 2 0 2-2 0h-1c0 2-1 0-3-3-1-3-1-3-1-1v2l-1-2c-1-2-1-2-1 0v3l-1-3-1-2v2l1 4h1c0-2 0-2 1-1v3h-1c-1 1-1 0-2-2-2-3-2-3-2-1s0 2-1 1c-1-2-1-2-1 0v4c1 3 1 3-2 3l-1-4c1-1 0-2-1-2l-2-1c0-2-2-4-5-3-1 1-2 1-2-1 0-3 4-3 6 0h2v-1l-2-1-1-3 1-1h3v-1l-2-1c0-2-3-2-5-1-2 0-2 2 0 2l1-1 2-1v2l-4 1c-2 0-3 4-1 9 0 3 1 3 3 3 4 0 5 1 6 4 0 2-1 3-3 1v-2c1 0 1-1-1-1-3-1-2 3 2 9 4 4 7 5 10 2h2c1 2 0 3-2 3s-2 1 1 3c4 3 8 4 8 2l-2-2v-2l4 1 3 2-1 1c-2 1-3 3-1 2l3 1c4 5-20-5-29-12-5-4-8-8-9-16l-2-5v8c1 10 3 16 7 18 2 0 3 2 3 2 0 4 11 12 18 15l4 2c-1 1-13-2-15-4s-2-2-3 0c-1 3-1 4 1 4v2h-2c0-1-2-2-3-1l-2-1-1-2-3-5c-1-2-1-3-1-1 0 5 4 13 11 20s9 8 10 6c2-4 14-4 14 0l2 2v4l-2-1-10-1c0 2 6 4 7 3l2 1 16 4c4 0 4-2 0-2-4-1-5-3-5-7 1-2 1-3-1-4h4l9-1c3-2 3-3 2-7-2-3 2-3 11-2s11 0 11-2-1-2-6-2c-3 0-4-3-1-5v-1l-1-1 5-1c9 0 14-1 15-3 0-2 2-3 3-1l4 2c2 1 1 1-4 1-7 1-10 4-5 5 4 0 5 3 3 4l-2 2 6 1c15-2 23-5 23-10 0-3 3-5 5-3 2 1 2 1 2-1 1-1 1-1 1 1 0 3 0 3 3 2 2-1 2-2 1-3s0-2 6-6c8-5 11-7 13-10s1-3-6 2c-11 8-32 15-42 15-3 0-2-1 1-2l8-1v-4l2 1 2 2 7-3c4-1 7-3 7-4l2-1c2 1 5 0 10-5l3-1 4-4c3-2 3-3 2-4-2-1-5-1-4 1 0 2-3 2-4 1-1-2-5-2-5-1l3 2c2 0 2 1 1 2h-3l-2 1h-3c-2-1-3 0-3 1l2 1c1 0 2 2 0 3l-1-1h-3l-3 1c-1-1 0-2 1-2l2-2-4 1-5 2 2-2 2-2 1-1v-1l-3-1v2c1 1 1 1-1 1h-2v-2c2 0 2-1 1-2h-5l1-2h-1l-2 1v-1l-2-1-10 2-12 3v8l-1-5-1-4v8h-9l1-4c0-4 0-4-3-4s-3 0-3 4v4h-11v-8h-9l-9-1 1-3v-1c0-1 2-3 4-3l1 1-1 1-2 1 5 1h5l-1-5c0-4 0-5 1-3v-4l1-5 1-5v-5h-7l-7 1m28 3v4l1-4c1-3 1-2 1 1 0 4-1 5-2 3-1-1-1-1-1 1s0 2 8 2l11-2 3-1-3 1c-4 0-4-1-1-3 2-1 2-1-2-1l-4-2h2l4 1 3 1 2-1c-1-3-5-4-14-4h-8v4m1 12l1 2 1 1-1 1-2 1c1 3 0 4-1 2-1-3-1-3-1 0v4h7c7 0 18-2 19-4h-1c-3 0-4 0-1-2 1-2 1-2-6-2l-7-1c0-1 14-1 16 1h1c0-3-5-4-15-5-10 0-10 0-10 2m43 64h-9c-6 0-7 0-9 2-3 3-3 5 1 5l6 1h5c2-2 7-4 10-3 2 0 2 0 2-3 0-2 0-3-3-3l-3 1" fill="#d3d3d3" fill-rule="evenodd"/></svg>