<svg xmlns="http://www.w3.org/2000/svg" width="400" height="150"><path d="M0 75v75h46l45-1c-3-1-2-3 1-3s3 0 3 2c-1 2 0 2 5 2 3 0 5 0 4-1-3-1-1-3 4-4 5 0 6 2 2 4-2 1 0 1 6 1s7 0 6-1c-3-2-1-4 3-4 6 0 7 2 2 4-1 1 10 1 24 1a162 162 0 0029-1 1566 1566 0 00134 0l43 1h44V0H0v75m0 1c0 41 1 55 1 31V64h3l5-1-4-1-4 1V47c0-14 0-16 2-16v-1c-2 0-2-2-2-15L0 76m190-30c-15 2-36 9-42 15-3 2-3 3-1 2 2 0 3 2 1 3l-1 1-1 1c-2 0 3 4 5 4l1-1-2-1v-1l2-1 2-1v-1c-4 0 2-2 5-3h6c2-1 2-1 1 1h2c3-2 4-1 2 1l-1 2 2-1c0-2 2-1 2 1l3 1c2 0 2 0 1 1l-2 1-4 1-3 2-4 1c-4 2-4 2-3 3l1 2h1l2 1 1 1h4l2 1 1 1h-7l-1-1h-2l-2-1h-1l-1-2c0-2 0-2-2 1l-1 1c0-2 0-2-1 0s-1 2-1 0c0-3-3-2-4 1 0 2-2 3-2 1-1-1 0-2 1-3v-1c-3 0-3-3-1-3s2 0 1-1l-1-2-2-1c-3 0-5 2-2 2v1c-2 0-3 2-3 4s0 2 1 1l3-1c1 1 1 1-1 2-2 0-3 4-1 4l1 2c0 4 7 10 10 8h2v1c-3 0-2 2 0 3v1c-2 0-13-7-15-10l-3-7-2-5v6c1 7 3 12 6 13 2 1 1 4-2 4-6 0 1 17 10 23 3 2 3 2 5 1 1-2 3-2 5-2 6 1 6 3 1 3-4 1-6 4-1 5l8 1c5 2 16 3 15 2l-5-1c-4-1-5-2-5-5l-1-4h5c6-1 8-2 6-5s0-3 8-2c7 1 10 0 9-2l-4-2c-3 0-4-1-2-3v-1c-1-1 0-1 3-1l7-1c2 0 2 0 1 1v2c3 0 4 2 3 3-2 3 1 4 9 2 9-1 17-5 14-6-2-1-2-1-1-2h4c3 2 7 1 5-1-1-1 1-3 6-6 6-4 10-8 9-9l-5 3c-6 5-21 11-26 11-3 0 2-3 4-3 4 0 11-3 10-4l1-1c4 2 19-10 16-12-1-1-1-1 1-1 3 1 4-1 6-7 2-9-9-21-23-26-12-4-34-7-48-5m0 14v3l-8 1c-7 0-9 1-2 1l4 1-1 6c0 12-1 13-6 14-7 1-5 2 3 3h7l-1 3c0 3 0 3 3 3 2 0 3 0 3-3 0-2 1-3 4-3s3 0 3 3c-1 3-1 3 2 3s4-1 4-3c0-3 1-3 10-4l8-3c4-1 5-1 3 1v1h1c-1 1-1 1 1 1h2l-1 2v1c1 1 1 1 2-1 0-1 1-2 2-1 2 0 2 1 1 2h3l3-2v1c-1 1-1 1 2 1 5-1 7-2 3-2l-2-1 3-1c3 1 5 0 5-2l-8-1h-6c1 0 1-1-1-2h-2c-1 1-1 1-1-1l-2-1c-2 0-2 0-1-1l1-1c-3-1-3-1-3 2v3l-1-3c-1-3-4-5-8-5l-2-1h5c2 1 3 0 4-3l-1-4c-1-1-1 0-1 1 0 2 0 2-1 0s-3-3-10-4c-6 0-7-1-7-3s-1-3-3-3-2 0-2 3c0 2 0 3-3 3-4 0-4 0-4-2 1-2 1-3-2-3-1-1-2 0-2 1m5 6l-2 4v4h6l8-1v-1c-2 0-2 0 0-2h3c2 0 1-2 0-3-2-1-14-3-15-1m0 11h-1l-1 3v5c1 2 18 0 20-2h-2c-2 0-2 0-1-1 1-2 1-2-1-2-1-1-1-1 1-1l3 2h1l-1-3c-3-2-20-3-18-1m21 45c-2 1-1 3 1 3l-1 1-4 3c-1 2-1 2 2 2l5 1 4-1 6-1c2 0 12-6 12-7l-4-1h-4l-1-1-1 2c0 1-4 3-9 3h-3l3-2 3-2c-2-2-8-2-9 0" fill="#d3d3d3" fill-rule="evenodd"/></svg>