<svg xmlns="http://www.w3.org/2000/svg" width="350" height="192"><path d="M0 16l1 18v1L0 54l1 20h5c5 1 5 1-1 1l-4 1-1 5c0 4 0 5 2 6 3 2 4 2 4 1l-1-2-3-1c-2-3 8-5 19-4h4c-2 0-1-3 1-3 2-1 4-1 4 1-1 2 0 1 6-3 6-5 15-7 13-4l1 2 1-1 2-1c2 0 2 0 1-1-3 0-2-3 0-4s3-2 4-1 0 6-1 6v6c0 8 0 9-8 13l-10 7-7 4a849 849 0 01-31-4c-1-2-1 6-1 46v48h351v-71c0-57-1-70-2-70l-14-9 14 1c2 1 1 4-1 4-1 1-1 1 1 2l2 1V0H204A1481 1481 0 0056 2c0-2-4-2-28-2H0v16m0 1c0 15 0 15 1 6 0-11 1-11 3-10v3c-2 1-2 5 0 4l1 1h1l4-2h3c3-1 3-1 1-3l-3-1-2-1-2-1c-1 1-1 0-2-1l-2-2c-2 1-2 0-2-4L0 17m300-8l-4 3c-6 5-25 15-41 22l-13 7-6 4-4-9-6-14c-5-10-8-11-22-10h-3c1-1 1-1-1-1l-3 1c0 1-7 3-22 6-20 4-23 5-25 7-3 3-4 7-2 8l1 8 2 5 1 4 4 11 1 4 2 7 13 37c17 52 17 50 21 52 6 3 10 3 40-5 35-8 35-8 38-10 3-3 3-9 0-13l-3-2-4 2c-6 2-9 3-17 3l-8 2-3-1 14-4 15-4c2-1-2-9-4-9a1091 1091 0 00-75 16 319 319 0 01-6-26l7-5 4-2v1c-2 1-1 2 3 2 3-1 4-3 2-3l1-2 2-3 2-1h3l4 1h3l-1-1-1-1h3l3-1 2-1-1 2c-2 2-2 2 0 2 1 1 1 1-1 1l-4 1c-3 2 0 2 5 1l3-2c-3-2 4-9 8-7v-1c0-2 2-2 3 0l4 1h3l2-1 4-2a535 535 0 01-8-10c-3-2-4-3-12 0l-11 2-6 2c-5 2-18 2-22 0l-5-7c2-2 5-3 6-2l5-1c1-1 4-2 5-1l2-1 2-1 1-1h1c1 2 15-3 16-5 1-3 5-6 5-5l1-1 7-1c6-1 19-4 35-10l21-5 5-1c1-1 1-1-1-1-1 0-2 0-1-1 1-2 17 1 19 3l15 7 20 7 7 3v6c1 4 1 4 1-4l-1-7v3l-6-3c-5-3-10-5-15-5l-8-3-6-3-2-1-3-1-7-4c-7-6-13-7-21-5h-4c-3-2 0-5 7-6l8-3 6-1c3 1 4 0 5-1l4-2c2 0 3 0 2-1l-3-1c-2 0 4-3 7-3 4 1 4-1-1-3-4-3-9-4-13-2m21 10l1 3c-3 1 2 7 11 13 6 3 9 4 5 0-2-2-2-2 0-2l3 2 5 3c4 2 4 2 4 7 0 3 1 2 1-3s0-7-1-6l-1 2-10-8-20-14 2 3M50 27l-2 1h-1c1 2-3 6-5 6v-2l-1-1-2 3c0 3-3 7-6 6l-1 1-2 2-16 5-7 2 4 1h3l5-2 5 1c-1 2 0 2 4 1 5-1 4-3 0-2-2 0-2 0-1-1s3-2 4-1l2-1 2-2 1 1 2 1 2-2h-2l2-3 3-4 1-1c2 0 7-5 7-8 1-2 1-3-1-1m4 16l-1 3h-1c-1 0-2 1-2 3 0 4-9 15-12 15l-6 2c-6 4-9 4-20 6-6 0-6 1 0 1 12 0 23-4 32-10l4-5c-1 0 1-3 4-5s5-5 4-6l1-3c1-2-1-3-3-1" fill="#d3d3d3" fill-rule="evenodd"/></svg>