<svg xmlns="http://www.w3.org/2000/svg" width="400" height="275"><path d="M0 138v137h401V0H0v138M273 23l2 3 2 3 3 6c5 5 6 8 2 8-2 1-2 2-2 4v3l6 2c5 0 7 4 3 6l-5 4-5 3-4 3c-3 2-3 3-2 3l2-1 2-1v1l-1 2 3-1c1-2 2-2 3 0h3l3 2c3 3 3 4 0 4-2 1-2 1-1 2 1 0 2 1 1 2l1 1c1 0 3 7 2 8-1 2-1 2 2 2 2 0 2 0 1 1l-1 2 2-1c1-2 3 2 2 4l1 1 1-2c0-4 3-7 5-6 4 0 4-1 1-4l-2-3 3 2 2 1c0-1-3-7-5-8l-1-2-1-3 3-1 4 1h6c1-3 3-2 4 0 0 2 0 2 1-1 0-2 0-4-2-5l-2-4-2-4c-3-2-5-8-4-9 2-1 1-2-2-2l-4 1c0 1-2 1-5-1l-3-3v-2c-1 0-1-1 1-1l2-2h-4v-2c-1 0-2 1-2 3l-1 2c-2 0-5-2-3-2l-1-1v-2c2-2 2-2-1-2-3-1-6-6-4-7l-6-6c-2-2-3-2-3-1M58 65c-1 1 1 3 3 5l4 4 3 5 2 4 2 2c1 2 2 2 2 1h1l2 2c2 0 3 0 2 2l2-1 2-2-3-3-2-3c1-1 1-2-1-3l-3-2-2-3c-3-4-7-8-5-4 0 2 0 2-2 1l-3-2-1-2c-1-2-3-3-3-1m24 0v5c2 3 3 5 3 3h1v1l2 5 3 8 2 7a56 56 0 014 9l1 6c1 4 5 8 5 5l2-1v1l2 2 1 2c-1 1 0 3 1 4v2l-1 3v3l1-1 1-3c2-2 3-9 2-9l-1-4-2-4-2-3 4 3 5 4 2 2 1 1c0-3 2-1 3 4l2 5 1 3c0 2 0 2 1 0 0-3 2-5 5-5 2 0 3-1 3-2l1 1-1 4v2h-3c-2-2-2 0-1 2l1 3v1l-2 1c-2-1-3 0-1 2l1 3 1 3v1c-2 1 1 7 4 10 3 2 5 3 3 1-1-2 2-4 6-4s5 1 9 6l7 4 5 4 4 1h4c2 2 14 2 14 1l1-1 6-3c9-7 9-7 13 1 0 2 1 3 2 2l1 1-1 1c-1 0-1 1 1 2h2c-1-1 0-2 1-3 2 0 3-2 1-2l-1-2 3 1c2 2 2 2 4 0l2-1 1 1 3 1c3 2 4 2 4-3l-1-3c-1 1-2 0-2-1s4-1 9 1l1-1c-1-1-1-1 1-1l5 1c2 0 2 0 1-1-1-2-1-2 1-2s-5-3-8-3l-2-1v-2l-2-1c-1-1-1 0-1 1 0 3 0 3-2 1-2 0-3-2-2-2h1c0 1 1 1 2-1v-2c-1-2-1-2 2-4s4-6 1-4l-3 1c-1-1 2-4 4-4 1 1 1 0 1-2s1-3 2-3v-4l2-1c1-1 5 0 9 4l4 2c2 1 2 5 0 6l-4 1c1 0 0 2-2 3-3 2-2 3 2 3l4 1h3c2-2 2-2 3 0l-1 2v3c1 2 4-7 4-10-1-1-1-2 1-2s2-1 2-2l1-2v-1c-2-1 0-6 2-6 2-1 3-2 3-5s0-4 2-4l3-1c1-2 0-7-2-7-2 1-3 2-1 2l2 2c0 2 0 2-3 1s-7 0-7 1l-2 3-4 5c-3 5-6 5-8 3s-2-6 0-6l1-1h-1l-2-1-3-1c-3 0-3 0-2-2 0-2 0-2-12-2h-16v-1l-1-2-1-1h3l2-1c1-1 0-1-3-1s-3 1-3 3-1 2-3 2l-5-1c-1-2-2-2-1 0l-1 1-1-1v-2l1-1 1-1 2-1v-3l-1-3-1 1h-2c-1 0-2-1-1-2l-2-1c-2 0-2 0-1 2 1 1 0 2-5 1-2 0-2 0-1 1 2 1 2 2-1 3-2 1-2 1-4-2l-3-2 1 2c1 2 1 2-1 2-1 0-2 0-1-1l-1-2c-1-2-2-2-2-1h-9l-5-1-2-1-2 1c1 3 0 4-3 4-4-1-5 0-2 2 1 1 1 1-1 1-1 0-2 0-1-1l-1-1-3 2c-2 0-2 1-2 2v2l-2-2v-3l1-1-3-1c-1 0-2-4-1-5h1v-4c-2-2-3-2-2 0l-1 1c-1 0-2 1-1 2h-1l-2-1h-2c-1-1-2-1-2 2-1 1 0 2 1 2 3 0 3 2 0 3l-2 1h-1l-1 2c1 2 1 2-1 2l-1 1-1 1-4-4-1-1-1 1h-3l-1-1c1-1-5-9-6-9h-2l-2-4-4-4c-1 1-1 1-1-1 1 0 1-1 0 0l-1-3-2-3c-2-1-4-8-5-10 0-3-8-8-8-5l1 1 1 2v3l-1-3-2-2-2-1-1-2m273 4v2l-2-1h-1l-2 1c-1-1-4 3-3 4l2 1 1 1 1 1v2c0 1-1 2-5 1l-4-2v-1c-2 0-4 1-3 2l1 3c0 3 2 4 3 3 1-2 2-1 2 2-1 2 0 3 2 1l2-1c1 0 4-2 6-5l6-4h1v-3l-1-3v-2l-1-1-1-1h-4M58 178l1 4-2-3c-1-2-1-2-3-1-1 2-1 2-3 1-3-2-5-1-5 2 0 4-1 5-4 3-4-2-9-1-11 2-2 2-2 3 1 6l3 4v3h4c1 1-2 2-5 2-2 0-2 1-2 2l-2 2v1l1 1c0 1 0 2 2 1l2 1c-1 1 0 1 1 2l1 1-2 2v1l-1-1c-1-2-3-1-3 1l2 2 1 3v1l1-1 1-1 1 4c0 4 2 8 6 10 2 2 1 3-2 1-6-2-13 0-9 3 1 2 3 2 3 1h2c2 0 2 0 1-2h1l3 1c2-1 3 0 3 1l1 1 4 3 6 4h-2l-7-2-3-1v5l-1 3v1c3 0 7 2 4 2l-1 2 1 2 5 1c3 2 4 2 6 0 3-2 4-1 0 2-3 2-3 2-2 4 2 1 4 1 4-1l1-2 2-4c0-6 0-7 2-7h11l6-2c1-2 1-2 3-1h1l2 1c5 4 2 8-4 8l-3 1-3 1-1-1v-2c-2-2-7 1-6 3 0 2 0 2-1 1l-2-2v1l-1 1-3 3c-1 3 3 6 5 3 2-2 4-1 3 1h1l3-1a236 236 0 0010-1c2 1 6-1 6-4 1-3 1-3 3-2s3 1 4-1h1c0 2 2 1 3-1l3-3c2-1 2-1 2-4-2-7-2-8-1-9v-2c-1-1 0-1 2-1 2 1 3 0 4-2l2-5v-6c1-5-1-11-5-11v-1l-3-5-3-4c0-3-2-4-4-4s-3-1-3-3l-1-2-3-1c-2-2-5-3-6-1l-1 1-1 1c2 2-7 0-9-2-1-2-2-2-5-2-6 2-10 0-10-3v-4c1-1-1-7-2-9l-1 3m8-2l3 5 3 5c0 2 3 3 10 3 5 0 6-1 6-3l1-4 1-2-1-1h-2c-1-2-3 0-2 2 0 2 0 2-2 2-3 0-4-2-1-3l-1-2c-2-2-4-1-3 2 0 3-1 3-3-1-1-4-3-5-3-3l-1 1-3-2-2 1m-9 42l-4 1c-2-1-1 5 1 7l1 3c1 4 4 7 7 7h3c1-1 1-1 3 1 1 2 7 3 9 1l-1-1-1-1h3c7 1 6-9-1-12l-8-4c-6-3-9-3-12-2m252 30c-4 3-5 7-2 10 1 2 2 2 2 1l4-1c4 1 5 1 6-1 2-2 2-2 1-3-2 0-2-1-1-2s0-2-3-4c-4-2-3-2-7 0" fill="#d3d3d3" fill-rule="evenodd"/></svg>